<svg xmlns="http://www.w3.org/2000/svg" xmlns:xlink="http://www.w3.org/1999/xlink" width="335" height="647" viewBox="0 0 335 647">
  <defs>
    <clipPath id="clip-path">
      <rect x="139.92" y="-62.46" width="56.8" height="195.21" transform="translate(121.75 200.66) rotate(-86.08)" fill="none"/>
    </clipPath>
  </defs>
  <g id="Layer_2" data-name="Layer 2">
    <g id="Layer_1-2" data-name="Layer 1">
      <image width="633" height="355" transform="translate(0 62.12) scale(0.53)" xlink:href="the-last-secret.png"/>
      <path d="M0,5A5,5,0,0,1,5,0H330a5,5,0,0,1,5,5V68H0Z" fill="#0a1013"/>
      <g clip-path="url(#clip-path)">
        <g>
          <path d="M223,16.9a26.72,26.72,0,0,0,.9-2.6c.1-.5.3-.8.9-.7,2.5,0,4.9,0,7.4.1a6.23,6.23,0,0,1,4.5,1.4l-.1.1a27.44,27.44,0,0,0-3.9-.9q-3-.15-6,0a1.12,1.12,0,0,0-.8.7c-.3.9-.5,1.9-.8,2.9s-.5,1.9-.8,2.9-.5,1.9-.8,2.9c-.2.8-.4,1.7-.6,2.5-.5,1.5-.8,3-1.2,4.5a11,11,0,0,0-.2,1.8c-1.1,3-1.7,6.1-2.6,9.3h3.4a.94.94,0,0,0,1.1-.8c.8-3.2,1.7-6.4,2.6-9.6.1-.6.4-.8,1-.7h.9c1.7.1,2.3.9,2,2.5l-.6,2.4-1.2,5.1c-.2.8.1,1.2.9,1.1,1-.1,2.1,0,3.2,0l-.4-.5a2.65,2.65,0,0,0,.5-.6,35.89,35.89,0,0,0,.8-3.5c.1-.3-.2-.7-.2-1a7.63,7.63,0,0,0,.8-1.1,14.62,14.62,0,0,0,.5-2c.3-1.8.3-3.6-1.3-4.6a11.51,11.51,0,0,0,2.5-2.4,31.65,31.65,0,0,0,1.9-4.6,17.51,17.51,0,0,0,.6-3.3,1.14,1.14,0,0,0-.3-.6c-.1-.7-.2-1.3-.3-2h0c.3.4.6.9,1,1.4.3-1.2.6-2.3.9-3.4h25.5c.2,0,.3-.1.5-.2l2.6.2-.1,1c-.4,1.4-.8,2.7-1.3,4.1a7.49,7.49,0,0,0-.4,1.6l-4.6.1c-2.1,7.9-4.2,15.7-6.2,23.6H248c2.1-7.9,4.2-15.7,6.2-23.6h-9.7l-1.3,4.9h6c-.6,2.1-1.1,4.1-1.6,6.2a1.13,1.13,0,0,1-.8.5h-5.3l-1.4,5.3h7.5c-.6,2.2-1.2,4.4-1.8,6.7h-20a10.62,10.62,0,0,1,.3-5c.4-1.7.9-3.4,1.3-5.1.1-.4.4-1-.4-1.2s-.9.3-1,.9c-.9,3.4-1.8,6.9-2.7,10.4h-7.2c.2-.9.4-1.7.7-2.7a9.66,9.66,0,0,1-6.8,3c-2.6.1-4.9-.5-6.4-3.1a14.13,14.13,0,0,1-.6,2.2,1,1,0,0,1-.8.6H188.3c-.1,0-.1-.1-.2-.1.2-.7.4-1.4.6-2.3a8.75,8.75,0,0,1-4.9,2.6,16.13,16.13,0,0,1-4.4-.1,4.77,4.77,0,0,1-4-5.2c.1-1.9.6-3.8.9-5.8h7.1c-.4,1.6-.7,3-1.1,4.5a1.19,1.19,0,0,0,1.7-.7,3.52,3.52,0,0,0,0-3.7,24.72,24.72,0,0,0-2.1-2.7c-4.1-4.7-2.8-10.1.1-13.8a9.4,9.4,0,0,1,10.2-2.8,13,13,0,0,1,1.5,1,18.66,18.66,0,0,0-2.2-.7c-4.2-.7-7.7,1.5-9.3,5.7a8.4,8.4,0,0,0,1.2,8.6,17.33,17.33,0,0,1,1.7,2.1,13,13,0,0,1,1.6,3.1c.5,2.1-.8,4.3-2.4,4.6-.8.2-1.6.3-2.1-.5a2.12,2.12,0,0,1-.1-2.3c.2-.5.3-1.1.5-1.8h-3.3c-.2,0-.3.1-.5.2s-.3.2-.3.4a7.74,7.74,0,0,0-.4,5.4,2.39,2.39,0,0,0,3.9,1.4l.6,1.1a8,8,0,0,0,6.9-3.3l-3-.9.1-.4c.4.1.8.3,1.2.4,2,.7,2.2.6,2.9-1.4a11,11,0,0,0,.7-5.7c.1-.1.4-.1.4-.2.6-2.2,1.2-4.5,1.8-6.8H188c.3-1.3.6-2.5.9-3.7l-.3-.3c-.4.3-1.1.6-1.2,1a15.44,15.44,0,0,0-.4,3c-1.4-1.1-.3-5.5,1.7-5.8,1.8-.3,2.7.5,2.3,2.3-.1.5-.2.9-.3,1.5H194a.94.94,0,0,0,1.1-.8,10.56,10.56,0,0,0,0-5l.5.5c.3-.9.5-1.9.8-2.9h14.7c-.1.6-.2,1.2-.3,1.7l-.2.4.2.2c.1-.1.1-.2.2-.3a9.56,9.56,0,0,1,9.6-1.6,2.41,2.41,0,0,1,.8.6H221a8.36,8.36,0,0,0-11.1,6.1c-1,4-2.1,7.9-3.1,11.8a51.69,51.69,0,0,0-1.1,5.4,3.51,3.51,0,0,0,2.8,4,11.86,11.86,0,0,0,4.2.1c3.9-.8,7.3-5.8,7-10.2-.4,0-.8-.1-1.2-.1-2.6-.1-2.6-.1-3.2,2.5a13.3,13.3,0,0,1-1.1,3,2.66,2.66,0,0,1-3.1,1c-1.1-.5-1.1-1.4-.9-2.3.6-2.4,1.4-4.8,1.9-7.3.7-2.9,2-5.6,2-8.6,0-.1.1-.2.2-.3a17.38,17.38,0,0,0,1.5-1.3,2.1,2.1,0,0,1,2.5-.1c.8.4.8,1.2.6,2a26.81,26.81,0,0,1-.7,2.7c-.1.5,0,.8.6.8a24.32,24.32,0,0,0,2.7,0,1.27,1.27,0,0,0,.9-.7c.3-1.3.6-2.6.8-4A4.86,4.86,0,0,1,223,16.9Zm33.6,18.2L256,35a4.71,4.71,0,0,0,.2-.5c.8.1.6-.6.8-1a15.45,15.45,0,0,0,.6-2.3c.7-2.1,1.2-4.2,1.8-6.4.6-2.4,1.3-4.8,1.9-7.2.3.1.6.4.9.4h3.2c.1,0,.2-.1.3-.2s.2-.2.2-.3c.3-1.1.6-2.2.9-3.5-2,.3-4-.6-5.7.8l.4-.8a7.39,7.39,0,0,1-1.9.3c-1.5-.2-3-.5-4.5.2a.45.45,0,0,1-.5,0c-.6-.6-.9,0-1.5.3l.9.1c-.1.1-.1.4-.2.4-1.2.5-1.1,1.6-1.3,2.6H257c-.7,2.6-1.4,5.2-2,7.7a4,4,0,0,0,0,1.1c-.1.1-.4.3-.4.5-.4,1.2-.7,2.3-1,3.5-.9,3.5-1.8,7-2.8,10.6h3.8a.37.37,0,0,0,.3-.1l.2-.2c.3-1.1.6-2.3.9-3.4.1-.3-.1-.6,0-.8.1-.4.4-1,.6-1.7ZM235,37.2c-.4,1.4-.8,2.8-1.2,4.3a6.37,6.37,0,0,0,.7.2c3.5,0,7.1,0,10.6-.1.2,0,.5-.1.5-.3.3-1.1.6-2.3,1-3.5h-7.5c.4-1.5.7-2.9,1-3.9l-.6-.6a5.69,5.69,0,0,0,1.1-1.2,4.07,4.07,0,0,0,.5-1.8c0-.6.2-.6.7-.6h4.7c.3,0,.8-.1.8-.3.4-1.2.6-2.3,1-3.6h-6c.6-2.4,1.2-4.6,1.8-6.8.2-.7.5-.9,1.1-.9h6.6c.3-1,.5-1.9.7-2.8s.1-1.2-.9-1.2c-1.6,0-3.1.2-4.7.2-1.8,0-3.7-.1-5.5-.1-.2,0-.6.4-.7.7-.4,1.4-.8,2.9-1.2,4.4a10.28,10.28,0,0,0-.1,1.7c-.2.3-.5.5-.6.8-.5,1.6-.9,3.2-1.3,4.9a1.39,1.39,0,0,0,.2,1.1,20.13,20.13,0,0,0,1.4,2.5l-.4.3-1.3-2.3-.4.2a11.63,11.63,0,0,0-.4,1.8c-.1.4-.1.9.2,1.1.5.4,1.1.7,1.7.1s.8-.3,1.1.4c-1,0-.6,1.7-1.8,1.4.1-1.1-.3-1.4-1.7-1.2-.3,1.6-.7,3.3-1,5C235.1,37.2,235.1,37.2,235,37.2Zm-25-23c-3.8,0-7.4.1-11,0a1.15,1.15,0,0,0-1.3,1c-1.6,6.3-3.3,12.6-5,19-.5,2-1.1,4.1-1.6,6.1-.3,1.2,0,1.4,1.2,1.4h2c2.5,0,5.1,0,7.6-.1a1,1,0,0,0,.8-.4c.3-1,.6-2.1.9-3.4h-4.2c-.9,0-1.8.1-2.8.1-.2,0-.6-.5-.5-.6.5-1.9,1-3.7,1.6-5.6s.5-1.9,2.4-2c1.1-.1,2.2,0,3.3-.1.3,0,.8-.2.8-.4.4-1.1.6-2.3,1-3.5h-6c.6-2.3,1.2-4.6,1.8-6.8a1,1,0,0,1,1.2-.9h5.9c.2,0,.3-.1.5-.2s.3-.2.3-.4A19.84,19.84,0,0,0,210,14.2Zm6.5,5.8c-1.3-.1-1.7.2-2.1,1.5-1.1,4.3-2.3,8.5-3.4,12.8a28.17,28.17,0,0,0-.7,3.1c1.3.3,1.7-.4,2-1.3.5-1.7.9-3.4,1.4-5.2l5.8-.1,1.4-5.2h-5.8c.5-2,1-3.8,1.4-5.6ZM197,37.2h6.1c.5-1.8.9-3.5,1.4-5.3h-6c-.5,1.7-1,3.4-1.5,5.3Zm4.5-17c-.4,1.7-.9,3.3-1.3,4.9h6.1c.4-1.6.9-3.2,1.3-4.9Zm33.6,8.3-1.2.7.7,1.3a19.27,19.27,0,0,1,.5-2Z" fill="#821c1b"/>
          <path d="M71.5,19.6l1.2-3.9.6-2.1H94.9c-1,4-2.1,7.8-3.1,11.8h2.1L97,13.6h21.3c-.5,2.1-1,4.1-1.6,6.1a1.13,1.13,0,0,1-.8.5h-6c-.6,0-.9.1-1,.7-.3,1.4-.7,2.7-1.1,4.2h6c-.6,2.3-1.2,4.4-1.7,6.6h-5.3a1,1,0,0,0-.8.4c-.5,1.6-.9,3.2-1.3,4.9h7.5c-.6,2.3-1.2,4.4-1.8,6.6H89.1c1-4,2.1-7.8,3.1-11.8H90.1C89,35.8,88,39.6,87,43.6H79.8C81.9,35.7,83.9,27.9,86,20H83.7c-.2,0-.5.4-.5.6-1,3.6-1.9,7.2-2.9,10.9l-3,11.4c-.1.5-.4.7-1,.7H69.9l.1-.8a4.18,4.18,0,0,0,.4-1c1.4-5.2,2.7-10.3,4.1-15.5.5-2.1,1.1-4.1,1.6-6L71.5,20Zm20,10.2,3.2.5c-.3,1.6-.7,3.3-1,5l-.3.5.2.1.2-.6a2.41,2.41,0,0,1,1.5,1.6l-.8-.5-.8,1-.2-1.1-.5.1a14.92,14.92,0,0,1,.2,2.1c-1.4.7-.9,2.2-1.4,3.3h2.5c1.7,0,1.7.1,2.2-1.6.4-1.4.7-2.9,1.1-4.3l1.2-4.2c.4-1.3.5-2.7,1-4s.7-2.9,1.1-4.3c.7-2.8,1.5-5.5,2.3-8.3.2-.6,0-.9-.7-.8h-2.1c-1.5,0-1.5,0-1.9,1.5-.8,3.2-1.7,6.4-2.6,9.6-.1.3-.4.7-.6.7-1.5.1-2.9,0-4.5,0,1-3.9,2-7.7,3.1-11.8H89.8c-.2,0-.4.3-.4.5-.8,3-1.6,6-2.4,9.1l.4.1a5.48,5.48,0,0,0-.8,1.5c-1.2,4.4-2.3,8.9-3.5,13.4-.2.9-.4,1.8-.7,2.9h3.3c.7,0,.9-.2,1.1-.9l2.7-10.2c.1-.6.4-.7,1-.7a1.64,1.64,0,0,0,1-.2Zm12.2,8.1c.7-2.7,1.4-5.3,2.2-7.8,0-.2.4-.3.6-.3,1.3,0,2.7-.1,4,0,1.1.1,1.6-.2,1.7-1.3.1-.8.3-1.6.4-2.4h-.2l-1,1V25.9h-4.7a3.55,3.55,0,0,0,.4-.9c.6-2,1.1-4,1.6-6.1.2-.6.4-.8,1-.8h5.7a2.51,2.51,0,0,0,1-.2c.4-1.2.7-2.4,1-3.7l-11.9.1c-2.4,9.1-4.8,18.1-7.2,27.2a1.7,1.7,0,0,0,.7.1c3.5,0,7.1.1,10.6.1.2,0,.5-.3.6-.5l.3-1.2c-.2-.3-.5-.6-.6-.8s.3-.4.5-.5.3.2.4.3c.1-.2.1-.6.3-1.1Zm-31,3.9a30.09,30.09,0,0,1,3.1.1c.8,0,1.3-.3,1.4-1.1a11.63,11.63,0,0,1,.4-1.8c1.6-6,3.3-12,4.9-18,.7-2.7.7-2.7,3.5-2.6,1.6,0,1.6,0,2-1.5.2-.5.3-1.1.5-1.6s0-.8-.6-.8c-1.7,0-3.3.1-5,0-1.5-.1-3.1,0-4.6,0-3.2,0-3.1-.1-3.8,3.1-.2.8,0,.9.7.9h3.6c-.9,4-2.1,7.8-3.1,11.6s-2,7.6-3,11.7Z" fill="#821c1b"/>
          <path d="M128.9,53.6a5.63,5.63,0,0,0,2.9-2.1c1.2-1.5,2.5-2.9,3.8-4.3a7.46,7.46,0,0,1,1.5-.9l.2.3-5.8,6.5L134,53a.6.6,0,0,0,.1.4l-1.4.5.2.1a14.32,14.32,0,0,1-1.2,2.1,20.62,20.62,0,0,1-5.7,4.5h-.6c-.5-.5-.3-1,0-1.5,1.1-1.4,2.1-2.8,3.2-4.3l-.3-.9c-.6.5-1.3,1.1-2,1.6a5.56,5.56,0,0,1-1.7.9,1.48,1.48,0,0,1-1.3-.2,1.84,1.84,0,0,1-.1-1.3,7.49,7.49,0,0,1,4.3-3.9c.5-.2,1.1.1,1.7.3.1,0,.2.6.2.8a7.46,7.46,0,0,1-.7,1.2.35.35,0,0,1-.1.2Zm-2.5,5.6.2.2a13.9,13.9,0,0,0,4.6-4.1c.1-.2,0-.6,0-.9-.4.1-.8,0-1,.3a34.67,34.67,0,0,0-2.5,2.9,7,7,0,0,0-1.3,1.6Zm-2.2-3.7a6.89,6.89,0,0,0,3.8-2.9c.1-.1,0-.4-.1-.5s-.1-.1-.2-.1h-.2a6,6,0,0,0-3.3,3.5Z" fill="#e7b429"/>
          <path d="M158.9,30.2a10.89,10.89,0,0,1,.8,3.1,11.05,11.05,0,0,1-3.8,8.8,9.15,9.15,0,0,1-9.1,1.7,15.71,15.71,0,0,1-2.5-1.4c-.1.4-.1.9-.2,1.6h-7l.3-5H135c-.3,0-.6.4-.7.6-.5,1.2-1.1,2.4-1.5,3.6a.9.9,0,0,1-1,.7H114.5c2.7-10.1,5.3-20.2,8-30.3h7.2c-2.1,7.9-4.1,15.7-6.2,23.6h4.9l4.5-10.5c1.8-4.1,3.5-8.3,5.3-12.4.1-.3.5-.7.7-.7h8.4c-.7,6.4-1.3,12.7-2,19.2h6.1c-.4,1.6-.8,3-1.1,4.5a1.41,1.41,0,0,0,1.8-.8,3.21,3.21,0,0,0-.1-3.4c-.6-.9-1.3-1.8-2-2.7-3.9-4.5-3.2-9.5-.2-13.7a9.36,9.36,0,0,1,10.7-3,12.13,12.13,0,0,1,1.4,1c-1-.3-1.9-1.3-2.9-.5-1.4-.9-2.7-.3-3.8.1-3.5,1.1-6.1,5.9-5.6,9.8.3,2.2,2.4,5.4,3.4,5.4.2.5.4.9.6,1.3,1.8,2.6,1.4,5.1-1.1,7-.2.2-.3.5-.5.7-.2-.2-.5-.5-.7-.5-1.4,0-1.8-1.2-1.5-2.4.2-.7.4-1.4.6-2.2-1.3,0-2.4-.1-3.6,0a.88.88,0,0,0-.6.7c-.2,1.1-.2,2.2-.4,3.3a3.44,3.44,0,0,0,2.2,4.1,8.73,8.73,0,0,0,6.9-.6l-.6-1.3.3-.2.9,1.1c.1,0,.2-.1.3-.2a10.33,10.33,0,0,0,3.5-9A1.5,1.5,0,0,1,158.9,30.2Zm-36.3,8.2c-.6-1,.4-1.9.6-3s.6-2.1.9-3.2.6-2.1.9-3.1a24.6,24.6,0,0,1,.7-2.9,26.15,26.15,0,0,0,.9-3.3l-.8-.2v-.1l.9.1c.6-2.5,1.3-4.9,1.9-7.3.1-.3-.1-.7-.2-1l-1,.3c-.9-.6-1.9-.2-2.8-.3-.1.4-.3.6-.3.9-1.1,4-2.2,8.1-3.2,12.1-.1.2.2.6.2.7a3.29,3.29,0,0,0-.7,1.3c-.2.7-.4,1.5-.6,2.3a.85.85,0,0,0,0,.7c.5.5.3.7-.3.9-.1,0-.1.1-.2.2s-.1.1-.1.2c-.7,2.7-1.4,5.4-2.1,8.2H129l-.1-1.2.8-.2c-.2.5-.3.9-.5,1.4a16.13,16.13,0,0,1,2.2,0c.8.1,1.1-.3,1.4-.9.4-1.1.9-2.3,1.4-3.4.1-.2.3-.6.5-.6,1.7-.1,3.4-.1,5.1-.1l-.3,4.9c1.1,0,2.2,0,3.3.1.6,0,.9-.2.9-.8.4-4.4.9-8.8,1.4-13.2.3-2.3.6-4.6.8-7,.2-2.1.3-4.3.4-6.5-1.8,0-3.7,0-5.6.1a1.52,1.52,0,0,0-1,.8c-.9,2.1-1.8,4.3-2.7,6.5s-2,4.5-3,6.8-1.7,4.4-2.7,6.5a18.61,18.61,0,0,0-1,2.5,1,1,0,0,1-1,.7h-5a2,2,0,0,0-1.7.1Z" fill="#821c1b"/>
          <path d="M223,16.9c-.1.7-.1,1.3-.2,2a28.32,28.32,0,0,1-.8,4,1.32,1.32,0,0,1-.9.7,24.32,24.32,0,0,1-2.7,0c-.6,0-.7-.3-.6-.8.2-.9.5-1.8.7-2.7s.2-1.6-.6-2a2.28,2.28,0,0,0-2.5.1,17.38,17.38,0,0,0-1.5,1.3c-.1.1-.2.2-.2.3,0,3-1.3,5.7-2,8.6-.6,2.5-1.3,4.9-1.9,7.3-.2.9-.3,1.9.9,2.3a2.7,2.7,0,0,0,3.1-1,12.13,12.13,0,0,0,1.1-3c.7-2.5.6-2.6,3.2-2.5.4,0,.8.1,1.2.1.3,4.4-3,9.4-7,10.2a11.86,11.86,0,0,1-4.2-.1,3.33,3.33,0,0,1-2.8-3.9,34.49,34.49,0,0,1,1.1-5.4c1-4,2.1-7.9,3.1-11.8a8.33,8.33,0,0,1,11.1-6.1h.4a4,4,0,0,1,1.2,1,2.85,2.85,0,0,1,.8,1.4Z" fill="#e7b429"/>
          <path d="M158.9,30.2a5.07,5.07,0,0,1,.2,1.3,10,10,0,0,1-3.5,9c-.1.1-.2.1-.3.2l-.9-1.1-.3.2.6,1.3a8.73,8.73,0,0,1-6.9.6,3.35,3.35,0,0,1-2.2-4.1c.2-1.1.2-2.2.4-3.3a.88.88,0,0,1,.6-.7c1.2-.1,2.3,0,3.6,0-.2.8-.4,1.5-.6,2.2-.3,1.3.1,2.4,1.5,2.4.2,0,.4.3.7.5a3,3,0,0,1,.5-.7c2.5-2,2.9-4.4,1.1-7-.3-.4-.4-.8-.7-1.3-1,0-3.1-3.2-3.4-5.4-.6-3.9,2.1-8.7,5.6-9.8,1.2-.4,2.4-1,3.8-.1,1-.8,1.9.2,2.9.5h0l.4.3h0a6.21,6.21,0,0,1,.7,4.8l-2.1-3.2-.3.2c.7,1.1,1.3,2.1,2,3.2.4.5.1,1.8-.5,1.8-1.2,0-2.4-.1-3.6-.2.1-.7.2-1.3.3-1.9.2-1.2-.4-1.9-1.6-1.7a3.49,3.49,0,0,0-1.7.6,4.65,4.65,0,0,0-.7,5.6c1,1.3,2,2.6,3,4A4.36,4.36,0,0,1,158.9,30.2Z" fill="#e7b429"/>
          <path d="M194.8,16a10.56,10.56,0,0,1,0,5,.94.94,0,0,1-1.1.8c-1-.1-2.1,0-3.3,0,.1-.6.2-1,.3-1.5.4-1.8-.4-2.6-2.3-2.3-2.1.4-3.1,4.7-1.7,5.8h0c.1.1.1.3.2.4.7.9,1.4,1.9,2.1,2.8a11.13,11.13,0,0,1,2.2,3.8,10.16,10.16,0,0,1-.7,5.7c-.7,2-.9,2.1-2.9,1.4-.4-.1-.8-.3-1.2-.4l-.1.4,3,.9a7.87,7.87,0,0,1-6.9,3.3l-.6-1.1c-1.6,1.1-3.2.5-3.9-1.4a7.78,7.78,0,0,1,.4-5.4,1.38,1.38,0,0,1,.3-.4.76.76,0,0,1,.5-.2c1.1-.1,2.2,0,3.3,0a7.76,7.76,0,0,1-.5,1.8,2.35,2.35,0,0,0,.1,2.3,1.82,1.82,0,0,0,2.1.5c1.7-.3,3-2.6,2.5-4.6a13,13,0,0,0-1.6-3.1c-.5-.7-1.1-1.4-1.7-2.1a8.22,8.22,0,0,1-1.2-8.5c1.5-4.2,5-6.4,9.3-5.7a14.16,14.16,0,0,1,2.2.7h0l.6.6C194.4,15.5,194.6,15.8,194.8,16ZM183.3,41.4c-.2-.1-.3-.2-.3-.1s-.1.1-.2.1a.35.35,0,0,0,.1.2c0-.1.1-.1.4-.2Z" fill="#e7b429"/>
          <path d="M154.7,24.1a4.53,4.53,0,0,1,.7-5.6,2.72,2.72,0,0,1,1.7-.6c1.2-.1,1.8.6,1.6,1.7-.1.6-.2,1.3-.3,1.9,1.2.1,2.4.2,3.6.2.6,0,.8-1.2.5-1.8-.7-1-1.3-2.1-2-3.2l.3-.2,2.1,3.2a6.6,6.6,0,0,0-.7-4.8c.1-.1.3-.1.3-.2.1-1.4,1-1.4,2.1-1.4h14.7c-.5,2.1-1.1,4.1-1.6,6.2a1.13,1.13,0,0,1-.8.5H173c-2.1,7.9-4.2,15.7-6.3,23.6h-7.2c2.1-7.9,4.1-15.7,6.2-23.6h-2.1c-.3,1-.5,2-.8,3a1.72,1.72,0,0,1-.6.6h-6.4c.3-1.3.6-2.5.9-3.7-.9-.3-1.3.2-1.7.8A4.53,4.53,0,0,0,154.7,24.1ZM176,14.7c-.2-.1-.6-.5-1-.5h-9.8c-.2,0-.6.1-.6.3-.4,1.2-.6,2.4-1,3.8l2-.6c.5,1,1.7,0,2.5.6-2,7.7-4,15.4-6.1,23.3h3.9c.2,0,.4-.4.5-.6l6-22.2c.1-.5.4-.6.8-.7s1.2-.6,1.2-1c0-1,.8-.6,1.2-.9.2.3.8.4.5,1-.1.2.1.5.2.9.3-.2.8-.2.8-.4.4-1.2.6-2.4,1-3.6-.5,0-.9-.1-1.2-.1A5.5,5.5,0,0,1,176,14.7Z" fill="#821c1b"/>
          <path d="M204.5,52.6l-3.9,3.3a2.62,2.62,0,0,1-3.6-.1c-1.4.6-2.8,1.5-4.3.2a3.08,3.08,0,0,1-1.2.5,1.91,1.91,0,0,1-1.3-.2,1.27,1.27,0,0,1,0-1.2,34.57,34.57,0,0,1,2.2-3.1,17.72,17.72,0,0,1,1.4-1.6l-1.6-.1a1.77,1.77,0,0,1,1.8-1.1,1.8,1.8,0,0,0,1-.2,2.41,2.41,0,0,0,.8-.6c.3-.4.7-.9,1.5-.5l-.8,1,1.2.5v.4l-1.8.3c-.3.1-.8.1-1,.4-1.1,1.3-2.2,2.7-3.3,4a3,3,0,0,0-.4.8l.2.3,2.8-1.6c0-2,3-3.8,4.8-2.8-.5.5-.7,1.5-1.9.9-.4-.2-1.1.5-1.7.8l.2.2a4.48,4.48,0,0,0,1.1.1,5.5,5.5,0,0,1-.9.7c-.6.4-1.3.7-1.9,1.1l.1.4a5.65,5.65,0,0,0,1.3,0,6.51,6.51,0,0,0,3.7-2.8c.4-.7.6-1.3,1.3-1.6.3-.1.7-.1,1-.2-.1.3-.1.7-.3.9-.7.9-1.4,1.7-2.1,2.6-.2.3-.4.6-.7,1a2.71,2.71,0,0,0,2.3-1.1c.9-.9,1.7-2,2.5-2.9a4.83,4.83,0,0,1,1.5-1,7.47,7.47,0,0,1-.2,1.1c.6-.3,1.1-.5,1.6-.7.3-.1.6.1.9.1-.1.3-.1.6-.2.9l-2.1,2.4a8.34,8.34,0,0,0-.8,1.2c1.3.2,1.9-.9,3-1.3-.3.5-.3,1-.6,1.2a5.24,5.24,0,0,1-1.9,1.1.64.64,0,0,1-.6,0,.86.86,0,0,1-.6-.3,1.08,1.08,0,0,1,0-1.1c.5-.8,1.1-1.5,1.6-2.2l.2-.2c0-.1.1-.1.1-.2h-.2Z" fill="#e7b429"/>
          <path d="M183.8,52.6a37.88,37.88,0,0,0-3.8,3.2,3.58,3.58,0,0,1-2.8.8c-.7.1-1.1-.7-.7-1.4.3-.5.6-.8.9-1.3a12.23,12.23,0,0,1,1.2-1.9,4.57,4.57,0,0,1,1.6-1.1h.3a.22.22,0,0,1,.2.2,1.27,1.27,0,0,1-.1.6c-.8,1-1.6,1.9-2.3,2.8a5.5,5.5,0,0,1-.7.9,2.23,2.23,0,0,0,2.2-1.1c.9-.9,1.7-2,2.5-2.9a3.88,3.88,0,0,1,1.1-.6l.2.5-.1.2.2-.1c.4-.2.9-.4,1.3-.6s.6.1.9.1c-.1.3,0,.7-.2.9-.7.9-1.5,1.7-2.2,2.5l-.6.9.3.3,2.5-1.5c0,.4.1.7.1,1.3l2.4-.6v-.3c-.5-.2-1.1-.3-1.7-.5-.8-.2-.8-.7-.5-1.4.7-1.1,3.7-2.4,4.9-2.1a1.16,1.16,0,0,1,.5.7,1.14,1.14,0,0,1-1.8.6l.1-.1h-.2l-2.6,1,.1.3c.5.1,1.1.3,1.6.4,1,.4,1.2,1.1.4,1.8a7.84,7.84,0,0,1-1.5,1,5.66,5.66,0,0,1-1.8.3,4.28,4.28,0,0,1-1.3-.5,7.26,7.26,0,0,1-1.2.5,1.27,1.27,0,0,1-.6-.1c-.2-.1-.3-.2-.5-.3a.9.9,0,0,1,0-1,22.69,22.69,0,0,1,1.8-2.5l.2-.2.2-.2.1-.1-.2.1-.3.1Z" fill="#e7b429"/>
          <path d="M152.5,51l1.7.4a9.5,9.5,0,0,1-.6,1.8,8.94,8.94,0,0,1-4,3.2c-.9.4-1,.3-1.6-.3a16,16,0,0,1-2.1.5c-.7.1-1.1-.4-1-1.1a5,5,0,0,1,.4-1.3,19.61,19.61,0,0,1,6.1-7.3c.5-.3,1.5-.6,1.7-.4.6.6-.1,1.2-.5,1.7l-5.7,5.7c-.4.4-1.1.9-.6,1.5.1.2,1-.1,1.5-.3a2,2,0,0,0,.8-.8c2-2.4,4-4.9,6.1-7.3a4.83,4.83,0,0,1,1.4-.9l.2.3-3.8,4.4c0,.1-.1.1-.1.2Zm-.8-3.5-4.2,4.4-.2.2.4-.1,4.2-4.4.1-.2Zm-2.6,8c1.4,0,3.9-2.2,3.8-3.4a4.42,4.42,0,0,0-2.4,1.1,3.74,3.74,0,0,0-1.4,2.3Z" fill="#e7b429"/>
          <path d="M172.9,51.2c-1-.6-1.1-1.4-.2-2.3a7.89,7.89,0,0,1,2.9-1.8,10,10,0,0,1,3.4-.5c.3,0,.6.4.9.6a1.58,1.58,0,0,1-.7.7c-.6.2-1.3.7-1.9-.1a.6.6,0,0,0-.4-.1,6.34,6.34,0,0,0-3.6,1.9c1.3,1,2.7-.3,3.9.3-.2.9-.8,1.1-1.5,1.2a7.62,7.62,0,0,0-4.7,2.8,3.54,3.54,0,0,0-.3,1.1c.3.1.7.3,1,.2a9.2,9.2,0,0,0,5.1-3c.2-.2.5-.2.7-.4,0,.3.1.6.1.9a1.79,1.79,0,0,1-.5.7,10.61,10.61,0,0,1-5.2,2.8c-.9.2-1.9.2-2.4-.7a1.92,1.92,0,0,1,.7-2.4A11.14,11.14,0,0,0,172.9,51.2Z" fill="#e7b429"/>
          <path d="M140.3,56.8c.8-1.1,1.6-2.2,2.5-3.4-1.6-.1-3.1-.3-4.1,1.2a12.88,12.88,0,0,1-1.6,1.7c-.2.2-.5.2-.8.3,0-.3-.1-.7.1-.9l2.1-2.4h-1.3a1.33,1.33,0,0,1,1.5-1,3,3,0,0,0,2-.8c1.8-1.4,3.6-2.7,5.5-4a5.45,5.45,0,0,1,1.9-.8c.1,0,.4.4.6.6,0,.1-.2.3-.2.4-1.9,2.7-3.9,5.3-5.8,8A2.77,2.77,0,0,1,140.3,56.8Zm6.1-8.5-5,3.6c.1.1.1.3.2.4.8-.1,1.8,0,2.3-.5a31.78,31.78,0,0,0,2.6-3.5l.1-.2Z" fill="#e7b429"/>
          <path d="M161.8,51.7a12.2,12.2,0,0,1,1.7-.7h.4c.1,0,.2.1.3.2s0,.5-.1.6c-.6.7-1.2,1.3-1.8,2l-.3-.2a6.25,6.25,0,0,0-.1-1.2c-1.4,1.2-2.7,2.3-4,3.5-.4.3-.7.7-1.3.4-.2-.1-.5.1-.7.1a12.23,12.23,0,0,1-1.7.3c-.4-.1-1.1-.4-1.2-.7s.3-1,.6-1.3.9-.6.8-1.3c0-.1.1-.3.1-.4l.3-.3c1.1-.5,2.1-1,3.3-1.5.2-.1.5.1.8.2a2,2,0,0,1-.4.8c-.4.3-.7.7-1.3.2-.2-.2-1.1.5-1.7,1h1.3a6,6,0,0,1-.8.8,12.81,12.81,0,0,1-2,1.1c0,.2.1.3.1.5a3.69,3.69,0,0,0,1.5-.1,21.12,21.12,0,0,0,3.1-2.1,15.37,15.37,0,0,0,1.7-1.9,5.77,5.77,0,0,1,1.4-.8,4.12,4.12,0,0,1-.2.9l-.3.3.1.1A2.74,2.74,0,0,1,161.8,51.7Z" fill="#e7b429"/>
          <path d="M163.8,55.7l1.2-.6a5.17,5.17,0,0,1,1.3-.6c-.2.3-.2.7-.5.9a7.61,7.61,0,0,1-1.9,1.2,1.57,1.57,0,0,1-1.2-.1,1.26,1.26,0,0,1-.1-1.2,18.19,18.19,0,0,1,1.5-2.3c.6-.8,1.3-1.6,2.1-2.5h-1.5l-.1-.4a3.74,3.74,0,0,1,1.6-.7,3.59,3.59,0,0,0,1.1-.2,2.18,2.18,0,0,0,.9-.7c.3-.3.8-.4,1.2-.7.1.1.2.2.2.3l-.8,1,1.2.6-.1.3a3.81,3.81,0,0,1-1,.3,2.53,2.53,0,0,0-2.4,1.2l-2.4,3a10.91,10.91,0,0,0-.6,1.1Z" fill="#e7b429"/>
          <path d="M203.8,49l-1.7,1.4c-.1-1.3.5-1.8,1.5-1.7Z" fill="#e7b429"/>
          <path d="M182.9,48.8a1.71,1.71,0,0,1-1.7,1.3C181.4,49,181.9,48.6,182.9,48.8Z" fill="#e7b429"/>
          <path d="M194.2,15.3l-.6-.6Z" fill="#821c1b"/>
          <path d="M236.7,15l.3.3h0l-.4-.2a.1.1,0,0,1,.1-.1Z" fill="#821c1b"/>
          <path d="M162.1,15.1l-.4-.3Z" fill="#821c1b"/>
          <path d="M237,15.3l.2.2h0l-.2-.2Z" fill="#821c1b"/>
          <path d="M236.9,15.3l.2.2c.1.6.2,1.3.3,2a1.14,1.14,0,0,1,.3.6c-.2,1.1-.3,2.2-.6,3.3a18.59,18.59,0,0,1-1.9,4.6,12,12,0,0,1-2.6,2.4c1.7,1,1.7,2.8,1.3,4.6a11.7,11.7,0,0,1-.5,2,7.63,7.63,0,0,1-.8,1.1,1.5,1.5,0,0,1,.2,1c-.2,1.2-.5,2.3-.8,3.5-.1.2-.3.3-.5.6l.4.5h-3.2c-.9,0-1.1-.4-.9-1.1l1.2-5.1.6-2.4c.3-1.6-.4-2.4-2-2.5h-.9c-.5-.1-.8.1-1,.7-.8,3.2-1.8,6.4-2.6,9.6-.2.6-.4.9-1.1.8-1.1-.1-2.1,0-3.4,0,.9-3.2,1.5-6.4,2.6-9.3.1-.6.1-1.2.2-1.8.4-1.5.7-3,1.2-4.5a22.68,22.68,0,0,0,.6-2.5c.2-1,.5-1.9.8-2.9s.5-1.9.8-2.9.5-1.9.8-2.9a1.12,1.12,0,0,1,.8-.7q3-.15,6,0a27.44,27.44,0,0,1,3.9.9ZM227.2,27a4.15,4.15,0,0,1,1.2-.4,3.52,3.52,0,0,0,3.8-2.9l.6-2.4c.7-2.7.3-3.2-2.4-3.2-.6,0-1.1,0-1.2.9a14.13,14.13,0,0,1-.6,2.2c-.4,1.6-.8,3.1-1.2,4.7a2,2,0,0,0-.2,1.1Z" fill="#e7b429"/>
          <path d="M210,14.2c-.3,1.2-.6,2.3-.9,3.4a1.38,1.38,0,0,1-.3.4.76.76,0,0,1-.5.2c-2,0-4,.1-5.9,0a1,1,0,0,0-1.2.9c-.5,2.2-1.2,4.5-1.8,6.8h6a29.23,29.23,0,0,1-1,3.5,1,1,0,0,1-.8.4c-1.1.1-2.2,0-3.3.1-1.9.1-1.9.1-2.4,2s-1.1,3.7-1.6,5.6c0,.2.3.6.5.6.9,0,1.8-.1,2.8-.1h4.2c-.4,1.3-.6,2.3-.9,3.4a1,1,0,0,1-.8.4c-2.5,0-5.1,0-7.6.1h-2c-1.2.1-1.4-.2-1.2-1.4.5-2,1-4.1,1.6-6.1,1.7-6.3,3.3-12.6,5-19a1.15,1.15,0,0,1,1.3-1C202.6,14.2,206.2,14.2,210,14.2ZM193.8,32.8l-.2-.2a.1.1,0,0,0-.1.1l.2.2.1-.1Z" fill="#e7b429"/>
          <path d="M235.1,37.1c.3-1.7.7-3.4,1-5,1.4-.2,1.8.1,1.7,1.2,1.3.3.9-1.4,1.8-1.4-.3-.7-.6-1-1.1-.4s-1.2.3-1.7-.1c-.2-.2-.2-.7-.2-1.1.1-.6.3-1.2.4-1.8l.4-.2,1.3,2.3.4-.3a20.13,20.13,0,0,1-1.4-2.5,1.54,1.54,0,0,1-.2-1.1c.4-1.6.8-3.2,1.3-4.9a2.41,2.41,0,0,1,.6-.8,10.28,10.28,0,0,1,.1-1.7,36,36,0,0,1,1.2-4.4c.1-.3.5-.7.7-.7,1.8,0,3.7.1,5.5.1,1.6,0,3.1-.1,4.7-.2,1,0,1.1.2.9,1.2s-.5,1.8-.7,2.8h-6.6c-.7,0-1,.2-1.1.9-.5,2.2-1.2,4.5-1.8,6.8h6c-.3,1.3-.6,2.4-1,3.6-.1.2-.5.3-.8.3h-4.7c-.4,0-.7,0-.7.6a4.07,4.07,0,0,1-.5,1.8,5.69,5.69,0,0,1-1.1,1.2l.5.7c-.3,1-.6,2.3-1,3.9h7.5a29.23,29.23,0,0,1-1,3.5c0,.1-.3.3-.5.3-3.5,0-7.1,0-10.6.1a1.85,1.85,0,0,1-.7-.2c.4-1.5.8-2.9,1.2-4.3l.1.1Z" fill="#e7b429"/>
          <path d="M253.9,15.1,253,15c.6-.3.8-1,1.5-.3.1.1.4,0,.5,0,1.5-.7,3-.4,4.5-.2a6.8,6.8,0,0,0,1.9-.3l-.4.8c1.8-1.4,3.8-.5,5.7-.8-.3,1.3-.6,2.4-.9,3.5,0,.1-.1.2-.2.3s-.2.1-.3.2c-1.1,0-2.1.1-3.2,0a1.8,1.8,0,0,1-.9-.4c-.6,2.4-1.3,4.8-1.9,7.2-.6,2.1-1,4.3-1.8,6.4a15.45,15.45,0,0,1-.6,2.3c-.2.4,0,1.1-.8,1-.1,0-.1.3-.2.5l.6.1a16.67,16.67,0,0,0-.8,2c-.1.2.1.6,0,.8-.3,1.2-.6,2.3-.9,3.4,0,.1-.1.1-.2.2a.37.37,0,0,1-.3.1h-3.8c.9-3.6,1.8-7.1,2.8-10.6a35.74,35.74,0,0,1,1-3.5,2.18,2.18,0,0,1,.4-.5,4,4,0,0,1,0-1.1c.6-2.5,1.3-5.1,2-7.7h-4.5c.3-1,.2-2.1,1.4-2.6.2-.3.2-.6.3-.7Z" fill="#e7b429"/>
          <path d="M210.6,15.4c-.1.1-.1.2-.2.3l-.2-.2.2-.4Z" fill="#fdfdfd"/>
          <path d="M93.7,35.2c.3-1.7.7-3.3,1-5l-3.2-.5h0a4.12,4.12,0,0,1-.8.3c-.6,0-.9.1-1,.7L87,40.9c-.2.7-.4.9-1.1.9-1-.1-2.1,0-3.3,0,.2-1,.5-2,.7-2.9,1.2-4.5,2.3-8.9,3.5-13.4a5.48,5.48,0,0,1,.8-1.5h-.5c.8-3,1.6-6,2.4-9.1.1-.2.3-.5.4-.5H94c-1.1,4-2.1,7.8-3.1,11.8h4.5c.2,0,.5-.4.6-.7.9-3.2,1.7-6.4,2.6-9.6.4-1.5.4-1.5,1.9-1.5h2.1c.6,0,.8.2.7.8-.8,2.8-1.5,5.5-2.3,8.3-.4,1.4-.6,2.9-1.1,4.3s-.6,2.7-1,4L97.7,36c-.4,1.4-.8,2.9-1.1,4.3-.4,1.7-.4,1.7-2.2,1.6H91.9c.5-1.2.1-2.6,1.4-3.3a14.92,14.92,0,0,1-.2-2.1l.4-.1.2,1.1.8-1,.8.5a2.66,2.66,0,0,0-1.6-1.8ZM88.2,21.9c-.7,1.1,0,1.2.5,1.5l.3-.2a5.67,5.67,0,0,0-.8-1.3Z" fill="#e7b429"/>
          <path d="M103.7,38h7.5a5.31,5.31,0,0,1-.3,1.1c-.1-.1-.3-.3-.4-.3s-.5.4-.5.5c.1.3.4.5.6.8l-.3,1.2c-.1.2-.4.5-.6.5-3.5,0-7.1,0-10.6-.1-.2,0-.5-.1-.7-.1,2.4-9,4.7-18.1,7.2-27.2l11.9-.1c-.4,1.4-.6,2.6-1,3.7-.1.2-.6.2-1,.2h-5.7c-.6,0-.9.2-1,.8-.5,2-1.1,4.1-1.6,6.1-.1.3-.3.6-.4.9h4.7v1.2l1-1h.2c-.1.8-.3,1.6-.4,2.4-.1,1.1-.7,1.4-1.7,1.3a26.7,26.7,0,0,0-4,0c-.2,0-.6.2-.6.3C105.1,32.7,104.4,35.3,103.7,38Zm1.9-11,.1-.3c-.3-.3-.6-1-.7-.9a4.18,4.18,0,0,0-1.2.8l.1.5Z" fill="#e7b429"/>
          <path d="M72.7,41.8c1-4,2-8,3-11.9s2.2-7.6,3.1-11.6H75.2c-.7,0-.9-.2-.7-.9.7-3.1.7-3.1,3.8-3.1,1.5,0,3.1-.1,4.6,0,1.7.1,3.3,0,5,0,.7,0,.8.3.6.8s-.3,1.1-.5,1.6c-.5,1.6-.4,1.6-2,1.5-2.8-.1-2.8-.1-3.5,2.6-1.6,6-3.3,12-4.9,18a11.63,11.63,0,0,0-.4,1.8,1.1,1.1,0,0,1-1.4,1.1C74.8,41.8,73.8,41.8,72.7,41.8Zm8.2-23.7-.2.4a11.73,11.73,0,0,1,1.1.5,1.69,1.69,0,0,0,.2-.5Z" fill="#e7b429"/>
          <path d="M93.8,35.3l-.2.6-.2-.1.4-.5Z" fill="#e7b429"/>
          <path d="M128.9,53.6l-.2.1a.35.35,0,0,1,.1-.2Z" fill="#fdfdfd"/>
          <path d="M122.6,38.4a6.54,6.54,0,0,1,1.8-.4,41.69,41.69,0,0,1,5,0,.87.87,0,0,0,1-.7,26,26,0,0,1,1-2.5c1-2.1,1.8-4.3,2.7-6.5s2-4.5,3-6.8c.9-2.1,1.8-4.3,2.7-6.5.2-.3.6-.8,1-.8,1.9-.1,3.8,0,5.6-.1-.2,2.2-.3,4.4-.4,6.5-.2,2.3-.5,4.6-.8,7-.5,4.4-1,8.8-1.4,13.2-.1.6-.3.8-.9.8-1.1-.1-2.2-.1-3.3-.1l.3-4.9c-1.7,0-3.4,0-5.1.1-.2,0-.4.4-.5.6a34.54,34.54,0,0,0-1.4,3.4c-.3.6-.6,1-1.4.9a16.13,16.13,0,0,0-2.2,0c.2-.5.3-.9.5-1.4l-.8.2.1,1.2H117.4c.7-2.8,1.4-5.5,2.1-8.2,0-.1.1-.1.1-.2s.1-.1.2-.2c.5-.2.8-.4.3-.9a.85.85,0,0,1,0-.7,9.77,9.77,0,0,1,.6-2.3c.2-.4.5-.8.7-1.3,0-.2-.3-.5-.2-.7,1-4,2.1-8.1,3.2-12.1a9.44,9.44,0,0,0,.3-.9c.9.1,2-.3,2.8.3l1-.3a3.55,3.55,0,0,1,.2,1c-.6,2.4-1.3,4.8-1.9,7.3l-.9-.1v.1l.8.2c-.3,1.1-.5,2.2-.9,3.3a17.36,17.36,0,0,0-.7,2.9c-.3,1-.6,2.1-.9,3.1a29.88,29.88,0,0,0-.9,3.2C123,36.5,122,37.4,122.6,38.4Zm13.6-5.3h4.2c.1-4.5,1.1-8.7,1-13l-5.3,12.8-.4.2v.1ZM131.3,36h0c.1-.1,0-.1,0-.1V36Z" fill="#e7b429"/>
          <path d="M183.3,41.4c-.3.1-.3.2-.4.2s-.1-.1-.1-.2.1-.1.2-.1S183.1,41.3,183.3,41.4Z" fill="#821c1b"/>
          <path d="M186.7,23.8c.1.1.1.3.2.4C186.8,24,186.8,23.9,186.7,23.8Z" fill="#821c1b"/>
          <path d="M176,14.7a9,9,0,0,1,.9-.5,2.63,2.63,0,0,1,1.2.1c-.3,1.2-.6,2.4-1,3.6-.1.2-.5.3-.8.4-.1-.4-.3-.8-.2-.9.3-.6-.3-.7-.5-1-.4.3-1.2-.1-1.2.9,0,.3-.7.8-1.2,1s-.7.2-.8.7c-2,7.4-3.9,14.8-6,22.2-.1.2-.3.6-.5.6H162c2.1-7.9,4.1-15.6,6.1-23.3-.9-.5-2.1.5-2.5-.6l-2,.6c.4-1.5.7-2.7,1-3.8,0-.1.4-.3.6-.3H175C175.4,14.3,175.8,14.6,176,14.7Z" fill="#e7b429"/>
          <path d="M152.5,51h-.2c0-.1.1-.1.1-.2A.35.35,0,0,0,152.5,51Z" fill="#fdfdfd"/>
          <path d="M151.7,47.5l.2-.1-.1.2Z" fill="#fdfdfd"/>
          <path d="M146.4,48.3l.2-.1-.1.2Z" fill="#fdfdfd"/>
          <path d="M227.2,27a4.1,4.1,0,0,1,.1-1.1c.4-1.6.8-3.1,1.2-4.7a18,18,0,0,0,.6-2.2c.1-.8.6-.9,1.2-.9,2.8,0,3.1.5,2.4,3.2l-.6,2.4c-.5,2.1-1.6,2.9-3.8,2.9A5.09,5.09,0,0,0,227.2,27Zm.8-1.3.3.3c.4-.3,1.1-.5,1.2-.9.6-1.6,1-3.2,1.6-4.9h-1.6c-.5,1.9-1,3.7-1.5,5.5Z" fill="#821c1b"/>
          <path d="M193.8,32.8l-.1.1-.2-.2.1-.1A.22.22,0,0,1,193.8,32.8Z" fill="#821c1b"/>
          <path d="M235.1,37.1v.2l-.1-.1C235.1,37.2,235.1,37.2,235.1,37.1Z" fill="#821c1b"/>
          <path d="M88.2,21.9c.3.4.5.9.8,1.3l-.3.2C88.2,23.1,87.6,23,88.2,21.9Z" fill="#821c1b"/>
          <path d="M105.6,27h-1.7l-.1-.5a4.18,4.18,0,0,1,1.2-.8c.2,0,.5.6.7.9Z" fill="#821c1b"/>
          <path d="M80.9,18.1l1.2.4c-.1.2-.1.4-.2.5a3.7,3.7,0,0,1-1.1-.5Z" fill="#821c1b"/>
          <path d="M136.1,32.9l5.3-12.8c0,4.3-.9,8.5-1,13h-4.2C136.2,33,136.2,33,136.1,32.9Zm2.4-3.2h-.1l-1.1,2.8,1-.1A21.3,21.3,0,0,1,138.5,29.7Z" fill="#821c1b"/>
          <path d="M136.2,33.1l-.5.1v-.1l.4-.2C136.2,33,136.2,33,136.2,33.1Z" fill="#821c1b"/>
          <path d="M131.3,36h0c-.1-.1,0-.1,0-.1s.1,0,0,.1Z" fill="#821c1b"/>
        </g>
      </g>
      <path d="M0,68H335V268H0Z" fill="none"/>
      <rect x="240" y="225" width="90" height="20" fill-opacity="0.75"/>
      <path d="M248.5,233a2.06,2.06,0,0,1-.7,1.7,3.3,3.3,0,0,1-2.1.7H244V239h-.8v-8.4h2.5a2.82,2.82,0,0,1,2.1.7A2.06,2.06,0,0,1,248.5,233Zm-2.8,1.7c1.3,0,2-.6,2-1.7a1.73,1.73,0,0,0-.5-1.3,2.08,2.08,0,0,0-1.5-.4H244v3.4Zm4.5-1.1a2.36,2.36,0,0,1,.8-.9,3.19,3.19,0,0,1,1.4-.3v.9h-.2a2.46,2.46,0,0,0-1.5.5,2,2,0,0,0-.6,1.6v3.7h-.8v-6.6h.8v1.1Zm3.4-2.4a.52.52,0,0,1-.4-.2.76.76,0,0,1-.2-.4.52.52,0,0,1,.2-.4.6.6,0,0,1,1,.4.52.52,0,0,1-.2.4C253.9,231.2,253.8,231.2,253.6,231.2Zm.4,1.2V239h-.8v-6.6Zm3.6,6.7a3,3,0,0,1-1.8-.5,2,2,0,0,1-.8-1.4h.9a1.05,1.05,0,0,0,.5.9,2.13,2.13,0,0,0,1.2.3,1.8,1.8,0,0,0,1.1-.3.91.91,0,0,0,.4-.8,1.42,1.42,0,0,0-.2-.6.85.85,0,0,0-.6-.3,4.65,4.65,0,0,0-.9-.3,8.34,8.34,0,0,1-1.2-.4,1.56,1.56,0,0,1-.8-.6,1.69,1.69,0,0,1-.3-1,1.61,1.61,0,0,1,.3-.9,1.56,1.56,0,0,1,.8-.6,2.54,2.54,0,0,1,1.2-.2,2.86,2.86,0,0,1,1.7.5,2,2,0,0,1,.7,1.5H259a1.05,1.05,0,0,0-.5-.9,1.82,1.82,0,0,0-1.1-.4,1.49,1.49,0,0,0-1,.3.75.75,0,0,0-.4.7.85.85,0,0,0,.2.6,2.09,2.09,0,0,0,.6.4,4.65,4.65,0,0,0,.9.3,6.6,6.6,0,0,1,1.1.4,1.79,1.79,0,0,1,.7.5,1.5,1.5,0,0,1,0,1.8,1.56,1.56,0,0,1-.8.6A2.82,2.82,0,0,1,257.6,239.1Zm9.3-3.7v.7h-5.4a2,2,0,0,0,.4,1.3,1.76,1.76,0,0,0,.9.8,2.38,2.38,0,0,0,1.2.3,2.3,2.3,0,0,0,1.4-.4,1.64,1.64,0,0,0,.7-1.1h.9a3.36,3.36,0,0,1-1,1.6,3.17,3.17,0,0,1-2,.6,3.29,3.29,0,0,1-1.7-.4,3.8,3.8,0,0,1-1.2-4.8,4.26,4.26,0,0,1,1.1-1.2,3.06,3.06,0,0,1,1.7-.4,2.73,2.73,0,0,1,1.6.4,2.91,2.91,0,0,1,1.1,1.1A3.34,3.34,0,0,1,266.9,235.4Zm-.9,0a2.13,2.13,0,0,0-.3-1.2,3,3,0,0,0-.8-.8,2.38,2.38,0,0,0-1.2-.3,2.27,2.27,0,0,0-1.6.6,2.41,2.41,0,0,0-.7,1.7Zm2.7-1.8a2.36,2.36,0,0,1,.8-.9,3.19,3.19,0,0,1,1.4-.3v.9h-.2a2.46,2.46,0,0,0-1.5.5,2,2,0,0,0-.6,1.6v3.7h-.8v-6.6h.8v1.1Zm8.3-.4h-1.5V239h-.8v-5.8h-.9v-.7h.9V232a2.54,2.54,0,0,1,.5-1.6,3,3,0,0,1,1.8-.5v.7a2.13,2.13,0,0,0-1.2.3,1.49,1.49,0,0,0-.3,1v.5H277Zm1.6.4a2.36,2.36,0,0,1,.8-.9,3.19,3.19,0,0,1,1.4-.3v.9h-.2a2.46,2.46,0,0,0-1.5.5,2,2,0,0,0-.6,1.6v3.7h-.8v-6.6h.8v1.1Zm2.6,2.1a3.42,3.42,0,0,1,.4-1.8,3.18,3.18,0,0,1,1.1-1.2,2.93,2.93,0,0,1,1.6-.4,2.73,2.73,0,0,1,1.6.4,2.59,2.59,0,0,1,1,1.1v-1.4h.8V239h-.8v-1.5a2.59,2.59,0,0,1-1,1.1,2.73,2.73,0,0,1-1.6.4,2.93,2.93,0,0,1-1.6-.4,3.18,3.18,0,0,1-1.1-1.2A3.87,3.87,0,0,1,281.2,235.7Zm5.7,0a3.19,3.19,0,0,0-.3-1.4,2,2,0,0,0-.9-.9,2.66,2.66,0,0,0-1.2-.3,2.13,2.13,0,0,0-1.2.3,2,2,0,0,0-.9.9,3.42,3.42,0,0,0,0,2.8,2,2,0,0,0,.9.9,2.66,2.66,0,0,0,1.2.3,2.38,2.38,0,0,0,1.2-.3,2,2,0,0,0,.9-.9A2.9,2.9,0,0,0,286.9,235.7Zm8.6,3.3-2.7-2.9V239H292v-8.9h.8v5.3l2.6-2.9h1.2l-3.1,3.3,3.1,3.3h-1.1Zm2.5-5.4a2.36,2.36,0,0,1,.8-.9,3.19,3.19,0,0,1,1.4-.3v.9H300a2.46,2.46,0,0,0-1.5.5,2,2,0,0,0-.6,1.6v3.7h-.8v-6.6h.8v1.1Zm3.1,5.5a.52.52,0,0,1-.4-.2.76.76,0,0,1-.2-.4.52.52,0,0,1,.2-.4.76.76,0,0,1,.4-.2.52.52,0,0,1,.4.2.76.76,0,0,1,.2.4.71.71,0,0,1-.6.6Zm3.7-7.9v-.8h2V239h-.9v-7.8Zm8.5-.1L310,239h-.9l3.4-7.9h-4.8v-.7h5.6v.7Zm6.1,0H315v3.1a2.18,2.18,0,0,1,.9-.7,2.66,2.66,0,0,1,1.2-.3,2.54,2.54,0,0,1,1.6.4,2.84,2.84,0,0,1,.9,1,3.19,3.19,0,0,1,.3,1.4,3.34,3.34,0,0,1-.3,1.5,2.59,2.59,0,0,1-1,1.1,2.73,2.73,0,0,1-1.6.4,3.17,3.17,0,0,1-2-.6,2.59,2.59,0,0,1-.9-1.7h.8a1.85,1.85,0,0,0,.7,1.2,2.53,2.53,0,0,0,3-.2,2.2,2.2,0,0,0,.5-1.6,2.07,2.07,0,0,0-.5-1.5,2,2,0,0,0-1.5-.6,2.13,2.13,0,0,0-1.2.3,2.36,2.36,0,0,0-.8.9h-.8v-4.8h5.2v.7Zm2.4,6.5-1.2,3.1H320l.9-3.1Zm4.8-3.4v.7H322v-.7Z" fill="#fff"/>
      <path d="M0,250H335V642a5,5,0,0,1-5,5H5a5,5,0,0,1-5-5Z" fill="#fafafa"/>
      <path d="M233.2,444.9v1h-3.9V449h3.2v1h-3.2v4.1H228V445h5.2Zm4.5,9.2a3.45,3.45,0,0,1-1.8-.5,3.25,3.25,0,0,1-1.3-1.3,4.23,4.23,0,0,1-.5-2,3.83,3.83,0,0,1,.5-1.9,3.25,3.25,0,0,1,1.3-1.3,3.49,3.49,0,0,1,3.6,0,3.25,3.25,0,0,1,1.3,1.3,4.14,4.14,0,0,1,.5,1.9,4.55,4.55,0,0,1-.5,2,3.25,3.25,0,0,1-1.3,1.3A2.73,2.73,0,0,1,237.7,454.1Zm0-1a2.66,2.66,0,0,0,1.2-.3,2,2,0,0,0,.9-.9,3.39,3.39,0,0,0,.1-3,2,2,0,0,0-.9-.9,2.55,2.55,0,0,0-2.4,0,2.58,2.58,0,0,0-.9.9,3.9,3.9,0,0,0,0,3,2,2,0,0,0,.9.9A2,2,0,0,0,237.7,453.1Zm6.4-5.1a2,2,0,0,1,.9-.9,3.19,3.19,0,0,1,1.4-.3V448h-.3c-1.3,0-2,.7-2,2.2v3.9h-1.2V447h1.2v1Zm8.3.2a2.17,2.17,0,0,1,1.1-1,2.93,2.93,0,0,1,1.6-.4,3.37,3.37,0,0,1,1.7.5,3,3,0,0,1,1.2,1.3,4.71,4.71,0,0,1,0,3.8,3,3,0,0,1-1.2,1.3,3.37,3.37,0,0,1-1.7.5,2.73,2.73,0,0,1-1.6-.4,2.4,2.4,0,0,1-1-1v1.3h-1.2v-9.6h1.2v3.7Zm4.8,2.2a3.19,3.19,0,0,0-.3-1.4,2,2,0,0,0-.9-.9,2.55,2.55,0,0,0-2.4,0,2,2,0,0,0-.9.9,3.42,3.42,0,0,0,0,2.8,2,2,0,0,0,.9.9,2.55,2.55,0,0,0,2.4,0,2,2,0,0,0,.9-.9A2.9,2.9,0,0,0,257.2,450.4Zm8.7-2.5a2.38,2.38,0,0,1,.6,1.1,3.18,3.18,0,0,1,.2,1.4,4.55,4.55,0,0,1-.5,2,3.25,3.25,0,0,1-1.3,1.3,4.07,4.07,0,0,1-1.8.5,3.41,3.41,0,0,1-2.2-.7l-.5.6h-.8l.9-1a2.38,2.38,0,0,1-.6-1.1,5.9,5.9,0,0,1-.2-1.4,3.83,3.83,0,0,1,.5-1.9,3.25,3.25,0,0,1,1.3-1.3,3.74,3.74,0,0,1,1.8-.5,3.69,3.69,0,0,1,2.3.7l.6-.6h.8Zm-5.1,2.5a3.1,3.1,0,0,0,.5,1.7l3.5-3.8a2,2,0,0,0-1.5-.5,2.66,2.66,0,0,0-1.2.3,2.58,2.58,0,0,0-.9.9A2.3,2.3,0,0,0,260.8,450.4Zm4.8,0a2.54,2.54,0,0,0-.5-1.6l-3.5,3.8a2.46,2.46,0,0,0,1.5.5,2.66,2.66,0,0,0,1.2-.3,2,2,0,0,0,.9-.9A3.31,3.31,0,0,0,265.6,450.4Zm3.9-2.4a2,2,0,0,1,.9-.9,3.19,3.19,0,0,1,1.4-.3V448h-.3c-1.3,0-2,.7-2,2.2v3.9h-1.2V447h1.2Zm7.1-1.3a2.86,2.86,0,0,1,2.1.8,3.2,3.2,0,0,1,.8,2.3V454h-1.2v-4a2.35,2.35,0,0,0-.5-1.6,1.89,1.89,0,0,0-1.5-.6,2,2,0,0,0-1.5.6,2.31,2.31,0,0,0-.5,1.7V454h-1.2v-7.1h1.2v1a2.28,2.28,0,0,1,.9-.8A2.73,2.73,0,0,1,276.6,446.7ZM226,476.1a4,4,0,0,1-1.5-.3,2.72,2.72,0,0,1-1-.8,1.59,1.59,0,0,1-.4-1.2h1.2c0,.4.2.6.5.9a2.13,2.13,0,0,0,1.2.3,1.8,1.8,0,0,0,1.1-.3.91.91,0,0,0,.4-.8.75.75,0,0,0-.4-.7,5.89,5.89,0,0,0-1.3-.5,10.38,10.38,0,0,1-1.3-.4,4.7,4.7,0,0,1-.9-.6,2.1,2.1,0,0,1-.4-1.1,1.69,1.69,0,0,1,.3-1,2.18,2.18,0,0,1,.9-.7,3.19,3.19,0,0,1,1.4-.3,2.88,2.88,0,0,1,1.9.6,2.26,2.26,0,0,1,.8,1.6h-1.2a1.05,1.05,0,0,0-.5-.9,1.8,1.8,0,0,0-1.1-.3,1.49,1.49,0,0,0-1,.3.75.75,0,0,0-.4.7,1.42,1.42,0,0,0,.2.6c.2.1.3.3.6.4a6.21,6.21,0,0,0,1,.3,8.34,8.34,0,0,1,1.2.4,1.56,1.56,0,0,1,.8.6,1.82,1.82,0,0,1,.4,1.1,2.28,2.28,0,0,1-.3,1.1,1.27,1.27,0,0,1-.9.7A2.77,2.77,0,0,1,226,476.1Zm3.8-3.7a3.81,3.81,0,0,1,.4-1.9,3,3,0,0,1,1.2-1.3,3.37,3.37,0,0,1,1.7-.5,2.73,2.73,0,0,1,1.6.4,2.4,2.4,0,0,1,1,1v-1.3h1.2v7.1h-1.2v-1.3a2.17,2.17,0,0,1-1.1,1,2.93,2.93,0,0,1-1.6.4,3.37,3.37,0,0,1-1.7-.5,3.74,3.74,0,0,1-1.2-1.3A7.43,7.43,0,0,1,229.8,472.4Zm6,0a3.19,3.19,0,0,0-.3-1.4,2,2,0,0,0-.9-.9,2.55,2.55,0,0,0-2.4,0,2,2,0,0,0-.9.9,3.42,3.42,0,0,0,0,2.8,2,2,0,0,0,.9.9,2.55,2.55,0,0,0,2.4,0,2,2,0,0,0,.9-.9A2.9,2.9,0,0,0,235.8,472.4Zm-.8-5.7a1.16,1.16,0,0,1-.4,1,1.78,1.78,0,0,1-1,.4,1.41,1.41,0,1,1,1.4-1.4Zm-.6,0a.68.68,0,1,0-.2.5A.76.76,0,0,0,234.4,466.7Zm7.3,8.2,2.2-6h1.3l-2.8,7.1H241l-2.8-7.1h1.3Zm11.1-2.7v.7h-5.7a2.41,2.41,0,0,0,.7,1.7,2.27,2.27,0,0,0,1.6.6,2,2,0,0,0,1.3-.4,1.83,1.83,0,0,0,.7-1h1.3a3.86,3.86,0,0,1-1.1,1.7,3.7,3.7,0,0,1-2.1.6,3.45,3.45,0,0,1-1.8-.5,3,3,0,0,1-1.2-1.3,4.23,4.23,0,0,1-.5-2,3.58,3.58,0,0,1,.4-1.9,3,3,0,0,1,1.2-1.3,3.74,3.74,0,0,1,1.8-.5,3.17,3.17,0,0,1,3,1.6A4.77,4.77,0,0,1,252.8,472.2Zm-1.2-.3a2.38,2.38,0,0,0-.3-1.2,1.78,1.78,0,0,0-.8-.7,2.17,2.17,0,0,0-2.6.3,2.18,2.18,0,0,0-.7,1.6Zm4-5.5V476h-1.2v-9.6Zm8,9.7a4,4,0,0,1-1.5-.3,2.72,2.72,0,0,1-1-.8,1.59,1.59,0,0,1-.4-1.2h1.2c0,.4.2.6.5.9a2.13,2.13,0,0,0,1.2.3,1.8,1.8,0,0,0,1.1-.3.91.91,0,0,0,.4-.8.75.75,0,0,0-.4-.7,5.89,5.89,0,0,0-1.3-.5,10.38,10.38,0,0,1-1.3-.4,4.7,4.7,0,0,1-.9-.6,2.1,2.1,0,0,1-.4-1.1,1.69,1.69,0,0,1,.3-1,2.18,2.18,0,0,1,.9-.7,3.19,3.19,0,0,1,1.4-.3,2.88,2.88,0,0,1,1.9.6,2.26,2.26,0,0,1,.8,1.6h-1.2a1.05,1.05,0,0,0-.5-.9,1.8,1.8,0,0,0-1.1-.3,1.49,1.49,0,0,0-1,.3.75.75,0,0,0-.4.7,1.42,1.42,0,0,0,.2.6c.2.1.3.3.6.4a6.21,6.21,0,0,0,1,.3,8.34,8.34,0,0,1,1.2.4,1.56,1.56,0,0,1,.8.6,1.82,1.82,0,0,1,.4,1.1,2.28,2.28,0,0,1-.3,1.1,1.6,1.6,0,0,1-.9.7A2.77,2.77,0,0,1,263.6,476.1Zm7.3,0a3.45,3.45,0,0,1-1.8-.5,3.25,3.25,0,0,1-1.3-1.3,4.23,4.23,0,0,1-.5-2,3.83,3.83,0,0,1,.5-1.9,3.25,3.25,0,0,1,1.3-1.3,3.49,3.49,0,0,1,3.6,0,3.25,3.25,0,0,1,1.3,1.3,4.14,4.14,0,0,1,.5,1.9,4.55,4.55,0,0,1-.5,2,3.25,3.25,0,0,1-1.3,1.3A2.73,2.73,0,0,1,270.9,476.1Zm0-1a2.66,2.66,0,0,0,1.2-.3,2,2,0,0,0,.9-.9,3.39,3.39,0,0,0,.1-3,2,2,0,0,0-.9-.9,2.55,2.55,0,0,0-2.4,0,2.58,2.58,0,0,0-.9.9,3.9,3.9,0,0,0,0,3,2,2,0,0,0,.9.9A2,2,0,0,0,270.9,475.1Zm13.8-6.4a2.6,2.6,0,0,1,1.5.4,2.41,2.41,0,0,1,1,1,3.06,3.06,0,0,1,.4,1.7V476h-1.2v-4a2.35,2.35,0,0,0-.5-1.6,1.68,1.68,0,0,0-1.4-.6,2,2,0,0,0-1.5.6,2.31,2.31,0,0,0-.5,1.7V476h-1.2v-4a2.35,2.35,0,0,0-.5-1.6,1.68,1.68,0,0,0-1.4-.6,2,2,0,0,0-1.5.6,2.31,2.31,0,0,0-.5,1.7V476h-1.2v-7.1h1.2v1a2,2,0,0,1,.9-.9,2.77,2.77,0,0,1,1.3-.3,2.93,2.93,0,0,1,1.6.4,2.34,2.34,0,0,1,1,1.2,2.34,2.34,0,0,1,1-1.2A3.71,3.71,0,0,1,284.7,468.7Zm-48.3,28.2,2.2-6h1.3l-2.8,7.1h-1.4l-2.8-7.1h1.3Zm7.8,1.2a3.45,3.45,0,0,1-1.8-.5,3.25,3.25,0,0,1-1.3-1.3,4.23,4.23,0,0,1-.5-2,3.83,3.83,0,0,1,.5-1.9,3.25,3.25,0,0,1,1.3-1.3,3.74,3.74,0,0,1,1.8-.5,3.45,3.45,0,0,1,1.8.5,3.25,3.25,0,0,1,1.3,1.3,4.14,4.14,0,0,1,.5,1.9,4.55,4.55,0,0,1-.5,2,3.25,3.25,0,0,1-1.3,1.3A2.9,2.9,0,0,1,244.2,498.1Zm0-1a2.66,2.66,0,0,0,1.2-.3,2,2,0,0,0,.9-.9,3.39,3.39,0,0,0,.1-3,2,2,0,0,0-.9-.9,2.55,2.55,0,0,0-2.4,0,2.58,2.58,0,0,0-.9.9,3.9,3.9,0,0,0,0,3,2,2,0,0,0,.9.9A1.61,1.61,0,0,0,244.2,497.1Zm9.2.9-2.8-3.1V498h-1.2v-9.6h1.2v5.7l2.7-3.2H255l-3.4,3.5L255,498Zm5.2.1a4,4,0,0,1-1.5-.3,2.72,2.72,0,0,1-1-.8,1.59,1.59,0,0,1-.4-1.2h1.2c0,.4.2.6.5.9a2.13,2.13,0,0,0,1.2.3,1.8,1.8,0,0,0,1.1-.3.91.91,0,0,0,.4-.8.75.75,0,0,0-.4-.7,5.89,5.89,0,0,0-1.3-.5,10.38,10.38,0,0,1-1.3-.4,4.7,4.7,0,0,1-.9-.6,2.1,2.1,0,0,1-.4-1.1,1.69,1.69,0,0,1,.3-1,2.18,2.18,0,0,1,.9-.7,3.19,3.19,0,0,1,1.4-.3,2.88,2.88,0,0,1,1.9.6,2.26,2.26,0,0,1,.8,1.6h-1.2a1.05,1.05,0,0,0-.5-.9,1.8,1.8,0,0,0-1.1-.3,1.49,1.49,0,0,0-1,.3.75.75,0,0,0-.4.7,1.42,1.42,0,0,0,.2.6c.2.1.3.3.6.4a6.21,6.21,0,0,0,1,.3,8.34,8.34,0,0,1,1.2.4,1.56,1.56,0,0,1,.8.6,1.82,1.82,0,0,1,.4,1.1,2.28,2.28,0,0,1-.3,1.1,1.6,1.6,0,0,1-.9.7A2.77,2.77,0,0,1,258.6,498.1Zm7.7-7.4a2.86,2.86,0,0,1,2.1.8,3.2,3.2,0,0,1,.8,2.3V498H268v-4a2.35,2.35,0,0,0-.5-1.6,1.89,1.89,0,0,0-1.5-.6,2,2,0,0,0-1.5.6,2.31,2.31,0,0,0-.5,1.7V498h-1.2v-7.1H264v1a2.28,2.28,0,0,1,.9-.8A2.5,2.5,0,0,1,266.3,490.7Zm11.4,3.5v.7H272a2.41,2.41,0,0,0,.7,1.7,2.27,2.27,0,0,0,1.6.6,2,2,0,0,0,1.3-.4,1.83,1.83,0,0,0,.7-1h1.3a3.86,3.86,0,0,1-1.1,1.7,3.7,3.7,0,0,1-2.1.6,3.45,3.45,0,0,1-1.8-.5,3,3,0,0,1-1.2-1.3,4.23,4.23,0,0,1-.5-2,3.58,3.58,0,0,1,.4-1.9,3,3,0,0,1,1.2-1.3,3.74,3.74,0,0,1,1.8-.5,3.17,3.17,0,0,1,3,1.6A7.11,7.11,0,0,1,277.7,494.2Zm-1.3-.3a2.38,2.38,0,0,0-.3-1.2,1.78,1.78,0,0,0-.8-.7,2.17,2.17,0,0,0-2.6.3,2.18,2.18,0,0,0-.7,1.6Z"/>
      <path d="M255,521a50,50,0,1,0-50-50A50,50,0,0,0,255,521Z" fill="none" stroke="#dbf7e2" stroke-miterlimit="10" stroke-width="7"/>
      <path d="M255,421a49.92,49.92,0,0,1,46.2,30.8A50.1,50.1,0,0,1,264.7,520a50,50,0,0,1-51.4-21.2,49.92,49.92,0,0,1-8.4-27.8" fill="none" stroke="#2ea74e" stroke-miterlimit="10" stroke-width="7"/>
      <path d="M40.7,428H38.5l-5.1-7.7V428H31.2V416.8h2.2l5.1,7.7v-7.7h2.2Zm9.6-7.5a6.38,6.38,0,0,1,.8,1.4,4.67,4.67,0,0,1,.3,1.7,4.75,4.75,0,0,1-.6,2.4,4.36,4.36,0,0,1-1.7,1.6,4.65,4.65,0,0,1-2.3.6,5,5,0,0,1-2.7-.8l-.6.7H42.1l1.2-1.3a6.38,6.38,0,0,1-.8-1.4,4.67,4.67,0,0,1-.3-1.7,4.75,4.75,0,0,1,.6-2.4,4.89,4.89,0,0,1,1.6-1.6,4.65,4.65,0,0,1,2.3-.6,5.12,5.12,0,0,1,2.8.8l.6-.7h1.4Zm-5.8,3.1a3.19,3.19,0,0,0,.3,1.4l3.3-3.6a2.12,2.12,0,0,0-1.4-.4,2,2,0,0,0-1.6.7A3.05,3.05,0,0,0,44.5,423.6Zm4.6,0a3.19,3.19,0,0,0-.3-1.4l-3.3,3.6a2.24,2.24,0,0,0,2.4.1,2,2,0,0,0,.9-.9A3.19,3.19,0,0,0,49.1,423.6Zm7.4-4.6a3.06,3.06,0,0,1,1.7.4,4,4,0,0,1,1.2,1v-1.3h2.3V428a5.09,5.09,0,0,1-.5,2.2,2.76,2.76,0,0,1-1.5,1.5,4.75,4.75,0,0,1-2.4.6,5,5,0,0,1-3.1-.9,3.34,3.34,0,0,1-1.4-2.4H55a1.89,1.89,0,0,0,.8,1,3.26,3.26,0,0,0,1.4.4,2.11,2.11,0,0,0,1.6-.6,2.44,2.44,0,0,0,.6-1.8v-1.4a2.94,2.94,0,0,1-1.2,1,3.29,3.29,0,0,1-1.7.4,3.61,3.61,0,0,1-2-.6,4.63,4.63,0,0,1-1.5-1.6,4.71,4.71,0,0,1-.5-2.4A6,6,0,0,1,53,421a3.86,3.86,0,0,1,1.5-1.6A5.44,5.44,0,0,1,56.5,419Zm2.9,4.6a3.19,3.19,0,0,0-.3-1.4,2,2,0,0,0-.9-.9,2.55,2.55,0,0,0-2.4,0,2.58,2.58,0,0,0-.9.9,2.9,2.9,0,0,0-.3,1.4,3.19,3.19,0,0,0,.3,1.4,2,2,0,0,0,.9.9,2.38,2.38,0,0,0,1.2.3,2.66,2.66,0,0,0,1.2-.3,2,2,0,0,0,.9-.9A3.19,3.19,0,0,0,59.4,423.6Zm6.7-7.4V428H63.9V416.2Zm10.4,7.2a2.77,2.77,0,0,1-.1.9H70a2.63,2.63,0,0,0,.7,1.5,2,2,0,0,0,1.5.5,2,2,0,0,0,1.8-1.1h2.4a3.59,3.59,0,0,1-1.5,2.1,4.55,4.55,0,0,1-2.7.8,4.38,4.38,0,0,1-2.3-.6,4.1,4.1,0,0,1-1.6-1.6,5.1,5.1,0,0,1,0-4.8,4.1,4.1,0,0,1,1.6-1.6,4.38,4.38,0,0,1,2.3-.6,5.93,5.93,0,0,1,2.3.5,4.1,4.1,0,0,1,1.6,1.6A6.05,6.05,0,0,1,76.5,423.4Zm-2.3-.7a1.82,1.82,0,0,0-.6-1.4,2,2,0,0,0-1.5-.5,2.17,2.17,0,0,0-1.4.5,2.1,2.1,0,0,0-.7,1.4Zm7.9,5.4a4.38,4.38,0,0,1-2.3-.6,4.1,4.1,0,0,1-1.6-1.6,5.1,5.1,0,0,1,0-4.8,4.89,4.89,0,0,1,1.6-1.6,4.65,4.65,0,0,1,2.3-.6,4.38,4.38,0,0,1,2.3.6,4.1,4.1,0,0,1,1.6,1.6,5.1,5.1,0,0,1,0,4.8,4.36,4.36,0,0,1-1.7,1.6A3,3,0,0,1,82.1,428.1Zm0-1.9a2,2,0,0,0,1.1-.3,2,2,0,0,0,.9-.9,3.19,3.19,0,0,0,.3-1.4,2.35,2.35,0,0,0-.7-1.9,2.18,2.18,0,0,0-3.2,0,2.71,2.71,0,0,0-.6,1.9,3.17,3.17,0,0,0,.6,2A2.27,2.27,0,0,0,82.1,426.2Zm8.5-5.7a3.84,3.84,0,0,1,1.1-1.1,2.93,2.93,0,0,1,1.6-.4v2.4h-.6a2.54,2.54,0,0,0-1.6.5c-.4.3-.5.9-.5,1.7V428H88.4v-8.9h2.2Zm3.7,3a6,6,0,0,1,.5-2.4,4.63,4.63,0,0,1,1.5-1.6,3.7,3.7,0,0,1,2.1-.6,3.6,3.6,0,0,1,2.8,1.4v-4.2h2.3V428h-2.3v-1.3a4.26,4.26,0,0,1-1.2,1.1,3.29,3.29,0,0,1-1.7.4,3.61,3.61,0,0,1-2-.6,4.63,4.63,0,0,1-1.5-1.6A7,7,0,0,1,94.3,423.5Zm7,.1a3.19,3.19,0,0,0-.3-1.4,2,2,0,0,0-.9-.9,2.55,2.55,0,0,0-2.4,0,2.58,2.58,0,0,0-.9.9,2.9,2.9,0,0,0-.3,1.4,3.19,3.19,0,0,0,.3,1.4,2,2,0,0,0,.9.9,2.38,2.38,0,0,0,1.2.3,2.66,2.66,0,0,0,1.2-.3,2,2,0,0,0,.9-.9A5.77,5.77,0,0,0,101.3,423.6Z"/>
      <path d="M42,458.6a2,2,0,0,1-1.4-.6,2,2,0,1,1,3.4-1.4,2.05,2.05,0,0,1-2,2Zm21.2-1.3v.9h-7a2.69,2.69,0,0,0,.9,2,2.71,2.71,0,0,0,4.5-.9h1.6a4.12,4.12,0,0,1-1.4,2.1,4.46,4.46,0,0,1-2.6.8,4,4,0,0,1-2.2-.6,3.32,3.32,0,0,1-1.5-1.6,4.75,4.75,0,0,1-.6-2.4,6,6,0,0,1,.5-2.4,4.63,4.63,0,0,1,1.5-1.6,4.38,4.38,0,0,1,2.3-.6,5.09,5.09,0,0,1,2.2.5,5.36,5.36,0,0,1,1.5,1.5A9.08,9.08,0,0,1,63.2,457.3Zm-1.5-.3a2.12,2.12,0,0,0-.4-1.4,2.19,2.19,0,0,0-1-.9,3.19,3.19,0,0,0-1.4-.3,2.64,2.64,0,0,0-1.9.7,3.12,3.12,0,0,0-.9,2h5.6Zm6.9,3.7,2.7-7.4h1.6l-3.4,8.8H67.8l-3.4-8.8H66Zm13.8-3.4v.9h-7a2.69,2.69,0,0,0,.9,2,2.71,2.71,0,0,0,4.5-.9h1.6a4.12,4.12,0,0,1-1.4,2.1,4.46,4.46,0,0,1-2.6.8,4,4,0,0,1-2.2-.6,3.32,3.32,0,0,1-1.5-1.6,4.75,4.75,0,0,1-.6-2.4,6,6,0,0,1,.5-2.4,4.63,4.63,0,0,1,1.5-1.6,4.38,4.38,0,0,1,2.3-.6,5.09,5.09,0,0,1,2.2.5,5.36,5.36,0,0,1,1.5,1.5A9.08,9.08,0,0,1,82.4,457.3Zm-1.5-.3a2.12,2.12,0,0,0-.4-1.4,2.19,2.19,0,0,0-1-.9,3.19,3.19,0,0,0-1.4-.3,2.64,2.64,0,0,0-1.9.7,3.12,3.12,0,0,0-.9,2h5.6Zm7.9-3.9a3.39,3.39,0,0,1,2.6,1,3.56,3.56,0,0,1,1,2.8v5.2H91v-5a2.58,2.58,0,0,0-.7-2,2.66,2.66,0,0,0-3.6,0,3.3,3.3,0,0,0-.7,2.1V462H84.5v-8.8H86v1.2a2.94,2.94,0,0,1,1.2-1A3.81,3.81,0,0,1,88.8,453.1Zm7.9,1.3v5.2a1.06,1.06,0,0,0,1.2,1.2H99V462H97.7a2.12,2.12,0,0,1-2.4-2.4v-5.2H94.2v-1.2h1.1V451h1.5v2.2h2.3v1.2Zm11.8-1.2-5.3,12.9h-1.5l1.7-4.2-3.5-8.7h1.6l2.8,7.1,2.7-7.1Zm3,1.5a3.18,3.18,0,0,1,1.1-1.2,3.29,3.29,0,0,1,1.7-.4v1.5H114q-2.4,0-2.4,2.7v4.8h-1.5v-8.8h1.5v1.4ZM42,488.6a2,2,0,0,1-1.4-.6,2,2,0,1,1,3.4-1.4,2.05,2.05,0,0,1-2,2Zm23.8-5.5a3.42,3.42,0,0,1,1.8.4,3.25,3.25,0,0,1,1.3,1.3,4.65,4.65,0,0,1,.5,2.1v5.2H68v-5a2.58,2.58,0,0,0-.7-2,2.06,2.06,0,0,0-1.7-.7,2.14,2.14,0,0,0-1.8.7,3.3,3.3,0,0,0-.7,2.1V492H61.7v-5a2.58,2.58,0,0,0-.7-2,2.06,2.06,0,0,0-1.7-.7,2.14,2.14,0,0,0-1.8.7,3.3,3.3,0,0,0-.7,2.1v4.8H55.3v-8.8h1.5v1.3a3.18,3.18,0,0,1,1.2-1.1,4.19,4.19,0,0,1,1.6-.4,4.55,4.55,0,0,1,2,.5,2.78,2.78,0,0,1,1.3,1.5,2.76,2.76,0,0,1,1.2-1.4A2.86,2.86,0,0,1,65.8,483.1Zm13.6.1-5.3,12.9H72.6l1.7-4.2-3.5-8.7h1.6l2.8,7.1,2.7-7.1Zm4.8,8.9a4.84,4.84,0,0,1-1.8-.3,3.25,3.25,0,0,1-1.3-1,2.39,2.39,0,0,1-.5-1.4h1.5a1.38,1.38,0,0,0,.6,1.1,2.41,2.41,0,0,0,1.5.4,1.7,1.7,0,0,0,1.3-.4,1.38,1.38,0,0,0,.5-.9.79.79,0,0,0-.5-.8,6.77,6.77,0,0,0-1.6-.6,10.31,10.31,0,0,1-1.6-.5,2.84,2.84,0,0,1-1.1-.8,2.12,2.12,0,0,1-.4-1.4,1.75,1.75,0,0,1,.4-1.2,2.44,2.44,0,0,1,1.1-.9,4.67,4.67,0,0,1,1.7-.3,3.61,3.61,0,0,1,2.4.7,3,3,0,0,1,1,2H85.9a1.25,1.25,0,0,0-.6-1.1,1.84,1.84,0,0,0-1.3-.4,2.13,2.13,0,0,0-1.2.3,1.05,1.05,0,0,0-.5.9.91.91,0,0,0,.3.7,1.61,1.61,0,0,0,.7.4c.3.1.7.2,1.2.4a13.08,13.08,0,0,1,1.5.5,3.59,3.59,0,0,1,1,.7,1.84,1.84,0,0,1,.4,1.3,2,2,0,0,1-.4,1.3,2.44,2.44,0,0,1-1.1.9A3.53,3.53,0,0,1,84.2,492.1Zm7.1-7.7v5.2a1.06,1.06,0,0,0,1.2,1.2h1.1V492H92.3a2.12,2.12,0,0,1-2.4-2.4v-5.2H88.8v-1.2h1.1V481h1.5v2.2h2.3v1.2Zm5-2.6a1,1,0,1,1,.7-.3A.91.91,0,0,1,96.3,481.8Zm.7,1.4V492H95.5v-8.8Zm7.6,8.8-3.4-3.9V492H99.7V480.2h1.5v7l3.4-3.9h2l-4.1,4.4,4.1,4.4h-2ZM42,518.6a2,2,0,0,1-1.4-.6,2,2,0,1,1,3.4-1.4,2.05,2.05,0,0,1-2,2Zm16.5,2.1,2.7-7.4h1.6l-3.4,8.8H57.7l-3.4-8.8h1.6Zm6.6-8.9a1,1,0,1,1,.7-.3A.91.91,0,0,1,65.1,511.8Zm.7,1.4V522H64.3v-8.8Zm2.1,4.4a6,6,0,0,1,.5-2.4,4.63,4.63,0,0,1,1.5-1.6A3.94,3.94,0,0,1,72,513a4.14,4.14,0,0,1,1.9.5,3,3,0,0,1,1.3,1.2v-4.6h1.5V522H75.2v-1.6a3.25,3.25,0,0,1-1.3,1.3,4.23,4.23,0,0,1-2,.5,3.7,3.7,0,0,1-2.1-.6,4.63,4.63,0,0,1-1.5-1.6A8.6,8.6,0,0,1,67.9,517.6Zm7.4,0a3.06,3.06,0,0,0-.4-1.7,2.35,2.35,0,0,0-1.1-1.1,2.41,2.41,0,0,0-1.5-.4,2.6,2.6,0,0,0-1.5.4,3.84,3.84,0,0,0-1.1,1.1,3.29,3.29,0,0,0-.4,1.7,3.42,3.42,0,0,0,.4,1.8,2.35,2.35,0,0,0,1.1,1.1,2.41,2.41,0,0,0,1.5.4,2.6,2.6,0,0,0,1.5-.4,2.91,2.91,0,0,0,1.1-1.1A3.66,3.66,0,0,0,75.3,517.6Zm12.1-.3v.9h-7a2.69,2.69,0,0,0,.9,2,2.71,2.71,0,0,0,4.5-.9h1.6a4.12,4.12,0,0,1-1.4,2.1,4.46,4.46,0,0,1-2.6.8,4,4,0,0,1-2.2-.6,3.32,3.32,0,0,1-1.5-1.6,4.75,4.75,0,0,1-.6-2.4,6,6,0,0,1,.5-2.4,4.63,4.63,0,0,1,1.5-1.6,4.38,4.38,0,0,1,2.3-.6,5.09,5.09,0,0,1,2.2.5,5.36,5.36,0,0,1,1.5,1.5A9.08,9.08,0,0,1,87.4,517.3Zm-1.5-.3a2.12,2.12,0,0,0-.4-1.4,2.19,2.19,0,0,0-1-.9,3.19,3.19,0,0,0-1.4-.3,2.64,2.64,0,0,0-1.9.7,3.12,3.12,0,0,0-.9,2h5.6Zm7.9-3.9a3.39,3.39,0,0,1,2.6,1,3.56,3.56,0,0,1,1,2.8v5.2H96v-5a2.58,2.58,0,0,0-.7-2,2.66,2.66,0,0,0-3.6,0,3.3,3.3,0,0,0-.7,2.1V522H89.5v-8.8H91v1.2a2.94,2.94,0,0,1,1.2-1A3.81,3.81,0,0,1,93.8,513.1Zm9.2,9a4.84,4.84,0,0,1-1.8-.3,3.25,3.25,0,0,1-1.3-1,2.39,2.39,0,0,1-.5-1.4h1.5a1.38,1.38,0,0,0,.6,1.1,2.41,2.41,0,0,0,1.5.4,1.7,1.7,0,0,0,1.3-.4,1.38,1.38,0,0,0,.5-.9.79.79,0,0,0-.5-.8,6.77,6.77,0,0,0-1.6-.6,10.31,10.31,0,0,1-1.6-.5,2.84,2.84,0,0,1-1.1-.8,2.12,2.12,0,0,1-.4-1.4,1.75,1.75,0,0,1,.4-1.2,3.33,3.33,0,0,1,1.1-.9,4.67,4.67,0,0,1,1.7-.3,3.61,3.61,0,0,1,2.4.7,3,3,0,0,1,1,2h-1.5a1.25,1.25,0,0,0-.6-1.1,1.84,1.84,0,0,0-1.3-.4,2.13,2.13,0,0,0-1.2.3,1.05,1.05,0,0,0-.5.9.91.91,0,0,0,.3.7,1.61,1.61,0,0,0,.7.4c.3.1.7.2,1.2.4a13.08,13.08,0,0,1,1.5.5,3.59,3.59,0,0,1,1,.7,1.84,1.84,0,0,1,.4,1.3,2,2,0,0,1-.4,1.3,2.44,2.44,0,0,1-1.1.9A3.29,3.29,0,0,1,103,522.1Zm10.3-.1-3.4-3.9V522h-1.5V510.2h1.5v7l3.4-3.9h2l-4.1,4.4,4.1,4.4h-2Zm3-4.4a6,6,0,0,1,.5-2.4,4.63,4.63,0,0,1,1.5-1.6,3.7,3.7,0,0,1,2.1-.6,4.23,4.23,0,0,1,2,.5,3,3,0,0,1,1.3,1.2v-1.6h1.5v8.8h-1.5v-1.6a4,4,0,0,1-1.3,1.3,4.23,4.23,0,0,1-2,.5,3.7,3.7,0,0,1-2.1-.6,4.63,4.63,0,0,1-1.5-1.6A5.21,5.21,0,0,1,116.3,517.6Zm7.4,0a3.06,3.06,0,0,0-.4-1.7,2.35,2.35,0,0,0-1.1-1.1,2.41,2.41,0,0,0-1.5-.4,2.6,2.6,0,0,0-1.5.4,3.84,3.84,0,0,0-1.1,1.1,3.29,3.29,0,0,0-.4,1.7,3.42,3.42,0,0,0,.4,1.8,2.35,2.35,0,0,0,1.1,1.1,2.41,2.41,0,0,0,1.5.4,2.6,2.6,0,0,0,1.5-.4,2.91,2.91,0,0,0,1.1-1.1A3.66,3.66,0,0,0,123.7,517.6Zm5.5-2.7a4,4,0,0,1,1.3-1.3,4.23,4.23,0,0,1,2-.5,3.7,3.7,0,0,1,2.1.6,4.63,4.63,0,0,1,1.5,1.6,4.71,4.71,0,0,1,.5,2.4,6,6,0,0,1-.5,2.4,4.63,4.63,0,0,1-1.5,1.6,3.7,3.7,0,0,1-2.1.6,4.23,4.23,0,0,1-2-.5,3.25,3.25,0,0,1-1.3-1.3v1.6h-1.5V510.3h1.5Zm6,2.7a3.06,3.06,0,0,0-.4-1.7,2.35,2.35,0,0,0-1.1-1.1,2.41,2.41,0,0,0-1.5-.4,2.82,2.82,0,0,0-1.5.4,3.84,3.84,0,0,0-1.1,1.1,3.29,3.29,0,0,0-.4,1.7,3.06,3.06,0,0,0,.4,1.7,2.35,2.35,0,0,0,1.1,1.1,3,3,0,0,0,3,0,2.91,2.91,0,0,0,1.1-1.1A3.06,3.06,0,0,0,135.2,517.6Z"/>
      <path d="M35,573.7H300a5,5,0,0,1,5,5v21.6a5,5,0,0,1-5,5H35a5,5,0,0,1-5-5V578.7A5,5,0,0,1,35,573.7Z" fill="#c99d2b"/>
      <path d="M124.3,593.3h4v2.4h-7.1V583.1h3.1Zm17.1-7.8v2.6h4v2.3h-4v2.8H146v2.4h-7.6v-2.1h-4.2l-1.1,2.1h-3.3l6.5-12.6H146v2.4h-4.6Zm-3.1,5.8v-5.9l-3,5.9Zm15.1,4.5a5.1,5.1,0,0,1-2.5-.5,4.63,4.63,0,0,1-1.8-1.3,3.77,3.77,0,0,1-.7-2.1h3.3a1.43,1.43,0,0,0,.5,1.1,1.82,1.82,0,0,0,1.1.4,1.8,1.8,0,0,0,1.1-.3,1,1,0,0,0,.4-.9,1.14,1.14,0,0,0-.3-.8,2.18,2.18,0,0,0-.8-.5,6.83,6.83,0,0,0-1.3-.4,13.77,13.77,0,0,1-2-.8,3.48,3.48,0,0,1-1.3-1.1,3.57,3.57,0,0,1-.6-1.9,3.29,3.29,0,0,1,1.3-2.8,5.18,5.18,0,0,1,3.3-1,5.29,5.29,0,0,1,3.4,1,3.65,3.65,0,0,1,1.4,2.8h-3.3a1.78,1.78,0,0,0-.4-1,1.82,1.82,0,0,0-1.1-.4,1.22,1.22,0,0,0-.9.3,1.14,1.14,0,0,0-.3.8,1.22,1.22,0,0,0,.6,1,8.42,8.42,0,0,0,1.8.7,13.77,13.77,0,0,1,2,.8,3.48,3.48,0,0,1,1.3,1.1,2.88,2.88,0,0,1,.6,1.9,3.81,3.81,0,0,1-2.2,3.4A5.5,5.5,0,0,1,153.4,595.8Zm26.4-12.7v12.6h-3.1v-7.6l-2.8,7.6h-2.5l-2.8-7.6v7.6h-3.1V583.1h3.6l3.5,8.7,3.5-8.7Zm6.2,2.5v2.6h4.1v2.4H186v2.8h4.7v2.5H183V583.3h7.7v2.5H186Zm14,10.1-2.6-4.8h-.7v4.8h-3.1V583.1h5.2a6.18,6.18,0,0,1,2.5.5,3.64,3.64,0,0,1,1.6,1.4,4.55,4.55,0,0,1,.5,2,3.41,3.41,0,0,1-.7,2.2,3.93,3.93,0,0,1-2.1,1.4l2.9,5H200Zm-3.3-6.9h1.9a1.7,1.7,0,0,0,1.3-.4,1.59,1.59,0,0,0,.4-1.2,1.25,1.25,0,0,0-.4-1.1,1.7,1.7,0,0,0-1.3-.4h-1.9Zm12.6-3.2v2.6h4.1v2.4h-4.1v2.8H214v2.5h-7.7V583.3H214v2.5h-4.7Z" fill="#fff"/>
      <path d="M37.3,311l-4.6-5.1V311H31.2V299.8h1.5V305l4.6-5.2h1.8L34,305.4l5.1,5.6Zm7.3.1a4,4,0,0,1-2.2-.6,4.1,4.1,0,0,1-1.6-1.6,5.1,5.1,0,0,1,0-4.8,4.1,4.1,0,0,1,1.6-1.6,4.71,4.71,0,0,1,4.6,0,4.1,4.1,0,0,1,1.6,1.6,5.1,5.1,0,0,1,0,4.8,4.44,4.44,0,0,1-4,2.2Zm0-1.2a2.82,2.82,0,0,0,1.5-.4,2.35,2.35,0,0,0,1.1-1.1,4.25,4.25,0,0,0,0-3.6,2.35,2.35,0,0,0-1.1-1.1,3.31,3.31,0,0,0-1.5-.4,2.82,2.82,0,0,0-1.5.4,2.89,2.89,0,0,0-1.1,1.1,4.25,4.25,0,0,0,0,3.6,2.35,2.35,0,0,0,1.1,1.1A4.19,4.19,0,0,0,44.6,309.9Zm17-7.8a3.42,3.42,0,0,1,1.8.4,3.25,3.25,0,0,1,1.3,1.3,4.65,4.65,0,0,1,.5,2.1v5.2H63.8v-5a2.58,2.58,0,0,0-.7-2,2.06,2.06,0,0,0-1.7-.7,2.14,2.14,0,0,0-1.8.7,3.3,3.3,0,0,0-.7,2.1V311H57.5v-5a2.58,2.58,0,0,0-.7-2,2.06,2.06,0,0,0-1.7-.7,2.14,2.14,0,0,0-1.8.7,3.3,3.3,0,0,0-.7,2.1v4.8H51v-8.8h1.5v1.3a3.18,3.18,0,0,1,1.2-1.1,4.19,4.19,0,0,1,1.6-.4,4.55,4.55,0,0,1,2,.5,2.78,2.78,0,0,1,1.3,1.5,2.76,2.76,0,0,1,1.2-1.4A3.42,3.42,0,0,1,61.6,302.1Zm11.7,1.7a3,3,0,0,1,1.3-1.2,4.23,4.23,0,0,1,2-.5,3.7,3.7,0,0,1,2.1.6,4.63,4.63,0,0,1,1.5,1.6,4.71,4.71,0,0,1,.5,2.4,6,6,0,0,1-.5,2.4,3.86,3.86,0,0,1-1.5,1.6,3.7,3.7,0,0,1-2.1.6,4.55,4.55,0,0,1-2-.5,3.25,3.25,0,0,1-1.3-1.3v5.8H71.8V302.4h1.5Zm5.9,2.8a3.06,3.06,0,0,0-.4-1.7,2.35,2.35,0,0,0-1.1-1.1,2.41,2.41,0,0,0-1.5-.4,2.82,2.82,0,0,0-1.5.4,3.84,3.84,0,0,0-1.1,1.1,3.29,3.29,0,0,0-.4,1.7,3.06,3.06,0,0,0,.4,1.7,2.35,2.35,0,0,0,1.1,1.1,3,3,0,0,0,3,0,2.91,2.91,0,0,0,1.1-1.1A3.06,3.06,0,0,0,79.2,306.6Zm2.9,0a6,6,0,0,1,.5-2.4,4.63,4.63,0,0,1,1.5-1.6,3.7,3.7,0,0,1,2.1-.6,4.23,4.23,0,0,1,2,.5,3,3,0,0,1,1.3,1.2v-1.6H91v8.8H89.5v-1.6a4,4,0,0,1-1.3,1.3,4.23,4.23,0,0,1-2,.5,3.7,3.7,0,0,1-2.1-.6,4.63,4.63,0,0,1-1.5-1.6A4.34,4.34,0,0,1,82.1,306.6Zm7.4,0a3.06,3.06,0,0,0-.4-1.7,2.35,2.35,0,0,0-1.1-1.1,2.41,2.41,0,0,0-1.5-.4,2.6,2.6,0,0,0-1.5.4,3.84,3.84,0,0,0-1.1,1.1,3.29,3.29,0,0,0-.4,1.7,3.42,3.42,0,0,0,.4,1.8,2.35,2.35,0,0,0,1.1,1.1,2.41,2.41,0,0,0,1.5.4,2.6,2.6,0,0,0,1.5-.4,2.91,2.91,0,0,0,1.1-1.1A3.66,3.66,0,0,0,89.5,306.6Zm-1-7a1.66,1.66,0,0,1-.5,1.2,1.59,1.59,0,0,1-1.2.4,1.7,1.7,0,1,1,1.2-2.9A2.11,2.11,0,0,1,88.5,299.6Zm-.8,0a.6.6,0,0,0-.3-.6.86.86,0,0,0-.6-.3.71.71,0,0,0-.6.3.73.73,0,0,0-.2.6,1.85,1.85,0,0,0,.2.7.75.75,0,0,0,1.2,0A.91.91,0,0,0,87.7,299.6Zm13.1,11.5a4.84,4.84,0,0,1-1.8-.3,3.25,3.25,0,0,1-1.3-1,2.39,2.39,0,0,1-.5-1.4h1.5a1.38,1.38,0,0,0,.6,1.1,2.41,2.41,0,0,0,1.5.4,1.7,1.7,0,0,0,1.3-.4,1.38,1.38,0,0,0,.5-.9.79.79,0,0,0-.5-.8,6.77,6.77,0,0,0-1.6-.6,10.31,10.31,0,0,1-1.6-.5,2.84,2.84,0,0,1-1.1-.8,2.12,2.12,0,0,1-.4-1.4,1.75,1.75,0,0,1,.4-1.2,2.44,2.44,0,0,1,1.1-.9,4.67,4.67,0,0,1,1.7-.3,3.61,3.61,0,0,1,2.4.7,3,3,0,0,1,1,2h-1.5a1.25,1.25,0,0,0-.6-1.1,1.84,1.84,0,0,0-1.3-.4,2.13,2.13,0,0,0-1.2.3,1.05,1.05,0,0,0-.5.9.91.91,0,0,0,.3.7,1.61,1.61,0,0,0,.7.4c.3.1.7.2,1.2.4a13.08,13.08,0,0,1,1.5.5,3.59,3.59,0,0,1,1,.7,1.84,1.84,0,0,1,.4,1.3,2,2,0,0,1-.4,1.3,2.44,2.44,0,0,1-1.1.9A3.29,3.29,0,0,1,100.8,311.1Zm6.7-7.3a3,3,0,0,1,1.3-1.2,4.23,4.23,0,0,1,2-.5,3.7,3.7,0,0,1,2.1.6,4.63,4.63,0,0,1,1.5,1.6,4.71,4.71,0,0,1,.5,2.4,6,6,0,0,1-.5,2.4,4.63,4.63,0,0,1-1.5,1.6,3.7,3.7,0,0,1-2.1.6,4.55,4.55,0,0,1-2-.5,3.25,3.25,0,0,1-1.3-1.3v5.8H106V302.4h1.5Zm6,2.8a3.06,3.06,0,0,0-.4-1.7,2.35,2.35,0,0,0-1.1-1.1,2.41,2.41,0,0,0-1.5-.4,2.82,2.82,0,0,0-1.5.4,3.84,3.84,0,0,0-1.1,1.1,3.29,3.29,0,0,0-.4,1.7,3.06,3.06,0,0,0,.4,1.7,2.35,2.35,0,0,0,1.1,1.1,3,3,0,0,0,3,0,2.91,2.91,0,0,0,1.1-1.1A4.26,4.26,0,0,0,113.5,306.6Zm7.2,4.5a4,4,0,0,1-2.2-.6,4.1,4.1,0,0,1-1.6-1.6,5.1,5.1,0,0,1,0-4.8,4.1,4.1,0,0,1,1.6-1.6,4.71,4.71,0,0,1,4.6,0,4.1,4.1,0,0,1,1.6,1.6,5.1,5.1,0,0,1,0,4.8,4.1,4.1,0,0,1-1.6,1.6A4.29,4.29,0,0,1,120.7,311.1Zm0-1.2a2.82,2.82,0,0,0,1.5-.4,2.91,2.91,0,0,0,1.1-1.1,4.25,4.25,0,0,0,0-3.6,2.35,2.35,0,0,0-1.1-1.1,3.31,3.31,0,0,0-1.5-.4,2.82,2.82,0,0,0-1.5.4,2.89,2.89,0,0,0-1.1,1.1,4.25,4.25,0,0,0,0,3.6,2.35,2.35,0,0,0,1.1,1.1A4.19,4.19,0,0,0,120.7,309.9Zm7.8-6.2a3.18,3.18,0,0,1,1.1-1.2,3.29,3.29,0,0,1,1.7-.4v1.5H131q-2.4,0-2.4,2.7v4.8h-1.5v-8.8h1.5v1.4Zm12.6,2.6v.9h-7a2.69,2.69,0,0,0,.9,2,2.71,2.71,0,0,0,4.5-.9h1.6a4.12,4.12,0,0,1-1.4,2.1,4.46,4.46,0,0,1-2.6.8,4,4,0,0,1-2.2-.6,3.32,3.32,0,0,1-1.5-1.6,4.75,4.75,0,0,1-.6-2.4,6,6,0,0,1,.5-2.4,4.63,4.63,0,0,1,1.5-1.6,4.38,4.38,0,0,1,2.3-.6,5.09,5.09,0,0,1,2.2.5,5.36,5.36,0,0,1,1.5,1.5A18.1,18.1,0,0,1,141.1,306.3Zm-1.5-.3a2.12,2.12,0,0,0-.4-1.4,2.19,2.19,0,0,0-1-.9,3.19,3.19,0,0,0-1.4-.3,2.64,2.64,0,0,0-1.9.7,3.12,3.12,0,0,0-.9,2h5.6Zm5.2-2.6v5.2a1.06,1.06,0,0,0,1.2,1.2h1.1V311h-1.3a2.12,2.12,0,0,1-2.4-2.4v-5.2h-1.1v-1.2h1.1V300h1.5v2.2h2.3v1.2Zm7.7,3.2a6,6,0,0,1,.5-2.4,4.63,4.63,0,0,1,1.5-1.6,3.7,3.7,0,0,1,2.1-.6,4.23,4.23,0,0,1,2,.5,3,3,0,0,1,1.3,1.2v-1.6h1.5v8.8H160v-1.6a4,4,0,0,1-1.3,1.3,4.23,4.23,0,0,1-2,.5,3.7,3.7,0,0,1-2.1-.6,4.63,4.63,0,0,1-1.5-1.6A4.14,4.14,0,0,1,152.5,306.6Zm7.5,0a3.06,3.06,0,0,0-.4-1.7,2.35,2.35,0,0,0-1.1-1.1,2.41,2.41,0,0,0-1.5-.4,2.82,2.82,0,0,0-1.5.4,3.84,3.84,0,0,0-1.1,1.1,3.29,3.29,0,0,0-.4,1.7,3.42,3.42,0,0,0,.4,1.8,2.35,2.35,0,0,0,1.1,1.1,2.41,2.41,0,0,0,1.5.4,2.82,2.82,0,0,0,1.5-.4,2.91,2.91,0,0,0,1.1-1.1A5.26,5.26,0,0,0,160,306.6Zm7.5-3.2h-1.8V311h-1.5v-7.6H163v-1.2h1.1v-.6a2.56,2.56,0,0,1,.8-2.1,3.29,3.29,0,0,1,2.4-.7V300a2,2,0,0,0-1.4.4,1.46,1.46,0,0,0-.4,1.2v.6h1.8v1.2Zm12.5,5.1h-4.9l-.9,2.5h-1.5l4-11.1h1.7l4,11.1h-1.5Zm-.4-1.2-2-5.6-2,5.6Zm6.1-8.1V311h-1.5V299.2Zm3.9,4.7a4,4,0,0,1,1.3-1.3,4.23,4.23,0,0,1,2-.5,3.7,3.7,0,0,1,2.1.6,4.63,4.63,0,0,1,1.5,1.6,4.71,4.71,0,0,1,.5,2.4,6,6,0,0,1-.5,2.4,4.63,4.63,0,0,1-1.5,1.6,3.7,3.7,0,0,1-2.1.6,4.23,4.23,0,0,1-2-.5,3.25,3.25,0,0,1-1.3-1.3v1.6h-1.5V299.3h1.5Zm5.9,2.7a3.06,3.06,0,0,0-.4-1.7,2.35,2.35,0,0,0-1.1-1.1,2.41,2.41,0,0,0-1.5-.4,2.82,2.82,0,0,0-1.5.4,3.84,3.84,0,0,0-1.1,1.1,3.29,3.29,0,0,0-.4,1.7,3.06,3.06,0,0,0,.4,1.7,2.35,2.35,0,0,0,1.1,1.1,3,3,0,0,0,3,0,2.91,2.91,0,0,0,1.1-1.1A3.06,3.06,0,0,0,195.5,306.6Zm11.5-.3v.9h-7a2.69,2.69,0,0,0,.9,2,2.71,2.71,0,0,0,4.5-.9H207a4.12,4.12,0,0,1-1.4,2.1,4.46,4.46,0,0,1-2.6.8,4,4,0,0,1-2.2-.6,3.32,3.32,0,0,1-1.5-1.6,4.75,4.75,0,0,1-.6-2.4,6,6,0,0,1,.5-2.4,4.63,4.63,0,0,1,1.5-1.6,4.38,4.38,0,0,1,2.3-.6,5.09,5.09,0,0,1,2.2.5,5.36,5.36,0,0,1,1.5,1.5A18.1,18.1,0,0,1,207,306.3Zm-1.6-.3a2.12,2.12,0,0,0-.4-1.4,2.19,2.19,0,0,0-1-.9,3.19,3.19,0,0,0-1.4-.3,2.64,2.64,0,0,0-1.9.7,3.12,3.12,0,0,0-.9,2h5.6Zm4.9-2.3a3.18,3.18,0,0,1,1.1-1.2,3.29,3.29,0,0,1,1.7-.4v1.5h-.4q-2.4,0-2.4,2.7v4.8h-1.5v-8.8h1.5v1.4Zm6.3-.3v5.2a1.06,1.06,0,0,0,1.2,1.2h1.1V311h-1.3a2.12,2.12,0,0,1-2.4-2.4v-5.2H214v-1.2h1.1V300h1.5v2.2h2.3v1.2Zm9.8-2.4v3.7h4.1v1.2h-4.1v3.8h4.5v1.2h-6V299.7h6v1.2h-4.5Zm7.5-.2a1,1,0,1,1,.7-.3A.91.91,0,0,1,233.9,300.8Zm.7,1.4V311h-1.5v-8.8Zm6.7-.1a3.39,3.39,0,0,1,2.6,1,3.56,3.56,0,0,1,1,2.8v5.2h-1.4v-5a2.58,2.58,0,0,0-.7-2,2.66,2.66,0,0,0-3.6,0,3.3,3.3,0,0,0-.7,2.1V311H237v-8.8h1.5v1.2a2.94,2.94,0,0,1,1.2-1A4.53,4.53,0,0,1,241.3,302.1Zm9.1,9a4.84,4.84,0,0,1-1.8-.3,3.25,3.25,0,0,1-1.3-1,2.39,2.39,0,0,1-.5-1.4h1.5a1.38,1.38,0,0,0,.6,1.1,2.41,2.41,0,0,0,1.5.4,1.7,1.7,0,0,0,1.3-.4,1.19,1.19,0,0,0,.5-.9.79.79,0,0,0-.5-.8,6.77,6.77,0,0,0-1.6-.6,10.31,10.31,0,0,1-1.6-.5,2.84,2.84,0,0,1-1.1-.8,2.12,2.12,0,0,1-.4-1.4,1.75,1.75,0,0,1,.4-1.2,2.44,2.44,0,0,1,1.1-.9,4.67,4.67,0,0,1,1.7-.3,3.61,3.61,0,0,1,2.4.7,3,3,0,0,1,1,2h-1.5a1.25,1.25,0,0,0-.6-1.1,1.84,1.84,0,0,0-1.3-.4,2.13,2.13,0,0,0-1.2.3,1.05,1.05,0,0,0-.5.9.91.91,0,0,0,.3.7,1.61,1.61,0,0,0,.7.4c.3.1.7.2,1.2.4a13.08,13.08,0,0,1,1.5.5,3.59,3.59,0,0,1,1,.7,1.84,1.84,0,0,1,.4,1.3,2,2,0,0,1-.4,1.3,2.44,2.44,0,0,1-1.1.9A3.29,3.29,0,0,1,250.4,311.1Zm7-7.7v5.2a1.06,1.06,0,0,0,1.2,1.2h1.1V311h-1.3a2.12,2.12,0,0,1-2.4-2.4v-5.2h-1.1v-1.2H256V300h1.5v2.2h2.3v1.2Zm12.1,2.9v.9h-7a2.69,2.69,0,0,0,.9,2,2.71,2.71,0,0,0,4.5-.9h1.6a4.12,4.12,0,0,1-1.4,2.1,4.46,4.46,0,0,1-2.6.8,4,4,0,0,1-2.2-.6,3.32,3.32,0,0,1-1.5-1.6,4.75,4.75,0,0,1-.6-2.4,6,6,0,0,1,.5-2.4,4.63,4.63,0,0,1,1.5-1.6,4.38,4.38,0,0,1,2.3-.6,5.09,5.09,0,0,1,2.2.5,5.36,5.36,0,0,1,1.5,1.5A18.1,18.1,0,0,1,269.5,306.3ZM268,306a2.12,2.12,0,0,0-.4-1.4,2.19,2.19,0,0,0-1-.9,3.19,3.19,0,0,0-1.4-.3,2.64,2.64,0,0,0-1.9.7,3.12,3.12,0,0,0-.9,2H268Zm4.2-5.2a1,1,0,1,1,.7-.3A1.08,1.08,0,0,1,272.2,300.8Zm.7,1.4V311h-1.5v-8.8Zm6.7-.1a3.39,3.39,0,0,1,2.6,1,3.56,3.56,0,0,1,1,2.8v5.2h-1.4v-5a2.58,2.58,0,0,0-.7-2,2.66,2.66,0,0,0-3.6,0,3.3,3.3,0,0,0-.7,2.1V311h-1.5v-8.8h1.5v1.2a2.94,2.94,0,0,1,1.2-1A4.15,4.15,0,0,1,279.6,302.1Zm9.1,9a4.84,4.84,0,0,1-1.8-.3,3.25,3.25,0,0,1-1.3-1,2.39,2.39,0,0,1-.5-1.4h1.5a1.38,1.38,0,0,0,.6,1.1,2.41,2.41,0,0,0,1.5.4,1.7,1.7,0,0,0,1.3-.4,1.38,1.38,0,0,0,.5-.9.79.79,0,0,0-.5-.8,6.77,6.77,0,0,0-1.6-.6,15.6,15.6,0,0,1-1.6-.5,2.84,2.84,0,0,1-1.1-.8,2.12,2.12,0,0,1-.4-1.4,1.75,1.75,0,0,1,.4-1.2,2.44,2.44,0,0,1,1.1-.9,4.67,4.67,0,0,1,1.7-.3,3.61,3.61,0,0,1,2.4.7,3,3,0,0,1,1,2h-1.5a1.25,1.25,0,0,0-.6-1.1,1.84,1.84,0,0,0-1.3-.4,2.13,2.13,0,0,0-1.2.3,1.05,1.05,0,0,0-.5.9.91.91,0,0,0,.3.7,1.61,1.61,0,0,0,.7.4c.3.1.7.2,1.2.4a13.08,13.08,0,0,1,1.5.5,3.59,3.59,0,0,1,1,.7,1.84,1.84,0,0,1,.4,1.3,2,2,0,0,1-.4,1.3,2.44,2.44,0,0,1-1.1.9A3.29,3.29,0,0,1,288.7,311.1Zm-246.9,17a3.42,3.42,0,0,1,1.8.4,3.25,3.25,0,0,1,1.3,1.3,4.65,4.65,0,0,1,.5,2.1v5.2H44v-5a2.58,2.58,0,0,0-.7-2,2.06,2.06,0,0,0-1.7-.7,2.14,2.14,0,0,0-1.8.7,3.3,3.3,0,0,0-.7,2.1V337H37.7v-5a2.58,2.58,0,0,0-.7-2,2.06,2.06,0,0,0-1.7-.7,2.14,2.14,0,0,0-1.8.7,3.3,3.3,0,0,0-.7,2.1v4.8H31.3v-8.8h1.5v1.3a3.18,3.18,0,0,1,1.2-1.1,4.19,4.19,0,0,1,1.6-.4,4.55,4.55,0,0,1,2,.5,2.78,2.78,0,0,1,1.3,1.5,2.76,2.76,0,0,1,1.2-1.4A2.86,2.86,0,0,1,41.8,328.1Zm13.9,4.2v.9h-7a2.69,2.69,0,0,0,.9,2,2.71,2.71,0,0,0,4.5-.9h1.6a4.12,4.12,0,0,1-1.4,2.1,4.46,4.46,0,0,1-2.6.8,4,4,0,0,1-2.2-.6A3.32,3.32,0,0,1,48,335a4.75,4.75,0,0,1-.6-2.4,6,6,0,0,1,.5-2.4,4.63,4.63,0,0,1,1.5-1.6,4.38,4.38,0,0,1,2.3-.6,5.09,5.09,0,0,1,2.2.5,5.36,5.36,0,0,1,1.5,1.5A18.1,18.1,0,0,1,55.7,332.3Zm-1.5-.3a2.12,2.12,0,0,0-.4-1.4,2.19,2.19,0,0,0-1-.9,3.19,3.19,0,0,0-1.4-.3,2.64,2.64,0,0,0-1.9.7,3.12,3.12,0,0,0-.9,2h5.6Zm6.5,5.1a4.84,4.84,0,0,1-1.8-.3,3.25,3.25,0,0,1-1.3-1,2.39,2.39,0,0,1-.5-1.4h1.5a1.38,1.38,0,0,0,.6,1.1,2.41,2.41,0,0,0,1.5.4,1.7,1.7,0,0,0,1.3-.4,1.38,1.38,0,0,0,.5-.9.79.79,0,0,0-.5-.8,6.77,6.77,0,0,0-1.6-.6,10.31,10.31,0,0,1-1.6-.5,2.84,2.84,0,0,1-1.1-.8,2.12,2.12,0,0,1-.4-1.4,1.75,1.75,0,0,1,.4-1.2,2.44,2.44,0,0,1,1.1-.9,4.67,4.67,0,0,1,1.7-.3,3.61,3.61,0,0,1,2.4.7,3,3,0,0,1,1,2H62.4a1.25,1.25,0,0,0-.6-1.1,1.84,1.84,0,0,0-1.3-.4,2.13,2.13,0,0,0-1.2.3,1.05,1.05,0,0,0-.5.9.91.91,0,0,0,.3.7,1.61,1.61,0,0,0,.7.4c.3.1.7.2,1.2.4a13.08,13.08,0,0,1,1.5.5,3.59,3.59,0,0,1,1,.7,1.84,1.84,0,0,1,.4,1.3,2,2,0,0,1-.4,1.3,2.44,2.44,0,0,1-1.1.9A3.06,3.06,0,0,1,60.7,337.1Zm7.1-7.7v5.2a1.06,1.06,0,0,0,1.2,1.2h1.1V337H68.8a2.12,2.12,0,0,1-2.4-2.4v-5.2H65.3v-1.2h1.1V326h1.5v2.2h2.3v1.2Zm11.6,6.3,2.7-7.4h1.6l-3.4,8.8H78.6l-3.4-8.8h1.6Zm13.7-3.4v.9h-7a2.69,2.69,0,0,0,.9,2,2.71,2.71,0,0,0,4.5-.9h1.6a4.12,4.12,0,0,1-1.4,2.1,4.46,4.46,0,0,1-2.6.8,4,4,0,0,1-2.2-.6,3.32,3.32,0,0,1-1.5-1.6,4.75,4.75,0,0,1-.6-2.4,6,6,0,0,1,.5-2.4,4.63,4.63,0,0,1,1.5-1.6,4.38,4.38,0,0,1,2.3-.6,5.09,5.09,0,0,1,2.2.5,5.36,5.36,0,0,1,1.5,1.5A18.1,18.1,0,0,1,93.1,332.3Zm-1.5-.3a2.12,2.12,0,0,0-.4-1.4,2.19,2.19,0,0,0-1-.9,3.19,3.19,0,0,0-1.4-.3,2.64,2.64,0,0,0-1.9.7,3.12,3.12,0,0,0-.9,2h5.6Zm4.8-6.8V337H95V325.2Zm4,4.7a4,4,0,0,1,1.3-1.3,4.23,4.23,0,0,1,2-.5,3.7,3.7,0,0,1,2.1.6,4.63,4.63,0,0,1,1.5,1.6,4.71,4.71,0,0,1,.5,2.4,6,6,0,0,1-.5,2.4,4.63,4.63,0,0,1-1.5,1.6,3.7,3.7,0,0,1-2.1.6,4.23,4.23,0,0,1-2-.5,3.25,3.25,0,0,1-1.3-1.3v1.6H98.9V325.3h1.5Zm5.9,2.7a3.06,3.06,0,0,0-.4-1.7,2.35,2.35,0,0,0-1.1-1.1,2.41,2.41,0,0,0-1.5-.4,2.82,2.82,0,0,0-1.5.4,3.84,3.84,0,0,0-1.1,1.1,3.29,3.29,0,0,0-.4,1.7,3.06,3.06,0,0,0,.4,1.7,2.35,2.35,0,0,0,1.1,1.1,3,3,0,0,0,3,0,2.91,2.91,0,0,0,1.1-1.1A3.06,3.06,0,0,0,106.3,332.6Zm11.4-.3v.9h-7a2.69,2.69,0,0,0,.9,2,2.71,2.71,0,0,0,4.5-.9h1.6a4.12,4.12,0,0,1-1.4,2.1,4.46,4.46,0,0,1-2.6.8,4,4,0,0,1-2.2-.6A3.32,3.32,0,0,1,110,335a4.75,4.75,0,0,1-.6-2.4,6,6,0,0,1,.5-2.4,4.63,4.63,0,0,1,1.5-1.6,4.38,4.38,0,0,1,2.3-.6,5.09,5.09,0,0,1,2.2.5,5.36,5.36,0,0,1,1.5,1.5A9.08,9.08,0,0,1,117.7,332.3Zm-1.5-.3a2.12,2.12,0,0,0-.4-1.4,2.19,2.19,0,0,0-1-.9,3.19,3.19,0,0,0-1.4-.3,2.64,2.64,0,0,0-1.9.7,3.12,3.12,0,0,0-.9,2h5.6Zm6.7,3.7,2.7-7.4h1.6l-3.4,8.8h-1.7l-3.4-8.8h1.6Zm5.2-3.1a6,6,0,0,1,.5-2.4,4.63,4.63,0,0,1,1.5-1.6,3.7,3.7,0,0,1,2.1-.6,4.23,4.23,0,0,1,2,.5,3,3,0,0,1,1.3,1.2v-1.6H137v8.8h-1.5v-1.6a4,4,0,0,1-1.3,1.3,4.23,4.23,0,0,1-2,.5,3.7,3.7,0,0,1-2.1-.6,4.63,4.63,0,0,1-1.5-1.6A5.21,5.21,0,0,1,128.1,332.6Zm7.4,0a3.06,3.06,0,0,0-.4-1.7,2.35,2.35,0,0,0-1.1-1.1,2.41,2.41,0,0,0-1.5-.4,2.82,2.82,0,0,0-1.5.4,3.84,3.84,0,0,0-1.1,1.1,3.29,3.29,0,0,0-.4,1.7,3.42,3.42,0,0,0,.4,1.8,2.35,2.35,0,0,0,1.1,1.1,2.41,2.41,0,0,0,1.5.4,2.82,2.82,0,0,0,1.5-.4,2.91,2.91,0,0,0,1.1-1.1A3.66,3.66,0,0,0,135.5,332.6Zm5.4-2.9a3.18,3.18,0,0,1,1.1-1.2,3.29,3.29,0,0,1,1.7-.4v1.5h-.4q-2.4,0-2.4,2.7v4.8h-1.5v-8.8h1.5v1.4Zm12.5,2.6v.9h-7a2.69,2.69,0,0,0,.9,2,2.71,2.71,0,0,0,4.5-.9h1.6a4.12,4.12,0,0,1-1.4,2.1,4.46,4.46,0,0,1-2.6.8,4,4,0,0,1-2.2-.6,3.32,3.32,0,0,1-1.5-1.6,4.75,4.75,0,0,1-.6-2.4,6,6,0,0,1,.5-2.4,4.63,4.63,0,0,1,1.5-1.6,4.38,4.38,0,0,1,2.3-.6,5.09,5.09,0,0,1,2.2.5,5.36,5.36,0,0,1,1.5,1.5A18.1,18.1,0,0,1,153.4,332.3Zm-1.5-.3a2.12,2.12,0,0,0-.4-1.4,2.19,2.19,0,0,0-1-.9,3.19,3.19,0,0,0-1.4-.3,2.64,2.64,0,0,0-1.9.7,3.12,3.12,0,0,0-.9,2h5.6Zm2.9.6a6,6,0,0,1,.5-2.4,4.63,4.63,0,0,1,1.5-1.6,3.94,3.94,0,0,1,2.1-.6,4.14,4.14,0,0,1,1.9.5,3,3,0,0,1,1.3,1.2v-4.6h1.5V337h-1.5v-1.6a3.25,3.25,0,0,1-1.3,1.3,4.23,4.23,0,0,1-2,.5,3.7,3.7,0,0,1-2.1-.6,4.63,4.63,0,0,1-1.5-1.6A8.6,8.6,0,0,1,154.8,332.6Zm7.4,0a3.06,3.06,0,0,0-.4-1.7,2.35,2.35,0,0,0-1.1-1.1,2.41,2.41,0,0,0-1.5-.4,2.82,2.82,0,0,0-1.5.4,3.84,3.84,0,0,0-1.1,1.1,3.29,3.29,0,0,0-.4,1.7,3.42,3.42,0,0,0,.4,1.8,2.35,2.35,0,0,0,1.1,1.1,2.41,2.41,0,0,0,1.5.4,2.82,2.82,0,0,0,1.5-.4,2.91,2.91,0,0,0,1.1-1.1A3.66,3.66,0,0,0,162.2,332.6Zm11.9-.3v.9h-7a2.69,2.69,0,0,0,.9,2,2.71,2.71,0,0,0,4.5-.9h1.6a4.12,4.12,0,0,1-1.4,2.1,4.46,4.46,0,0,1-2.6.8,4,4,0,0,1-2.2-.6,3.32,3.32,0,0,1-1.5-1.6,4.75,4.75,0,0,1-.6-2.4,6,6,0,0,1,.5-2.4,4.63,4.63,0,0,1,1.5-1.6,4.38,4.38,0,0,1,2.3-.6,5.09,5.09,0,0,1,2.2.5,5.36,5.36,0,0,1,1.5,1.5A9.08,9.08,0,0,1,174.1,332.3Zm-1.5-.3a2.12,2.12,0,0,0-.4-1.4,2.19,2.19,0,0,0-1-.9,3.19,3.19,0,0,0-1.4-.3,2.64,2.64,0,0,0-1.9.7,3.12,3.12,0,0,0-.9,2h5.6Zm12.1-3.9a3.42,3.42,0,0,1,1.8.4,3,3,0,0,1,1.2,1.3,4.65,4.65,0,0,1,.5,2.1v5.2h-1.4v-5a2.58,2.58,0,0,0-.7-2,2.66,2.66,0,0,0-3.6,0,3.3,3.3,0,0,0-.7,2.1V337h-1.5V325.2h1.5v4.3a2.94,2.94,0,0,1,1.2-1A3.06,3.06,0,0,1,184.7,328.1Zm13.9,4.2v.9h-7a2.69,2.69,0,0,0,.9,2,2.71,2.71,0,0,0,4.5-.9h1.6a4.12,4.12,0,0,1-1.4,2.1,4.46,4.46,0,0,1-2.6.8,4,4,0,0,1-2.2-.6,3.32,3.32,0,0,1-1.5-1.6,4.75,4.75,0,0,1-.6-2.4,6,6,0,0,1,.5-2.4,4.63,4.63,0,0,1,1.5-1.6,4.38,4.38,0,0,1,2.3-.6,5.09,5.09,0,0,1,2.2.5,5.36,5.36,0,0,1,1.5,1.5A18.1,18.1,0,0,1,198.6,332.3Zm-1.5-.3a2.12,2.12,0,0,0-.4-1.4,2.19,2.19,0,0,0-1-.9,3.19,3.19,0,0,0-1.4-.3,2.64,2.64,0,0,0-1.9.7,3.12,3.12,0,0,0-.9,2h5.6Zm13.9-3.9a3.42,3.42,0,0,1,1.8.4,3.25,3.25,0,0,1,1.3,1.3,4.65,4.65,0,0,1,.5,2.1v5.2h-1.4v-5a2.58,2.58,0,0,0-.7-2,2.06,2.06,0,0,0-1.7-.7,2.14,2.14,0,0,0-1.8.7,3.3,3.3,0,0,0-.7,2.1V337h-1.4v-5a2.58,2.58,0,0,0-.7-2,2.06,2.06,0,0,0-1.7-.7,2.14,2.14,0,0,0-1.8.7,3.3,3.3,0,0,0-.7,2.1v4.8h-1.5v-8.8H202v1.3a3.18,3.18,0,0,1,1.2-1.1,4.19,4.19,0,0,1,1.6-.4,4.55,4.55,0,0,1,2,.5,2.78,2.78,0,0,1,1.3,1.5,2.76,2.76,0,0,1,1.2-1.4A2.86,2.86,0,0,1,211,328.1Zm16.5,0a3.42,3.42,0,0,1,1.8.4,3.25,3.25,0,0,1,1.3,1.3,4.65,4.65,0,0,1,.5,2.1v5.2h-1.4v-5a2.58,2.58,0,0,0-.7-2,2.06,2.06,0,0,0-1.7-.7,2.14,2.14,0,0,0-1.8.7,3.3,3.3,0,0,0-.7,2.1V337h-1.4v-5a2.58,2.58,0,0,0-.7-2,2.06,2.06,0,0,0-1.7-.7,2.14,2.14,0,0,0-1.8.7,3.3,3.3,0,0,0-.7,2.1v4.8H217v-8.8h1.5v1.3a3.18,3.18,0,0,1,1.2-1.1,4.19,4.19,0,0,1,1.6-.4,4.55,4.55,0,0,1,2,.5,2.78,2.78,0,0,1,1.3,1.5,2.76,2.76,0,0,1,1.2-1.4A2.86,2.86,0,0,1,227.5,328.1Zm14,4.2v.9h-7a2.69,2.69,0,0,0,.9,2,2.71,2.71,0,0,0,4.5-.9h1.6a4.12,4.12,0,0,1-1.4,2.1,4.46,4.46,0,0,1-2.6.8,4,4,0,0,1-2.2-.6,3.32,3.32,0,0,1-1.5-1.6,4.75,4.75,0,0,1-.6-2.4,6,6,0,0,1,.5-2.4,4.63,4.63,0,0,1,1.5-1.6,4.38,4.38,0,0,1,2.3-.6,5.09,5.09,0,0,1,2.2.5,5.36,5.36,0,0,1,1.5,1.5A18.1,18.1,0,0,1,241.5,332.3Zm-1.6-.3a2.12,2.12,0,0,0-.4-1.4,2.19,2.19,0,0,0-1-.9,3.19,3.19,0,0,0-1.4-.3,2.64,2.64,0,0,0-1.9.7,3.12,3.12,0,0,0-.9,2h5.6Zm4.9-6.8V337h-1.5V325.2Zm3.3,1.6a1,1,0,1,1,.7-.3A1.08,1.08,0,0,1,248.1,326.8Zm.7,1.4V337h-1.5v-8.8Zm6.1-.1a4.23,4.23,0,0,1,2,.5,3,3,0,0,1,1.3,1.2v-1.6h1.5v9a4.65,4.65,0,0,1-.5,2.1,3.61,3.61,0,0,1-1.5,1.5,4,4,0,0,1-2.2.5,5.22,5.22,0,0,1-2.9-.8,3.28,3.28,0,0,1-1.4-2.2h1.4a2.56,2.56,0,0,0,1,1.3,3.45,3.45,0,0,0,1.8.5,2.79,2.79,0,0,0,2-.8,2.86,2.86,0,0,0,.8-2.1v-1.8a4,4,0,0,1-1.3,1.3,4.23,4.23,0,0,1-2,.5,3.7,3.7,0,0,1-2.1-.6,4.63,4.63,0,0,1-1.5-1.6,4.71,4.71,0,0,1-.5-2.4,6,6,0,0,1,.5-2.4,3.78,3.78,0,0,1,3.6-2.1Zm3.2,4.5a3.06,3.06,0,0,0-.4-1.7,2.35,2.35,0,0,0-1.1-1.1,2.41,2.41,0,0,0-1.5-.4,2.6,2.6,0,0,0-1.5.4,3.84,3.84,0,0,0-1.1,1.1,3.29,3.29,0,0,0-.4,1.7,3.42,3.42,0,0,0,.4,1.8,2.35,2.35,0,0,0,1.1,1.1,2.41,2.41,0,0,0,1.5.4,2.6,2.6,0,0,0,1.5-.4,2.91,2.91,0,0,0,1.1-1.1A3.66,3.66,0,0,0,258.1,332.6Zm8.3-4.5a3.42,3.42,0,0,1,1.8.4,3,3,0,0,1,1.2,1.3,4.65,4.65,0,0,1,.5,2.1v5.2h-1.4v-5a2.58,2.58,0,0,0-.7-2,2.66,2.66,0,0,0-3.6,0,3.3,3.3,0,0,0-.7,2.1V337H262V325.2h1.5v4.3a2.94,2.94,0,0,1,1.2-1A3.29,3.29,0,0,1,266.4,328.1Zm13.9,4.2v.9h-7a2.69,2.69,0,0,0,.9,2,2.71,2.71,0,0,0,4.5-.9h1.6a4.12,4.12,0,0,1-1.4,2.1,4.46,4.46,0,0,1-2.6.8,4,4,0,0,1-2.2-.6,3.32,3.32,0,0,1-1.5-1.6,4.75,4.75,0,0,1-.6-2.4,6,6,0,0,1,.5-2.4,4.63,4.63,0,0,1,1.5-1.6,4.38,4.38,0,0,1,2.3-.6,5.09,5.09,0,0,1,2.2.5A5.36,5.36,0,0,1,280,330,18.1,18.1,0,0,1,280.3,332.3Zm-1.5-.3a2.12,2.12,0,0,0-.4-1.4,2.19,2.19,0,0,0-1-.9,3.19,3.19,0,0,0-1.4-.3,2.64,2.64,0,0,0-1.9.7,3.12,3.12,0,0,0-.9,2h5.6Zm2.9.6a6,6,0,0,1,.5-2.4,4.63,4.63,0,0,1,1.5-1.6,3.94,3.94,0,0,1,2.1-.6,4.14,4.14,0,0,1,1.9.5,3,3,0,0,1,1.3,1.2v-4.6h1.5V337H289v-1.6a3.25,3.25,0,0,1-1.3,1.3,4.23,4.23,0,0,1-2,.5,3.7,3.7,0,0,1-2.1-.6,4.63,4.63,0,0,1-1.5-1.6A8.6,8.6,0,0,1,281.7,332.6Zm7.4,0a3.06,3.06,0,0,0-.4-1.7,2.35,2.35,0,0,0-1.1-1.1,2.41,2.41,0,0,0-1.5-.4,2.6,2.6,0,0,0-1.5.4,3.84,3.84,0,0,0-1.1,1.1,3.29,3.29,0,0,0-.4,1.7,3.42,3.42,0,0,0,.4,1.8,2.35,2.35,0,0,0,1.1,1.1,2.41,2.41,0,0,0,1.5.4,2.6,2.6,0,0,0,1.5-.4,2.91,2.91,0,0,0,1.1-1.1A3.66,3.66,0,0,0,289.1,332.6Zm5.4,2.4-1.8,4.3h-1l1.2-4.3ZM34.8,355.4H33V363H31.5v-7.6H30.4v-1.2h1.1v-.6a2.56,2.56,0,0,1,.8-2.1,3.29,3.29,0,0,1,2.4-.7V352a2,2,0,0,0-1.4.4,1.46,1.46,0,0,0-.4,1.2v.6h1.8v1.2Zm8.9.1a6.38,6.38,0,0,1,.8,1.4,4.67,4.67,0,0,1,.3,1.7,4.75,4.75,0,0,1-.6,2.4,4.1,4.1,0,0,1-1.6,1.6,4.59,4.59,0,0,1-5-.3l-.7.7h-1l1.2-1.3a6.38,6.38,0,0,1-.8-1.4,4.67,4.67,0,0,1-.3-1.7,4.75,4.75,0,0,1,.6-2.4,4.1,4.1,0,0,1,1.6-1.6,4.38,4.38,0,0,1,2.3-.6,4.47,4.47,0,0,1,2.8.9l.7-.8h1Zm-6.3,3.1a3.7,3.7,0,0,0,.6,2.1l4.3-4.7a2.94,2.94,0,0,0-1.9-.7,2.82,2.82,0,0,0-1.5.4,2.89,2.89,0,0,0-1.1,1.1A4.78,4.78,0,0,0,37.4,358.6Zm5.9,0a3.17,3.17,0,0,0-.6-2l-4.3,4.7a2.79,2.79,0,0,0,1.8.6,2.82,2.82,0,0,0,1.5-.4,2.35,2.35,0,0,0,1.1-1.1A2.73,2.73,0,0,0,43.3,358.6Zm4.9-2.9a3.18,3.18,0,0,1,1.1-1.2,3.29,3.29,0,0,1,1.7-.4v1.5h-.4q-2.4,0-2.4,2.7v4.8H46.7v-8.8h1.5Zm8.2,2.9a6,6,0,0,1,.5-2.4,4.63,4.63,0,0,1,1.5-1.6,3.94,3.94,0,0,1,2.1-.6,4.14,4.14,0,0,1,1.9.5,3,3,0,0,1,1.3,1.2v-4.6h1.5V363H63.7v-1.6a3.25,3.25,0,0,1-1.3,1.3,4.23,4.23,0,0,1-2,.5,3.7,3.7,0,0,1-2.1-.6,4.63,4.63,0,0,1-1.5-1.6A8.6,8.6,0,0,1,56.4,358.6Zm7.4,0a3.06,3.06,0,0,0-.4-1.7,2.35,2.35,0,0,0-1.1-1.1,2.41,2.41,0,0,0-1.5-.4,2.6,2.6,0,0,0-1.5.4,3.84,3.84,0,0,0-1.1,1.1,3.29,3.29,0,0,0-.4,1.7,3.42,3.42,0,0,0,.4,1.8,2.35,2.35,0,0,0,1.1,1.1,2.41,2.41,0,0,0,1.5.4,2.6,2.6,0,0,0,1.5-.4,2.91,2.91,0,0,0,1.1-1.1A3.66,3.66,0,0,0,63.8,358.6Zm12-.3v.9h-7a2.69,2.69,0,0,0,.9,2,2.71,2.71,0,0,0,4.5-.9h1.6a4.12,4.12,0,0,1-1.4,2.1,4.46,4.46,0,0,1-2.6.8,4,4,0,0,1-2.2-.6,3.32,3.32,0,0,1-1.5-1.6,4.75,4.75,0,0,1-.6-2.4,6,6,0,0,1,.5-2.4,4.63,4.63,0,0,1,1.5-1.6,4.38,4.38,0,0,1,2.3-.6,5.09,5.09,0,0,1,2.2.5,5.36,5.36,0,0,1,1.5,1.5A18.1,18.1,0,0,1,75.8,358.3Zm-1.5-.3a2.12,2.12,0,0,0-.4-1.4,2.19,2.19,0,0,0-1-.9,3.19,3.19,0,0,0-1.4-.3,2.64,2.64,0,0,0-1.9.7,3.12,3.12,0,0,0-.9,2h5.6Zm7.7-3.9a3.39,3.39,0,0,1,2.6,1,3.56,3.56,0,0,1,1,2.8v5.2H84.2v-5a2.58,2.58,0,0,0-.7-2,2.66,2.66,0,0,0-3.6,0,3.3,3.3,0,0,0-.7,2.1V363H77.7v-8.8h1.5v1.2a2.94,2.94,0,0,1,1.2-1A3.81,3.81,0,0,1,82,354.1Zm13.8,0a4.23,4.23,0,0,1,2,.5,3,3,0,0,1,1.3,1.2v-1.6h1.5v9a4.65,4.65,0,0,1-.5,2.1,3.61,3.61,0,0,1-1.5,1.5,4,4,0,0,1-2.2.5,5.22,5.22,0,0,1-2.9-.8,3.28,3.28,0,0,1-1.4-2.2h1.4a2.56,2.56,0,0,0,1,1.3,3.45,3.45,0,0,0,1.8.5,3,3,0,0,0,2-.8,2.86,2.86,0,0,0,.8-2.1v-1.8a4,4,0,0,1-1.3,1.3,4.23,4.23,0,0,1-2,.5,3.7,3.7,0,0,1-2.1-.6,4.63,4.63,0,0,1-1.5-1.6,4.71,4.71,0,0,1-.5-2.4,6,6,0,0,1,.5-2.4,3.78,3.78,0,0,1,3.6-2.1Zm3.3,4.5a3.06,3.06,0,0,0-.4-1.7,2.35,2.35,0,0,0-1.1-1.1,2.41,2.41,0,0,0-1.5-.4,2.82,2.82,0,0,0-1.5.4,3.84,3.84,0,0,0-1.1,1.1,3.29,3.29,0,0,0-.4,1.7,3.42,3.42,0,0,0,.4,1.8,2.35,2.35,0,0,0,1.1,1.1,2.41,2.41,0,0,0,1.5.4,2.82,2.82,0,0,0,1.5-.4,2.91,2.91,0,0,0,1.1-1.1A5.26,5.26,0,0,0,99.1,358.6Zm11.2-3.1a6.38,6.38,0,0,1,.8,1.4,4.67,4.67,0,0,1,.3,1.7,4.75,4.75,0,0,1-.6,2.4,4.1,4.1,0,0,1-1.6,1.6,4.59,4.59,0,0,1-5-.3l-.7.7h-1l1.2-1.3a6.38,6.38,0,0,1-.8-1.4,4.67,4.67,0,0,1-.3-1.7,4.75,4.75,0,0,1,.6-2.4,4.1,4.1,0,0,1,1.6-1.6,4.38,4.38,0,0,1,2.3-.6,4.47,4.47,0,0,1,2.8.9l.7-.8h1Zm-6.3,3.1a3.7,3.7,0,0,0,.6,2.1l4.3-4.7a2.94,2.94,0,0,0-1.9-.7,2.82,2.82,0,0,0-1.5.4,2.89,2.89,0,0,0-1.1,1.1A3.42,3.42,0,0,0,104,358.6Zm5.8,0a3.17,3.17,0,0,0-.6-2l-4.3,4.7a2.79,2.79,0,0,0,1.8.6,2.82,2.82,0,0,0,1.5-.4,2.35,2.35,0,0,0,1.1-1.1A2.73,2.73,0,0,0,109.8,358.6Zm4.9-2.9a3.18,3.18,0,0,1,1.1-1.2,3.29,3.29,0,0,1,1.7-.4v1.5h-.4q-2.4,0-2.4,2.7v4.8h-1.5v-8.8h1.5Zm10.6-.3v5.2a1.06,1.06,0,0,0,1.2,1.2h1.1V363h-1.3a2.12,2.12,0,0,1-2.4-2.4v-5.2h-1.1v-1.2h1.1V352h1.5v2.2h2.3v1.2Zm3.5,3.2a6,6,0,0,1,.5-2.4,4.63,4.63,0,0,1,1.5-1.6,3.7,3.7,0,0,1,2.1-.6,4.23,4.23,0,0,1,2,.5,3,3,0,0,1,1.3,1.2v-1.6h1.5v8.8h-1.5v-1.6a4,4,0,0,1-1.3,1.3,4.23,4.23,0,0,1-2,.5,3.7,3.7,0,0,1-2.1-.6,4.63,4.63,0,0,1-1.5-1.6A4.13,4.13,0,0,1,128.8,358.6Zm7.4,0a3.06,3.06,0,0,0-.4-1.7,2.35,2.35,0,0,0-1.1-1.1,2.41,2.41,0,0,0-1.5-.4,2.82,2.82,0,0,0-1.5.4,3.84,3.84,0,0,0-1.1,1.1,3.29,3.29,0,0,0-.4,1.7,3.42,3.42,0,0,0,.4,1.8,2.35,2.35,0,0,0,1.1,1.1,2.41,2.41,0,0,0,1.5.4,2.82,2.82,0,0,0,1.5-.4,2.91,2.91,0,0,0,1.1-1.1A3.66,3.66,0,0,0,136.2,358.6Zm5.4-2.7a4,4,0,0,1,1.3-1.3,4.23,4.23,0,0,1,2-.5,3.7,3.7,0,0,1,2.1.6,4.63,4.63,0,0,1,1.5,1.6,4.71,4.71,0,0,1,.5,2.4,6,6,0,0,1-.5,2.4,4.63,4.63,0,0,1-1.5,1.6,3.7,3.7,0,0,1-2.1.6,4.23,4.23,0,0,1-2-.5,3.25,3.25,0,0,1-1.3-1.3v1.6h-1.5V351.3h1.5Zm5.9,2.7a3.06,3.06,0,0,0-.4-1.7,2.35,2.35,0,0,0-1.1-1.1,2.41,2.41,0,0,0-1.5-.4,2.82,2.82,0,0,0-1.5.4,3.84,3.84,0,0,0-1.1,1.1,3.29,3.29,0,0,0-.4,1.7,3.06,3.06,0,0,0,.4,1.7,2.35,2.35,0,0,0,1.1,1.1,3,3,0,0,0,3,0,2.91,2.91,0,0,0,1.1-1.1A3.06,3.06,0,0,0,147.5,358.6Zm5.2-3.2v5.2a1.06,1.06,0,0,0,1.2,1.2H155V363h-1.3a2.12,2.12,0,0,1-2.4-2.4v-5.2h-1.1v-1.2h1.1V352h1.5v2.2h2.3v1.2Zm11.9,0h-1.8V363h-1.5v-7.6h-1.1v-1.2h1.1v-.6a2.56,2.56,0,0,1,.8-2.1,3.29,3.29,0,0,1,2.4-.7V352a2,2,0,0,0-1.4.4,1.46,1.46,0,0,0-.4,1.2v.6h1.8v1.2Zm5.5,7.7a4,4,0,0,1-2.2-.6,4.1,4.1,0,0,1-1.6-1.6,5.1,5.1,0,0,1,0-4.8,4.1,4.1,0,0,1,1.6-1.6,4.71,4.71,0,0,1,4.6,0,4.1,4.1,0,0,1,1.6,1.6,5.1,5.1,0,0,1,0,4.8,4.44,4.44,0,0,1-4,2.2Zm0-1.2a2.82,2.82,0,0,0,1.5-.4,2.35,2.35,0,0,0,1.1-1.1,4.25,4.25,0,0,0,0-3.6,2.35,2.35,0,0,0-1.1-1.1,3.31,3.31,0,0,0-1.5-.4,2.82,2.82,0,0,0-1.5.4,2.89,2.89,0,0,0-1.1,1.1,4.25,4.25,0,0,0,0,3.6,2.35,2.35,0,0,0,1.1,1.1A4.19,4.19,0,0,0,170.1,361.9Zm7.9-6.2a3.18,3.18,0,0,1,1.1-1.2,3.29,3.29,0,0,1,1.7-.4v1.5h-.4q-2.4,0-2.4,2.7v4.8h-1.5v-8.8H178v1.4Zm16.8,2.6v.9h-7a2.69,2.69,0,0,0,.9,2,2.71,2.71,0,0,0,4.5-.9h1.6a4.12,4.12,0,0,1-1.4,2.1,4.46,4.46,0,0,1-2.6.8,4,4,0,0,1-2.2-.6,3.32,3.32,0,0,1-1.5-1.6,4.75,4.75,0,0,1-.6-2.4,6,6,0,0,1,.5-2.4,4.63,4.63,0,0,1,1.5-1.6,4.38,4.38,0,0,1,2.3-.6,5.09,5.09,0,0,1,2.2.5,5.36,5.36,0,0,1,1.5,1.5A18.1,18.1,0,0,1,194.8,358.3Zm-1.5-.3a2.12,2.12,0,0,0-.4-1.4,2.19,2.19,0,0,0-1-.9,3.19,3.19,0,0,0-1.4-.3,2.64,2.64,0,0,0-1.9.7,3.12,3.12,0,0,0-.9,2h5.6Zm6.6,3.7,2.7-7.4h1.6l-3.4,8.8h-1.7l-3.4-8.8h1.6Zm6.5-8.9a1,1,0,1,1,.7-.3A.91.91,0,0,1,206.4,352.8Zm.7,1.4V363h-1.5v-8.8Zm6.1-.1a4.23,4.23,0,0,1,2,.5,3,3,0,0,1,1.3,1.2v-1.6H218v9a4.65,4.65,0,0,1-.5,2.1,3.61,3.61,0,0,1-1.5,1.5,4,4,0,0,1-2.2.5,5.22,5.22,0,0,1-2.9-.8,3.28,3.28,0,0,1-1.4-2.2h1.4a2.56,2.56,0,0,0,1,1.3,3.45,3.45,0,0,0,1.8.5,2.79,2.79,0,0,0,2-.8,2.86,2.86,0,0,0,.8-2.1v-1.8a4,4,0,0,1-1.3,1.3,4.23,4.23,0,0,1-2,.5,3.7,3.7,0,0,1-2.1-.6,4.63,4.63,0,0,1-1.5-1.6,4.71,4.71,0,0,1-.5-2.4,6,6,0,0,1,.5-2.4,3.78,3.78,0,0,1,3.6-2.1Zm3.3,4.5a3.06,3.06,0,0,0-.4-1.7,2.35,2.35,0,0,0-1.1-1.1,2.41,2.41,0,0,0-1.5-.4,2.82,2.82,0,0,0-1.5.4,3.84,3.84,0,0,0-1.1,1.1,3.29,3.29,0,0,0-.4,1.7,3.42,3.42,0,0,0,.4,1.8,2.35,2.35,0,0,0,1.1,1.1,2.41,2.41,0,0,0,1.5.4,2.82,2.82,0,0,0,1.5-.4,2.91,2.91,0,0,0,1.1-1.1A5.26,5.26,0,0,0,216.5,358.6Zm5.7-3.2v5.2a1.06,1.06,0,0,0,1.2,1.2h1.1V363h-1.3a2.12,2.12,0,0,1-2.4-2.4v-5.2h-1.1v-1.2h1.1V352h1.5v2.2h2.3v1.2Zm4.5,7.7a1,1,0,1,1,.7-.3A.91.91,0,0,1,226.7,363.1Z"/>
      <path d="M37.4,276.3a2.89,2.89,0,0,1,1.6.9,2.33,2.33,0,0,1,.6,1.8,2.93,2.93,0,0,1-.4,1.6,3.61,3.61,0,0,1-1.3,1.1,4.21,4.21,0,0,1-2,.4H31.1V270.9h4.6a4.21,4.21,0,0,1,2,.4,2,2,0,0,1,1.2,1,2.41,2.41,0,0,1,.4,1.5,2.54,2.54,0,0,1-.5,1.6A2.84,2.84,0,0,1,37.4,276.3Zm-4.1-.9h2a1.59,1.59,0,0,0,1.2-.4,1.45,1.45,0,0,0,0-2,2.14,2.14,0,0,0-1.2-.4h-2Zm2.3,4.8a1.84,1.84,0,0,0,1.3-.4,1.43,1.43,0,0,0,.5-1.1,1.29,1.29,0,0,0-.5-1.1,1.84,1.84,0,0,0-1.3-.4H33.4v3Zm14-2.8a2.77,2.77,0,0,1-.1.9H43a2.63,2.63,0,0,0,.7,1.5,2,2,0,0,0,1.5.5,2,2,0,0,0,1.8-1.1h2.4a3.59,3.59,0,0,1-1.5,2.1,4.55,4.55,0,0,1-2.7.8,4.38,4.38,0,0,1-2.3-.6,4.1,4.1,0,0,1-1.6-1.6,5.1,5.1,0,0,1,0-4.8,4.1,4.1,0,0,1,1.6-1.6,4.38,4.38,0,0,1,2.3-.6,5.93,5.93,0,0,1,2.3.5,4.1,4.1,0,0,1,1.6,1.6A6,6,0,0,1,49.6,277.4Zm-2.3-.7a1.82,1.82,0,0,0-.6-1.4,2,2,0,0,0-1.5-.5,2.17,2.17,0,0,0-1.4.5,2.1,2.1,0,0,0-.7,1.4Zm7.4,5.4a4.48,4.48,0,0,1-2-.4,3.81,3.81,0,0,1-1.4-1.1,2.46,2.46,0,0,1-.5-1.5H53a1,1,0,0,0,.5.8,2,2,0,0,0,1.1.3,1.49,1.49,0,0,0,1-.3,1,1,0,0,0,.4-.7.55.55,0,0,0-.4-.6c-.3-.1-.8-.3-1.4-.5a10.31,10.31,0,0,1-1.6-.5,2.84,2.84,0,0,1-1.1-.8,2.12,2.12,0,0,1-.4-1.4,2,2,0,0,1,.4-1.3,4,4,0,0,1,1.2-1,5.33,5.33,0,0,1,1.9-.4,3.74,3.74,0,0,1,2.5.8,2.66,2.66,0,0,1,1,2.1H56a1,1,0,0,0-.4-.8,1.69,1.69,0,0,0-1-.3,2,2,0,0,0-.9.2.71.71,0,0,0-.3.6.75.75,0,0,0,.4.7c.3.1.8.3,1.4.5a15.6,15.6,0,0,1,1.6.5,2.84,2.84,0,0,1,1.1.8,2.17,2.17,0,0,1,.5,1.4,2.3,2.3,0,0,1-.4,1.4,4,4,0,0,1-1.2,1A4.3,4.3,0,0,1,54.7,282.1Zm10.5-.1-3-3.8V282H60V270.2h2.2v6.7l3-3.8h2.9l-3.9,4.4,3.9,4.4H65.2Zm6.4-7.5a3.84,3.84,0,0,1,1.1-1.1,2.93,2.93,0,0,1,1.6-.4v2.4h-.6a2.54,2.54,0,0,0-1.6.5c-.4.3-.5.9-.5,1.7V282H69.4v-8.9h2.2Zm5.3-2.4a1.28,1.28,0,0,1-1-.4,1.22,1.22,0,0,1-.4-.9,1,1,0,0,1,.4-.9,1.45,1.45,0,0,1,2,0,1.09,1.09,0,0,1,.4.9,1,1,0,0,1-.4.9A1.28,1.28,0,0,1,76.9,272.1Zm1.1,1V282H75.8v-8.9Zm5.9,6.8,2.2-6.8h2.4L85.2,282H82.5l-3.3-8.9h2.4Zm14.2-2.5a2.77,2.77,0,0,1-.1.9H91.5a2.63,2.63,0,0,0,.7,1.5,2,2,0,0,0,1.5.5,2,2,0,0,0,1.8-1.1h2.4a3.59,3.59,0,0,1-1.5,2.1,4.55,4.55,0,0,1-2.7.8,4.38,4.38,0,0,1-2.3-.6,4.1,4.1,0,0,1-1.6-1.6,5.1,5.1,0,0,1,0-4.8,4.1,4.1,0,0,1,1.6-1.6,4.38,4.38,0,0,1,2.3-.6,5.93,5.93,0,0,1,2.3.5,4.1,4.1,0,0,1,1.6,1.6A6,6,0,0,1,98.1,277.4Zm-2.4-.7a1.82,1.82,0,0,0-.6-1.4,2,2,0,0,0-1.5-.5,2.17,2.17,0,0,0-1.4.5,2.1,2.1,0,0,0-.7,1.4Zm6.2-6.5V282H99.7V270.2Zm5.6,11.9a4.48,4.48,0,0,1-2-.4,3.81,3.81,0,0,1-1.4-1.1,2.46,2.46,0,0,1-.5-1.5h2.3a1,1,0,0,0,.5.8,2,2,0,0,0,1.1.3,1.49,1.49,0,0,0,1-.3,1,1,0,0,0,.4-.7.55.55,0,0,0-.4-.6c-.3-.1-.8-.3-1.4-.5a10.31,10.31,0,0,1-1.6-.5,2.84,2.84,0,0,1-1.1-.8,2.12,2.12,0,0,1-.4-1.4,2,2,0,0,1,.4-1.3,4,4,0,0,1,1.2-1,5.33,5.33,0,0,1,1.9-.4,3.74,3.74,0,0,1,2.5.8,2.66,2.66,0,0,1,1,2.1h-2.1a1,1,0,0,0-.4-.8,1.69,1.69,0,0,0-1-.3,2,2,0,0,0-.9.2.71.71,0,0,0-.3.6.75.75,0,0,0,.4.7c.3.1.8.3,1.4.5a15.6,15.6,0,0,1,1.6.5,2.84,2.84,0,0,1,1.1.8,2.17,2.17,0,0,1,.5,1.4,2.3,2.3,0,0,1-.4,1.4,4,4,0,0,1-1.2,1A4.66,4.66,0,0,1,107.5,282.1Zm13.6-4.7a2.77,2.77,0,0,1-.1.9h-6.5a2.63,2.63,0,0,0,.7,1.5,2,2,0,0,0,1.5.5,2,2,0,0,0,1.8-1.1h2.4a3.59,3.59,0,0,1-1.5,2.1,4.55,4.55,0,0,1-2.7.8,4.38,4.38,0,0,1-2.3-.6,4.1,4.1,0,0,1-1.6-1.6,5.1,5.1,0,0,1,0-4.8,4.1,4.1,0,0,1,1.6-1.6,4.38,4.38,0,0,1,2.3-.6,5.93,5.93,0,0,1,2.3.5,4.1,4.1,0,0,1,1.6,1.6A6,6,0,0,1,121.1,277.4Zm-2.3-.7a1.82,1.82,0,0,0-.6-1.4,2,2,0,0,0-1.5-.5,2.17,2.17,0,0,0-1.4.5,2.1,2.1,0,0,0-.7,1.4Z"/>
      <a xlink:href="javascript:void(0);" target="_parent" cursor="pointer"><rect id="anchor" x="30" y="573.7" width="275" height="31.6" fill="#0a1013" fill-opacity="0"/></a>
    </g>
  </g>
</svg>
