<svg xmlns="http://www.w3.org/2000/svg" xmlns:xlink="http://www.w3.org/1999/xlink" width="499.5445" height="451.9872" viewBox="0 0 499.5445 451.9872">
  <defs>
    <style>
      .cls-1 {
        isolation: isolate;
      }

      .cls-2 {
        mix-blend-mode: luminosity;
      }

      .cls-3, .cls-4 {
        fill: #ddd6ff;
      }

      .cls-3 {
        opacity: 0.43;
      }

      .cls-20, .cls-25, .cls-27, .cls-31, .cls-32, .cls-5 {
        opacity: 0.5;
      }

      .cls-20, .cls-26, .cls-31, .cls-5, .cls-8 {
        mix-blend-mode: screen;
      }

      .cls-6 {
        fill: url(#linear-gradient);
      }

      .cls-7 {
        fill: url(#linear-gradient-2);
      }

      .cls-8 {
        opacity: 0.7;
      }

      .cls-9 {
        fill: url(#linear-gradient-3);
      }

      .cls-10 {
        fill: url(#linear-gradient-4);
      }

      .cls-11 {
        fill: url(#linear-gradient-5);
      }

      .cls-12, .cls-20 {
        fill: #2b2d3c;
      }

      .cls-13 {
        fill: #56618f;
      }

      .cls-14 {
        fill: #fa99a0;
      }

      .cls-15, .cls-28 {
        fill: #ed7378;
      }

      .cls-16, .cls-29, .cls-31, .cls-32 {
        fill: #fededd;
      }

      .cls-17, .cls-27 {
        fill: #fdb2b4;
      }

      .cls-18 {
        fill: #b74e50;
      }

      .cls-19 {
        fill: #fff;
      }

      .cls-21 {
        font-size: 38.292px;
        font-family: Oswald-Bold, Oswald;
        font-weight: 700;
      }

      .cls-21, .cls-24, .cls-26 {
        fill: #414f7c;
      }

      .cls-22 {
        letter-spacing: -0.008em;
      }

      .cls-23 {
        letter-spacing: 0em;
      }

      .cls-27, .cls-28, .cls-29, .cls-32 {
        mix-blend-mode: multiply;
      }

      .cls-28 {
        opacity: 0.3;
      }

      .cls-30 {
        fill: none;
        stroke: #56618f;
        stroke-miterlimit: 10;
        stroke-width: 1.0115px;
      }

      .cls-33 {
        fill: #a5b7c6;
      }
    </style>
    <linearGradient id="linear-gradient" x1="39.6968" y1="10.7031" x2="169.2644" y2="10.7031" gradientUnits="userSpaceOnUse">
      <stop offset="0" stop-color="#f1f7ff"/>
      <stop offset="1" stop-color="#bcecfe"/>
    </linearGradient>
    <linearGradient id="linear-gradient-2" x1="407.8742" y1="42.7424" x2="407.8742" y2="19.8042" xlink:href="#linear-gradient"/>
    <linearGradient id="linear-gradient-3" x1="154.7313" y1="36.277" x2="155.0558" y2="28.6661" xlink:href="#linear-gradient"/>
    <linearGradient id="linear-gradient-4" x1="111.6567" y1="43.7309" x2="111.6567" y2="36.1131" xlink:href="#linear-gradient"/>
    <linearGradient id="linear-gradient-5" x1="140.5653" y1="51.1457" x2="140.5653" y2="43.5278" xlink:href="#linear-gradient"/>
  </defs>
  <g class="cls-1">
    <g id="Layer_2" data-name="Layer 2">
      <g id="OBJECT">
        <g>
          <g class="cls-2">
            <path class="cls-3" d="M165.9644,254.1261v-46.388L134.503,242.1239v57.1777H114.2335V217.3581h-5.1543L94.4025,203.644l-14.756,13.7141H74.5776V327.9422H0v60.2317H215.1124V254.1261Zm-56.8852,29.4021H79.7319v-2.9975h29.3473Zm0-5.9828H79.7319V274.548h29.3473Zm0-5.9828H79.7319v-2.9914h29.3473Zm0-5.9827H79.7319v-2.9914h29.3473Zm0-5.9768H79.7319v-2.9975h29.3473Zm0-5.9827H79.7319v-2.9975h29.3473Zm0-5.9829H79.7319v-2.9913h29.3473Zm0-5.9827H79.7319v-2.9914h29.3473Zm0-5.9828H79.7319v-2.9914h29.3473Zm0-5.9767H79.7319v-2.9974h29.3473Zm0-5.9828H79.7319v-2.9914h29.3473ZM161.9739,369.425h-3.0463V222.2138l3.0463-3.3387Z"/>
            <path class="cls-3" d="M388.1321,254.1261v-46.388l-31.4614,34.3858v57.1777H336.4012V217.3581h-5.1543L316.57,203.644l-14.756,13.7141h-5.0689V327.9422H222.1677v60.2317H437.28V254.1261Zm-56.8852,29.4021H301.9v-2.9975h29.3473Zm0-5.9828H301.9V274.548h29.3473Zm0-5.9828H301.9v-2.9914h29.3473Zm0-5.9827H301.9v-2.9914h29.3473Zm0-5.9768H301.9v-2.9975h29.3473Zm0-5.9827H301.9v-2.9975h29.3473Zm0-5.9829H301.9v-2.9913h29.3473Zm0-5.9827H301.9v-2.9914h29.3473Zm0-5.9828H301.9v-2.9914h29.3473Zm0-5.9767H301.9v-2.9974h29.3473Zm0-5.9828H301.9v-2.9914h29.3473ZM384.1415,369.425h-3.0462V222.2138l3.0462-3.3387Z"/>
            <path class="cls-4" d="M307.8424,332.0517V227.2091h-4.725V216.6014H266.5709v10.6077h-4.6963V359.0135H227.5762v-59.69H177.6306V377.65H153.4994V237.3461H104.301V345.14H98.5268V280.974H89.6276L64.8171,267.8706V280.974H59.39v79.2472H47.3433V252.9027H35.1607v-37.65H33.4925v37.65H21.31V388.0014l317.3135.4044V332.0517Zm-263.4353-10.19H24.3065V319.53H44.4071Zm0-5.3969H24.3065v-2.3323H44.4071Zm0-5.4044H24.3065v-2.3323H44.4071Zm0-5.3968H24.3065v-2.3324H44.4071Zm0-5.3969H24.3065v-2.3324H44.4071Zm0-5.4044H24.3065V292.53H44.4071Zm0-5.3969H24.3065v-2.3323H44.4071Zm0-5.3969H24.3065v-2.3323H44.4071Zm0-5.4044H24.3065V276.332H44.4071Zm0-5.397H24.3065V270.935H44.4071Zm0-5.3967H24.3065v-2.3325H44.4071Zm0-5.4044H24.3065v-2.3325H44.4071Zm0-5.397H24.3065v-2.3324H44.4071Zm70.4915,32.14h-5.9857v-5.978h5.9857Zm0-9.9709h-5.9857v-5.9857h5.9857Zm0-9.9787h-5.9857v-5.978h5.9857Zm0-9.9709h-5.9857v-5.9857h5.9857Zm0-9.9786h-5.9857v-5.9856h5.9857Zm11.3674,39.8991h-5.9781v-5.978h5.9781Zm0-9.9709h-5.9781v-5.9857h5.9781Zm0-9.9787h-5.9781v-5.978h5.9781Zm0-9.9709h-5.9781v-5.9857h5.9781Zm0-9.9786h-5.9781v-5.9856h5.9781Zm11.3749,39.8991h-5.9856v-5.978h5.9856Zm0-9.9709h-5.9856v-5.9857h5.9856Zm0-9.9787h-5.9856v-5.978h5.9856Zm0-9.9709h-5.9856v-5.9857h5.9856Zm0-9.9786h-5.9856v-5.9856h5.9856Zm11.3674,39.8991H143.03v-5.978h5.9781Zm0-9.9709H143.03v-5.9857h5.9781Zm0-9.9787H143.03v-5.978h5.9781Zm0-9.9709H143.03v-5.9857h5.9781ZM312.5525,381.3936h-6.22v-6.22h6.22Zm0-12.4544h-6.22v-6.22h6.22Zm0-12.4542h-6.22v-6.22h6.22Zm0-12.4544h-6.22v-6.22h6.22Zm11.5409,37.363h-6.2195v-6.22h6.2195Zm0-12.4544h-6.2195v-6.22h6.2195Zm0-12.4542h-6.2195v-6.22h6.2195Zm0-12.4544h-6.2195v-6.22h6.2195Zm11.541,37.363h-6.2272v-6.22h6.2272Zm0-12.4544h-6.2272v-6.22h6.2272Zm0-12.4542h-6.2272v-6.22h6.2272Zm0-12.4544h-6.2272v-6.22h6.2272Z"/>
            <path class="cls-4" d="M467.3108,327.3542v-109.79h-4.948V206.4556H424.0917v11.1082h-4.918V355.5883H383.2568v-62.507H330.9541V375.104h-25.27V228.1792h-51.52V341.06h-6.0467V273.866h-9.3191l-25.9814-13.7218V273.866h-5.6832v82.987H194.5183V244.47H181.7608V205.0434H180.014V244.47H167.2565V386.3676l304.3384,1.7643,27.95.042v-60.82ZM191.4436,316.6834H170.3945v-2.4423h21.0491Zm0-5.6516H170.3945V308.59h21.0491Zm0-5.6594H170.3945V302.93h21.0491Zm0-5.6515H170.3945v-2.4425h21.0491Zm0-5.6516H170.3945v-2.4425h21.0491Zm0-5.6594H170.3945v-2.4425h21.0491Zm0-5.6516H170.3945v-2.4424h21.0491Zm0-5.6516H170.3945v-2.4424h21.0491Zm0-5.6594H170.3945v-2.4424h21.0491Zm0-5.6516H170.3945v-2.4424h21.0491Zm0-5.6515H170.3945v-2.4425h21.0491Zm0-5.66H170.3945v-2.4424h21.0491Zm0-5.6516H170.3945v-2.4424h21.0491ZM265.2617,282.49h-6.2681v-6.26h6.2681Zm0-10.4415h-6.2681V265.78h6.2681Zm0-10.4495h-6.2681v-6.26h6.2681Zm0-10.4415h-6.2681v-6.2681h6.2681Zm0-10.4495h-6.2681v-6.2681h6.2681Zm11.9039,41.782h-6.26v-6.26h6.26Zm0-10.4415h-6.26V265.78h6.26Zm0-10.4495h-6.26v-6.26h6.26Zm0-10.4415h-6.26v-6.2681h6.26Zm0-10.4495h-6.26v-6.2681h6.26Zm11.9116,41.782h-6.268v-6.26h6.268Zm0-10.4415h-6.268V265.78h6.268Zm0-10.4495h-6.268v-6.26h6.268Zm0-10.4415h-6.268v-6.2681h6.268Zm0-10.4495h-6.268v-6.2681h6.268Zm11.9039,41.782h-6.26v-6.26h6.26Zm0-10.4415h-6.26V265.78h6.26Zm0-10.4495h-6.26v-6.26h6.26Zm0-10.4415h-6.26v-6.2681h6.26Zm171.262,127.8675H465.73v-6.5131h6.5132Zm0-13.0421H465.73v-6.5131h6.5132Zm0-13.042H465.73v-6.5132h6.5132Zm0-13.0421H465.73v-6.5131h6.5132Zm12.0857,39.1262h-6.5131v-6.5131h6.5131Zm0-13.0421h-6.5131v-6.5131h6.5131Zm0-13.042h-6.5131v-6.5132h6.5131Zm0-13.0421h-6.5131v-6.5131h6.5131Zm12.0856,39.1262h-6.5211v-6.5131h6.5211Zm0-13.0421h-6.5211v-6.5131h6.5211Zm0-13.042h-6.5211v-6.5132h6.5211Zm0-13.0421h-6.5211v-6.5131h6.5211Z"/>
          </g>
          <g>
            <g class="cls-5">
              <path class="cls-6" d="M168.3626,19.6818c2.1817-5.3615.25-11.9462-4.1266-15.7347A17.7362,17.7362,0,0,0,147.8944.7382,23.3749,23.3749,0,0,0,134.7106,11.406c-.9166-2.6769-2.3-5.3833-4.7306-6.8318-3.3774-2.0126-7.9023-.9575-10.9914,1.4745s-5.0629,5.9747-6.9561,9.42c-3.5907-2.8477-7.3825-5.789-11.8937-6.596C93.468,7.68,87.035,11.3692,80.9579,14.3679c-11.2233,5.5382-21.1543,4.511-41.2611,7.0384C80.2571,19.07,168.3626,19.6818,168.3626,19.6818Z"/>
            </g>
            <g class="cls-5">
              <path class="cls-7" d="M367.68,19.8042a13.3221,13.3221,0,0,1,12.7855,11.5089c1.9751-2.5807,5.0142-4.5467,8.2628-4.4573s6.4624,2.7159,6.4983,5.9654c3.4379-3.8288,9.7707-4.5277,14.2267-2.27a17.64,17.64,0,0,1,5.23,4.1815c1.2856,1.4689,2.3615,3.2546,4.16,4.1565,1.8147.91,13.678,1.7187,17.5823,1.9876,9.0114.6207,18.0374,1.0389,27.0632,1.3844,5.1136.1957,10.2288.3681,15.3451.4813-22.2946,0-135.1488-.2914-141.92-.2914a11.5,11.5,0,0,1,6.2359-8.6283c3.5937-1.7551,7.2243-1.141,10.6962.3613C353.6856,32.9091,355.019,19.8042,367.68,19.8042Z"/>
            </g>
          </g>
          <g>
            <g class="cls-8">
              <path class="cls-9" d="M143.7989,32.5a5.7288,5.7288,0,0,1,2.498-2.3146,5.5237,5.5237,0,0,1,3.6018-.3734,8.4627,8.4627,0,0,1,3.2413,1.5856,15.9087,15.9087,0,0,1,2.445,2.4715l-1.6472.1378a12.117,12.117,0,0,1,2.15-2.8971,6.5308,6.5308,0,0,1,3.3354-1.7542,6.9563,6.9563,0,0,1,3.6151.3448,10.6464,10.6464,0,0,1,2.9942,1.7017,18.2246,18.2246,0,0,0-3.22-.7737,6.8912,6.8912,0,0,0-3.0236.2128,5.5987,5.5987,0,0,0-2.38,1.5858,12.2148,12.2148,0,0,0-1.7324,2.5443l-.6947,1.3165L154.03,35.109a11.6052,11.6052,0,0,0-4.5626-3.7718,4.9219,4.9219,0,0,0-2.8384-.2056A7.0807,7.0807,0,0,0,143.7989,32.5Z"/>
            </g>
            <g class="cls-8">
              <path class="cls-10" d="M100.5733,40.4229a5.7283,5.7283,0,0,1,2.3972-2.4188,5.5222,5.5222,0,0,1,3.5825-.5265,8.463,8.463,0,0,1,3.306,1.446,15.9049,15.9049,0,0,1,2.548,2.3651l-1.64.2078a12.1212,12.1212,0,0,1,2.0247-2.986,6.53,6.53,0,0,1,3.2576-1.8947,6.9568,6.9568,0,0,1,3.6265.19,10.6463,10.6463,0,0,1,3.064,1.5726,18.2323,18.2323,0,0,0-3.25-.6358,6.8917,6.8917,0,0,0-3.0118.3414,5.5991,5.5991,0,0,0-2.31,1.6857,12.2146,12.2146,0,0,0-1.6224,2.6159l-.6381,1.3449-1.0019-1.1371a11.6051,11.6051,0,0,0-4.7191-3.5739,4.9214,4.9214,0,0,0-2.8447-.0845A7.08,7.08,0,0,0,100.5733,40.4229Z"/>
            </g>
            <g class="cls-8">
              <path class="cls-11" d="M129.482,47.8377a5.7275,5.7275,0,0,1,2.3971-2.4188,5.5225,5.5225,0,0,1,3.5826-.5265,8.4629,8.4629,0,0,1,3.306,1.446,15.9091,15.9091,0,0,1,2.548,2.3651l-1.64.2078a12.118,12.118,0,0,1,2.0246-2.986,6.5313,6.5313,0,0,1,3.2576-1.8948,6.9578,6.9578,0,0,1,3.6265.19,10.6463,10.6463,0,0,1,3.064,1.5726,18.24,18.24,0,0,0-3.25-.6359,6.8912,6.8912,0,0,0-3.0117.3415,5.5988,5.5988,0,0,0-2.31,1.6857,12.2161,12.2161,0,0,0-1.6224,2.6159l-.638,1.3449-1.002-1.1371a11.6045,11.6045,0,0,0-4.7191-3.574,4.9219,4.9219,0,0,0-2.8446-.0844A7.0791,7.0791,0,0,0,129.482,47.8377Z"/>
            </g>
          </g>
        </g>
        <g>
          <g>
            <rect class="cls-12" x="64.3298" y="357.0464" width="0.831" height="20.8848" transform="translate(-302.7435 432.2341) rotate(-90)"/>
            <rect class="cls-12" x="52.9989" y="342.4491" width="9.0457" height="4.9859"/>
            <rect class="cls-12" x="54.9813" y="346.1885" width="0.831" height="20.8848"/>
            <rect class="cls-12" x="57.5781" y="346.1885" width="0.831" height="20.8848"/>
            <rect class="cls-12" x="60.1749" y="346.1885" width="0.831" height="20.8848"/>
          </g>
          <g>
            <rect class="cls-12" x="431.5506" y="357.0464" width="0.831" height="20.8848" transform="translate(64.4773 799.4549) rotate(-90)"/>
            <rect class="cls-12" x="434.6668" y="342.4491" width="9.0457" height="4.9859" transform="translate(878.3793 689.8841) rotate(180)"/>
            <rect class="cls-12" x="440.8992" y="346.1885" width="0.8309" height="20.8848" transform="translate(882.6293 713.2618) rotate(180)"/>
            <rect class="cls-12" x="438.3023" y="346.1885" width="0.831" height="20.8848" transform="translate(877.4356 713.2618) rotate(180)"/>
            <rect class="cls-12" x="435.7055" y="346.1885" width="0.831" height="20.8848" transform="translate(872.242 713.2618) rotate(180)"/>
          </g>
          <g>
            <g>
              <rect class="cls-12" x="82.4624" y="241.6408" width="0.2247" height="5.649" transform="translate(-161.8906 327.0401) rotate(-90)"/>
              <rect class="cls-12" x="79.3975" y="237.6924" width="2.4467" height="1.3486"/>
              <rect class="cls-12" x="79.9337" y="238.7039" width="0.2247" height="5.6491"/>
              <rect class="cls-12" x="80.6361" y="238.7039" width="0.2247" height="5.6491"/>
              <rect class="cls-12" x="81.3385" y="238.7039" width="0.2247" height="5.6491"/>
            </g>
            <g>
              <rect class="cls-12" x="82.4623" y="205.5866" width="0.2248" height="5.649" transform="translate(-125.8364 290.9858) rotate(-90)"/>
              <rect class="cls-12" x="79.3975" y="201.6382" width="2.4467" height="1.3486"/>
              <rect class="cls-12" x="79.9337" y="202.6496" width="0.2247" height="5.6491"/>
              <rect class="cls-12" x="80.6361" y="202.6496" width="0.2247" height="5.6491"/>
              <rect class="cls-12" x="81.3385" y="202.6496" width="0.2247" height="5.6491"/>
            </g>
            <g>
              <rect class="cls-12" x="82.4623" y="169.5323" width="0.2248" height="5.649" transform="translate(-89.7821 254.9315) rotate(-90)"/>
              <rect class="cls-12" x="79.3975" y="165.5839" width="2.4467" height="1.3486"/>
              <rect class="cls-12" x="79.9337" y="166.5953" width="0.2247" height="5.6491"/>
              <rect class="cls-12" x="80.6361" y="166.5953" width="0.2247" height="5.6491"/>
              <rect class="cls-12" x="81.3385" y="166.5953" width="0.2247" height="5.6491"/>
            </g>
            <g>
              <rect class="cls-12" x="82.4624" y="133.478" width="0.2247" height="5.649" transform="translate(-53.7278 218.8773) rotate(-90)"/>
              <rect class="cls-12" x="79.3975" y="129.5296" width="2.4467" height="1.3486"/>
              <rect class="cls-12" x="79.9337" y="130.5411" width="0.2247" height="5.6491"/>
              <rect class="cls-12" x="80.6361" y="130.5411" width="0.2247" height="5.6491"/>
              <rect class="cls-12" x="81.3385" y="130.5411" width="0.2247" height="5.6491"/>
            </g>
          </g>
          <g>
            <g>
              <rect class="cls-12" x="413.5201" y="241.6408" width="0.2247" height="5.6491" transform="translate(169.1671 658.0978) rotate(-90)"/>
              <rect class="cls-12" x="414.3629" y="237.6924" width="2.4468" height="1.3486" transform="translate(831.1726 476.7334) rotate(180)"/>
              <rect class="cls-12" x="416.0487" y="238.7039" width="0.2248" height="5.6491" transform="translate(832.3222 483.0569) rotate(180)"/>
              <rect class="cls-12" x="415.3463" y="238.7039" width="0.2248" height="5.6491" transform="translate(830.9174 483.0569) rotate(180)"/>
              <rect class="cls-12" x="414.6439" y="238.7039" width="0.2248" height="5.6491" transform="translate(829.5126 483.0569) rotate(180)"/>
            </g>
            <g>
              <rect class="cls-12" x="413.5201" y="205.5865" width="0.2248" height="5.6491" transform="translate(205.2214 622.0436) rotate(-90)"/>
              <rect class="cls-12" x="414.3629" y="201.6382" width="2.4468" height="1.3486" transform="translate(831.1726 404.625) rotate(180)"/>
              <rect class="cls-12" x="416.0487" y="202.6496" width="0.2248" height="5.6491" transform="translate(832.3222 410.9483) rotate(180)"/>
              <rect class="cls-12" x="415.3463" y="202.6496" width="0.2248" height="5.6491" transform="translate(830.9174 410.9483) rotate(180)"/>
              <rect class="cls-12" x="414.6439" y="202.6496" width="0.2248" height="5.6491" transform="translate(829.5126 410.9483) rotate(180)"/>
            </g>
            <g>
              <rect class="cls-12" x="413.5201" y="169.5322" width="0.2248" height="5.6491" transform="translate(241.2757 585.9893) rotate(-90)"/>
              <rect class="cls-12" x="414.3629" y="165.5839" width="2.4468" height="1.3486" transform="translate(831.1726 332.5164) rotate(180)"/>
              <rect class="cls-12" x="416.0487" y="166.5953" width="0.2248" height="5.6491" transform="translate(832.3222 338.8397) rotate(180)"/>
              <rect class="cls-12" x="415.3463" y="166.5953" width="0.2248" height="5.6491" transform="translate(830.9174 338.8397) rotate(180)"/>
              <rect class="cls-12" x="414.6439" y="166.5953" width="0.2248" height="5.6491" transform="translate(829.5126 338.8397) rotate(180)"/>
            </g>
            <g>
              <rect class="cls-12" x="413.5201" y="133.478" width="0.2247" height="5.6491" transform="translate(277.3299 549.935) rotate(-90)"/>
              <rect class="cls-12" x="414.3629" y="129.5296" width="2.4468" height="1.3486" transform="translate(831.1726 260.4078) rotate(180)"/>
              <rect class="cls-12" x="416.0487" y="130.5411" width="0.2248" height="5.6491" transform="translate(832.3222 266.7313) rotate(180)"/>
              <rect class="cls-12" x="415.3463" y="130.5411" width="0.2248" height="5.6491" transform="translate(830.9174 266.7313) rotate(180)"/>
              <rect class="cls-12" x="414.6439" y="130.5411" width="0.2248" height="5.6491" transform="translate(829.5126 266.7313) rotate(180)"/>
            </g>
          </g>
          <polygon class="cls-13" points="305.666 44.522 248.412 44.522 191.158 44.522 168.42 67.261 248.412 69.115 328.404 67.261 305.666 44.522"/>
          <polygon class="cls-13" points="210.47 77.564 153.216 77.564 95.962 77.564 73.223 96.637 153.216 98.192 233.208 96.637 210.47 77.564"/>
          <polygon class="cls-13" points="400.297 77.57 343.043 77.57 285.789 77.57 263.051 96.642 343.043 98.198 423.036 96.642 400.297 77.57"/>
          <g>
            <rect class="cls-14" x="313.2872" y="101.7394" width="104.5741" height="2.9455" transform="translate(731.1485 206.4243) rotate(180)"/>
            <rect class="cls-12" x="313.2872" y="96.6366" width="109.7438" height="5.891" transform="translate(736.3182 199.1642) rotate(180)"/>
          </g>
          <rect class="cls-15" x="322.3273" y="104.6849" width="92.0829" height="152.7964" transform="translate(736.7375 362.1662) rotate(180)"/>
          <g>
            <g>
              <g>
                <path class="cls-12" d="M386.7537,231.9775V244.94h11.0186V231.9775a5.4141,5.4141,0,0,0-.9642-3.1027,3.45,3.45,0,0,0-.2256-.3265,5.5115,5.5115,0,0,0-4.1212-2.0762,1.7526,1.7526,0,0,0-.2022-.0078,1.4934,1.4934,0,0,0-.1866.0078,5.5,5.5,0,0,0-3.7091,1.61,6.0055,6.0055,0,0,0-.42.4666,3.4676,3.4676,0,0,0-.2255.3265A5.4148,5.4148,0,0,0,386.7537,231.9775Z"/>
                <rect class="cls-16" x="386.7535" y="232.851" width="11.0256" height="0.5832" transform="translate(784.5326 466.2852) rotate(180)"/>
                <rect class="cls-16" x="386.7535" y="244.353" width="11.0256" height="0.5832" transform="translate(784.5326 489.2892) rotate(180)"/>
              </g>
              <g>
                <path class="cls-12" d="M362.8562,231.9775V244.94h11.0185V231.9775a5.4141,5.4141,0,0,0-.9642-3.1027,3.4489,3.4489,0,0,0-.2255-.3265,5.5115,5.5115,0,0,0-4.1213-2.0762,1.7517,1.7517,0,0,0-.2022-.0078,1.4942,1.4942,0,0,0-.1866.0078,5.5,5.5,0,0,0-3.7091,1.61,6.0043,6.0043,0,0,0-.42.4666,3.4489,3.4489,0,0,0-.2255.3265A5.4141,5.4141,0,0,0,362.8562,231.9775Z"/>
                <rect class="cls-16" x="362.856" y="232.851" width="11.0256" height="0.5832" transform="translate(736.7377 466.2852) rotate(180)"/>
                <rect class="cls-16" x="362.856" y="244.353" width="11.0256" height="0.5832" transform="translate(736.7377 489.2892) rotate(180)"/>
              </g>
              <g>
                <path class="cls-12" d="M338.9586,231.9775V244.94h11.0186V231.9775a5.4141,5.4141,0,0,0-.9642-3.1027,3.45,3.45,0,0,0-.2256-.3265,5.5115,5.5115,0,0,0-4.1212-2.0762,1.7526,1.7526,0,0,0-.2022-.0078,1.4934,1.4934,0,0,0-.1866.0078,5.5,5.5,0,0,0-3.7091,1.61,6.0055,6.0055,0,0,0-.42.4666,3.4676,3.4676,0,0,0-.2255.3265A5.4148,5.4148,0,0,0,338.9586,231.9775Z"/>
                <rect class="cls-16" x="338.9584" y="232.851" width="11.0256" height="0.5832" transform="translate(688.9424 466.2852) rotate(180)"/>
                <rect class="cls-16" x="338.9584" y="244.353" width="11.0256" height="0.5832" transform="translate(688.9424 489.2892) rotate(180)"/>
              </g>
            </g>
            <g>
              <g>
                <path class="cls-12" d="M386.7537,195.5648v12.9626h11.0186V195.5648a5.4141,5.4141,0,0,0-.9642-3.1027,3.45,3.45,0,0,0-.2256-.3265,5.5115,5.5115,0,0,0-4.1212-2.0762,1.7526,1.7526,0,0,0-.2022-.0078,1.4934,1.4934,0,0,0-.1866.0078,5.5,5.5,0,0,0-3.7091,1.61,6.0055,6.0055,0,0,0-.42.4666,3.4676,3.4676,0,0,0-.2255.3265A5.4148,5.4148,0,0,0,386.7537,195.5648Z"/>
                <rect class="cls-16" x="386.7535" y="196.4383" width="11.0256" height="0.5832" transform="translate(784.5326 393.4598) rotate(180)"/>
                <rect class="cls-16" x="386.7535" y="207.9403" width="11.0256" height="0.5832" transform="translate(784.5326 416.4638) rotate(180)"/>
              </g>
              <g>
                <path class="cls-12" d="M362.8562,195.5648v12.9626h11.0185V195.5648a5.4141,5.4141,0,0,0-.9642-3.1027,3.4489,3.4489,0,0,0-.2255-.3265,5.5115,5.5115,0,0,0-4.1213-2.0762,1.7517,1.7517,0,0,0-.2022-.0078,1.4942,1.4942,0,0,0-.1866.0078,5.5,5.5,0,0,0-3.7091,1.61,6.0043,6.0043,0,0,0-.42.4666,3.4489,3.4489,0,0,0-.2255.3265A5.4141,5.4141,0,0,0,362.8562,195.5648Z"/>
                <rect class="cls-16" x="362.856" y="196.4383" width="11.0256" height="0.5832" transform="translate(736.7377 393.4598) rotate(180)"/>
                <rect class="cls-16" x="362.856" y="207.9403" width="11.0256" height="0.5832" transform="translate(736.7377 416.4638) rotate(180)"/>
              </g>
              <g>
                <path class="cls-12" d="M338.9586,195.5648v12.9626h11.0186V195.5648a5.4141,5.4141,0,0,0-.9642-3.1027,3.45,3.45,0,0,0-.2256-.3265,5.5115,5.5115,0,0,0-4.1212-2.0762,1.7526,1.7526,0,0,0-.2022-.0078,1.4934,1.4934,0,0,0-.1866.0078,5.5,5.5,0,0,0-3.7091,1.61,6.0055,6.0055,0,0,0-.42.4666,3.4676,3.4676,0,0,0-.2255.3265A5.4148,5.4148,0,0,0,338.9586,195.5648Z"/>
                <rect class="cls-16" x="338.9584" y="196.4383" width="11.0256" height="0.5832" transform="translate(688.9424 393.4598) rotate(180)"/>
                <rect class="cls-16" x="338.9584" y="207.9403" width="11.0256" height="0.5832" transform="translate(688.9424 416.4638) rotate(180)"/>
              </g>
            </g>
            <g>
              <g>
                <path class="cls-12" d="M386.7537,159.1521v12.9626h11.0186V159.1521a5.4136,5.4136,0,0,0-.9642-3.1026,3.4383,3.4383,0,0,0-.2256-.3266,5.5115,5.5115,0,0,0-4.1212-2.0762,1.7526,1.7526,0,0,0-.2022-.0078,1.4934,1.4934,0,0,0-.1866.0078,5.5,5.5,0,0,0-3.7091,1.61,6.0055,6.0055,0,0,0-.42.4666,3.4563,3.4563,0,0,0-.2255.3266A5.4143,5.4143,0,0,0,386.7537,159.1521Z"/>
                <rect class="cls-16" x="386.7535" y="160.0256" width="11.0256" height="0.5832" transform="translate(784.5326 320.6344) rotate(180)"/>
                <rect class="cls-16" x="386.7535" y="171.5276" width="11.0256" height="0.5832" transform="translate(784.5326 343.6384) rotate(180)"/>
              </g>
              <g>
                <path class="cls-12" d="M362.8562,159.1521v12.9626h11.0185V159.1521a5.4136,5.4136,0,0,0-.9642-3.1026,3.4378,3.4378,0,0,0-.2255-.3266,5.5115,5.5115,0,0,0-4.1213-2.0762,1.7517,1.7517,0,0,0-.2022-.0078,1.4942,1.4942,0,0,0-.1866.0078,5.5,5.5,0,0,0-3.7091,1.61,6.0043,6.0043,0,0,0-.42.4666,3.4378,3.4378,0,0,0-.2255.3266A5.4136,5.4136,0,0,0,362.8562,159.1521Z"/>
                <rect class="cls-16" x="362.856" y="160.0256" width="11.0256" height="0.5832" transform="translate(736.7377 320.6344) rotate(180)"/>
                <rect class="cls-16" x="362.856" y="171.5276" width="11.0256" height="0.5832" transform="translate(736.7377 343.6384) rotate(180)"/>
              </g>
              <g>
                <path class="cls-12" d="M338.9586,159.1521v12.9626h11.0186V159.1521a5.4136,5.4136,0,0,0-.9642-3.1026,3.4383,3.4383,0,0,0-.2256-.3266,5.5115,5.5115,0,0,0-4.1212-2.0762,1.7526,1.7526,0,0,0-.2022-.0078,1.4934,1.4934,0,0,0-.1866.0078,5.5,5.5,0,0,0-3.7091,1.61,6.0055,6.0055,0,0,0-.42.4666,3.4563,3.4563,0,0,0-.2255.3266A5.4143,5.4143,0,0,0,338.9586,159.1521Z"/>
                <rect class="cls-16" x="338.9584" y="160.0256" width="11.0256" height="0.5832" transform="translate(688.9424 320.6344) rotate(180)"/>
                <rect class="cls-16" x="338.9584" y="171.5276" width="11.0256" height="0.5832" transform="translate(688.9424 343.6384) rotate(180)"/>
              </g>
            </g>
            <g>
              <g>
                <path class="cls-12" d="M386.7537,122.7394V135.702h11.0186V122.7394a5.4136,5.4136,0,0,0-.9642-3.1026,3.4383,3.4383,0,0,0-.2256-.3266,5.5115,5.5115,0,0,0-4.1212-2.0762,1.7526,1.7526,0,0,0-.2022-.0078,1.4934,1.4934,0,0,0-.1866.0078,5.5,5.5,0,0,0-3.7091,1.61,6.0055,6.0055,0,0,0-.42.4666,3.4563,3.4563,0,0,0-.2255.3266A5.4143,5.4143,0,0,0,386.7537,122.7394Z"/>
                <rect class="cls-16" x="386.7535" y="123.6129" width="11.0256" height="0.5832" transform="translate(784.5326 247.809) rotate(180)"/>
                <rect class="cls-16" x="386.7535" y="135.1149" width="11.0256" height="0.5832" transform="translate(784.5326 270.813) rotate(180)"/>
              </g>
              <g>
                <path class="cls-12" d="M362.8562,122.7394V135.702h11.0185V122.7394a5.4136,5.4136,0,0,0-.9642-3.1026,3.4378,3.4378,0,0,0-.2255-.3266,5.5115,5.5115,0,0,0-4.1213-2.0762,1.7517,1.7517,0,0,0-.2022-.0078,1.4942,1.4942,0,0,0-.1866.0078,5.5,5.5,0,0,0-3.7091,1.61,6.0043,6.0043,0,0,0-.42.4666,3.4378,3.4378,0,0,0-.2255.3266A5.4136,5.4136,0,0,0,362.8562,122.7394Z"/>
                <rect class="cls-16" x="362.856" y="123.6129" width="11.0256" height="0.5832" transform="translate(736.7377 247.809) rotate(180)"/>
                <rect class="cls-16" x="362.856" y="135.1149" width="11.0256" height="0.5832" transform="translate(736.7377 270.813) rotate(180)"/>
              </g>
              <g>
                <path class="cls-12" d="M338.9586,122.7394V135.702h11.0186V122.7394a5.4136,5.4136,0,0,0-.9642-3.1026,3.4383,3.4383,0,0,0-.2256-.3266,5.5115,5.5115,0,0,0-4.1212-2.0762,1.7526,1.7526,0,0,0-.2022-.0078,1.4934,1.4934,0,0,0-.1866.0078,5.5,5.5,0,0,0-3.7091,1.61,6.0055,6.0055,0,0,0-.42.4666,3.4563,3.4563,0,0,0-.2255.3266A5.4143,5.4143,0,0,0,338.9586,122.7394Z"/>
                <rect class="cls-16" x="338.9584" y="123.6129" width="11.0256" height="0.5832" transform="translate(688.9424 247.809) rotate(180)"/>
                <rect class="cls-16" x="338.9584" y="135.1149" width="11.0256" height="0.5832" transform="translate(688.9424 270.813) rotate(180)"/>
              </g>
            </g>
          </g>
          <g>
            <rect class="cls-14" x="78.3931" y="101.7394" width="104.5741" height="2.9455"/>
            <rect class="cls-12" x="73.2234" y="96.6366" width="109.7438" height="5.891"/>
          </g>
          <rect class="cls-15" x="81.8442" y="104.6849" width="92.6522" height="152.7964"/>
          <g>
            <rect class="cls-15" x="62.006" y="263.2285" width="120.9576" height="122.7378"/>
            <rect class="cls-15" x="313.8605" y="263.2285" width="120.9576" height="122.7378"/>
          </g>
          <rect class="cls-17" x="174.4943" y="69.1084" width="147.8355" height="183.0614"/>
          <rect class="cls-14" x="168.4255" y="272.9925" width="159.9731" height="7.9838"/>
          <rect class="cls-15" x="193.2355" y="280.9772" width="110.3527" height="104.9861"/>
          <rect class="cls-16" x="206.2011" y="284.4596" width="84.4215" height="101.5037"/>
          <rect class="cls-12" x="210.4111" y="288.265" width="9.023" height="16.4254"/>
          <rect class="cls-12" x="225.8544" y="288.265" width="45.1149" height="16.4254"/>
          <rect class="cls-12" x="210.4111" y="309.9549" width="9.023" height="66.8119"/>
          <rect class="cls-12" x="277.5041" y="288.265" width="9.023" height="16.4254"/>
          <rect class="cls-12" x="277.5041" y="309.9549" width="9.023" height="66.8119"/>
          <g>
            <rect class="cls-18" x="225.8544" y="309.9549" width="45.1149" height="76.0084"/>
            <rect class="cls-12" x="229.8939" y="313.9702" width="37.0359" height="62.7966"/>
          </g>
          <g>
            <path class="cls-19" d="M228.5718,343.85a.8088.8088,0,1,1-.8087-.8088A.8088.8088,0,0,1,228.5718,343.85Z"/>
            <path class="cls-19" d="M228.5718,350.27a.8088.8088,0,1,1-.8087-.8087A.8088.8088,0,0,1,228.5718,350.27Z"/>
            <rect class="cls-19" x="227.4449" y="344.3117" width="0.6363" height="5.9585"/>
          </g>
          <g class="cls-5">
            <polygon class="cls-20" points="266.93 313.97 266.93 329.639 229.894 357.749 229.894 331.888 253.499 313.97 266.93 313.97"/>
            <polygon class="cls-20" points="210.411 304.055 219.434 297.208 219.434 304.69 210.411 304.69 210.411 304.055"/>
            <polygon class="cls-20" points="210.411 309.955 219.434 309.955 219.434 312.048 210.411 318.898 210.411 309.955"/>
            <polygon class="cls-20" points="250.772 288.265 229.13 304.69 225.854 304.69 225.854 292.336 231.216 288.265 250.772 288.265"/>
            <polygon class="cls-20" points="219.434 288.265 219.434 288.858 210.411 295.705 210.411 288.265 219.434 288.265"/>
            <polygon class="cls-20" points="286.527 300.203 286.527 304.69 280.614 304.69 286.527 300.203"/>
            <polygon class="cls-20" points="277.504 309.955 286.527 309.955 286.527 315.049 277.504 321.896 277.504 309.955"/>
            <polygon class="cls-20" points="286.527 349.871 286.527 364.714 277.504 371.561 277.504 356.718 286.527 349.871"/>
            <polygon class="cls-20" points="219.434 341.66 219.434 356.503 210.411 363.354 210.411 348.507 219.434 341.66"/>
            <polygon class="cls-20" points="270.969 288.265 270.969 298.388 262.665 304.69 240.298 304.69 261.939 288.265 270.969 288.265"/>
            <polygon class="cls-20" points="266.93 341.393 266.93 356.274 239.93 376.767 229.894 376.767 229.894 369.5 266.93 341.393"/>
          </g>
          <text class="cls-21" transform="translate(199.986 252.1734)">H<tspan class="cls-22" x="23.3574" y="0">O</tspan><tspan class="cls-23" x="45.4902" y="0">TEL</tspan></text>
          <g>
            <path class="cls-24" d="M202.3979,252.1738v-31H209.26v12.5273h4.7676V221.1738h6.8618v31h-6.8618V238.6H209.26v13.5742Z"/>
            <path class="cls-24" d="M234.4823,252.6035a12.6159,12.6159,0,0,1-4.4033-.6817,6.5161,6.5161,0,0,1-2.8979-2.0381,8.5063,8.5063,0,0,1-1.5523-3.1884,17.2893,17.2893,0,0,1-.4765-4.3184V230.9335a17.2622,17.2622,0,0,1,.4765-4.3281,8.411,8.411,0,0,1,1.5523-3.1689,6.4768,6.4768,0,0,1,2.8979-2.02,12.7435,12.7435,0,0,1,4.4033-.6728q5.0289,0,7.2076,2.57t2.1782,7.6191v11.4434q0,5.0478-2.1782,7.6377T234.4823,252.6035Zm-1.0566-5.0664a2.3016,2.3016,0,0,0,1.0566.2246,2.4409,2.4409,0,0,0,1.0655-.2158,1.8042,1.8042,0,0,0,.6919-.542,2.5,2.5,0,0,0,.3833-.8506,5.6175,5.6175,0,0,0,.1777-.9815q.0374-.4584.0371-1.0937V229.2138q0-.6166-.0371-1.0752a5.4321,5.4321,0,0,0-.1777-.9726,2.3961,2.3961,0,0,0-.3833-.8321,1.853,1.853,0,0,0-.6919-.5322,2.4409,2.4409,0,0,0-1.0655-.2158,2.3813,2.3813,0,0,0-1.0566.2158,1.9161,1.9161,0,0,0-.6826.5234,2.1842,2.1842,0,0,0-.3736.8409,5.59,5.59,0,0,0-.1591.9629q-.0279.4307-.0279,1.0849v14.8643q0,.6547.0279,1.0937a5.5607,5.5607,0,0,0,.1591.9717,2.2882,2.2882,0,0,0,.3736.8516A1.9627,1.9627,0,0,0,233.4257,247.5371Z"/>
            <path class="cls-24" d="M250.8427,252.1738V226.2412h-4.7681v-5.0674h16.3413v5.0674H257.705v25.9326Z"/>
            <path class="cls-24" d="M265.0712,252.1738v-31h13.93v4.6738H271.914v7.666h5.4033v4.7686H271.914v9.2549h7.1611v4.6367Z"/>
            <path class="cls-24" d="M282.1786,252.1738v-31h6.8428v26.3633h7.1055v4.6367Z"/>
            <g class="cls-25">
              <polygon class="cls-26" points="215.527 250.674 215.527 237.1 207.76 237.1 207.76 250.674 203.898 250.674 203.898 222.674 207.76 222.674 207.76 235.201 215.527 235.201 215.527 222.674 219.389 222.674 219.389 250.674 215.527 250.674"/>
              <path class="cls-26" d="M234.4823,251.1035a11.2013,11.2013,0,0,1-3.8784-.5869,4.9977,4.9977,0,0,1-2.2475-1.5645,7.0687,7.0687,0,0,1-1.2759-2.6348,15.8862,15.8862,0,0,1-.4282-3.94V230.9335a15.8638,15.8638,0,0,1,.4277-3.9482,6.9536,6.9536,0,0,1,1.2729-2.6123,4.9645,4.9645,0,0,1,2.2452-1.5488,11.3462,11.3462,0,0,1,3.8842-.58c2.8765,0,4.9161.6865,6.063,2.04,1.2095,1.4278,1.8228,3.6641,1.8228,6.6494v11.4434c0,2.9863-.6143,5.2315-1.8262,6.6719C239.3954,250.4121,237.3569,251.1035,234.4823,251.1035Zm0-27.0176a3.8659,3.8659,0,0,0-1.7168.3691,3.3939,3.3939,0,0,0-1.2011.9424,3.663,3.663,0,0,0-.6519,1.4121,7.1283,7.1283,0,0,0-.1992,1.2227q-.03.4688-.0308,1.1816v14.8643q0,.7119.0308,1.1885a7.0882,7.0882,0,0,0,.2,1.2363,3.7635,3.7635,0,0,0,.6387,1.4033,3.4472,3.4472,0,0,0,1.1924.9668,3.7891,3.7891,0,0,0,1.7382.3887,3.9309,3.9309,0,0,0,1.7149-.3633,3.2926,3.2926,0,0,0,1.2475-1.001,3.985,3.985,0,0,0,.6275-1.3564,7.1842,7.1842,0,0,0,.2231-1.2451q.0426-.5127.0425-1.2178V229.2138q0-.687-.042-1.1972a6.936,6.936,0,0,0-.2256-1.2442,3.8818,3.8818,0,0,0-.6391-1.35,3.34,3.34,0,0,0-1.2383-.9756A3.9253,3.9253,0,0,0,234.4823,224.0859Z"/>
              <polygon class="cls-26" points="252.343 250.674 252.343 224.741 247.575 224.741 247.575 222.674 260.916 222.674 260.916 224.741 256.205 224.741 256.205 250.674 252.343 250.674"/>
              <polygon class="cls-26" points="266.571 250.674 266.571 222.674 277.501 222.674 277.501 224.348 270.414 224.348 270.414 235.014 275.817 235.014 275.817 236.782 270.414 236.782 270.414 249.037 277.575 249.037 277.575 250.674 266.571 250.674"/>
              <polygon class="cls-26" points="283.679 250.674 283.679 222.674 287.521 222.674 287.521 249.037 294.627 249.037 294.627 250.674 283.679 250.674"/>
            </g>
          </g>
          <g>
            <rect class="cls-27" x="174.4943" y="181.3944" width="147.8355" height="3.6952"/>
            <rect class="cls-27" x="174.4943" y="143.9702" width="147.8355" height="3.6952"/>
            <rect class="cls-27" x="174.4943" y="106.546" width="147.8355" height="3.6952"/>
            <rect class="cls-16" x="168.4195" y="179.5333" width="159.9847" height="3.7087" rx="1.375"/>
            <g>
              <g>
                <path class="cls-12" d="M199.6724,195.7413v12.9626H188.6538V195.7413a5.4136,5.4136,0,0,1,.9642-3.1026,3.4512,3.4512,0,0,1,.2256-.3266,5.512,5.512,0,0,1,4.1212-2.0762,1.7526,1.7526,0,0,1,.2022-.0078,1.4934,1.4934,0,0,1,.1866.0078,5.5,5.5,0,0,1,3.7091,1.61,5.9858,5.9858,0,0,1,.42.4665,3.45,3.45,0,0,1,.2254.3266A5.4136,5.4136,0,0,1,199.6724,195.7413Z"/>
                <rect class="cls-16" x="188.6469" y="196.6148" width="11.0257" height="0.5832"/>
                <rect class="cls-16" x="188.6469" y="208.1168" width="11.0257" height="0.5832"/>
              </g>
              <g>
                <path class="cls-12" d="M221.3732,195.7413v12.9626H210.3546V195.7413a5.4136,5.4136,0,0,1,.9643-3.1026,3.4506,3.4506,0,0,1,.2255-.3266,5.5122,5.5122,0,0,1,4.1213-2.0762,1.75,1.75,0,0,1,.2021-.0078,1.4958,1.4958,0,0,1,.1867.0078,5.5,5.5,0,0,1,3.7091,1.61,5.9846,5.9846,0,0,1,.42.4665,3.4693,3.4693,0,0,1,.2255.3266A5.4136,5.4136,0,0,1,221.3732,195.7413Z"/>
                <rect class="cls-16" x="210.3478" y="196.6148" width="11.0256" height="0.5832"/>
                <rect class="cls-16" x="210.3478" y="208.1168" width="11.0256" height="0.5832"/>
              </g>
              <g>
                <path class="cls-12" d="M243.074,195.7413v12.9626H232.0555V195.7413a5.4136,5.4136,0,0,1,.9642-3.1026,3.4506,3.4506,0,0,1,.2255-.3266,5.5124,5.5124,0,0,1,4.1213-2.0762,1.7526,1.7526,0,0,1,.2022-.0078,1.4934,1.4934,0,0,1,.1866.0078,5.5,5.5,0,0,1,3.7091,1.61,5.9846,5.9846,0,0,1,.42.4665,3.4321,3.4321,0,0,1,.2255.3266A5.4136,5.4136,0,0,1,243.074,195.7413Z"/>
                <rect class="cls-16" x="232.0486" y="196.6148" width="11.0256" height="0.5832"/>
                <rect class="cls-16" x="232.0486" y="208.1168" width="11.0256" height="0.5832"/>
              </g>
              <g>
                <path class="cls-12" d="M264.7749,195.7413v12.9626H253.7563V195.7413a5.4143,5.4143,0,0,1,.9642-3.1026,3.4512,3.4512,0,0,1,.2256-.3266,5.5122,5.5122,0,0,1,4.1212-2.0762,1.7526,1.7526,0,0,1,.2022-.0078,1.4934,1.4934,0,0,1,.1866.0078,5.5,5.5,0,0,1,3.7091,1.61,5.9858,5.9858,0,0,1,.42.4665,3.4693,3.4693,0,0,1,.2255.3266A5.4143,5.4143,0,0,1,264.7749,195.7413Z"/>
                <rect class="cls-16" x="253.7495" y="196.6148" width="11.0256" height="0.5832"/>
                <rect class="cls-16" x="253.7495" y="208.1168" width="11.0256" height="0.5832"/>
              </g>
              <g>
                <path class="cls-12" d="M286.4757,195.7413v12.9626H275.4572V195.7413a5.4136,5.4136,0,0,1,.9642-3.1026,3.4506,3.4506,0,0,1,.2255-.3266,5.5122,5.5122,0,0,1,4.1213-2.0762,1.7508,1.7508,0,0,1,.2022-.0078,1.495,1.495,0,0,1,.1866.0078,5.5,5.5,0,0,1,3.7091,1.61,5.9846,5.9846,0,0,1,.42.4665,3.4506,3.4506,0,0,1,.2255.3266A5.4136,5.4136,0,0,1,286.4757,195.7413Z"/>
                <rect class="cls-16" x="275.4503" y="196.6148" width="11.0256" height="0.5832"/>
                <rect class="cls-16" x="275.4503" y="208.1168" width="11.0256" height="0.5832"/>
              </g>
              <g>
                <path class="cls-12" d="M308.1766,195.7413v12.9626H297.158V195.7413a5.4136,5.4136,0,0,1,.9642-3.1026,3.4693,3.4693,0,0,1,.2255-.3266,5.5124,5.5124,0,0,1,4.1213-2.0762,1.7526,1.7526,0,0,1,.2022-.0078,1.4934,1.4934,0,0,1,.1866.0078,5.5,5.5,0,0,1,3.7091,1.61,5.9858,5.9858,0,0,1,.42.4665,3.45,3.45,0,0,1,.2254.3266A5.4136,5.4136,0,0,1,308.1766,195.7413Z"/>
                <rect class="cls-16" x="297.1511" y="196.6148" width="11.0257" height="0.5832"/>
                <rect class="cls-16" x="297.1511" y="208.1168" width="11.0257" height="0.5832"/>
              </g>
            </g>
          </g>
          <g>
            <rect class="cls-16" x="168.4195" y="142.1091" width="159.9847" height="3.7087" rx="1.375"/>
            <g>
              <g>
                <path class="cls-12" d="M199.6724,158.3171V171.28H188.6538V158.3171a5.414,5.414,0,0,1,.9642-3.1026,3.4512,3.4512,0,0,1,.2256-.3266,5.5116,5.5116,0,0,1,4.1212-2.0761,1.7526,1.7526,0,0,1,.2022-.0078,1.4934,1.4934,0,0,1,.1866.0078,5.5,5.5,0,0,1,3.7091,1.61,5.9858,5.9858,0,0,1,.42.4665,3.45,3.45,0,0,1,.2254.3266A5.4141,5.4141,0,0,1,199.6724,158.3171Z"/>
                <rect class="cls-16" x="188.6469" y="159.1907" width="11.0257" height="0.5831"/>
                <rect class="cls-16" x="188.6469" y="170.6926" width="11.0257" height="0.5832"/>
              </g>
              <g>
                <path class="cls-12" d="M221.3732,158.3171V171.28H210.3546V158.3171a5.4141,5.4141,0,0,1,.9643-3.1026,3.4506,3.4506,0,0,1,.2255-.3266,5.5118,5.5118,0,0,1,4.1213-2.0761,1.75,1.75,0,0,1,.2021-.0078,1.4958,1.4958,0,0,1,.1867.0078,5.5,5.5,0,0,1,3.7091,1.61,5.9846,5.9846,0,0,1,.42.4665,3.4693,3.4693,0,0,1,.2255.3266A5.414,5.414,0,0,1,221.3732,158.3171Z"/>
                <rect class="cls-16" x="210.3478" y="159.1907" width="11.0256" height="0.5831"/>
                <rect class="cls-16" x="210.3478" y="170.6926" width="11.0256" height="0.5832"/>
              </g>
              <g>
                <path class="cls-12" d="M243.074,158.3171V171.28H232.0555V158.3171a5.414,5.414,0,0,1,.9642-3.1026,3.4506,3.4506,0,0,1,.2255-.3266,5.5119,5.5119,0,0,1,4.1213-2.0761,1.7526,1.7526,0,0,1,.2022-.0078,1.4934,1.4934,0,0,1,.1866.0078,5.5,5.5,0,0,1,3.7091,1.61,5.9846,5.9846,0,0,1,.42.4665,3.4321,3.4321,0,0,1,.2255.3266A5.414,5.414,0,0,1,243.074,158.3171Z"/>
                <rect class="cls-16" x="232.0486" y="159.1907" width="11.0256" height="0.5831"/>
                <rect class="cls-16" x="232.0486" y="170.6926" width="11.0256" height="0.5832"/>
              </g>
              <g>
                <path class="cls-12" d="M264.7749,158.3171V171.28H253.7563V158.3171a5.4148,5.4148,0,0,1,.9642-3.1026,3.4512,3.4512,0,0,1,.2256-.3266,5.5117,5.5117,0,0,1,4.1212-2.0761,1.7526,1.7526,0,0,1,.2022-.0078,1.4934,1.4934,0,0,1,.1866.0078,5.4993,5.4993,0,0,1,3.7091,1.61,5.9858,5.9858,0,0,1,.42.4665,3.4693,3.4693,0,0,1,.2255.3266A5.4148,5.4148,0,0,1,264.7749,158.3171Z"/>
                <rect class="cls-16" x="253.7495" y="159.1907" width="11.0256" height="0.5831"/>
                <rect class="cls-16" x="253.7495" y="170.6926" width="11.0256" height="0.5832"/>
              </g>
              <g>
                <path class="cls-12" d="M286.4757,158.3171V171.28H275.4572V158.3171a5.414,5.414,0,0,1,.9642-3.1026,3.4506,3.4506,0,0,1,.2255-.3266,5.5118,5.5118,0,0,1,4.1213-2.0761,1.7508,1.7508,0,0,1,.2022-.0078,1.495,1.495,0,0,1,.1866.0078,5.5,5.5,0,0,1,3.7091,1.61,5.9846,5.9846,0,0,1,.42.4665,3.4506,3.4506,0,0,1,.2255.3266A5.414,5.414,0,0,1,286.4757,158.3171Z"/>
                <rect class="cls-16" x="275.4503" y="159.1907" width="11.0256" height="0.5831"/>
                <rect class="cls-16" x="275.4503" y="170.6926" width="11.0256" height="0.5832"/>
              </g>
              <g>
                <path class="cls-12" d="M308.1766,158.3171V171.28H297.158V158.3171a5.414,5.414,0,0,1,.9642-3.1026,3.4693,3.4693,0,0,1,.2255-.3266,5.5119,5.5119,0,0,1,4.1213-2.0761,1.7526,1.7526,0,0,1,.2022-.0078,1.4934,1.4934,0,0,1,.1866.0078,5.5,5.5,0,0,1,3.7091,1.61,5.9858,5.9858,0,0,1,.42.4665,3.45,3.45,0,0,1,.2254.3266A5.4141,5.4141,0,0,1,308.1766,158.3171Z"/>
                <rect class="cls-16" x="297.1511" y="159.1907" width="11.0257" height="0.5831"/>
                <rect class="cls-16" x="297.1511" y="170.6926" width="11.0257" height="0.5832"/>
              </g>
            </g>
          </g>
          <g>
            <rect class="cls-16" x="168.4195" y="104.6849" width="159.9847" height="3.7087" rx="1.375"/>
            <g>
              <g>
                <path class="cls-12" d="M199.6724,120.893v12.9626H188.6538V120.893a5.4141,5.4141,0,0,1,.9642-3.1027,3.45,3.45,0,0,1,.2256-.3265,5.5113,5.5113,0,0,1,4.1212-2.0762,1.7526,1.7526,0,0,1,.2022-.0078,1.4934,1.4934,0,0,1,.1866.0078,5.5,5.5,0,0,1,3.7091,1.61,6.0055,6.0055,0,0,1,.42.4666,3.4483,3.4483,0,0,1,.2254.3265A5.4142,5.4142,0,0,1,199.6724,120.893Z"/>
                <rect class="cls-16" x="188.6469" y="121.7665" width="11.0257" height="0.5832"/>
                <rect class="cls-16" x="188.6469" y="133.2685" width="11.0257" height="0.5832"/>
              </g>
              <g>
                <path class="cls-12" d="M221.3732,120.893v12.9626H210.3546V120.893a5.4142,5.4142,0,0,1,.9643-3.1027,3.4489,3.4489,0,0,1,.2255-.3265,5.5115,5.5115,0,0,1,4.1213-2.0762,1.75,1.75,0,0,1,.2021-.0078,1.4958,1.4958,0,0,1,.1867.0078,5.5,5.5,0,0,1,3.7091,1.61,6.0043,6.0043,0,0,1,.42.4666,3.4676,3.4676,0,0,1,.2255.3265A5.4141,5.4141,0,0,1,221.3732,120.893Z"/>
                <rect class="cls-16" x="210.3478" y="121.7665" width="11.0256" height="0.5832"/>
                <rect class="cls-16" x="210.3478" y="133.2685" width="11.0256" height="0.5832"/>
              </g>
              <g>
                <path class="cls-12" d="M243.074,120.893v12.9626H232.0555V120.893a5.4141,5.4141,0,0,1,.9642-3.1027,3.4489,3.4489,0,0,1,.2255-.3265,5.5117,5.5117,0,0,1,4.1213-2.0762,1.7526,1.7526,0,0,1,.2022-.0078,1.4934,1.4934,0,0,1,.1866.0078,5.5,5.5,0,0,1,3.7091,1.61,6.0043,6.0043,0,0,1,.42.4666,3.43,3.43,0,0,1,.2255.3265A5.4141,5.4141,0,0,1,243.074,120.893Z"/>
                <rect class="cls-16" x="232.0486" y="121.7665" width="11.0256" height="0.5832"/>
                <rect class="cls-16" x="232.0486" y="133.2685" width="11.0256" height="0.5832"/>
              </g>
              <g>
                <path class="cls-12" d="M264.7749,120.893v12.9626H253.7563V120.893a5.4148,5.4148,0,0,1,.9642-3.1027,3.45,3.45,0,0,1,.2256-.3265,5.5115,5.5115,0,0,1,4.1212-2.0762,1.7526,1.7526,0,0,1,.2022-.0078,1.4934,1.4934,0,0,1,.1866.0078,5.5,5.5,0,0,1,3.7091,1.61,6.0055,6.0055,0,0,1,.42.4666,3.4676,3.4676,0,0,1,.2255.3265A5.4148,5.4148,0,0,1,264.7749,120.893Z"/>
                <rect class="cls-16" x="253.7495" y="121.7665" width="11.0256" height="0.5832"/>
                <rect class="cls-16" x="253.7495" y="133.2685" width="11.0256" height="0.5832"/>
              </g>
              <g>
                <path class="cls-12" d="M286.4757,120.893v12.9626H275.4572V120.893a5.4141,5.4141,0,0,1,.9642-3.1027,3.4489,3.4489,0,0,1,.2255-.3265,5.5115,5.5115,0,0,1,4.1213-2.0762,1.7508,1.7508,0,0,1,.2022-.0078,1.495,1.495,0,0,1,.1866.0078,5.5,5.5,0,0,1,3.7091,1.61,6.0043,6.0043,0,0,1,.42.4666,3.4489,3.4489,0,0,1,.2255.3265A5.4141,5.4141,0,0,1,286.4757,120.893Z"/>
                <rect class="cls-16" x="275.4503" y="121.7665" width="11.0256" height="0.5832"/>
                <rect class="cls-16" x="275.4503" y="133.2685" width="11.0256" height="0.5832"/>
              </g>
              <g>
                <path class="cls-12" d="M308.1766,120.893v12.9626H297.158V120.893a5.4141,5.4141,0,0,1,.9642-3.1027,3.4676,3.4676,0,0,1,.2255-.3265,5.5117,5.5117,0,0,1,4.1213-2.0762,1.7526,1.7526,0,0,1,.2022-.0078,1.4934,1.4934,0,0,1,.1866.0078,5.5,5.5,0,0,1,3.7091,1.61,6.0055,6.0055,0,0,1,.42.4666,3.4483,3.4483,0,0,1,.2254.3265A5.4142,5.4142,0,0,1,308.1766,120.893Z"/>
                <rect class="cls-16" x="297.1511" y="121.7665" width="11.0257" height="0.5832"/>
                <rect class="cls-16" x="297.1511" y="133.2685" width="11.0257" height="0.5832"/>
              </g>
            </g>
          </g>
          <rect class="cls-12" x="168.4195" y="67.2608" width="159.9847" height="3.7087"/>
          <g>
            <g>
              <path class="cls-12" d="M199.6724,83.4688V96.4314H188.6538V83.4688a5.414,5.414,0,0,1,.9642-3.1026,3.4512,3.4512,0,0,1,.2256-.3266,5.512,5.512,0,0,1,4.1212-2.0762,1.7752,1.7752,0,0,1,.2022-.0077,1.5126,1.5126,0,0,1,.1866.0077,5.5,5.5,0,0,1,3.7091,1.61,5.9858,5.9858,0,0,1,.42.4665,3.45,3.45,0,0,1,.2254.3266A5.4141,5.4141,0,0,1,199.6724,83.4688Z"/>
              <rect class="cls-16" x="188.6469" y="84.3423" width="11.0257" height="0.5832"/>
              <rect class="cls-16" x="188.6469" y="95.8443" width="11.0257" height="0.5832"/>
            </g>
            <g>
              <path class="cls-12" d="M221.3732,83.4688V96.4314H210.3546V83.4688a5.4141,5.4141,0,0,1,.9643-3.1026,3.4506,3.4506,0,0,1,.2255-.3266,5.5122,5.5122,0,0,1,4.1213-2.0762,1.7726,1.7726,0,0,1,.2021-.0077,1.5151,1.5151,0,0,1,.1867.0077,5.5,5.5,0,0,1,3.7091,1.61,5.9846,5.9846,0,0,1,.42.4665,3.4693,3.4693,0,0,1,.2255.3266A5.414,5.414,0,0,1,221.3732,83.4688Z"/>
              <rect class="cls-16" x="210.3478" y="84.3423" width="11.0256" height="0.5832"/>
              <rect class="cls-16" x="210.3478" y="95.8443" width="11.0256" height="0.5832"/>
            </g>
            <g>
              <path class="cls-12" d="M243.074,83.4688V96.4314H232.0555V83.4688a5.414,5.414,0,0,1,.9642-3.1026,3.4506,3.4506,0,0,1,.2255-.3266,5.5124,5.5124,0,0,1,4.1213-2.0762,1.7752,1.7752,0,0,1,.2022-.0077,1.5126,1.5126,0,0,1,.1866.0077,5.5,5.5,0,0,1,3.7091,1.61,5.9846,5.9846,0,0,1,.42.4665,3.4321,3.4321,0,0,1,.2255.3266A5.414,5.414,0,0,1,243.074,83.4688Z"/>
              <rect class="cls-16" x="232.0486" y="84.3423" width="11.0256" height="0.5832"/>
              <rect class="cls-16" x="232.0486" y="95.8443" width="11.0256" height="0.5832"/>
            </g>
            <g>
              <path class="cls-12" d="M264.7749,83.4688V96.4314H253.7563V83.4688a5.4148,5.4148,0,0,1,.9642-3.1026,3.4512,3.4512,0,0,1,.2256-.3266,5.5122,5.5122,0,0,1,4.1212-2.0762,1.7752,1.7752,0,0,1,.2022-.0077,1.5126,1.5126,0,0,1,.1866.0077,5.5,5.5,0,0,1,3.7091,1.61,5.9858,5.9858,0,0,1,.42.4665,3.4693,3.4693,0,0,1,.2255.3266A5.4148,5.4148,0,0,1,264.7749,83.4688Z"/>
              <rect class="cls-16" x="253.7495" y="84.3423" width="11.0256" height="0.5832"/>
              <rect class="cls-16" x="253.7495" y="95.8443" width="11.0256" height="0.5832"/>
            </g>
            <g>
              <path class="cls-12" d="M286.4757,83.4688V96.4314H275.4572V83.4688a5.414,5.414,0,0,1,.9642-3.1026,3.4506,3.4506,0,0,1,.2255-.3266,5.5122,5.5122,0,0,1,4.1213-2.0762,1.7734,1.7734,0,0,1,.2022-.0077,1.5142,1.5142,0,0,1,.1866.0077,5.5,5.5,0,0,1,3.7091,1.61,5.9846,5.9846,0,0,1,.42.4665,3.4506,3.4506,0,0,1,.2255.3266A5.414,5.414,0,0,1,286.4757,83.4688Z"/>
              <rect class="cls-16" x="275.4503" y="84.3423" width="11.0256" height="0.5832"/>
              <rect class="cls-16" x="275.4503" y="95.8443" width="11.0256" height="0.5832"/>
            </g>
            <g>
              <path class="cls-12" d="M308.1766,83.4688V96.4314H297.158V83.4688a5.414,5.414,0,0,1,.9642-3.1026,3.4693,3.4693,0,0,1,.2255-.3266,5.5124,5.5124,0,0,1,4.1213-2.0762,1.7752,1.7752,0,0,1,.2022-.0077,1.5126,1.5126,0,0,1,.1866.0077,5.5,5.5,0,0,1,3.7091,1.61,5.9858,5.9858,0,0,1,.42.4665,3.45,3.45,0,0,1,.2254.3266A5.4141,5.4141,0,0,1,308.1766,83.4688Z"/>
              <rect class="cls-16" x="297.1511" y="84.3423" width="11.0257" height="0.5832"/>
              <rect class="cls-16" x="297.1511" y="95.8443" width="11.0257" height="0.5832"/>
            </g>
          </g>
          <rect class="cls-28" x="62.006" y="264.0511" width="102.7782" height="2.9535"/>
          <rect class="cls-14" x="60.2101" y="262.5842" width="104.5741" height="2.9455"/>
          <rect class="cls-28" x="334.1168" y="264.0511" width="100.7013" height="2.9535"/>
          <rect class="cls-14" x="334.1201" y="262.5842" width="104.5742" height="2.9455"/>
          <rect class="cls-16" x="55.0404" y="257.4813" width="109.7438" height="5.8911"/>
          <rect class="cls-16" x="332.9682" y="257.4813" width="109.7438" height="5.8911"/>
          <g>
            <path class="cls-16" d="M92.6331,303.815h0a19.0235,19.0235,0,0,1,19.0235,19.0235v45.0658a0,0,0,0,1,0,0H73.61a0,0,0,0,1,0,0V322.8385A19.0235,19.0235,0,0,1,92.6331,303.815Z"/>
            <path class="cls-12" d="M80.6306,319.3239h40.4921a0,0,0,0,1,0,0V352.298a0,0,0,0,1,0,0H80.6306a16.487,16.487,0,0,1-16.487-16.487v0A16.487,16.487,0,0,1,80.6306,319.3239Z" transform="translate(428.4441 243.1778) rotate(90)"/>
            <rect class="cls-16" x="82.9981" y="307.9788" width="1.7967" height="59.0132"/>
            <rect class="cls-16" x="101.5108" y="308.7824" width="1.7967" height="58.2096"/>
            <rect class="cls-16" x="74.5549" y="317.9372" width="35.4167" height="2.7759"/>
          </g>
          <g>
            <path class="cls-16" d="M160.8318,367.9043h-38.047V322.8384a19.0235,19.0235,0,0,1,19.0235-19.0234h0a19.0235,19.0235,0,0,1,19.0235,19.0234Z"/>
            <path class="cls-12" d="M125.3212,364.3005V323.8084a16.487,16.487,0,0,1,16.4871-16.487h0a16.487,16.487,0,0,1,16.487,16.487v40.4921Z"/>
            <rect class="cls-16" x="132.1732" y="307.9788" width="1.7967" height="59.0132"/>
            <rect class="cls-16" x="150.6859" y="308.7824" width="1.7967" height="58.2096"/>
            <rect class="cls-16" x="124.3466" y="317.9372" width="34.2917" height="2.7759"/>
          </g>
          <g>
            <path class="cls-16" d="M372.3486,367.9043h-38.047V322.8384a19.0235,19.0235,0,0,1,19.0235-19.0234h0a19.0235,19.0235,0,0,1,19.0235,19.0234Z"/>
            <path class="cls-12" d="M336.838,364.3005V323.8084a16.487,16.487,0,0,1,16.4871-16.487h0a16.487,16.487,0,0,1,16.487,16.487v40.4921Z"/>
            <rect class="cls-16" x="343.69" y="307.9788" width="1.7967" height="59.0132"/>
            <rect class="cls-16" x="362.2027" y="308.7824" width="1.7967" height="58.2096"/>
            <rect class="cls-16" x="335.9716" y="317.9372" width="33.8405" height="2.7759"/>
          </g>
          <g>
            <path class="cls-16" d="M421.5237,367.9043h-38.047V322.8384A19.0235,19.0235,0,0,1,402.5,303.815h0a19.0235,19.0235,0,0,1,19.0235,19.0234Z"/>
            <path class="cls-12" d="M386.0132,364.3005V323.8084a16.487,16.487,0,0,1,16.487-16.487h0a16.487,16.487,0,0,1,16.4871,16.487v40.4921Z"/>
            <rect class="cls-16" x="392.8652" y="307.9788" width="1.7966" height="59.0132"/>
            <rect class="cls-16" x="411.3779" y="308.7824" width="1.7966" height="58.2096"/>
            <rect class="cls-16" x="386.0132" y="317.9372" width="33.3751" height="2.7759"/>
          </g>
          <rect class="cls-27" x="168.4255" y="272.9925" width="159.9731" height="2.9535"/>
          <rect class="cls-16" x="158.7024" y="252.173" width="179.4189" height="20.8224"/>
          <g>
            <g>
              <polygon class="cls-29" points="224.508 262.136 224.508 261.496 220.801 261.39 219.302 258.122 217.62 261.299 213.876 261.191 213.876 261.832 216.46 264.499 215.88 267.38 215.728 267.499 215.728 268.139 219.062 266.506 222.298 268.327 222.298 267.687 222.195 267.601 221.776 264.651 224.508 262.136"/>
              <polygon class="cls-13" points="220.85 260.857 224.508 261.496 221.776 264.011 222.299 267.687 219.062 265.866 215.728 267.499 216.46 263.858 213.876 261.192 217.564 260.763 219.302 257.481 220.85 260.857"/>
            </g>
            <g>
              <polygon class="cls-29" points="239.118 262.136 239.118 261.496 235.411 261.39 233.912 258.122 232.23 261.299 228.486 261.191 228.486 261.832 231.07 264.499 230.49 267.38 230.338 267.499 230.338 268.139 233.672 266.506 236.909 268.327 236.909 267.687 236.805 267.601 236.386 264.651 239.118 262.136"/>
              <polygon class="cls-13" points="235.46 260.857 239.118 261.496 236.386 264.011 236.909 267.687 233.672 265.866 230.338 267.499 231.07 263.858 228.486 261.192 232.174 260.763 233.912 257.481 235.46 260.857"/>
            </g>
            <g>
              <polygon class="cls-29" points="253.728 262.136 253.728 261.496 250.021 261.39 248.522 258.122 246.84 261.299 243.096 261.191 243.096 261.832 245.68 264.499 245.1 267.38 244.948 267.499 244.948 268.139 248.282 266.506 251.519 268.327 251.519 267.687 251.415 267.601 250.996 264.651 253.728 262.136"/>
              <polygon class="cls-13" points="250.07 260.857 253.728 261.496 250.996 264.011 251.519 267.687 248.283 265.866 244.948 267.499 245.68 263.858 243.096 261.192 246.784 260.763 248.522 257.481 250.07 260.857"/>
            </g>
            <g>
              <polygon class="cls-29" points="268.338 262.136 268.338 261.496 264.631 261.39 263.132 258.122 261.45 261.299 257.706 261.191 257.706 261.832 260.29 264.499 259.71 267.38 259.558 267.499 259.558 268.139 262.893 266.506 266.129 268.327 266.129 267.687 266.025 267.601 265.606 264.651 268.338 262.136"/>
              <polygon class="cls-13" points="264.68 260.857 268.338 261.496 265.606 264.011 266.129 267.687 262.893 265.866 259.558 267.499 260.29 263.858 257.706 261.192 261.394 260.763 263.132 257.481 264.68 260.857"/>
            </g>
            <g>
              <polygon class="cls-29" points="282.948 262.136 282.948 261.496 279.241 261.39 277.742 258.122 276.06 261.299 272.316 261.191 272.316 261.832 274.9 264.499 274.32 267.38 274.168 267.499 274.168 268.139 277.503 266.506 280.739 268.327 280.739 267.687 280.635 267.601 280.216 264.651 282.948 262.136"/>
              <polygon class="cls-13" points="279.29 260.857 282.948 261.496 280.216 264.011 280.739 267.687 277.503 265.866 274.168 267.499 274.9 263.858 272.316 261.192 276.004 260.763 277.742 257.481 279.29 260.857"/>
            </g>
          </g>
          <path class="cls-28" d="M120.5979,285.6246h8.5794a1.6667,1.6667,0,0,1,1.6667,1.6667v1.1621a1.6666,1.6666,0,0,1-1.6666,1.6666h-8.5795a1.6667,1.6667,0,0,1-1.6667-1.6667v-1.162a1.6667,1.6667,0,0,1,1.6667-1.6667Z"/>
          <path class="cls-28" d="M109.1356,247.3906H115.22a1.1821,1.1821,0,0,1,1.1821,1.1821v.8242a1.182,1.182,0,0,1-1.182,1.182h-6.085a1.182,1.182,0,0,1-1.182-1.182v-.8242A1.1821,1.1821,0,0,1,109.1356,247.3906Z"/>
          <path class="cls-28" d="M89.5907,216.62h6.0849a1.1821,1.1821,0,0,1,1.1821,1.1821v.8242a1.182,1.182,0,0,1-1.182,1.182h-6.085a1.1821,1.1821,0,0,1-1.1821-1.1821v-.8241A1.1821,1.1821,0,0,1,89.5907,216.62Z"/>
          <path class="cls-28" d="M151.8679,218.2144h6.085a1.1821,1.1821,0,0,1,1.1821,1.1821v.8241a1.1821,1.1821,0,0,1-1.1821,1.1821H151.868a1.1821,1.1821,0,0,1-1.1821-1.1821v-.8242A1.182,1.182,0,0,1,151.8679,218.2144Z"/>
          <rect class="cls-28" x="134.8034" y="181.6478" width="8.4491" height="3.1883" rx="1.1821"/>
          <path class="cls-28" d="M125.7225,175.8776h6.0848a1.1821,1.1821,0,0,1,1.1821,1.1821v.8242a1.182,1.182,0,0,1-1.182,1.182h-6.085a1.182,1.182,0,0,1-1.182-1.182V177.06A1.1821,1.1821,0,0,1,125.7225,175.8776Z"/>
          <path class="cls-28" d="M97.6,145.8178h6.0848A1.1821,1.1821,0,0,1,104.8673,147v.8241a1.1821,1.1821,0,0,1-1.1821,1.1821H97.6a1.182,1.182,0,0,1-1.182-1.182V147A1.1821,1.1821,0,0,1,97.6,145.8178Z"/>
          <rect class="cls-28" x="105.6878" y="142.1091" width="8.449" height="3.1883" rx="1.1821"/>
          <path class="cls-28" d="M152.8179,138.9208h6.0848a1.1821,1.1821,0,0,1,1.1821,1.1821v.8242a1.182,1.182,0,0,1-1.182,1.182h-6.085a1.182,1.182,0,0,1-1.182-1.182v-.8242a1.1821,1.1821,0,0,1,1.1821-1.1821Z"/>
          <path class="cls-28" d="M360.0585,109.3614h6.085a1.1821,1.1821,0,0,1,1.1821,1.1821v.8241a1.1821,1.1821,0,0,1-1.1821,1.1821h-6.0849a1.1821,1.1821,0,0,1-1.1821-1.1821v-.8242A1.182,1.182,0,0,1,360.0585,109.3614Z"/>
          <path class="cls-28" d="M371.0723,109.3614h6.085a1.182,1.182,0,0,1,1.182,1.182v.8242a1.1821,1.1821,0,0,1-1.1821,1.1821h-6.0848a1.1821,1.1821,0,0,1-1.1821-1.1821v-.8242A1.182,1.182,0,0,1,371.0723,109.3614Z"/>
          <path class="cls-28" d="M380.625,124.87h6.085a1.182,1.182,0,0,1,1.182,1.182v.8242a1.1821,1.1821,0,0,1-1.1821,1.1821h-6.0848a1.1821,1.1821,0,0,1-1.1821-1.1821v-.8242A1.182,1.182,0,0,1,380.625,124.87Z"/>
          <path class="cls-28" d="M353.0908,139.48h6.0849a1.182,1.182,0,0,1,1.182,1.182v.8243a1.182,1.182,0,0,1-1.182,1.182h-6.0849a1.1821,1.1821,0,0,1-1.1821-1.1821v-.8241A1.1821,1.1821,0,0,1,353.0908,139.48Z"/>
          <path class="cls-28" d="M343.4859,144.2236h6.0849a1.1821,1.1821,0,0,1,1.1821,1.1821v.8241a1.1821,1.1821,0,0,1-1.1821,1.1821h-6.0849a1.182,1.182,0,0,1-1.182-1.182v-.8243A1.182,1.182,0,0,1,343.4859,144.2236Z"/>
          <path class="cls-28" d="M381.1348,151.21h6.085a1.1821,1.1821,0,0,1,1.1821,1.1821v.8241a1.1821,1.1821,0,0,1-1.1821,1.1821h-6.0849a1.1821,1.1821,0,0,1-1.1821-1.1821v-.8242A1.182,1.182,0,0,1,381.1348,151.21Z"/>
          <path class="cls-28" d="M399.4537,179.7934h6.0849a1.182,1.182,0,0,1,1.182,1.182V181.8a1.1821,1.1821,0,0,1-1.1821,1.1821h-6.0848a1.1821,1.1821,0,0,1-1.1821-1.1821v-.8242A1.1821,1.1821,0,0,1,399.4537,179.7934Z"/>
          <path class="cls-28" d="M359.4447,178.1993H365.53a1.182,1.182,0,0,1,1.182,1.182v.8242a1.1821,1.1821,0,0,1-1.1821,1.1821h-6.0848a1.1821,1.1821,0,0,1-1.1821-1.1821v-.8241A1.1821,1.1821,0,0,1,359.4447,178.1993Z"/>
          <path class="cls-28" d="M353.2635,183.242h6.0848a1.1821,1.1821,0,0,1,1.1821,1.1821v.8242a1.182,1.182,0,0,1-1.182,1.182h-6.085a1.182,1.182,0,0,1-1.182-1.182v-.8242a1.1821,1.1821,0,0,1,1.1821-1.1821Z"/>
          <path class="cls-28" d="M359.4447,215.0261H365.53a1.182,1.182,0,0,1,1.182,1.182v.8242a1.1821,1.1821,0,0,1-1.1821,1.1821h-6.0848a1.1821,1.1821,0,0,1-1.1821-1.1821v-.8241A1.1821,1.1821,0,0,1,359.4447,215.0261Z"/>
          <path class="cls-28" d="M378.4021,219.5215h6.0848a1.1821,1.1821,0,0,1,1.1821,1.1821v.8241a1.1821,1.1821,0,0,1-1.1821,1.1821H378.402a1.182,1.182,0,0,1-1.182-1.182v-.8242A1.1821,1.1821,0,0,1,378.4021,219.5215Z"/>
          <rect class="cls-28" x="396.4378" y="249.6165" width="8.4491" height="3.1884" rx="1.1821"/>
          <path class="cls-28" d="M349.6315,248.9847h6.0849a1.1821,1.1821,0,0,1,1.1821,1.1821v.8241a1.1821,1.1821,0,0,1-1.1821,1.1821h-6.0849a1.182,1.182,0,0,1-1.182-1.182v-.8243A1.182,1.182,0,0,1,349.6315,248.9847Z"/>
          <path class="cls-28" d="M129.947,111.1825h6.0848a1.1821,1.1821,0,0,1,1.1821,1.1821v.8241a1.1821,1.1821,0,0,1-1.1821,1.1821h-6.0849a1.182,1.182,0,0,1-1.182-1.182v-.8242A1.1821,1.1821,0,0,1,129.947,111.1825Z"/>
          <path class="cls-28" d="M119.4446,108.3936h6.085a1.182,1.182,0,0,1,1.182,1.182V110.4a1.1821,1.1821,0,0,1-1.1821,1.1821h-6.0849a1.182,1.182,0,0,1-1.182-1.182v-.8243a1.182,1.182,0,0,1,1.182-1.182Z"/>
          <path class="cls-28" d="M118.4074,251.38h6.0849a1.182,1.182,0,0,1,1.182,1.182v.8244a1.182,1.182,0,0,1-1.182,1.182h-6.0849a1.1821,1.1821,0,0,1-1.1821-1.1821v-.8242a1.1821,1.1821,0,0,1,1.1821-1.1821Z"/>
          <path class="cls-28" d="M133.2984,239.8046h6.0849a1.182,1.182,0,0,1,1.182,1.182v.8242a1.1821,1.1821,0,0,1-1.1821,1.1821h-6.0848a1.1821,1.1821,0,0,1-1.1821-1.1821v-.8241A1.1821,1.1821,0,0,1,133.2984,239.8046Z"/>
          <path class="cls-28" d="M128.7819,291.581h8.5795a1.6666,1.6666,0,0,1,1.6666,1.6666V294.41a1.6666,1.6666,0,0,1-1.6666,1.6666h-8.5795a1.6667,1.6667,0,0,1-1.6667-1.6667v-1.162A1.6667,1.6667,0,0,1,128.7819,291.581Z"/>
          <path class="cls-28" d="M168.9033,319.6488h8.5795a1.6666,1.6666,0,0,1,1.6666,1.6666v1.1621a1.6667,1.6667,0,0,1-1.6667,1.6667h-8.5794a1.6667,1.6667,0,0,1-1.6667-1.6667v-1.162A1.6667,1.6667,0,0,1,168.9033,319.6488Z"/>
          <path class="cls-28" d="M69.32,301.5673h8.58a1.6667,1.6667,0,0,1,1.6667,1.6667v1.162a1.6666,1.6666,0,0,1-1.6666,1.6666H69.32a1.6666,1.6666,0,0,1-1.6666-1.6666v-1.1621A1.6666,1.6666,0,0,1,69.32,301.5673Z"/>
          <path class="cls-28" d="M116.8691,374.5191h8.5795a1.6666,1.6666,0,0,1,1.6666,1.6666v1.1622a1.6666,1.6666,0,0,1-1.6666,1.6666h-8.5795a1.6667,1.6667,0,0,1-1.6667-1.6667v-1.162a1.6667,1.6667,0,0,1,1.6667-1.6667Z"/>
          <rect class="cls-28" x="86.6768" y="270.7477" width="11.9127" height="4.4953" rx="1.6666"/>
          <path class="cls-28" d="M132.5107,374.5191H141.09a1.6667,1.6667,0,0,1,1.6667,1.6667v1.1621a1.6666,1.6666,0,0,1-1.6666,1.6666h-8.5795a1.6667,1.6667,0,0,1-1.6667-1.6667v-1.162A1.6667,1.6667,0,0,1,132.5107,374.5191Z"/>
          <path class="cls-28" d="M349.0617,286.0173h8.5795a1.6667,1.6667,0,0,1,1.6667,1.6667v1.162a1.6667,1.6667,0,0,1-1.6667,1.6667h-8.5794a1.6667,1.6667,0,0,1-1.6667-1.6667v-1.1621A1.6666,1.6666,0,0,1,349.0617,286.0173Z"/>
          <path class="cls-28" d="M357.9129,278.7295h8.5795a1.6667,1.6667,0,0,1,1.6667,1.6667v1.162a1.6667,1.6667,0,0,1-1.6667,1.6667h-8.5795a1.6666,1.6666,0,0,1-1.6666-1.6666v-1.1622A1.6666,1.6666,0,0,1,357.9129,278.7295Z"/>
          <path class="cls-28" d="M408.8848,294.23h8.5794a1.6667,1.6667,0,0,1,1.6667,1.6667v1.162a1.6667,1.6667,0,0,1-1.6667,1.6667h-8.5795a1.6666,1.6666,0,0,1-1.6666-1.6666v-1.1621A1.6667,1.6667,0,0,1,408.8848,294.23Z"/>
          <path class="cls-28" d="M377.594,372.2714h8.5794a1.6667,1.6667,0,0,1,1.6667,1.6667V375.1a1.6666,1.6666,0,0,1-1.6666,1.6666H377.594a1.6667,1.6667,0,0,1-1.6667-1.6667v-1.162A1.6667,1.6667,0,0,1,377.594,372.2714Z"/>
          <path class="cls-28" d="M390.3721,379.0145h8.5794a1.6667,1.6667,0,0,1,1.6667,1.6667v1.1621a1.6666,1.6666,0,0,1-1.6666,1.6666h-8.58a1.6666,1.6666,0,0,1-1.6666-1.6666v-1.1621A1.6667,1.6667,0,0,1,390.3721,379.0145Z"/>
          <rect class="cls-17" x="174.4964" y="280.9772" width="18.7391" height="104.9861"/>
          <rect class="cls-17" x="303.5882" y="280.9772" width="18.7391" height="104.9861"/>
          <g>
            <g>
              <g>
                <path class="cls-12" d="M109.7853,231.9775V244.94H98.7668V231.9775a5.4141,5.4141,0,0,1,.9642-3.1027,3.4489,3.4489,0,0,1,.2255-.3265,5.5117,5.5117,0,0,1,4.1213-2.0762,1.7526,1.7526,0,0,1,.2022-.0078,1.4934,1.4934,0,0,1,.1866.0078,5.5,5.5,0,0,1,3.7091,1.61,5.984,5.984,0,0,1,.42.4666,3.43,3.43,0,0,1,.2255.3265A5.4141,5.4141,0,0,1,109.7853,231.9775Z"/>
                <rect class="cls-16" x="98.7599" y="232.851" width="11.0256" height="0.5832"/>
                <rect class="cls-16" x="98.7599" y="244.353" width="11.0256" height="0.5832"/>
              </g>
              <g>
                <path class="cls-12" d="M133.6829,231.9775V244.94H122.6643V231.9775a5.4142,5.4142,0,0,1,.9643-3.1027,3.4489,3.4489,0,0,1,.2255-.3265,5.5115,5.5115,0,0,1,4.1212-2.0762,1.7526,1.7526,0,0,1,.2022-.0078,1.4934,1.4934,0,0,1,.1866.0078,5.5,5.5,0,0,1,3.7092,1.61,6.0043,6.0043,0,0,1,.42.4666,3.4676,3.4676,0,0,1,.2255.3265A5.4141,5.4141,0,0,1,133.6829,231.9775Z"/>
                <rect class="cls-16" x="122.6575" y="232.851" width="11.0256" height="0.5832"/>
                <rect class="cls-16" x="122.6575" y="244.353" width="11.0256" height="0.5832"/>
              </g>
              <g>
                <path class="cls-12" d="M157.58,231.9775V244.94H146.5619V231.9775a5.4141,5.4141,0,0,1,.9642-3.1027,3.4676,3.4676,0,0,1,.2255-.3265,5.5117,5.5117,0,0,1,4.1213-2.0762,1.7526,1.7526,0,0,1,.2022-.0078,1.4934,1.4934,0,0,1,.1866.0078,5.5,5.5,0,0,1,3.7091,1.61,5.984,5.984,0,0,1,.42.4666,3.43,3.43,0,0,1,.2255.3265A5.4141,5.4141,0,0,1,157.58,231.9775Z"/>
                <rect class="cls-16" x="146.555" y="232.851" width="11.0256" height="0.5832"/>
                <rect class="cls-16" x="146.555" y="244.353" width="11.0256" height="0.5832"/>
              </g>
            </g>
            <g>
              <g>
                <path class="cls-12" d="M109.7853,195.5648v12.9626H98.7668V195.5648a5.4141,5.4141,0,0,1,.9642-3.1027,3.4489,3.4489,0,0,1,.2255-.3265,5.5117,5.5117,0,0,1,4.1213-2.0762,1.7526,1.7526,0,0,1,.2022-.0078,1.4934,1.4934,0,0,1,.1866.0078,5.5,5.5,0,0,1,3.7091,1.61,5.984,5.984,0,0,1,.42.4666,3.43,3.43,0,0,1,.2255.3265A5.4141,5.4141,0,0,1,109.7853,195.5648Z"/>
                <rect class="cls-16" x="98.7599" y="196.4383" width="11.0256" height="0.5832"/>
                <rect class="cls-16" x="98.7599" y="207.9403" width="11.0256" height="0.5832"/>
              </g>
              <g>
                <path class="cls-12" d="M133.6829,195.5648v12.9626H122.6643V195.5648a5.4142,5.4142,0,0,1,.9643-3.1027,3.4489,3.4489,0,0,1,.2255-.3265,5.5115,5.5115,0,0,1,4.1212-2.0762,1.7526,1.7526,0,0,1,.2022-.0078,1.4934,1.4934,0,0,1,.1866.0078,5.5007,5.5007,0,0,1,3.7092,1.61,6.0043,6.0043,0,0,1,.42.4666,3.4676,3.4676,0,0,1,.2255.3265A5.4141,5.4141,0,0,1,133.6829,195.5648Z"/>
                <rect class="cls-16" x="122.6575" y="196.4383" width="11.0256" height="0.5832"/>
                <rect class="cls-16" x="122.6575" y="207.9403" width="11.0256" height="0.5832"/>
              </g>
              <g>
                <path class="cls-12" d="M157.58,195.5648v12.9626H146.5619V195.5648a5.4141,5.4141,0,0,1,.9642-3.1027,3.4676,3.4676,0,0,1,.2255-.3265,5.5117,5.5117,0,0,1,4.1213-2.0762,1.7526,1.7526,0,0,1,.2022-.0078,1.4934,1.4934,0,0,1,.1866.0078,5.5,5.5,0,0,1,3.7091,1.61,5.984,5.984,0,0,1,.42.4666,3.43,3.43,0,0,1,.2255.3265A5.4141,5.4141,0,0,1,157.58,195.5648Z"/>
                <rect class="cls-16" x="146.555" y="196.4383" width="11.0256" height="0.5832"/>
                <rect class="cls-16" x="146.555" y="207.9403" width="11.0256" height="0.5832"/>
              </g>
            </g>
            <g>
              <g>
                <path class="cls-12" d="M109.7853,159.1521v12.9626H98.7668V159.1521a5.4136,5.4136,0,0,1,.9642-3.1026,3.4378,3.4378,0,0,1,.2255-.3266,5.5117,5.5117,0,0,1,4.1213-2.0762,1.7526,1.7526,0,0,1,.2022-.0078,1.4934,1.4934,0,0,1,.1866.0078,5.5,5.5,0,0,1,3.7091,1.61,5.984,5.984,0,0,1,.42.4666,3.4194,3.4194,0,0,1,.2255.3266A5.4136,5.4136,0,0,1,109.7853,159.1521Z"/>
                <rect class="cls-16" x="98.7599" y="160.0256" width="11.0256" height="0.5832"/>
                <rect class="cls-16" x="98.7599" y="171.5276" width="11.0256" height="0.5832"/>
              </g>
              <g>
                <path class="cls-12" d="M133.6829,159.1521v12.9626H122.6643V159.1521a5.4136,5.4136,0,0,1,.9643-3.1026,3.4378,3.4378,0,0,1,.2255-.3266,5.5115,5.5115,0,0,1,4.1212-2.0762,1.7526,1.7526,0,0,1,.2022-.0078,1.4934,1.4934,0,0,1,.1866.0078,5.5007,5.5007,0,0,1,3.7092,1.61,6.0043,6.0043,0,0,1,.42.4666,3.4563,3.4563,0,0,1,.2255.3266A5.4136,5.4136,0,0,1,133.6829,159.1521Z"/>
                <rect class="cls-16" x="122.6575" y="160.0256" width="11.0256" height="0.5832"/>
                <rect class="cls-16" x="122.6575" y="171.5276" width="11.0256" height="0.5832"/>
              </g>
              <g>
                <path class="cls-12" d="M157.58,159.1521v12.9626H146.5619V159.1521a5.4136,5.4136,0,0,1,.9642-3.1026,3.4563,3.4563,0,0,1,.2255-.3266,5.5117,5.5117,0,0,1,4.1213-2.0762,1.7526,1.7526,0,0,1,.2022-.0078,1.4934,1.4934,0,0,1,.1866.0078,5.5,5.5,0,0,1,3.7091,1.61,5.984,5.984,0,0,1,.42.4666,3.4194,3.4194,0,0,1,.2255.3266A5.4136,5.4136,0,0,1,157.58,159.1521Z"/>
                <rect class="cls-16" x="146.555" y="160.0256" width="11.0256" height="0.5832"/>
                <rect class="cls-16" x="146.555" y="171.5276" width="11.0256" height="0.5832"/>
              </g>
            </g>
            <g>
              <g>
                <path class="cls-12" d="M109.7853,122.7394V135.702H98.7668V122.7394a5.4136,5.4136,0,0,1,.9642-3.1026,3.4378,3.4378,0,0,1,.2255-.3266,5.5117,5.5117,0,0,1,4.1213-2.0762,1.7526,1.7526,0,0,1,.2022-.0078,1.4934,1.4934,0,0,1,.1866.0078,5.5,5.5,0,0,1,3.7091,1.61,5.984,5.984,0,0,1,.42.4666,3.4194,3.4194,0,0,1,.2255.3266A5.4136,5.4136,0,0,1,109.7853,122.7394Z"/>
                <rect class="cls-16" x="98.7599" y="123.6129" width="11.0256" height="0.5832"/>
                <rect class="cls-16" x="98.7599" y="135.1149" width="11.0256" height="0.5832"/>
              </g>
              <g>
                <path class="cls-12" d="M133.6829,122.7394V135.702H122.6643V122.7394a5.4136,5.4136,0,0,1,.9643-3.1026,3.4378,3.4378,0,0,1,.2255-.3266,5.5115,5.5115,0,0,1,4.1212-2.0762,1.7526,1.7526,0,0,1,.2022-.0078,1.4934,1.4934,0,0,1,.1866.0078,5.5007,5.5007,0,0,1,3.7092,1.61,6.0043,6.0043,0,0,1,.42.4666,3.4563,3.4563,0,0,1,.2255.3266A5.4136,5.4136,0,0,1,133.6829,122.7394Z"/>
                <rect class="cls-16" x="122.6575" y="123.6129" width="11.0256" height="0.5832"/>
                <rect class="cls-16" x="122.6575" y="135.1149" width="11.0256" height="0.5832"/>
              </g>
              <g>
                <path class="cls-12" d="M157.58,122.7394V135.702H146.5619V122.7394a5.4136,5.4136,0,0,1,.9642-3.1026,3.4563,3.4563,0,0,1,.2255-.3266,5.5117,5.5117,0,0,1,4.1213-2.0762,1.7526,1.7526,0,0,1,.2022-.0078,1.4934,1.4934,0,0,1,.1866.0078,5.5,5.5,0,0,1,3.7091,1.61,5.984,5.984,0,0,1,.42.4666,3.4194,3.4194,0,0,1,.2255.3266A5.4136,5.4136,0,0,1,157.58,122.7394Z"/>
                <rect class="cls-16" x="146.555" y="123.6129" width="11.0256" height="0.5832"/>
                <rect class="cls-16" x="146.555" y="135.1149" width="11.0256" height="0.5832"/>
              </g>
            </g>
          </g>
          <rect class="cls-12" x="32.6196" y="385.9633" width="438.9753" height="2.1686"/>
          <g>
            <rect class="cls-13" x="453.0514" y="360.7162" width="6.0688" height="25.2471"/>
            <line class="cls-30" x1="456.0858" y1="364.3005" x2="456.0858" y2="280.5953"/>
            <polyline class="cls-30" points="446.393 294.23 446.393 287.872 465.779 287.872 465.779 294.23"/>
            <g>
              <path class="cls-16" d="M470.1058,298.38a4.3268,4.3268,0,1,1-4.3268-4.3268A4.3269,4.3269,0,0,1,470.1058,298.38Z"/>
              <path class="cls-31" d="M467.163,297.1682a2.3146,2.3146,0,1,1-2.3145-2.3146A2.3145,2.3145,0,0,1,467.163,297.1682Z"/>
              <path class="cls-32" d="M470.1115,298.3735a4.33,4.33,0,0,1-7.849,2.5219,4.32,4.32,0,0,0,6.8375-3.52,4.2429,4.2429,0,0,0-.8227-2.5219A4.2861,4.2861,0,0,1,470.1115,298.3735Z"/>
            </g>
            <g>
              <path class="cls-16" d="M450.7166,298.38a4.3268,4.3268,0,1,1-4.3268-4.3268A4.3269,4.3269,0,0,1,450.7166,298.38Z"/>
              <path class="cls-31" d="M447.7738,297.1682a2.3146,2.3146,0,1,1-2.3146-2.3146A2.3146,2.3146,0,0,1,447.7738,297.1682Z"/>
              <path class="cls-32" d="M450.7223,298.3735a4.33,4.33,0,0,1-7.849,2.5219,4.32,4.32,0,0,0,6.8375-3.52,4.2429,4.2429,0,0,0-.8227-2.5219A4.2861,4.2861,0,0,1,450.7223,298.3735Z"/>
            </g>
            <circle class="cls-13" cx="456.128" cy="279.3732" r="1.8122"/>
          </g>
          <g>
            <rect class="cls-13" x="38.3367" y="360.7162" width="6.0688" height="25.2471"/>
            <line class="cls-30" x1="41.3711" y1="364.3005" x2="41.3711" y2="280.5953"/>
            <polyline class="cls-30" points="31.678 294.23 31.678 287.872 51.064 287.872 51.064 294.23"/>
            <g>
              <path class="cls-16" d="M55.3911,298.38a4.3268,4.3268,0,1,1-4.3268-4.3268A4.3269,4.3269,0,0,1,55.3911,298.38Z"/>
              <path class="cls-31" d="M52.4483,297.1682a2.3146,2.3146,0,1,1-2.3145-2.3146A2.3145,2.3145,0,0,1,52.4483,297.1682Z"/>
              <path class="cls-32" d="M55.3968,298.3735a4.33,4.33,0,0,1-7.849,2.5219,4.32,4.32,0,0,0,6.8375-3.52,4.2429,4.2429,0,0,0-.8227-2.5219A4.2861,4.2861,0,0,1,55.3968,298.3735Z"/>
            </g>
            <g>
              <path class="cls-16" d="M36.0019,298.38a4.3268,4.3268,0,1,1-4.3268-4.3268A4.3269,4.3269,0,0,1,36.0019,298.38Z"/>
              <path class="cls-31" d="M33.0591,297.1682a2.3146,2.3146,0,1,1-2.3146-2.3146A2.3146,2.3146,0,0,1,33.0591,297.1682Z"/>
              <path class="cls-32" d="M36.0076,298.3735a4.33,4.33,0,0,1-7.849,2.5219,4.32,4.32,0,0,0,6.8375-3.52,4.2429,4.2429,0,0,0-.8227-2.5219A4.2861,4.2861,0,0,1,36.0076,298.3735Z"/>
            </g>
            <circle class="cls-13" cx="41.4133" cy="279.3732" r="1.8122"/>
          </g>
        </g>
      </g>
      <g id="DESIGNED_BY_FREEPIK" data-name="DESIGNED BY FREEPIK">
        <g>
          <g>
            <g>
              <path class="cls-33" d="M259.5757,439.1381a7.4949,7.4949,0,0,0-1.1085,1.4531l-.4651-.2411a.6041.6041,0,1,0-.3344.68l.4514.2342a7.282,7.282,0,0,0-.5393,1.7438l.7465.1315a6.6012,6.6012,0,0,1,1.7919-3.4725Z"/>
              <path class="cls-33" d="M265.0634,436.8361c-.1711,0-.3407.0061-.51.0169l-.0736-.6261a.7165.7165,0,1,0-.753.0864l.0736.6244a7.5785,7.5785,0,0,0-2.06.6459l.3271.6838a6.8846,6.8846,0,0,1,2.9954-.6733,6.9719,6.9719,0,0,1,1.475.1576l.1606-.7408A7.7326,7.7326,0,0,0,265.0634,436.8361Z"/>
              <path class="cls-33" d="M271.6658,439.3833a.6034.6034,0,1,0-.6767-.5891l-.416.3631a7.6315,7.6315,0,0,0-1.4078-1.1392l-.404.6413a6.7424,6.7424,0,0,1,2.5634,2.9252l.69-.3126a7.4094,7.4094,0,0,0-.9421-1.545l.4021-.3509A.6.6,0,0,0,271.6658,439.3833Z"/>
              <path class="cls-33" d="M264.5158,447.0445c-.3858.0233-.775.0347-1.1571.0347A16.0933,16.0933,0,0,1,260.88,446.9a8.6256,8.6256,0,0,1-1.27-.292,6.1931,6.1931,0,0,0,11.338-1.3787,9.7218,9.7218,0,0,1-2.4586,1.1226A17.0121,17.0121,0,0,1,264.5158,447.0445Z"/>
              <path class="cls-33" d="M265.0634,438.3522a6.02,6.02,0,0,0-6.08,5.9435,5.857,5.857,0,0,0,.1371,1.2614c.6735.4826,2.7058.89,5.3475.7309a11.4938,11.4938,0,0,0,6.6723-2.1585c-.0056-.195-.0208-.39-.0454-.5818A6.04,6.04,0,0,0,265.0634,438.3522Zm-2.1594,6.5149a1.85,1.85,0,1,1,1.85-1.85A1.8519,1.8519,0,0,1,262.904,444.8671Zm4.7374-.9083a1.36,1.36,0,1,1,1.3605-1.36A1.3618,1.3618,0,0,1,267.6414,443.9588Z"/>
            </g>
            <path class="cls-33" d="M281.0668,440.2194a2.8151,2.8151,0,0,0-1.3824-.2373c-.5507.0685-.8437.3405-.8437,1.0066v.8659h2.228v1.7172h-2.228v5.4548h-1.9318v-5.4548h-1.34v-1.7172h1.34v-.8882a2.4616,2.4616,0,0,1,2.5683-2.7828,3.9385,3.9385,0,0,1,1.59.3081Z"/>
            <path class="cls-33" d="M285.7694,443.5514a3.2143,3.2143,0,0,0-.5262-.0462,1.4344,1.4344,0,0,0-1.51,1.6135v3.9079h-1.9317v-7.172h1.8725v.7846a2.2638,2.2638,0,0,1,2.0206-.977,1.7921,1.7921,0,0,1,1.0943.3367Z"/>
            <path class="cls-33" d="M293.4367,445.43a5.5605,5.5605,0,0,1-.037.6514h-5.0848a1.7312,1.7312,0,0,0,1.8429,1.4876,2.9,2.9,0,0,0,1.8133-.6882l1.1326,1.2433a4.3527,4.3527,0,0,1-3.0568,1.0881,3.7764,3.7764,0,0,1-.0962-7.55A3.4652,3.4652,0,0,1,293.4367,445.43Zm-5.1144-.6661h3.1751a1.5955,1.5955,0,0,0-3.1751,0Z"/>
            <path class="cls-33" d="M301.09,445.43a5.5824,5.5824,0,0,1-.037.6514h-5.0848a1.731,1.731,0,0,0,1.8429,1.4876,2.9011,2.9011,0,0,0,1.8136-.6882l1.1322,1.2433a4.352,4.352,0,0,1-3.0568,1.0881,3.7764,3.7764,0,0,1-.0963-7.55A3.4653,3.4653,0,0,1,301.09,445.43Zm-5.1143-.6661h3.1751a1.5955,1.5955,0,0,0-3.1751,0Z"/>
            <path class="cls-33" d="M309.4357,445.437a3.5531,3.5531,0,0,1-3.4714,3.7747,2.6236,2.6236,0,0,1-2.1093-.9326v3.7081h-1.9243V441.8546h1.8872v.792a2.6007,2.6007,0,0,1,2.1391-.9844A3.5544,3.5544,0,0,1,309.4357,445.437Zm-5.677,0a1.8508,1.8508,0,1,0,1.843-1.9762A1.8413,1.8413,0,0,0,303.7587,445.437Z"/>
            <path class="cls-33" d="M312.5391,439.5084a1.2324,1.2324,0,1,1-1.236-1.2434A1.2259,1.2259,0,0,1,312.5391,439.5084Zm-.259,9.5182h-1.9318v-7.172H312.28Z"/>
            <path class="cls-33" d="M315.5037,444.4082l2.7015-2.5536h2.3685L317.095,445.23l3.5009,3.7969H318.22l-2.7163-2.9013v2.9013H313.572v-10.658h1.9317Z"/>
          </g>
          <g>
            <path class="cls-33" d="M183.884,448.9616v-1.0547a2.9778,2.9778,0,0,1-2.3875,1.2305c-1.8458,0-3.1492-1.4062-3.1492-3.7057,0-2.256,1.2889-3.7207,3.1492-3.7207a2.9572,2.9572,0,0,1,2.3875,1.2451v-3.7646h1.0989v9.77Zm0-1.9188V443.835a2.655,2.655,0,0,0-2.124-1.1427c-1.4207,0-2.27,1.1719-2.27,2.7394s.85,2.7243,2.27,2.7243A2.63,2.63,0,0,0,183.884,447.0428Z"/>
            <path class="cls-33" d="M186.4035,445.417a3.5379,3.5379,0,0,1,3.486-3.706c2.1387,0,3.3984,1.67,3.3984,3.7937v.2786h-5.7272a2.493,2.493,0,0,0,2.5488,2.446,3.0927,3.0927,0,0,0,2.1823-.8935l.5273.7178a3.8427,3.8427,0,0,1-2.8124,1.0838A3.5079,3.5079,0,0,1,186.4035,445.417Zm3.4716-2.7977a2.36,2.36,0,0,0-2.3144,2.3581h4.6434A2.2933,2.2933,0,0,0,189.8751,442.6193Z"/>
            <path class="cls-33" d="M194.0787,448.0241l.5712-.7908a3.2053,3.2053,0,0,0,2.3289,1.0108c1.0841,0,1.67-.5129,1.67-1.216,0-1.7135-4.38-.659-4.38-3.2812,0-1.0984.9518-2.0359,2.6363-2.0359a3.5794,3.5794,0,0,1,2.6222,1.0255l-.5129.7617a2.7548,2.7548,0,0,0-2.1093-.8936c-.9666,0-1.5673.4834-1.5673,1.1132,0,1.5525,4.38.5273,4.38,3.2811,0,1.1866-.9519,2.1385-2.783,2.1385A3.7624,3.7624,0,0,1,194.0787,448.0241Z"/>
            <path class="cls-33" d="M200.9487,440.1437a.74.74,0,1,1,1.4791,0,.74.74,0,0,1-1.4791,0Zm.19,8.8179v-7.0748h1.0989v7.0748Z"/>
            <path class="cls-33" d="M204.0537,450.778l.5564-.82a2.702,2.702,0,0,0,2.3.9669,2.0256,2.0256,0,0,0,2.27-2.124V447.79a2.955,2.955,0,0,1-2.3732,1.26c-1.8454,0-3.1492-1.377-3.1492-3.6621,0-2.27,1.289-3.6765,3.1492-3.6765a2.9311,2.9311,0,0,1,2.3732,1.2451v-1.0693h1.0985v6.87c0,2.3437-1.6406,3.076-3.3689,3.076A3.6147,3.6147,0,0,1,204.0537,450.778Zm5.1266-3.8523V443.835a2.6064,2.6064,0,0,0-2.1093-1.1427c-1.421,0-2.27,1.128-2.27,2.6952,0,1.5529.8493,2.6953,2.27,2.6953A2.6189,2.6189,0,0,0,209.18,446.9257Z"/>
            <path class="cls-33" d="M216.8849,448.9616v-4.6288c0-1.2448-.63-1.6405-1.5819-1.6405a2.73,2.73,0,0,0-2.0946,1.0989v5.17H212.11v-7.0748h1.0987v1.0254a3.5089,3.5089,0,0,1,2.5191-1.2012,2.0108,2.0108,0,0,1,2.256,2.285v4.9656Z"/>
            <path class="cls-33" d="M219.4041,445.417a3.538,3.538,0,0,1,3.4863-3.706c2.1385,0,3.3984,1.67,3.3984,3.7937v.2786h-5.7273a2.4927,2.4927,0,0,0,2.5486,2.446,3.0939,3.0939,0,0,0,2.1827-.8935l.5272.7178a3.8431,3.8431,0,0,1-2.8123,1.0838A3.5082,3.5082,0,0,1,219.4041,445.417Zm3.4717-2.7977a2.36,2.36,0,0,0-2.3143,2.3581h4.6432A2.2931,2.2931,0,0,0,222.8758,442.6193Z"/>
            <path class="cls-33" d="M232.8217,448.9616v-1.0547a2.9786,2.9786,0,0,1-2.388,1.2305c-1.8455,0-3.1492-1.4062-3.1492-3.7057,0-2.256,1.289-3.7207,3.1492-3.7207a2.9583,2.9583,0,0,1,2.388,1.2451v-3.7646H233.92v9.77Zm0-1.9188V443.835a2.6565,2.6565,0,0,0-2.124-1.1427c-1.421,0-2.27,1.1719-2.27,2.7394s.8494,2.7243,2.27,2.7243A2.6317,2.6317,0,0,0,232.8217,447.0428Z"/>
            <path class="cls-33" d="M239.1637,448.9616v-9.77h1.0984v3.7646a2.938,2.938,0,0,1,2.3879-1.2451c1.8454,0,3.1492,1.4647,3.1492,3.7207,0,2.3-1.3038,3.7057-3.1492,3.7057a2.9793,2.9793,0,0,1-2.3879-1.2305v1.0547Zm3.2077-.8056c1.4357,0,2.2855-1.1571,2.2855-2.7243s-.85-2.7394-2.2855-2.7394a2.6282,2.6282,0,0,0-2.1093,1.1427v3.2078A2.6034,2.6034,0,0,0,242.3714,448.156Z"/>
            <path class="cls-33" d="M247,450.7341a1.6846,1.6846,0,0,0,.6007.1172,1.0177,1.0177,0,0,0,1.0547-.747l.4687-1.0693-2.959-7.1482h1.1866l2.3582,5.8005,2.3437-5.8h1.201l-3.5447,8.51a2.1032,2.1032,0,0,1-2.08,1.4354,3.559,3.559,0,0,1-.8055-.1026Z"/>
          </g>
        </g>
      </g>
    </g>
  </g>
</svg>
