<svg xmlns="http://www.w3.org/2000/svg" xmlns:xlink="http://www.w3.org/1999/xlink" width="335" height="647" viewBox="0 0 335 647">
  <g id="Layer_2" data-name="Layer 2">
    <g id="Layer_1-2" data-name="Layer 1">
      <image width="633" height="355" transform="translate(0 62.12) scale(0.53)" xlink:href="operation-mindfall.png"/>
      <path d="M0,5A5,5,0,0,1,5,0H330a5,5,0,0,1,5,5V68H0Z" fill="#0a1013"/>
      <path d="M0,68H335V268H0Z" fill="none"/>
      <rect x="240" y="225" width="90" height="20" fill-opacity="0.75"/>
      <path d="M248.49,233a2.27,2.27,0,0,1-.7,1.74,3,3,0,0,1-2.13.66H244V239h-.84v-8.39h2.53a3,3,0,0,1,2.11.66A2.24,2.24,0,0,1,248.49,233Zm-2.83,1.68c1.32,0,2-.56,2-1.68a1.62,1.62,0,0,0-.47-1.27,2.15,2.15,0,0,0-1.5-.43H244v3.38Zm4.54-1.09a2.16,2.16,0,0,1,.84-1,2.83,2.83,0,0,1,1.41-.33v.87h-.23a1.86,1.86,0,0,0-2,2.14V239h-.84v-6.55h.84Zm3.39-2.4a.58.58,0,0,1-.43-.18.6.6,0,0,1-.18-.44.55.55,0,0,1,.18-.43.6.6,0,0,1,.86,0,.55.55,0,0,1,.18.43.6.6,0,0,1-.18.44A.58.58,0,0,1,253.59,231.21Zm.42,1.24V239h-.84v-6.55Zm3.62,6.65a3.14,3.14,0,0,1-1.85-.52,1.94,1.94,0,0,1-.79-1.43h.86a1.28,1.28,0,0,0,.52.9,2.06,2.06,0,0,0,1.25.34,1.61,1.61,0,0,0,1.07-.33,1,1,0,0,0,.39-.8.75.75,0,0,0-.21-.55,1.43,1.43,0,0,0-.56-.34,5.93,5.93,0,0,0-.88-.27,8.74,8.74,0,0,1-1.19-.39,2,2,0,0,1-.78-.56,1.57,1.57,0,0,1-.31-1,1.52,1.52,0,0,1,.28-.89,2.07,2.07,0,0,1,.82-.65,2.86,2.86,0,0,1,1.2-.24,2.57,2.57,0,0,1,1.7.54,1.89,1.89,0,0,1,.7,1.47H259a1.24,1.24,0,0,0-.46-.93,1.62,1.62,0,0,0-1.12-.36,1.69,1.69,0,0,0-1,.3.91.91,0,0,0-.39.75.88.88,0,0,0,.23.63,1.85,1.85,0,0,0,.58.39l.94.3a7.88,7.88,0,0,1,1.13.37,1.88,1.88,0,0,1,.72.53,1.42,1.42,0,0,1,.31.92,1.66,1.66,0,0,1-.29,1,2,2,0,0,1-.8.65A2.81,2.81,0,0,1,257.63,239.1Zm9.25-3.71c0,.29,0,.51,0,.66h-5.44a2.56,2.56,0,0,0,.36,1.27,2.11,2.11,0,0,0,.85.8,2.5,2.5,0,0,0,1.15.27,2.25,2.25,0,0,0,1.37-.4,1.81,1.81,0,0,0,.74-1.07h.89a2.8,2.8,0,0,1-1,1.58,3.12,3.12,0,0,1-2,.6,3.34,3.34,0,0,1-1.65-.41,3,3,0,0,1-1.15-1.18,3.67,3.67,0,0,1-.41-1.79,3.63,3.63,0,0,1,.41-1.78,2.8,2.8,0,0,1,1.13-1.18,3.41,3.41,0,0,1,1.67-.41,3.22,3.22,0,0,1,1.64.41,2.7,2.7,0,0,1,1.07,1.1A3.06,3.06,0,0,1,266.88,235.39Zm-.85,0a2.33,2.33,0,0,0-.3-1.24,1.89,1.89,0,0,0-.83-.78,2.5,2.5,0,0,0-1.15-.27,2.29,2.29,0,0,0-1.6.6,2.41,2.41,0,0,0-.73,1.69Zm2.69-1.75a2,2,0,0,1,.84-1,2.76,2.76,0,0,1,1.4-.33v.87h-.23a2.1,2.1,0,0,0-1.46.5,2.08,2.08,0,0,0-.55,1.64V239h-.84v-6.55h.84Zm8.3-.45h-1.53V239h-.84v-5.84h-.91v-.71h.91V232a2.06,2.06,0,0,1,.54-1.57,2.58,2.58,0,0,1,1.78-.5v.72a1.65,1.65,0,0,0-1.15.31,1.38,1.38,0,0,0-.33,1v.46H277Zm1.62.45a2,2,0,0,1,.84-1,2.76,2.76,0,0,1,1.4-.33v.87h-.23a2.12,2.12,0,0,0-1.46.5,2.08,2.08,0,0,0-.55,1.64V239h-.84v-6.55h.84Zm2.58,2.1a3.78,3.78,0,0,1,.4-1.76,2.88,2.88,0,0,1,1.11-1.18,3.19,3.19,0,0,1,1.63-.42,2.94,2.94,0,0,1,1.6.43,2.51,2.51,0,0,1,1,1.11v-1.44h.84V239H287v-1.45a2.59,2.59,0,0,1-1,1.11,2.89,2.89,0,0,1-1.61.44,3.14,3.14,0,0,1-1.61-.42,3,3,0,0,1-1.11-1.19A3.89,3.89,0,0,1,281.22,235.71Zm5.73,0a2.86,2.86,0,0,0-.33-1.39,2.2,2.2,0,0,0-.89-.92,2.3,2.3,0,0,0-1.22-.33,2.5,2.5,0,0,0-1.25.32,2.13,2.13,0,0,0-.87.91,2.92,2.92,0,0,0-.31,1.4,3.06,3.06,0,0,0,.31,1.42,2.21,2.21,0,0,0,.87.92,2.49,2.49,0,0,0,1.25.31,2.29,2.29,0,0,0,1.22-.32,2.25,2.25,0,0,0,.89-.92A2.87,2.87,0,0,0,287,235.72Zm8.51,3.28-2.7-2.94V239h-.84v-8.88h.84v5.26l2.64-2.93h1.17l-3.1,3.26L296.6,239Zm2.52-5.39a2.16,2.16,0,0,1,.84-1,2.8,2.8,0,0,1,1.41-.33v.87H300a1.86,1.86,0,0,0-2,2.14V239h-.84v-6.55H298Zm3.12,5.45a.61.61,0,0,1-.45-.18.64.64,0,0,1-.17-.44.62.62,0,0,1,.17-.44.61.61,0,0,1,.45-.18.58.58,0,0,1,.42.18.59.59,0,0,1,.18.44.6.6,0,0,1-.18.44A.58.58,0,0,1,301.1,239.06Zm3.66-7.91v-.75h2V239h-.86v-7.85Zm8.51-.09L309.93,239h-.85l3.38-7.87h-4.8v-.72h5.61Zm6.14.06H315v3.07a2.19,2.19,0,0,1,.87-.69,2.93,2.93,0,0,1,1.25-.27,2.83,2.83,0,0,1,1.61.41,2.21,2.21,0,0,1,.9,1,3.58,3.58,0,0,1,0,2.89,2.39,2.39,0,0,1-1,1.07,3.46,3.46,0,0,1-3.62-.24,2.68,2.68,0,0,1-.94-1.74h.83a1.88,1.88,0,0,0,.72,1.22,2.2,2.2,0,0,0,1.39.44,2,2,0,0,0,1.57-.62,2.4,2.4,0,0,0,.54-1.64,2.13,2.13,0,0,0-.54-1.55A2.06,2.06,0,0,0,317,234a2.34,2.34,0,0,0-1.22.32,2,2,0,0,0-.78.88h-.79v-4.77h5.17Zm2.39,6.49-1.25,3.14H320l.88-3.14Zm4.83-3.41v.71H322v-.71Z" fill="#fff"/>
      <path d="M0,250H335V642a5,5,0,0,1-5,5H5a5,5,0,0,1-5-5Z" fill="#fafafa"/>
      <path d="M92,23.22h.83c2.77,0,5.55,0,8.32,0,.62,0,.87.13,1,.8.84,6,1.73,12,2.8,18q1.35-9.35,2.71-18.72h9.93V61.91h-7.38V41H110q-1.45,10.44-2.91,20.9h-4.67q-1.47-10.55-2.93-21l-.16,0v21H92Z" fill="#fff"/>
      <path d="M132.81,23.22H139c1.46,0,1.46,0,1.75,1.42l3.39,16.5a1.37,1.37,0,0,0,.36.73V23.26h7.09V61.91h-7.63q-2-9-3.92-18.12h-.12V61.9h-7.07Z" fill="#fff"/>
      <path d="M155.11,61.91V23.29a1.85,1.85,0,0,1,.41-.07c4.09,0,8.18.06,12.26.15a16.54,16.54,0,0,1,2.86.46,3.33,3.33,0,0,1,2.78,2.87,21.61,21.61,0,0,1,.46,3.91q.08,12,0,24a23.27,23.27,0,0,1-.58,4.3,2.89,2.89,0,0,1-2.42,2.41,39.81,39.81,0,0,1-5.43.64c-3.25.11-6.51,0-9.76,0C155.51,62,155.33,61.93,155.11,61.91ZM163.3,29.5V54.68c0,.17-.05.36,0,.48s.3.5.49.53c1.39.21,1.86-.24,1.86-1.76q0-11,0-21.93a4.92,4.92,0,0,0-.15-1.59,1.68,1.68,0,0,0-.87-.87A3.88,3.88,0,0,0,163.3,29.5Z" fill="#fff"/>
      <path d="M195.46,23.25h10c1.66,12.86,3.32,25.72,5,38.71h-4.51c-.89,0-1.84.21-2.62-.74V57.15c.87-.11.88-.75.81-1.5-.29-2.92-.51-5.84-.82-8.75a30.25,30.25,0,0,0-.63-3c1.11.2,1.88.06,2.17-.91a3.51,3.51,0,0,0,0-.92c0-.37-.07-.74-.06-1.12a3.57,3.57,0,0,0-1.08-2.73c-.42-.41-1.15-1-.76-1.91.06-.13-.12-.45-.28-.56a4.18,4.18,0,0,0-1.28-.65,1.1,1.1,0,0,0-.95.23c-.43.57-.86.91-1.63.54l-.06.21.79.59c-1,.61-1.06,2-2.33,2.36a2.08,2.08,0,0,0-1.28,2.17c.06,2.52.16,5,.34,7.56a1.48,1.48,0,0,0,.84,1c.52.18.38.47.38.78,0,1.69-.15,3.39-.1,5.08.06,1.91.26,3.83.43,5.74,0,.42-.07.6-.49.6H190.5C192.16,49,193.8,36.18,195.46,23.25Z" fill="#fff"/>
      <path d="M177.22,23.26h12.95v6.21h-4.79v8h4.79v6.34h-4.85V61.93h-8.1Z" fill="#fff"/>
      <path d="M212.89,23.26H221V55.61h4.83v6.31h-13Z" fill="#fff"/>
      <path d="M242,55.62v6.27H229V23.26h8.09V55.62Z" fill="#fff"/>
      <path d="M129.22,61.93h-8V23.27h8Z" fill="#fff"/>
      <path d="M198.65,12.64a1.78,1.78,0,0,1,2.34,1,27.52,27.52,0,0,0,2.59,4V12.63h1.63V21c-1.33.34-1.54.26-2.25-.88l-2.66-4.28V21h-1.65Z" fill="#fff"/>
      <path d="M156.51,21v-8.4c1.47,0,2.92-.05,4.35,0a1.66,1.66,0,0,1,1.49,1.29,3.23,3.23,0,0,1-1.09,3.89c.24.52.48,1.05.73,1.58l.77,1.6a1.38,1.38,0,0,1-.27.08c-1.56,0-1.56,0-2.19-1.4A5,5,0,0,1,160,19a1.42,1.42,0,0,0-1.88-1.19V21Zm1.66-4.62H160c.63,0,.84-.38.84-.93s.11-1.29-.7-1.41a13,13,0,0,0-2,0Z" fill="#fff"/>
      <path d="M135.69,16.85c0,.48-.06,1-.13,1.44-.32,2.24-1.2,3-3.45,2.87S129,20.41,128.85,18a16.53,16.53,0,0,1,.22-3.51A2.1,2.1,0,0,1,131,12.62a10.44,10.44,0,0,1,2.56,0,2,2,0,0,1,1.07.45,1.89,1.89,0,0,1,.6,1c.25.9.38,1.83.56,2.74Zm-5.18,0h0a11.68,11.68,0,0,0,0,1.45c.1,1,.54,1.32,1.56,1.35s1.67-.31,1.78-1.29a15.64,15.64,0,0,0,0-2.65c-.07-1.24-.57-1.67-1.7-1.66s-1.61.45-1.7,1.68C130.48,16.07,130.51,16.45,130.51,16.82Z" fill="#fff"/>
      <path d="M188.48,16.87c.11-.79.17-1.6.34-2.38a2.26,2.26,0,0,1,2-1.9,10.68,10.68,0,0,1,2.33,0,2.19,2.19,0,0,1,2,2.1,20.78,20.78,0,0,1,0,4.39c-.2,1.51-1.24,2.08-3.14,2.08-2.43,0-3.28-.81-3.43-3.25,0-.34,0-.69-.07-1Zm1.72.09a13,13,0,0,0,.15,1.53c.16.84.58,1.12,1.58,1.12s1.58-.27,1.67-1.12a17.12,17.12,0,0,0,0-3.12c-.1-1-.62-1.36-1.66-1.35s-1.48.32-1.65,1.35A15,15,0,0,0,190.2,17Z" fill="#fff"/>
      <path d="M153.43,12.57v1.59h-2.72c-1.19,0-1.19,0-1.18,1.21,0,.21,0,.42,0,.75h3.34v1.43l-3.29.17a.77.77,0,0,0-.07.26c-.07,1.58-.06,1.58,1.54,1.58l2.1,0a.65.65,0,0,1,.21.06V21.1c-1.41,0-2.82,0-4.23,0a1.27,1.27,0,0,1-1.27-1.32c0-1.91,0-3.82,0-5.72a1.41,1.41,0,0,1,1.52-1.46C150.72,12.54,152,12.57,153.43,12.57Z" fill="#fff"/>
      <path d="M172.94,21.09a3.49,3.49,0,0,0-.56,0c-.9.15-1.5-.12-1.59-1.12-.06-.6-.41-.83-1-.74a5.23,5.23,0,0,1-.56,0c-1.41,0-1.43,0-1.85,1.33-.14.41-.32.57-.74.53s-.75,0-1.23,0c.43-1.29.83-2.5,1.24-3.71.49-1.45,1-2.9,1.49-4.33a.93.93,0,0,1,.28-.31.84.84,0,0,1,.4-.14c.48,0,1.3.06,1.39.31C171.17,15.58,172,18.29,172.94,21.09Zm-4.68-3.41h1.87c-.29-.91-.56-1.75-.89-2.83C168.86,15.93,168.58,16.77,168.26,17.68Z" fill="#fff"/>
      <path d="M140.35,17.79v3.26h-1.6V12.64c1.46,0,2.9-.05,4.34,0a1.57,1.57,0,0,1,1.5,1.45,7.18,7.18,0,0,1,.06,2.07A1.93,1.93,0,0,1,142.26,18Zm.05-1.14a9.19,9.19,0,0,0,2.44-.58c.24-.13.23-1.49,0-1.63a8.43,8.43,0,0,0-2.41-.56Z" fill="#fff"/>
      <path d="M180.67,14.12H178.4v6.93h-1.68V14.13h-2.26v-1.5h6.21Z" fill="#fff"/>
      <path d="M183.81,12.59h1.52V21h-1.52Z" fill="#fff"/>
      <path d="M200.32,56.47h1c.16,1.78.31,3.58.48,5.44h-2.58a3.57,3.57,0,0,1,.1-.94,5.55,5.55,0,0,0,.31-2.91c0-.2.19-.44.29-.66S200.16,56.83,200.32,56.47Z" fill="#fff"/>
      <path d="M202.42,37.62c.28.42.57.83.81,1.27.05.08,0,.3-.11.39a.39.39,0,0,1-.18,0,.48.48,0,0,1-.18-.06c-.32-.45-.74-.88-.63-1.49Z" fill="#fff"/>
      <path d="M40.66,429H38.42l-5.08-7.66V429H31.1V417.82h2.24l5.08,7.68v-7.68h2.24Zm9.67-7.5a4.11,4.11,0,0,1,.78,1.37,4.93,4.93,0,0,1,.29,1.7,4.55,4.55,0,0,1-.63,2.4,4.21,4.21,0,0,1-1.66,1.61,4.76,4.76,0,0,1-2.34.56,4.63,4.63,0,0,1-2.7-.81l-.61.67H42.1l1.23-1.34a4.36,4.36,0,0,1-.78-1.4,5.12,5.12,0,0,1-.27-1.69,4.69,4.69,0,0,1,.59-2.4,4.16,4.16,0,0,1,1.65-1.6,5,5,0,0,1,5.07.25l.62-.68h1.36Zm-5.78,3.07a3.46,3.46,0,0,0,.29,1.44l3.33-3.63a2.26,2.26,0,0,0-1.36-.44,2.15,2.15,0,0,0-1.62.69A2.7,2.7,0,0,0,44.55,424.57Zm4.54,0a3.38,3.38,0,0,0-.28-1.41l-3.32,3.63a2.1,2.1,0,0,0,1.28.4,2.25,2.25,0,0,0,1.14-.29,2.17,2.17,0,0,0,.86-.89A3,3,0,0,0,49.09,424.57ZM56.48,420a3.67,3.67,0,0,1,1.75.4,3.16,3.16,0,0,1,1.18,1v-1.26h2.26v8.92a4.72,4.72,0,0,1-.5,2.2,3.6,3.6,0,0,1-1.49,1.53,4.64,4.64,0,0,1-2.4.58,5.12,5.12,0,0,1-3.1-.88,3.26,3.26,0,0,1-1.36-2.4H55a1.69,1.69,0,0,0,.75,1,2.71,2.71,0,0,0,1.43.37,2.14,2.14,0,0,0,1.58-.6,2.29,2.29,0,0,0,.61-1.76v-1.37a3.53,3.53,0,0,1-2.93,1.45,3.86,3.86,0,0,1-2-.57A4.2,4.2,0,0,1,53,427a5.34,5.34,0,0,1-.53-2.41,5.25,5.25,0,0,1,.53-2.39,4,4,0,0,1,1.46-1.6A3.93,3.93,0,0,1,56.48,420Zm2.93,4.58a2.83,2.83,0,0,0-.32-1.39,2.14,2.14,0,0,0-.86-.9,2.34,2.34,0,0,0-1.17-.32,2.27,2.27,0,0,0-1.15.3,2.43,2.43,0,0,0-.87.9,2.82,2.82,0,0,0-.32,1.38,3,3,0,0,0,.32,1.4,2.49,2.49,0,0,0,.87.92,2.24,2.24,0,0,0,1.15.32,2.33,2.33,0,0,0,1.17-.31,2.3,2.3,0,0,0,.86-.89A3,3,0,0,0,59.41,424.57Zm6.68-7.41V429H63.85V417.16Zm10.46,7.22a4.54,4.54,0,0,1-.07.86H70a2.2,2.2,0,0,0,.68,1.5,2,2,0,0,0,1.45.55,1.84,1.84,0,0,0,1.78-1.07h2.41a4,4,0,0,1-1.47,2.11,4.32,4.32,0,0,1-2.67.81,4.64,4.64,0,0,1-2.3-.56A4.1,4.1,0,0,1,68.29,427a5,5,0,0,1-.56-2.4,5.08,5.08,0,0,1,.56-2.42,3.9,3.9,0,0,1,1.57-1.6,4.71,4.71,0,0,1,2.32-.56,4.58,4.58,0,0,1,2.26.55A3.79,3.79,0,0,1,76,422.09,4.6,4.6,0,0,1,76.55,424.38Zm-2.32-.64a1.74,1.74,0,0,0-.63-1.38,2.18,2.18,0,0,0-1.48-.53,2,2,0,0,0-1.41.51,2.16,2.16,0,0,0-.69,1.4Zm7.89,5.4a4.67,4.67,0,0,1-2.31-.56A4.15,4.15,0,0,1,78.2,427a5.22,5.22,0,0,1,0-4.8,4.23,4.23,0,0,1,1.65-1.6,4.67,4.67,0,0,1,2.32-.58,4.62,4.62,0,0,1,2.32.58,4,4,0,0,1,1.63,1.6,5,5,0,0,1,0,4.8,4.24,4.24,0,0,1-1.67,1.61A4.75,4.75,0,0,1,82.12,429.14Zm0-1.95a2.24,2.24,0,0,0,1.13-.29,2.19,2.19,0,0,0,.87-.89,3.06,3.06,0,0,0,.32-1.44,2.67,2.67,0,0,0-.67-1.94,2.25,2.25,0,0,0-3.24,0,2.75,2.75,0,0,0-.64,1.94,2.79,2.79,0,0,0,.63,1.95A2.1,2.1,0,0,0,82.12,427.19Zm8.51-5.68a3,3,0,0,1,1.12-1.1,3.12,3.12,0,0,1,1.6-.4v2.35h-.6a1.86,1.86,0,0,0-2.12,2.22V429H88.39v-8.86h2.24Zm3.65,3a5.13,5.13,0,0,1,.53-2.39A3.88,3.88,0,0,1,98.34,420a3.64,3.64,0,0,1,1.65.39,3.17,3.17,0,0,1,1.25,1v-4.21h2.27V429h-2.27v-1.31a3.06,3.06,0,0,1-1.17,1.05,3.6,3.6,0,0,1-1.74.4,3.84,3.84,0,0,1-2-.57A4.12,4.12,0,0,1,94.81,427,5.21,5.21,0,0,1,94.28,424.54Zm7,0a2.72,2.72,0,0,0-.32-1.39,2.14,2.14,0,0,0-.86-.9,2.33,2.33,0,0,0-2.32,0,2.41,2.41,0,0,0-.86.9,2.71,2.71,0,0,0-.32,1.38,2.87,2.87,0,0,0,.32,1.4,2.47,2.47,0,0,0,.86.92,2.29,2.29,0,0,0,2.32,0,2.3,2.3,0,0,0,.86-.89A2.88,2.88,0,0,0,101.25,424.57Z"/>
      <path d="M42,459.62a2,2,0,1,1,1.41-3.34,2,2,0,0,1,0,2.78A1.91,1.91,0,0,1,42,459.62Zm12.71-1a4.91,4.91,0,0,1,.54-2.35,3.92,3.92,0,0,1,1.49-1.58,4.09,4.09,0,0,1,2.13-.56,3.9,3.9,0,0,1,2,.49,3.43,3.43,0,0,1,1.26,1.25v-1.6h1.47V463H62.11v-1.63a3.52,3.52,0,0,1-1.29,1.28,3.89,3.89,0,0,1-2,.49,4,4,0,0,1-2.11-.57A4.09,4.09,0,0,1,55.23,461,5,5,0,0,1,54.69,458.58Zm7.42,0a3.54,3.54,0,0,0-.4-1.73,2.74,2.74,0,0,0-1.09-1.12,2.79,2.79,0,0,0-1.48-.4,2.91,2.91,0,0,0-1.49.39,2.64,2.64,0,0,0-1.07,1.12,3.5,3.5,0,0,0-.4,1.72,3.63,3.63,0,0,0,.4,1.76,2.9,2.9,0,0,0,5.13,0A3.6,3.6,0,0,0,62.11,458.6Zm3.55,0a4.94,4.94,0,0,1,.54-2.37,4,4,0,0,1,1.51-1.58,4.81,4.81,0,0,1,4.88.22A3.68,3.68,0,0,1,74,457.05H72.41a2.26,2.26,0,0,0-.88-1.27,2.7,2.7,0,0,0-1.6-.46,2.57,2.57,0,0,0-2,.86,3.45,3.45,0,0,0-.77,2.42,3.53,3.53,0,0,0,.77,2.45,2.57,2.57,0,0,0,2,.86,2.7,2.7,0,0,0,1.6-.45,2.21,2.21,0,0,0,.88-1.28H74a3.82,3.82,0,0,1-1.41,2.16,4.19,4.19,0,0,1-2.64.8,4.31,4.31,0,0,1-2.22-.56A4,4,0,0,1,66.2,461,5.06,5.06,0,0,1,65.66,458.6Zm12.2-3.17v5.17a1.25,1.25,0,0,0,.27.91,1.38,1.38,0,0,0,1,.26h1.07V463H78.84a2.64,2.64,0,0,1-1.83-.56,2.42,2.42,0,0,1-.61-1.84v-5.17H75.27v-1.2H76.4V452h1.46v2.21h2.29v1.2Zm5-2.62a1,1,0,0,1,0-2,.92.92,0,0,1,.68.29,1,1,0,0,1,0,1.41A.92.92,0,0,1,82.82,452.81Zm.71,1.42V463H82.07v-8.77ZM90,463.14a4.46,4.46,0,0,1-2.24-.56A4.11,4.11,0,0,1,86.18,461a5,5,0,0,1-.56-2.4,4.81,4.81,0,0,1,.58-2.37,4,4,0,0,1,1.6-1.58,4.82,4.82,0,0,1,4.51,0,3.94,3.94,0,0,1,1.59,1.57,4.69,4.69,0,0,1,.59,2.38,4.61,4.61,0,0,1-.61,2.4,4,4,0,0,1-1.62,1.58A4.58,4.58,0,0,1,90,463.14Zm0-1.28a3.08,3.08,0,0,0,1.47-.36,2.82,2.82,0,0,0,1.11-1.11A3.46,3.46,0,0,0,93,458.6a3.56,3.56,0,0,0-.42-1.79,2.64,2.64,0,0,0-1.08-1.09,3.09,3.09,0,0,0-2.93,0,2.6,2.6,0,0,0-1.06,1.09,4.3,4.3,0,0,0,0,3.6,2.66,2.66,0,0,0,1,1.1A3,3,0,0,0,90,461.86Zm10.84-7.79a3.55,3.55,0,0,1,2.6,1,3.7,3.7,0,0,1,1,2.78V463H103v-5a2.79,2.79,0,0,0-.66-2,2.31,2.31,0,0,0-1.79-.7,2.43,2.43,0,0,0-1.84.72,2.93,2.93,0,0,0-.67,2.09V463H96.56v-8.77H98v1.25a2.87,2.87,0,0,1,1.17-1A3.76,3.76,0,0,1,100.83,454.07ZM42,489.62a2,2,0,1,1,1.41-3.34,2,2,0,0,1,0,2.78A1.91,1.91,0,0,1,42,489.62Zm16.52,2,2.72-7.43h1.55L59.33,493h-1.7l-3.44-8.77h1.57Zm6.61-8.85a1,1,0,0,1,0-2,.88.88,0,0,1,.67.29,1,1,0,0,1,0,1.41A.88.88,0,0,1,65.11,482.81Zm.71,1.42V493H64.36v-8.77Zm4.09,1.43A2.8,2.8,0,0,1,71,484.49a3.41,3.41,0,0,1,1.75-.42v1.51h-.39c-1.63,0-2.45.88-2.45,2.65V493H68.46v-8.77h1.45Zm12.45-1.43V493H80.91v-1.3a2.93,2.93,0,0,1-1.17,1.06,3.55,3.55,0,0,1-1.63.37,3.93,3.93,0,0,1-1.84-.42,3.14,3.14,0,0,1-1.3-1.28,4.21,4.21,0,0,1-.46-2.06v-5.14H76v4.95a2.86,2.86,0,0,0,.65,2,2.36,2.36,0,0,0,1.79.68,2.42,2.42,0,0,0,1.85-.72,3,3,0,0,0,.67-2.09v-4.82Zm5.73,8.91a4.67,4.67,0,0,1-1.81-.33,3.22,3.22,0,0,1-1.27-1,2.58,2.58,0,0,1-.51-1.43H86a1.49,1.49,0,0,0,.6,1.08,2.45,2.45,0,0,0,1.46.41,2.08,2.08,0,0,0,1.31-.37,1.11,1.11,0,0,0,.48-.92.89.89,0,0,0-.51-.85,6.9,6.9,0,0,0-1.58-.56,12.26,12.26,0,0,1-1.6-.51,3,3,0,0,1-1.06-.79,2.26,2.26,0,0,1,0-2.61,2.68,2.68,0,0,1,1.13-.88,4.06,4.06,0,0,1,1.68-.33,3.62,3.62,0,0,1,2.36.73,2.73,2.73,0,0,1,1,2H89.75a1.47,1.47,0,0,0-.56-1.1,2,2,0,0,0-1.34-.42,2,2,0,0,0-1.25.34,1,1,0,0,0-.47.88,1,1,0,0,0,.28.72,2.14,2.14,0,0,0,.7.44c.29.11.68.23,1.18.37a12,12,0,0,1,1.54.51,2.62,2.62,0,0,1,1,.74,2,2,0,0,1,.45,1.3,2.24,2.24,0,0,1-.4,1.29,2.67,2.67,0,0,1-1.14.91A4,4,0,0,1,88.09,493.14ZM42,519.62a2,2,0,1,1,1.41-3.34,2,2,0,0,1,0,2.78A1.91,1.91,0,0,1,42,519.62Zm17.6-5.55a3.83,3.83,0,0,1,1.8.43,2.87,2.87,0,0,1,1.24,1.27,4.21,4.21,0,0,1,.47,2.06V523H61.65v-5a2.77,2.77,0,0,0-.66-2,2.32,2.32,0,0,0-1.79-.7,2.43,2.43,0,0,0-1.84.72,2.93,2.93,0,0,0-.67,2.09V523H55.23V511.16h1.46v4.32a2.84,2.84,0,0,1,1.18-1A4,4,0,0,1,59.58,514.07Zm5.5,4.51a4.8,4.8,0,0,1,.55-2.35,4,4,0,0,1,1.48-1.58,4.18,4.18,0,0,1,2.13-.56,3.88,3.88,0,0,1,2,.49,3.32,3.32,0,0,1,1.27,1.25v-1.6H74V523H72.51v-1.63a3.47,3.47,0,0,1-1.3,1.28,3.88,3.88,0,0,1-2,.49,4,4,0,0,1-2.12-.57A4.08,4.08,0,0,1,65.63,521,4.93,4.93,0,0,1,65.08,518.58Zm7.43,0a3.65,3.65,0,0,0-.4-1.73A2.8,2.8,0,0,0,71,515.75a2.85,2.85,0,0,0-1.49-.4,2.93,2.93,0,0,0-1.49.39A2.7,2.7,0,0,0,67,516.86a3.5,3.5,0,0,0-.4,1.72,3.63,3.63,0,0,0,.4,1.76A2.88,2.88,0,0,0,68,521.48a3.11,3.11,0,0,0,3,0,2.85,2.85,0,0,0,1.09-1.14A3.72,3.72,0,0,0,72.51,518.6Zm3.54,0a4.94,4.94,0,0,1,.55-2.37,3.88,3.88,0,0,1,1.5-1.58,4.42,4.42,0,0,1,2.23-.56,4.3,4.3,0,0,1,2.65.78,3.66,3.66,0,0,1,1.39,2.18H82.81a2.31,2.31,0,0,0-.88-1.27,2.66,2.66,0,0,0-1.6-.46,2.58,2.58,0,0,0-2,.86,3.5,3.5,0,0,0-.77,2.42,3.58,3.58,0,0,0,.77,2.45,2.58,2.58,0,0,0,2,.86,2.72,2.72,0,0,0,1.6-.45,2.29,2.29,0,0,0,.88-1.28h1.56a3.85,3.85,0,0,1-1.4,2.16,4.23,4.23,0,0,1-2.64.8,4.32,4.32,0,0,1-2.23-.56A3.88,3.88,0,0,1,76.6,521,5.06,5.06,0,0,1,76.05,518.6ZM91.37,523l-3.44-3.87V523H86.48V511.16h1.45v7l3.38-3.89h2l-4.13,4.37,4.15,4.4Zm4.25-10.19a1,1,0,0,1,0-2,.92.92,0,0,1,.68.29,1,1,0,0,1,0,1.41A.92.92,0,0,1,95.62,512.81Zm.71,1.42V523H94.87v-8.77Zm6.91-.16a3.53,3.53,0,0,1,2.59,1,3.67,3.67,0,0,1,1,2.78V523h-1.44v-5a2.77,2.77,0,0,0-.66-2,2.34,2.34,0,0,0-1.79-.7,2.43,2.43,0,0,0-1.84.72,2.93,2.93,0,0,0-.67,2.09V523H99v-8.77h1.46v1.25a2.78,2.78,0,0,1,1.16-1A3.8,3.8,0,0,1,103.24,514.07Zm9.74,0a3.83,3.83,0,0,1,2,.49,3.21,3.21,0,0,1,1.28,1.25v-1.6h1.48v9a4.36,4.36,0,0,1-.52,2.13,3.59,3.59,0,0,1-1.47,1.47,4.46,4.46,0,0,1-2.21.53,4.83,4.83,0,0,1-2.88-.82,3.2,3.2,0,0,1-1.36-2.22h1.44a2.25,2.25,0,0,0,1,1.28,3.2,3.2,0,0,0,1.8.5,2.68,2.68,0,0,0,2-.76,2.81,2.81,0,0,0,.76-2.11v-1.84a3.42,3.42,0,0,1-1.28,1.28,3.74,3.74,0,0,1-2,.51,3.95,3.95,0,0,1-3.62-2.19,5,5,0,0,1-.54-2.37,4.91,4.91,0,0,1,.54-2.35,4,4,0,0,1,1.49-1.58A4.18,4.18,0,0,1,113,514.09Zm3.26,4.51a3.54,3.54,0,0,0-.4-1.73,2.78,2.78,0,0,0-1.08-1.12,2.85,2.85,0,0,0-1.49-.4,2.91,2.91,0,0,0-1.49.39,2.64,2.64,0,0,0-1.07,1.12,3.5,3.5,0,0,0-.4,1.72,3.63,3.63,0,0,0,.4,1.76,2.81,2.81,0,0,0,1.07,1.14,3.11,3.11,0,0,0,3,0,2.83,2.83,0,0,0,1.08-1.14A3.6,3.6,0,0,0,116.24,518.6Z"/>
      <rect x="30" y="574.72" width="275" height="31.56" rx="5" fill="#c99d2b"/>
      <path d="M124.34,594.34h4v2.38h-7.11V584.09h3.07Zm17-7.82v2.59h4v2.34h-4v2.84h4.56v2.43H138.3V594.6h-4.15l-1.08,2.12h-3.33l6.46-12.63h9.74v2.43Zm-3.08,5.74v-5.89l-3,5.89Zm15.11,4.59a6.5,6.5,0,0,1-2.49-.45,4.15,4.15,0,0,1-1.76-1.33,3.68,3.68,0,0,1-.68-2.13h3.27a1.61,1.61,0,0,0,.49,1.08,1.57,1.57,0,0,0,1.08.36,1.77,1.77,0,0,0,1.08-.3,1.1,1.1,0,0,0,.39-.89,1,1,0,0,0-.32-.77,2.72,2.72,0,0,0-.77-.51,11.22,11.22,0,0,0-1.3-.44,15.56,15.56,0,0,1-2-.76,3.55,3.55,0,0,1-1.33-1.12,3.1,3.1,0,0,1-.56-1.92,3.3,3.3,0,0,1,1.28-2.76,5.22,5.22,0,0,1,3.33-1,5.32,5.32,0,0,1,3.37,1,3.56,3.56,0,0,1,1.36,2.77h-3.33a1.25,1.25,0,0,0-.45-.95,1.55,1.55,0,0,0-1.06-.36,1.28,1.28,0,0,0-.9.31,1,1,0,0,0-.34.84,1.06,1.06,0,0,0,.58,1,9.46,9.46,0,0,0,1.8.74,15.36,15.36,0,0,1,2,.79,3.69,3.69,0,0,1,1.34,1.09A3,3,0,0,1,158,593a3.6,3.6,0,0,1-.55,2,3.79,3.79,0,0,1-1.59,1.41A5.54,5.54,0,0,1,153.41,596.85Zm26.42-12.76v12.63h-3.07v-7.58l-2.83,7.58h-2.48l-2.85-7.6v7.6h-3.08V584.09h3.64l3.55,8.74,3.51-8.74Zm6.19,2.46v2.56h4.13v2.37H186v2.78h4.67v2.46H183V584.09h7.74v2.46Zm14,10.17L197.4,592h-.74v4.77h-3.07V584.09h5.16a5.61,5.61,0,0,1,2.54.52,3.48,3.48,0,0,1,1.58,1.44,3.92,3.92,0,0,1,.53,2,3.73,3.73,0,0,1-.72,2.25,3.84,3.84,0,0,1-2.09,1.41l2.91,5Zm-3.37-7h1.91a1.68,1.68,0,0,0,1.26-.41,1.55,1.55,0,0,0,.43-1.17,1.51,1.51,0,0,0-.43-1.14,1.72,1.72,0,0,0-1.26-.41h-1.91Zm12.65-3.22v2.56h4.12v2.37h-4.12v2.78H214v2.46h-7.74V584.09H214v2.46Z" fill="#fff"/>
      <path d="M38.1,300.85V302h-3v10H33.6V302H30.54v-1.18Zm1.24,6.73a4.91,4.91,0,0,1,.55-2.35,3.92,3.92,0,0,1,1.49-1.58,4.08,4.08,0,0,1,2.12-.56,3.88,3.88,0,0,1,2,.49,3.39,3.39,0,0,1,1.27,1.25v-1.6h1.47V312H46.77v-1.63a3.47,3.47,0,0,1-1.3,1.28,3.83,3.83,0,0,1-2,.49,4,4,0,0,1-2.11-.57A4.09,4.09,0,0,1,39.89,310,5.05,5.05,0,0,1,39.34,307.58Zm7.43,0a3.65,3.65,0,0,0-.4-1.73,2.93,2.93,0,0,0-2.58-1.52,2.93,2.93,0,0,0-1.49.39,2.76,2.76,0,0,0-1.07,1.12,3.61,3.61,0,0,0-.4,1.72,3.75,3.75,0,0,0,.4,1.76,3,3,0,0,0,1.07,1.14,2.92,2.92,0,0,0,4.07-1.14A3.72,3.72,0,0,0,46.77,307.6Zm7.55-4.51a3.85,3.85,0,0,1,2,.49,3.35,3.35,0,0,1,1.28,1.25v-1.6h1.47v9a4.36,4.36,0,0,1-.51,2.13,3.59,3.59,0,0,1-1.47,1.47,4.49,4.49,0,0,1-2.21.53A4.83,4.83,0,0,1,52,315.5a3.17,3.17,0,0,1-1.36-2.22h1.44a2.27,2.27,0,0,0,1,1.28,3.23,3.23,0,0,0,1.81.5,2.64,2.64,0,0,0,2-.76,2.82,2.82,0,0,0,.77-2.11v-1.84a3.49,3.49,0,0,1-1.28,1.28,3.77,3.77,0,0,1-2,.51A3.95,3.95,0,0,1,50.7,310a5,5,0,0,1-.54-2.37,4.91,4.91,0,0,1,.54-2.35,3.92,3.92,0,0,1,1.49-1.58A4.09,4.09,0,0,1,54.32,303.09Zm3.26,4.51a3.54,3.54,0,0,0-.4-1.73,2.93,2.93,0,0,0-2.58-1.52,2.87,2.87,0,0,0-1.48.39A2.72,2.72,0,0,0,52,305.86a3.61,3.61,0,0,0-.4,1.72,3.75,3.75,0,0,0,.4,1.76,3,3,0,0,0,1.08,1.14,2.86,2.86,0,0,0,1.48.38,2.83,2.83,0,0,0,2.58-1.52A3.6,3.6,0,0,0,57.58,307.6Zm9.65-2.75a3.49,3.49,0,0,1,1.28-1.25,3.89,3.89,0,0,1,2-.51,4,4,0,0,1,2.12.56,3.88,3.88,0,0,1,1.5,1.58,4.91,4.91,0,0,1,.54,2.35,5,5,0,0,1-.54,2.37,4,4,0,0,1-3.62,2.19,3.93,3.93,0,0,1-2-.49,3.68,3.68,0,0,1-1.3-1.27v5.78H65.78V303.23h1.45Zm6,2.73a3.61,3.61,0,0,0-.4-1.72,2.68,2.68,0,0,0-1.09-1.12,2.93,2.93,0,0,0-1.49-.39,2.9,2.9,0,0,0-2.58,1.54,3.6,3.6,0,0,0-.4,1.71,3.72,3.72,0,0,0,.4,1.74,3.07,3.07,0,0,0,1.09,1.14,3,3,0,0,0,1.49.38,2.83,2.83,0,0,0,2.58-1.52A3.75,3.75,0,0,0,73.19,307.58Zm2.86,0a4.91,4.91,0,0,1,.54-2.35,3.92,3.92,0,0,1,1.49-1.58,4.09,4.09,0,0,1,2.13-.56,3.9,3.9,0,0,1,2,.49,3.43,3.43,0,0,1,1.26,1.25v-1.6h1.47V312H83.47v-1.63a3.52,3.52,0,0,1-1.29,1.28,3.89,3.89,0,0,1-2,.49,4,4,0,0,1-2.11-.57A4.09,4.09,0,0,1,76.59,310,5,5,0,0,1,76.05,307.58Zm7.42,0a3.54,3.54,0,0,0-.4-1.73,2.93,2.93,0,0,0-2.57-1.52,2.91,2.91,0,0,0-1.49.39,2.64,2.64,0,0,0-1.07,1.12,3.5,3.5,0,0,0-.4,1.72,3.63,3.63,0,0,0,.4,1.76,3,3,0,0,0,4,1.14,2.92,2.92,0,0,0,1.09-1.14A3.6,3.6,0,0,0,83.47,307.6Zm-1-7a1.61,1.61,0,0,1-.5,1.23,1.72,1.72,0,0,1-1.22.45,1.7,1.7,0,0,1-1.21-.47,1.57,1.57,0,0,1-.5-1.21,1.61,1.61,0,0,1,.5-1.22,1.83,1.83,0,0,1,2.43,0A1.58,1.58,0,0,1,82.5,300.61Zm-.85,0a.85.85,0,0,0-.26-.64.79.79,0,0,0-.61-.25.84.84,0,0,0-.62.25.88.88,0,0,0-.24.64.92.92,0,0,0,.24.66.84.84,0,0,0,.62.25.79.79,0,0,0,.61-.25A.9.9,0,0,0,81.65,300.59Zm18,6.69c0,.28,0,.57,0,.88h-7a2.92,2.92,0,0,0,.88,2,2.88,2.88,0,0,0,2,.72,2.69,2.69,0,0,0,1.57-.43,2.4,2.4,0,0,0,.9-1.18h1.56a3.78,3.78,0,0,1-1.4,2.06,4.32,4.32,0,0,1-2.63.78,4.41,4.41,0,0,1-2.24-.56A4,4,0,0,1,91.69,310a4.89,4.89,0,0,1-.56-2.4,5,5,0,0,1,.54-2.38,3.72,3.72,0,0,1,1.52-1.57,4.84,4.84,0,0,1,4.48,0,3.69,3.69,0,0,1,1.47,1.51A4.33,4.33,0,0,1,99.67,307.28Zm-1.5-.3a2.71,2.71,0,0,0-.37-1.43,2.34,2.34,0,0,0-1-.91,3.06,3.06,0,0,0-1.39-.32,2.71,2.71,0,0,0-1.89.7,2.88,2.88,0,0,0-.88,2Zm7.69-3.91a3.57,3.57,0,0,1,2.6,1,3.7,3.7,0,0,1,1,2.78V312H108v-5a2.79,2.79,0,0,0-.66-2,2.32,2.32,0,0,0-1.79-.7,2.43,2.43,0,0,0-1.84.72,2.93,2.93,0,0,0-.67,2.09V312h-1.46v-8.77h1.46v1.25a2.78,2.78,0,0,1,1.16-1A3.83,3.83,0,0,1,105.86,303.07Zm14.58,0a3.83,3.83,0,0,1,1.8.43,2.93,2.93,0,0,1,1.24,1.27,4.21,4.21,0,0,1,.47,2.06V312h-1.44v-5a2.79,2.79,0,0,0-.66-2,2.32,2.32,0,0,0-1.79-.7,2.43,2.43,0,0,0-1.84.72,2.93,2.93,0,0,0-.67,2.09V312h-1.46V300.16h1.46v4.32a2.78,2.78,0,0,1,1.18-1A4,4,0,0,1,120.44,303.07ZM142,307.25a5.71,5.71,0,0,1-.06.86h-7.22a3.28,3.28,0,0,0,.52,1.54,2.76,2.76,0,0,0,1.07.94,3,3,0,0,0,1.34.32,3.09,3.09,0,0,0,1.7-.43,2.12,2.12,0,0,0,.89-1.18h1.57a3.84,3.84,0,0,1-1.37,2.06,4.42,4.42,0,0,1-4.53.29,3.34,3.34,0,0,1-1.36-1.35V312h-1.27v-1.68a3.71,3.71,0,0,1-1.34,1.33,3.89,3.89,0,0,1-2,.49,3.92,3.92,0,0,1-3.61-2.19,4.93,4.93,0,0,1-.55-2.37,4.8,4.8,0,0,1,.55-2.35,4,4,0,0,1,1.52-1.58,4.15,4.15,0,0,1,2.17-.56,3.86,3.86,0,0,1,1.91.46,3.56,3.56,0,0,1,1.37,1.3v-1.62h1.22v1.62a3.7,3.7,0,0,1,3.34-1.76,4,4,0,0,1,2.15.56,3.74,3.74,0,0,1,1.45,1.5A4.35,4.35,0,0,1,142,307.25Zm-1.5-.19a2.74,2.74,0,0,0-.38-1.46,2.34,2.34,0,0,0-1-.94,3.1,3.1,0,0,0-3.42.4,2.89,2.89,0,0,0-.95,2Zm-10.24,3.8a2.83,2.83,0,0,0,2.58-1.52,3.72,3.72,0,0,0,.4-1.74,3.65,3.65,0,0,0-.4-1.73,2.8,2.8,0,0,0-1.09-1.12,2.85,2.85,0,0,0-1.49-.4,2.93,2.93,0,0,0-1.49.39,2.7,2.7,0,0,0-1.07,1.12,3.5,3.5,0,0,0-.4,1.72,3.63,3.63,0,0,0,.4,1.76,2.77,2.77,0,0,0,2.56,1.52ZM147,312.14a4.67,4.67,0,0,1-1.81-.33,3.22,3.22,0,0,1-1.27-1,2.75,2.75,0,0,1-.51-1.43h1.51a1.47,1.47,0,0,0,.61,1.08,2.4,2.4,0,0,0,1.45.41,2.08,2.08,0,0,0,1.31-.37,1.11,1.11,0,0,0,.48-.92.89.89,0,0,0-.51-.85,6.9,6.9,0,0,0-1.58-.56,12.78,12.78,0,0,1-1.6-.51,3,3,0,0,1-1.06-.79,2.26,2.26,0,0,1,0-2.61,2.74,2.74,0,0,1,1.13-.88,4.11,4.11,0,0,1,1.69-.33,3.59,3.59,0,0,1,2.35.73,2.73,2.73,0,0,1,1,2h-1.46a1.47,1.47,0,0,0-.56-1.1,2,2,0,0,0-1.34-.42,2,2,0,0,0-1.25.34,1,1,0,0,0-.47.88,1,1,0,0,0,.28.72,2.14,2.14,0,0,0,.7.44c.29.11.68.23,1.18.37a11.51,11.51,0,0,1,1.54.51,2.55,2.55,0,0,1,1,.74,2,2,0,0,1,.45,1.3,2.24,2.24,0,0,1-.4,1.29,2.67,2.67,0,0,1-1.14.91A3.94,3.94,0,0,1,147,312.14Zm6.71-7.28a3.5,3.5,0,0,1,1.31-1.28,3.89,3.89,0,0,1,2-.49,4,4,0,0,1,2.13.56,3.9,3.9,0,0,1,1.48,1.58,4.8,4.8,0,0,1,.55,2.35,4.93,4.93,0,0,1-.55,2.37,4,4,0,0,1-1.5,1.62,4,4,0,0,1-2.11.57,3.93,3.93,0,0,1-2-.49,3.32,3.32,0,0,1-1.28-1.27V312h-1.46V300.16h1.46Zm5.95,2.72a3.5,3.5,0,0,0-.4-1.72,2.68,2.68,0,0,0-1.09-1.12,2.91,2.91,0,0,0-1.49-.39,2.84,2.84,0,0,0-1.48.4,2.92,2.92,0,0,0-1.09,1.14,3.48,3.48,0,0,0-.4,1.71,3.6,3.6,0,0,0,.4,1.74,3.07,3.07,0,0,0,1.09,1.14,2.92,2.92,0,0,0,4.06-1.14A3.63,3.63,0,0,0,159.64,307.58Zm4.86-7.42V312H163V300.16Zm18.13,7.09a5.71,5.71,0,0,1-.06.86h-7.22a3.17,3.17,0,0,0,.51,1.54,2.91,2.91,0,0,0,1.07.94,3.28,3.28,0,0,0,3-.11,2.14,2.14,0,0,0,.9-1.18h1.57a3.91,3.91,0,0,1-1.38,2.06,4.42,4.42,0,0,1-4.53.29,3.4,3.4,0,0,1-1.36-1.35V312h-1.26v-1.68a3.79,3.79,0,0,1-1.34,1.33,3.92,3.92,0,0,1-2,.49,4.09,4.09,0,0,1-2.13-.57A4.17,4.17,0,0,1,167,310a5,5,0,0,1-.54-2.37,4.91,4.91,0,0,1,.54-2.35,4,4,0,0,1,1.52-1.58,4.19,4.19,0,0,1,2.18-.56,3.82,3.82,0,0,1,1.9.46,3.51,3.51,0,0,1,1.38,1.3v-1.62h1.21v1.62a3.73,3.73,0,0,1,3.35-1.76,4,4,0,0,1,2.14.56,3.7,3.7,0,0,1,1.46,1.5A4.35,4.35,0,0,1,182.63,307.25Zm-1.5-.19a2.65,2.65,0,0,0-.39-1.46,2.32,2.32,0,0,0-1-.94,3.11,3.11,0,0,0-3.43.4,2.92,2.92,0,0,0-.94,2Zm-10.24,3.8a2.83,2.83,0,0,0,2.57-1.52,3.6,3.6,0,0,0,.4-1.74,3.54,3.54,0,0,0-.4-1.73,2.74,2.74,0,0,0-1.09-1.12,2.79,2.79,0,0,0-1.48-.4,2.91,2.91,0,0,0-1.49.39,2.64,2.64,0,0,0-1.07,1.12,3.5,3.5,0,0,0-.4,1.72,3.63,3.63,0,0,0,.4,1.76,2.77,2.77,0,0,0,2.56,1.52Zm16.74,1.28a4.75,4.75,0,0,1-1.81-.33,3.25,3.25,0,0,1-1.26-1,2.58,2.58,0,0,1-.51-1.43h1.5a1.54,1.54,0,0,0,.61,1.08,2.43,2.43,0,0,0,1.46.41,2.08,2.08,0,0,0,1.31-.37,1.11,1.11,0,0,0,.48-.92.89.89,0,0,0-.51-.85,6.83,6.83,0,0,0-1.59-.56,13.34,13.34,0,0,1-1.6-.51,3.1,3.1,0,0,1-1.05-.79,2.08,2.08,0,0,1-.43-1.37,2.14,2.14,0,0,1,.39-1.24,2.77,2.77,0,0,1,1.14-.88,4.06,4.06,0,0,1,1.68-.33,3.57,3.57,0,0,1,2.35.73,2.66,2.66,0,0,1,1,2H189.3a1.5,1.5,0,0,0-.56-1.1,2.4,2.4,0,0,0-2.59-.08,1,1,0,0,0-.47.88,1,1,0,0,0,.27.72,2.31,2.31,0,0,0,.71.44c.29.11.68.23,1.18.37a12,12,0,0,1,1.54.51,2.52,2.52,0,0,1,1,.74,2,2,0,0,1,.45,1.3,2.17,2.17,0,0,1-.4,1.29,2.58,2.58,0,0,1-1.13.91A4,4,0,0,1,187.63,312.14Zm13.26-4.86c0,.28,0,.57,0,.88h-7a2.92,2.92,0,0,0,.88,2,2.88,2.88,0,0,0,2,.72,2.69,2.69,0,0,0,1.57-.43,2.32,2.32,0,0,0,.89-1.18h1.57a3.74,3.74,0,0,1-1.41,2.06,4.27,4.27,0,0,1-2.62.78,4.41,4.41,0,0,1-2.24-.56A4,4,0,0,1,192.9,310a5.42,5.42,0,0,1,0-4.78,3.72,3.72,0,0,1,1.52-1.57,4.84,4.84,0,0,1,4.48,0,3.69,3.69,0,0,1,1.47,1.51A4.33,4.33,0,0,1,200.89,307.28Zm-1.51-.3a2.71,2.71,0,0,0-.36-1.43,2.4,2.4,0,0,0-1-.91,3.06,3.06,0,0,0-1.39-.32,2.71,2.71,0,0,0-1.89.7,2.88,2.88,0,0,0-.88,2Zm7.7-3.91a3.53,3.53,0,0,1,2.59,1,3.67,3.67,0,0,1,1,2.78V312h-1.44v-5a2.79,2.79,0,0,0-.66-2,2.32,2.32,0,0,0-1.79-.7,2.43,2.43,0,0,0-1.84.72,2.93,2.93,0,0,0-.67,2.09V312h-1.46v-8.77h1.46v1.25a2.78,2.78,0,0,1,1.16-1A3.8,3.8,0,0,1,207.08,303.07Zm5.42,4.51a4.91,4.91,0,0,1,.54-2.35,4,4,0,0,1,1.49-1.58,4.13,4.13,0,0,1,2.15-.56,3.91,3.91,0,0,1,1.9.48,3.37,3.37,0,0,1,1.35,1.23v-4.64h1.47V312h-1.47v-1.65a3.47,3.47,0,0,1-1.28,1.3,3.89,3.89,0,0,1-2,.49,4.09,4.09,0,0,1-2.13-.57A4.17,4.17,0,0,1,213,310,5,5,0,0,1,212.5,307.58Zm7.43,0a3.54,3.54,0,0,0-.41-1.73,2.71,2.71,0,0,0-1.08-1.12,2.85,2.85,0,0,0-1.49-.4,2.91,2.91,0,0,0-1.49.39,2.64,2.64,0,0,0-1.07,1.12,3.5,3.5,0,0,0-.4,1.72,3.63,3.63,0,0,0,.4,1.76,2.77,2.77,0,0,0,2.56,1.52,2.93,2.93,0,0,0,1.49-.38,2.83,2.83,0,0,0,1.08-1.14A3.61,3.61,0,0,0,219.93,307.6Zm11.93-.32c0,.28,0,.57-.05.88h-7a2.73,2.73,0,0,0,2.85,2.75,2.69,2.69,0,0,0,1.57-.43,2.38,2.38,0,0,0,.89-1.18h1.57a3.74,3.74,0,0,1-1.41,2.06,4.29,4.29,0,0,1-2.62.78,4.41,4.41,0,0,1-2.24-.56,4,4,0,0,1-1.54-1.58,5,5,0,0,1-.56-2.4,4.89,4.89,0,0,1,.55-2.38,3.72,3.72,0,0,1,1.52-1.57,4.84,4.84,0,0,1,4.48,0,3.69,3.69,0,0,1,1.47,1.51A4.33,4.33,0,0,1,231.86,307.28Zm-1.51-.3a2.71,2.71,0,0,0-.36-1.43,2.4,2.4,0,0,0-1-.91,3.06,3.06,0,0,0-1.39-.32,2.71,2.71,0,0,0-1.89.7,2.84,2.84,0,0,0-.88,2Zm18.24-3.91a3.85,3.85,0,0,1,1.82.43,3,3,0,0,1,1.27,1.27,4.21,4.21,0,0,1,.46,2.06V312H250.7v-5a2.79,2.79,0,0,0-.66-2,2.21,2.21,0,0,0-1.74-.7,2.33,2.33,0,0,0-1.81.73,3,3,0,0,0-.67,2.1V312h-1.44v-5a2.83,2.83,0,0,0-.65-2,2.25,2.25,0,0,0-1.75-.7,2.33,2.33,0,0,0-1.81.73,3,3,0,0,0-.67,2.1V312H238v-8.77h1.46v1.27a2.86,2.86,0,0,1,1.15-1.06,3.64,3.64,0,0,1,1.62-.37,3.8,3.8,0,0,1,1.95.5,3,3,0,0,1,1.27,1.45,2.81,2.81,0,0,1,1.21-1.44A3.62,3.62,0,0,1,248.59,303.07Zm6.69-1.26a1,1,0,0,1-.7-.29,1,1,0,0,1,0-1.41,1,1,0,0,1,.7-.29.88.88,0,0,1,.67.29,1,1,0,0,1,0,1.41A.88.88,0,0,1,255.28,301.81Zm.7,1.42V312h-1.45v-8.77Zm5.59,8.91a4.75,4.75,0,0,1-1.81-.33,3.25,3.25,0,0,1-1.26-1,2.58,2.58,0,0,1-.51-1.43h1.5a1.5,1.5,0,0,0,.61,1.08,2.42,2.42,0,0,0,1.45.41,2.09,2.09,0,0,0,1.32-.37,1.11,1.11,0,0,0,.48-.92.89.89,0,0,0-.52-.85,6.9,6.9,0,0,0-1.58-.56,13.34,13.34,0,0,1-1.6-.51,3,3,0,0,1-1.06-.79,2.26,2.26,0,0,1,0-2.61,2.77,2.77,0,0,1,1.14-.88,4.06,4.06,0,0,1,1.68-.33,3.59,3.59,0,0,1,2.35.73,2.66,2.66,0,0,1,1,2h-1.46a1.44,1.44,0,0,0-.56-1.1,2,2,0,0,0-1.34-.42,2.06,2.06,0,0,0-1.25.34,1,1,0,0,0-.46.88,1,1,0,0,0,.27.72,2.25,2.25,0,0,0,.7.44c.29.11.69.23,1.19.37a11.31,11.31,0,0,1,1.53.51,2.48,2.48,0,0,1,1,.74,2,2,0,0,1,.45,1.3,2.17,2.17,0,0,1-.4,1.29,2.61,2.61,0,0,1-1.14.91A3.94,3.94,0,0,1,261.57,312.14Zm8.36,0a4.71,4.71,0,0,1-1.81-.33,3.25,3.25,0,0,1-1.26-1,2.58,2.58,0,0,1-.51-1.43h1.5a1.5,1.5,0,0,0,.61,1.08,2.42,2.42,0,0,0,1.45.41,2.09,2.09,0,0,0,1.32-.37,1.11,1.11,0,0,0,.48-.92.89.89,0,0,0-.52-.85,6.9,6.9,0,0,0-1.58-.56,13.34,13.34,0,0,1-1.6-.51,3,3,0,0,1-1.06-.79,2.14,2.14,0,0,1-.43-1.37,2.08,2.08,0,0,1,.4-1.24,2.77,2.77,0,0,1,1.14-.88,4.06,4.06,0,0,1,1.68-.33,3.59,3.59,0,0,1,2.35.73,2.66,2.66,0,0,1,1,2h-1.46a1.44,1.44,0,0,0-.56-1.1,2,2,0,0,0-1.34-.42,2.06,2.06,0,0,0-1.25.34,1,1,0,0,0-.46.88,1,1,0,0,0,.27.72,2.25,2.25,0,0,0,.7.44c.29.11.69.23,1.19.37a11.31,11.31,0,0,1,1.53.51,2.55,2.55,0,0,1,1,.74,2,2,0,0,1,.45,1.3,2.17,2.17,0,0,1-.4,1.29,2.67,2.67,0,0,1-1.14.91A3.94,3.94,0,0,1,269.93,312.14Zm6-10.33a1,1,0,0,1-.71-.29,1,1,0,0,1,0-1.41,1,1,0,0,1,.71-.29.9.9,0,0,1,.67.29,1,1,0,0,1,0,1.41A.9.9,0,0,1,275.94,301.81Zm.7,1.42V312h-1.46v-8.77Zm6.31,8.91a4.44,4.44,0,0,1-2.24-.56,4,4,0,0,1-1.57-1.58,5,5,0,0,1-.56-2.4,4.8,4.8,0,0,1,.57-2.37,4,4,0,0,1,1.61-1.58,4.82,4.82,0,0,1,4.51,0,3.85,3.85,0,0,1,1.58,1.57,4.69,4.69,0,0,1,.59,2.38,4.61,4.61,0,0,1-.61,2.4,4.08,4.08,0,0,1-1.61,1.58A4.58,4.58,0,0,1,283,312.14Zm0-1.28a3.13,3.13,0,0,0,1.47-.36,2.8,2.8,0,0,0,1.1-1.11,3.46,3.46,0,0,0,.43-1.79,3.56,3.56,0,0,0-.41-1.79,2.66,2.66,0,0,0-1.09-1.09,3,3,0,0,0-1.46-.37,3.08,3.08,0,0,0-1.47.37,2.52,2.52,0,0,0-1,1.09,3.67,3.67,0,0,0-.4,1.79,3.94,3.94,0,0,0,.38,1.81,2.68,2.68,0,0,0,1.06,1.1A2.9,2.9,0,0,0,283,310.86Zm10.68-7.79a3.53,3.53,0,0,1,2.59,1,3.7,3.7,0,0,1,1,2.78V312h-1.44v-5a2.83,2.83,0,0,0-.65-2,2.34,2.34,0,0,0-1.79-.7,2.45,2.45,0,0,0-1.85.72,3,3,0,0,0-.67,2.09V312h-1.45v-8.77h1.45v1.25a2.87,2.87,0,0,1,1.17-1A3.77,3.77,0,0,1,293.63,303.07ZM35.06,338.14a4.44,4.44,0,0,1-2.24-.56A4,4,0,0,1,31.25,336a4.89,4.89,0,0,1-.56-2.4,4.8,4.8,0,0,1,.57-2.37,4,4,0,0,1,1.6-1.58,4.84,4.84,0,0,1,4.52,0A3.85,3.85,0,0,1,39,331.22a4.69,4.69,0,0,1,.59,2.38,4.61,4.61,0,0,1-.61,2.4,4.08,4.08,0,0,1-1.61,1.58A4.58,4.58,0,0,1,35.06,338.14Zm0-1.28a3.13,3.13,0,0,0,1.47-.36,2.8,2.8,0,0,0,1.1-1.11,3.46,3.46,0,0,0,.43-1.79,3.56,3.56,0,0,0-.41-1.79,2.66,2.66,0,0,0-1.09-1.09,3,3,0,0,0-1.46-.37,3.08,3.08,0,0,0-1.47.37,2.52,2.52,0,0,0-1.05,1.09,3.67,3.67,0,0,0-.4,1.79,3.82,3.82,0,0,0,.38,1.81,2.68,2.68,0,0,0,1.06,1.1A2.9,2.9,0,0,0,35.06,336.86Zm10-7.77a3.89,3.89,0,0,1,2,.49,3.42,3.42,0,0,1,1.28,1.25v-1.6h1.47v9a4.36,4.36,0,0,1-.51,2.13,3.61,3.61,0,0,1-1.48,1.47,4.42,4.42,0,0,1-2.2.53,4.79,4.79,0,0,1-2.88-.82,3.17,3.17,0,0,1-1.36-2.22h1.44a2.27,2.27,0,0,0,1,1.28,3.21,3.21,0,0,0,1.81.5,2.64,2.64,0,0,0,1.95-.76,2.82,2.82,0,0,0,.77-2.11v-1.84a3.57,3.57,0,0,1-1.28,1.28,3.8,3.8,0,0,1-2,.51,4.09,4.09,0,0,1-2.13-.57A4.14,4.14,0,0,1,41.47,336a4.93,4.93,0,0,1-.55-2.37,4.8,4.8,0,0,1,.55-2.35A4,4,0,0,1,43,329.65,4.09,4.09,0,0,1,45.08,329.09Zm3.27,4.51a3.65,3.65,0,0,0-.4-1.73,2.8,2.8,0,0,0-1.09-1.12,2.85,2.85,0,0,0-1.49-.4,2.93,2.93,0,0,0-1.49.39,2.7,2.7,0,0,0-1.07,1.12,3.5,3.5,0,0,0-.4,1.72,3.63,3.63,0,0,0,.4,1.76,2.91,2.91,0,0,0,5.14,0A3.72,3.72,0,0,0,48.35,333.6Zm11.76-3.17H58.27V338H56.82v-7.57H55.68v-1.2h1.14v-.62a2.76,2.76,0,0,1,.75-2.15,3.66,3.66,0,0,1,2.45-.68V327a1.91,1.91,0,0,0-1.36.39,1.62,1.62,0,0,0-.39,1.23v.62h1.84Zm2.45-2.62a1,1,0,0,1-.7-.29,1,1,0,0,1,0-1.41,1,1,0,0,1,.7-.29.88.88,0,0,1,.67.29,1,1,0,0,1,0,1.41A.88.88,0,0,1,62.56,327.81Zm.71,1.42V338H61.81v-8.77Zm6.75-.16a3.53,3.53,0,0,1,2.59,1,3.7,3.7,0,0,1,1,2.78V338H72.16v-5a2.83,2.83,0,0,0-.65-2,2.34,2.34,0,0,0-1.79-.7,2.41,2.41,0,0,0-1.84.72,2.94,2.94,0,0,0-.68,2.09V338H65.75v-8.77H67.2v1.25a2.87,2.87,0,0,1,1.17-1A3.77,3.77,0,0,1,70,329.07Zm5.42,4.51a4.91,4.91,0,0,1,.54-2.35,3.92,3.92,0,0,1,1.49-1.58,4.1,4.1,0,0,1,2.14-.56,3.92,3.92,0,0,1,1.91.48,3.4,3.4,0,0,1,1.34,1.23v-4.64h1.47V338H82.86v-1.65a3.39,3.39,0,0,1-1.28,1.3,3.83,3.83,0,0,1-2,.49A3.95,3.95,0,0,1,76,336,5,5,0,0,1,75.44,333.58Zm7.42,0a3.54,3.54,0,0,0-.4-1.73,2.74,2.74,0,0,0-1.09-1.12,2.79,2.79,0,0,0-1.48-.4,2.91,2.91,0,0,0-1.49.39,2.64,2.64,0,0,0-1.07,1.12,3.5,3.5,0,0,0-.4,1.72,3.63,3.63,0,0,0,.4,1.76,2.9,2.9,0,0,0,5.13,0A3.6,3.6,0,0,0,82.86,333.6Zm18.74-4.53a3.89,3.89,0,0,1,1.83.43,3,3,0,0,1,1.26,1.27,4.21,4.21,0,0,1,.47,2.06V338h-1.44v-5a2.79,2.79,0,0,0-.66-2,2.24,2.24,0,0,0-1.74-.7,2.33,2.33,0,0,0-1.81.73,3,3,0,0,0-.67,2.1V338H97.4v-5a2.79,2.79,0,0,0-.66-2,2.24,2.24,0,0,0-1.74-.7,2.33,2.33,0,0,0-1.81.73,3,3,0,0,0-.67,2.1V338H91.06v-8.77h1.46v1.27a2.8,2.8,0,0,1,1.15-1.06,3.63,3.63,0,0,1,1.61-.37,3.83,3.83,0,0,1,2,.5A3,3,0,0,1,98.5,331a2.87,2.87,0,0,1,1.22-1.44A3.56,3.56,0,0,1,101.6,329.07Zm9.77,9.07a4.46,4.46,0,0,1-2.24-.56,4,4,0,0,1-1.57-1.58,5,5,0,0,1-.56-2.4,4.7,4.7,0,0,1,.58-2.37,3.93,3.93,0,0,1,1.6-1.58,4.82,4.82,0,0,1,4.51,0,3.85,3.85,0,0,1,1.58,1.57,4.59,4.59,0,0,1,.59,2.38,4.7,4.7,0,0,1-.6,2.4,4.17,4.17,0,0,1-1.62,1.58A4.58,4.58,0,0,1,111.37,338.14Zm0-1.28a3.13,3.13,0,0,0,1.47-.36,2.73,2.73,0,0,0,1.1-1.11,3.47,3.47,0,0,0,.44-1.79,3.56,3.56,0,0,0-.42-1.79,2.66,2.66,0,0,0-1.09-1.09,3,3,0,0,0-1.45-.37,3.09,3.09,0,0,0-1.48.37,2.58,2.58,0,0,0-1,1.09,3.67,3.67,0,0,0-.4,1.79,3.94,3.94,0,0,0,.38,1.81,2.68,2.68,0,0,0,1.06,1.1A3,3,0,0,0,111.37,336.86Zm5.87-3.28a4.91,4.91,0,0,1,.54-2.35,3.92,3.92,0,0,1,1.49-1.58,4.1,4.1,0,0,1,2.14-.56,4,4,0,0,1,1.91.48,3.4,3.4,0,0,1,1.34,1.23v-4.64h1.47V338h-1.47v-1.65a3.47,3.47,0,0,1-1.28,1.3,3.89,3.89,0,0,1-2,.49,3.95,3.95,0,0,1-3.61-2.19A5,5,0,0,1,117.24,333.58Zm7.42,0a3.54,3.54,0,0,0-.4-1.73,2.93,2.93,0,0,0-2.58-1.52,2.93,2.93,0,0,0-1.49.39,2.76,2.76,0,0,0-1.07,1.12,3.61,3.61,0,0,0-.4,1.72,3.75,3.75,0,0,0,.4,1.76,3,3,0,0,0,1.07,1.14,2.92,2.92,0,0,0,4.07-1.14A3.6,3.6,0,0,0,124.66,333.6Zm7.55-4.51a3.85,3.85,0,0,1,2,.49,3.35,3.35,0,0,1,1.28,1.25v-1.6h1.47v9a4.36,4.36,0,0,1-.51,2.13,3.59,3.59,0,0,1-1.47,1.47,4.49,4.49,0,0,1-2.21.53,4.83,4.83,0,0,1-2.88-.82,3.17,3.17,0,0,1-1.36-2.22H130a2.27,2.27,0,0,0,1,1.28,3.25,3.25,0,0,0,1.81.5,2.64,2.64,0,0,0,1.95-.76,2.82,2.82,0,0,0,.77-2.11v-1.84a3.49,3.49,0,0,1-1.28,1.28,3.77,3.77,0,0,1-2,.51,3.95,3.95,0,0,1-3.62-2.19,5,5,0,0,1-.54-2.37,4.91,4.91,0,0,1,.54-2.35,3.92,3.92,0,0,1,1.49-1.58A4.09,4.09,0,0,1,132.21,329.09Zm3.26,4.51a3.54,3.54,0,0,0-.4-1.73,2.93,2.93,0,0,0-2.58-1.52,2.9,2.9,0,0,0-1.48.39,2.72,2.72,0,0,0-1.08,1.12,3.61,3.61,0,0,0-.39,1.72,3.75,3.75,0,0,0,.39,1.76,3,3,0,0,0,1.08,1.14,3.09,3.09,0,0,0,3,0,2.92,2.92,0,0,0,1.09-1.14A3.6,3.6,0,0,0,135.47,333.6Zm4.69-5.79a1,1,0,1,1,0-2,.9.9,0,0,1,.67.29,1,1,0,0,1,0,1.41A.9.9,0,0,1,140.16,327.81Zm.7,1.42V338H139.4v-8.77Zm6,1.2h-1.84V338h-1.46v-7.57h-1.13v-1.2h1.13v-.62a2.73,2.73,0,0,1,.76-2.15,3.63,3.63,0,0,1,2.44-.68V327a1.92,1.92,0,0,0-1.36.39,1.66,1.66,0,0,0-.38,1.23v.62h1.84Zm3.47,0v5.17a1.25,1.25,0,0,0,.27.91,1.4,1.4,0,0,0,.95.26h1.07V338h-1.31a2.61,2.61,0,0,1-1.82-.56,2.39,2.39,0,0,1-.61-1.84v-5.17h-1.14v-1.2h1.14V327h1.45v2.21h2.29v1.2Zm12.05,2.85c0,.28,0,.57,0,.88h-7a2.73,2.73,0,0,0,2.85,2.75,2.64,2.64,0,0,0,1.56-.43,2.34,2.34,0,0,0,.9-1.18h1.57a3.85,3.85,0,0,1-1.41,2.06,4.29,4.29,0,0,1-2.62.78,4.41,4.41,0,0,1-2.24-.56,4,4,0,0,1-1.54-1.58,5.47,5.47,0,0,1,0-4.78,3.74,3.74,0,0,1,1.53-1.57,4.82,4.82,0,0,1,4.47,0,3.71,3.71,0,0,1,1.48,1.51A4.32,4.32,0,0,1,162.43,333.28Zm-1.5-.3a2.63,2.63,0,0,0-.37-1.43,2.29,2.29,0,0,0-1-.91,3,3,0,0,0-1.39-.32,2.75,2.75,0,0,0-1.89.7,2.87,2.87,0,0,0-.87,2Zm7.7-3.91a3.53,3.53,0,0,1,2.59,1,3.7,3.7,0,0,1,1,2.78V338h-1.44v-5a2.83,2.83,0,0,0-.65-2,2.34,2.34,0,0,0-1.8-.7,2.4,2.4,0,0,0-1.83.72,2.94,2.94,0,0,0-.68,2.09V338h-1.45v-8.77h1.45v1.25a2.87,2.87,0,0,1,1.17-1A3.77,3.77,0,0,1,168.63,329.07Zm12,1.36v5.17a1.25,1.25,0,0,0,.27.91,1.4,1.4,0,0,0,.95.26h1.07V338h-1.31a2.61,2.61,0,0,1-1.82-.56,2.39,2.39,0,0,1-.61-1.84v-5.17H178v-1.2h1.14V327h1.45v2.21h2.29v1.2Zm4.81-2.62a1,1,0,0,1-.71-.29,1,1,0,0,1,0-1.41,1,1,0,0,1,.71-.29.9.9,0,0,1,.67.29,1,1,0,0,1,0,1.41A.9.9,0,0,1,185.44,327.81Zm.7,1.42V338h-1.46v-8.77Zm3.94-3.07V338h-1.46V326.16Zm14.75,7.12c0,.28,0,.57-.05.88h-7a2.73,2.73,0,0,0,2.85,2.75,2.69,2.69,0,0,0,1.57-.43,2.38,2.38,0,0,0,.89-1.18h1.57a3.8,3.8,0,0,1-1.41,2.06,4.29,4.29,0,0,1-2.62.78,4.41,4.41,0,0,1-2.24-.56,4,4,0,0,1-1.54-1.58,5,5,0,0,1-.56-2.4,4.89,4.89,0,0,1,.55-2.38,3.72,3.72,0,0,1,1.52-1.57,4.84,4.84,0,0,1,4.48,0,3.69,3.69,0,0,1,1.47,1.51A4.33,4.33,0,0,1,204.83,333.28Zm-1.51-.3a2.63,2.63,0,0,0-.37-1.43,2.32,2.32,0,0,0-1-.91,3.07,3.07,0,0,0-1.4-.32,2.71,2.71,0,0,0-1.88.7,2.84,2.84,0,0,0-.88,2Zm7.7-3.91a3.53,3.53,0,0,1,2.59,1,3.7,3.7,0,0,1,1,2.78V338h-1.44v-5a2.79,2.79,0,0,0-.65-2,2.34,2.34,0,0,0-1.79-.7,2.41,2.41,0,0,0-1.84.72,2.94,2.94,0,0,0-.68,2.09V338h-1.45v-8.77h1.45v1.25a2.87,2.87,0,0,1,1.17-1A3.77,3.77,0,0,1,211,329.07Zm9.68,4.51a4.8,4.8,0,0,1,.55-2.35,3.92,3.92,0,0,1,1.49-1.58,4.1,4.1,0,0,1,2.14-.56,3.89,3.89,0,0,1,1.9.48,3.37,3.37,0,0,1,1.35,1.23v-4.64h1.47V338h-1.47v-1.65a3.47,3.47,0,0,1-1.28,1.3,3.89,3.89,0,0,1-2,.49,3.95,3.95,0,0,1-3.61-2.19A4.93,4.93,0,0,1,220.7,333.58Zm7.43,0a3.65,3.65,0,0,0-.4-1.73,2.93,2.93,0,0,0-2.58-1.52,2.93,2.93,0,0,0-1.49.39,2.76,2.76,0,0,0-1.07,1.12,3.5,3.5,0,0,0-.4,1.72,3.63,3.63,0,0,0,.4,1.76,3,3,0,0,0,1.07,1.14,2.92,2.92,0,0,0,4.07-1.14A3.72,3.72,0,0,0,228.13,333.6Zm11.18-3.09a4.16,4.16,0,0,1,.78,1.38,5,5,0,0,1,.29,1.71,4.61,4.61,0,0,1-.61,2.4,4.08,4.08,0,0,1-1.61,1.58,4.61,4.61,0,0,1-2.28.56,4.44,4.44,0,0,1-2.73-.88l-.67.74h-1l1.15-1.26a4.6,4.6,0,0,1-.8-1.4,5.38,5.38,0,0,1-.27-1.74,4.8,4.8,0,0,1,.57-2.37,4,4,0,0,1,1.6-1.58,4.51,4.51,0,0,1,2.26-.56,4.46,4.46,0,0,1,2.8.91l.69-.77h1ZM233,333.6a3.73,3.73,0,0,0,.56,2.08l4.26-4.67a2.79,2.79,0,0,0-1.89-.66,3.08,3.08,0,0,0-1.47.37,2.6,2.6,0,0,0-1.06,1.09A3.79,3.79,0,0,0,233,333.6Zm5.89,0a3.37,3.37,0,0,0-.56-2l-4.25,4.68a2.79,2.79,0,0,0,1.8.6,3.14,3.14,0,0,0,1.48-.36,2.8,2.8,0,0,0,1.1-1.11A3.46,3.46,0,0,0,238.89,333.6Zm2.86,0a4.91,4.91,0,0,1,.54-2.35,4,4,0,0,1,1.49-1.58,4.13,4.13,0,0,1,2.15-.56,3.91,3.91,0,0,1,1.9.48,3.37,3.37,0,0,1,1.35,1.23v-4.64h1.47V338h-1.47v-1.65a3.47,3.47,0,0,1-1.28,1.3,3.89,3.89,0,0,1-2,.49,4.09,4.09,0,0,1-2.13-.57,4.17,4.17,0,0,1-1.49-1.62A5,5,0,0,1,241.75,333.58Zm7.43,0a3.54,3.54,0,0,0-.41-1.73,2.71,2.71,0,0,0-1.08-1.12,2.85,2.85,0,0,0-1.49-.4,2.91,2.91,0,0,0-1.49.39,2.64,2.64,0,0,0-1.07,1.12,3.5,3.5,0,0,0-.4,1.72,3.63,3.63,0,0,0,.4,1.76,2.77,2.77,0,0,0,2.56,1.52,2.93,2.93,0,0,0,1.49-.38,2.83,2.83,0,0,0,1.08-1.14A3.61,3.61,0,0,0,249.18,333.6Zm11.93-.32c0,.28,0,.57-.05.88h-7a2.73,2.73,0,0,0,2.85,2.75,2.69,2.69,0,0,0,1.57-.43,2.38,2.38,0,0,0,.89-1.18h1.57a3.74,3.74,0,0,1-1.41,2.06,4.29,4.29,0,0,1-2.62.78,4.41,4.41,0,0,1-2.24-.56,4,4,0,0,1-1.54-1.58,5,5,0,0,1-.56-2.4,4.89,4.89,0,0,1,.55-2.38,3.72,3.72,0,0,1,1.52-1.57,4.84,4.84,0,0,1,4.48,0,3.69,3.69,0,0,1,1.47,1.51A4.33,4.33,0,0,1,261.11,333.28Zm-1.51-.3a2.63,2.63,0,0,0-.37-1.43,2.32,2.32,0,0,0-1-.91,3.07,3.07,0,0,0-1.4-.32,2.71,2.71,0,0,0-1.88.7,2.84,2.84,0,0,0-.88,2Zm4.88-6.82V338H263V326.16Zm3.24,1.65a1,1,0,0,1-.71-.29,1,1,0,0,1,0-1.41,1,1,0,0,1,.71-.29.9.9,0,0,1,.67.29,1,1,0,0,1,0,1.41A.9.9,0,0,1,267.72,327.81Zm.7,1.42V338H267v-8.77Zm6.1-.14a3.83,3.83,0,0,1,2,.49,3.28,3.28,0,0,1,1.28,1.25v-1.6h1.48v9a4.36,4.36,0,0,1-.52,2.13,3.59,3.59,0,0,1-1.47,1.47,4.46,4.46,0,0,1-2.21.53,4.83,4.83,0,0,1-2.88-.82,3.2,3.2,0,0,1-1.36-2.22h1.44a2.29,2.29,0,0,0,1,1.28,3.2,3.2,0,0,0,1.8.5,2.67,2.67,0,0,0,2-.76,2.81,2.81,0,0,0,.76-2.11v-1.84a3.42,3.42,0,0,1-1.28,1.28,3.74,3.74,0,0,1-2,.51,4.09,4.09,0,0,1-2.13-.57A4.17,4.17,0,0,1,270.9,336a5,5,0,0,1-.54-2.37,4.91,4.91,0,0,1,.54-2.35,4,4,0,0,1,1.49-1.58A4.09,4.09,0,0,1,274.52,329.09Zm3.26,4.51a3.54,3.54,0,0,0-.4-1.73,2.71,2.71,0,0,0-1.08-1.12,2.85,2.85,0,0,0-1.49-.4,2.91,2.91,0,0,0-1.49.39,2.7,2.7,0,0,0-1.07,1.12,3.5,3.5,0,0,0-.4,1.72,3.63,3.63,0,0,0,.4,1.76,2.94,2.94,0,0,0,1.07,1.14,3.11,3.11,0,0,0,3,0,2.83,2.83,0,0,0,1.08-1.14A3.6,3.6,0,0,0,277.78,333.6ZM34.5,362.66l2.72-7.43h1.55L35.33,364h-1.7l-3.44-8.77h1.57ZM41,353.81a1,1,0,0,1,0-2,.88.88,0,0,1,.67.29,1,1,0,0,1,0,1.41A.88.88,0,0,1,41,353.81Zm.71,1.42V364H40.2v-8.77Zm3.93,1.43a2.8,2.8,0,0,1,1.09-1.17,3.41,3.41,0,0,1,1.75-.42v1.51H48c-1.63,0-2.45.88-2.45,2.65V364H44.14v-8.77h1.45Zm12.29-1.43V364H56.43v-1.3a2.93,2.93,0,0,1-1.17,1.06,3.55,3.55,0,0,1-1.63.37,3.93,3.93,0,0,1-1.84-.42,3.14,3.14,0,0,1-1.3-1.28,4.21,4.21,0,0,1-.46-2.06v-5.14h1.44v4.95a2.86,2.86,0,0,0,.65,2,2.37,2.37,0,0,0,1.8.68,2.41,2.41,0,0,0,1.84-.72,3,3,0,0,0,.67-2.09v-4.82Zm5.57,8.91a4.67,4.67,0,0,1-1.81-.33,3.22,3.22,0,0,1-1.27-1,2.58,2.58,0,0,1-.51-1.43h1.51a1.49,1.49,0,0,0,.6,1.08,2.45,2.45,0,0,0,1.46.41,2.08,2.08,0,0,0,1.31-.37,1.11,1.11,0,0,0,.48-.92.89.89,0,0,0-.51-.85,6.9,6.9,0,0,0-1.58-.56,12.26,12.26,0,0,1-1.6-.51,3,3,0,0,1-1.06-.79,2.26,2.26,0,0,1,0-2.61,2.68,2.68,0,0,1,1.13-.88,4.06,4.06,0,0,1,1.68-.33,3.62,3.62,0,0,1,2.36.73,2.73,2.73,0,0,1,1,2H65.11a1.47,1.47,0,0,0-.56-1.1,2,2,0,0,0-1.34-.42,2,2,0,0,0-1.25.34,1,1,0,0,0-.47.88,1,1,0,0,0,.28.72,2.14,2.14,0,0,0,.7.44c.29.11.68.23,1.18.37a12,12,0,0,1,1.54.51,2.62,2.62,0,0,1,1,.74,2,2,0,0,1,.45,1.3,2.24,2.24,0,0,1-.4,1.29,2.67,2.67,0,0,1-1.14.91A4,4,0,0,1,63.45,364.14ZM70.2,362l-1.79,4.31h-1L68.6,362Zm9.51-5.55H77.87V364H76.41v-7.57H75.27v-1.2h1.14v-.62a2.76,2.76,0,0,1,.75-2.15,3.66,3.66,0,0,1,2.45-.68V353a1.92,1.92,0,0,0-1.36.39,1.62,1.62,0,0,0-.38,1.23v.62h1.84Zm8.94.08a4.36,4.36,0,0,1,.79,1.38,5,5,0,0,1,.28,1.71,4.7,4.7,0,0,1-.6,2.4,4.17,4.17,0,0,1-1.62,1.58,4.58,4.58,0,0,1-2.27.56,4.44,4.44,0,0,1-2.74-.88l-.67.74h-1l1.15-1.26a4.6,4.6,0,0,1-.8-1.4,5.38,5.38,0,0,1-.27-1.74,4.7,4.7,0,0,1,.58-2.37,3.93,3.93,0,0,1,1.6-1.58,4.78,4.78,0,0,1,5,.35l.69-.77h1Zm-6.3,3.09a3.65,3.65,0,0,0,.56,2.08L87.16,357a2.78,2.78,0,0,0-1.88-.66,3.09,3.09,0,0,0-1.48.37,2.58,2.58,0,0,0-1,1.09A3.67,3.67,0,0,0,82.35,359.6Zm5.89,0a3.44,3.44,0,0,0-.56-2l-4.26,4.68a2.8,2.8,0,0,0,1.81.6,3.13,3.13,0,0,0,1.47-.36,2.73,2.73,0,0,0,1.1-1.11A3.47,3.47,0,0,0,88.24,359.6Zm4.85-2.94a2.8,2.8,0,0,1,1.09-1.17,3.41,3.41,0,0,1,1.75-.42v1.51h-.39c-1.63,0-2.45.88-2.45,2.65V364H91.64v-8.77h1.45Zm8.24,2.92a4.91,4.91,0,0,1,.54-2.35,4,4,0,0,1,1.49-1.58,4.1,4.1,0,0,1,2.14-.56,3.92,3.92,0,0,1,1.91.48,3.34,3.34,0,0,1,1.34,1.23v-4.64h1.47V364h-1.47v-1.65a3.39,3.39,0,0,1-1.28,1.3,3.83,3.83,0,0,1-2,.49,4.09,4.09,0,0,1-2.13-.57,4.17,4.17,0,0,1-1.49-1.62A5,5,0,0,1,101.33,359.58Zm7.42,0a3.54,3.54,0,0,0-.4-1.73,2.74,2.74,0,0,0-1.09-1.12,2.79,2.79,0,0,0-1.48-.4,2.91,2.91,0,0,0-1.49.39,2.64,2.64,0,0,0-1.07,1.12,3.5,3.5,0,0,0-.4,1.72,3.63,3.63,0,0,0,.4,1.76,2.9,2.9,0,0,0,5.13,0A3.6,3.6,0,0,0,108.75,359.6Zm11.93-.32c0,.28,0,.57,0,.88h-7a2.73,2.73,0,0,0,2.85,2.75,2.64,2.64,0,0,0,1.56-.43,2.34,2.34,0,0,0,.9-1.18h1.57a3.8,3.8,0,0,1-1.41,2.06,4.29,4.29,0,0,1-2.62.78,4.38,4.38,0,0,1-2.24-.56A4,4,0,0,1,112.7,362a5.47,5.47,0,0,1,0-4.78,3.74,3.74,0,0,1,1.53-1.57,4.82,4.82,0,0,1,4.47,0,3.71,3.71,0,0,1,1.48,1.51A4.32,4.32,0,0,1,120.68,359.28Zm-1.5-.3a2.63,2.63,0,0,0-.37-1.43,2.32,2.32,0,0,0-1-.91,3.07,3.07,0,0,0-1.4-.32,2.71,2.71,0,0,0-1.88.7,2.89,2.89,0,0,0-.89,2Zm5.2-2.55v5.17a1.25,1.25,0,0,0,.27.91,1.4,1.4,0,0,0,.95.26h1.07V364h-1.31a2.61,2.61,0,0,1-1.82-.56,2.39,2.39,0,0,1-.61-1.84v-5.17h-1.14v-1.2h1.14V353h1.45v2.21h2.29v1.2Zm16.32,2.85c0,.28,0,.57,0,.88h-7a2.71,2.71,0,0,0,2.84,2.75,2.67,2.67,0,0,0,1.57-.43,2.34,2.34,0,0,0,.9-1.18h1.56a3.78,3.78,0,0,1-1.4,2.06,4.32,4.32,0,0,1-2.63.78,4.41,4.41,0,0,1-2.24-.56,4,4,0,0,1-1.53-1.58,4.89,4.89,0,0,1-.56-2.4,5,5,0,0,1,.54-2.38,3.72,3.72,0,0,1,1.52-1.57,4.84,4.84,0,0,1,4.48,0,3.69,3.69,0,0,1,1.47,1.51A4.33,4.33,0,0,1,140.7,359.28Zm-1.5-.3a2.71,2.71,0,0,0-.37-1.43,2.34,2.34,0,0,0-1-.91,3.06,3.06,0,0,0-1.39-.32,2.71,2.71,0,0,0-1.89.7,2.92,2.92,0,0,0-.88,2Zm4.88-2.32a2.8,2.8,0,0,1,1.09-1.17,3.4,3.4,0,0,1,1.74-.42v1.51h-.38c-1.63,0-2.45.88-2.45,2.65V364h-1.46v-8.77h1.46Zm12.35-.23h-1.84V364h-1.46v-7.57H152v-1.2h1.14v-.62a2.76,2.76,0,0,1,.75-2.15,3.66,3.66,0,0,1,2.45-.68V353a1.92,1.92,0,0,0-1.36.39,1.62,1.62,0,0,0-.38,1.23v.62h1.84Zm5.52,7.71a4.44,4.44,0,0,1-2.24-.56,4,4,0,0,1-1.57-1.58,4.89,4.89,0,0,1-.56-2.4,4.8,4.8,0,0,1,.57-2.37,4,4,0,0,1,1.61-1.58,4.82,4.82,0,0,1,4.51,0,3.85,3.85,0,0,1,1.58,1.57,5.1,5.1,0,0,1,0,4.78,4.17,4.17,0,0,1-1.62,1.58A4.58,4.58,0,0,1,162,364.14Zm0-1.28a3.13,3.13,0,0,0,1.47-.36,2.8,2.8,0,0,0,1.1-1.11,3.47,3.47,0,0,0,.44-1.79,3.56,3.56,0,0,0-.42-1.79,2.66,2.66,0,0,0-1.09-1.09,3,3,0,0,0-1.46-.37,3.08,3.08,0,0,0-1.47.37,2.58,2.58,0,0,0-1.05,1.09,3.67,3.67,0,0,0-.4,1.79,3.94,3.94,0,0,0,.38,1.81,2.68,2.68,0,0,0,1.06,1.1A2.9,2.9,0,0,0,162,362.86Zm7.86-6.2a2.8,2.8,0,0,1,1.09-1.17,3.41,3.41,0,0,1,1.75-.42v1.51h-.39c-1.63,0-2.45.88-2.45,2.65V364h-1.45v-8.77h1.45Zm11.89,7.48a4.67,4.67,0,0,1-1.81-.33,3.22,3.22,0,0,1-1.27-1,2.58,2.58,0,0,1-.51-1.43h1.51a1.49,1.49,0,0,0,.6,1.08,2.45,2.45,0,0,0,1.46.41,2.08,2.08,0,0,0,1.31-.37,1.11,1.11,0,0,0,.48-.92.89.89,0,0,0-.51-.85,6.9,6.9,0,0,0-1.58-.56,13.57,13.57,0,0,1-1.61-.51,3.1,3.1,0,0,1-1.05-.79,2.26,2.26,0,0,1,0-2.61,2.68,2.68,0,0,1,1.13-.88,4.06,4.06,0,0,1,1.68-.33,3.57,3.57,0,0,1,2.35.73,2.71,2.71,0,0,1,1,2h-1.46a1.47,1.47,0,0,0-.56-1.1,2,2,0,0,0-1.34-.42,2,2,0,0,0-1.25.34,1,1,0,0,0-.47.88,1,1,0,0,0,.27.72,2.31,2.31,0,0,0,.71.44c.29.11.68.23,1.18.37a12,12,0,0,1,1.54.51,2.62,2.62,0,0,1,1,.74,2,2,0,0,1,.45,1.3,2.18,2.18,0,0,1-.41,1.29,2.58,2.58,0,0,1-1.13.91A4,4,0,0,1,181.7,364.14ZM195,359.28c0,.28,0,.57,0,.88h-7a2.71,2.71,0,0,0,2.84,2.75,2.67,2.67,0,0,0,1.57-.43,2.34,2.34,0,0,0,.9-1.18h1.56a3.78,3.78,0,0,1-1.4,2.06,4.32,4.32,0,0,1-2.63.78,4.41,4.41,0,0,1-2.24-.56A4,4,0,0,1,187,362a4.89,4.89,0,0,1-.56-2.4,5,5,0,0,1,.54-2.38,3.72,3.72,0,0,1,1.52-1.57,4.84,4.84,0,0,1,4.48,0,3.69,3.69,0,0,1,1.47,1.51A4.33,4.33,0,0,1,195,359.28Zm-1.5-.3a2.71,2.71,0,0,0-.37-1.43,2.34,2.34,0,0,0-1-.91,3.06,3.06,0,0,0-1.39-.32,2.71,2.71,0,0,0-1.89.7,2.92,2.92,0,0,0-.88,2Zm7.7-3.91a3.56,3.56,0,0,1,2.59,1,3.7,3.7,0,0,1,1,2.78V364h-1.44v-5a2.79,2.79,0,0,0-.66-2,2.31,2.31,0,0,0-1.79-.7,2.43,2.43,0,0,0-1.84.72,2.93,2.93,0,0,0-.67,2.09V364h-1.46v-8.77h1.46v1.25a2.87,2.87,0,0,1,1.17-1A3.77,3.77,0,0,1,201.15,355.07Zm7.73,1.36v5.17a1.25,1.25,0,0,0,.27.91,1.4,1.4,0,0,0,.95.26h1.07V364h-1.31a2.61,2.61,0,0,1-1.82-.56,2.39,2.39,0,0,1-.61-1.84v-5.17h-1.14v-1.2h1.14V353h1.45v2.21h2.29v1.2Zm4.52,7.67a1,1,0,0,1-.7-.29,1,1,0,0,1,0-1.41,1,1,0,0,1,.7-.29.88.88,0,0,1,.67.29,1,1,0,0,1,0,1.41A.88.88,0,0,1,213.4,364.1Z"/>
      <path d="M37.44,277.27a2.47,2.47,0,0,1,1.55,1A2.73,2.73,0,0,1,39.6,280a2.84,2.84,0,0,1-.45,1.58,2.94,2.94,0,0,1-1.26,1.06,4.77,4.77,0,0,1-2,.38H31.1V271.83h4.61a4.62,4.62,0,0,1,1.95.37,2.79,2.79,0,0,1,1.25,1,2.65,2.65,0,0,1,.43,1.49,2.51,2.51,0,0,1-.52,1.63A2.75,2.75,0,0,1,37.44,277.27Zm-4.1-.83h2a1.9,1.9,0,0,0,1.23-.35,1.29,1.29,0,0,0,.44-1,1.28,1.28,0,0,0-.44-1,1.79,1.79,0,0,0-1.23-.37h-2Zm2.26,4.74a1.85,1.85,0,0,0,1.26-.39,1.33,1.33,0,0,0,.47-1.09,1.38,1.38,0,0,0-.48-1.12,2,2,0,0,0-1.3-.41H33.34v3Zm14-2.8a5.54,5.54,0,0,1-.07.86H43.08a2.19,2.19,0,0,0,.67,1.5,2.06,2.06,0,0,0,1.46.55A1.85,1.85,0,0,0,47,280.22H49.4a4.1,4.1,0,0,1-1.47,2.11,4.36,4.36,0,0,1-2.67.81,4.67,4.67,0,0,1-2.31-.56A4.08,4.08,0,0,1,41.37,281a5,5,0,0,1-.56-2.4,5.08,5.08,0,0,1,.56-2.42,3.9,3.9,0,0,1,1.57-1.6,4.71,4.71,0,0,1,2.32-.56,4.52,4.52,0,0,1,2.25.55,3.76,3.76,0,0,1,1.56,1.55A4.6,4.6,0,0,1,49.63,278.38Zm-2.32-.64a1.77,1.77,0,0,0-.63-1.38,2.19,2.19,0,0,0-1.49-.53,2,2,0,0,0-1.4.51,2.16,2.16,0,0,0-.69,1.4Zm7.34,5.4a4.71,4.71,0,0,1-1.95-.38,3.64,3.64,0,0,1-1.38-1.07,2.74,2.74,0,0,1-.54-1.49H53a1.23,1.23,0,0,0,.49.85,1.83,1.83,0,0,0,1.11.33,1.69,1.69,0,0,0,1-.25.79.79,0,0,0,.37-.66.68.68,0,0,0-.45-.64,7.36,7.36,0,0,0-1.39-.48,12.37,12.37,0,0,1-1.64-.49,3.08,3.08,0,0,1-1.08-.79,2.12,2.12,0,0,1-.45-1.42,2.41,2.41,0,0,1,.41-1.35,3,3,0,0,1,1.22-1,4.69,4.69,0,0,1,1.87-.35,3.8,3.8,0,0,1,2.53.8,2.9,2.9,0,0,1,1,2.13H55.92a1.17,1.17,0,0,0-.45-.83,1.6,1.6,0,0,0-1-.32,1.71,1.71,0,0,0-1,.22.76.76,0,0,0,.13,1.31,7.28,7.28,0,0,0,1.39.47,12.32,12.32,0,0,1,1.59.49,2.77,2.77,0,0,1,1.07.8,2.14,2.14,0,0,1,.48,1.41,2.33,2.33,0,0,1-.43,1.38,2.85,2.85,0,0,1-1.22,1A4.69,4.69,0,0,1,54.65,283.14ZM65.23,283l-3-3.78V283H60V271.16h2.24v6.74l3-3.76h2.92l-3.91,4.44L68.14,283Zm6.33-7.49a3.1,3.1,0,0,1,1.12-1.1,3.17,3.17,0,0,1,1.6-.4v2.35h-.59a2.26,2.26,0,0,0-1.6.5,2.3,2.3,0,0,0-.53,1.72V283H69.32v-8.86h2.24Zm5.37-2.43a1.37,1.37,0,0,1-1-.37,1.26,1.26,0,0,1-.39-.94,1.21,1.21,0,0,1,.39-.93,1.33,1.33,0,0,1,1-.38,1.29,1.29,0,0,1,1,.38,1.18,1.18,0,0,1,.4.93,1.23,1.23,0,0,1-.4.94A1.32,1.32,0,0,1,76.93,273.08Zm1.1,1.06V283H75.79v-8.86Zm5.91,6.8,2.24-6.8h2.38L85.28,283H82.56l-3.26-8.86h2.4Zm14.12-2.56a5.61,5.61,0,0,1-.06.86H91.52a2.19,2.19,0,0,0,.67,1.5,2.06,2.06,0,0,0,1.46.55,1.83,1.83,0,0,0,1.77-1.07h2.42a4.16,4.16,0,0,1-1.47,2.11,4.37,4.37,0,0,1-2.68.81,4.64,4.64,0,0,1-2.3-.56A4.08,4.08,0,0,1,89.81,281a4.92,4.92,0,0,1-.56-2.4,5,5,0,0,1,.56-2.42,3.88,3.88,0,0,1,1.56-1.6,4.77,4.77,0,0,1,2.32-.56,4.53,4.53,0,0,1,2.26.55,3.74,3.74,0,0,1,1.55,1.55A4.49,4.49,0,0,1,98.06,278.38Zm-2.32-.64a1.76,1.76,0,0,0-.62-1.38,2.21,2.21,0,0,0-1.49-.53,2.07,2.07,0,0,0-1.41.51,2.25,2.25,0,0,0-.69,1.4Zm6.2-6.58V283H99.7V271.16Zm5.6,12a4.71,4.71,0,0,1-2-.38,3.64,3.64,0,0,1-1.38-1.07,2.74,2.74,0,0,1-.54-1.49h2.26a1.27,1.27,0,0,0,.49.85,1.83,1.83,0,0,0,1.11.33,1.69,1.69,0,0,0,1-.25.79.79,0,0,0,.37-.66.68.68,0,0,0-.45-.64,7.36,7.36,0,0,0-1.39-.48,12.17,12.17,0,0,1-1.63-.49,3,3,0,0,1-1.09-.79,2.12,2.12,0,0,1-.45-1.42,2.41,2.41,0,0,1,.41-1.35,3,3,0,0,1,1.22-1,4.69,4.69,0,0,1,1.87-.35,3.8,3.8,0,0,1,2.53.8,2.9,2.9,0,0,1,1,2.13h-2.14a1.1,1.1,0,0,0-.45-.83,1.6,1.6,0,0,0-1-.32,1.65,1.65,0,0,0-.94.22.71.71,0,0,0-.32.63.73.73,0,0,0,.44.68,7.54,7.54,0,0,0,1.39.47,11.84,11.84,0,0,1,1.59.49,2.77,2.77,0,0,1,1.07.8,2.14,2.14,0,0,1,.48,1.41,2.33,2.33,0,0,1-.43,1.38,2.85,2.85,0,0,1-1.22,1A4.69,4.69,0,0,1,107.54,283.14Zm13.57-4.76a5.61,5.61,0,0,1-.06.86h-6.48a2.15,2.15,0,0,0,.67,1.5,2,2,0,0,0,1.45.55,1.83,1.83,0,0,0,1.78-1.07h2.42a4.12,4.12,0,0,1-1.48,2.11,4.32,4.32,0,0,1-2.67.81,4.64,4.64,0,0,1-2.3-.56,4.17,4.17,0,0,1-1.59-1.61,5,5,0,0,1-.56-2.4,5.08,5.08,0,0,1,.56-2.42,4,4,0,0,1,1.57-1.6,4.74,4.74,0,0,1,2.32-.56,4.56,4.56,0,0,1,2.26.55,3.74,3.74,0,0,1,1.55,1.55A4.6,4.6,0,0,1,121.11,278.38Zm-2.32-.64a1.76,1.76,0,0,0-.62-1.38,2.23,2.23,0,0,0-1.49-.53,2,2,0,0,0-1.41.51,2.25,2.25,0,0,0-.69,1.4Z"/>
      <path d="M237.41,447.64v.88h-3.63v2.82h2.95v.89h-2.95V456h-1.09v-8.36Zm4.19,8.47a3.43,3.43,0,0,1-1.68-.42,3.14,3.14,0,0,1-1.18-1.19,3.74,3.74,0,0,1-.42-1.8,3.59,3.59,0,0,1,.44-1.78,2.9,2.9,0,0,1,1.2-1.18,3.61,3.61,0,0,1,3.38,0,2.91,2.91,0,0,1,1.19,1.17,3.84,3.84,0,0,1,0,3.59,3.1,3.1,0,0,1-1.22,1.19A3.46,3.46,0,0,1,241.6,456.11Zm0-1a2.29,2.29,0,0,0,1.11-.28,2,2,0,0,0,.82-.83,2.54,2.54,0,0,0,.33-1.34,2.63,2.63,0,0,0-.32-1.34,1.94,1.94,0,0,0-.81-.82,2.3,2.3,0,0,0-1.09-.28,2.34,2.34,0,0,0-1.11.28,2,2,0,0,0-.79.82,2.74,2.74,0,0,0-.3,1.34,2.94,2.94,0,0,0,.29,1.36,2,2,0,0,0,.79.82A2.22,2.22,0,0,0,241.6,455.15Zm5.9-4.66a2,2,0,0,1,.82-.87,2.53,2.53,0,0,1,1.3-.32v1.13h-.28c-1.23,0-1.84.67-1.84,2V456h-1.09v-6.58h1.09Zm9.79-1.19a2.63,2.63,0,0,1,1.94.74,2.74,2.74,0,0,1,.75,2.08V456H258.9v-3.72a2.07,2.07,0,0,0-.5-1.5,1.73,1.73,0,0,0-1.34-.53,1.81,1.81,0,0,0-1.38.54,2.21,2.21,0,0,0-.5,1.57V456h-1.1v-6.58h1.1v.94a2.06,2.06,0,0,1,.87-.78A2.86,2.86,0,0,1,257.29,449.3Zm10.13.12-4,9.68h-1.12l1.29-3.17L261,449.42h1.21l2.07,5.33,2-5.33Zm7.1,3q0,.32,0,.66h-5.26a2.13,2.13,0,0,0,.66,1.52,2.16,2.16,0,0,0,1.48.54,2,2,0,0,0,1.17-.32,1.7,1.7,0,0,0,.67-.89h1.18a2.89,2.89,0,0,1-1.06,1.55,3.19,3.19,0,0,1-2,.59,3.33,3.33,0,0,1-1.68-.42,3,3,0,0,1-1.16-1.19,3.74,3.74,0,0,1-.42-1.8,3.78,3.78,0,0,1,.41-1.79,2.8,2.8,0,0,1,1.14-1.17,3.44,3.44,0,0,1,1.71-.42,3.3,3.3,0,0,1,1.65.4,2.87,2.87,0,0,1,1.11,1.13A3.28,3.28,0,0,1,274.52,452.46Zm-1.13-.23a2,2,0,0,0-.27-1.07,1.78,1.78,0,0,0-.76-.68,2.24,2.24,0,0,0-1-.24,2.07,2.07,0,0,0-1.42.53,2.19,2.19,0,0,0-.66,1.46Zm-45.64,23.88a3.62,3.62,0,0,1-1.36-.25,2.5,2.5,0,0,1-.95-.72,2,2,0,0,1-.38-1.07h1.13a1.1,1.1,0,0,0,.45.8,1.79,1.79,0,0,0,1.1.31,1.61,1.61,0,0,0,1-.27.86.86,0,0,0,.36-.7.66.66,0,0,0-.38-.63,4.8,4.8,0,0,0-1.19-.42,9.45,9.45,0,0,1-1.2-.39,2.08,2.08,0,0,1-.79-.59,1.53,1.53,0,0,1-.33-1,1.56,1.56,0,0,1,.3-.92,2,2,0,0,1,.85-.66,3,3,0,0,1,1.26-.25,2.7,2.7,0,0,1,1.77.55,2,2,0,0,1,.72,1.51H229a1.18,1.18,0,0,0-.42-.83,1.52,1.52,0,0,0-1-.31,1.56,1.56,0,0,0-.94.25.79.79,0,0,0-.35.66.73.73,0,0,0,.21.54,1.67,1.67,0,0,0,.53.34c.21.08.51.17.88.27a8.62,8.62,0,0,1,1.16.39,1.92,1.92,0,0,1,.75.55,1.46,1.46,0,0,1,.34,1,1.64,1.64,0,0,1-.3,1,2.09,2.09,0,0,1-.85.69A3.06,3.06,0,0,1,227.75,476.11Zm3.53-3.42a3.73,3.73,0,0,1,.41-1.77,2.9,2.9,0,0,1,1.12-1.18,3.1,3.1,0,0,1,1.59-.42,2.88,2.88,0,0,1,1.5.37,2.5,2.5,0,0,1,.95.93v-1.2H238V476h-1.1v-1.22a2.7,2.7,0,0,1-1,1,3,3,0,0,1-1.49.37,3,3,0,0,1-1.58-.43,3,3,0,0,1-1.12-1.22A3.79,3.79,0,0,1,231.28,472.69Zm5.57,0a2.68,2.68,0,0,0-.3-1.3,2.14,2.14,0,0,0-.82-.84,2.1,2.1,0,0,0-1.11-.3,2.25,2.25,0,0,0-1.12.29,2.09,2.09,0,0,0-.8.84,2.68,2.68,0,0,0-.3,1.3,2.79,2.79,0,0,0,.3,1.32,2.19,2.19,0,0,0,.8.85,2.25,2.25,0,0,0,1.12.29,2.19,2.19,0,0,0,1.11-.29,2.1,2.1,0,0,0,.82-.85A2.75,2.75,0,0,0,236.85,472.7Zm-.73-5.24a1.23,1.23,0,0,1-.37.92,1.32,1.32,0,0,1-.92.34,1.29,1.29,0,0,1-.91-.35,1.18,1.18,0,0,1-.37-.91,1.21,1.21,0,0,1,.37-.92,1.4,1.4,0,0,1,1.83,0A1.21,1.21,0,0,1,236.12,467.46Zm-.64,0a.62.62,0,0,0-.19-.48.63.63,0,0,0-.46-.19.64.64,0,0,0-.46.19.65.65,0,0,0-.18.48.71.71,0,0,0,.18.5.64.64,0,0,0,.46.19.63.63,0,0,0,.46-.19A.68.68,0,0,0,235.48,467.44Zm6.77,7.55,2-5.57h1.16L242.87,476H241.6L239,469.42h1.18Zm10.28-2.53c0,.21,0,.43,0,.66h-5.26a2.13,2.13,0,0,0,.66,1.52,2.16,2.16,0,0,0,1.48.54,2,2,0,0,0,1.18-.32,1.75,1.75,0,0,0,.67-.89h1.17a2.82,2.82,0,0,1-1,1.55,3.24,3.24,0,0,1-2,.59,3.38,3.38,0,0,1-1.68-.42,3,3,0,0,1-1.15-1.19,3.74,3.74,0,0,1-.42-1.8,3.67,3.67,0,0,1,.41-1.79,2.8,2.8,0,0,1,1.14-1.17,3.65,3.65,0,0,1,3.36,0,2.85,2.85,0,0,1,1.1,1.13A3.28,3.28,0,0,1,252.53,472.46Zm-1.13-.23a2,2,0,0,0-.28-1.07,1.7,1.7,0,0,0-.75-.68,2.28,2.28,0,0,0-1.05-.24,2,2,0,0,0-1.41.53,2.11,2.11,0,0,0-.66,1.46Zm3.66-5.11V476H254v-8.88Zm7.39,9a3.62,3.62,0,0,1-1.36-.25,2.5,2.5,0,0,1-.95-.72,2,2,0,0,1-.38-1.07h1.13a1.1,1.1,0,0,0,.45.8,1.78,1.78,0,0,0,1.09.31,1.62,1.62,0,0,0,1-.27.86.86,0,0,0,.36-.7.66.66,0,0,0-.39-.63,4.55,4.55,0,0,0-1.18-.42,9.45,9.45,0,0,1-1.2-.39,2.19,2.19,0,0,1-.8-.59,1.59,1.59,0,0,1-.32-1,1.56,1.56,0,0,1,.3-.92,2,2,0,0,1,.85-.66,3,3,0,0,1,1.26-.25,2.7,2.7,0,0,1,1.77.55,2,2,0,0,1,.72,1.51H263.7a1.15,1.15,0,0,0-.43-.83,1.48,1.48,0,0,0-1-.31,1.56,1.56,0,0,0-.94.25.79.79,0,0,0-.35.66.73.73,0,0,0,.21.54,1.74,1.74,0,0,0,.52.34c.22.08.52.17.89.27a8.62,8.62,0,0,1,1.16.39,1.92,1.92,0,0,1,.75.55,1.46,1.46,0,0,1,.34,1,1.64,1.64,0,0,1-.3,1,2.09,2.09,0,0,1-.85.69A3.1,3.1,0,0,1,262.45,476.11Zm6.81,0a3.38,3.38,0,0,1-1.68-.42,3.07,3.07,0,0,1-1.18-1.19,3.74,3.74,0,0,1-.42-1.8,3.58,3.58,0,0,1,.43-1.78,3,3,0,0,1,1.2-1.18,3.63,3.63,0,0,1,3.39,0,2.89,2.89,0,0,1,1.18,1.17,3.77,3.77,0,0,1,0,3.59,3.08,3.08,0,0,1-1.21,1.19A3.48,3.48,0,0,1,269.26,476.11Zm0-1a2.22,2.22,0,0,0,1.1-.28,2.07,2.07,0,0,0,.83-.83,3,3,0,0,0,0-2.68,2.06,2.06,0,0,0-.81-.82,2.33,2.33,0,0,0-1.1-.28,2.28,2.28,0,0,0-1.1.28,2,2,0,0,0-.79.82,2.74,2.74,0,0,0-.3,1.34,2.82,2.82,0,0,0,.29,1.36,2,2,0,0,0,.79.82A2.19,2.19,0,0,0,269.26,475.15ZM282,469.3a2.8,2.8,0,0,1,1.37.33,2.23,2.23,0,0,1,1,.95,3.19,3.19,0,0,1,.35,1.54V476h-1.08v-3.72a2.11,2.11,0,0,0-.49-1.5,1.71,1.71,0,0,0-1.31-.53,1.78,1.78,0,0,0-1.36.55,2.27,2.27,0,0,0-.5,1.58V476h-1.08v-3.72a2.11,2.11,0,0,0-.49-1.5,1.69,1.69,0,0,0-1.31-.53,1.78,1.78,0,0,0-1.36.55,2.27,2.27,0,0,0-.5,1.58V476h-1.09v-6.58h1.09v.95a2.11,2.11,0,0,1,.86-.79,2.73,2.73,0,0,1,1.21-.28,2.85,2.85,0,0,1,1.47.38,2.2,2.2,0,0,1,.94,1.09,2.12,2.12,0,0,1,.92-1.08A2.62,2.62,0,0,1,282,469.3ZM229.29,495l2-5.57h1.17L229.92,496h-1.28l-2.58-6.58h1.18Zm10.28-2.53a5.07,5.07,0,0,1,0,.66h-5.25a2.13,2.13,0,0,0,.66,1.52,2.15,2.15,0,0,0,1.47.54,2,2,0,0,0,1.18-.32,1.75,1.75,0,0,0,.67-.89h1.18a2.89,2.89,0,0,1-1.06,1.55,3.22,3.22,0,0,1-2,.59,3.38,3.38,0,0,1-1.68-.42,3.06,3.06,0,0,1-1.15-1.19,3.74,3.74,0,0,1-.42-1.8,3.78,3.78,0,0,1,.41-1.79,2.8,2.8,0,0,1,1.14-1.17,3.4,3.4,0,0,1,1.7-.42,3.32,3.32,0,0,1,1.66.4,2.78,2.78,0,0,1,1.1,1.13A3.18,3.18,0,0,1,239.57,492.46Zm-1.13-.23a2,2,0,0,0-.27-1.07,1.78,1.78,0,0,0-.76-.68,2.24,2.24,0,0,0-1-.24,2,2,0,0,0-1.42.53,2.19,2.19,0,0,0-.66,1.46Zm3.9-1.91v3.88a.91.91,0,0,0,.21.68,1,1,0,0,0,.71.2h.8V496h-1a2,2,0,0,1-1.37-.42,1.78,1.78,0,0,1-.46-1.38v-3.88h-.85v-.9h.85v-1.65h1.09v1.65h1.72v.9Zm9,2.14q0,.32,0,.66h-5.26a2.13,2.13,0,0,0,.66,1.52,2.16,2.16,0,0,0,1.48.54,2,2,0,0,0,1.17-.32,1.7,1.7,0,0,0,.67-.89h1.18a2.92,2.92,0,0,1-1.05,1.55,3.24,3.24,0,0,1-2,.59,3.33,3.33,0,0,1-1.68-.42,3,3,0,0,1-1.15-1.19,3.74,3.74,0,0,1-.42-1.8,3.78,3.78,0,0,1,.4-1.79,2.86,2.86,0,0,1,1.14-1.17,3.44,3.44,0,0,1,1.71-.42,3.3,3.3,0,0,1,1.65.4,2.87,2.87,0,0,1,1.11,1.13A3.28,3.28,0,0,1,251.38,492.46Zm-1.12-.23a2.05,2.05,0,0,0-.28-1.07,1.78,1.78,0,0,0-.76-.68,2.24,2.24,0,0,0-1-.24,2.07,2.07,0,0,0-1.42.53,2.19,2.19,0,0,0-.66,1.46Zm3.66-1.74a2.07,2.07,0,0,1,.81-.87,2.57,2.57,0,0,1,1.31-.32v1.13h-.29c-1.22,0-1.83.67-1.83,2V496h-1.1v-6.58h1.1Zm3,2.2a3.73,3.73,0,0,1,.41-1.77,3,3,0,0,1,1.12-1.18,3.1,3.1,0,0,1,1.59-.42,2.88,2.88,0,0,1,1.5.37,2.5,2.5,0,0,1,.95.93v-1.2h1.11V496h-1.11v-1.22a2.7,2.7,0,0,1-1,1,3,3,0,0,1-1.49.37,3,3,0,0,1-1.58-.43,3.07,3.07,0,0,1-1.12-1.22A3.79,3.79,0,0,1,256.89,492.69Zm5.57,0a2.68,2.68,0,0,0-.3-1.3,2.18,2.18,0,0,0-.81-.84,2.16,2.16,0,0,0-1.12-.3,2.25,2.25,0,0,0-1.12.29,2.09,2.09,0,0,0-.8.84,2.68,2.68,0,0,0-.3,1.3,2.79,2.79,0,0,0,.3,1.32,2.19,2.19,0,0,0,.8.85,2.31,2.31,0,0,0,2.24,0,2.14,2.14,0,0,0,.81-.85A2.75,2.75,0,0,0,262.46,492.7Zm6.15-3.4a2.67,2.67,0,0,1,1.95.74,2.78,2.78,0,0,1,.74,2.08V496h-1.08v-3.72a2.07,2.07,0,0,0-.49-1.5,1.76,1.76,0,0,0-1.34-.53,1.81,1.81,0,0,0-1.38.54,2.21,2.21,0,0,0-.51,1.57V496h-1.09v-6.58h1.09v.94a2.14,2.14,0,0,1,.88-.78A2.81,2.81,0,0,1,268.61,489.3Zm10.48,3.16c0,.21,0,.43,0,.66h-5.26a2.13,2.13,0,0,0,.66,1.52,2.16,2.16,0,0,0,1.48.54,2,2,0,0,0,1.18-.32,1.75,1.75,0,0,0,.67-.89H279a2.82,2.82,0,0,1-1.05,1.55,3.24,3.24,0,0,1-2,.59,3.38,3.38,0,0,1-1.68-.42,3,3,0,0,1-1.15-1.19,3.74,3.74,0,0,1-.42-1.8,3.67,3.67,0,0,1,.41-1.79,2.8,2.8,0,0,1,1.14-1.17,3.65,3.65,0,0,1,3.36,0,2.85,2.85,0,0,1,1.1,1.13A3.28,3.28,0,0,1,279.09,492.46Zm-1.13-.23a2,2,0,0,0-.28-1.07,1.7,1.7,0,0,0-.75-.68,2.28,2.28,0,0,0-1.05-.24,2,2,0,0,0-1.41.53,2.11,2.11,0,0,0-.66,1.46Zm3.66-1.74a2,2,0,0,1,.82-.87,2.53,2.53,0,0,1,1.3-.32v1.13h-.28c-1.23,0-1.84.67-1.84,2V496h-1.09v-6.58h1.09Z"/>
      <path d="M255,522a50,50,0,1,0-50-50A50,50,0,0,0,255,522Z" fill="none" stroke="#fcf2d6" stroke-miterlimit="10" stroke-width="7"/>
      <path d="M255,422a50,50,0,1,1-38.63,18.25" fill="none" stroke="#f3a917" stroke-miterlimit="10" stroke-width="7"/>
      <a xlink:href="/operation-mindfall.html" target="_parent" cursor="pointer"><rect id="anchor" x="30" y="574.72" width="274.76" height="31.56" opacity="0"/></a>
    </g>
  </g>
</svg>
