<svg xmlns="http://www.w3.org/2000/svg" width="907.2019" height="356.9567" viewBox="0 0 907.2019 356.9567">
  <defs>
    <style>
      .cls-1 {
        fill: #fff;
      }
    </style>
  </defs>
  <g id="Layer_2" data-name="Layer 2">
    <g id="Layer_1-2" data-name="Layer 1">
      <g>
        <path d="M208.75,198.4068l4.1867,1.1469-6.1051,5.9063c-.3218-1.3254-.4983-2.3357-.8275-3.2934a3.9048,3.9048,0,0,0-.9433-1.3706c-2.2775-2.3178-4.5353-4.6592-6.9106-6.8736a4.4308,4.4308,0,0,0-2.5566-1.1591c-2.82-.1457-5.6521-.0541-8.6937-.0541v22.7769l112.0893,3.5012V206.224l-2.6474-.1718V202.874c.1042-.0751.25-.2645.3558-.2441,2.9.5611,3.5178-1.1547,3.9765-3.5494,2.0148-10.52,4.5177-20.959,6.166-31.533.8634-5.5382.354-11.2945.3815-16.9527.0028-.5727-.6786-1.1178-.847-1.73a6.1164,6.1164,0,0,1-.37-2.6334c.5124-2.6049,1.2269-5.17,1.92-7.9818h3.13c.7152,2.7786,1.4378,5.4137,2.0447,8.0751a5.05,5.05,0,0,1-.2191,1.9371c-.3783,1.9735-.9444,3.9246-1.1555,5.9143-1.2252,11.5467,2.7076,22.3064,5.2137,33.2785.9976,4.3674,2.0718,8.72,3.2525,13.0409a5.2254,5.2254,0,0,0,2.0415,2.44c.2317,1.2035,1.5722,3.2221-1.4509,3.3523v13.2532c3.76.1783,7.552.4059,11.3471.5283q13.3621.4311,26.7277.7574a3.5861,3.5861,0,0,0,2.2953-.51c4.4429-4.05,10.0025-5.44,15.612-6.6839,2.8971-.6427,5.8447-1.0579,8.7894-1.5795V199.6454l-3.0124-.2176c-.4539-1.9076-.4539-1.9076,4.1038-2.3954.6145-5.03,3.3317-8.8562,7.4911-11.6954a15.3092,15.3092,0,0,1,9.6421-2.7627c6.9053.3429,12.984,6.0871,14.9677,13.93l3.0586,1.8791-2.1048,1.9481c0,3.0523.0646,6.6273-.03,10.1979-.04,1.5166.5543,1.8356,1.9669,2.1363,5.42,1.1537,10.809,2.4739,16.1628,3.9064a14.3678,14.3678,0,0,1,3.92,2.1118,6.4835,6.4835,0,0,1,3.0717,5.8871c-.0775,8.1655-.0284,16.3321-.0283,24.4984v2.8515h28.7738V225.4723l-2.1324-2.2689.4667-.6237h5.8621c-.3079-5.2385-.6032-10.2644-.9085-15.46,2.1771.2555,2.2358-1.1405,2.2274-2.8q-.0692-13.749-.0018-27.4983c.0076-1.6493-.01-3.0793-2.3038-2.7093v-3.6968l.69.2755a12.2322,12.2322,0,0,0,1.5287-3.0165,22.8767,22.8767,0,0,0,.0643-4.2987l4.3609-.2674c0-4.2454,1.166-8.9383-.3206-12.5346-1.5562-3.7642-.5076-7.1992-1.166-10.6978-.4049-2.1514.447-3.5708,2.5489-4.0833,2.8638-.6981,3.4727-2.473,3.4075-5.2726-.1975-8.4893-.0714-16.9862-.0714-25.6943l-2.3607.6236c0-3.2923-.0788-6.5027.0747-9.702.0267-.5581.9532-1.3948,1.5978-1.5508,5.2082-1.26,6.6252-4.4866,6.1134-9.6428-.5216-5.2548-.1153-10.6018-.1153-16.15l-3.491,1.1825c0-2.4-.106-4.63.0706-6.8377a2.3659,2.3659,0,0,1,1.4842-1.6113c4.8473-1.1551,6.193-4.1777,5.6-8.91-.4411-3.5185-.0869-7.1368-.0869-10.8252l2.23-.4994c0-1.4857.0142-2.9629-.0041-4.44-.0182-1.47.4694-3.2992-2.0968-2.8163V29.6038l4.1838-.2589V22.3181c-1.4751-1.0179-3.1142-1.7686-4.2311-2.9949a6.0506,6.0506,0,0,1,1.995-9.65c2.3208-.9871,2.6476-2.2939,2.4163-4.3235a14.21,14.21,0,0,1-.0083-1.5473l-1.9316-.7638A20.1655,20.1655,0,0,1,501.3608.127c.271-.2646,1.3569-.0851,1.7571.2573a18.2959,18.2959,0,0,1,2.1139,2.6151l-1.9239.7581V8.4454a21.5976,21.5976,0,0,1,3.2635,1.7467c3.7,2.86,3.5572,8.1647-.4651,10.4707a3.6086,3.6086,0,0,0-2.0555,3.9355c.1,1.4851.0206,2.9823.0206,4.7116l4.2008.3013v3.8717l-2.5135.4189v7.0405l2.589.41V52.88l7.0762-3.046c0,2.414.0275,4.5338-.0274,6.6514-.009.3485-.317.921-.5925.9947-2.3907.6394-1.9728,2.5277-1.9732,4.2379-.0017,6.57-.0007,13.14-.0007,20.2448l7.3628-3.2367c0,3.206.0823,6.08-.0656,8.9429-.0317.612-.9095,1.1723-1.3775,1.7721-.5074.65-1.4154,1.3145-1.4219,1.98-.0935,9.4912-.0637,18.9837-.0637,28.8946l6.4152-2.8082c0,3.8877.0021,7.499-.0045,11.11,0,.246.0155.6477-.1133.7151-3.1106,1.6278-1.7325,4.5255-1.7789,6.859-.1588,7.9964-.0609,15.9979-.0609,23.9974,0,.9,0,1.8008,0,2.91l4.3279.2386v6.3268c2.1616.0269,2.7863,1.2212,2.35,2.9a8.1123,8.1123,0,0,1-1.4114,2.1617l-.6458-.3155v32.3149l3.0385.4942a56.8188,56.8188,0,0,0-.8876,5.7329,72.6605,72.6605,0,0,0,.0241,7.9941c.0339.6391.8022,1.2391,1.37,2.0547.5061-.6936.7029-.8419.6848-.9561-.6326-3.9773,1.438-6.94,3.5439-9.9783,3.4526-4.9815,6.734-10.0816,10.0946-15.1271,1.66-2.4919,6.148-2.6957,7.9723-.3669,4.9784,6.3553,9.9954,12.6812,14.8848,19.1042a6.7647,6.7647,0,0,1,1.2061,3.59c.1614,3.3779.0558,6.7686.0558,10.9669,2.8879-3.0789,5.2248-5.5937,7.5882-8.0835a5.14,5.14,0,0,1,7.9737.4019c4.2059,5.5857,8.4684,11.1309,12.5528,16.8041a7.9258,7.9258,0,0,1,1.4422,4.2756c.1137,11.8316.0642,23.6647.0643,35.4974v3.0933c1.2063.0532,2.0994.1267,2.9925.127,24.1653.0063,48.3309-.0374,72.4958.0669,2.5831.0112,3.178-.7121,3.15-3.2135-.1351-11.9979-.0607-23.998-.0607-35.9974v-2.8708l-3.6827-.33v-3.3136h5.6493c.1013-1.1132.1744-1.9169.25-2.7451,1.3106-1.2663,4.6041,1.294,4.5755-2.5782h4.8857c0-1.0773,0-1.9668,0-2.8562,0-7.5-.2555-15.01.0589-22.4963.4922-11.7222,1.311-23.4321,2.1015-35.14.6841-10.1307,1.521-20.2511,2.2909-30.3761q1.4008-18.4259,2.8013-36.8517c.27-3.5624.5211-7.1262,1.0729-10.7081.38,3.9335.7827,7.865,1.135,11.801q1.725,19.2693,3.417,38.5417c1.052,12.02,1.7628,24.08,3.19,36.0549,1.9994,16.7742,1.5984,33.588,1.6874,50.4037a5.09,5.09,0,0,0,.0678.7768l3.5241,2.2885q-.1626.3858-.3251.7714h4.7548l.3052,2.8929h6.2538v3.52l-3.2346.2892v61.8714h32.2239V293.22L747.29,291.4q.1974-.3321.3948-.6643h15.9424c-.3047,3.7722-.6067,7.5116-.9244,11.4453,1.3483.0772,2.1581.1,2.9632.1748,1.4.13,1.9277-.4682,1.8827-1.8788-.0792-2.487-.0222-4.9784-.0222-7.4833,5.35-1.8373,4.3806-6.3426,4.4037-10.4722h7.2368v7.3126l4.5163,3.6078v8.7459h23.7213v-3.2c0-19.9156.3692-39.84-.0974-59.7445-.5323-22.7076,16.1958-43.7566,33.9676-50.22a8.0924,8.0924,0,0,0,.8839-.4881v-8.8193l2.9787-.276c0-1.2687.0174-2.4893-.003-3.7093-.1054-6.3149-.2677-12.6295-.2843-18.9445a5.2709,5.2709,0,0,1,1.0128-3.0037c2.1638-2.8305,4.5467-5.4926,6.7443-8.2988a5.6525,5.6525,0,0,0,1.3576-2.8932c.1627-3.5614.0639-7.1347.0639-10.8732h4.2331c0,3.483.0615,7.03-.03,10.574a4.0384,4.0384,0,0,0,1.5292,3.3507,38.4385,38.4385,0,0,1,5.7782,6.8275,11.3111,11.3111,0,0,1,1.5873,5.5792c.1807,6.9938.0719,13.9951.0719,21.1752l2.2532.6611c0,1.999.124,4.0795-.0371,6.1377-.1431,1.8273.651,2.4821,2.27,3.1636,17.3669,7.3113,28.9757,19.9,34.1827,38.1006a34.6582,34.6582,0,0,1,1.2754,9.3464q.126,58.9965.0518,117.9934c0,.7328-.0639,1.4657-.104,2.33H.2875V353.72q0-61.7466-.0117-123.4932C.2706,221.9.1455,213.5737.001,205.2487a3.3262,3.3262,0,0,1,1.735-3.23q38.7182-25.136,77.4035-50.3227a6.807,6.807,0,0,1,3.4483-.9974c6.9829-.0908,13.9676-.0451,21.2673-.0451V104.237h8.6569v87.8048h-8.5761v20.8656l74.5411,2.3185V192.7394c-5.1719,0-10.31-.1387-15.4309.1021-1.21.0568-2.3591,1.39-3.5362,2.1362l1.2-2.1031-.3564-.5962-5.2388,2.37,1.2454-1.8227c-4.1449-.097-8.1836-.9336-11.7244,1.8481l1.4016-2.0044-2.8988.5037,1.0509-2.57H178.637v-6.3091c0-5.6622-.0676-11.3256.0356-16.986.0375-2.0569-.1241-3.7209-2.4388-4.45-.659-.2075-1.1636-.9056-1.7467-1.3849-2.6657,5.0024-6.0979,6.6024-10.0981,4.7417a5.6989,5.6989,0,0,1-3.0528-7.4808c1.5416-3.3786,5.5636-4.3512,10.6025-2.4371-.1126-5.3369,2.4449-8.7047,7.4133-10.4693.66-.2345,1.0563-1.7329,1.2354-2.7083a91.3242,91.3242,0,0,1,2.3871-11.1442c.735,3.85,1.5421,7.6893,2.1706,11.5571.26,1.6,1.1053,2.4128,2.2943,3.4741,2.856,2.549,5.8865,1.9171,9.0441,1.3942a5.4847,5.4847,0,0,1,2.71.0916c-1.6293,1.32-3.36,2.5372-4.8468,4.0018a5.9713,5.9713,0,0,0-1.6492,3.0049,10.5709,10.5709,0,0,1-4.46,7.4649c-.6533.4419-1.4762,1.2718-1.484,1.932-.1,8.4754-.066,16.9524-.066,25.6138h34.3445c1.4,1.25,2.167,2.2944,3.1981,2.7942,4.22,2.0456,8.5384,3.8894,12.7752,5.9027.6669.3168,1.1007,1.124,1.7746,1.8463l-5.8838,4.4235-2.1632-3.1107,4.5575-1.9169-.0416-.7523c-4.64-2.2991-9.2419-4.6833-13.9575-6.8157-.811-.3668-2.1065.3375-3.178.5481a2.5468,2.5468,0,0,1-.6285.1244c-3.8423-.2738-7.6847-.548-11.5246-.8527-1.1235-.0892-1.8074.1066-1.2557,1.4354a6.1738,6.1738,0,0,0-5.8535-1.2758l8.6177,8.6Zm481.1451,50.7839v22.7478h4.964V249.1907Zm24.84.0978h-4.9081V271.945h4.9081Zm-17.3778-.053v22.67h4.154v-22.67Zm-13.5042-.057v22.7584h3.5718V249.1785Zm167.6927-74.1448v-16.1h-4.1092v16.1Zm13.4324.0082V158.9151h-4.141v16.1268Zm-6.7494-.0077V158.8458h-4.19v16.1884ZM706.5408,272.0035V249.23h-2.6379v22.7738Zm-27.0265-23.1466-.7187.6506v22.3692l.7295.4409c.4577-.6308,1.3035-1.2558,1.313-1.8932q.1467-9.8553,0-19.7132C680.8292,250.0867,679.9758,249.4747,679.5143,248.8569Z"/>
        <path class="cls-1" d="M208.75,198.4068l-1.2814,3.0532-8.6177-8.6a6.1738,6.1738,0,0,1,5.8535,1.2758Z"/>
        <path class="cls-1" d="M143.1383,193.1729l2.8988-.5037-1.4016,2.0044.0955-.09-8.0741,5.8095-1.9205,1.2164c-1.98.911-3.58.3362-5.0954-1.24,1.2526-.628,2.3739-1.1534,3.4611-1.7421,3.3841-1.8327,6.7552-3.6892,10.1314-5.5365Z"/>
        <path class="cls-1" d="M155.1145,194.6482l5.2388-2.37.3564.5962-1.2,2.1031-7.32,5.6177c-1.4553.21-3.0093,2.8878-4.226.1081.656-.7625,1.2313-1.4314,1.8067-2.1Z"/>
        <path d="M143.2335,193.0911c-3.3762,1.8473-6.7473,3.7038-10.1314,5.5365-1.0872.5887-2.2085,1.1141-3.4611,1.7421,1.5156,1.5764,3.1157,2.1512,5.0954,1.24-.6762,1.18-1.3525,2.3608-2.1283,3.7149L126.26,202.086c.3989-1.3529.7868-1.9425,2.59-2.2755,2.5613-.4731,4.8818-2.2235,7.32-3.3969C138.5148,195.2854,140.8783,194.197,143.2335,193.0911Z"/>
        <path d="M149.7706,198.6032c-.5754.6689-1.1507,1.3378-1.8067,2.1,1.2167,2.78,2.7707.1023,4.226-.1081l-3.0145,5.1218-5.567-5.2839Z"/>
        <path d="M136.6569,200.3935l8.0742-5.8095Z"/>
      </g>
    </g>
  </g>
</svg>
