<svg xmlns="http://www.w3.org/2000/svg" width="84.6472" height="86.8239" viewBox="0 0 84.6472 86.8239">
  <g id="Layer_2" data-name="Layer 2">
    <g id="Layer_1-2" data-name="Layer 1">
      <path d="M79.0557,19.3027s.3743.7387.7581,1.5631c2.489,5.3469,8.4544,20.5591,1.7636,36.3663-5.302,12.526-15.6028,18.4653-20.9764,21.5637C53.8438,82.6918,43.4,88.8013,30.1672,86.1975,11.7724,82.5781,3.7847,65.2738,3.13,63.7922-1.0546,54.32-.0757,45.8847.6357,39.7552,1.1964,34.9235,3.8786,17.4158,17.2709,6.827c.164-.13.3781-.2987.6754-.5209C28.3442-1.4667,41.1679-.0828,45.9791.4363a57.8321,57.8321,0,0,1,22.042,7.9468C75.704,13.227,78.4317,18.1271,79.0557,19.3027Z" fill="#231f20"/>
    </g>
  </g>
</svg>
