<svg xmlns="http://www.w3.org/2000/svg" width="88.1946" height="84.2953" viewBox="0 0 88.1946 84.2953">
  <g id="Layer_2" data-name="Layer 2">
    <g id="Layer_1-2" data-name="Layer 1">
      <path d="M88.179,42.2883s-.05.8266-.1361,1.732c-.5558,5.8715-3.1,22.0123-16.8639,32.268-10.9071,8.1269-22.7973,8.0435-29,8-7.8-.0547-19.8993-.0635-30-9-14.041-12.4225-12.1843-31.3907-12-33,1.1782-10.288,6.2874-17.0711,10-22,2.9265-3.8853,14.0919-17.6347,31-20,.207-.0289.4771-.0665.846-.108C54.9258-1.2691,65.29,6.408,69.179,9.2883a57.8337,57.8337,0,0,1,15,18C88.3588,35.3518,88.2349,40.9586,88.179,42.2883Z" fill="#231f20"/>
    </g>
  </g>
</svg>
