<svg xmlns="http://www.w3.org/2000/svg" xmlns:xlink="http://www.w3.org/1999/xlink" width="335.1745" height="647" viewBox="0 0 335.1745 647">
  <defs>
    <style>
      .cls-1 {
        fill: #0a1013;
      }

      .cls-2, .cls-7, .cls-8 {
        fill: none;
      }

      .cls-3 {
        fill-opacity: 0.75;
      }

      .cls-4 {
        fill: #fff;
      }

      .cls-5 {
        fill: #fafafa;
      }

      .cls-6 {
        fill: #c99d2b;
      }

      .cls-7 {
        stroke: #fcf2d6;
      }

      .cls-7, .cls-8 {
        stroke-miterlimit: 10;
        stroke-width: 7px;
      }

      .cls-8 {
        stroke: #f3a917;
      }

      .cls-9 {
        opacity: 0;
      }
    </style>
  </defs>
  <g id="Layer_2" data-name="Layer 2">
    <g id="Layer_1-2" data-name="Layer 1">
      <image width="1921" height="1044" transform="translate(0 67.9714) scale(0.1745)" xlink:href="Asset%2011.png"/>
      <path class="cls-1" d="M.1615,5a5,5,0,0,1,5-5h325a5,5,0,0,1,5,5V68h-335Z"/>
      <path d="M.1615,265.467a5,5,0,0,1,5-5h325a5.0006,5.0006,0,0,1,5,5v43.968h-335Z"/>
      <path class="cls-2" d="M.1615,68h335V268h-335Z"/>
      <rect class="cls-3" x="240.1615" y="225" width="90" height="20"/>
      <path class="cls-4" d="M248.6565,233.024a2.2671,2.2671,0,0,1-.708,1.74,3.0165,3.0165,0,0,1-2.124.66h-1.692V239h-.84v-8.388h2.532a2.9972,2.9972,0,0,1,2.112.66A2.2626,2.2626,0,0,1,248.6565,233.024Zm-2.832,1.68q1.968,0,1.968-1.68a1.6463,1.6463,0,0,0-.468-1.272,2.1678,2.1678,0,0,0-1.5-.432h-1.692v3.384Zm4.541-1.092a2.0622,2.0622,0,0,1,.84-.948,2.7431,2.7431,0,0,1,1.404-.336v.876h-.228a1.8421,1.8421,0,0,0-2.016,2.136V239h-.84v-6.552h.84Zm3.388-2.4a.5892.5892,0,0,1-.432-.18.6033.6033,0,0,1-.18-.444.5644.5644,0,0,1,.18-.432.6083.6083,0,0,1,.8639,0,.5642.5642,0,0,1,.18.432.603.603,0,0,1-.18.444A.5888.5888,0,0,1,253.7535,231.212Zm.42,1.236V239h-.84v-6.552Zm3.618,6.648a3.0968,3.0968,0,0,1-1.848-.516,1.9269,1.9269,0,0,1-.7921-1.428h.8641a1.2648,1.2648,0,0,0,.516.9,2.0967,2.0967,0,0,0,1.248.336,1.6069,1.6069,0,0,0,1.068-.324,1,1,0,0,0,.396-.804.7475.7475,0,0,0-.216-.552,1.4625,1.4625,0,0,0-.552-.336,7.1277,7.1277,0,0,0-.888-.276,9.0858,9.0858,0,0,1-1.188-.384,2.1025,2.1025,0,0,1-.78-.564,1.5684,1.5684,0,0,1-.312-1.02,1.5087,1.5087,0,0,1,.2879-.888,1.9663,1.9663,0,0,1,.8161-.648,2.8694,2.8694,0,0,1,1.2-.24,2.5746,2.5746,0,0,1,1.704.54,1.92,1.92,0,0,1,.696,1.464h-.84a1.2474,1.2474,0,0,0-.4561-.924,1.646,1.646,0,0,0-1.1279-.36,1.6635,1.6635,0,0,0-1.032.3.9026.9026,0,0,0-.3961.744.9121.9121,0,0,0,.2281.636,1.7837,1.7837,0,0,0,.588.384q.3478.132.936.3a8.8371,8.8371,0,0,1,1.1279.372,1.9569,1.9569,0,0,1,.72.528,1.4132,1.4132,0,0,1,.312.924,1.6372,1.6372,0,0,1-.288.948,1.9793,1.9793,0,0,1-.804.648A2.7879,2.7879,0,0,1,257.7915,239.096Zm9.249-3.708q0,.432-.024.66H261.58a2.6359,2.6359,0,0,0,.36,1.272,2.1626,2.1626,0,0,0,.852.804,2.54,2.54,0,0,0,1.1519.264,2.2864,2.2864,0,0,0,1.3681-.396,1.85,1.85,0,0,0,.7439-1.068h.888a2.7914,2.7914,0,0,1-1.0319,1.572,3.1336,3.1336,0,0,1-1.9681.6,3.3426,3.3426,0,0,1-1.6559-.408,3.0157,3.0157,0,0,1-1.152-1.176,4.1209,4.1209,0,0,1,0-3.576,2.8363,2.8363,0,0,1,1.14-1.176,3.3681,3.3681,0,0,1,1.668-.408,3.1688,3.1688,0,0,1,1.6321.408,2.7557,2.7557,0,0,1,1.08,1.104A3.0591,3.0591,0,0,1,267.0405,235.388Zm-.852-.024a2.2926,2.2926,0,0,0-.3-1.248,1.9456,1.9456,0,0,0-.828-.78,2.5389,2.5389,0,0,0-1.1519-.264,2.2884,2.2884,0,0,0-1.596.6,2.3964,2.3964,0,0,0-.732,1.692Zm2.689-1.752a2.0622,2.0622,0,0,1,.84-.948,2.7427,2.7427,0,0,1,1.4039-.336v.876h-.2279a1.8421,1.8421,0,0,0-2.016,2.136V239h-.84v-6.552h.84Zm8.301-.456h-1.524V239h-.84v-5.844h-.912v-.708h.912v-.456a2.0563,2.0563,0,0,1,.54-1.572,2.5881,2.5881,0,0,1,1.776-.504v.72a1.6829,1.6829,0,0,0-1.1521.312,1.4068,1.4068,0,0,0-.3239,1.044v.456h1.524Zm1.622.456a2.0622,2.0622,0,0,1,.84-.948,2.7431,2.7431,0,0,1,1.404-.336v.876h-.228a1.8421,1.8421,0,0,0-2.016,2.136V239h-.84v-6.552h.84Zm2.584,2.1a3.75,3.75,0,0,1,.3959-1.764,2.8818,2.8818,0,0,1,1.116-1.176,3.1559,3.1559,0,0,1,1.62-.42,2.91,2.91,0,0,1,1.608.432,2.5033,2.5033,0,0,1,.9839,1.104v-1.44h.84V239h-.84v-1.452a2.6563,2.6563,0,0,1-.996,1.116,2.9093,2.9093,0,0,1-1.608.432,3.1328,3.1328,0,0,1-1.608-.42,2.9645,2.9645,0,0,1-1.116-1.188A3.8233,3.8233,0,0,1,281.3845,235.712Zm5.7239.012a2.8847,2.8847,0,0,0-.324-1.392,2.298,2.298,0,0,0-.888-.924,2.3728,2.3728,0,0,0-1.224-.324,2.4915,2.4915,0,0,0-1.2479.312,2.241,2.241,0,0,0-.876.912,2.9563,2.9563,0,0,0-.312,1.404,3.075,3.075,0,0,0,.312,1.416,2.3242,2.3242,0,0,0,.876.924,2.4915,2.4915,0,0,0,1.2479.312,2.3728,2.3728,0,0,0,1.224-.324,2.298,2.298,0,0,0,.888-.924A2.8847,2.8847,0,0,0,287.1084,235.724ZM295.62,239l-2.7-2.94V239h-.84v-8.88h.84v5.256l2.64-2.928h1.176l-3.108,3.264L296.76,239Zm2.525-5.388a2.0617,2.0617,0,0,1,.84-.948,2.7427,2.7427,0,0,1,1.4039-.336v.876h-.2279a1.8421,1.8421,0,0,0-2.016,2.136V239h-.84v-6.552h.84Zm3.112,5.448a.6033.6033,0,0,1-.444-.18.6262.6262,0,0,1-.168-.444.5848.5848,0,0,1,.168-.432.6033.6033,0,0,1,.444-.18.5506.5506,0,0,1,.42.18.5644.5644,0,0,1,.18.432.6033.6033,0,0,1-.18.444A.5506.5506,0,0,1,301.2565,239.06Zm3.661-7.908v-.756h2.04V239h-.8519v-7.848Zm8.519-.096L310.0885,239h-.852l3.384-7.872h-4.8v-.72h5.616Zm6.135.06H315.18v3.072a2.1391,2.1391,0,0,1,.876-.684,2.85,2.85,0,0,1,1.248-.276,2.8883,2.8883,0,0,1,1.608.408,2.2727,2.2727,0,0,1,.9,1.044,3.3989,3.3989,0,0,1,.276,1.368,3.5141,3.5141,0,0,1-.3241,1.524,2.4073,2.4073,0,0,1-.9719,1.068,3.4911,3.4911,0,0,1-3.624-.24,2.7322,2.7322,0,0,1-.936-1.74h.828a1.9519,1.9519,0,0,0,.72,1.224,2.2214,2.2214,0,0,0,1.392.432,1.9631,1.9631,0,0,0,1.572-.612,2.4239,2.4239,0,0,0,.54-1.644,2.1206,2.1206,0,0,0-.54-1.548,2.0429,2.0429,0,0,0-1.548-.564,2.2925,2.2925,0,0,0-1.224.324,1.9675,1.9675,0,0,0-.78.876H314.4v-4.764h5.172Zm2.39,6.492-1.2479,3.144h-.576l.888-3.144Zm4.8341-3.408v.708h-4.668V234.2Z"/>
      <path class="cls-5" d="M.1615,250h335V642a5.0006,5.0006,0,0,1-5,5h-325a5,5,0,0,1-5-5Z"/>
      <path class="cls-4" d="M92.1615,23.2185h.8325c2.7715,0,5.5435.0171,8.3145-.0132.622-.0068.869.1322.964.8085.841,5.9861,1.731,11.9656,2.803,17.9715.899-6.2268,1.798-12.4535,2.703-18.72h9.929V61.9148h-7.38V41.04l-.133-.0076q-1.4535,10.44-2.908,20.8982h-4.676q-1.4685-10.5393-2.932-21.0462l-.158.0122v21.021h-7.359Z"/>
      <path class="cls-4" d="M132.9735,23.2183h6.148c1.458,0,1.456,0,1.748,1.4235q1.6935,8.2475,3.389,16.4942a1.3778,1.3778,0,0,0,.362.7317V23.26h7.094V61.9072h-7.637q-1.956-9.04-3.92-18.1184l-.117.0139V61.8963h-7.067Z"/>
      <path class="cls-4" d="M155.2705,61.9055v-38.62a2.6705,2.6705,0,0,1,.41-.0629c4.088.041,8.176.0591,12.262.15a16.64,16.64,0,0,1,2.858.4543,3.3421,3.3421,0,0,1,2.783,2.877,22.2973,22.2973,0,0,1,.462,3.911q.0615,11.9843-.006,23.9688a22.9622,22.9622,0,0,1-.578,4.2938,2.8842,2.8842,0,0,1-2.424,2.414,40.3,40.3,0,0,1-5.423.6422c-3.252.1019-6.51.03-9.765.0269C155.6685,61.96,155.4885,61.927,155.2705,61.9055Zm8.193-32.4008v25.18c0,.1612-.056.3559.014.4762.122.2087.302.5034.493.5323,1.389.2107,1.859-.2472,1.86-1.7658q.0045-10.9637-.005-21.9275a4.8071,4.8071,0,0,0-.156-1.5927,1.6844,1.6844,0,0,0-.87-.87A3.9188,3.9188,0,0,0,163.4635,29.5047Z"/>
      <path class="cls-4" d="M195.6185,23.248h9.961c1.664,12.8643,3.327,25.7245,5.008,38.7153h-1.766c-.915,0-1.83.0088-2.744-.0026-.889-.011-1.835.2133-2.614-.7452V57.15c.866-.113.88-.7491.806-1.5024-.286-2.9141-.509-5.8347-.818-8.7462-.103-.9744-.393-1.9292-.631-3.0513,1.116.1971,1.882.0582,2.169-.9062a2.9724,2.9724,0,0,0,.017-.92c-.012-.3743-.061-.7481-.06-1.122a3.5038,3.5038,0,0,0-1.076-2.7277c-.421-.4145-1.15-1.0122-.755-1.9147.056-.1272-.124-.4543-.281-.5583a4.3593,4.3593,0,0,0-1.287-.65,1.0962,1.0962,0,0,0-.948.23c-.426.5731-.861.906-1.626.5369-.019.07-.039.1407-.058.2111l.788.5946c-.964.6041-1.063,1.9471-2.337,2.3541a2.0746,2.0746,0,0,0-1.271,2.1672c.06,2.5239.159,5.0483.334,7.5663a1.4933,1.4933,0,0,0,.841,1.0467c.52.1824.382.4709.376.7809-.034,1.693-.15,3.3883-.095,5.0782.063,1.9166.262,3.83.433,5.7412.038.4228-.069.6047-.49.6044-2.228-.002-4.457-.001-6.833-.001C192.3175,49.03,193.9635,36.1753,195.6185,23.248Z"/>
      <path class="cls-4" d="M177.3805,23.2622H190.33v6.211h-4.791v8.0416h4.792v6.34h-4.847V61.9263h-8.103Z"/>
      <path class="cls-4" d="M213.0525,23.2563h8.12V55.6149h4.83v6.3016h-12.95Z"/>
      <path class="cls-4" d="M242.1635,55.6161v6.2784h-12.986V23.2607h8.093V55.6161Z"/>
      <path class="cls-4" d="M129.3785,61.9307h-8.045V23.271h8.045Z"/>
      <path class="cls-4" d="M198.8105,12.6439a1.7721,1.7721,0,0,1,2.338,1.0429,27.7752,27.7752,0,0,0,2.597,4.0029v-5.06h1.621v8.3487c-1.323.3392-1.532.258-2.24-.8792-.847-1.3615-1.696-2.7226-2.665-4.2792v5.2112h-1.651Z"/>
      <path class="cls-4" d="M156.67,21.0291V12.6266c1.475,0,2.917-.0479,4.355.02a1.68,1.68,0,0,1,1.491,1.2922,3.239,3.239,0,0,1-1.097,3.8938c.242.5178.487,1.0463.736,1.5732s.503,1.0539.768,1.6088a1.4622,1.4622,0,0,1-.271.074c-1.558.0435-1.558.043-2.189-1.3963a4.6222,4.6222,0,0,1-.281-.6671,1.4179,1.4179,0,0,0-1.879-1.1969v3.2012Zm1.664-4.6154c.668,0,1.254,0,1.84,0,.63,0,.838-.388.842-.9375.004-.5843.101-1.2842-.699-1.4062a13.3989,13.3989,0,0,0-1.983-.02Z"/>
      <path class="cls-4" d="M135.8505,16.8464c-.041.4809-.058.9651-.127,1.4419-.324,2.2434-1.205,2.97-3.456,2.8721-2.368-.1025-3.105-.7507-3.253-3.1463a16.7264,16.7264,0,0,1,.213-3.5124,2.1164,2.1164,0,0,1,1.934-1.8843,10.9829,10.9829,0,0,1,2.562.02,1.9087,1.9087,0,0,1,1.672,1.4458c.242.8973.378,1.8236.56,2.7372Zm-5.184-.0224h.011a13.1824,13.1824,0,0,0,.01,1.4472c.107.9676.543,1.3177,1.566,1.3441,1.143.0295,1.67-.3028,1.776-1.2892a15.6017,15.6017,0,0,0,.045-2.6471c-.078-1.236-.574-1.672-1.708-1.656-1.165.0165-1.606.4438-1.695,1.6748C130.6435,16.0713,130.6665,16.4485,130.6665,16.824Z"/>
      <path class="cls-4" d="M188.6455,16.8719c.109-.7956.165-1.6029.339-2.384a2.2493,2.2493,0,0,1,2.037-1.8942,10.1061,10.1061,0,0,1,2.327.0057,2.1862,2.1862,0,0,1,2.01,2.0976,20.3834,20.3834,0,0,1-.031,4.3894c-.2,1.5158-1.236,2.0861-3.138,2.0818-2.428-.0056-3.278-.81-3.427-3.2441-.021-.3478-.045-.6955-.068-1.0432Zm1.717.09a14.825,14.825,0,0,0,.149,1.5311c.162.8409.585,1.1147,1.585,1.1219,1.051.0076,1.573-.2735,1.662-1.1267a16.0891,16.0891,0,0,0,.039-3.1187c-.092-1.0127-.617-1.3582-1.652-1.3463-1.084.0125-1.487.32-1.658,1.3476-.083.5-.083,1.0135-.125,1.5911Z"/>
      <path class="cls-4" d="M153.5875,12.5723v1.5842H150.87c-1.191,0-1.192.0006-1.181,1.21.002.2107.02.4212.036.7555h3.335V17.548l-3.29.1679a1.3337,1.3337,0,0,0-.073.2633c-.061,1.5817-.06,1.58,1.549,1.5827.699.001,1.399.0089,2.098.0173a1.01,1.01,0,0,1,.212.0652v1.4542c-1.411,0-2.826.0468-4.235-.019a1.2613,1.2613,0,0,1-1.27-1.3195c-.032-1.908-.047-3.8177.002-5.725a1.4023,1.4023,0,0,1,1.522-1.4513C150.8825,12.5382,152.1945,12.5723,153.5875,12.5723Z"/>
      <path class="cls-4" d="M173.0985,21.0942a4.4082,4.4082,0,0,0-.556.003c-.903.1493-1.497-.1164-1.593-1.1209-.057-.5961-.409-.8258-.996-.7406a3.946,3.946,0,0,1-.564.0041c-1.404,0-1.426-.007-1.853,1.3275-.132.4124-.318.5679-.738.5333-.371-.0307-.747-.0065-1.231-.0065.431-1.29.834-2.5023,1.242-3.7133.488-1.4487.96-2.903,1.492-4.3355a.876.876,0,0,1,.679-.4476c.483.0159,1.3.0657,1.39.3146C171.3355,15.5818,172.1845,18.293,173.0985,21.0942Zm-4.673-3.41h1.864c-.287-.915-.553-1.7577-.892-2.8361C169.0255,15.9328,168.7385,16.7729,168.4255,17.6843Z"/>
      <path class="cls-4" d="M140.5115,17.788v3.2657h-1.6v-8.411c1.464,0,2.903-.0541,4.336.0207a1.5767,1.5767,0,0,1,1.508,1.4445,7.1513,7.1513,0,0,1,.058,2.0707,1.9421,1.9421,0,0,1-2.395,1.784C141.8085,17.9113,141.2,17.8514,140.5115,17.788Zm.047-1.14a9.058,9.058,0,0,0,2.446-.5749,1.87,1.87,0,0,0-.034-1.6328,8.5208,8.5208,0,0,0-2.412-.56Z"/>
      <path class="cls-4" d="M180.8345,14.1244h-2.274v6.9274H176.88V14.129h-2.257V12.63h6.212Z"/>
      <path class="cls-4" d="M183.9735,12.5894h1.518v8.4521h-1.518Z"/>
      <path class="cls-4" d="M200.4815,56.4727h.998c.157,1.7821.315,3.5792.478,5.4394h-2.577a3.3114,3.3114,0,0,1,.103-.9379,5.5473,5.5473,0,0,0,.304-2.91c-.025-.2079.194-.4434.295-.6689C200.2075,57.116,200.3255,56.8338,200.4815,56.4727Z"/>
      <path class="cls-4" d="M202.5825,37.624c.275.419.565.8295.813,1.2643.049.086-.03.3024-.119.3885a.3622.3622,0,0,1-.355-.0155c-.316-.4542-.743-.8809-.633-1.49Z"/>
      <path d="M40.8175,429h-2.24l-5.072-7.664V429h-2.24V417.816h2.24l5.072,7.68v-7.68h2.24Zm9.67-7.504a4.1661,4.1661,0,0,1,.784,1.376,4.8827,4.8827,0,0,1,.288,1.696,4.572,4.572,0,0,1-.624,2.4,4.2536,4.2536,0,0,1-1.664,1.616,4.8513,4.8513,0,0,1-2.336.56,4.6034,4.6034,0,0,1-2.704-.816l-.608.672h-1.36l1.232-1.344a4.35,4.35,0,0,1-.784-1.392,5.1428,5.1428,0,0,1-.272-1.696,4.7653,4.7653,0,0,1,.592-2.4,4.1691,4.1691,0,0,1,1.648-1.6,4.7073,4.7073,0,0,1,2.32-.576,4.617,4.617,0,0,1,2.752.832l.624-.688h1.36Zm-5.776,3.072a3.4023,3.4023,0,0,0,.288,1.44l3.328-3.632a2.2471,2.2471,0,0,0-1.36-.432,2.1437,2.1437,0,0,0-1.616.688A2.7,2.7,0,0,0,44.7111,424.568Zm4.544,0a3.3209,3.3209,0,0,0-.288-1.408l-3.312,3.632a2.1,2.1,0,0,0,1.28.4,2.3352,2.3352,0,0,0,1.136-.288,2.1888,2.1888,0,0,0,.864-.896A2.9935,2.9935,0,0,0,49.2551,424.568Zm7.3887-4.576a3.6553,3.6553,0,0,1,1.744.4,3.1451,3.1451,0,0,1,1.184,1.008v-1.264h2.256v8.928a4.7084,4.7084,0,0,1-.496,2.192,3.6185,3.6185,0,0,1-1.488,1.536,4.7039,4.7039,0,0,1-2.4.576,5.1606,5.1606,0,0,1-3.104-.88,3.2711,3.2711,0,0,1-1.36-2.4h2.224a1.6332,1.6332,0,0,0,.752.96,2.6469,2.6469,0,0,0,1.424.368,2.1733,2.1733,0,0,0,1.584-.592,2.3185,2.3185,0,0,0,.608-1.76v-1.376a3.3816,3.3816,0,0,1-1.2,1.04,3.5145,3.5145,0,0,1-1.728.416,3.8069,3.8069,0,0,1-2.048-.576,4.0819,4.0819,0,0,1-1.4721-1.616,5.33,5.33,0,0,1-.528-2.416,5.1936,5.1936,0,0,1,.528-2.384,4.0037,4.0037,0,0,1,1.4561-1.6A3.92,3.92,0,0,1,56.6438,419.992Zm2.928,4.576a2.8271,2.8271,0,0,0-.32-1.392,2.19,2.19,0,0,0-.864-.896,2.313,2.313,0,0,0-2.32-.016,2.3319,2.3319,0,0,0-.8639.896,2.7918,2.7918,0,0,0-.32,1.376,2.9787,2.9787,0,0,0,.32,1.408,2.452,2.452,0,0,0,.8639.912,2.24,2.24,0,0,0,1.1521.32,2.3528,2.3528,0,0,0,1.168-.304,2.3262,2.3262,0,0,0,.864-.896A2.9214,2.9214,0,0,0,59.5718,424.568Zm6.6837-7.408V429h-2.24V417.16Zm10.4531,7.216a5.2827,5.2827,0,0,1-.064.864h-6.48a2.205,2.205,0,0,0,.672,1.504,2.0707,2.0707,0,0,0,1.456.544,1.8286,1.8286,0,0,0,1.776-1.072h2.416a4.0808,4.0808,0,0,1-1.472,2.112,4.3263,4.3263,0,0,1-2.672.816,4.7259,4.7259,0,0,1-2.304-.56,4.1239,4.1239,0,0,1-1.584-1.616,5.4571,5.4571,0,0,1,0-4.816,3.9078,3.9078,0,0,1,1.568-1.6,4.7011,4.7011,0,0,1,2.32-.56,4.61,4.61,0,0,1,2.256.544,3.7543,3.7543,0,0,1,1.552,1.552A4.5724,4.5724,0,0,1,76.7086,424.376Zm-2.32-.64a1.7511,1.7511,0,0,0-.624-1.376,2.19,2.19,0,0,0-1.488-.528,2.0455,2.0455,0,0,0-1.408.512,2.2024,2.2024,0,0,0-.688,1.392Zm7.891,5.408a4.7259,4.7259,0,0,1-2.304-.56,4.2039,4.2039,0,0,1-1.616-1.616,4.87,4.87,0,0,1-.576-2.4,4.7653,4.7653,0,0,1,.592-2.4,4.1691,4.1691,0,0,1,1.648-1.6,4.96,4.96,0,0,1,4.64,0,4.06,4.06,0,0,1,1.632,1.6,4.6648,4.6648,0,0,1,.608,2.4,4.572,4.572,0,0,1-.624,2.4,4.2536,4.2536,0,0,1-1.664,1.616A4.8513,4.8513,0,0,1,82.28,429.144Zm0-1.952a2.3352,2.3352,0,0,0,1.136-.288,2.1888,2.1888,0,0,0,.864-.896,2.9935,2.9935,0,0,0,.32-1.44,2.62,2.62,0,0,0-.672-1.936,2.2419,2.2419,0,0,0-3.232,0,2.7,2.7,0,0,0-.64,1.936,2.8047,2.8047,0,0,0,.624,1.952A2.1181,2.1181,0,0,0,82.28,427.192Zm8.5072-5.68a3.0573,3.0573,0,0,1,2.72-1.504v2.352h-.592a1.8611,1.8611,0,0,0-2.128,2.224V429h-2.24v-8.864h2.24Zm3.6527,3.024a5.1936,5.1936,0,0,1,.528-2.384,3.964,3.964,0,0,1,1.472-1.6,3.9224,3.9224,0,0,1,2.064-.56,3.701,3.701,0,0,1,1.648.384,3.22,3.22,0,0,1,1.248.992V417.16h2.272V429H101.4v-1.312a3.0409,3.0409,0,0,1-1.168,1.056,3.655,3.655,0,0,1-1.744.4,3.8071,3.8071,0,0,1-2.048-.576,4.0816,4.0816,0,0,1-1.472-1.616A5.33,5.33,0,0,1,94.44,424.536Zm6.976.032a2.83,2.83,0,0,0-.32-1.392,2.185,2.185,0,0,0-.864-.896,2.3128,2.3128,0,0,0-2.32-.016,2.3314,2.3314,0,0,0-.864.896,2.7961,2.7961,0,0,0-.32,1.376,2.9835,2.9835,0,0,0,.32,1.408,2.4515,2.4515,0,0,0,.864.912,2.2416,2.2416,0,0,0,1.152.32,2.3536,2.3536,0,0,0,1.168-.304,2.3205,2.3205,0,0,0,.864-.896A2.9248,2.9248,0,0,0,101.4155,424.568Z"/>
      <path d="M42.1446,459.624a1.9133,1.9133,0,0,1-1.952-1.952,1.94,1.94,0,0,1,1.952-1.968,1.9152,1.9152,0,0,1,1.408.576,1.8618,1.8618,0,0,1,.576,1.392,1.8965,1.8965,0,0,1-.576,1.392A1.9448,1.9448,0,0,1,42.1446,459.624Zm12.7049-1.04a4.8776,4.8776,0,0,1,.544-2.352,3.9479,3.9479,0,0,1,1.488-1.584,4.1491,4.1491,0,0,1,2.128-.56,3.8873,3.8873,0,0,1,2,.496,3.31,3.31,0,0,1,1.264,1.248v-1.6h1.472V463h-1.472v-1.632a3.47,3.47,0,0,1-1.296,1.28,3.855,3.855,0,0,1-1.984.496,3.9743,3.9743,0,0,1-2.112-.576,4.0425,4.0425,0,0,1-1.488-1.616A5.0323,5.0323,0,0,1,54.85,458.584Zm7.424.016a3.5661,3.5661,0,0,0-.4-1.728,2.7517,2.7517,0,0,0-1.088-1.12,2.8514,2.8514,0,0,0-1.488-.4,2.9459,2.9459,0,0,0-1.488.384,2.7839,2.7839,0,0,0-1.072,1.12,3.5661,3.5661,0,0,0-.4,1.728,3.6931,3.6931,0,0,0,.4,1.76,2.9,2.9,0,0,0,1.072,1.136,3.075,3.075,0,0,0,2.976,0,2.8636,2.8636,0,0,0,1.088-1.136A3.6585,3.6585,0,0,0,62.2735,458.6Zm3.5485,0a4.9118,4.9118,0,0,1,.544-2.368,3.9136,3.9136,0,0,1,1.504-1.584,4.3915,4.3915,0,0,1,2.224-.56,4.2889,4.2889,0,0,1,2.656.784,3.6873,3.6873,0,0,1,1.392,2.176H72.574a2.2383,2.2383,0,0,0-.88-1.264,2.657,2.657,0,0,0-1.6-.464,2.5682,2.5682,0,0,0-2.016.864,3.476,3.476,0,0,0-.768,2.416,3.5635,3.5635,0,0,0,.768,2.448,2.5682,2.5682,0,0,0,2.016.864,2.7207,2.7207,0,0,0,1.6-.448,2.2713,2.2713,0,0,0,.88-1.28h1.568a3.895,3.895,0,0,1-1.408,2.16,4.2486,4.2486,0,0,1-2.64.8,4.3915,4.3915,0,0,1-2.224-.56A3.9136,3.9136,0,0,1,66.366,461,5.0449,5.0449,0,0,1,65.822,458.6Zm12.1987-3.168V460.6a1.2588,1.2588,0,0,0,.272.912,1.3683,1.3683,0,0,0,.944.256h1.0721V463H78.9967a2.6129,2.6129,0,0,1-1.824-.56,2.4036,2.4036,0,0,1-.608-1.84v-5.168h-1.136v-1.2h1.136v-2.208h1.456v2.208h2.2881v1.2Zm4.9642-2.624a.992.992,0,1,1,0-1.984.8877.8877,0,0,1,.672.288,1.0044,1.0044,0,0,1,0,1.408A.8877.8877,0,0,1,82.9849,452.808Zm.704,1.424V463h-1.456v-8.768Zm6.4655,8.912a4.5372,4.5372,0,0,1-2.24-.56A4.0655,4.0655,0,0,1,86.3464,461a4.9814,4.9814,0,0,1-.56-2.4,4.7487,4.7487,0,0,1,.576-2.368,4.0125,4.0125,0,0,1,1.6-1.584,4.8242,4.8242,0,0,1,4.512,0,3.9311,3.9311,0,0,1,1.584,1.568,5.0683,5.0683,0,0,1-.016,4.784,4.1151,4.1151,0,0,1-1.616,1.584A4.66,4.66,0,0,1,90.1544,463.144Zm0-1.28a3.0785,3.0785,0,0,0,1.472-.368,2.7453,2.7453,0,0,0,1.104-1.104,3.4845,3.4845,0,0,0,.432-1.792,3.5921,3.5921,0,0,0-.416-1.792,2.6705,2.6705,0,0,0-1.088-1.088,2.9867,2.9867,0,0,0-1.456-.368,3.0179,3.0179,0,0,0-1.472.368,2.6009,2.6009,0,0,0-1.056,1.088,3.7083,3.7083,0,0,0-.4,1.792,3.8737,3.8737,0,0,0,.384,1.808,2.7038,2.7038,0,0,0,1.056,1.104A2.9931,2.9931,0,0,0,90.1544,461.864Zm10.8421-7.792a3.5347,3.5347,0,0,1,2.592.976,3.6956,3.6956,0,0,1,.992,2.784V463h-1.44v-4.96a2.7866,2.7866,0,0,0-.656-2,2.33,2.33,0,0,0-1.792-.704,2.4265,2.4265,0,0,0-1.84.72,2.9644,2.9644,0,0,0-.672,2.096V463h-1.456v-8.768h1.456v1.248a2.9047,2.9047,0,0,1,1.168-1.04A3.7058,3.7058,0,0,1,100.9965,454.072ZM42.1446,489.624a1.9133,1.9133,0,0,1-1.952-1.952,1.94,1.94,0,0,1,1.952-1.968,1.9152,1.9152,0,0,1,1.408.576,1.8618,1.8618,0,0,1,.576,1.392,1.8965,1.8965,0,0,1-.576,1.392A1.9448,1.9448,0,0,1,42.1446,489.624Zm16.5129,2.032,2.72-7.424H62.93L59.49,493h-1.696l-3.44-8.768h1.568Zm6.6167-8.848a.992.992,0,1,1,0-1.984.8874.8874,0,0,1,.672.288,1.0042,1.0042,0,0,1,0,1.408A.8874.8874,0,0,1,65.2742,482.808Zm.7041,1.424V493H64.5222v-8.768Zm4.0974,1.424a2.8085,2.8085,0,0,1,1.088-1.168,3.4355,3.4355,0,0,1,1.7441-.416v1.504h-.3841q-2.448,0-2.448,2.656V493H68.62v-8.768h1.456Zm12.4488-1.424V493h-1.456v-1.296a2.8781,2.8781,0,0,1-1.168,1.056,3.6023,3.6023,0,0,1-1.632.368,3.997,3.997,0,0,1-1.84-.416,3.1859,3.1859,0,0,1-1.296-1.28,4.2453,4.2453,0,0,1-.464-2.064v-5.136h1.44v4.944a2.8243,2.8243,0,0,0,.656,2,2.3572,2.3572,0,0,0,1.792.688,2.3942,2.3942,0,0,0,1.84-.72,2.9644,2.9644,0,0,0,.672-2.096v-4.816Zm5.7224,8.912a4.63,4.63,0,0,1-1.808-.336,3.1466,3.1466,0,0,1-1.264-.96,2.5953,2.5953,0,0,1-.512-1.424h1.504a1.4835,1.4835,0,0,0,.608,1.072,2.3819,2.3819,0,0,0,1.456.416,2.1092,2.1092,0,0,0,1.312-.368,1.1245,1.1245,0,0,0,.48-.928.8981.8981,0,0,0-.512-.848,6.84,6.84,0,0,0-1.584-.56,13.0339,13.0339,0,0,1-1.6-.512,3.037,3.037,0,0,1-1.056-.784,2.1041,2.1041,0,0,1-.432-1.376,2.0721,2.0721,0,0,1,.4-1.232,2.6551,2.6551,0,0,1,1.136-.88,4.0033,4.0033,0,0,1,1.68-.336,3.5857,3.5857,0,0,1,2.352.736,2.6531,2.6531,0,0,1,.96,2.016h-1.456a1.4931,1.4931,0,0,0-.56-1.104,2.0275,2.0275,0,0,0-1.344-.416,2.0854,2.0854,0,0,0-1.248.336,1.0378,1.0378,0,0,0-.464.88,1.0074,1.0074,0,0,0,.272.72,2.3408,2.3408,0,0,0,.704.448q.432.16,1.184.368a11.6675,11.6675,0,0,1,1.536.512,2.5447,2.5447,0,0,1,1.008.736,1.9666,1.9666,0,0,1,.448,1.296,2.2194,2.2194,0,0,1-.4,1.296,2.716,2.716,0,0,1-1.136.912A4.068,4.068,0,0,1,88.2469,493.144Zm-46.1023,26.48a1.9133,1.9133,0,0,1-1.952-1.952,1.94,1.94,0,0,1,1.952-1.968,1.9152,1.9152,0,0,1,1.408.576,1.8618,1.8618,0,0,1,.576,1.392,1.8965,1.8965,0,0,1-.576,1.392A1.9448,1.9448,0,0,1,42.1446,519.624Zm17.6009-5.552a3.71,3.71,0,0,1,1.792.432,2.9165,2.9165,0,0,1,1.248,1.264,4.2453,4.2453,0,0,1,.464,2.064V523H61.81v-4.96a2.79,2.79,0,0,0-.656-2,2.3311,2.3311,0,0,0-1.792-.704,2.4261,2.4261,0,0,0-1.84.72,2.9644,2.9644,0,0,0-.672,2.096V523h-1.456V511.16H56.85v4.32a2.8772,2.8772,0,0,1,1.184-1.04A3.9158,3.9158,0,0,1,59.7455,514.072Zm5.4984,4.512a4.8776,4.8776,0,0,1,.544-2.352,3.9465,3.9465,0,0,1,1.488-1.584,4.1491,4.1491,0,0,1,2.128-.56,3.8876,3.8876,0,0,1,2,.496,3.31,3.31,0,0,1,1.264,1.248v-1.6H74.14V523h-1.472v-1.632a3.47,3.47,0,0,1-1.296,1.28,3.8552,3.8552,0,0,1-1.984.496,3.9743,3.9743,0,0,1-2.112-.576,4.0411,4.0411,0,0,1-1.488-1.616A5.0323,5.0323,0,0,1,65.2439,518.584Zm7.424.016a3.5673,3.5673,0,0,0-.4-1.728,2.7523,2.7523,0,0,0-1.088-1.12,2.8514,2.8514,0,0,0-1.488-.4,2.9459,2.9459,0,0,0-1.488.384,2.7833,2.7833,0,0,0-1.072,1.12,3.5661,3.5661,0,0,0-.4,1.728,3.6931,3.6931,0,0,0,.4,1.76,2.8994,2.8994,0,0,0,1.072,1.136,3.075,3.075,0,0,0,2.976,0,2.8643,2.8643,0,0,0,1.088-1.136A3.66,3.66,0,0,0,72.6679,518.6Zm3.5485,0a4.9118,4.9118,0,0,1,.544-2.368,3.913,3.913,0,0,1,1.504-1.584,4.3913,4.3913,0,0,1,2.224-.56,4.2891,4.2891,0,0,1,2.656.784,3.6873,3.6873,0,0,1,1.392,2.176h-1.568a2.2388,2.2388,0,0,0-.88-1.264,2.657,2.657,0,0,0-1.6-.464,2.5682,2.5682,0,0,0-2.016.864,3.476,3.476,0,0,0-.768,2.416,3.5635,3.5635,0,0,0,.768,2.448,2.5682,2.5682,0,0,0,2.016.864,2.7207,2.7207,0,0,0,1.6-.448,2.2718,2.2718,0,0,0,.88-1.28h1.568a3.895,3.895,0,0,1-1.408,2.16,4.2486,4.2486,0,0,1-2.64.8,4.3913,4.3913,0,0,1-2.224-.56A3.913,3.913,0,0,1,76.76,521,5.0449,5.0449,0,0,1,76.2164,518.6ZM91.5351,523l-3.44-3.872V523h-1.456V511.16h1.456v6.96l3.376-3.888h2.032l-4.128,4.368,4.144,4.4Zm4.25-10.192a.992.992,0,1,1,0-1.984.8869.8869,0,0,1,.672.288,1.0044,1.0044,0,0,1,0,1.408A.8869.8869,0,0,1,95.7855,512.808Zm.704,1.424V523h-1.456v-8.768Zm6.914-.16a3.5379,3.5379,0,0,1,2.592.976,3.7,3.7,0,0,1,.992,2.784V523h-1.44v-4.96a2.791,2.791,0,0,0-.656-2,2.3326,2.3326,0,0,0-1.792-.704,2.425,2.425,0,0,0-1.84.72,2.9644,2.9644,0,0,0-.672,2.096V523h-1.456v-8.768h1.456v1.248a2.8982,2.8982,0,0,1,1.168-1.04A3.7,3.7,0,0,1,103.4035,514.072Zm9.738.016a3.855,3.855,0,0,1,1.984.496,3.2808,3.2808,0,0,1,1.28,1.248v-1.6h1.472v8.96a4.3366,4.3366,0,0,1-.512,2.128,3.6229,3.6229,0,0,1-1.472,1.472,4.4475,4.4475,0,0,1-2.208.528,4.8593,4.8593,0,0,1-2.88-.816,3.1893,3.1893,0,0,1-1.36-2.224h1.44a2.26,2.26,0,0,0,.992,1.28,3.2061,3.2061,0,0,0,1.808.496,2.6416,2.6416,0,0,0,1.952-.752,2.82,2.82,0,0,0,.768-2.112v-1.84a3.5042,3.5042,0,0,1-1.28,1.28,3.7668,3.7668,0,0,1-1.984.512,3.9659,3.9659,0,0,1-3.616-2.192,5.0287,5.0287,0,0,1-.544-2.368,4.8742,4.8742,0,0,1,.544-2.352,3.952,3.952,0,0,1,1.488-1.584A4.1483,4.1483,0,0,1,113.1415,514.088Zm3.264,4.512a3.5628,3.5628,0,0,0-.4-1.728,2.7517,2.7517,0,0,0-1.088-1.12,2.8514,2.8514,0,0,0-1.488-.4,2.9459,2.9459,0,0,0-1.488.384,2.7859,2.7859,0,0,0-1.072,1.12,3.5628,3.5628,0,0,0-.4,1.728,3.69,3.69,0,0,0,.4,1.76,2.9022,2.9022,0,0,0,1.072,1.136,3.075,3.075,0,0,0,2.976,0,2.8636,2.8636,0,0,0,1.088-1.136A3.655,3.655,0,0,0,116.4055,518.6Z"/>
      <rect class="cls-6" x="30.1615" y="574.721" width="275" height="31.5574" rx="5"/>
      <path class="cls-4" d="M124.5055,594.345h4.032v2.376h-7.11V584.085h3.078Zm17.038-7.83v2.592h4.014v2.34h-4.014v2.844h4.554v2.43h-7.632v-2.124h-4.158l-1.08,2.124h-3.33l6.462-12.636h9.738v2.43Zm-3.078,5.742v-5.886l-2.97,5.886Zm15.103,4.59a6.5,6.5,0,0,1-2.484-.45,4.1116,4.1116,0,0,1-1.764-1.332,3.6756,3.6756,0,0,1-.684-2.124h3.276a1.6258,1.6258,0,0,0,.486,1.08,1.5867,1.5867,0,0,0,1.08.36,1.7241,1.7241,0,0,0,1.08-.306,1.079,1.079,0,0,0,.396-.882,1.019,1.019,0,0,0-.324-.774,2.4025,2.4025,0,0,0-.774-.504,11.6972,11.6972,0,0,0-1.296-.45,14.2094,14.2094,0,0,1-1.998-.756,3.6917,3.6917,0,0,1-1.332-1.116,3.11,3.11,0,0,1-.558-1.926,3.2871,3.2871,0,0,1,1.278-2.754,5.219,5.219,0,0,1,3.33-1.008,5.2792,5.2792,0,0,1,3.366,1.008,3.5488,3.5488,0,0,1,1.368,2.772h-3.33a1.2726,1.2726,0,0,0-.45-.954,1.56,1.56,0,0,0-1.062-.36,1.299,1.299,0,0,0-.9.306,1.0437,1.0437,0,0,0-.342.846,1.06,1.06,0,0,0,.576.954,9.4421,9.4421,0,0,0,1.8.738,16.0364,16.0364,0,0,1,1.98.792,3.7622,3.7622,0,0,1,1.332,1.098,2.9392,2.9392,0,0,1,.558,1.854,3.5944,3.5944,0,0,1-.558,1.962,3.7823,3.7823,0,0,1-1.584,1.404A5.4534,5.4534,0,0,1,153.5685,596.847Zm26.427-12.762v12.636h-3.078v-7.578l-2.826,7.578h-2.484l-2.844-7.596v7.596h-3.078V584.085h3.636l3.546,8.748,3.51-8.748Zm6.191,2.466v2.556h4.122v2.376h-4.122v2.772h4.662v2.466h-7.74V584.085h7.74v2.466Zm14.005,10.17-2.628-4.77h-.738v4.77h-3.078V584.085h5.166a5.6293,5.6293,0,0,1,2.538.522,3.57,3.57,0,0,1,1.584,1.44,3.9443,3.9443,0,0,1,.522,2.016,3.729,3.729,0,0,1-.72,2.25,3.7814,3.7814,0,0,1-2.088,1.404l2.916,5.004Zm-3.366-6.948h1.908a1.714,1.714,0,0,0,1.26-.414,1.5441,1.5441,0,0,0,.432-1.17,1.4965,1.4965,0,0,0-.432-1.134,1.714,1.714,0,0,0-1.26-.414h-1.908Zm12.642-3.222v2.556h4.122v2.376h-4.122v2.772h4.662v2.466h-7.74V584.085h7.74v2.466Z"/>
      <path d="M38.2575,300.848v1.184h-3.04V312h-1.456v-9.968h-3.056v-1.184Zm1.2483,6.736a4.8776,4.8776,0,0,1,.544-2.352,3.9465,3.9465,0,0,1,1.488-1.584,4.1491,4.1491,0,0,1,2.128-.56,3.8876,3.8876,0,0,1,2,.496,3.31,3.31,0,0,1,1.264,1.248v-1.6h1.472V312H46.93v-1.632a3.47,3.47,0,0,1-1.296,1.28,3.8552,3.8552,0,0,1-1.984.496,3.9743,3.9743,0,0,1-2.112-.576,4.0411,4.0411,0,0,1-1.488-1.616A5.0323,5.0323,0,0,1,39.5058,307.584Zm7.424.016a3.5673,3.5673,0,0,0-.4-1.728,2.7523,2.7523,0,0,0-1.088-1.12,2.8514,2.8514,0,0,0-1.488-.4,2.9459,2.9459,0,0,0-1.488.384,2.7833,2.7833,0,0,0-1.072,1.12,3.5661,3.5661,0,0,0-.4,1.728,3.6931,3.6931,0,0,0,.4,1.76,2.8994,2.8994,0,0,0,1.072,1.136,3.075,3.075,0,0,0,2.976,0,2.8643,2.8643,0,0,0,1.088-1.136A3.66,3.66,0,0,0,46.93,307.6Zm7.5485-4.512a3.8552,3.8552,0,0,1,1.984.496,3.2835,3.2835,0,0,1,1.28,1.248v-1.6h1.472v8.96a4.3334,4.3334,0,0,1-.512,2.128,3.6253,3.6253,0,0,1-1.472,1.472,4.45,4.45,0,0,1-2.208.528,4.8593,4.8593,0,0,1-2.88-.816,3.188,3.188,0,0,1-1.36-2.224h1.44a2.2579,2.2579,0,0,0,.992,1.28,3.2068,3.2068,0,0,0,1.808.496,2.6422,2.6422,0,0,0,1.952-.752,2.82,2.82,0,0,0,.768-2.112v-1.84a3.5019,3.5019,0,0,1-1.28,1.28,3.767,3.767,0,0,1-1.984.512,3.9659,3.9659,0,0,1-3.616-2.192,5.0323,5.0323,0,0,1-.544-2.368,4.8776,4.8776,0,0,1,.544-2.352,3.9465,3.9465,0,0,1,1.488-1.584A4.1491,4.1491,0,0,1,54.4783,303.088Zm3.264,4.512a3.5673,3.5673,0,0,0-.4-1.728,2.7523,2.7523,0,0,0-1.088-1.12,2.8514,2.8514,0,0,0-1.488-.4,2.9459,2.9459,0,0,0-1.488.384,2.7833,2.7833,0,0,0-1.072,1.12,3.5661,3.5661,0,0,0-.4,1.728,3.6931,3.6931,0,0,0,.4,1.76,2.8994,2.8994,0,0,0,1.072,1.136,3.075,3.075,0,0,0,2.976,0,2.8643,2.8643,0,0,0,1.088-1.136A3.66,3.66,0,0,0,57.7423,307.6Zm9.6541-2.752a3.4334,3.4334,0,0,1,1.28-1.248,3.8516,3.8516,0,0,1,2-.512,4.0643,4.0643,0,0,1,2.112.56,3.9136,3.9136,0,0,1,1.504,1.584,4.8787,4.8787,0,0,1,.544,2.352,5.0335,5.0335,0,0,1-.544,2.368,4.0121,4.0121,0,0,1-3.616,2.192,3.91,3.91,0,0,1-1.984-.496,3.6841,3.6841,0,0,1-1.296-1.264v5.776H65.94V303.232h1.456Zm5.952,2.736a3.5673,3.5673,0,0,0-.4-1.728,2.7523,2.7523,0,0,0-1.088-1.12,2.9459,2.9459,0,0,0-1.488-.384,2.9062,2.9062,0,0,0-1.488.4,2.87,2.87,0,0,0-1.088,1.136,3.53,3.53,0,0,0-.4,1.712,3.6585,3.6585,0,0,0,.4,1.744,2.8407,2.8407,0,0,0,2.576,1.52,2.9459,2.9459,0,0,0,1.488-.384,2.8643,2.8643,0,0,0,1.088-1.136A3.6942,3.6942,0,0,0,73.3484,307.584Zm2.8605,0a4.8776,4.8776,0,0,1,.544-2.352,3.9465,3.9465,0,0,1,1.488-1.584,4.1491,4.1491,0,0,1,2.128-.56,3.8876,3.8876,0,0,1,2,.496,3.31,3.31,0,0,1,1.264,1.248v-1.6h1.472V312h-1.472v-1.632a3.47,3.47,0,0,1-1.296,1.28,3.8552,3.8552,0,0,1-1.984.496,3.9743,3.9743,0,0,1-2.112-.576,4.0411,4.0411,0,0,1-1.488-1.616A5.0323,5.0323,0,0,1,76.2089,307.584Zm7.424.016a3.5673,3.5673,0,0,0-.4-1.728,2.7523,2.7523,0,0,0-1.088-1.12,2.8514,2.8514,0,0,0-1.488-.4,2.9459,2.9459,0,0,0-1.488.384,2.7833,2.7833,0,0,0-1.072,1.12,3.5661,3.5661,0,0,0-.4,1.728,3.6931,3.6931,0,0,0,.4,1.76,2.8994,2.8994,0,0,0,1.072,1.136,3.075,3.075,0,0,0,2.976,0,2.8643,2.8643,0,0,0,1.088-1.136A3.66,3.66,0,0,0,83.6329,307.6Zm-.976-6.992a1.607,1.607,0,0,1-.496,1.232,1.8494,1.8494,0,0,1-2.432-.016,1.7386,1.7386,0,0,1,0-2.432,1.7149,1.7149,0,0,1,1.216-.464,1.68,1.68,0,0,1,1.216.464A1.5574,1.5574,0,0,1,82.6569,300.608Zm-.848-.016a.8354.8354,0,0,0-.256-.64.7963.7963,0,0,0-.608-.256.8476.8476,0,0,0-.624.256.8645.8645,0,0,0-.24.64.9208.9208,0,0,0,.24.656.8476.8476,0,0,0,.624.256.7963.7963,0,0,0,.608-.256A.8884.8884,0,0,0,81.8089,300.592Zm18.0226,6.688a8.5688,8.5688,0,0,1-.048.88H92.775a2.73,2.73,0,0,0,2.848,2.752,2.6925,2.6925,0,0,0,1.5685-.432,2.3621,2.3621,0,0,0,.896-1.184h1.568a3.8071,3.8071,0,0,1-1.408,2.064,4.279,4.279,0,0,1-2.6245.784,4.48,4.48,0,0,1-2.24-.56A3.9882,3.9882,0,0,1,91.847,310a5.4589,5.4589,0,0,1-.016-4.784,3.7812,3.7812,0,0,1,1.52-1.568,4.5446,4.5446,0,0,1,2.272-.56,4.3975,4.3975,0,0,1,2.2085.544,3.7059,3.7059,0,0,1,1.472,1.504A4.3154,4.3154,0,0,1,99.8315,307.28Zm-1.504-.304a2.6472,2.6472,0,0,0-.368-1.424,2.3273,2.3273,0,0,0-1.008-.912,3.0117,3.0117,0,0,0-1.3925-.32,2.7291,2.7291,0,0,0-1.888.704,2.885,2.885,0,0,0-.88,1.952Zm7.697-3.904a3.5347,3.5347,0,0,1,2.592.976,3.6956,3.6956,0,0,1,.992,2.784V312h-1.44v-4.96a2.7866,2.7866,0,0,0-.656-2,2.33,2.33,0,0,0-1.792-.704,2.4265,2.4265,0,0,0-1.84.72,2.9644,2.9644,0,0,0-.672,2.096V312h-1.456v-8.768h1.456v1.248a2.9047,2.9047,0,0,1,1.168-1.04A3.7058,3.7058,0,0,1,106.0245,303.072Zm14.58,0a3.7074,3.7074,0,0,1,1.792.432,2.909,2.909,0,0,1,1.248,1.264,4.2374,4.2374,0,0,1,.464,2.064V312h-1.44v-4.96a2.7866,2.7866,0,0,0-.656-2,2.33,2.33,0,0,0-1.792-.704,2.4265,2.4265,0,0,0-1.84.72,2.9644,2.9644,0,0,0-.672,2.096V312h-1.456V300.16h1.456v4.32a2.879,2.879,0,0,1,1.184-1.04A3.9168,3.9168,0,0,1,120.6045,303.072Zm21.531,4.176a5.5636,5.5636,0,0,1-.064.864h-7.216a3.2049,3.2049,0,0,0,.512,1.536,2.83,2.83,0,0,0,1.072.944,2.9674,2.9674,0,0,0,1.344.32,3.0813,3.0813,0,0,0,1.696-.432,2.1449,2.1449,0,0,0,.896-1.184h1.568a3.8733,3.8733,0,0,1-1.376,2.064,4.3838,4.3838,0,0,1-4.528.288,3.3659,3.3659,0,0,1-1.36-1.344V312h-1.264v-1.68a3.7289,3.7289,0,0,1-1.344,1.328,3.878,3.878,0,0,1-1.968.496,3.9659,3.9659,0,0,1-3.616-2.192,5.0287,5.0287,0,0,1-.544-2.368,4.8742,4.8742,0,0,1,.544-2.352,4.02,4.02,0,0,1,1.52-1.584,4.24,4.24,0,0,1,2.176-.56,3.8489,3.8489,0,0,1,1.904.464,3.57,3.57,0,0,1,1.376,1.296v-1.616h1.216v1.616a3.728,3.728,0,0,1,3.344-1.76,4.0734,4.0734,0,0,1,2.144.56,3.7368,3.7368,0,0,1,1.456,1.504A4.3271,4.3271,0,0,1,142.1355,307.248Zm-1.504-.192a2.67,2.67,0,0,0-.384-1.456,2.3721,2.3721,0,0,0-1.024-.944,3.019,3.019,0,0,0-1.424-.336,2.951,2.951,0,0,0-2,.736,2.8918,2.8918,0,0,0-.944,2Zm-10.24,3.808a2.9459,2.9459,0,0,0,1.488-.384,2.87,2.87,0,0,0,1.088-1.136,3.6667,3.6667,0,0,0,.4-1.744,3.574,3.574,0,0,0-.4-1.728,2.758,2.758,0,0,0-1.088-1.12,2.8514,2.8514,0,0,0-1.488-.4,2.9459,2.9459,0,0,0-1.488.384,2.7793,2.7793,0,0,0-1.072,1.12,3.5628,3.5628,0,0,0-.4,1.728,3.69,3.69,0,0,0,.4,1.76,2.8951,2.8951,0,0,0,1.072,1.136A2.9459,2.9459,0,0,0,130.3915,310.864Zm16.747,1.28a4.6285,4.6285,0,0,1-1.808-.336,3.14,3.14,0,0,1-1.264-.96,2.5906,2.5906,0,0,1-.512-1.424h1.504a1.4806,1.4806,0,0,0,.608,1.072,2.38,2.38,0,0,0,1.456.416,2.11,2.11,0,0,0,1.312-.368,1.1245,1.1245,0,0,0,.48-.928.8986.8986,0,0,0-.512-.848,6.8608,6.8608,0,0,0-1.584-.56,13.0169,13.0169,0,0,1-1.6-.512,3.026,3.026,0,0,1-1.056-.784,2.1041,2.1041,0,0,1-.432-1.376,2.07,2.07,0,0,1,.4-1.232,2.65,2.65,0,0,1,1.136-.88,3.9994,3.9994,0,0,1,1.68-.336,3.5879,3.5879,0,0,1,2.352.736,2.6551,2.6551,0,0,1,.96,2.016h-1.456a1.4941,1.4941,0,0,0-.56-1.104,2.0286,2.0286,0,0,0-1.344-.416,2.0841,2.0841,0,0,0-1.248.336,1.0364,1.0364,0,0,0-.464.88,1.0048,1.0048,0,0,0,.272.72,2.3333,2.3333,0,0,0,.704.448q.432.16,1.184.368a11.698,11.698,0,0,1,1.536.512,2.5531,2.5531,0,0,1,1.008.736,1.9681,1.9681,0,0,1,.448,1.296,2.2236,2.2236,0,0,1-.4,1.296,2.7217,2.7217,0,0,1-1.136.912A4.069,4.069,0,0,1,147.1385,312.144Zm6.711-7.28a3.4446,3.4446,0,0,1,1.312-1.28,3.878,3.878,0,0,1,1.968-.496,4.0942,4.0942,0,0,1,2.128.56,3.952,3.952,0,0,1,1.488,1.584,4.8742,4.8742,0,0,1,.544,2.352,5.0287,5.0287,0,0,1-.544,2.368,4.0121,4.0121,0,0,1-3.616,2.192,3.9432,3.9432,0,0,1-2-.496,3.3932,3.3932,0,0,1-1.28-1.264V312h-1.456V300.16h1.456Zm5.952,2.72a3.5628,3.5628,0,0,0-.4-1.728,2.7517,2.7517,0,0,0-1.088-1.12,2.9459,2.9459,0,0,0-1.488-.384,2.9083,2.9083,0,0,0-1.488.4,2.868,2.868,0,0,0-1.088,1.136,3.5261,3.5261,0,0,0-.4,1.712,3.655,3.655,0,0,0,.4,1.744,2.8407,2.8407,0,0,0,2.576,1.52,2.9459,2.9459,0,0,0,1.488-.384,2.8636,2.8636,0,0,0,1.088-1.136A3.69,3.69,0,0,0,159.8015,307.584Zm4.861-7.424V312h-1.456V300.16Zm18.129,7.088a5.4434,5.4434,0,0,1-.064.864h-7.216a3.2049,3.2049,0,0,0,.512,1.536,2.83,2.83,0,0,0,1.072.944,2.9735,2.9735,0,0,0,1.344.32,3.079,3.079,0,0,0,1.696-.432,2.14,2.14,0,0,0,.896-1.184H182.6a3.8677,3.8677,0,0,1-1.376,2.064,4.3838,4.3838,0,0,1-4.528.288,3.372,3.372,0,0,1-1.36-1.344V312h-1.264v-1.68a3.7289,3.7289,0,0,1-1.344,1.328,3.878,3.878,0,0,1-1.968.496,3.9659,3.9659,0,0,1-3.616-2.192,5.0287,5.0287,0,0,1-.544-2.368,4.8742,4.8742,0,0,1,.544-2.352,4.02,4.02,0,0,1,1.52-1.584,4.24,4.24,0,0,1,2.176-.56,3.8462,3.8462,0,0,1,1.904.464,3.57,3.57,0,0,1,1.376,1.296v-1.616h1.216v1.616a3.728,3.728,0,0,1,3.344-1.76,4.0709,4.0709,0,0,1,2.144.56,3.73,3.73,0,0,1,1.456,1.504A4.3271,4.3271,0,0,1,182.7915,307.248Zm-1.504-.192a2.67,2.67,0,0,0-.384-1.456,2.3666,2.3666,0,0,0-1.024-.944,3.0161,3.0161,0,0,0-1.424-.336,2.951,2.951,0,0,0-2,.736,2.8959,2.8959,0,0,0-.944,2Zm-10.24,3.808a2.9459,2.9459,0,0,0,1.488-.384,2.8636,2.8636,0,0,0,1.088-1.136,3.655,3.655,0,0,0,.4-1.744,3.5628,3.5628,0,0,0-.4-1.728,2.7517,2.7517,0,0,0-1.088-1.12,2.8514,2.8514,0,0,0-1.488-.4,2.9459,2.9459,0,0,0-1.488.384,2.7859,2.7859,0,0,0-1.072,1.12,3.5628,3.5628,0,0,0-.4,1.728,3.69,3.69,0,0,0,.4,1.76,2.9022,2.9022,0,0,0,1.072,1.136A2.9459,2.9459,0,0,0,171.0475,310.864Zm16.747,1.28a4.6285,4.6285,0,0,1-1.808-.336,3.1473,3.1473,0,0,1-1.264-.96,2.5984,2.5984,0,0,1-.512-1.424h1.504a1.4839,1.4839,0,0,0,.608,1.072,2.3821,2.3821,0,0,0,1.456.416,2.1084,2.1084,0,0,0,1.312-.368,1.1245,1.1245,0,0,0,.48-.928.8986.8986,0,0,0-.512-.848,6.8254,6.8254,0,0,0-1.584-.56,13.0169,13.0169,0,0,1-1.6-.512,3.0444,3.0444,0,0,1-1.056-.784,2.1041,2.1041,0,0,1-.432-1.376,2.07,2.07,0,0,1,.4-1.232,2.6557,2.6557,0,0,1,1.136-.88,4.0059,4.0059,0,0,1,1.68-.336,3.5842,3.5842,0,0,1,2.352.736,2.6551,2.6551,0,0,1,.96,2.016h-1.456a1.4941,1.4941,0,0,0-.56-1.104,2.0286,2.0286,0,0,0-1.344-.416,2.0841,2.0841,0,0,0-1.248.336,1.0387,1.0387,0,0,0-.464.88,1.0091,1.0091,0,0,0,.272.72,2.3458,2.3458,0,0,0,.704.448q.432.16,1.184.368a11.698,11.698,0,0,1,1.536.512,2.5391,2.5391,0,0,1,1.008.736,1.9681,1.9681,0,0,1,.448,1.296,2.2165,2.2165,0,0,1-.4,1.296,2.7154,2.7154,0,0,1-1.136.912A4.069,4.069,0,0,1,187.7945,312.144Zm13.255-4.864a8.5688,8.5688,0,0,1-.048.88h-7.008a2.73,2.73,0,0,0,2.848,2.752,2.69,2.69,0,0,0,1.568-.432,2.351,2.351,0,0,0,.896-1.184h1.568a3.8018,3.8018,0,0,1-1.408,2.064,4.2764,4.2764,0,0,1-2.624.784,4.4817,4.4817,0,0,1-2.24-.56,3.9975,3.9975,0,0,1-1.536-1.584,5.4589,5.4589,0,0,1-.016-4.784,3.7873,3.7873,0,0,1,1.52-1.568,4.5473,4.5473,0,0,1,2.272-.56,4.3969,4.3969,0,0,1,2.208.544,3.7,3.7,0,0,1,1.472,1.504A4.3154,4.3154,0,0,1,201.05,307.28Zm-1.504-.304a2.6383,2.6383,0,0,0-.368-1.424,2.3163,2.3163,0,0,0-1.008-.912,3.01,3.01,0,0,0-1.392-.32,2.73,2.73,0,0,0-1.888.704,2.8863,2.8863,0,0,0-.88,1.952Zm7.698-3.904a3.5347,3.5347,0,0,1,2.592.976,3.7,3.7,0,0,1,.992,2.784V312h-1.44v-4.96a2.791,2.791,0,0,0-.656-2,2.3311,2.3311,0,0,0-1.792-.704,2.4265,2.4265,0,0,0-1.84.72,2.9644,2.9644,0,0,0-.672,2.096V312h-1.456v-8.768h1.456v1.248a2.8982,2.8982,0,0,1,1.168-1.04A3.7027,3.7027,0,0,1,207.2435,303.072Zm5.419,4.512a4.8742,4.8742,0,0,1,.544-2.352,3.9384,3.9384,0,0,1,1.488-1.584,4.1779,4.1779,0,0,1,2.144-.56,3.9159,3.9159,0,0,1,1.904.48,3.357,3.357,0,0,1,1.344,1.232v-4.64h1.472V312h-1.472v-1.648a3.4619,3.4619,0,0,1-1.28,1.296,3.8575,3.8575,0,0,1-1.984.496,3.9659,3.9659,0,0,1-3.616-2.192A5.0287,5.0287,0,0,1,212.6625,307.584Zm7.424.016a3.574,3.574,0,0,0-.4-1.728,2.758,2.758,0,0,0-1.088-1.12,2.8514,2.8514,0,0,0-1.488-.4,2.9459,2.9459,0,0,0-1.488.384,2.7793,2.7793,0,0,0-1.072,1.12,3.5628,3.5628,0,0,0-.4,1.728,3.69,3.69,0,0,0,.4,1.76,2.8951,2.8951,0,0,0,1.072,1.136,3.075,3.075,0,0,0,2.976,0,2.87,2.87,0,0,0,1.088-1.136A3.6667,3.6667,0,0,0,220.0865,307.6Zm11.932-.32a8.5688,8.5688,0,0,1-.048.88h-7.008a2.73,2.73,0,0,0,2.848,2.752,2.6919,2.6919,0,0,0,1.568-.432,2.3566,2.3566,0,0,0,.896-1.184h1.568a3.8071,3.8071,0,0,1-1.408,2.064,4.2785,4.2785,0,0,1-2.624.784,4.479,4.479,0,0,1-2.24-.56,3.9843,3.9843,0,0,1-1.536-1.584,5.4589,5.4589,0,0,1-.016-4.784,3.7812,3.7812,0,0,1,1.52-1.568,4.5446,4.5446,0,0,1,2.272-.56,4.3969,4.3969,0,0,1,2.208.544,3.7,3.7,0,0,1,1.472,1.504A4.3154,4.3154,0,0,1,232.0185,307.28Zm-1.504-.304a2.6472,2.6472,0,0,0-.368-1.424,2.3163,2.3163,0,0,0-1.008-.912,3.01,3.01,0,0,0-1.392-.32,2.73,2.73,0,0,0-1.888.704,2.8863,2.8863,0,0,0-.88,1.952Zm18.236-3.904a3.7812,3.7812,0,0,1,1.824.432,3.0145,3.0145,0,0,1,1.264,1.264,4.2486,4.2486,0,0,1,.4639,2.064V312h-1.44v-4.96a2.791,2.791,0,0,0-.656-2,2.2409,2.2409,0,0,0-1.744-.704,2.3261,2.3261,0,0,0-1.808.736,2.9644,2.9644,0,0,0-.672,2.096V312h-1.44v-4.96a2.791,2.791,0,0,0-.656-2,2.2409,2.2409,0,0,0-1.744-.704,2.3261,2.3261,0,0,0-1.808.736,2.9644,2.9644,0,0,0-.672,2.096V312h-1.456v-8.768h1.456v1.264a2.8856,2.8856,0,0,1,1.152-1.056,3.5636,3.5636,0,0,1,1.616-.368,3.7927,3.7927,0,0,1,1.952.496,3.0332,3.0332,0,0,1,1.264,1.456,2.8682,2.8682,0,0,1,1.216-1.44A3.5826,3.5826,0,0,1,248.7505,303.072Zm6.692-1.264a.992.992,0,1,1,0-1.984.8865.8865,0,0,1,.672.288,1.0044,1.0044,0,0,1,0,1.408A.8865.8865,0,0,1,255.4425,301.808Zm.7039,1.424V312h-1.4559v-8.768Zm5.5851,8.912a4.6317,4.6317,0,0,1-1.808-.336,3.1552,3.1552,0,0,1-1.2641-.96,2.5991,2.5991,0,0,1-.5119-1.424h1.5039a1.4873,1.4873,0,0,0,.6081,1.072,2.3838,2.3838,0,0,0,1.4559.416,2.1087,2.1087,0,0,0,1.3121-.368,1.1245,1.1245,0,0,0,.48-.928.897.897,0,0,0-.512-.848,6.8254,6.8254,0,0,0-1.584-.56,13.0736,13.0736,0,0,1-1.6-.512,3.0444,3.0444,0,0,1-1.056-.784,2.1042,2.1042,0,0,1-.4321-1.376,2.0763,2.0763,0,0,1,.4-1.232,2.6617,2.6617,0,0,1,1.136-.88,4.0058,4.0058,0,0,1,1.68-.336,3.5843,3.5843,0,0,1,2.3521.736,2.6485,2.6485,0,0,1,.96,2.016h-1.456a1.491,1.491,0,0,0-.56-1.104,2.0251,2.0251,0,0,0-1.3441-.416,2.0882,2.0882,0,0,0-1.2479.336,1.0387,1.0387,0,0,0-.464.88,1.0091,1.0091,0,0,0,.272.72,2.3446,2.3446,0,0,0,.704.448q.4319.16,1.184.368a11.602,11.602,0,0,1,1.536.512,2.5381,2.5381,0,0,1,1.0079.736,1.9624,1.9624,0,0,1,.448,1.296,2.2164,2.2164,0,0,1-.4,1.296,2.7092,2.7092,0,0,1-1.136.912A4.0657,4.0657,0,0,1,261.7315,312.144Zm8.36,0a4.6285,4.6285,0,0,1-1.808-.336,3.14,3.14,0,0,1-1.264-.96,2.59,2.59,0,0,1-.512-1.424h1.504a1.4806,1.4806,0,0,0,.608,1.072,2.38,2.38,0,0,0,1.456.416,2.1106,2.1106,0,0,0,1.312-.368,1.1248,1.1248,0,0,0,.48-.928.8986.8986,0,0,0-.512-.848,6.8619,6.8619,0,0,0-1.5841-.56,13.02,13.02,0,0,1-1.6-.512,3.026,3.026,0,0,1-1.056-.784,2.1036,2.1036,0,0,1-.432-1.376,2.07,2.07,0,0,1,.4-1.232,2.6484,2.6484,0,0,1,1.136-.88,3.9994,3.9994,0,0,1,1.68-.336,3.5879,3.5879,0,0,1,2.352.736,2.655,2.655,0,0,1,.96,2.016h-1.4559a1.4941,1.4941,0,0,0-.56-1.104,2.0286,2.0286,0,0,0-1.344-.416,2.0846,2.0846,0,0,0-1.2481.336,1.0363,1.0363,0,0,0-.4639.88,1.0048,1.0048,0,0,0,.272.72,2.3321,2.3321,0,0,0,.704.448q.432.16,1.184.368a11.698,11.698,0,0,1,1.536.512,2.5531,2.5531,0,0,1,1.008.736,1.9687,1.9687,0,0,1,.448,1.296,2.2236,2.2236,0,0,1-.4,1.296,2.7217,2.7217,0,0,1-1.136.912A4.0693,4.0693,0,0,1,270.0915,312.144Zm6.007-10.336a.992.992,0,1,1,0-1.984.8865.8865,0,0,1,.672.288,1.0044,1.0044,0,0,1,0,1.408A.8865.8865,0,0,1,276.0985,301.808Zm.7039,1.424V312h-1.4559v-8.768Zm6.306,8.912a4.5354,4.5354,0,0,1-2.24-.56,4.0615,4.0615,0,0,1-1.568-1.584,4.9746,4.9746,0,0,1-.56-2.4,4.7487,4.7487,0,0,1,.576-2.368,4.0087,4.0087,0,0,1,1.6-1.584,4.8242,4.8242,0,0,1,4.512,0,3.9311,3.9311,0,0,1,1.584,1.568,5.0679,5.0679,0,0,1-.0161,4.784,4.12,4.12,0,0,1-1.6159,1.584A4.6613,4.6613,0,0,1,283.1084,312.144Zm0-1.28a3.0815,3.0815,0,0,0,1.4721-.368,2.7526,2.7526,0,0,0,1.104-1.104,3.4844,3.4844,0,0,0,.4319-1.792,3.5953,3.5953,0,0,0-.4159-1.792,2.6749,2.6749,0,0,0-1.0881-1.088,3.0958,3.0958,0,0,0-2.9279,0,2.5933,2.5933,0,0,0-1.056,1.088,3.7049,3.7049,0,0,0-.4,1.792,3.8749,3.8749,0,0,0,.384,1.808,2.6975,2.6975,0,0,0,1.056,1.104A2.992,2.992,0,0,0,283.1084,310.864Zm10.6821-7.792a3.5347,3.5347,0,0,1,2.592.976,3.7,3.7,0,0,1,.992,2.784V312h-1.44v-4.96a2.7915,2.7915,0,0,0-.656-2,2.3311,2.3311,0,0,0-1.792-.704,2.4269,2.4269,0,0,0-1.84.72,2.9644,2.9644,0,0,0-.672,2.096V312h-1.4559v-8.768h1.4559v1.248a2.8988,2.8988,0,0,1,1.168-1.04A3.7034,3.7034,0,0,1,293.7905,303.072ZM35.2175,338.144a4.5375,4.5375,0,0,1-2.24-.56A4.0661,4.0661,0,0,1,31.41,336a4.9825,4.9825,0,0,1-.56-2.4,4.7487,4.7487,0,0,1,.576-2.368,4.0131,4.0131,0,0,1,1.6-1.584,4.8242,4.8242,0,0,1,4.512,0,3.9311,3.9311,0,0,1,1.584,1.568,5.0683,5.0683,0,0,1-.016,4.784,4.1145,4.1145,0,0,1-1.616,1.584A4.66,4.66,0,0,1,35.2175,338.144Zm0-1.28a3.0782,3.0782,0,0,0,1.472-.368,2.744,2.744,0,0,0,1.104-1.104,3.4845,3.4845,0,0,0,.432-1.792,3.5921,3.5921,0,0,0-.416-1.792,2.67,2.67,0,0,0-1.088-1.088,2.9864,2.9864,0,0,0-1.456-.368,3.0182,3.0182,0,0,0-1.472.368,2.6021,2.6021,0,0,0-1.056,1.088,3.7083,3.7083,0,0,0-.4,1.792,3.8737,3.8737,0,0,0,.384,1.808,2.7051,2.7051,0,0,0,1.056,1.104A2.9931,2.9931,0,0,0,35.2175,336.864Zm10.0264-7.776a3.8552,3.8552,0,0,1,1.984.496,3.2835,3.2835,0,0,1,1.28,1.248v-1.6H49.98v8.96a4.3334,4.3334,0,0,1-.512,2.128,3.6253,3.6253,0,0,1-1.472,1.472,4.45,4.45,0,0,1-2.208.528,4.8593,4.8593,0,0,1-2.88-.816,3.188,3.188,0,0,1-1.36-2.224h1.44a2.2579,2.2579,0,0,0,.992,1.28,3.2068,3.2068,0,0,0,1.808.496,2.6422,2.6422,0,0,0,1.952-.752,2.82,2.82,0,0,0,.768-2.112v-1.84a3.5019,3.5019,0,0,1-1.28,1.28,3.767,3.767,0,0,1-1.984.512,3.9659,3.9659,0,0,1-3.616-2.192,5.0323,5.0323,0,0,1-.544-2.368,4.8776,4.8776,0,0,1,.544-2.352,3.9465,3.9465,0,0,1,1.488-1.584A4.1491,4.1491,0,0,1,45.2439,329.088Zm3.264,4.512a3.5673,3.5673,0,0,0-.4-1.728,2.7523,2.7523,0,0,0-1.088-1.12,2.8514,2.8514,0,0,0-1.488-.4,2.9459,2.9459,0,0,0-1.488.384,2.7833,2.7833,0,0,0-1.072,1.12,3.5661,3.5661,0,0,0-.4,1.728,3.6931,3.6931,0,0,0,.4,1.76,2.8994,2.8994,0,0,0,1.072,1.136,3.075,3.075,0,0,0,2.976,0,2.8643,2.8643,0,0,0,1.088-1.136A3.66,3.66,0,0,0,48.5079,333.6Zm11.7661-3.168h-1.84V338H56.978v-7.568H55.842v-1.2h1.136v-.624a2.7414,2.7414,0,0,1,.752-2.144,3.6065,3.6065,0,0,1,2.448-.688v1.216a1.937,1.937,0,0,0-1.36.384,1.6541,1.6541,0,0,0-.384,1.232v.624h1.84Zm2.45-2.624a.992.992,0,1,1,0-1.984.8874.8874,0,0,1,.672.288,1.0044,1.0044,0,0,1,0,1.408A.8874.8874,0,0,1,62.7236,327.808Zm.704,1.424V338h-1.456v-8.768Zm6.7535-.16a3.5357,3.5357,0,0,1,2.592.976,3.6979,3.6979,0,0,1,.992,2.784V338h-1.44v-4.96a2.7892,2.7892,0,0,0-.656-2,2.331,2.331,0,0,0-1.792-.704,2.4261,2.4261,0,0,0-1.84.72,2.9644,2.9644,0,0,0-.672,2.096V338h-1.456v-8.768h1.456v1.248a2.9008,2.9008,0,0,1,1.168-1.04A3.703,3.703,0,0,1,70.1811,329.072ZM75.6,333.584a4.8776,4.8776,0,0,1,.544-2.352,3.9479,3.9479,0,0,1,1.488-1.584,4.18,4.18,0,0,1,2.144-.56,3.9132,3.9132,0,0,1,1.904.48,3.3479,3.3479,0,0,1,1.344,1.232v-4.64h1.472V338h-1.472v-1.648a3.46,3.46,0,0,1-1.28,1.296,3.855,3.855,0,0,1-1.984.496,3.9659,3.9659,0,0,1-3.616-2.192A5.0323,5.0323,0,0,1,75.6,333.584Zm7.424.016a3.5661,3.5661,0,0,0-.4-1.728,2.7517,2.7517,0,0,0-1.088-1.12,2.8514,2.8514,0,0,0-1.488-.4,2.9459,2.9459,0,0,0-1.488.384,2.7839,2.7839,0,0,0-1.072,1.12,3.5661,3.5661,0,0,0-.4,1.728,3.6931,3.6931,0,0,0,.4,1.76,2.9,2.9,0,0,0,1.072,1.136,3.075,3.075,0,0,0,2.976,0,2.8636,2.8636,0,0,0,1.088-1.136A3.6585,3.6585,0,0,0,83.0235,333.6Zm18.742-4.528a3.7756,3.7756,0,0,1,1.824.432,3.0089,3.0089,0,0,1,1.264,1.264,4.2486,4.2486,0,0,1,.464,2.064V338h-1.44v-4.96a2.791,2.791,0,0,0-.656-2,2.2409,2.2409,0,0,0-1.744-.704,2.3275,2.3275,0,0,0-1.808.736,2.9644,2.9644,0,0,0-.672,2.096V338h-1.44v-4.96a2.791,2.791,0,0,0-.656-2,2.2407,2.2407,0,0,0-1.7439-.704,2.3271,2.3271,0,0,0-1.808.736,2.9644,2.9644,0,0,0-.672,2.096V338h-1.456v-8.768h1.456v1.264a2.8856,2.8856,0,0,1,1.152-1.056,3.5669,3.5669,0,0,1,1.616-.368,3.79,3.79,0,0,1,1.9519.496,3.0281,3.0281,0,0,1,1.264,1.456,2.8731,2.8731,0,0,1,1.216-1.44A3.5851,3.5851,0,0,1,101.7655,329.072Zm9.765,9.072a4.5356,4.5356,0,0,1-2.24-.56,4.0615,4.0615,0,0,1-1.568-1.584,4.9746,4.9746,0,0,1-.56-2.4,4.7487,4.7487,0,0,1,.576-2.368,4.0087,4.0087,0,0,1,1.6-1.584,4.8242,4.8242,0,0,1,4.512,0,3.9311,3.9311,0,0,1,1.584,1.568,5.0683,5.0683,0,0,1-.016,4.784,4.121,4.121,0,0,1-1.616,1.584A4.6612,4.6612,0,0,1,111.5305,338.144Zm0-1.28a3.0811,3.0811,0,0,0,1.472-.368,2.7526,2.7526,0,0,0,1.104-1.104,3.4845,3.4845,0,0,0,.432-1.792,3.5953,3.5953,0,0,0-.416-1.792,2.6741,2.6741,0,0,0-1.088-1.088,3.096,3.096,0,0,0-2.928,0,2.5939,2.5939,0,0,0-1.056,1.088,3.7049,3.7049,0,0,0-.4,1.792,3.8737,3.8737,0,0,0,.384,1.808,2.6963,2.6963,0,0,0,1.056,1.104A2.9914,2.9914,0,0,0,111.5305,336.864Zm5.866-3.28a4.8742,4.8742,0,0,1,.544-2.352,3.952,3.952,0,0,1,1.488-1.584,4.18,4.18,0,0,1,2.144-.56,3.9132,3.9132,0,0,1,1.904.48,3.344,3.344,0,0,1,1.344,1.232v-4.64h1.472V338h-1.472v-1.648a3.4619,3.4619,0,0,1-1.28,1.296,3.855,3.855,0,0,1-1.984.496,3.9659,3.9659,0,0,1-3.616-2.192A5.0287,5.0287,0,0,1,117.3965,333.584Zm7.424.016a3.5628,3.5628,0,0,0-.4-1.728,2.7517,2.7517,0,0,0-1.088-1.12,2.8514,2.8514,0,0,0-1.488-.4,2.9459,2.9459,0,0,0-1.488.384,2.7859,2.7859,0,0,0-1.072,1.12,3.5628,3.5628,0,0,0-.4,1.728,3.69,3.69,0,0,0,.4,1.76,2.9022,2.9022,0,0,0,1.072,1.136,3.075,3.075,0,0,0,2.976,0,2.8636,2.8636,0,0,0,1.088-1.136A3.655,3.655,0,0,0,124.8205,333.6Zm7.548-4.512a3.8524,3.8524,0,0,1,1.984.496,3.2808,3.2808,0,0,1,1.28,1.248v-1.6h1.472v8.96a4.3258,4.3258,0,0,1-.512,2.128,3.6229,3.6229,0,0,1-1.472,1.472,4.4475,4.4475,0,0,1-2.208.528,4.8593,4.8593,0,0,1-2.88-.816,3.1893,3.1893,0,0,1-1.36-2.224h1.44a2.26,2.26,0,0,0,.992,1.28,3.2084,3.2084,0,0,0,1.808.496,2.6416,2.6416,0,0,0,1.952-.752,2.82,2.82,0,0,0,.768-2.112v-1.84a3.4966,3.4966,0,0,1-1.28,1.28,3.7643,3.7643,0,0,1-1.984.512,3.9659,3.9659,0,0,1-3.616-2.192,5.0407,5.0407,0,0,1-.544-2.368,4.8856,4.8856,0,0,1,.544-2.352,3.952,3.952,0,0,1,1.488-1.584A4.1509,4.1509,0,0,1,132.3685,329.088Zm3.264,4.512a3.5628,3.5628,0,0,0-.4-1.728,2.7455,2.7455,0,0,0-1.088-1.12,2.8514,2.8514,0,0,0-1.488-.4,2.9459,2.9459,0,0,0-1.488.384,2.7859,2.7859,0,0,0-1.072,1.12,3.574,3.574,0,0,0-.4,1.728,3.7013,3.7013,0,0,0,.4,1.76,2.9022,2.9022,0,0,0,1.072,1.136,3.075,3.075,0,0,0,2.976,0,2.8569,2.8569,0,0,0,1.088-1.136A3.655,3.655,0,0,0,135.6325,333.6Zm4.685-5.792a.992.992,0,1,1,0-1.984.8865.8865,0,0,1,.672.288,1.0044,1.0044,0,0,1,0,1.408A.8865.8865,0,0,1,140.3175,327.808Zm.704,1.424V338h-1.456v-8.768Zm6.049,1.2h-1.84V338h-1.456v-7.568h-1.136v-1.2h1.136v-.624a2.7425,2.7425,0,0,1,.752-2.144,3.6065,3.6065,0,0,1,2.448-.688v1.216a1.9375,1.9375,0,0,0-1.36.384,1.6541,1.6541,0,0,0-.384,1.232v.624h1.84Zm3.474,0V335.6a1.26,1.26,0,0,0,.272.912,1.3676,1.3676,0,0,0,.944.256h1.072V338h-1.312a2.6115,2.6115,0,0,1-1.824-.56,2.4047,2.4047,0,0,1-.608-1.84v-5.168h-1.136v-1.2h1.136v-2.208h1.456v2.208h2.288v1.2Zm12.052,2.848a8.5688,8.5688,0,0,1-.048.88h-7.008a2.73,2.73,0,0,0,2.848,2.752,2.6919,2.6919,0,0,0,1.568-.432,2.3566,2.3566,0,0,0,.896-1.184h1.568a3.8071,3.8071,0,0,1-1.408,2.064,4.2785,4.2785,0,0,1-2.624.784,4.479,4.479,0,0,1-2.24-.56,3.9843,3.9843,0,0,1-1.536-1.584,5.4589,5.4589,0,0,1-.016-4.784,3.7812,3.7812,0,0,1,1.52-1.568,4.5446,4.5446,0,0,1,2.272-.56,4.3969,4.3969,0,0,1,2.208.544,3.7,3.7,0,0,1,1.472,1.504A4.3154,4.3154,0,0,1,162.5965,333.28Zm-1.504-.304a2.6472,2.6472,0,0,0-.368-1.424,2.3163,2.3163,0,0,0-1.008-.912,3.01,3.01,0,0,0-1.392-.32,2.73,2.73,0,0,0-1.888.704,2.8863,2.8863,0,0,0-.88,1.952Zm7.698-3.904a3.5347,3.5347,0,0,1,2.592.976,3.7,3.7,0,0,1,.992,2.784V338h-1.44v-4.96a2.791,2.791,0,0,0-.656-2,2.3311,2.3311,0,0,0-1.792-.704,2.4265,2.4265,0,0,0-1.84.72,2.9644,2.9644,0,0,0-.672,2.096V338h-1.456v-8.768h1.456v1.248a2.8982,2.8982,0,0,1,1.168-1.04A3.7027,3.7027,0,0,1,168.7905,329.072Zm12.004,1.36V335.6a1.26,1.26,0,0,0,.272.912,1.3676,1.3676,0,0,0,.944.256h1.072V338h-1.312a2.6115,2.6115,0,0,1-1.824-.56,2.4047,2.4047,0,0,1-.608-1.84v-5.168h-1.136v-1.2h1.136v-2.208h1.456v2.208h2.288v1.2Zm4.804-2.624a.992.992,0,1,1,0-1.984.8865.8865,0,0,1,.672.288,1.0044,1.0044,0,0,1,0,1.408A.8865.8865,0,0,1,185.5985,327.808Zm.704,1.424V338h-1.456v-8.768Zm3.938-3.072V338h-1.456V326.16Zm14.747,7.12a8.5688,8.5688,0,0,1-.048.88h-7.008a2.73,2.73,0,0,0,2.848,2.752,2.6919,2.6919,0,0,0,1.568-.432,2.3621,2.3621,0,0,0,.896-1.184h1.568a3.8071,3.8071,0,0,1-1.408,2.064,4.2785,4.2785,0,0,1-2.624.784,4.479,4.479,0,0,1-2.24-.56,3.9843,3.9843,0,0,1-1.536-1.584,5.4589,5.4589,0,0,1-.016-4.784,3.7752,3.7752,0,0,1,1.52-1.568,4.542,4.542,0,0,1,2.272-.56,4.3969,4.3969,0,0,1,2.208.544,3.7059,3.7059,0,0,1,1.472,1.504A4.3154,4.3154,0,0,1,204.9875,333.28Zm-1.504-.304a2.6472,2.6472,0,0,0-.368-1.424,2.3273,2.3273,0,0,0-1.008-.912,3.01,3.01,0,0,0-1.392-.32,2.7279,2.7279,0,0,0-1.888.704,2.8819,2.8819,0,0,0-.88,1.952Zm7.698-3.904a3.5379,3.5379,0,0,1,2.592.976,3.7,3.7,0,0,1,.992,2.784V338h-1.44v-4.96a2.791,2.791,0,0,0-.656-2,2.3326,2.3326,0,0,0-1.792-.704,2.425,2.425,0,0,0-1.84.72,2.9644,2.9644,0,0,0-.672,2.096V338H206.91v-8.768h1.456v1.248a2.8982,2.8982,0,0,1,1.168-1.04A3.7,3.7,0,0,1,211.1815,329.072Zm9.684,4.512a4.8742,4.8742,0,0,1,.544-2.352,3.9384,3.9384,0,0,1,1.488-1.584,4.1779,4.1779,0,0,1,2.144-.56,3.9159,3.9159,0,0,1,1.904.48,3.357,3.357,0,0,1,1.344,1.232v-4.64h1.472V338H228.29v-1.648a3.4619,3.4619,0,0,1-1.28,1.296,3.8575,3.8575,0,0,1-1.984.496,3.9659,3.9659,0,0,1-3.616-2.192A5.0287,5.0287,0,0,1,220.8655,333.584Zm7.424.016a3.574,3.574,0,0,0-.4-1.728,2.758,2.758,0,0,0-1.088-1.12,2.8514,2.8514,0,0,0-1.488-.4,2.9459,2.9459,0,0,0-1.488.384,2.7793,2.7793,0,0,0-1.072,1.12,3.5628,3.5628,0,0,0-.4,1.728,3.69,3.69,0,0,0,.4,1.76,2.8951,2.8951,0,0,0,1.072,1.136,3.075,3.075,0,0,0,2.976,0,2.87,2.87,0,0,0,1.088-1.136A3.6667,3.6667,0,0,0,228.29,333.6Zm11.18-3.088a4.1678,4.1678,0,0,1,.784,1.376,4.9292,4.9292,0,0,1,.288,1.712,4.6687,4.6687,0,0,1-.608,2.4,4.1145,4.1145,0,0,1-1.616,1.584,4.6612,4.6612,0,0,1-2.272.56,4.46,4.46,0,0,1-2.736-.88l-.672.736h-1.04l1.152-1.264a4.6052,4.6052,0,0,1-.8-1.392,5.3953,5.3953,0,0,1-.272-1.744,4.7487,4.7487,0,0,1,.576-2.368,4.015,4.015,0,0,1,1.6-1.584,4.57,4.57,0,0,1,2.256-.56,4.4549,4.4549,0,0,1,2.8.912l.688-.768h1.04Zm-6.304,3.088a3.695,3.695,0,0,0,.56,2.08l4.256-4.672a2.8077,2.8077,0,0,0-1.888-.656,3.019,3.019,0,0,0-1.472.368,2.6056,2.6056,0,0,0-1.056,1.088A3.7049,3.7049,0,0,0,233.1655,333.6Zm5.888,0a3.3911,3.3911,0,0,0-.56-2.016l-4.256,4.672a2.7863,2.7863,0,0,0,1.808.608,3.0782,3.0782,0,0,0,1.472-.368,2.74,2.74,0,0,0,1.104-1.104A3.4845,3.4845,0,0,0,239.0535,333.6Zm2.859-.016a4.8742,4.8742,0,0,1,.544-2.352,3.9384,3.9384,0,0,1,1.488-1.584,4.1779,4.1779,0,0,1,2.144-.56,3.9159,3.9159,0,0,1,1.904.48,3.357,3.357,0,0,1,1.344,1.232v-4.64h1.472V338h-1.472v-1.648a3.4619,3.4619,0,0,1-1.28,1.296,3.8575,3.8575,0,0,1-1.984.496,3.9659,3.9659,0,0,1-3.616-2.192A5.0287,5.0287,0,0,1,241.9125,333.584Zm7.424.016a3.574,3.574,0,0,0-.4-1.728,2.758,2.758,0,0,0-1.088-1.12,2.8514,2.8514,0,0,0-1.488-.4,2.9459,2.9459,0,0,0-1.488.384,2.7793,2.7793,0,0,0-1.072,1.12,3.5628,3.5628,0,0,0-.4,1.728,3.69,3.69,0,0,0,.4,1.76,2.8951,2.8951,0,0,0,1.072,1.136,3.075,3.075,0,0,0,2.976,0,2.87,2.87,0,0,0,1.088-1.136A3.6667,3.6667,0,0,0,249.3365,333.6Zm11.932-.32a8.5418,8.5418,0,0,1-.0481.88h-7.0079a2.73,2.73,0,0,0,2.8479,2.752,2.692,2.692,0,0,0,1.5681-.432,2.3571,2.3571,0,0,0,.896-1.184h1.568a3.8076,3.8076,0,0,1-1.408,2.064,4.2786,4.2786,0,0,1-2.6241.784,4.4786,4.4786,0,0,1-2.24-.56A3.9851,3.9851,0,0,1,253.2844,336a5.4585,5.4585,0,0,1-.0159-4.784,3.7812,3.7812,0,0,1,1.52-1.568,4.5443,4.5443,0,0,1,2.2719-.56,4.3973,4.3973,0,0,1,2.2081.544,3.7,3.7,0,0,1,1.472,1.504A4.3154,4.3154,0,0,1,261.2685,333.28Zm-1.504-.304a2.6463,2.6463,0,0,0-.3681-1.424,2.3158,2.3158,0,0,0-1.008-.912,3.0093,3.0093,0,0,0-1.392-.32,2.73,2.73,0,0,0-1.888.704,2.8872,2.8872,0,0,0-.88,1.952Zm4.8819-6.816V338h-1.4559V326.16Zm3.233,1.648a.992.992,0,1,1,0-1.984.8867.8867,0,0,1,.6721.288,1.0044,1.0044,0,0,1,0,1.408A.8867.8867,0,0,1,267.8794,327.808Zm.7041,1.424V338h-1.456v-8.768Zm6.0979-.144a3.8551,3.8551,0,0,1,1.9841.496,3.2821,3.2821,0,0,1,1.28,1.248v-1.6h1.472v8.96a4.3367,4.3367,0,0,1-.5121,2.128,3.6227,3.6227,0,0,1-1.4719,1.472,4.4475,4.4475,0,0,1-2.208.528,4.86,4.86,0,0,1-2.88-.816,3.1892,3.1892,0,0,1-1.36-2.224h1.44a2.26,2.26,0,0,0,.992,1.28,3.2057,3.2057,0,0,0,1.808.496,2.6412,2.6412,0,0,0,1.9519-.752,2.82,2.82,0,0,0,.7681-2.112v-1.84a3.5042,3.5042,0,0,1-1.28,1.28,3.7669,3.7669,0,0,1-1.9841.512,3.9659,3.9659,0,0,1-3.6159-2.192,5.0276,5.0276,0,0,1-.5441-2.368,4.8731,4.8731,0,0,1,.5441-2.352,3.952,3.952,0,0,1,1.488-1.584A4.1482,4.1482,0,0,1,274.6814,329.088Zm3.2641,4.512a3.5628,3.5628,0,0,0-.4-1.728,2.7513,2.7513,0,0,0-1.0881-1.12,2.851,2.851,0,0,0-1.4879-.4,2.9459,2.9459,0,0,0-1.488.384,2.7868,2.7868,0,0,0-1.0721,1.12,3.5628,3.5628,0,0,0-.4,1.728,3.69,3.69,0,0,0,.4,1.76,2.9032,2.9032,0,0,0,1.0721,1.136,3.0748,3.0748,0,0,0,2.9759,0,2.8632,2.8632,0,0,0,1.0881-1.136A3.655,3.655,0,0,0,277.9455,333.6ZM34.6575,362.656l2.72-7.424H38.93L35.49,364h-1.696l-3.44-8.768h1.568Zm6.4568-8.848a.992.992,0,1,1,0-1.984.8877.8877,0,0,1,.672.288,1.0044,1.0044,0,0,1,0,1.408A.8877.8877,0,0,1,41.1143,353.808Zm.704,1.424V364h-1.456v-8.768Zm3.9375,1.424a2.8078,2.8078,0,0,1,1.088-1.168,3.4351,3.4351,0,0,1,1.744-.416v1.504h-.384q-2.448,0-2.448,2.656V364H44.3v-8.768h1.456Zm12.2887-1.424V364h-1.456v-1.296a2.8781,2.8781,0,0,1-1.168,1.056,3.6023,3.6023,0,0,1-1.632.368,3.997,3.997,0,0,1-1.84-.416,3.1859,3.1859,0,0,1-1.296-1.28,4.2453,4.2453,0,0,1-.464-2.064v-5.136h1.44v4.944a2.8243,2.8243,0,0,0,.656,2,2.3572,2.3572,0,0,0,1.792.688,2.3942,2.3942,0,0,0,1.84-.72,2.9644,2.9644,0,0,0,.672-2.096v-4.816Zm5.5624,8.912a4.63,4.63,0,0,1-1.808-.336,3.1466,3.1466,0,0,1-1.264-.96,2.5953,2.5953,0,0,1-.512-1.424h1.504a1.4835,1.4835,0,0,0,.608,1.072,2.3819,2.3819,0,0,0,1.456.416,2.1092,2.1092,0,0,0,1.312-.368,1.1245,1.1245,0,0,0,.48-.928.8981.8981,0,0,0-.512-.848,6.84,6.84,0,0,0-1.584-.56,13.0339,13.0339,0,0,1-1.6-.512,3.037,3.037,0,0,1-1.056-.784,2.1041,2.1041,0,0,1-.432-1.376,2.0721,2.0721,0,0,1,.4-1.232,2.6551,2.6551,0,0,1,1.136-.88,4.0033,4.0033,0,0,1,1.68-.336,3.5857,3.5857,0,0,1,2.352.736,2.6531,2.6531,0,0,1,.96,2.016h-1.456a1.4931,1.4931,0,0,0-.56-1.104,2.0275,2.0275,0,0,0-1.344-.416,2.0854,2.0854,0,0,0-1.248.336,1.0378,1.0378,0,0,0-.464.88,1.0074,1.0074,0,0,0,.272.72,2.3408,2.3408,0,0,0,.704.448q.432.16,1.184.368a11.6675,11.6675,0,0,1,1.536.512,2.5447,2.5447,0,0,1,1.008.736,1.9666,1.9666,0,0,1,.448,1.296,2.2194,2.2194,0,0,1-.4,1.296,2.716,2.716,0,0,1-1.136.912A4.068,4.068,0,0,1,63.6069,364.144Zm6.7594-2.16-1.792,4.304h-.9761l1.1681-4.304Zm9.5015-5.552h-1.84V364h-1.456v-7.568h-1.136v-1.2h1.136v-.624a2.7411,2.7411,0,0,1,.752-2.144,3.6064,3.6064,0,0,1,2.4479-.688v1.216a1.9367,1.9367,0,0,0-1.36.384,1.6541,1.6541,0,0,0-.384,1.232v.624h1.84Zm8.9456.08a4.17,4.17,0,0,1,.784,1.376,4.9292,4.9292,0,0,1,.288,1.712,4.6657,4.6657,0,0,1-.608,2.4,4.1151,4.1151,0,0,1-1.616,1.584,4.66,4.66,0,0,1-2.272.56,4.4613,4.4613,0,0,1-2.736-.88l-.672.736h-1.04l1.152-1.264a4.5969,4.5969,0,0,1-.8-1.392,5.3845,5.3845,0,0,1-.272-1.744,4.7487,4.7487,0,0,1,.576-2.368,4.0125,4.0125,0,0,1,1.6-1.584,4.57,4.57,0,0,1,2.256-.56,4.4551,4.4551,0,0,1,2.8.912l.688-.768h1.04Zm-6.304,3.088a3.6918,3.6918,0,0,0,.56,2.08l4.256-4.672a2.8084,2.8084,0,0,0-1.888-.656,3.0179,3.0179,0,0,0-1.472.368,2.6009,2.6009,0,0,0-1.056,1.088A3.7083,3.7083,0,0,0,82.5094,359.6Zm5.888,0a3.389,3.389,0,0,0-.56-2.016l-4.256,4.672a2.7868,2.7868,0,0,0,1.808.608,3.0785,3.0785,0,0,0,1.472-.368,2.7453,2.7453,0,0,0,1.104-1.104A3.4845,3.4845,0,0,0,88.3974,359.6Zm4.8584-2.944a2.8078,2.8078,0,0,1,1.088-1.168,3.4351,3.4351,0,0,1,1.744-.416v1.504h-.384q-2.448,0-2.448,2.656V364H91.8v-8.768h1.456Zm8.2347,2.928a4.8742,4.8742,0,0,1,.544-2.352,3.9384,3.9384,0,0,1,1.488-1.584,4.1779,4.1779,0,0,1,2.144-.56,3.9159,3.9159,0,0,1,1.904.48,3.357,3.357,0,0,1,1.344,1.232v-4.64h1.472V364h-1.472v-1.648a3.4619,3.4619,0,0,1-1.28,1.296,3.8575,3.8575,0,0,1-1.984.496,3.9659,3.9659,0,0,1-3.616-2.192A5.0287,5.0287,0,0,1,101.4905,359.584Zm7.424.016a3.574,3.574,0,0,0-.4-1.728,2.758,2.758,0,0,0-1.088-1.12,2.8514,2.8514,0,0,0-1.488-.4,2.9459,2.9459,0,0,0-1.488.384,2.7793,2.7793,0,0,0-1.072,1.12,3.5628,3.5628,0,0,0-.4,1.728,3.69,3.69,0,0,0,.4,1.76,2.8951,2.8951,0,0,0,1.072,1.136,3.075,3.075,0,0,0,2.976,0,2.87,2.87,0,0,0,1.088-1.136A3.6667,3.6667,0,0,0,108.9145,359.6Zm11.932-.32a8.5688,8.5688,0,0,1-.048.88h-7.008a2.73,2.73,0,0,0,2.848,2.752,2.6919,2.6919,0,0,0,1.568-.432,2.3566,2.3566,0,0,0,.896-1.184h1.568a3.8071,3.8071,0,0,1-1.408,2.064,4.2785,4.2785,0,0,1-2.624.784,4.479,4.479,0,0,1-2.24-.56,3.9843,3.9843,0,0,1-1.536-1.584,5.4589,5.4589,0,0,1-.016-4.784,3.7812,3.7812,0,0,1,1.52-1.568,4.5446,4.5446,0,0,1,2.272-.56,4.3969,4.3969,0,0,1,2.208.544,3.7,3.7,0,0,1,1.472,1.504A4.3154,4.3154,0,0,1,120.8465,359.28Zm-1.504-.304a2.6472,2.6472,0,0,0-.368-1.424,2.3163,2.3163,0,0,0-1.008-.912,3.01,3.01,0,0,0-1.392-.32,2.73,2.73,0,0,0-1.888.704,2.8863,2.8863,0,0,0-.88,1.952Zm5.202-2.544V361.6a1.26,1.26,0,0,0,.272.912,1.3676,1.3676,0,0,0,.944.256h1.072V364h-1.312a2.6115,2.6115,0,0,1-1.824-.56,2.4047,2.4047,0,0,1-.608-1.84v-5.168h-1.136v-1.2h1.136v-2.208h1.456v2.208h2.288v1.2Zm16.318,2.848a8.5688,8.5688,0,0,1-.048.88h-7.008a2.73,2.73,0,0,0,2.848,2.752,2.6919,2.6919,0,0,0,1.568-.432,2.3621,2.3621,0,0,0,.896-1.184h1.568a3.8071,3.8071,0,0,1-1.408,2.064,4.2785,4.2785,0,0,1-2.624.784,4.479,4.479,0,0,1-2.24-.56,3.9843,3.9843,0,0,1-1.536-1.584,5.4589,5.4589,0,0,1-.016-4.784,3.7752,3.7752,0,0,1,1.52-1.568,4.542,4.542,0,0,1,2.272-.56,4.3969,4.3969,0,0,1,2.208.544,3.7059,3.7059,0,0,1,1.472,1.504A4.3154,4.3154,0,0,1,140.8625,359.28Zm-1.504-.304a2.6472,2.6472,0,0,0-.368-1.424,2.3273,2.3273,0,0,0-1.008-.912,3.01,3.01,0,0,0-1.392-.32,2.7279,2.7279,0,0,0-1.888.704,2.8819,2.8819,0,0,0-.88,1.952Zm4.882-2.32a2.804,2.804,0,0,1,1.088-1.168,3.4343,3.4343,0,0,1,1.744-.416v1.504h-.384q-2.448,0-2.448,2.656V364h-1.456v-8.768h1.456Zm12.346-.224h-1.84V364h-1.456v-7.568h-1.136v-1.2h1.136v-.624a2.7425,2.7425,0,0,1,.752-2.144,3.6065,3.6065,0,0,1,2.448-.688v1.216a1.9375,1.9375,0,0,0-1.36.384,1.6541,1.6541,0,0,0-.384,1.232v.624h1.84Zm5.522,7.712a4.5356,4.5356,0,0,1-2.24-.56,4.0615,4.0615,0,0,1-1.568-1.584,4.9746,4.9746,0,0,1-.56-2.4,4.7487,4.7487,0,0,1,.576-2.368,4.0087,4.0087,0,0,1,1.6-1.584,4.8242,4.8242,0,0,1,4.512,0,3.9311,3.9311,0,0,1,1.584,1.568,5.0683,5.0683,0,0,1-.016,4.784,4.121,4.121,0,0,1-1.616,1.584A4.6612,4.6612,0,0,1,162.1085,364.144Zm0-1.28a3.0811,3.0811,0,0,0,1.472-.368,2.7526,2.7526,0,0,0,1.104-1.104,3.4845,3.4845,0,0,0,.432-1.792,3.5953,3.5953,0,0,0-.416-1.792,2.6741,2.6741,0,0,0-1.088-1.088,3.096,3.096,0,0,0-2.928,0,2.5939,2.5939,0,0,0-1.056,1.088,3.7049,3.7049,0,0,0-.4,1.792,3.8737,3.8737,0,0,0,.384,1.808,2.6963,2.6963,0,0,0,1.056,1.104A2.9914,2.9914,0,0,0,162.1085,362.864Zm7.866-6.208a2.81,2.81,0,0,1,1.088-1.168,3.4343,3.4343,0,0,1,1.744-.416v1.504h-.384q-2.448,0-2.448,2.656V364h-1.456v-8.768h1.456Zm11.882,7.488a4.632,4.632,0,0,1-1.808-.336,3.1542,3.1542,0,0,1-1.264-.96,2.5984,2.5984,0,0,1-.512-1.424h1.504a1.4872,1.4872,0,0,0,.608,1.072,2.3841,2.3841,0,0,0,1.456.416,2.1084,2.1084,0,0,0,1.312-.368,1.1245,1.1245,0,0,0,.48-.928.897.897,0,0,0-.512-.848,6.8254,6.8254,0,0,0-1.584-.56,13.0736,13.0736,0,0,1-1.6-.512,3.0444,3.0444,0,0,1-1.056-.784,2.1041,2.1041,0,0,1-.432-1.376,2.0769,2.0769,0,0,1,.4-1.232,2.6617,2.6617,0,0,1,1.136-.88,4.0059,4.0059,0,0,1,1.68-.336,3.5842,3.5842,0,0,1,2.352.736,2.6485,2.6485,0,0,1,.96,2.016h-1.456a1.4907,1.4907,0,0,0-.56-1.104,2.025,2.025,0,0,0-1.344-.416,2.0883,2.0883,0,0,0-1.248.336,1.0387,1.0387,0,0,0-.464.88,1.0091,1.0091,0,0,0,.272.72,2.3458,2.3458,0,0,0,.704.448q.432.16,1.184.368a11.597,11.597,0,0,1,1.536.512,2.5391,2.5391,0,0,1,1.008.736,1.9629,1.9629,0,0,1,.448,1.296,2.2165,2.2165,0,0,1-.4,1.296,2.7092,2.7092,0,0,1-1.136.912A4.0657,4.0657,0,0,1,181.8565,364.144Zm13.256-4.864a8.5688,8.5688,0,0,1-.048.88h-7.008a2.73,2.73,0,0,0,2.848,2.752,2.6919,2.6919,0,0,0,1.568-.432,2.3621,2.3621,0,0,0,.896-1.184h1.568a3.8071,3.8071,0,0,1-1.408,2.064,4.2785,4.2785,0,0,1-2.624.784,4.479,4.479,0,0,1-2.24-.56,3.9843,3.9843,0,0,1-1.536-1.584,5.4589,5.4589,0,0,1-.016-4.784,3.7752,3.7752,0,0,1,1.52-1.568,4.542,4.542,0,0,1,2.272-.56,4.3969,4.3969,0,0,1,2.208.544,3.7059,3.7059,0,0,1,1.472,1.504A4.3154,4.3154,0,0,1,195.1125,359.28Zm-1.504-.304a2.6472,2.6472,0,0,0-.368-1.424,2.3273,2.3273,0,0,0-1.008-.912,3.01,3.01,0,0,0-1.392-.32,2.7279,2.7279,0,0,0-1.888.704,2.8819,2.8819,0,0,0-.88,1.952Zm7.698-3.904a3.5379,3.5379,0,0,1,2.592.976,3.7,3.7,0,0,1,.992,2.784V364h-1.44v-4.96a2.791,2.791,0,0,0-.656-2,2.3326,2.3326,0,0,0-1.792-.704,2.425,2.425,0,0,0-1.84.72,2.9644,2.9644,0,0,0-.672,2.096V364h-1.456v-8.768h1.456v1.248a2.8982,2.8982,0,0,1,1.168-1.04A3.7,3.7,0,0,1,201.3065,355.072Zm7.738,1.36V361.6a1.26,1.26,0,0,0,.272.912,1.3676,1.3676,0,0,0,.944.256h1.072V364h-1.312a2.6115,2.6115,0,0,1-1.824-.56,2.4047,2.4047,0,0,1-.608-1.84v-5.168h-1.136v-1.2h1.136v-2.208h1.456v2.208h2.288v1.2Zm4.516,7.664a.992.992,0,1,1,0-1.984.8865.8865,0,0,1,.672.288,1.0044,1.0044,0,0,1,0,1.408A.8865.8865,0,0,1,213.5605,364.096Z"/>
      <path d="M37.6015,277.272a2.5085,2.5085,0,0,1,1.552.944,2.7579,2.7579,0,0,1,.608,1.76,2.8389,2.8389,0,0,1-.448,1.584,2.8966,2.8966,0,0,1-1.264,1.056,4.66,4.66,0,0,1-1.968.384h-4.816V271.832h4.608a4.7276,4.7276,0,0,1,1.952.368,2.734,2.734,0,0,1,1.248,1.024,2.6432,2.6432,0,0,1,.432,1.488,2.5182,2.5182,0,0,1-.528,1.632A2.7363,2.7363,0,0,1,37.6015,277.272Zm-4.096-.832h2.048a1.9028,1.9028,0,0,0,1.232-.352,1.4679,1.4679,0,0,0,0-2.08,1.8486,1.8486,0,0,0-1.232-.368h-2.048Zm2.256,4.736a1.8844,1.8844,0,0,0,1.264-.384,1.3335,1.3335,0,0,0,.464-1.088,1.378,1.378,0,0,0-.48-1.12,1.9125,1.9125,0,0,0-1.296-.416h-2.208v3.008Zm14.0253-2.8a5.2938,5.2938,0,0,1-.064.864h-6.48a2.2042,2.2042,0,0,0,.672,1.504,2.07,2.07,0,0,0,1.456.544,1.8286,1.8286,0,0,0,1.776-1.072h2.416a4.0814,4.0814,0,0,1-1.472,2.112,4.3265,4.3265,0,0,1-2.672.816,4.7254,4.7254,0,0,1-2.304-.56,4.1239,4.1239,0,0,1-1.584-1.616,5.4563,5.4563,0,0,1,0-4.816,3.9072,3.9072,0,0,1,1.568-1.6,4.7008,4.7008,0,0,1,2.32-.56,4.6109,4.6109,0,0,1,2.256.544,3.7549,3.7549,0,0,1,1.552,1.552A4.5734,4.5734,0,0,1,49.7868,278.376Zm-2.32-.64a1.7517,1.7517,0,0,0-.624-1.376,2.19,2.19,0,0,0-1.488-.528,2.0453,2.0453,0,0,0-1.408.512,2.2014,2.2014,0,0,0-.688,1.392Zm7.347,5.408a4.7575,4.7575,0,0,1-1.952-.384,3.5838,3.5838,0,0,1-1.376-1.072,2.7275,2.7275,0,0,1-.544-1.488h2.256a1.238,1.238,0,0,0,.496.848,1.7874,1.7874,0,0,0,1.104.336,1.6614,1.6614,0,0,0,.992-.256.7709.7709,0,0,0,.368-.656.6771.6771,0,0,0-.448-.64,7.4792,7.4792,0,0,0-1.3921-.48,12.208,12.208,0,0,1-1.6319-.496,2.9041,2.9041,0,0,1-1.088-.784,2.1293,2.1293,0,0,1-.448-1.424,2.3263,2.3263,0,0,1,.416-1.344,2.9174,2.9174,0,0,1,1.216-.96,4.61,4.61,0,0,1,1.872-.352,3.7826,3.7826,0,0,1,2.528.8,2.9081,2.9081,0,0,1,1.04,2.128h-2.144a1.1255,1.1255,0,0,0-.448-.832,1.5761,1.5761,0,0,0-1.04-.32,1.6948,1.6948,0,0,0-.944.224.7182.7182,0,0,0-.32.624.749.749,0,0,0,.448.688,7.4388,7.4388,0,0,0,1.392.464,11.7674,11.7674,0,0,1,1.584.496,2.7038,2.7038,0,0,1,1.072.8,2.1172,2.1172,0,0,1,.48,1.408,2.3171,2.3171,0,0,1-.432,1.376,2.7892,2.7892,0,0,1-1.216.96A4.6443,4.6443,0,0,1,54.8138,283.144ZM65.3885,283l-3.008-3.776V283h-2.24V271.16h2.24v6.736l2.976-3.76h2.912l-3.904,4.448L68.3005,283Zm6.3358-7.488a3.0573,3.0573,0,0,1,2.72-1.504v2.352h-.592a1.8611,1.8611,0,0,0-2.128,2.224V283h-2.24v-8.864h2.24Zm5.3647-2.432a1.4114,1.4114,0,0,1-.992-.368,1.2837,1.2837,0,0,1-.384-.944,1.231,1.231,0,0,1,.384-.928,1.3767,1.3767,0,0,1,.992-.384,1.3222,1.3222,0,0,1,.976.384,1.2069,1.2069,0,0,1,.4.928,1.2578,1.2578,0,0,1-.4.944A1.3547,1.3547,0,0,1,77.089,273.08Zm1.104,1.056V283h-2.24v-8.864Zm5.9091,6.8,2.24-6.8h2.384L85.4461,283h-2.72l-3.264-8.864h2.4Zm14.1224-2.56a5.3615,5.3615,0,0,1-.064.864H91.68a2.2042,2.2042,0,0,0,.672,1.504,2.07,2.07,0,0,0,1.456.544,1.8286,1.8286,0,0,0,1.776-1.072h2.4162a4.0831,4.0831,0,0,1-1.472,2.112,4.3275,4.3275,0,0,1-2.6722.816,4.7254,4.7254,0,0,1-2.304-.56,4.1239,4.1239,0,0,1-1.584-1.616,5.4563,5.4563,0,0,1,0-4.816,3.9072,3.9072,0,0,1,1.568-1.6,4.7008,4.7008,0,0,1,2.32-.56,4.6109,4.6109,0,0,1,2.256.544,3.7559,3.7559,0,0,1,1.5522,1.552A4.5766,4.5766,0,0,1,98.2245,278.376Zm-2.32-.64a1.7517,1.7517,0,0,0-.624-1.376,2.19,2.19,0,0,0-1.488-.528,2.0453,2.0453,0,0,0-1.408.512,2.2014,2.2014,0,0,0-.688,1.392ZM102.1,271.16V283H99.86V271.16Zm5.605,11.984a4.7589,4.7589,0,0,1-1.952-.384,3.5816,3.5816,0,0,1-1.376-1.072,2.7252,2.7252,0,0,1-.544-1.488h2.256a1.24,1.24,0,0,0,.496.848,1.789,1.789,0,0,0,1.104.336,1.6612,1.6612,0,0,0,.992-.256.7716.7716,0,0,0,.368-.656.6765.6765,0,0,0-.448-.64,7.48,7.48,0,0,0-1.392-.48,12.2422,12.2422,0,0,1-1.632-.496,2.9017,2.9017,0,0,1-1.088-.784,2.1277,2.1277,0,0,1-.448-1.424,2.3292,2.3292,0,0,1,.416-1.344,2.9155,2.9155,0,0,1,1.216-.96,4.6079,4.6079,0,0,1,1.872-.352,3.7819,3.7819,0,0,1,2.528.8,2.9092,2.9092,0,0,1,1.04,2.128h-2.144a1.1242,1.1242,0,0,0-.448-.832,1.5766,1.5766,0,0,0-1.04-.32,1.6957,1.6957,0,0,0-.944.224.7191.7191,0,0,0-.32.624.7485.7485,0,0,0,.448.688,7.46,7.46,0,0,0,1.392.464,11.7674,11.7674,0,0,1,1.584.496,2.7059,2.7059,0,0,1,1.072.8,2.12,2.12,0,0,1,.48,1.408,2.3171,2.3171,0,0,1-.432,1.376,2.7886,2.7886,0,0,1-1.216.96A4.6453,4.6453,0,0,1,107.7045,283.144Zm13.567-4.768a5.3615,5.3615,0,0,1-.064.864h-6.48a2.2015,2.2015,0,0,0,.672,1.504,2.07,2.07,0,0,0,1.456.544,1.8286,1.8286,0,0,0,1.776-1.072h2.416a4.0831,4.0831,0,0,1-1.472,2.112,4.3277,4.3277,0,0,1-2.672.816,4.7221,4.7221,0,0,1-2.304-.56,4.1239,4.1239,0,0,1-1.584-1.616,5.4571,5.4571,0,0,1,0-4.816,3.9054,3.9054,0,0,1,1.568-1.6,4.7,4.7,0,0,1,2.32-.56,4.6141,4.6141,0,0,1,2.256.544,3.7566,3.7566,0,0,1,1.552,1.552A4.5766,4.5766,0,0,1,121.2715,278.376Zm-2.32-.64a1.7536,1.7536,0,0,0-.624-1.376,2.1925,2.1925,0,0,0-1.488-.528,2.0448,2.0448,0,0,0-1.408.512,2.1971,2.1971,0,0,0-.688,1.392Z"/>
      <path d="M237.5755,447.636v.888H233.94v2.82h2.952v.888H233.94V456h-1.092v-8.364Zm4.187,8.472a3.4,3.4,0,0,1-1.68-.42,3.0527,3.0527,0,0,1-1.176-1.188,3.738,3.738,0,0,1-.42-1.8,3.5609,3.5609,0,0,1,.432-1.776,3.0065,3.0065,0,0,1,1.2-1.188,3.6182,3.6182,0,0,1,3.384,0,2.9483,2.9483,0,0,1,1.188,1.176,3.8012,3.8012,0,0,1-.012,3.588,3.0892,3.0892,0,0,1-1.212,1.188A3.4925,3.4925,0,0,1,241.7625,456.108Zm0-.96a2.3058,2.3058,0,0,0,1.104-.276,2.0614,2.0614,0,0,0,.828-.828,2.6127,2.6127,0,0,0,.324-1.344,2.6931,2.6931,0,0,0-.312-1.344,2.0026,2.0026,0,0,0-.816-.816,2.2371,2.2371,0,0,0-1.092-.276,2.2608,2.2608,0,0,0-1.104.276,1.9513,1.9513,0,0,0-.792.816,2.7808,2.7808,0,0,0-.3,1.344,2.9053,2.9053,0,0,0,.288,1.356,2.0316,2.0316,0,0,0,.792.828A2.2478,2.2478,0,0,0,241.7625,455.148Zm5.899-4.656a2.1062,2.1062,0,0,1,.816-.876,2.5739,2.5739,0,0,1,1.308-.312v1.128h-.288q-1.836,0-1.836,1.992V456H246.57v-6.576h1.092Zm9.788-1.188a2.6529,2.6529,0,0,1,1.944.732,2.7736,2.7736,0,0,1,.744,2.088V456h-1.08v-3.72a2.0921,2.0921,0,0,0-.492-1.5,1.7478,1.7478,0,0,0-1.344-.528,1.8194,1.8194,0,0,0-1.38.54,2.2229,2.2229,0,0,0-.504,1.572V456h-1.092v-6.576h1.092v.936a2.1764,2.1764,0,0,1,.876-.78A2.7737,2.7737,0,0,1,257.45,449.304Zm10.136.12-3.96,9.672h-1.1279l1.2959-3.168-2.6519-6.504h1.2119l2.0641,5.328,2.04-5.328Zm7.098,3.036a6.4266,6.4266,0,0,1-.036.66h-5.256a2.0478,2.0478,0,0,0,2.136,2.064,2.0184,2.0184,0,0,0,1.176-.324,1.7667,1.7667,0,0,0,.6719-.888h1.1761a2.8563,2.8563,0,0,1-1.056,1.548,3.21,3.21,0,0,1-1.968.588,3.3573,3.3573,0,0,1-1.68-.42,2.9947,2.9947,0,0,1-1.152-1.188,4.0942,4.0942,0,0,1-.012-3.588,2.8363,2.8363,0,0,1,1.14-1.176,3.4063,3.4063,0,0,1,1.7041-.42,3.3005,3.3005,0,0,1,1.656.408,2.7748,2.7748,0,0,1,1.104,1.128A3.2372,3.2372,0,0,1,274.6835,452.46Zm-1.128-.228a1.9832,1.9832,0,0,0-.276-1.068,1.7375,1.7375,0,0,0-.756-.684,2.2544,2.2544,0,0,0-1.044-.24,2.0455,2.0455,0,0,0-1.416.528,2.1641,2.1641,0,0,0-.66,1.464ZM227.91,476.108a3.4723,3.4723,0,0,1-1.356-.252,2.356,2.356,0,0,1-.948-.72,1.9461,1.9461,0,0,1-.384-1.068h1.128a1.1129,1.1129,0,0,0,.456.804,1.7849,1.7849,0,0,0,1.092.312,1.58,1.58,0,0,0,.984-.276.8434.8434,0,0,0,.36-.696.6738.6738,0,0,0-.384-.636,5.14,5.14,0,0,0-1.188-.42,9.7768,9.7768,0,0,1-1.2-.384,2.2787,2.2787,0,0,1-.792-.588,1.5776,1.5776,0,0,1-.324-1.032,1.5548,1.5548,0,0,1,.3-.924,1.9917,1.9917,0,0,1,.852-.66,3.0028,3.0028,0,0,1,1.26-.252,2.69,2.69,0,0,1,1.764.552,1.9889,1.9889,0,0,1,.72,1.512h-1.092a1.1206,1.1206,0,0,0-.42-.828,1.5192,1.5192,0,0,0-1.008-.312,1.5641,1.5641,0,0,0-.936.252.7788.7788,0,0,0-.348.66.7557.7557,0,0,0,.204.54,1.7562,1.7562,0,0,0,.528.336q.324.12.888.276a8.7481,8.7481,0,0,1,1.152.384,1.91,1.91,0,0,1,.756.552,1.4738,1.4738,0,0,1,.336.972,1.6642,1.6642,0,0,1-.3.972,2.0365,2.0365,0,0,1-.852.684A3.0468,3.0468,0,0,1,227.91,476.108Zm3.534-3.42a3.6585,3.6585,0,0,1,.408-1.764,2.9638,2.9638,0,0,1,1.116-1.188,3.11,3.11,0,0,1,1.596-.42,2.918,2.918,0,0,1,1.5.372,2.4786,2.4786,0,0,1,.948.936v-1.2h1.104V476h-1.104v-1.224a2.6042,2.6042,0,0,1-.972.96,2.8937,2.8937,0,0,1-1.488.372,2.9809,2.9809,0,0,1-1.584-.432,3.03,3.03,0,0,1-1.116-1.212A3.7745,3.7745,0,0,1,231.4435,472.688Zm5.568.012a2.6735,2.6735,0,0,0-.3-1.296,2.0653,2.0653,0,0,0-.816-.84,2.1409,2.1409,0,0,0-1.116-.3,2.21,2.21,0,0,0-1.116.288,2.0894,2.0894,0,0,0-.804.84,2.6735,2.6735,0,0,0-.3,1.296,2.7708,2.7708,0,0,0,.3,1.32,2.1749,2.1749,0,0,0,.804.852,2.3063,2.3063,0,0,0,2.232,0,2.1477,2.1477,0,0,0,.816-.852A2.7442,2.7442,0,0,0,237.0115,472.7Zm-.732-5.244a1.2054,1.2054,0,0,1-.372.924,1.3871,1.3871,0,0,1-1.824-.012,1.3039,1.3039,0,0,1,0-1.824,1.2852,1.2852,0,0,1,.912-.348,1.2588,1.2588,0,0,1,.912.348A1.1675,1.1675,0,0,1,236.28,467.456Zm-.636-.012a.6267.6267,0,0,0-.192-.48.5981.5981,0,0,0-.456-.192.6368.6368,0,0,0-.468.192.6487.6487,0,0,0-.18.48.6906.6906,0,0,0,.18.492.6368.6368,0,0,0,.468.192.5981.5981,0,0,0,.456-.192A.6661.6661,0,0,0,235.6435,467.444Zm6.765,7.548,2.04-5.568h1.164l-2.58,6.576h-1.272l-2.58-6.576h1.176Zm10.279-2.532a6.4,6.4,0,0,1-.0361.66h-5.2559a2.0478,2.0478,0,0,0,2.136,2.064,2.0184,2.0184,0,0,0,1.176-.324,1.7674,1.7674,0,0,0,.672-.888h1.176a2.8563,2.8563,0,0,1-1.056,1.548,3.21,3.21,0,0,1-1.968.588,3.3573,3.3573,0,0,1-1.68-.42A2.9947,2.9947,0,0,1,246.7,474.5a4.0942,4.0942,0,0,1-.012-3.588,2.8359,2.8359,0,0,1,1.14-1.176,3.4059,3.4059,0,0,1,1.704-.42,3.3,3.3,0,0,1,1.656.408,2.7748,2.7748,0,0,1,1.104,1.128A3.2372,3.2372,0,0,1,252.6875,472.46Zm-1.128-.228a1.9832,1.9832,0,0,0-.276-1.068,1.7369,1.7369,0,0,0-.756-.684,2.2541,2.2541,0,0,0-1.044-.24,2.0457,2.0457,0,0,0-1.416.528,2.1641,2.1641,0,0,0-.66,1.464Zm3.6609-5.112V476h-1.0919v-8.88Zm7.388,8.988a3.4721,3.4721,0,0,1-1.3559-.252,2.356,2.356,0,0,1-.948-.72,1.9454,1.9454,0,0,1-.384-1.068h1.128a1.1131,1.1131,0,0,0,.4559.804,1.7852,1.7852,0,0,0,1.0921.312,1.58,1.58,0,0,0,.984-.276.8434.8434,0,0,0,.36-.696.6737.6737,0,0,0-.3841-.636,5.1368,5.1368,0,0,0-1.1879-.42,9.7847,9.7847,0,0,1-1.2-.384,2.2793,2.2793,0,0,1-.7919-.588,1.5777,1.5777,0,0,1-.3241-1.032,1.5549,1.5549,0,0,1,.3-.924,1.9905,1.9905,0,0,1,.852-.66,3.0028,3.0028,0,0,1,1.26-.252,2.69,2.69,0,0,1,1.7639.552,1.9882,1.9882,0,0,1,.72,1.512h-1.0919a1.1209,1.1209,0,0,0-.42-.828,1.5192,1.5192,0,0,0-1.008-.312,1.5639,1.5639,0,0,0-.936.252.7788.7788,0,0,0-.348.66.7557.7557,0,0,0,.204.54,1.755,1.755,0,0,0,.528.336q.324.12.888.276a8.7481,8.7481,0,0,1,1.152.384,1.9092,1.9092,0,0,1,.7559.552,1.4738,1.4738,0,0,1,.336.972,1.6641,1.6641,0,0,1-.3.972,2.0378,2.0378,0,0,1-.852.684A3.0473,3.0473,0,0,1,262.6084,476.108Zm6.81,0a3.4,3.4,0,0,1-1.68-.42,3.0527,3.0527,0,0,1-1.176-1.188,3.738,3.738,0,0,1-.42-1.8,3.5609,3.5609,0,0,1,.4321-1.776,3.0065,3.0065,0,0,1,1.2-1.188,3.6182,3.6182,0,0,1,3.384,0,2.9483,2.9483,0,0,1,1.188,1.176,3.8012,3.8012,0,0,1-.012,3.588,3.0892,3.0892,0,0,1-1.212,1.188A3.4926,3.4926,0,0,1,269.4184,476.108Zm0-.96a2.3062,2.3062,0,0,0,1.1041-.276,2.0627,2.0627,0,0,0,.828-.828,2.6127,2.6127,0,0,0,.324-1.344,2.6921,2.6921,0,0,0-.3121-1.344,2.0018,2.0018,0,0,0-.8159-.816,2.2371,2.2371,0,0,0-1.092-.276,2.2608,2.2608,0,0,0-1.104.276,1.9507,1.9507,0,0,0-.792.816,2.78,2.78,0,0,0-.3,1.344,2.9052,2.9052,0,0,0,.2881,1.356,2.031,2.031,0,0,0,.792.828A2.2474,2.2474,0,0,0,269.4184,475.148Zm12.7161-5.844a2.8334,2.8334,0,0,1,1.368.324,2.2567,2.2567,0,0,1,.948.948,3.185,3.185,0,0,1,.348,1.548V476h-1.08v-3.72a2.0921,2.0921,0,0,0-.492-1.5,1.68,1.68,0,0,0-1.3081-.528,1.7461,1.7461,0,0,0-1.3559.552,2.2229,2.2229,0,0,0-.504,1.572V476h-1.08v-3.72a2.0921,2.0921,0,0,0-.4919-1.5,1.68,1.68,0,0,0-1.308-.528,1.7461,1.7461,0,0,0-1.356.552,2.2229,2.2229,0,0,0-.504,1.572V476h-1.092v-6.576h1.092v.948a2.1671,2.1671,0,0,1,.864-.792,2.6717,2.6717,0,0,1,1.212-.276,2.8451,2.8451,0,0,1,1.4639.372,2.2689,2.2689,0,0,1,.948,1.092,2.1576,2.1576,0,0,1,.9121-1.08A2.6863,2.6863,0,0,1,282.1345,469.304Zm-52.681,25.688,2.04-5.568h1.164l-2.58,6.576h-1.272l-2.58-6.576h1.176Zm10.278-2.532a6.4266,6.4266,0,0,1-.036.66H234.44a2.0478,2.0478,0,0,0,2.136,2.064,2.0184,2.0184,0,0,0,1.176-.324,1.7674,1.7674,0,0,0,.672-.888H239.6a2.8558,2.8558,0,0,1-1.056,1.548,3.21,3.21,0,0,1-1.968.588,3.3573,3.3573,0,0,1-1.68-.42,2.9947,2.9947,0,0,1-1.152-1.188,4.0942,4.0942,0,0,1-.012-3.588,2.8359,2.8359,0,0,1,1.14-1.176,3.4059,3.4059,0,0,1,1.704-.42,3.3,3.3,0,0,1,1.656.408,2.7748,2.7748,0,0,1,1.104,1.128A3.2372,3.2372,0,0,1,239.7315,492.46Zm-1.128-.228a1.9832,1.9832,0,0,0-.276-1.068,1.7369,1.7369,0,0,0-.756-.684,2.2541,2.2541,0,0,0-1.044-.24,2.0457,2.0457,0,0,0-1.416.528,2.1641,2.1641,0,0,0-.66,1.464Zm3.902-1.908V494.2a.9448.9448,0,0,0,.204.684,1.0274,1.0274,0,0,0,.708.192h.804V496h-.984a1.9583,1.9583,0,0,1-1.368-.42,1.8026,1.8026,0,0,1-.456-1.38v-3.876h-.852v-.9h.852v-1.656h1.092v1.656h1.716v.9Zm9.039,2.136a6.4266,6.4266,0,0,1-.036.66h-5.256a2.0478,2.0478,0,0,0,2.136,2.064,2.0184,2.0184,0,0,0,1.176-.324,1.7674,1.7674,0,0,0,.672-.888h1.176a2.8558,2.8558,0,0,1-1.056,1.548,3.21,3.21,0,0,1-1.968.588,3.3573,3.3573,0,0,1-1.68-.42,2.9947,2.9947,0,0,1-1.152-1.188,4.0942,4.0942,0,0,1-.012-3.588,2.8359,2.8359,0,0,1,1.14-1.176,3.4059,3.4059,0,0,1,1.704-.42,3.3,3.3,0,0,1,1.656.408,2.7748,2.7748,0,0,1,1.104,1.128A3.2372,3.2372,0,0,1,251.5445,492.46Zm-1.128-.228a1.9832,1.9832,0,0,0-.276-1.068,1.7369,1.7369,0,0,0-.756-.684,2.2541,2.2541,0,0,0-1.044-.24,2.0457,2.0457,0,0,0-1.416.528,2.1641,2.1641,0,0,0-.66,1.464Zm3.6609-1.74a2.1071,2.1071,0,0,1,.8161-.876,2.5739,2.5739,0,0,1,1.308-.312v1.128h-.288q-1.836,0-1.8361,1.992V496h-1.0919v-6.576h1.0919Zm2.9771,2.196a3.6585,3.6585,0,0,1,.408-1.764,2.9638,2.9638,0,0,1,1.116-1.188,3.1092,3.1092,0,0,1,1.596-.42,2.9185,2.9185,0,0,1,1.5.372,2.4793,2.4793,0,0,1,.948.936v-1.2h1.104V496h-1.104v-1.224a2.605,2.605,0,0,1-.972.96,2.8937,2.8937,0,0,1-1.488.372,2.9809,2.9809,0,0,1-1.584-.432,3.03,3.03,0,0,1-1.116-1.212A3.7745,3.7745,0,0,1,257.0545,492.688Zm5.568.012a2.6735,2.6735,0,0,0-.3-1.296,2.0653,2.0653,0,0,0-.816-.84,2.1409,2.1409,0,0,0-1.116-.3,2.21,2.21,0,0,0-1.116.288,2.09,2.09,0,0,0-.8041.84,2.6746,2.6746,0,0,0-.3,1.296,2.7719,2.7719,0,0,0,.3,1.32,2.1758,2.1758,0,0,0,.8041.852,2.3062,2.3062,0,0,0,2.232,0,2.1477,2.1477,0,0,0,.816-.852A2.7442,2.7442,0,0,0,262.6225,492.7Zm6.153-3.396a2.6529,2.6529,0,0,1,1.944.732,2.774,2.774,0,0,1,.744,2.088V496h-1.08v-3.72a2.0921,2.0921,0,0,0-.4919-1.5,1.7475,1.7475,0,0,0-1.3441-.528,1.8194,1.8194,0,0,0-1.38.54,2.2229,2.2229,0,0,0-.504,1.572V496h-1.092v-6.576h1.092v.936a2.1768,2.1768,0,0,1,.8759-.78A2.7741,2.7741,0,0,1,268.7755,489.304Zm10.472,3.156a6.4,6.4,0,0,1-.0361.66h-5.2559a2.0478,2.0478,0,0,0,2.136,2.064,2.0179,2.0179,0,0,0,1.1759-.324,1.767,1.767,0,0,0,.6721-.888h1.176a2.8558,2.8558,0,0,1-1.056,1.548,3.21,3.21,0,0,1-1.968.588,3.3573,3.3573,0,0,1-1.68-.42,2.9941,2.9941,0,0,1-1.152-1.188,4.0942,4.0942,0,0,1-.012-3.588,2.8359,2.8359,0,0,1,1.14-1.176,3.4056,3.4056,0,0,1,1.704-.42,3.3008,3.3008,0,0,1,1.656.408,2.7754,2.7754,0,0,1,1.104,1.128A3.2372,3.2372,0,0,1,279.2475,492.46Zm-1.128-.228a1.9832,1.9832,0,0,0-.276-1.068,1.7375,1.7375,0,0,0-.756-.684,2.2545,2.2545,0,0,0-1.0441-.24,2.0454,2.0454,0,0,0-1.4159.528,2.1641,2.1641,0,0,0-.66,1.464Zm3.662-1.74a2.1062,2.1062,0,0,1,.816-.876,2.5735,2.5735,0,0,1,1.3079-.312v1.128h-.2879q-1.836,0-1.836,1.992V496H280.69v-6.576h1.092Z"/>
      <path class="cls-7" d="M255.1615,521.989a49.9945,49.9945,0,1,0-50-49.994A49.9971,49.9971,0,0,0,255.1615,521.989Z"/>
      <path class="cls-8" d="M255.1615,422a49.9931,49.9931,0,1,1-38.627,18.247"/>
      <rect class="cls-9" x="30.1615" y="574.721" width="274.756" height="31.5574"/>
    </g>
  </g>
</svg>
