<svg id="Layer_1" data-name="Layer 1" xmlns="http://www.w3.org/2000/svg" xmlns:xlink="http://www.w3.org/1999/xlink" width="413.1007" height="413.1007" viewBox="0 0 413.1007 413.1007">
  <g id="Layer_2" data-name="Layer 2">
    <g id="Layer_1-2" data-name="Layer 1-2">
      <path d="M0,218.1v-24c.3-1.3.5-2.6.8-3.9,2.2-12.8,3.7-25.8,6.8-38.3,7-27.7,20.2-52.4,37.9-74.8,2.9-3.7,5-3.9,8.1-.3C59,83,64.5,89,70.3,94.7c3.6,3.5,3,6.1.3,9.8C36.4,151.3,27.5,202.9,44.7,258,67.6,331.2,136.4,378.9,213,376c48.7-1.9,88.9-21.9,121.5-57.9,2.5-2.8,2.6-4.5-.6-6.6-4.6-3-9.1-6.2-13.4-9.6-2.6-2-4.3-1.9-6.7.6a207.1085,207.1085,0,0,1-17.4,16.4c-20.2,16.6-43.5,26.2-69.2,30.3-4.3.7-6.2-.8-6.2-5.2.1-7.5,0-15,0-22.5,0-7.8.1-7.8,7.6-9.5,35.3-8,61-28.4,76.2-61.1,11.8-25.4,12.9-51.8,4.1-78.4-1.2-3.5-1-5.7,2.6-7.8,7.5-4.3,14.8-9,22-13.9,3.6-2.4,5.4-1.9,7,2.2a136.3007,136.3007,0,0,1,9.5,40.2c2,25.7-1.6,50.5-12.9,73.9-1.5,3-.9,4.8,1.8,6.6,4.6,3,9.1,6.2,13.4,9.6,3.4,2.7,5.3,1.7,6.7-1.8.6-1.4,1.3-2.7,1.9-4.1,16.7-37.2,20.7-75.8,9.6-115.1C354.7,106.2,319,67.7,264.7,46.7c-25.8-10-52.7-12.5-80.1-9.1a163.7792,163.7792,0,0,0-52.4,15.8c-4,2-3.9,3.6-.9,6.5A141.4523,141.4523,0,0,1,142.1,71c2.8,3.3,5.6,3.8,9.6,2a128.5732,128.5732,0,0,1,48-10.8c48.6-1.2,88.6,17,119.5,54.6,4.2,5.1,4.2,5.5-1.4,9q-21.15,13.35-42.4,26.5c-6.7,4.2-6.6,4.1-2.6,10.7,16.3,26.7,18.1,54.4,2.8,81.6-16.5,29.2-42.5,43.1-76.1,40.7-56.5-4.1-90.4-66.5-63.6-116.4,19.9-37,64.4-52.2,103.2-34.9,3.9,1.7,6.7,1.5,10-1,4.9-3.7,10.2-7,15.3-10.4,5.3-3.6,5.4-3.9,0-7.2-33.1-20.3-67.6-22.8-103.2-7.2-55.2,24.2-79.4,94.5-50.8,147.6,16.4,30.4,41.6,49.3,75.4,56.4,4.2.9,6,2.5,5.9,6.9-.2,8.2,0,16.3-.1,24.5-.1,5.6-1,6.3-6.7,5.4-23.3-3.6-44.9-11.8-63.6-26.2-44.4-34.1-64.4-79.3-58.1-135.1,4.1-36.1,21.1-65.9,48.2-90,5.4-4.8,5.3-4.8.4-9.8-11.6-11.7-23-23.6-34.7-35.3-3.1-3.1-3-5,.6-7.8C121.1,11.3,170-3.8,224.9,1c37.5,3.3,71.6,15.7,101.6,38.2,62.1,46.5,90.9,109,84.8,186.2-4.1,52.6-26.9,97.3-66,132.9-47.2,42.9-103,60.4-166,52.5C91,399.5,20.7,332.5,3.8,244.7,2.1,235.9,1.3,226.9,0,218.1Zm206.4,32.8h0c3.2-.1,6.3-.2,9.5-.1,3.7.2,5.2-1.3,4.7-5.1-1.5-13.9-2.8-27.8-4.5-41.7-.5-4.3.2-7.3,3.7-10.4,8.5-7.6,8.3-20,.3-28a19.1327,19.1327,0,0,0-27.1,0l-.2.2c-7.8,7.8-7.9,20.2.4,27.6,3.8,3.3,4.3,6.5,3.8,10.9-1.6,13.7-2.9,27.5-4.5,41.2-.5,4,1.1,5.5,5,5.4,2.9-.1,5.9,0,8.9,0Z" transform="translate(0.5 0.371)" fill="#c99d2b"/>
    </g>
  </g>
<a xlink:href="/index.html" target="_parent" cursor="pointer">
  <rect x="0.5" y="0.5" width="412.1007" height="412.1007" fill="#fff" stroke="#000" stroke-miterlimit="10" opacity="0"/>
</a>
</svg>
