<?xml version="1.0" encoding="utf-8"?>
<!-- Generator: Adobe Illustrator 25.2.3, SVG Export Plug-In . SVG Version: 6.00 Build 0)  -->
<svg version="1.1" id="Layer_1" xmlns="http://www.w3.org/2000/svg" xmlns:xlink="http://www.w3.org/1999/xlink" x="0px" y="0px"
	 viewBox="0 0 412.5 412.5" style="enable-background:new 0 0 412.5 412.5;" xml:space="preserve">
<style type="text/css">
	.st0{fill:#C99D2B;}
</style>
<g id="Layer_2_1_">
	<g id="Layer_1-2">
		<path class="st0" d="M0,218.1v-24c0.3-1.3,0.5-2.6,0.8-3.9c2.2-12.8,3.7-25.8,6.8-38.3c7-27.7,20.2-52.4,37.9-74.8
			c2.9-3.7,5-3.9,8.1-0.3c5.4,6.2,10.9,12.2,16.7,17.9c3.6,3.5,3,6.1,0.3,9.8c-34.2,46.8-43.1,98.4-25.9,153.5
			c22.9,73.2,91.7,120.9,168.3,118c48.7-1.9,88.9-21.9,121.5-57.9c2.5-2.8,2.6-4.5-0.6-6.6c-4.6-3-9.1-6.2-13.4-9.6
			c-2.6-2-4.3-1.9-6.7,0.6c-5.5,5.8-11.3,11.3-17.4,16.4c-20.2,16.6-43.5,26.2-69.2,30.3c-4.3,0.7-6.2-0.8-6.2-5.2
			c0.1-7.5,0-15,0-22.5c0-7.8,0.1-7.8,7.6-9.5c35.3-8,61-28.4,76.2-61.1c11.8-25.4,12.9-51.8,4.1-78.4c-1.2-3.5-1-5.7,2.6-7.8
			c7.5-4.3,14.8-9,22-13.9c3.6-2.4,5.4-1.9,7,2.2c5.2,12.9,8.4,26.4,9.5,40.2c2,25.7-1.6,50.5-12.9,73.9c-1.5,3-0.9,4.8,1.8,6.6
			c4.6,3,9.1,6.2,13.4,9.6c3.4,2.7,5.3,1.7,6.7-1.8c0.6-1.4,1.3-2.7,1.9-4.1c16.7-37.2,20.7-75.8,9.6-115.1
			c-15.8-56.1-51.5-94.6-105.8-115.6c-25.8-10-52.7-12.5-80.1-9.1c-18.2,2.3-35.9,7.6-52.4,15.8c-4,2-3.9,3.6-0.9,6.5
			c3.8,3.5,7.4,7.2,10.8,11.1c2.8,3.3,5.6,3.8,9.6,2c15.2-6.7,31.5-10.3,48-10.8c48.6-1.2,88.6,17,119.5,54.6c4.2,5.1,4.2,5.5-1.4,9
			c-14.1,8.9-28.2,17.7-42.4,26.5c-6.7,4.2-6.6,4.1-2.6,10.7c16.3,26.7,18.1,54.4,2.8,81.6c-16.5,29.2-42.5,43.1-76.1,40.7
			c-56.5-4.1-90.4-66.5-63.6-116.4c19.9-37,64.4-52.2,103.2-34.9c3.9,1.7,6.7,1.5,10-1c4.9-3.7,10.2-7,15.3-10.4
			c5.3-3.6,5.4-3.9,0-7.2c-33.1-20.3-67.6-22.8-103.2-7.2c-55.2,24.2-79.4,94.5-50.8,147.6c16.4,30.4,41.6,49.3,75.4,56.4
			c4.2,0.9,6,2.5,5.9,6.9c-0.2,8.2,0,16.3-0.1,24.5c-0.1,5.6-1,6.3-6.7,5.4c-23.3-3.6-44.9-11.8-63.6-26.2
			c-44.4-34.1-64.4-79.3-58.1-135.1c4.1-36.1,21.1-65.9,48.2-90c5.4-4.8,5.3-4.8,0.4-9.8c-11.6-11.7-23-23.6-34.7-35.3
			c-3.1-3.1-3-5,0.6-7.8c43.4-33.5,92.3-48.6,147.2-43.8c37.5,3.3,71.6,15.7,101.6,38.2c62.1,46.5,90.9,109,84.8,186.2
			c-4.1,52.6-26.9,97.3-66,132.9c-47.2,42.9-103,60.4-166,52.5C91,399.5,20.7,332.5,3.8,244.7C2.1,235.9,1.3,226.9,0,218.1z
			 M206.4,250.9L206.4,250.9c3.2-0.1,6.3-0.2,9.5-0.1c3.7,0.2,5.2-1.3,4.7-5.1c-1.5-13.9-2.8-27.8-4.5-41.7
			c-0.5-4.3,0.2-7.3,3.7-10.4c8.5-7.6,8.3-20,0.3-28c-7.5-7.5-19.6-7.5-27.1,0c-0.1,0.1-0.1,0.1-0.2,0.2c-7.8,7.8-7.9,20.2,0.4,27.6
			c3.8,3.3,4.3,6.5,3.8,10.9c-1.6,13.7-2.9,27.5-4.5,41.2c-0.5,4,1.1,5.5,5,5.4C200.4,250.8,203.4,250.9,206.4,250.9L206.4,250.9z"
			/>
	</g>
</g>
</svg>
