<svg width="259" height="129" viewBox="0 0 259 129" fill="none" xmlns="http://www.w3.org/2000/svg">
<g filter="url(#filter0_d)">
<rect x="19" y="19" width="223" height="89.2" fill="#CA9D39"/>
<path d="M83.8925 63.8402C84.9498 64.0655 85.7991 64.5942 86.4405 65.4262C87.0818 66.2409 87.4025 67.1769 87.4025 68.2342C87.4025 69.7595 86.8651 70.9729 85.7905 71.8742C84.7331 72.7582 83.2511 73.2002 81.3445 73.2002H72.8425V54.9482H81.0585C82.9131 54.9482 84.3605 55.3729 85.4005 56.2222C86.4578 57.0715 86.9865 58.2242 86.9865 59.6802C86.9865 60.7549 86.7005 61.6475 86.1285 62.3582C85.5738 63.0689 84.8285 63.5629 83.8925 63.8402ZM77.2885 62.3322H80.2005C80.9285 62.3322 81.4831 62.1762 81.8645 61.8642C82.2631 61.5349 82.4625 61.0582 82.4625 60.4342C82.4625 59.8102 82.2631 59.3335 81.8645 59.0042C81.4831 58.6749 80.9285 58.5102 80.2005 58.5102H77.2885V62.3322ZM80.5645 69.6122C81.3098 69.6122 81.8818 69.4475 82.2805 69.1182C82.6965 68.7715 82.9045 68.2775 82.9045 67.6362C82.9045 66.9949 82.6878 66.4922 82.2545 66.1282C81.8385 65.7642 81.2578 65.5822 80.5125 65.5822H77.2885V69.6122H80.5645ZM98.6131 73.3822C96.8971 73.3822 95.3198 72.9835 93.8811 72.1862C92.4598 71.3889 91.3245 70.2795 90.4751 68.8582C89.6431 67.4195 89.2271 65.8075 89.2271 64.0222C89.2271 62.2369 89.6431 60.6335 90.4751 59.2122C91.3245 57.7909 92.4598 56.6815 93.8811 55.8842C95.3198 55.0869 96.8971 54.6882 98.6131 54.6882C100.329 54.6882 101.898 55.0869 103.319 55.8842C104.758 56.6815 105.884 57.7909 106.699 59.2122C107.531 60.6335 107.947 62.2369 107.947 64.0222C107.947 65.8075 107.531 67.4195 106.699 68.8582C105.867 70.2795 104.74 71.3889 103.319 72.1862C101.898 72.9835 100.329 73.3822 98.6131 73.3822ZM98.6131 69.3262C100.069 69.3262 101.23 68.8409 102.097 67.8702C102.981 66.8995 103.423 65.6169 103.423 64.0222C103.423 62.4102 102.981 61.1275 102.097 60.1742C101.23 59.2035 100.069 58.7182 98.6131 58.7182C97.1398 58.7182 95.9611 59.1949 95.0771 60.1482C94.2105 61.1015 93.7771 62.3929 93.7771 64.0222C93.7771 65.6342 94.2105 66.9255 95.0771 67.8962C95.9611 68.8495 97.1398 69.3262 98.6131 69.3262ZM119.053 73.3822C117.337 73.3822 115.759 72.9835 114.321 72.1862C112.899 71.3889 111.764 70.2795 110.915 68.8582C110.083 67.4195 109.667 65.8075 109.667 64.0222C109.667 62.2369 110.083 60.6335 110.915 59.2122C111.764 57.7909 112.899 56.6815 114.321 55.8842C115.759 55.0869 117.337 54.6882 119.053 54.6882C120.769 54.6882 122.337 55.0869 123.759 55.8842C125.197 56.6815 126.324 57.7909 127.139 59.2122C127.971 60.6335 128.387 62.2369 128.387 64.0222C128.387 65.8075 127.971 67.4195 127.139 68.8582C126.307 70.2795 125.18 71.3889 123.759 72.1862C122.337 72.9835 120.769 73.3822 119.053 73.3822ZM119.053 69.3262C120.509 69.3262 121.67 68.8409 122.537 67.8702C123.421 66.8995 123.863 65.6169 123.863 64.0222C123.863 62.4102 123.421 61.1275 122.537 60.1742C121.67 59.2035 120.509 58.7182 119.053 58.7182C117.579 58.7182 116.401 59.1949 115.517 60.1482C114.65 61.1015 114.217 62.3929 114.217 64.0222C114.217 65.6342 114.65 66.9255 115.517 67.8962C116.401 68.8495 117.579 69.3262 119.053 69.3262ZM141.442 73.2002L135.306 65.1402V73.2002H130.86V54.9482H135.306V62.9562L141.39 54.9482H146.616L139.544 63.8922L146.876 73.2002H141.442ZM170.827 73.2002H166.381L158.945 61.9422V73.2002H154.499V54.9482H158.945L166.381 66.2582V54.9482H170.827V73.2002ZM178.418 54.9482V65.8682C178.418 66.9602 178.686 67.8009 179.224 68.3902C179.761 68.9795 180.55 69.2742 181.59 69.2742C182.63 69.2742 183.427 68.9795 183.982 68.3902C184.536 67.8009 184.814 66.9602 184.814 65.8682V54.9482H189.26V65.8422C189.26 67.4715 188.913 68.8495 188.22 69.9762C187.526 71.1029 186.59 71.9522 185.412 72.5242C184.25 73.0962 182.95 73.3822 181.512 73.3822C180.073 73.3822 178.782 73.1049 177.638 72.5502C176.511 71.9782 175.618 71.1289 174.96 70.0022C174.301 68.8582 173.972 67.4715 173.972 65.8422V54.9482H178.418Z" fill="white"/>
</g>
<line x1="187" y1="1" x2="259" y2="1" stroke="#CA9D39" stroke-width="2"/>
<line x1="258" y1="1" x2="258" y2="72" stroke="#CA9D39" stroke-width="2"/>
<line x1="73.0031" y1="126.784" x2="1.00343" y2="127.006" stroke="#CA9D39" stroke-width="2"/>
<line x1="2.00293" y1="127.003" x2="1.78397" y2="56.0031" stroke="#CA9D39" stroke-width="2"/>
<defs>
<filter id="filter0_d" x="15" y="19" width="231" height="97.2" filterUnits="userSpaceOnUse" color-interpolation-filters="sRGB">
<feFlood flood-opacity="0" result="BackgroundImageFix"/>
<feColorMatrix in="SourceAlpha" type="matrix" values="0 0 0 0 0 0 0 0 0 0 0 0 0 0 0 0 0 0 127 0"/>
<feOffset dy="4"/>
<feGaussianBlur stdDeviation="2"/>
<feColorMatrix type="matrix" values="0 0 0 0 0 0 0 0 0 0 0 0 0 0 0 0 0 0 0.25 0"/>
<feBlend mode="normal" in2="BackgroundImageFix" result="effect1_dropShadow"/>
<feBlend mode="normal" in="SourceGraphic" in2="effect1_dropShadow" result="shape"/>
</filter>
</defs>
</svg>
