<svg width="907" height="299" viewBox="0 0 907 299" fill="none" xmlns="http://www.w3.org/2000/svg">
<path d="M0 64.6326H5.03056C21.7775 64.6326 38.5255 64.7361 55.2705 64.5532C59.0288 64.5122 60.5204 65.3522 61.0949 69.439C66.1811 105.616 71.5555 141.752 78.0339 178.049C83.4664 140.418 88.8989 102.787 94.3657 64.9174H154.363V298.492H109.77V172.337L108.964 172.291C103.113 214.351 97.2567 256.45 91.3949 298.587H63.1384C57.2231 256.125 51.3168 213.728 45.4196 171.396L44.4651 171.47V298.509H0V64.6326Z" fill="#0EA2CD"/>
<path d="M246.63 64.6323H283.779C292.585 64.6323 292.577 64.6341 294.342 73.2357C301.161 106.465 307.987 139.694 314.82 172.92C315.086 174.581 315.848 176.122 317.004 177.342V64.8825H359.872V298.453H313.724C305.846 262.03 297.951 225.529 290.039 188.953L289.331 189.036V298.388H246.63V64.6323Z" fill="#0EA2CD"/>
<path d="M381.37 298.436V65.0397C382.185 64.8487 383.013 64.7215 383.848 64.6592C408.547 64.9071 433.249 65.0163 457.942 65.5665C463.717 65.6953 469.491 67.1645 475.207 68.3117C484.734 70.2239 490.312 76.4322 492.029 85.6989C493.472 93.4895 494.776 101.445 494.817 109.334C495.068 157.617 495.057 205.901 494.784 254.186C494.724 262.851 493.001 271.585 491.287 280.135C489.724 287.933 484.555 293.387 476.645 294.723C465.804 296.555 454.832 298.261 443.873 298.605C424.22 299.22 404.535 298.785 384.863 298.767C383.774 298.766 382.683 298.566 381.37 298.436ZM430.876 102.627V108.154C430.876 157.035 430.876 205.917 430.876 254.798C430.876 255.772 430.534 256.949 430.958 257.676C431.695 258.937 432.786 260.718 433.94 260.893C442.333 262.166 445.171 259.399 445.175 250.222C445.193 206.05 445.185 161.878 445.15 117.706C445.146 114.474 445.263 111.026 444.204 108.081C443.177 105.727 441.299 103.85 438.945 102.824C436.77 101.927 433.936 102.627 430.876 102.627V102.627Z" fill="#0EA2CD"/>
<path d="M625.166 64.814H685.357C695.412 142.557 705.464 220.276 715.618 298.784H704.948C699.42 298.784 693.892 298.837 688.366 298.769C682.998 298.702 677.28 300.057 672.574 294.265V269.696C677.803 269.013 677.891 265.169 677.443 260.617C675.713 243.006 674.367 225.356 672.501 207.76C671.877 201.872 670.127 196.102 668.688 189.32C675.433 190.511 680.057 189.672 681.796 183.844C682.307 182.132 681.956 180.144 681.897 178.286C681.826 176.024 681.525 173.765 681.536 171.505C681.568 165.124 679.957 159.864 675.033 155.02C672.487 152.516 668.081 148.903 670.468 143.449C670.805 142.681 669.722 140.704 668.774 140.075C666.417 138.342 663.789 137.014 660.996 136.145C659.245 135.706 656.199 136.279 655.264 137.537C652.69 141 650.063 143.012 645.44 140.782C645.323 141.207 645.206 141.632 645.089 142.057L649.849 145.651C644.026 149.301 643.426 157.418 635.731 159.878C630.246 161.631 627.916 167.31 628.05 172.975C628.413 188.227 629.012 203.484 630.067 218.7C630.226 221.004 632.919 224.244 635.15 225.026C638.295 226.129 637.457 227.872 637.419 229.745C637.213 239.977 636.516 250.222 636.848 260.435C637.226 272.018 638.428 283.578 639.467 295.131C639.696 297.686 639.048 298.786 636.505 298.783C623.038 298.771 609.57 298.778 595.214 298.778C605.22 220.624 615.165 142.938 625.166 64.814Z" fill="#0EA2CD"/>
<path d="M514.92 64.9009H593.168V102.435H564.218V151.032H593.173V189.347H563.883V298.556H514.92V64.9009Z" fill="#0EA2CD"/>
<path d="M730.527 64.8623H779.594V260.411H808.784V298.493H730.527V64.8623Z" fill="#0EA2CD"/>
<path d="M906.399 260.426V298.369H827.926V64.8916H876.832V260.426H906.399Z" fill="#0EA2CD"/>
<path d="M224.879 298.582H176.265V64.9526H224.879V298.582Z" fill="#0EA2CD"/>
<path d="M644.438 0.69274C650.918 -1.02434 655.284 0.498691 658.565 6.99794C662.839 15.4644 668.376 23.2934 674.26 31.1987V0.603667H684.056V51.0782C676.058 53.129 674.798 52.6379 670.519 45.7629C665.397 37.5317 660.272 29.3023 654.413 19.8918V51.3974H644.438V0.69274Z" fill="#0EA2CD"/>
<path d="M389.787 51.3946V0.588255C398.698 0.588255 407.417 0.298107 416.104 0.706402C420.687 0.921817 423.59 4.13081 425.111 8.52C428.338 17.8274 425.836 27.2699 418.482 32.0645C419.946 35.1954 421.428 38.3912 422.933 41.5767C424.44 44.7685 425.97 47.9497 427.571 51.3047C427.042 51.5068 426.493 51.6567 425.935 51.7521C416.521 52.0155 416.52 52.012 412.706 43.3095C412.038 42.0102 411.47 40.6616 411.008 39.2755C409.531 33.6778 406.349 30.6354 399.655 32.0386V51.3948L389.787 51.3946ZM399.842 23.4875C403.882 23.4875 407.422 23.4849 410.962 23.4883C414.768 23.4917 416.027 21.1423 416.051 17.8199C416.076 14.2869 416.661 10.0545 411.829 9.31717C407.959 8.72673 403.927 9.19785 399.842 9.19785V23.4875Z" fill="#0EA2CD"/>
<path d="M263.985 26.1026C263.737 29.01 263.633 31.9378 263.217 34.8207C261.26 48.3846 255.936 52.7754 242.333 52.1859C228.027 51.5658 223.573 47.6467 222.675 33.1624C222.359 26.058 222.792 18.9401 223.965 11.9262C224.918 5.61825 229.163 1.28419 235.653 0.532965C240.801 -0.030379 245.997 0.0108121 251.136 0.655697C253.518 0.885134 255.77 1.84989 257.579 3.41625C259.388 4.98262 260.665 7.073 261.234 9.39769C262.7 14.8229 263.518 20.4232 264.618 25.9472L263.985 26.1026ZM232.663 25.967H232.729C232.587 28.8826 232.606 31.8038 232.785 34.7173C233.437 40.5672 236.066 42.684 242.248 42.8437C249.158 43.0222 252.343 41.0131 252.983 35.049C253.526 29.7314 253.618 24.3773 253.257 19.0443C252.784 11.5711 249.785 8.93485 242.93 9.03183C235.895 9.13134 233.23 11.7148 232.688 19.1577C232.524 21.4161 232.663 23.6967 232.663 25.967Z" fill="#0EA2CD"/>
<path d="M583.022 26.2591C583.678 21.4481 584.016 16.5664 585.067 11.8434C586.506 5.379 590.688 1.13684 597.376 0.389713C602.05 -0.141116 606.77 -0.129625 611.441 0.423957C618.683 1.3105 623.002 6.3111 623.586 13.1075C624.477 21.9359 624.414 30.8345 623.398 39.6494C622.189 48.8151 615.926 52.2641 604.436 52.2377C589.763 52.2041 584.628 47.3383 583.73 32.6216C583.602 30.5182 583.454 28.4161 583.315 26.3133L583.022 26.2591ZM593.393 26.8023C593.537 29.9018 593.839 32.992 594.297 36.0609C595.273 41.1453 597.831 42.8014 603.872 42.8448C610.222 42.8906 613.377 41.1912 613.918 36.0315C614.605 29.7679 614.684 23.4524 614.154 17.1736C613.599 11.0498 610.425 8.96087 604.17 9.03287C597.62 9.10838 595.184 10.9701 594.15 17.1812C593.648 20.2032 593.651 23.3097 593.394 26.8023H593.393Z" fill="#0EA2CD"/>
<path d="M371.194 0.260701V9.8385C365.703 9.8385 360.227 9.8385 354.769 9.8385C347.571 9.84084 347.563 9.84211 347.633 17.1556C347.646 18.4293 347.75 19.702 347.848 21.7229H368.002V30.3436L348.123 31.3589C347.921 31.8729 347.772 32.4062 347.678 32.9504C347.311 42.5138 347.315 42.5046 357.04 42.5195C361.266 42.526 365.492 42.5737 369.717 42.6241C370.157 42.7084 370.586 42.8407 370.997 43.0186V51.8106C362.471 51.8106 353.925 52.0935 345.41 51.6959C340.878 51.4842 337.812 48.4569 337.733 43.7181C337.54 32.1823 337.452 20.636 337.744 9.10454C337.883 3.62101 341.268 0.527825 346.942 0.32997C354.849 0.0543591 362.772 0.260701 371.194 0.260701Z" fill="#0EA2CD"/>
<path d="M489.112 51.7885C487.992 51.7239 486.87 51.7299 485.751 51.8064C480.297 52.7093 476.703 51.103 476.123 45.029C475.779 41.4249 473.656 40.0354 470.11 40.5509C468.976 40.6403 467.836 40.6486 466.701 40.5756C458.215 40.5756 458.084 40.5334 455.501 48.6026C454.703 51.0959 453.58 52.0367 451.046 51.8271C448.802 51.6417 446.53 51.788 443.606 51.788C446.21 43.9904 448.642 36.6571 451.107 29.3347C454.056 20.5755 456.913 11.7814 460.127 3.11993C460.541 2.37127 461.13 1.73402 461.844 1.26264C462.558 0.79126 463.375 0.49977 464.227 0.413086C467.148 0.509769 472.085 0.810453 472.628 2.31553C478.456 18.4574 483.589 34.8507 489.112 51.7885ZM460.875 31.17H472.14C470.401 25.6376 468.799 20.5418 466.749 14.0213C464.503 20.5793 462.763 25.6589 460.875 31.17Z" fill="#0EA2CD"/>
<path d="M292.169 31.7964V51.5421H282.503V0.68501C291.347 0.68501 300.047 0.358277 308.706 0.810083C313.729 1.07223 317.068 4.55898 317.817 9.54427C318.54 13.6789 318.658 17.8965 318.169 22.0652C316.992 30.1259 312.001 33.5509 303.693 32.8517C300.01 32.5417 296.332 32.1793 292.169 31.7964ZM292.456 24.904C297.795 23.8275 303.08 23.6738 307.234 21.4282C308.684 20.6446 308.605 12.4265 307.033 11.5556C302.933 9.283 297.622 9.19597 292.456 8.17021V24.904Z" fill="#0EA2CD"/>
<path d="M535.793 9.64463H522.053V51.5337H511.895V9.67214H498.258V0.608887H535.793V9.64463Z" fill="#0EA2CD"/>
<path d="M554.791 0.361816H563.961V51.4663H554.791V0.361816Z" fill="#0EA2CD"/>
<path d="M654.53 265.563H660.56C661.507 276.338 662.461 287.203 663.448 298.449H647.874C648.06 296.492 647.797 294.431 648.497 292.779C650.921 287.052 651.06 281.228 650.333 275.187C650.182 273.93 651.507 272.506 652.116 271.143C652.871 269.453 653.588 267.747 654.53 265.563Z" fill="#0EA2CD"/>
<path d="M667.217 151.735C668.879 154.269 670.632 156.752 672.126 159.382C672.422 159.902 671.945 161.211 671.41 161.732C671.075 161.902 670.701 161.983 670.326 161.967C669.95 161.95 669.585 161.837 669.266 161.638C667.356 158.891 664.776 156.31 665.439 152.628L667.217 151.735Z" fill="#0EA2CD"/>
</svg>
