<svg xmlns="http://www.w3.org/2000/svg" xmlns:xlink="http://www.w3.org/1999/xlink" width="335" height="647" viewBox="0 0 335 647">
  <defs>
    <linearGradient id="linear-gradient" x1="167.5" y1="402" x2="167.5" y2="584" gradientTransform="matrix(1, 0, 0, -1, 0, 652)" gradientUnits="userSpaceOnUse">
      <stop offset="0" stop-color="#03010c" stop-opacity="0.43"/>
      <stop offset="1" stop-color="#181818"/>
    </linearGradient>
    <radialGradient id="radial-gradient" cx="-264.57" cy="954.59" r="1" gradientTransform="matrix(0, 2.55, 2.55, 0, -2352.45, 765.96)" gradientUnits="userSpaceOnUse">
      <stop offset="0" stop-color="#c4c4c4"/>
      <stop offset="1" stop-color="#c4c4c4" stop-opacity="0"/>
    </radialGradient>
    <radialGradient id="radial-gradient-2" cx="-264.57" cy="954.59" r="1" gradientTransform="matrix(0, 2.55, 2.55, 0, -2364.36, 766.81)" xlink:href="#radial-gradient"/>
    <radialGradient id="radial-gradient-3" cx="-264.57" cy="954.59" r="1" gradientTransform="matrix(0, 2.55, 2.55, 0, -2137.34, 778.71)" xlink:href="#radial-gradient"/>
    <radialGradient id="radial-gradient-4" cx="-230.85" cy="1018.88" r="1" gradientTransform="matrix(0, 1.7, 1.7, 0, -1604.23, 470.92)" xlink:href="#radial-gradient"/>
    <radialGradient id="radial-gradient-5" cx="-230.85" cy="1018.88" r="1" gradientTransform="matrix(0, 1.7, 1.7, 0, -1639.94, 482.83)" xlink:href="#radial-gradient"/>
    <radialGradient id="radial-gradient-6" cx="-230.85" cy="1018.88" r="1" gradientTransform="matrix(0, 1.7, 1.7, 0, -1680.75, 465.82)" xlink:href="#radial-gradient"/>
    <radialGradient id="radial-gradient-7" cx="-230.85" cy="1018.88" r="1" gradientTransform="matrix(0, 1.7, 1.7, 0, -1715.62, 487.08)" xlink:href="#radial-gradient"/>
    <radialGradient id="radial-gradient-8" cx="-230.85" cy="1018.88" r="1" gradientTransform="matrix(0, 1.7, 1.7, 0, -1730.07, 468.37)" xlink:href="#radial-gradient"/>
    <radialGradient id="radial-gradient-9" cx="-230.85" cy="1018.88" r="1" gradientTransform="matrix(0, 1.7, 1.7, 0, -1543.87, 485.38)" xlink:href="#radial-gradient"/>
    <radialGradient id="radial-gradient-10" cx="-230.85" cy="1018.88" r="1" gradientTransform="matrix(0, 1.7, 1.7, 0, -1526.86, 467.52)" xlink:href="#radial-gradient"/>
    <radialGradient id="radial-gradient-11" cx="-230.85" cy="1018.88" r="1" gradientTransform="matrix(0, 1.7, 1.7, 0, -1514.11, 483.68)" xlink:href="#radial-gradient"/>
    <radialGradient id="radial-gradient-12" cx="-230.85" cy="1018.88" r="1" gradientTransform="matrix(0, 1.7, 1.7, 0, -1489.45, 499.83)" xlink:href="#radial-gradient"/>
    <radialGradient id="radial-gradient-13" cx="-230.85" cy="1018.88" r="1" gradientTransform="matrix(0, 1.7, 1.7, 0, -1483.5, 481.12)" xlink:href="#radial-gradient"/>
    <radialGradient id="radial-gradient-14" cx="-230.85" cy="1018.88" r="1" gradientTransform="matrix(0, 1.7, 1.7, 0, -1452.89, 498.98)" xlink:href="#radial-gradient"/>
    <radialGradient id="radial-gradient-15" cx="-230.85" cy="1018.88" r="1" gradientTransform="matrix(0, 1.7, 1.7, 0, -1452.89, 509.18)" xlink:href="#radial-gradient"/>
    <radialGradient id="radial-gradient-16" cx="-230.85" cy="1018.88" r="1" gradientTransform="matrix(0, 1.7, 1.7, 0, -1450.34, 476.02)" xlink:href="#radial-gradient"/>
    <radialGradient id="radial-gradient-17" cx="-230.85" cy="1018.88" r="1" gradientTransform="matrix(0, 1.7, 1.7, 0, -1410.37, 472.62)" xlink:href="#radial-gradient"/>
    <radialGradient id="radial-gradient-18" cx="-230.85" cy="1018.88" r="1" gradientTransform="matrix(0, 1.7, 1.7, 0, -1571.07, 473.47)" xlink:href="#radial-gradient"/>
    <radialGradient id="radial-gradient-19" cx="-230.85" cy="1018.88" r="1" gradientTransform="matrix(0, 1.7, 1.7, 0, -1604.23, 499.83)" xlink:href="#radial-gradient"/>
    <radialGradient id="radial-gradient-20" cx="-230.85" cy="1018.88" r="1" gradientTransform="matrix(0, 1.7, 1.7, 0, -1632.29, 476.87)" xlink:href="#radial-gradient"/>
    <radialGradient id="radial-gradient-21" cx="-230.85" cy="1018.88" r="1" gradientTransform="matrix(0, 1.7, 1.7, 0, -1668, 488.78)" xlink:href="#radial-gradient"/>
    <radialGradient id="radial-gradient-22" cx="-230.85" cy="1018.88" r="1" gradientTransform="matrix(0, 1.7, 1.7, 0, -1708.81, 471.77)" xlink:href="#radial-gradient"/>
    <radialGradient id="radial-gradient-23" cx="-197.14" cy="1083.18" r="1" gradientTransform="matrix(0, 1.28, 1.28, 0, -1225.44, 343.81)" xlink:href="#radial-gradient"/>
    <radialGradient id="radial-gradient-24" cx="-197.14" cy="1083.18" r="1" gradientTransform="matrix(0, 1.28, 1.28, 0, -1193.13, 335.31)" xlink:href="#radial-gradient"/>
    <radialGradient id="radial-gradient-25" cx="-197.14" cy="1083.18" r="1" gradientTransform="matrix(0, 1.28, 1.28, 0, -1172.73, 355.71)" xlink:href="#radial-gradient"/>
    <radialGradient id="radial-gradient-26" cx="-197.14" cy="1083.18" r="1" gradientTransform="matrix(0, 1.28, 1.28, 0, -1163.37, 333.61)" xlink:href="#radial-gradient"/>
    <radialGradient id="radial-gradient-27" cx="-197.14" cy="1083.18" r="1" gradientTransform="matrix(0, 1.28, 1.28, 0, -1138.72, 349.76)" xlink:href="#radial-gradient"/>
    <radialGradient id="radial-gradient-28" cx="-197.14" cy="1083.18" r="1" gradientTransform="matrix(0, 1.28, 1.28, 0, -1132.76, 331.05)" xlink:href="#radial-gradient"/>
    <radialGradient id="radial-gradient-29" cx="-197.14" cy="1083.18" r="1" gradientTransform="matrix(0, 1.28, 1.28, 0, -1147.22, 324.25)" xlink:href="#radial-gradient"/>
    <radialGradient id="radial-gradient-30" cx="-197.14" cy="1083.18" r="1" gradientTransform="matrix(0, 1.28, 1.28, 0, -1102.15, 348.91)" xlink:href="#radial-gradient"/>
    <radialGradient id="radial-gradient-31" cx="-197.14" cy="1083.18" r="1" gradientTransform="matrix(0, 1.28, 1.28, 0, -1099.6, 325.95)" xlink:href="#radial-gradient"/>
    <radialGradient id="radial-gradient-32" cx="-197.14" cy="1083.18" r="1" gradientTransform="matrix(0, 1.28, 1.28, 0, -1059.64, 322.55)" xlink:href="#radial-gradient"/>
    <radialGradient id="radial-gradient-33" cx="-197.14" cy="1083.18" r="1" gradientTransform="matrix(0, 1.28, 1.28, 0, -1074.1, 345.51)" xlink:href="#radial-gradient"/>
    <radialGradient id="radial-gradient-34" cx="-197.14" cy="1083.18" r="1" gradientTransform="matrix(0, 1.28, 1.28, 0, -1220.34, 323.4)" xlink:href="#radial-gradient"/>
    <radialGradient id="radial-gradient-35" cx="-197.14" cy="1083.18" r="1" gradientTransform="matrix(0, 1.28, 1.28, 0, -1253.5, 349.76)" xlink:href="#radial-gradient"/>
    <radialGradient id="radial-gradient-36" cx="-197.14" cy="1083.18" r="1" gradientTransform="matrix(0, 1.28, 1.28, 0, -1281.56, 326.8)" xlink:href="#radial-gradient"/>
    <radialGradient id="radial-gradient-37" cx="-197.14" cy="1083.18" r="1" gradientTransform="matrix(0, 1.28, 1.28, 0, -1317.27, 338.71)" xlink:href="#radial-gradient"/>
    <radialGradient id="radial-gradient-38" cx="-197.14" cy="1083.18" r="1" gradientTransform="matrix(0, 1.28, 1.28, 0, -1358.08, 321.7)" xlink:href="#radial-gradient"/>
    <radialGradient id="radial-gradient-39" cx="-197.14" cy="1083.18" r="1" gradientTransform="matrix(0, 1.28, 1.28, 0, -1208.44, 358.26)" xlink:href="#radial-gradient"/>
    <radialGradient id="radial-gradient-40" cx="-197.14" cy="1083.18" r="1" gradientTransform="matrix(0, 1.28, 1.28, 0, -1242.45, 337.86)" xlink:href="#radial-gradient"/>
    <radialGradient id="radial-gradient-41" cx="-197.14" cy="1083.18" r="1" gradientTransform="matrix(0, 1.28, 1.28, 0, -1278.16, 349.76)" xlink:href="#radial-gradient"/>
    <radialGradient id="radial-gradient-42" cx="-197.14" cy="1083.18" r="1" gradientTransform="matrix(0, 1.28, 1.28, 0, -1318.97, 332.75)" xlink:href="#radial-gradient"/>
    <radialGradient id="radial-gradient-43" cx="-197.14" cy="1083.18" r="1" gradientTransform="matrix(0, 1.28, 1.28, 0, -1353.83, 354.01)" xlink:href="#radial-gradient"/>
    <radialGradient id="radial-gradient-44" cx="-197.14" cy="1083.18" r="1" gradientTransform="matrix(0, 1.28, 1.28, 0, -1324.92, 371.87)" xlink:href="#radial-gradient"/>
    <radialGradient id="radial-gradient-45" cx="-197.14" cy="1083.18" r="1" gradientTransform="matrix(0, 1.28, 1.28, 0, -1182.08, 352.31)" xlink:href="#radial-gradient"/>
    <radialGradient id="radial-gradient-46" cx="-197.14" cy="1083.18" r="1" gradientTransform="matrix(0, 1.28, 1.28, 0, -1179.53, 373.57)" xlink:href="#radial-gradient"/>
    <radialGradient id="radial-gradient-47" cx="-197.14" cy="1083.18" r="1" gradientTransform="matrix(0, 1.28, 1.28, 0, -1300.26, 364.21)" xlink:href="#radial-gradient"/>
    <radialGradient id="radial-gradient-48" cx="-197.14" cy="1083.18" r="1" gradientTransform="matrix(0, 1.28, 1.28, 0, -1302.81, 371.87)" xlink:href="#radial-gradient"/>
    <radialGradient id="radial-gradient-49" cx="-197.14" cy="1083.18" r="1" gradientTransform="matrix(0, 1.28, 1.28, 0, -1338.53, 374.42)" xlink:href="#radial-gradient"/>
    <radialGradient id="radial-gradient-50" cx="-197.14" cy="1083.18" r="1" gradientTransform="matrix(0, 1.28, 1.28, 0, -1355.53, 368.47)" xlink:href="#radial-gradient"/>
    <radialGradient id="radial-gradient-51" cx="-197.14" cy="1083.18" r="1" gradientTransform="matrix(0, 1.28, 1.28, 0, -1371.69, 375.27)" xlink:href="#radial-gradient"/>
    <radialGradient id="radial-gradient-52" cx="-197.14" cy="1083.18" r="1" gradientTransform="matrix(0, 1.28, 1.28, 0, -1375.94, 365.06)" xlink:href="#radial-gradient"/>
    <radialGradient id="radial-gradient-53" cx="-197.14" cy="1083.18" r="1" gradientTransform="matrix(0, 1.28, 1.28, 0, -1366.58, 361.66)" xlink:href="#radial-gradient"/>
    <radialGradient id="radial-gradient-54" cx="-197.14" cy="1083.18" r="1" gradientTransform="matrix(0, 1.28, 1.28, 0, -1369.99, 355.71)" xlink:href="#radial-gradient"/>
    <radialGradient id="radial-gradient-55" cx="-197.14" cy="1083.18" r="1" gradientTransform="matrix(0, 1.28, 1.28, 0, -1152.32, 350.61)" xlink:href="#radial-gradient"/>
    <radialGradient id="radial-gradient-56" cx="-197.14" cy="1083.18" r="1" gradientTransform="matrix(0, 1.28, 1.28, 0, -1127.66, 366.77)" xlink:href="#radial-gradient"/>
    <radialGradient id="radial-gradient-57" cx="-197.14" cy="1083.18" r="1" gradientTransform="matrix(0, 1.28, 1.28, 0, -1110.66, 371.87)" xlink:href="#radial-gradient"/>
    <radialGradient id="radial-gradient-58" cx="-197.14" cy="1083.18" r="1" gradientTransform="matrix(0, 1.28, 1.28, 0, -1077.5, 370.17)" xlink:href="#radial-gradient"/>
    <radialGradient id="radial-gradient-59" cx="-197.14" cy="1083.18" r="1" gradientTransform="matrix(0, 1.28, 1.28, 0, -1047.74, 369.32)" xlink:href="#radial-gradient"/>
    <radialGradient id="radial-gradient-60" cx="-197.14" cy="1083.18" r="1" gradientTransform="matrix(0, 1.28, 1.28, 0, -1059.64, 349.76)" xlink:href="#radial-gradient"/>
    <radialGradient id="radial-gradient-61" cx="-197.14" cy="1083.18" r="1" gradientTransform="matrix(0, 1.28, 1.28, 0, -1084.3, 329.35)" xlink:href="#radial-gradient"/>
    <radialGradient id="radial-gradient-62" cx="-197.14" cy="1083.18" r="1" gradientTransform="matrix(0, 1.28, 1.28, 0, -1117.46, 334.46)" xlink:href="#radial-gradient"/>
    <radialGradient id="radial-gradient-63" cx="-197.14" cy="1083.18" r="1" gradientTransform="matrix(0, 1.28, 1.28, 0, -1125.11, 322.55)" xlink:href="#radial-gradient"/>
    <radialGradient id="radial-gradient-64" cx="-197.14" cy="1083.18" r="1" gradientTransform="matrix(0, 1.28, 1.28, 0, -1121.71, 348.06)" xlink:href="#radial-gradient"/>
    <radialGradient id="radial-gradient-65" cx="-197.14" cy="1083.18" r="1" gradientTransform="matrix(0, 1.28, 1.28, 0, -1091.1, 365.91)" xlink:href="#radial-gradient"/>
    <radialGradient id="radial-gradient-66" cx="-197.14" cy="1083.18" r="1" gradientTransform="matrix(0, 1.28, 1.28, 0, -1146.37, 373.57)" xlink:href="#radial-gradient"/>
    <radialGradient id="radial-gradient-67" cx="-197.14" cy="1083.18" r="1" gradientTransform="matrix(0, 1.28, 1.28, 0, -1088.55, 342.96)" xlink:href="#radial-gradient"/>
    <radialGradient id="radial-gradient-68" cx="-197.14" cy="1083.18" r="1" gradientTransform="matrix(0, 1.28, 1.28, 0, -1048.59, 339.56)" xlink:href="#radial-gradient"/>
    <radialGradient id="radial-gradient-69" cx="-197.14" cy="1083.18" r="1" gradientTransform="matrix(0, 1.28, 1.28, 0, -1047.74, 353.16)" xlink:href="#radial-gradient"/>
    <radialGradient id="radial-gradient-70" cx="-197.14" cy="1083.18" r="1" gradientTransform="matrix(0, 1.28, 1.28, 0, -1063.04, 362.51)" xlink:href="#radial-gradient"/>
    <radialGradient id="radial-gradient-71" cx="-197.14" cy="1083.18" r="1" gradientTransform="matrix(0, 1.28, 1.28, 0, -1209.29, 340.41)" xlink:href="#radial-gradient"/>
    <radialGradient id="radial-gradient-72" cx="-197.14" cy="1083.18" r="1" gradientTransform="matrix(0, 1.28, 1.28, 0, -1270.5, 343.81)" xlink:href="#radial-gradient"/>
    <radialGradient id="radial-gradient-73" cx="-197.14" cy="1083.18" r="1" gradientTransform="matrix(0, 1.28, 1.28, 0, -1306.22, 355.71)" xlink:href="#radial-gradient"/>
    <radialGradient id="radial-gradient-74" cx="-197.14" cy="1083.18" r="1" gradientTransform="matrix(0, 1.28, 1.28, 0, -1343.63, 357.41)" xlink:href="#radial-gradient"/>
    <radialGradient id="radial-gradient-75" cx="-197.14" cy="1083.18" r="1" gradientTransform="matrix(0, 1.28, 1.28, 0, -1347.03, 338.71)" xlink:href="#radial-gradient"/>
    <radialGradient id="radial-gradient-76" cx="-197.14" cy="1083.18" r="1" gradientTransform="matrix(0, 1.28, 1.28, 0, -1318.12, 356.56)" xlink:href="#radial-gradient"/>
    <radialGradient id="radial-gradient-77" cx="-197.14" cy="1083.18" r="1" gradientTransform="matrix(0, 1.28, 1.28, 0, -1380.19, 354.01)" xlink:href="#radial-gradient"/>
    <radialGradient id="radial-gradient-78" cx="-319.35" cy="850.12" r="1" gradientTransform="matrix(0, 13.6, 13.6, 0, -11263.8, 4438.2)" gradientUnits="userSpaceOnUse">
      <stop offset="0.93" stop-color="#fff"/>
      <stop offset="1" stop-color="#fff" stop-opacity="0"/>
    </radialGradient>
    <radialGradient id="radial-gradient-79" cx="-323.57" cy="842.4" r="1" gradientTransform="matrix(0, 20.4, 20, 0, -16551, 6696.2)" gradientUnits="userSpaceOnUse">
      <stop offset="0.59" stop-color="#e0e0e0"/>
      <stop offset="0.67" stop-color="#fff" stop-opacity="0"/>
    </radialGradient>
    <radialGradient id="radial-gradient-80" cx="-322.65" cy="844.22" r="1" gradientTransform="matrix(0, 18.4, 18, 0, -14898.6, 6031.8)" gradientUnits="userSpaceOnUse">
      <stop offset="0.59" stop-color="#cbcbcb"/>
      <stop offset="0.77" stop-color="#fff" stop-opacity="0"/>
    </radialGradient>
    <radialGradient id="radial-gradient-81" cx="-322.65" cy="843.83" r="1" gradientTransform="matrix(0, 18.4, 18.4, 0, -15228.6, 6031.8)" gradientUnits="userSpaceOnUse">
      <stop offset="0" stop-color="#fff"/>
      <stop offset="1" stop-color="#fff" stop-opacity="0"/>
    </radialGradient>
  </defs>
  <g id="Layer_2" data-name="Layer 2">
    <g id="Layer_1-2" data-name="Layer 1">
      <path d="M335,250H0V68H335Z" fill="url(#linear-gradient)"/>
      <path d="M207.75,213.44a5.11,5.11,0,0,1-1.75-.51,15.66,15.66,0,0,1,2.58-4.13c0-.26,0-.77-.06-1-2,.86-3.12,2.73-4.68,4.08-1.53.64-7-1.93-10.79-2.16-1.13-.1-1.67-1.21-2.29-2a15.47,15.47,0,0,0-3.31-.55,28.21,28.21,0,0,0,4.47-7.37c.07-4.45.73-4.12-.56-9-.59-2.58-3-7.55-4.92-8.45-2.27-.22-3.61-1.21-5.87-1.58.77-1.4,2.07-2.44,2.67-3.93,1.78-4,.51-10-2.22-12.54a34.17,34.17,0,0,1-5.92-1.86l-1,0a10.5,10.5,0,0,1-.49-2.42l.64-1.16c-.22-.44-.44-.87-.64-1.31a2.51,2.51,0,0,1,1.83,2.06l1.32.32c-.1-.49-.19-1-.29-1.46a7.62,7.62,0,0,0-.55-4.75c-1.39-.42-2.79-.8-4.19-1.14-.23,1.91.31,3.91-.33,5.75l0,.6q.36,1,.69,1.95l-.76.44c-3.08-1-4.19-1.11-5.58-1.64-.44-1.8-.61-5.35-2.4-7.36-1.37-.26-9.21-2.22-9.67-2.3a9.87,9.87,0,0,0-.07-2c-.34-.25-.69-.48-1-.7-.25-1.59.21-3.14.21-4.71a2.48,2.48,0,0,1,1.05,1.59l.72.11,1.33.75a9.34,9.34,0,0,1-.43-3.86c-1.08-.86-1.5-2.28-2.66-3-.68-.11-1.36-.27-2-.44,0,1.38,0,2.76,0,4.15-1.11,1.89-1-.56.06,5.15a3.32,3.32,0,0,0-1.67,2c-4.17-.58-8.28-1.62-12.44-2.28,0,.24,0,.72,0,1,2.1,1.88,4.76,4.23,4.36,9.25.28,6-1.05,9.59-3.67,13.28-1.13-.22-2.28-.35-3.41-.5.61.84,1.25,1.65,1.83,2.51-1.36-.39-2.72-.78-4.05-1.27-1.62-1.66-1.26-4.12-1.19-6.23l1.05-.68c-.1-.53-.27-1-.38-1.57.92.73,1,2.07,2,2.8l1,0c-.1-.27-.19-.55-.29-.83a12.18,12.18,0,0,0,.25-3.36,11.55,11.55,0,0,0-2.16-1.79c0-.22,0-.65,0-.87l.73-.05c0-.43,0-.85,0-1.28a6.42,6.42,0,0,0-3.12-2.65l-1.25,0c.23,2.48.07,5,.34,7.45l-1.22,1.26c.07.22.19.66.25.88,1.58,1,.83,3,1,4.48-.57.31-1.11.94-1.82.74-3-.55-5.86-1.91-8.88-2.59,1,2.06,2.87,2.47,5.73,7.9,4,8.55,2.52,16.83-1.39,21.68-3.24-4.24-11.21-22.47-13.6-23.14,1.51,6.46,4.78,10.87,6.71,34.88,1.34,8.53-2.64,13.67-5.71,15.09a5.59,5.59,0,0,1,1.65-2.62c-.27-.8-.54-1.6-.83-2.39.39-.52.77-1,1.15-1.57-1.16-.54-1.82-1.65-2.75-2.47,0,.29-.13.89-.17,1.18-.6.46-1.2.91-1.82,1.32,0,.17.09.51.11.68.55,1.2-.06,2.54.3,3.8,1.5,1.64,1-.25,1.06,14.75,1.11,2.17,2.69,4.09,3.61,6.35-1.64,3.47-1.42-.3,0,7.59,2.52,9.39-14.52,6.64,70.06,4.7-.07-6,8.47-18.59,11.27-18.88,3.84-.65,10.23-2.78,13.15-6.28a47.65,47.65,0,0,0,2.87-4.73c.32-.85.6-1.72.94-2.56C210.6,219.48,209.45,214.3,207.75,213.44ZM128,198.38c.12,1.74.19,3.47.2,5.21a4.67,4.67,0,0,1-1.36,1.26l-2.76-5,0-.8A19.36,19.36,0,0,1,128,198.38Zm-16.61,30.88c0-.55,0-1.09,0-1.63l.72-.61c0,.92,0,1.86,0,2.78Zm2.9,1.25-.73-.5c0-.72,0-1.43,0-2.14h.72Zm1,.25A3.66,3.66,0,0,1,116,228c.06.92.07,1.85.07,2.77Zm3.29.36-.73,0V229h.73ZM120,232c0-.89,0-1.77,0-2.66h.71c0,.7,0,1.39,0,2.09Zm2,.49a8.93,8.93,0,0,1-.26-3C123.05,230,122,231.48,122,232.46Zm2.34.36c-1-.64-.71-1.8-.74-2.78h.73A18.56,18.56,0,0,1,124.37,232.82Zm1.43.27c-.21-1-.52-2.11.22-3a4.37,4.37,0,0,1,.53,2.33Zm-15-8.18c-.15-.13-.42-.41-.56-.54,5-4,16.23-4.11,17.73-2.6.09,2.5.09,5,0,7.53C124.78,229.61,112.88,225.44,110.77,224.91Zm16.94,8.64c-.08-.85-.1-1.7-.1-2.56l.73.64A4.09,4.09,0,0,1,127.71,233.55ZM129.54,213c-.17-1.45,0-2.91-.08-4.36l.29,0C129.66,210.13,130,211.62,129.54,213Zm10-42.58a23.49,23.49,0,0,1,10.86-2.7,19.52,19.52,0,0,1-.08,2.86c-.3.45-.66.87-1,1.3,0,.46,0,.93,0,1.4-.7-.31-8-2-8.1-2C140.7,171,139.49,171.24,139.54,170.44Zm-7.94,27.43a6,6,0,0,0,2.06-.36,19.52,19.52,0,0,1,5.29.2c-1,3.06-3.51,5.16-5.74,7.31-.71.1-1.1-.79-1.5-1.25A52.77,52.77,0,0,1,131.6,197.87Zm-.23,7.67c.32-.51,1.34-.07.92.51S130.94,206.11,131.37,205.54Zm0,18.19a4.27,4.27,0,0,1,2.38,2.1c0,.37,0,.74,0,1.1a12.51,12.51,0,0,1-2.58,2.94c.09-.6.2-1.2.3-1.8A11.52,11.52,0,0,1,131.41,223.73Zm.86,10.53a3.42,3.42,0,0,1-.74-2.28l.81-.6C132.35,232.34,132.34,233.3,132.27,234.26Zm1.86-.24h-.72v-2.17h.72Zm-1.93-3.67c3.28-3.19,2.57-.37,2.7.06C134,230.4,133.1,230.39,132.2,230.35Zm2.47-6.56a28.93,28.93,0,0,0-3.41-9.9c0-2,0-4.11,0-6.16,1-.75,1.87-1.61,2.86-2.34,5.68,3.61,3.66,13,2.46,15.77a14.82,14.82,0,0,0-.7,1.86C135.57,223.47,135.34,224.15,134.67,223.79Zm1.24,10.69-.75-.6a5,5,0,0,1,.46-2.17l.55.58C136.07,233,136,233.75,135.91,234.48Zm14.85,2.44H148l-1.65-1.81c-1.37.07-6.86-.22-7.84-1.16-1-.76-.66-2.13-1.09-3.17a5.25,5.25,0,0,1-1.68-.17c-.16-.79-.23-1.58-.46-2.35,3-3,10.21-4.35,15.48-4C150.78,228.51,150.75,232.71,150.76,236.92Zm-1.19-32.22c-4.86,0-9.71.05-14.56,0,1.57-2,4.23-2.66,6.18-4.22a9.42,9.42,0,0,0,2.52-.72c3.16-.91,5.08-1.11,6.69-1.54C151.4,203.56,150.36,203.72,149.57,204.7ZM164.13,175l.85-.09a18.72,18.72,0,0,1,7.1-1.4v2.74l-.9.94a16.86,16.86,0,0,1-5.83-1.44l-1.22-.09V175Zm7.94,28.74c-.29.44-.56.88-.84,1.33-1.78-.22-3.79.45-5.39-.53a10.83,10.83,0,0,0,4.91-6h1.33C172.08,200.28,172.09,202,172.07,203.76ZM163.24,200l1.08,0,1.28,1.26a8.38,8.38,0,0,1-.36,3.11,24.37,24.37,0,0,1-8-.75A4.61,4.61,0,0,1,159.6,202C161.15,201,160.7,201.4,163.24,200Zm-.64-30.65-.28-.44,1-.56a8.83,8.83,0,0,1,.09,4.7c-1.44,2.27-3,3.45-5.64,2.39l-1.22-.12,0-1,.9-.07C159.21,172.65,160.65,170.71,162.6,169.35Zm-8.95,1.52v-3.06l.95-.21c.73.08,1.47.13,2.2.17a4.12,4.12,0,0,1,1.39,4.47c-.59,1.17-1.91,1.66-2.93,2.39h-1.35a9,9,0,0,0,.91-2.7C154.43,171.58,154,171.22,153.65,170.87Zm.36,26.86c1.74,0,3.48,0,5.22.13A9.79,9.79,0,0,1,154,203C154,201.26,154,199.49,154,197.73Zm2.33,7.79c-.6-.15-1.2-.32-1.79-.51a7.57,7.57,0,0,1,.49-1.08C155.83,204,156.13,204.87,156.34,205.52Zm16.13,29.6c-2,1.43-16.74,1.87-17.76,1.82-.57-1.35-.3-9.9-.29-10.05.71-.88,6.17-1.58,7.3-1.65,1.82-.7,10.29-.64,10.36-.64C172.84,228.05,172.25,231.62,172.47,235.12ZM175,174.07c.92.19,1.83.4,2.75.61a6.19,6.19,0,0,1,2.36,2.7,5.45,5.45,0,0,1-.73,2.61c-1.59-.42-2-.49-2.92-.75,0-.41,0-.82,0-1.23-.46-.38-.92-.74-1.38-1.1C175,176,175,175,175,174.07Zm.78,24.4c1.62.42,3.36.28,4.88,1.07l.67.11a10,10,0,0,1,4.51,4.5l0,1.12c-.35.49-.72,1-1.09,1.45-1.41-.26-2.89,0-4.24-.52-.94-.07-1.88,0-2.81-.13a23.53,23.53,0,0,0-2.14-2.32C175,202,175.74,200.22,175.74,198.47Zm.39,27,.4-.43a17.64,17.64,0,0,1,7.51,1c0,.23,0,.68,0,.9-2.09,2.6-4.27,5.23-7.24,6.86A33.77,33.77,0,0,1,176.13,225.44Zm4.43,8.11-1.93.44c1.37-1.34,3.48-2.24,5.94-3.53,2.15-.46,1.47-.6,3.59-.83C187.21,231.19,187.44,231.67,180.56,233.55Zm18.24-1.37a7.86,7.86,0,0,1-1.91,1.44,30.93,30.93,0,0,1-4.56.91c0-1.06,0-2.11,0-3.16-.29-.42-.58-.85-.86-1.28a9.33,9.33,0,0,0,2.17-1.79A40.66,40.66,0,0,1,198,229c.25.28.51.55.77.83s.23.78.35,1.17C199,231.38,198.9,231.78,198.8,232.18Z"/>
      <path d="M146,159.73c0-.66.39-.54.39-1s-.31-.45-.31-.95c0-.25.42-.48.93-.48.15.88.33,1.13.87,1.4l1.12,1.55A6.18,6.18,0,0,0,146,159.73Zm1.23,2.69a.56.56,0,0,1,.53-.59,4.61,4.61,0,0,0,2.15-.62l.19.7.39.3c-1.35.55-1.27,1.46-1.91,1.46S148.43,162.69,147.23,162.42Zm1-4,.46-.68-.32-2.63c0-1.27,2.09-2.47,3.63-2.47s3.63,1.2,3.63,2.47l-.32,2.63.46.68-1.22,1.69-.76.14-.12.61-1,.59h-1.26l-1-.59-.12-.61-.76-.14Zm1.12-.44c0,.79.18,1.23.52,1.23.78,0,1.66-.38,1.66-1.14,0-.44-1.25-.78-1.44-.78C149.57,157.33,149.35,157.56,149.35,158Zm1,3.13.41.24v.48l-.28-.21Zm.55.79v-.46l.42.21v.48Zm.49-1.83.28.21.35-.21.35.21.28-.21L152,159Zm.07,2.08v-.49h.49v.49Zm.63,0v-.49h.49v.49Zm.4-4.08c0,.76.88,1.14,1.66,1.14.34,0,.52-.44.52-1.23,0-.46-.22-.69-.74-.69C153.72,157.33,152.47,157.67,152.47,158.11Zm.23,4.06v-.48l.42-.21v.46Zm.56-.3v-.48l.41-.24-.13.51Zm.25.34.39-.3.19-.7a4.61,4.61,0,0,0,2.15.62.56.56,0,0,1,.53.59c-1.2.27-.81,1.25-1.35,1.25S154.86,162.76,153.51,162.21Zm1.49-2,1.12-1.55c.54-.27.72-.52.87-1.4.51,0,.93.23.93.48,0,.5-.31.37-.31.95s.39.37.39,1A6.18,6.18,0,0,0,155,160.22Z" fill="#21201d"/>
      <path d="M54.59,240.28a1.65,1.65,0,0,1-.61-.18,6,6,0,0,1,.89-1.45l0-.35a7,7,0,0,0-1.61,1.43c-.52.22-2.4-.68-3.7-.76-.39,0-.57-.43-.79-.71a5.45,5.45,0,0,0-1.13-.19,10,10,0,0,0,1.53-2.58,7.39,7.39,0,0,0-.19-3.17c-.2-.91-1-2.65-1.69-3-.78-.08-1.24-.43-2-.56a13.56,13.56,0,0,0,.91-1.37,4.42,4.42,0,0,0-.76-4.4,12,12,0,0,1-2-.65h-.33a3.47,3.47,0,0,1-.17-.85l.22-.41c-.07-.15-.15-.3-.22-.46a.88.88,0,0,1,.63.73l.45.11c0-.17-.07-.34-.1-.51a2.74,2.74,0,0,0-.19-1.67c-.48-.15-1-.28-1.44-.4a9.07,9.07,0,0,1-.11,2v.21c.08.22.16.45.23.68l-.26.16c-1-.37-1.44-.39-1.91-.58a6,6,0,0,0-.82-2.58c-.48-.09-3.17-.78-3.33-.81a3.08,3.08,0,0,0,0-.68l-.36-.25a11.33,11.33,0,0,1,.08-1.65.89.89,0,0,1,.36.56l.24,0,.46.27a3.46,3.46,0,0,1-.15-1.36c-.37-.3-.51-.79-.91-1.06-.24,0-.47-.1-.7-.16,0,.49,0,1,0,1.46-.37.66-.33-.19,0,1.8a1.2,1.2,0,0,0-.58.71c-1.43-.21-2.84-.57-4.27-.8,0,.08,0,.25,0,.34a3.59,3.59,0,0,1,1.5,3.24,6.81,6.81,0,0,1-1.26,4.65c-.39-.07-.78-.12-1.17-.17.21.29.43.58.63.88-.47-.14-.94-.28-1.39-.45a2.81,2.81,0,0,1-.41-2.18l.36-.24c0-.19-.09-.37-.13-.55.31.25.34.72.67,1h.35c0-.1-.07-.19-.1-.29a4.63,4.63,0,0,0,.09-1.18,4.11,4.11,0,0,0-.75-.63V221l.25,0v-.45a2.21,2.21,0,0,0-1.07-.93h-.43c.08.87,0,1.75.12,2.62l-.42.44c0,.08.07.23.09.31.54.33.28,1,.35,1.57-.2.1-.38.33-.62.26-1.05-.2-2-.67-3.05-.91.32.72,1,.86,2,2.77a7.39,7.39,0,0,1-.47,7.6c-1.12-1.48-3.85-7.88-4.67-8.11a44.9,44.9,0,0,1,2.3,12.23c.46,3-.91,4.79-2,5.29a2,2,0,0,1,.57-.92c-.09-.28-.19-.56-.29-.84.14-.18.27-.36.4-.55-.4-.19-.63-.58-.95-.87,0,.11,0,.32-.06.42-.2.16-.41.32-.62.46l0,.24c.19.42,0,.89.1,1.33.52.58.34-.08.36,5.17.38.77.93,1.44,1.24,2.23-.56,1.22-.48-.1,0,2.66.87,3.3-5,2.33,24.05,1.65,0-2.11,2.91-6.52,3.87-6.62a8.4,8.4,0,0,0,4.52-2.2,17.22,17.22,0,0,0,1-1.66c.11-.3.21-.6.33-.9C55.57,242.4,55.17,240.58,54.59,240.28ZM27.2,235q.06.92.06,1.83a1.61,1.61,0,0,1-.46.44l-.95-1.77c0-.07,0-.21,0-.28A6.19,6.19,0,0,1,27.2,235Zm-5.71,10.83c0-.19,0-.38,0-.57l.24-.22c0,.33,0,.66,0,1Zm1,.44-.25-.18v-.75h.25Zm.36.09a1.31,1.31,0,0,1,.24-1c0,.32,0,.64,0,1Zm1.13.12h-.25v-.77H24Zm.49.3c0-.31,0-.62,0-.93h.24c0,.24,0,.49,0,.73Zm.69.17a3.35,3.35,0,0,1-.09-1C25.51,246.09,25.16,246.61,25.16,247Zm.8.13c-.32-.23-.24-.63-.25-1H26A6.41,6.41,0,0,1,26,247.08Zm.49.09a1.15,1.15,0,0,1,.08-1,1.67,1.67,0,0,1,.18.82Zm-5.16-2.87-.19-.18c1.73-1.41,5.57-1.45,6.09-.92,0,.88,0,1.77,0,2.64C26.1,246,22,244.49,21.29,244.3Zm5.82,3c0-.3,0-.6,0-.9l.25.22A1.65,1.65,0,0,1,27.11,247.34Zm.63-7.21c-.06-.5,0-1,0-1.52h.1A5.85,5.85,0,0,1,27.74,240.13Zm3.43-14.93a7.93,7.93,0,0,1,3.73-.94,6.69,6.69,0,0,1,0,1c-.1.16-.23.31-.34.46s0,.32,0,.49c-.24-.11-2.75-.71-2.78-.72S31.15,225.49,31.17,225.2Zm-2.72,9.62a2.1,2.1,0,0,0,.7-.12,6.53,6.53,0,0,1,1.82.07,6.69,6.69,0,0,1-2,2.56c-.24,0-.38-.28-.52-.44A17.84,17.84,0,0,1,28.45,234.82Zm-.09,2.69c.12-.17.47,0,.32.18S28.22,237.71,28.36,237.51Zm0,6.38a1.49,1.49,0,0,1,.82.74c0,.13,0,.26,0,.38a4.42,4.42,0,0,1-.88,1c0-.22.06-.43.1-.64A4.08,4.08,0,0,1,28.38,243.89Zm.29,3.7a1.3,1.3,0,0,1-.25-.81l.28-.21C28.7,246.91,28.7,247.25,28.67,247.59Zm.64-.09h-.24v-.76h.24Zm-.66-1.29c1.13-1.12.88-.13.93,0C29.27,246.23,29,246.23,28.65,246.21Zm.85-2.3a10.32,10.32,0,0,0-1.17-3.47c0-.72,0-1.44,0-2.16.34-.26.64-.56,1-.82,1.95,1.27,1.26,4.55.85,5.53a5.07,5.07,0,0,0-.24.65C29.81,243.8,29.73,244,29.5,243.91Zm.42,3.75-.25-.21a1.81,1.81,0,0,1,.15-.76l.19.2Zm5.1.86h-1l-.56-.64a6.79,6.79,0,0,1-2.69-.4c-.34-.27-.23-.75-.38-1.12a1.54,1.54,0,0,1-.57-.06c-.06-.27-.08-.55-.16-.82,1-1,3.5-1.52,5.31-1.39C35,245.57,35,247,35,248.52Zm-.41-11.3c-1.66,0-3.33,0-5,0,.53-.7,1.45-.93,2.12-1.48a3.13,3.13,0,0,0,.86-.25c1.09-.32,1.75-.39,2.3-.54C35.24,236.82,34.89,236.87,34.61,237.22Zm5-10.41.29,0a6.32,6.32,0,0,1,2.44-.49v1l-.31.33a5.47,5.47,0,0,1-2-.51l-.42,0v-.23Zm2.73,10.08-.29.46c-.61-.07-1.3.16-1.85-.18a3.85,3.85,0,0,0,1.69-2.11h.45C42.34,235.67,42.35,236.28,42.34,236.89Zm-3-1.32h.37l.44.45a3,3,0,0,1-.13,1.08,7.84,7.84,0,0,1-2.73-.26,1.55,1.55,0,0,1,.8-.55C38.59,235.93,38.44,236.06,39.31,235.57Zm-.22-10.75a.78.78,0,0,1-.1-.15l.34-.2a3.19,3.19,0,0,1,0,1.65c-.5.79-1,1.21-1.94.84l-.42,0c0-.09,0-.26,0-.35l.31,0A17.87,17.87,0,0,1,39.09,224.82Zm-3.08.54v-1.08l.33-.07c.25,0,.5,0,.76.06a1.47,1.47,0,0,1,.47,1.57c-.2.4-.65.58-1,.83H36.1a3.17,3.17,0,0,0,.32-.94Zm.13,9.41c.6,0,1.19,0,1.79,0a3.39,3.39,0,0,1-1.78,1.81C36.13,236,36.14,235.39,36.14,234.77Zm.8,2.74-.62-.18c0-.13.11-.26.17-.38C36.76,237,36.86,237.28,36.94,237.51Zm5.53,10.38c-.67.5-5.74.65-6.09.63a20.74,20.74,0,0,1-.1-3.52,7,7,0,0,1,2.5-.58,20.68,20.68,0,0,1,3.56-.22A23.88,23.88,0,0,1,42.47,247.89Zm.86-21.41.94.21a2.09,2.09,0,0,1,.81.95,1.83,1.83,0,0,1-.25.91l-1-.26c0-.14,0-.29,0-.43l-.47-.39C43.35,227.14,43.34,226.81,43.33,226.48ZM43.6,235a7.35,7.35,0,0,1,1.67.38l.23,0A3.46,3.46,0,0,1,47.05,237v.4l-.37.51a7.77,7.77,0,0,1-1.46-.18c-.32,0-.64,0-1-.05a9.47,9.47,0,0,0-.74-.81A6.84,6.84,0,0,1,43.6,235Zm.13,9.46.14-.15a6.08,6.08,0,0,1,2.58.36c0,.08,0,.24,0,.32a9,9,0,0,1-2.48,2.4A11.88,11.88,0,0,1,43.73,244.49Zm1.52,2.85-.66.15a9.17,9.17,0,0,1,2-1.24,7.06,7.06,0,0,1,1.23-.29C47.54,246.51,47.62,246.68,45.25,247.34Zm6.26-.49a2.49,2.49,0,0,1-.65.51,10.4,10.4,0,0,1-1.57.32c0-.37,0-.74,0-1.11-.1-.15-.2-.3-.29-.45a3.17,3.17,0,0,0,.74-.63,15.11,15.11,0,0,1,1.5.24l.27.29.12.41C51.58,246.57,51.55,246.71,51.51,246.85Z"/>
      <path d="M34,221.64c0-.18.13-.14.13-.28s-.1-.12-.1-.26.14-.13.3-.13c.06.24.12.31.3.38l.37.43A2.36,2.36,0,0,0,34,221.64Zm.41.74a.17.17,0,0,1,.18-.17,1.8,1.8,0,0,0,.71-.16l.07.19.13.08c-.45.15-.43.4-.64.4S34.81,222.45,34.41,222.38Zm.33-1.08.16-.19-.11-.72c0-.34.7-.67,1.21-.67s1.21.33,1.21.67l-.11.72.16.19-.41.46-.25,0,0,.16-.35.16h-.42l-.35-.16,0-.16-.25,0Zm.38-.12c0,.21.06.33.17.33s.55-.1.55-.31-.41-.21-.48-.21S35.12,221.05,35.12,221.18Zm.32.85.14.07v.13l-.09-.06Zm.19.22v-.13l.14.06v.13Zm.16-.5.09.05.12-.05.12.05.09-.05-.21-.31Zm0,.57v-.14H36v.14Zm.21,0v-.14h.17v.14Zm.14-1.12c0,.21.29.31.55.31s.17-.12.17-.33-.07-.19-.24-.19S36.16,221.08,36.16,221.2Zm.07,1.11v-.13l.14-.06v.13Zm.19-.08v-.13l.14-.07-.05.14Zm.08.09.13-.08.07-.19a1.8,1.8,0,0,0,.71.16.17.17,0,0,1,.18.17c-.4.07-.27.34-.45.34S37,222.47,36.5,222.32Zm.5-.54.37-.43c.18-.07.24-.14.3-.38.16,0,.3.06.3.13s-.1.1-.1.26.13.1.13.28A2.36,2.36,0,0,0,37,221.78Z" fill="#21201d"/>
      <path d="M0,5A5,5,0,0,1,5,0H330a5,5,0,0,1,5,5V68H0Z" fill="#0a1013"/>
      <path d="M57.76,21q4.4-2.68,5-2.68c.42,0,1.09.55,2,1.64a4.82,4.82,0,0,1,1.4,3V35.32c0,.19-1.07.71-3.2,1.56s-3.86,1.49-5.24,1.92v4A5,5,0,0,0,58.08,45a1.32,1.32,0,0,0,1.32.64v1.24l-8.2,3.44L50.56,49a2.23,2.23,0,0,0,1.68-1,5.22,5.22,0,0,0,.72-3V24.2c0-1.63-.55-2.55-1.64-2.76v-.88l4-2.28A4.71,4.71,0,0,1,57,19.44,2.38,2.38,0,0,1,57.76,21Zm1.56,1.16a2.74,2.74,0,0,0-1.56.6v14.2a5.26,5.26,0,0,0,2.32-.64c.85-.45,1.28-.92,1.28-1.4v-9.8C61.36,23.11,60.68,22.12,59.32,22.12ZM72.79,43.88V25.6a5,5,0,0,0-.32-2.12,1.32,1.32,0,0,0-1.32-.64V21.6l8.2-3.44L80,19.44a2.23,2.23,0,0,0-1.68,1,5.22,5.22,0,0,0-.72,3v18.8A2.64,2.64,0,0,0,78,43.88a1.54,1.54,0,0,0,1.24.44v1.12Q71.08,49,71,49l-.64-1.28a1.43,1.43,0,0,0,.76-.28,3.26,3.26,0,0,0,.8-.64A4.33,4.33,0,0,0,72.79,43.88ZM90.94,22.12a2.74,2.74,0,0,0-1.56.6v13a5.19,5.19,0,0,0,2.32-.64c.86-.45,1.28-.92,1.28-1.4v-8.6C93,23.11,92.3,22.12,90.94,22.12Zm-6.36,22.8V24.2c0-1.63-.54-2.55-1.64-2.76v-.88l4-2.28a4.53,4.53,0,0,1,1.6,1.16,2.34,2.34,0,0,1,.8,1.52q4.41-2.68,5-2.68c.43,0,1.1.55,2,1.64a4.76,4.76,0,0,1,1.4,3V34.12q0,.32-4.36,2,1.85,6.2,4.32,8.36a3.61,3.61,0,0,0,2.28.92v1.2Q96.34,49,95.34,49,94,49,92,44a32.22,32.22,0,0,1-2.16-6.56l-.44.12v5.24A5.14,5.14,0,0,0,89.7,45,1.34,1.34,0,0,0,91,45.6v1.24l-8.2,3.44L82.18,49a2.19,2.19,0,0,0,1.68-1A5.22,5.22,0,0,0,84.58,44.92Zm20.27,0V22q0-.29,4.56-2a30.13,30.13,0,0,1,5.24-1.72c.45,0,1.13.55,2,1.64a4.82,4.82,0,0,1,1.4,3V33.36h2v1l-2,1v7.76a2.32,2.32,0,0,0,1.92,2.6v.88L115.65,49A4.71,4.71,0,0,1,114,47.84a2.41,2.41,0,0,1-.76-1.56v-11h-3.6v7.52A5,5,0,0,0,110,45a1.32,1.32,0,0,0,1.32.64v1.24l-8.2,3.44L102.45,49a2.23,2.23,0,0,0,1.68-1A5.22,5.22,0,0,0,104.85,44.92ZM111.21,22a2.47,2.47,0,0,0-1.56.6V34.4l2.36-1h1.24V25C113.25,23,112.57,22,111.21,22ZM128,44.92V23.72l1.24-1.2h-2.52q-2.43,0-2.76,1.32H123l-2.28-3.28A5.49,5.49,0,0,1,122,19.2a2.42,2.42,0,0,1,1.48-.6H134q2.44,0,2.76-1.32h.88L140,20.56a5.3,5.3,0,0,1-1.24,1.36,2.4,2.4,0,0,1-1.48.6h-4.48V42.84a5.14,5.14,0,0,0,.32,2.12,1.34,1.34,0,0,0,1.32.64v1.24l-8.2,3.44L125.55,49a2.19,2.19,0,0,0,1.68-1A5.22,5.22,0,0,0,128,44.92ZM148.2,22.08a.93.93,0,0,0-.72.4V33h5.64v1l-2,1h-3.64v4c0,3,.3,4.69.88,5.2a5.21,5.21,0,0,0,2.88,1.28,32.09,32.09,0,0,0,3.36.16V46.8a27.92,27.92,0,0,0-3,1.12A15.08,15.08,0,0,1,148.28,49c-.82,0-2-.64-3.44-1.92a5.56,5.56,0,0,1-2.16-4.16v-21q0-.28,4.56-2a31.14,31.14,0,0,1,5.28-1.72c.16,0,.35.39.56,1.16s.46,1.71.72,2.8a12.16,12.16,0,0,0,.88,2.44,1.91,1.91,0,0,0,1.76.76v.8l-3,1.44a17.25,17.25,0,0,1-2.24,1c-.4,0-.9-1.08-1.52-3.24S148.58,22.08,148.2,22.08Zm29.79,0a.93.93,0,0,0-.72.4V33h5.64v1l-2,1h-3.64v4c0,3,.3,4.69.88,5.2A5.21,5.21,0,0,0,181,45.48a32.09,32.09,0,0,0,3.36.16V46.8a27.92,27.92,0,0,0-3,1.12A15.08,15.08,0,0,1,178.07,49c-.82,0-2-.64-3.44-1.92a5.56,5.56,0,0,1-2.16-4.16v-21q0-.28,4.56-2a31.14,31.14,0,0,1,5.28-1.72c.16,0,.35.39.56,1.16s.46,1.71.72,2.8a12.16,12.16,0,0,0,.88,2.44,1.91,1.91,0,0,0,1.76.76v.8l-3,1.44a17.25,17.25,0,0,1-2.24,1c-.4,0-.9-1.08-1.52-3.24S178.37,22.08,178,22.08Zm16.1,14.16c-.67,0-1.24-.51-1.72-1.52a8.48,8.48,0,0,1-.72-3.72V22.68c0-.51,1.39-1.37,4.2-2.6a25.33,25.33,0,0,1,4.83-1.88c.33,0,.78.53,1.36,1.6l.56,1.08c.27.45.49.83.64,1.12a1.53,1.53,0,0,0,1.33,1v.8c-.43.19-1,.47-1.72.84a21.06,21.06,0,0,1-2.73,1.4c-.39,0-.9-.79-1.52-2.36s-1.06-2.36-1.44-2.36-.71.4-.71,1.2V31.4c0,1.07.23,1.6.71,1.6a23.89,23.89,0,0,0,2.49-1,11.67,11.67,0,0,1,2.8-1c.64,0,1.2.52,1.67,1.56a8.72,8.72,0,0,1,.76,3.92v8.52q0,.77-4.59,2.64A29,29,0,0,1,195,49.4c-.18,0-.39-.23-.64-.68s-.55-1.09-1-1.92a22.07,22.07,0,0,0-1-2.12,1.35,1.35,0,0,0-1.24-.84V43c.43-.19,1-.47,1.69-.84a21.94,21.94,0,0,1,2.75-1.4c.41,0,1,.92,1.69,2.76s1.3,2.76,1.67,2.76a1.16,1.16,0,0,0,.77-.32,1.15,1.15,0,0,0,.36-.88v-9c0-1.2-.34-1.8-1-1.8a13.21,13.21,0,0,0-2.52,1A15.07,15.07,0,0,1,194.09,36.24Zm23.07-14.16a.9.9,0,0,0-.72.4V39a14.33,14.33,0,0,0,.2,2.72,5.31,5.31,0,0,0,.88,2q1.32,1.92,6,1.92V46.8a27,27,0,0,0-3,1.12A15.08,15.08,0,0,1,217.24,49c-1.34,0-2.6-.76-3.8-2.28a7.85,7.85,0,0,1-1.8-4.88v-20q0-.28,4.56-2a30.54,30.54,0,0,1,5.28-1.72c.16,0,.34.39.56,1.16s.45,1.71.72,2.8a11,11,0,0,0,.88,2.44,1.9,1.9,0,0,0,1.76.76v.8q-.89.4-3,1.44a18.77,18.77,0,0,1-2.24,1c-.4,0-.91-1.08-1.52-3.24S217.53,22.08,217.16,22.08Zm13.65,22.84V22q0-.29,4.56-2a30.13,30.13,0,0,1,5.24-1.72c.45,0,1.13.55,2,1.64a4.82,4.82,0,0,1,1.4,3V33.36h2v1l-2,1v7.76a2.32,2.32,0,0,0,1.92,2.6v.88L241.61,49A4.8,4.8,0,0,1,240,47.84a2.41,2.41,0,0,1-.76-1.56v-11h-3.6v7.52a5,5,0,0,0,.32,2.12,1.32,1.32,0,0,0,1.32.64v1.24l-8.2,3.44L228.41,49a2.23,2.23,0,0,0,1.68-1A5.22,5.22,0,0,0,230.81,44.92ZM237.17,22a2.49,2.49,0,0,0-1.56.6V34.4l2.36-1h1.24V25C239.21,23,238.53,22,237.17,22Zm18.66-1q4.41-2.68,5-2.68c.42,0,1.09.55,2,1.64a4.8,4.8,0,0,1,1.39,3V35.32c0,.19-1.06.71-3.19,1.56s-3.86,1.49-5.25,1.92v4a5.14,5.14,0,0,0,.32,2.12,1.34,1.34,0,0,0,1.33.64v1.24l-8.21,3.44L248.63,49a2.23,2.23,0,0,0,1.69-1,5.3,5.3,0,0,0,.72-3V24.2c0-1.63-.55-2.55-1.64-2.76v-.88l4-2.28A4.65,4.65,0,0,1,255,19.44,2.36,2.36,0,0,1,255.83,21Zm1.56,1.16a2.77,2.77,0,0,0-1.56.6v14.2a5.19,5.19,0,0,0,2.32-.64c.86-.45,1.28-.92,1.28-1.4v-9.8C259.43,23.11,258.76,22.12,257.39,22.12Zm19,0a.9.9,0,0,0-.72.4V33h5.64v1l-2,1h-3.64v4q0,4.44.88,5.2a5.21,5.21,0,0,0,2.88,1.28,32.09,32.09,0,0,0,3.36.16V46.8a27.92,27.92,0,0,0-3,1.12A15.08,15.08,0,0,1,276.47,49c-.83,0-2-.64-3.44-1.92a5.56,5.56,0,0,1-2.16-4.16v-21q0-.28,4.56-2a31.14,31.14,0,0,1,5.28-1.72c.16,0,.35.39.56,1.16s.45,1.71.72,2.8a11.57,11.57,0,0,0,.88,2.44,1.91,1.91,0,0,0,1.76.76v.8q-.88.4-3,1.44a18,18,0,0,1-2.24,1c-.4,0-.91-1.08-1.52-3.24S276.76,22.08,276.39,22.08Z" fill="#c99d2b"/>
      <rect x="228" y="225" width="102" height="20" fill-opacity="0.75"/>
      <path d="M236.81,233a2.24,2.24,0,0,1-.71,1.74,3,3,0,0,1-2.12.66h-1.69V239h-.84v-8.39H234a3,3,0,0,1,2.11.66A2.27,2.27,0,0,1,236.81,233ZM234,234.7c1.31,0,2-.56,2-1.68a1.65,1.65,0,0,0-.47-1.27,2.15,2.15,0,0,0-1.5-.43h-1.69v3.38Zm4.54-1.09a2.16,2.16,0,0,1,.84-1,2.76,2.76,0,0,1,1.4-.33v.87h-.22a1.85,1.85,0,0,0-2,2.14V239h-.84v-6.55h.84Zm3.39-2.4a.58.58,0,0,1-.43-.18.6.6,0,0,1-.18-.44.55.55,0,0,1,.18-.43.6.6,0,0,1,.86,0,.55.55,0,0,1,.18.43.6.6,0,0,1-.18.44A.58.58,0,0,1,241.91,231.21Zm.42,1.24V239h-.84v-6.55ZM246,239.1a3.14,3.14,0,0,1-1.85-.52,1.91,1.91,0,0,1-.79-1.43h.86a1.24,1.24,0,0,0,.52.9,2,2,0,0,0,1.24.34,1.57,1.57,0,0,0,1.07-.33,1,1,0,0,0,.4-.8.72.72,0,0,0-.22-.55,1.39,1.39,0,0,0-.55-.34,6.12,6.12,0,0,0-.89-.27,9.79,9.79,0,0,1-1.19-.39,2.16,2.16,0,0,1-.78-.56,1.63,1.63,0,0,1-.31-1,1.53,1.53,0,0,1,.29-.89,1.93,1.93,0,0,1,.82-.65,2.86,2.86,0,0,1,1.2-.24,2.57,2.57,0,0,1,1.7.54,2,2,0,0,1,.7,1.47h-.84a1.27,1.27,0,0,0-.46-.93,1.65,1.65,0,0,0-1.13-.36,1.68,1.68,0,0,0-1,.3,1,1,0,0,0-.17,1.38,1.9,1.9,0,0,0,.59.39l.94.3a8.33,8.33,0,0,1,1.13.37,1.84,1.84,0,0,1,.71.53,1.37,1.37,0,0,1,.32.92,1.66,1.66,0,0,1-.29,1,2,2,0,0,1-.81.65A2.73,2.73,0,0,1,246,239.1Zm9.25-3.71a5.39,5.39,0,0,1,0,.66h-5.43a2.56,2.56,0,0,0,.36,1.27,2.11,2.11,0,0,0,.85.8,2.47,2.47,0,0,0,1.15.27,2.27,2.27,0,0,0,1.37-.4,1.86,1.86,0,0,0,.74-1.07h.89a2.8,2.8,0,0,1-1,1.58,3.14,3.14,0,0,1-2,.6,3.38,3.38,0,0,1-1.66-.41,3,3,0,0,1-1.15-1.18,3.78,3.78,0,0,1-.41-1.79,3.74,3.74,0,0,1,.41-1.78,2.77,2.77,0,0,1,1.14-1.18,3.41,3.41,0,0,1,1.67-.41,3.18,3.18,0,0,1,1.63.41,2.78,2.78,0,0,1,1.08,1.1A3.06,3.06,0,0,1,255.2,235.39Zm-.86,0a2.24,2.24,0,0,0-.3-1.24,1.87,1.87,0,0,0-.82-.78,2.54,2.54,0,0,0-1.16-.27,2.28,2.28,0,0,0-1.59.6,2.37,2.37,0,0,0-.73,1.69Zm2.69-1.75a2.16,2.16,0,0,1,.84-1,2.83,2.83,0,0,1,1.41-.33v.87h-.23a1.85,1.85,0,0,0-2,2.14V239h-.84v-6.55H257Zm8.3-.45h-1.52V239H263v-5.84h-.91v-.71H263V232a2.06,2.06,0,0,1,.54-1.57,2.58,2.58,0,0,1,1.78-.5v.72a1.7,1.7,0,0,0-1.16.31,1.42,1.42,0,0,0-.32,1v.46h1.52Zm1.63.45a2,2,0,0,1,.84-1,2.76,2.76,0,0,1,1.4-.33v.87H269a2.1,2.1,0,0,0-1.46.5,2.08,2.08,0,0,0-.55,1.64V239h-.84v-6.55H267Zm2.58,2.1a3.66,3.66,0,0,1,.4-1.76,2.88,2.88,0,0,1,1.11-1.18,3.16,3.16,0,0,1,1.62-.42,3,3,0,0,1,1.61.43,2.48,2.48,0,0,1,1,1.11v-1.44h.84V239h-.84v-1.45a2.57,2.57,0,0,1-1,1.11,2.92,2.92,0,0,1-1.61.44,3.14,3.14,0,0,1-1.61-.42,3,3,0,0,1-1.11-1.19A3.77,3.77,0,0,1,269.54,235.71Zm5.72,0a2.85,2.85,0,0,0-.32-1.39,2.26,2.26,0,0,0-.89-.92,2.33,2.33,0,0,0-1.22-.33,2.47,2.47,0,0,0-1.25.32,2.21,2.21,0,0,0-.88.91,3,3,0,0,0-.31,1.4,3.19,3.19,0,0,0,.31,1.42,2.3,2.3,0,0,0,.88.92,2.47,2.47,0,0,0,1.25.31,2.36,2.36,0,0,0,2.11-1.24A2.87,2.87,0,0,0,275.26,235.72Zm8.51,3.28-2.7-2.94V239h-.84v-8.88h.84v5.26l2.64-2.93h1.18l-3.11,3.26,3.13,3.29Zm2.53-5.39a2,2,0,0,1,.84-1,2.76,2.76,0,0,1,1.4-.33v.87h-.22a2.13,2.13,0,0,0-1.47.5,2.08,2.08,0,0,0-.55,1.64V239h-.84v-6.55h.84Zm3.11,5.45a.6.6,0,0,1-.44-.18.64.64,0,0,1-.17-.44A.62.62,0,0,1,289,238a.6.6,0,0,1,.44-.18.54.54,0,0,1,.42.18.59.59,0,0,1,.18.44.6.6,0,0,1-.18.44A.54.54,0,0,1,289.41,239.06Zm4-6.47a2.35,2.35,0,0,1,.84-1.71,3,3,0,0,1,2-.64,3.06,3.06,0,0,1,1.38.29,1.92,1.92,0,0,1,.87.79,2.11,2.11,0,0,1,.3,1.12,2,2,0,0,1-.45,1.3,1.92,1.92,0,0,1-1.26.69v.06a2.36,2.36,0,0,1,1.36.74,2.13,2.13,0,0,1,.5,1.49,2.23,2.23,0,0,1-.69,1.69,2.8,2.8,0,0,1-2,.65,3.19,3.19,0,0,1-2.06-.65,2.65,2.65,0,0,1-.92-1.86h.82a2,2,0,0,0,.67,1.31,2.16,2.16,0,0,0,1.49.49,1.89,1.89,0,0,0,1.39-.48,1.63,1.63,0,0,0,.49-1.22c0-1.22-.88-1.83-2.63-1.83h-.26v-.7h.27c1.64,0,2.45-.54,2.45-1.6a1.47,1.47,0,0,0-.45-1.12,1.87,1.87,0,0,0-1.3-.43,2.17,2.17,0,0,0-1.36.43,1.72,1.72,0,0,0-.62,1.19Zm11.94-1.47H301v3.07a2.16,2.16,0,0,1,.88-.69,2.89,2.89,0,0,1,1.25-.27,2.8,2.8,0,0,1,1.6.41,2.21,2.21,0,0,1,.9,1,3.29,3.29,0,0,1,.28,1.37,3.56,3.56,0,0,1-.32,1.52,2.41,2.41,0,0,1-1,1.07,3.46,3.46,0,0,1-3.62-.24,2.77,2.77,0,0,1-.94-1.74h.83a2,2,0,0,0,.72,1.22,2.22,2.22,0,0,0,1.39.44,2,2,0,0,0,1.58-.62,2.4,2.4,0,0,0,.54-1.64,2.13,2.13,0,0,0-.54-1.55A2.07,2.07,0,0,0,303,234a2.37,2.37,0,0,0-1.23.32,2,2,0,0,0-.78.88h-.79v-4.77h5.17Zm1.45,3.5a6.67,6.67,0,0,1,.63-3.2,2.85,2.85,0,0,1,4.56,0,6.54,6.54,0,0,1,.64,3.2,6.73,6.73,0,0,1-.64,3.25,2.85,2.85,0,0,1-4.57,0A6.88,6.88,0,0,1,306.83,234.62Zm5,0a9.15,9.15,0,0,0-.16-1.88,2.31,2.31,0,0,0-.61-1.24,1.76,1.76,0,0,0-1.32-.47,1.79,1.79,0,0,0-1.32.47,2.38,2.38,0,0,0-.61,1.24,9.91,9.91,0,0,0-.16,1.88,10.32,10.32,0,0,0,.16,1.93,2.42,2.42,0,0,0,.61,1.24,1.79,1.79,0,0,0,1.32.47,1.76,1.76,0,0,0,1.32-.47,2.35,2.35,0,0,0,.61-1.24A9.54,9.54,0,0,0,311.83,234.62Zm1.85,0a6.54,6.54,0,0,1,.64-3.2,2.85,2.85,0,0,1,4.56,0,6.67,6.67,0,0,1,.63,3.2,6.86,6.86,0,0,1-.63,3.25,2.86,2.86,0,0,1-4.58,0A7,7,0,0,1,313.68,234.62Zm5,0a10,10,0,0,0-.15-1.88,2.46,2.46,0,0,0-.61-1.24,1.79,1.79,0,0,0-1.32-.47,1.76,1.76,0,0,0-1.32.47,2.31,2.31,0,0,0-.61,1.24,9.15,9.15,0,0,0-.16,1.88,9.54,9.54,0,0,0,.16,1.93,2.35,2.35,0,0,0,.61,1.24,1.76,1.76,0,0,0,1.32.47,1.79,1.79,0,0,0,1.32-.47,2.5,2.5,0,0,0,.61-1.24A10.42,10.42,0,0,0,318.68,234.62Zm2.8,3-1.25,3.14h-.57l.89-3.14Zm4.84-3.41v.71h-4.67v-.71Z" fill="#fff"/>
      <path d="M0,250H335V642a5,5,0,0,1-5,5H5a5,5,0,0,1-5-5Z" fill="#fafafa"/>
      <circle cx="82.48" cy="91.11" r="2.55" fill-opacity="0.5" fill="url(#radial-gradient)"/>
      <path d="M81.2,80.48a2.55,2.55,0,1,1-2.55-2.55A2.55,2.55,0,0,1,81.2,80.48Z" fill="url(#radial-gradient-2)"/>
      <circle cx="297.59" cy="103.86" r="2.55" fill="url(#radial-gradient-3)"/>
      <circle cx="128.39" cy="78.35" r="1.7" fill="url(#radial-gradient-4)"/>
      <circle cx="92.68" cy="90.26" r="1.7" fill="url(#radial-gradient-5)"/>
      <circle cx="51.87" cy="73.25" r="1.7" fill-opacity="0.6" fill="url(#radial-gradient-6)"/>
      <circle cx="17.01" cy="94.51" r="1.7" fill-opacity="0.6" fill="url(#radial-gradient-7)"/>
      <circle cx="2.55" cy="75.8" r="1.7" fill-opacity="0.6" fill="url(#radial-gradient-8)"/>
      <circle cx="188.76" cy="92.81" r="1.7" fill="url(#radial-gradient-9)"/>
      <circle cx="205.76" cy="74.95" r="1.7" fill="url(#radial-gradient-10)"/>
      <circle cx="218.51" cy="91.11" r="1.7" fill="url(#radial-gradient-11)"/>
      <circle cx="243.17" cy="107.26" r="1.7" fill="url(#radial-gradient-12)"/>
      <circle cx="249.13" cy="88.56" r="1.7" fill="url(#radial-gradient-13)"/>
      <circle cx="279.73" cy="106.41" r="1.7" fill-opacity="0.6" fill="url(#radial-gradient-14)"/>
      <circle cx="279.73" cy="116.61" r="1.7" opacity="0.4" fill="url(#radial-gradient-15)" style="isolation: isolate"/>
      <circle cx="282.28" cy="83.45" r="1.7" fill="url(#radial-gradient-16)"/>
      <circle cx="322.25" cy="80.05" r="1.7" fill="url(#radial-gradient-17)"/>
      <circle cx="161.55" cy="80.9" r="1.7" fill="url(#radial-gradient-18)"/>
      <circle cx="128.39" cy="107.26" r="1.7" fill="url(#radial-gradient-19)"/>
      <circle cx="100.33" cy="84.3" r="1.7" fill="url(#radial-gradient-20)"/>
      <circle cx="64.62" cy="96.21" r="1.7" fill="url(#radial-gradient-21)"/>
      <circle cx="23.81" cy="79.2" r="1.7" fill="url(#radial-gradient-22)"/>
      <circle cx="156.02" cy="92.38" r="1.28" fill="url(#radial-gradient-23)"/>
      <circle cx="188.33" cy="83.88" r="1.28" fill="url(#radial-gradient-24)"/>
      <circle cx="208.74" cy="104.29" r="1.28" fill="url(#radial-gradient-25)"/>
      <circle cx="218.09" cy="82.18" r="1.28" fill-opacity="0.6" fill="url(#radial-gradient-26)"/>
      <circle cx="242.75" cy="98.33" r="1.28" fill="url(#radial-gradient-27)"/>
      <circle cx="248.7" cy="79.63" r="1.28" fill-opacity="0.6" fill="url(#radial-gradient-28)"/>
      <circle cx="234.24" cy="72.83" r="1.28" fill="url(#radial-gradient-29)"/>
      <circle cx="279.31" cy="97.48" r="1.28" fill="url(#radial-gradient-30)"/>
      <circle cx="281.86" cy="74.53" r="1.28" fill="url(#radial-gradient-31)"/>
      <circle cx="321.82" cy="71.13" r="1.28" fill="url(#radial-gradient-32)"/>
      <circle cx="307.37" cy="94.08" r="1.28" fill="url(#radial-gradient-33)"/>
      <circle cx="161.12" cy="71.98" r="1.28" fill="url(#radial-gradient-34)"/>
      <circle cx="127.96" cy="98.33" r="1.28" fill="url(#radial-gradient-35)"/>
      <circle cx="99.91" cy="75.38" r="1.28" fill-opacity="0.6" fill="url(#radial-gradient-36)"/>
      <circle cx="64.19" cy="87.28" r="1.28" fill="url(#radial-gradient-37)"/>
      <circle cx="23.38" cy="70.28" r="1.28" fill="url(#radial-gradient-38)"/>
      <circle cx="173.03" cy="106.84" r="1.28" fill="url(#radial-gradient-39)"/>
      <circle cx="139.02" cy="86.43" r="1.28" fill-opacity="0.6" fill="url(#radial-gradient-40)"/>
      <circle cx="103.31" cy="98.33" r="1.28" fill="url(#radial-gradient-41)"/>
      <circle cx="62.49" cy="81.33" r="1.28" fill="url(#radial-gradient-42)"/>
      <circle cx="27.63" cy="102.58" r="1.28" fill="url(#radial-gradient-43)"/>
      <circle cx="56.54" cy="120.44" r="1.28" opacity="0.4" fill="url(#radial-gradient-44)" style="isolation: isolate"/>
      <circle cx="199.38" cy="100.88" r="1.28" fill="url(#radial-gradient-45)"/>
      <circle cx="201.93" cy="122.14" r="1.28" opacity="0.4" fill="url(#radial-gradient-46)" style="isolation: isolate"/>
      <circle cx="81.2" cy="112.79" r="1.28" opacity="0.4" fill="url(#radial-gradient-47)" style="isolation: isolate"/>
      <circle cx="78.65" cy="120.44" r="1.28" opacity="0.4" fill="url(#radial-gradient-48)" style="isolation: isolate"/>
      <circle cx="42.94" cy="122.99" r="1.28" opacity="0.4" fill="url(#radial-gradient-49)" style="isolation: isolate"/>
      <circle cx="25.93" cy="117.04" r="1.28" opacity="0.4" fill="url(#radial-gradient-50)" style="isolation: isolate"/>
      <circle cx="9.78" cy="123.84" r="1.28" opacity="0.4" fill="url(#radial-gradient-51)" style="isolation: isolate"/>
      <circle cx="5.53" cy="113.64" r="1.28" opacity="0.4" fill="url(#radial-gradient-52)" style="isolation: isolate"/>
      <circle cx="14.88" cy="110.24" r="1.28" opacity="0.4" fill="url(#radial-gradient-53)" style="isolation: isolate"/>
      <circle cx="11.48" cy="104.29" r="1.28" opacity="0.4" fill="url(#radial-gradient-54)" style="isolation: isolate"/>
      <circle cx="229.14" cy="99.18" r="1.28" fill-opacity="0.6" fill="url(#radial-gradient-55)"/>
      <circle cx="253.8" cy="115.34" r="1.28" fill-opacity="0.6" fill="url(#radial-gradient-56)"/>
      <circle cx="270.81" cy="120.44" r="1.28" fill-opacity="0.6" fill="url(#radial-gradient-57)"/>
      <circle cx="303.97" cy="118.74" r="1.28" fill-opacity="0.6" fill="url(#radial-gradient-58)"/>
      <circle cx="333.72" cy="117.89" r="1.28" fill-opacity="0.6" fill="url(#radial-gradient-59)"/>
      <circle cx="321.82" cy="98.33" r="1.28" fill-opacity="0.6" fill="url(#radial-gradient-60)"/>
      <circle cx="297.17" cy="77.93" r="1.28" fill-opacity="0.6" fill="url(#radial-gradient-61)"/>
      <circle cx="264" cy="83.03" r="1.28" fill-opacity="0.6" fill="url(#radial-gradient-62)"/>
      <circle cx="256.35" cy="71.13" r="1.28" fill-opacity="0.6" fill="url(#radial-gradient-63)"/>
      <circle cx="259.75" cy="96.63" r="1.28" fill="url(#radial-gradient-64)"/>
      <circle cx="290.36" cy="114.49" r="1.28" fill="url(#radial-gradient-65)"/>
      <circle cx="235.1" cy="122.14" r="1.28" opacity="0.4" fill="url(#radial-gradient-66)" style="isolation: isolate"/>
      <circle cx="292.91" cy="91.53" r="1.28" fill-opacity="0.6" fill="url(#radial-gradient-67)"/>
      <circle cx="332.88" cy="88.13" r="1.28" fill="url(#radial-gradient-68)"/>
      <circle cx="333.72" cy="101.74" r="1.28" fill="url(#radial-gradient-69)"/>
      <circle cx="318.42" cy="111.09" r="1.28" opacity="0.4" fill="url(#radial-gradient-70)" style="isolation: isolate"/>
      <circle cx="172.18" cy="88.98" r="1.28" fill-opacity="0.6" fill="url(#radial-gradient-71)"/>
      <circle cx="110.96" cy="92.38" r="1.28" fill="url(#radial-gradient-72)"/>
      <circle cx="75.25" cy="104.29" r="1.28" fill="url(#radial-gradient-73)"/>
      <circle cx="37.84" cy="105.99" r="1.28" opacity="0.4" fill="url(#radial-gradient-74)" style="isolation: isolate"/>
      <circle cx="34.43" cy="87.28" r="1.28" fill-opacity="0.6" fill="url(#radial-gradient-75)"/>
      <circle cx="63.34" cy="105.14" r="1.28" fill-opacity="0.6" fill="url(#radial-gradient-76)"/>
      <circle cx="1.28" cy="102.58" r="1.28" fill="url(#radial-gradient-77)"/>
      <circle cx="297.8" cy="95" r="13.6" fill="url(#radial-gradient-78)"/>
      <ellipse cx="297" cy="95.4" rx="20" ry="20.4" fill="url(#radial-gradient-79)"/>
      <ellipse cx="297.4" cy="95" rx="18" ry="18.4" fill="url(#radial-gradient-80)"/>
      <circle cx="297.8" cy="95" r="18.4" fill="url(#radial-gradient-81)"/>
      <path d="M40.66,429H38.42l-5.08-7.66V429H31.1V417.82h2.24l5.08,7.68v-7.68h2.24Zm9.67-7.5a4.11,4.11,0,0,1,.78,1.37,4.93,4.93,0,0,1,.29,1.7,4.55,4.55,0,0,1-.63,2.4,4.21,4.21,0,0,1-1.66,1.61,4.76,4.76,0,0,1-2.34.56,4.63,4.63,0,0,1-2.7-.81l-.61.67H42.1l1.23-1.34a4.36,4.36,0,0,1-.78-1.4,5.12,5.12,0,0,1-.27-1.69,4.69,4.69,0,0,1,.59-2.4,4.16,4.16,0,0,1,1.65-1.6,5,5,0,0,1,5.07.25l.62-.68h1.36Zm-5.78,3.07a3.46,3.46,0,0,0,.29,1.44l3.33-3.63a2.26,2.26,0,0,0-1.36-.44,2.15,2.15,0,0,0-1.62.69A2.7,2.7,0,0,0,44.55,424.57Zm4.54,0a3.38,3.38,0,0,0-.28-1.41l-3.32,3.63a2.1,2.1,0,0,0,1.28.4,2.25,2.25,0,0,0,1.14-.29,2.17,2.17,0,0,0,.86-.89A3,3,0,0,0,49.09,424.57ZM56.48,420a3.67,3.67,0,0,1,1.75.4,3.16,3.16,0,0,1,1.18,1v-1.26h2.26v8.92a4.72,4.72,0,0,1-.5,2.2,3.6,3.6,0,0,1-1.49,1.53,4.64,4.64,0,0,1-2.4.58,5.12,5.12,0,0,1-3.1-.88,3.26,3.26,0,0,1-1.36-2.4H55a1.69,1.69,0,0,0,.75,1,2.71,2.71,0,0,0,1.43.37,2.14,2.14,0,0,0,1.58-.6,2.29,2.29,0,0,0,.61-1.76v-1.37a3.53,3.53,0,0,1-2.93,1.45,3.86,3.86,0,0,1-2-.57A4.2,4.2,0,0,1,53,427a5.34,5.34,0,0,1-.53-2.41,5.25,5.25,0,0,1,.53-2.39,4,4,0,0,1,1.46-1.6A3.93,3.93,0,0,1,56.48,420Zm2.93,4.58a2.83,2.83,0,0,0-.32-1.39,2.14,2.14,0,0,0-.86-.9,2.34,2.34,0,0,0-1.17-.32,2.27,2.27,0,0,0-1.15.3,2.43,2.43,0,0,0-.87.9,2.82,2.82,0,0,0-.32,1.38,3,3,0,0,0,.32,1.4,2.49,2.49,0,0,0,.87.92,2.24,2.24,0,0,0,1.15.32,2.33,2.33,0,0,0,1.17-.31,2.3,2.3,0,0,0,.86-.89A3,3,0,0,0,59.41,424.57Zm6.68-7.41V429H63.85V417.16Zm10.46,7.22a4.54,4.54,0,0,1-.07.86H70a2.2,2.2,0,0,0,.68,1.5,2,2,0,0,0,1.45.55,1.84,1.84,0,0,0,1.78-1.07h2.41a4,4,0,0,1-1.47,2.11,4.32,4.32,0,0,1-2.67.81,4.64,4.64,0,0,1-2.3-.56A4.1,4.1,0,0,1,68.29,427a5,5,0,0,1-.56-2.4,5.08,5.08,0,0,1,.56-2.42,3.9,3.9,0,0,1,1.57-1.6,4.71,4.71,0,0,1,2.32-.56,4.58,4.58,0,0,1,2.26.55A3.79,3.79,0,0,1,76,422.09,4.6,4.6,0,0,1,76.55,424.38Zm-2.32-.64a1.74,1.74,0,0,0-.63-1.38,2.18,2.18,0,0,0-1.48-.53,2,2,0,0,0-1.41.51,2.16,2.16,0,0,0-.69,1.4Zm7.89,5.4a4.67,4.67,0,0,1-2.31-.56A4.15,4.15,0,0,1,78.2,427a5.22,5.22,0,0,1,0-4.8,4.23,4.23,0,0,1,1.65-1.6,4.67,4.67,0,0,1,2.32-.58,4.62,4.62,0,0,1,2.32.58,4,4,0,0,1,1.63,1.6,5,5,0,0,1,0,4.8,4.24,4.24,0,0,1-1.67,1.61A4.75,4.75,0,0,1,82.12,429.14Zm0-1.95a2.24,2.24,0,0,0,1.13-.29,2.19,2.19,0,0,0,.87-.89,3.06,3.06,0,0,0,.32-1.44,2.67,2.67,0,0,0-.67-1.94,2.25,2.25,0,0,0-3.24,0,2.75,2.75,0,0,0-.64,1.94,2.79,2.79,0,0,0,.63,1.95A2.1,2.1,0,0,0,82.12,427.19Zm8.51-5.68a3,3,0,0,1,1.12-1.1,3.12,3.12,0,0,1,1.6-.4v2.35h-.6a1.86,1.86,0,0,0-2.12,2.22V429H88.39v-8.86h2.24Zm3.65,3a5.13,5.13,0,0,1,.53-2.39A3.88,3.88,0,0,1,98.34,420a3.64,3.64,0,0,1,1.65.39,3.17,3.17,0,0,1,1.25,1v-4.21h2.27V429h-2.27v-1.31a3.06,3.06,0,0,1-1.17,1.05,3.6,3.6,0,0,1-1.74.4,3.84,3.84,0,0,1-2-.57A4.12,4.12,0,0,1,94.81,427,5.21,5.21,0,0,1,94.28,424.54Zm7,0a2.72,2.72,0,0,0-.32-1.39,2.14,2.14,0,0,0-.86-.9,2.33,2.33,0,0,0-2.32,0,2.41,2.41,0,0,0-.86.9,2.71,2.71,0,0,0-.32,1.38,2.87,2.87,0,0,0,.32,1.4,2.47,2.47,0,0,0,.86.92,2.29,2.29,0,0,0,2.32,0,2.3,2.3,0,0,0,.86-.89A2.88,2.88,0,0,0,101.25,424.57Z"/>
      <path d="M42,459.62a2,2,0,1,1,1.41-3.34,2,2,0,0,1,0,2.78A1.91,1.91,0,0,1,42,459.62Zm21.25-1.34a6.78,6.78,0,0,1,0,.88h-7A2.73,2.73,0,0,0,59,461.91a2.67,2.67,0,0,0,1.57-.43,2.34,2.34,0,0,0,.9-1.18h1.57a3.85,3.85,0,0,1-1.41,2.06,4.32,4.32,0,0,1-2.63.78,4.44,4.44,0,0,1-2.24-.56A4,4,0,0,1,55.25,461a4.89,4.89,0,0,1-.56-2.4,5,5,0,0,1,.54-2.38,3.72,3.72,0,0,1,1.52-1.57,4.47,4.47,0,0,1,2.27-.56,4.41,4.41,0,0,1,2.21.54,3.69,3.69,0,0,1,1.47,1.51A4.22,4.22,0,0,1,63.23,458.28Zm-1.5-.3a2.63,2.63,0,0,0-.37-1.43,2.34,2.34,0,0,0-1-.91,3,3,0,0,0-1.39-.32,2.71,2.71,0,0,0-1.89.7,2.92,2.92,0,0,0-.88,2Zm6.85,3.68,2.72-7.43h1.55L69.41,463h-1.7l-3.44-8.77h1.57Zm13.86-3.38a6.78,6.78,0,0,1,0,.88h-7a2.73,2.73,0,0,0,2.84,2.75,2.67,2.67,0,0,0,1.57-.43,2.34,2.34,0,0,0,.9-1.18h1.57a3.85,3.85,0,0,1-1.41,2.06,4.32,4.32,0,0,1-2.63.78,4.44,4.44,0,0,1-2.24-.56A4,4,0,0,1,74.46,461a5.47,5.47,0,0,1,0-4.78A3.78,3.78,0,0,1,76,454.65a4.47,4.47,0,0,1,2.27-.56,4.41,4.41,0,0,1,2.21.54,3.69,3.69,0,0,1,1.47,1.51A4.22,4.22,0,0,1,82.44,458.28Zm-1.5-.3a2.63,2.63,0,0,0-.37-1.43,2.29,2.29,0,0,0-1-.91,3,3,0,0,0-1.39-.32,2.73,2.73,0,0,0-1.89.7,2.92,2.92,0,0,0-.88,2Zm7.86-3.91a3.55,3.55,0,0,1,2.59,1,3.7,3.7,0,0,1,1,2.78V463H90.94v-5a2.79,2.79,0,0,0-.66-2,2.31,2.31,0,0,0-1.79-.7,2.43,2.43,0,0,0-1.84.72,2.93,2.93,0,0,0-.67,2.09V463H84.52v-8.77H86v1.25a2.87,2.87,0,0,1,1.17-1A3.77,3.77,0,0,1,88.8,454.07Zm7.89,1.36v5.17a1.25,1.25,0,0,0,.28.91,1.35,1.35,0,0,0,.94.26H99V463H97.67a2.61,2.61,0,0,1-1.82-.56,2.39,2.39,0,0,1-.61-1.84v-5.17H94.1v-1.2h1.14V452h1.45v2.21H99v1.2Zm11.77-1.2-5.28,12.9h-1.5l1.72-4.23-3.53-8.67h1.61l2.76,7.11,2.72-7.11Zm3.08,1.43a2.74,2.74,0,0,1,1.09-1.17,3.4,3.4,0,0,1,1.74-.42v1.51H114c-1.63,0-2.45.88-2.45,2.65V463h-1.46v-8.77h1.46ZM42,489.62a2,2,0,1,1,1.41-3.34,2,2,0,0,1,0,2.78A1.91,1.91,0,0,1,42,489.62Zm14.71-3.77A3.42,3.42,0,0,1,58,484.6a3.84,3.84,0,0,1,2-.51,4,4,0,0,1,2.11.56,3.88,3.88,0,0,1,1.5,1.58,4.8,4.8,0,0,1,.55,2.35,4.93,4.93,0,0,1-.55,2.37,4,4,0,0,1-1.5,1.62,4,4,0,0,1-2.11.57,3.94,3.94,0,0,1-2-.49,3.65,3.65,0,0,1-1.29-1.27v5.78H55.23V484.23h1.46Zm6,2.73a3.5,3.5,0,0,0-.4-1.72,2.68,2.68,0,0,0-1.09-1.12,2.91,2.91,0,0,0-1.49-.39,2.84,2.84,0,0,0-1.48.4,2.92,2.92,0,0,0-1.09,1.14,3.48,3.48,0,0,0-.4,1.71,3.6,3.6,0,0,0,.4,1.74,3.07,3.07,0,0,0,1.09,1.14,2.92,2.92,0,0,0,4.06-1.14A3.63,3.63,0,0,0,62.64,488.58ZM67,482.81a1,1,0,1,1,0-2,.9.9,0,0,1,.67.29,1,1,0,0,1,0,1.41A.9.9,0,0,1,67,482.81Zm.7,1.42V493H66.2v-8.77Zm4.1,1.43a2.74,2.74,0,0,1,1.09-1.17,3.4,3.4,0,0,1,1.74-.42v1.51h-.38c-1.64,0-2.45.88-2.45,2.65V493H70.3v-8.77h1.46Zm4.13,2.92a4.91,4.91,0,0,1,.54-2.35,3.92,3.92,0,0,1,1.49-1.58,4.09,4.09,0,0,1,2.13-.56,3.93,3.93,0,0,1,2,.49,3.43,3.43,0,0,1,1.26,1.25v-1.6h1.47V493H83.31v-1.63a3.47,3.47,0,0,1-1.3,1.28,3.83,3.83,0,0,1-2,.49,4,4,0,0,1-2.11-.57A4.09,4.09,0,0,1,76.43,491,5,5,0,0,1,75.89,488.58Zm7.42,0a3.54,3.54,0,0,0-.4-1.73,2.93,2.93,0,0,0-2.58-1.52,2.87,2.87,0,0,0-1.48.39,2.72,2.72,0,0,0-1.08,1.12,3.61,3.61,0,0,0-.4,1.72,3.75,3.75,0,0,0,.4,1.76,3,3,0,0,0,1.08,1.14,2.86,2.86,0,0,0,1.48.38,2.83,2.83,0,0,0,2.58-1.52A3.6,3.6,0,0,0,83.31,488.6Zm5.87-3.17v5.17a1.25,1.25,0,0,0,.27.91,1.38,1.38,0,0,0,1,.26h1.07V493H90.16a2.64,2.64,0,0,1-1.83-.56,2.42,2.42,0,0,1-.61-1.84v-5.17H86.59v-1.2h1.13V482h1.46v2.21h2.29v1.2ZM42,519.62a2,2,0,1,1,1.41-3.34,2,2,0,0,1,0,2.78A1.91,1.91,0,0,1,42,519.62Zm16.36,3.52a4.67,4.67,0,0,1-1.81-.33,3.22,3.22,0,0,1-1.27-1,2.58,2.58,0,0,1-.51-1.43h1.51a1.49,1.49,0,0,0,.6,1.08,2.45,2.45,0,0,0,1.46.41,2.08,2.08,0,0,0,1.31-.37,1.11,1.11,0,0,0,.48-.92.89.89,0,0,0-.51-.85,6.9,6.9,0,0,0-1.58-.56,12.78,12.78,0,0,1-1.6-.51,3,3,0,0,1-1.06-.79,2.26,2.26,0,0,1,0-2.61,2.68,2.68,0,0,1,1.13-.88,4.06,4.06,0,0,1,1.68-.33,3.62,3.62,0,0,1,2.36.73,2.73,2.73,0,0,1,1,2H60a1.47,1.47,0,0,0-.56-1.1,2,2,0,0,0-1.34-.42,2,2,0,0,0-1.25.34,1,1,0,0,0-.47.88,1,1,0,0,0,.28.72,2.14,2.14,0,0,0,.7.44c.29.11.68.23,1.18.37a11.51,11.51,0,0,1,1.54.51,2.62,2.62,0,0,1,1,.74,2,2,0,0,1,.45,1.3,2.24,2.24,0,0,1-.4,1.29,2.67,2.67,0,0,1-1.14.91A3.94,3.94,0,0,1,58.34,523.14ZM68.65,523l-3.44-3.87V523H63.75V511.16h1.46v7l3.37-3.89h2l-4.13,4.37,4.14,4.4Zm2.95-4.42a4.8,4.8,0,0,1,.55-2.35,3.9,3.9,0,0,1,1.48-1.58,4.18,4.18,0,0,1,2.13-.56,3.88,3.88,0,0,1,2,.49A3.32,3.32,0,0,1,79,515.83v-1.6H80.5V523H79v-1.63a3.47,3.47,0,0,1-1.3,1.28,3.88,3.88,0,0,1-2,.49,3.92,3.92,0,0,1-3.6-2.19A4.93,4.93,0,0,1,71.6,518.58Zm7.43,0a3.65,3.65,0,0,0-.4-1.73,2.8,2.8,0,0,0-1.09-1.12,2.85,2.85,0,0,0-1.49-.4,2.93,2.93,0,0,0-1.49.39,2.7,2.7,0,0,0-1.07,1.12,3.5,3.5,0,0,0-.4,1.72,3.63,3.63,0,0,0,.4,1.76,2.88,2.88,0,0,0,1.07,1.14,3.11,3.11,0,0,0,3,0,2.85,2.85,0,0,0,1.09-1.14A3.72,3.72,0,0,0,79,518.6Zm5.86-3.17v5.17a1.21,1.21,0,0,0,.28.91,1.35,1.35,0,0,0,.94.26h1.07V523H85.87a2.61,2.61,0,0,1-1.82-.56,2.39,2.39,0,0,1-.61-1.84v-5.17H82.3v-1.2h1.14V512h1.45v2.21h2.29v1.2Zm6,0v5.17a1.25,1.25,0,0,0,.27.91,1.4,1.4,0,0,0,.95.26h1.07V523H91.86a2.65,2.65,0,0,1-1.83-.56,2.42,2.42,0,0,1-.6-1.84v-5.17H88.29v-1.2h1.14V512h1.45v2.21h2.29v1.2Zm12.21,2.85c0,.28,0,.57,0,.88H96a2.73,2.73,0,0,0,2.85,2.75,2.64,2.64,0,0,0,1.56-.43,2.34,2.34,0,0,0,.9-1.18h1.57a3.85,3.85,0,0,1-1.41,2.06,4.29,4.29,0,0,1-2.62.78,4.38,4.38,0,0,1-2.24-.56A4,4,0,0,1,95.11,521a5.47,5.47,0,0,1,0-4.78,3.78,3.78,0,0,1,1.52-1.57,4.61,4.61,0,0,1,2.28-.56,4.4,4.4,0,0,1,2.2.54,3.77,3.77,0,0,1,1.48,1.51A4.32,4.32,0,0,1,103.09,518.28Zm-1.5-.3a2.63,2.63,0,0,0-.37-1.43,2.29,2.29,0,0,0-1-.91,3,3,0,0,0-1.39-.32,2.75,2.75,0,0,0-1.89.7,2.92,2.92,0,0,0-.88,2Zm4.37-5.17a1,1,0,0,1-1-1,1,1,0,0,1,.28-.71,1,1,0,0,1,.7-.29.91.91,0,0,1,.69.29,1,1,0,0,1,0,1.41A.91.91,0,0,1,106,512.81Zm.72,12.09a2.27,2.27,0,0,1-.59,1.72,2.49,2.49,0,0,1-1.73.54h-.85v-1.23h.61a1.18,1.18,0,0,0,.85-.24,1.09,1.09,0,0,0,.25-.82V514.23h1.46Zm2.08-6.32a4.8,4.8,0,0,1,.55-2.35,3.9,3.9,0,0,1,1.48-1.58,4.18,4.18,0,0,1,2.13-.56,3.88,3.88,0,0,1,2,.49,3.22,3.22,0,0,1,1.26,1.25v-1.6h1.48V523h-1.48v-1.63a3.44,3.44,0,0,1-1.29,1.28,3.89,3.89,0,0,1-2,.49,3.92,3.92,0,0,1-3.59-2.19A4.93,4.93,0,0,1,108.76,518.58Zm7.42,0a3.65,3.65,0,0,0-.39-1.73,2.8,2.8,0,0,0-1.09-1.12,2.85,2.85,0,0,0-1.49-.4,2.93,2.93,0,0,0-1.49.39,2.7,2.7,0,0,0-1.07,1.12,3.5,3.5,0,0,0-.4,1.72,3.63,3.63,0,0,0,.4,1.76,2.88,2.88,0,0,0,1.07,1.14,3.11,3.11,0,0,0,3,0,2.85,2.85,0,0,0,1.09-1.14A3.72,3.72,0,0,0,116.18,518.6Zm7.71-4.51a3.89,3.89,0,0,1,2,.49,3.35,3.35,0,0,1,1.28,1.25v-1.6h1.47v9a4.36,4.36,0,0,1-.51,2.13,3.59,3.59,0,0,1-1.47,1.47,4.49,4.49,0,0,1-2.21.53,4.83,4.83,0,0,1-2.88-.82,3.17,3.17,0,0,1-1.36-2.22h1.44a2.27,2.27,0,0,0,1,1.28,3.21,3.21,0,0,0,1.81.5,2.64,2.64,0,0,0,2-.76,2.82,2.82,0,0,0,.77-2.11v-1.84a3.57,3.57,0,0,1-1.28,1.28,3.8,3.8,0,0,1-2,.51,3.95,3.95,0,0,1-3.61-2.19,5.05,5.05,0,0,1-.55-2.37,4.91,4.91,0,0,1,.55-2.35,3.92,3.92,0,0,1,1.49-1.58A4.15,4.15,0,0,1,123.89,514.09Zm3.27,4.51a3.65,3.65,0,0,0-.4-1.73,2.93,2.93,0,0,0-2.58-1.52,2.93,2.93,0,0,0-1.49.39,2.76,2.76,0,0,0-1.07,1.12,3.61,3.61,0,0,0-.4,1.72,3.75,3.75,0,0,0,.4,1.76,2.77,2.77,0,0,0,2.56,1.52,2.9,2.9,0,0,0,1.49-.38,2.85,2.85,0,0,0,1.09-1.14A3.72,3.72,0,0,0,127.16,518.6Zm5.87-3.17v5.17a1.25,1.25,0,0,0,.27.91,1.35,1.35,0,0,0,.94.26h1.07V523H134a2.61,2.61,0,0,1-1.82-.56,2.39,2.39,0,0,1-.61-1.84v-5.17h-1.14v-1.2h1.14V512H133v2.21h2.28v1.2Z"/>
      <rect x="30" y="574.72" width="275" height="31.56" rx="5" fill="#c99d2b"/>
      <path d="M124.34,594.34h4v2.38h-7.11V584.09h3.07Zm17-7.82v2.59h4v2.34h-4v2.84h4.56v2.43H138.3V594.6h-4.15l-1.08,2.12h-3.33l6.46-12.63h9.74v2.43Zm-3.08,5.74v-5.89l-3,5.89Zm15.11,4.59a6.5,6.5,0,0,1-2.49-.45,4.15,4.15,0,0,1-1.76-1.33,3.68,3.68,0,0,1-.68-2.13h3.27a1.61,1.61,0,0,0,.49,1.08,1.57,1.57,0,0,0,1.08.36,1.77,1.77,0,0,0,1.08-.3,1.1,1.1,0,0,0,.39-.89,1,1,0,0,0-.32-.77,2.72,2.72,0,0,0-.77-.51,11.22,11.22,0,0,0-1.3-.44,15.56,15.56,0,0,1-2-.76,3.55,3.55,0,0,1-1.33-1.12,3.1,3.1,0,0,1-.56-1.92,3.3,3.3,0,0,1,1.28-2.76,5.22,5.22,0,0,1,3.33-1,5.32,5.32,0,0,1,3.37,1,3.56,3.56,0,0,1,1.36,2.77h-3.33a1.25,1.25,0,0,0-.45-.95,1.55,1.55,0,0,0-1.06-.36,1.28,1.28,0,0,0-.9.31,1,1,0,0,0-.34.84,1.06,1.06,0,0,0,.58,1,9.46,9.46,0,0,0,1.8.74,15.36,15.36,0,0,1,2,.79,3.69,3.69,0,0,1,1.34,1.09A3,3,0,0,1,158,593a3.6,3.6,0,0,1-.55,2,3.79,3.79,0,0,1-1.59,1.41A5.54,5.54,0,0,1,153.41,596.85Zm26.42-12.76v12.63h-3.07v-7.58l-2.83,7.58h-2.48l-2.85-7.6v7.6h-3.08V584.09h3.64l3.55,8.74,3.51-8.74Zm6.19,2.46v2.56h4.13v2.37H186v2.78h4.67v2.46H183V584.09h7.74v2.46Zm14,10.17L197.4,592h-.74v4.77h-3.07V584.09h5.16a5.61,5.61,0,0,1,2.54.52,3.48,3.48,0,0,1,1.58,1.44,3.92,3.92,0,0,1,.53,2,3.73,3.73,0,0,1-.72,2.25,3.84,3.84,0,0,1-2.09,1.41l2.91,5Zm-3.37-7h1.91a1.68,1.68,0,0,0,1.26-.41,1.55,1.55,0,0,0,.43-1.17,1.51,1.51,0,0,0-.43-1.14,1.72,1.72,0,0,0-1.26-.41h-1.91Zm12.65-3.22v2.56h4.12v2.37h-4.12v2.78H214v2.46h-7.74V584.09H214v2.46Z" fill="#fff"/>
      <path d="M38.1,300.85V302h-3v10H33.6V302H30.54v-1.18Zm1.24,6.73a4.91,4.91,0,0,1,.55-2.35,3.92,3.92,0,0,1,1.49-1.58,4.08,4.08,0,0,1,2.12-.56,3.88,3.88,0,0,1,2,.49,3.39,3.39,0,0,1,1.27,1.25v-1.6h1.47V312H46.77v-1.63a3.47,3.47,0,0,1-1.3,1.28,3.83,3.83,0,0,1-2,.49,4,4,0,0,1-2.11-.57A4.09,4.09,0,0,1,39.89,310,5.05,5.05,0,0,1,39.34,307.58Zm7.43,0a3.65,3.65,0,0,0-.4-1.73,2.93,2.93,0,0,0-2.58-1.52,2.93,2.93,0,0,0-1.49.39,2.76,2.76,0,0,0-1.07,1.12,3.61,3.61,0,0,0-.4,1.72,3.75,3.75,0,0,0,.4,1.76,3,3,0,0,0,1.07,1.14,2.92,2.92,0,0,0,4.07-1.14A3.72,3.72,0,0,0,46.77,307.6Zm7.55-4.51a3.85,3.85,0,0,1,2,.49,3.35,3.35,0,0,1,1.28,1.25v-1.6h1.47v9a4.36,4.36,0,0,1-.51,2.13,3.59,3.59,0,0,1-1.47,1.47,4.49,4.49,0,0,1-2.21.53A4.83,4.83,0,0,1,52,315.5a3.17,3.17,0,0,1-1.36-2.22h1.44a2.27,2.27,0,0,0,1,1.28,3.23,3.23,0,0,0,1.81.5,2.64,2.64,0,0,0,2-.76,2.82,2.82,0,0,0,.77-2.11v-1.84a3.49,3.49,0,0,1-1.28,1.28,3.77,3.77,0,0,1-2,.51A3.95,3.95,0,0,1,50.7,310a5,5,0,0,1-.54-2.37,4.91,4.91,0,0,1,.54-2.35,3.92,3.92,0,0,1,1.49-1.58A4.09,4.09,0,0,1,54.32,303.09Zm3.26,4.51a3.54,3.54,0,0,0-.4-1.73,2.93,2.93,0,0,0-2.58-1.52,2.87,2.87,0,0,0-1.48.39A2.72,2.72,0,0,0,52,305.86a3.61,3.61,0,0,0-.4,1.72,3.75,3.75,0,0,0,.4,1.76,3,3,0,0,0,1.08,1.14,2.86,2.86,0,0,0,1.48.38,2.83,2.83,0,0,0,2.58-1.52A3.6,3.6,0,0,0,57.58,307.6Zm9.65-2.75a3.49,3.49,0,0,1,1.28-1.25,3.89,3.89,0,0,1,2-.51,4,4,0,0,1,2.12.56,3.88,3.88,0,0,1,1.5,1.58,4.91,4.91,0,0,1,.54,2.35,5,5,0,0,1-.54,2.37,4,4,0,0,1-3.62,2.19,3.93,3.93,0,0,1-2-.49,3.68,3.68,0,0,1-1.3-1.27v5.78H65.78V303.23h1.45Zm6,2.73a3.61,3.61,0,0,0-.4-1.72,2.68,2.68,0,0,0-1.09-1.12,2.93,2.93,0,0,0-1.49-.39,2.9,2.9,0,0,0-2.58,1.54,3.6,3.6,0,0,0-.4,1.71,3.72,3.72,0,0,0,.4,1.74,3.07,3.07,0,0,0,1.09,1.14,3,3,0,0,0,1.49.38,2.83,2.83,0,0,0,2.58-1.52A3.75,3.75,0,0,0,73.19,307.58Zm2.86,0a4.91,4.91,0,0,1,.54-2.35,3.92,3.92,0,0,1,1.49-1.58,4.09,4.09,0,0,1,2.13-.56,3.9,3.9,0,0,1,2,.49,3.43,3.43,0,0,1,1.26,1.25v-1.6h1.47V312H83.47v-1.63a3.52,3.52,0,0,1-1.29,1.28,3.89,3.89,0,0,1-2,.49,4,4,0,0,1-2.11-.57A4.09,4.09,0,0,1,76.59,310,5,5,0,0,1,76.05,307.58Zm7.42,0a3.54,3.54,0,0,0-.4-1.73,2.93,2.93,0,0,0-2.57-1.52,2.91,2.91,0,0,0-1.49.39,2.64,2.64,0,0,0-1.07,1.12,3.5,3.5,0,0,0-.4,1.72,3.63,3.63,0,0,0,.4,1.76,3,3,0,0,0,4,1.14,2.92,2.92,0,0,0,1.09-1.14A3.6,3.6,0,0,0,83.47,307.6Zm-1-7a1.61,1.61,0,0,1-.5,1.23,1.72,1.72,0,0,1-1.22.45,1.7,1.7,0,0,1-1.21-.47,1.57,1.57,0,0,1-.5-1.21,1.61,1.61,0,0,1,.5-1.22,1.83,1.83,0,0,1,2.43,0A1.58,1.58,0,0,1,82.5,300.61Zm-.85,0a.85.85,0,0,0-.26-.64.79.79,0,0,0-.61-.25.84.84,0,0,0-.62.25.88.88,0,0,0-.24.64.92.92,0,0,0,.24.66.84.84,0,0,0,.62.25.79.79,0,0,0,.61-.25A.9.9,0,0,0,81.65,300.59Zm13.12,11.55a4.66,4.66,0,0,1-1.8-.33,3.22,3.22,0,0,1-1.27-1,2.58,2.58,0,0,1-.51-1.43h1.5a1.54,1.54,0,0,0,.61,1.08,2.43,2.43,0,0,0,1.46.41,2.08,2.08,0,0,0,1.31-.37,1.11,1.11,0,0,0,.48-.92.89.89,0,0,0-.51-.85,6.83,6.83,0,0,0-1.59-.56,13.34,13.34,0,0,1-1.6-.51,3.1,3.1,0,0,1-1-.79,2.26,2.26,0,0,1,0-2.61,2.68,2.68,0,0,1,1.13-.88,4.06,4.06,0,0,1,1.68-.33,3.57,3.57,0,0,1,2.35.73,2.66,2.66,0,0,1,1,2H96.44a1.47,1.47,0,0,0-.56-1.1,2.4,2.4,0,0,0-2.59-.08,1,1,0,0,0-.47.88,1,1,0,0,0,.27.72,2.31,2.31,0,0,0,.71.44c.29.11.68.23,1.18.37a12,12,0,0,1,1.54.51,2.62,2.62,0,0,1,1,.74,2,2,0,0,1,.44,1.3,2.17,2.17,0,0,1-.4,1.29,2.58,2.58,0,0,1-1.13.91A4,4,0,0,1,94.77,312.14Zm12.51-7.63a4.16,4.16,0,0,1,.78,1.38,5,5,0,0,1,.29,1.71,4.61,4.61,0,0,1-.61,2.4,4,4,0,0,1-1.62,1.58,4.58,4.58,0,0,1-2.27.56,4.44,4.44,0,0,1-2.73-.88l-.68.74h-1l1.16-1.26a4.6,4.6,0,0,1-.8-1.4,5.38,5.38,0,0,1-.27-1.74,4.8,4.8,0,0,1,.57-2.37,4,4,0,0,1,1.6-1.58,4.8,4.8,0,0,1,5.06.35l.68-.77h1ZM101,307.6a3.73,3.73,0,0,0,.56,2.08l4.26-4.67a2.79,2.79,0,0,0-1.89-.66,3.08,3.08,0,0,0-1.47.37,2.6,2.6,0,0,0-1.06,1.09A3.79,3.79,0,0,0,101,307.6Zm5.89,0a3.44,3.44,0,0,0-.56-2L102,310.26a2.84,2.84,0,0,0,1.81.6,3.08,3.08,0,0,0,1.47-.36,2.82,2.82,0,0,0,1.11-1.11A3.46,3.46,0,0,0,106.86,307.6Zm4.86-2.94a2.74,2.74,0,0,1,1.09-1.17,3.4,3.4,0,0,1,1.74-.42v1.51h-.38c-1.63,0-2.45.88-2.45,2.65V312h-1.46v-8.77h1.46Zm11.76-.15a4.16,4.16,0,0,1,.78,1.38,4.72,4.72,0,0,1,.29,1.71,4.61,4.61,0,0,1-.61,2.4,4.08,4.08,0,0,1-1.61,1.58,4.6,4.6,0,0,1-2.27.56,4.44,4.44,0,0,1-2.74-.88l-.67.74h-1l1.15-1.26a4.6,4.6,0,0,1-.8-1.4,5.38,5.38,0,0,1-.27-1.74,4.8,4.8,0,0,1,.57-2.37,4,4,0,0,1,1.6-1.58,4.54,4.54,0,0,1,2.26-.56,4.44,4.44,0,0,1,2.8.91l.69-.77h1Zm-6.3,3.09a3.65,3.65,0,0,0,.56,2.08L122,305a2.79,2.79,0,0,0-1.89-.66,3.08,3.08,0,0,0-1.47.37,2.52,2.52,0,0,0-1,1.09A3.67,3.67,0,0,0,117.18,307.6Zm5.88,0a3.37,3.37,0,0,0-.56-2l-4.25,4.68a2.8,2.8,0,0,0,1.81.6,3.13,3.13,0,0,0,1.47-.36,2.73,2.73,0,0,0,1.1-1.11A3.46,3.46,0,0,0,123.06,307.6Zm6.67,3.06,2.72-7.43H134L130.56,312h-1.69l-3.44-8.77H127Zm13.7-3.38c0,.28,0,.57,0,.88h-7a2.73,2.73,0,0,0,2.85,2.75,2.64,2.64,0,0,0,1.56-.43,2.34,2.34,0,0,0,.9-1.18h1.57a3.85,3.85,0,0,1-1.41,2.06,4.29,4.29,0,0,1-2.62.78,4.41,4.41,0,0,1-2.24-.56,4,4,0,0,1-1.54-1.58,5.47,5.47,0,0,1,0-4.78,3.74,3.74,0,0,1,1.53-1.57,4.82,4.82,0,0,1,4.47,0,3.71,3.71,0,0,1,1.48,1.51A4.32,4.32,0,0,1,143.43,307.28Zm-1.5-.3a2.63,2.63,0,0,0-.37-1.43,2.29,2.29,0,0,0-1-.91,3,3,0,0,0-1.39-.32,2.75,2.75,0,0,0-1.89.7,2.87,2.87,0,0,0-.87,2Zm4.88-2.32a2.8,2.8,0,0,1,1.09-1.17,3.41,3.41,0,0,1,1.75-.42v1.51h-.39c-1.63,0-2.45.88-2.45,2.65V312h-1.45v-8.77h1.45Zm6.29-.23v5.17a1.25,1.25,0,0,0,.27.91,1.38,1.38,0,0,0,.95.26h1.07V312h-1.31a2.65,2.65,0,0,1-1.83-.56,2.42,2.42,0,0,1-.6-1.84v-5.17h-1.14v-1.2h1.14V301h1.45v2.21h2.29v1.2Zm7.88,7.71a4.46,4.46,0,0,1-2.24-.56,4,4,0,0,1-1.57-1.58,5,5,0,0,1-.56-2.4,4.7,4.7,0,0,1,.58-2.37,3.93,3.93,0,0,1,1.6-1.58,4.82,4.82,0,0,1,4.51,0,3.85,3.85,0,0,1,1.58,1.57,4.59,4.59,0,0,1,.59,2.38,4.7,4.7,0,0,1-.6,2.4,4.17,4.17,0,0,1-1.62,1.58A4.58,4.58,0,0,1,161,312.14Zm0-1.28a3.13,3.13,0,0,0,1.47-.36,2.73,2.73,0,0,0,1.1-1.11,3.47,3.47,0,0,0,.44-1.79,3.56,3.56,0,0,0-.42-1.79,2.66,2.66,0,0,0-1.09-1.09,3,3,0,0,0-1.45-.37,3.09,3.09,0,0,0-1.48.37,2.58,2.58,0,0,0-1.05,1.09,3.67,3.67,0,0,0-.4,1.79,3.94,3.94,0,0,0,.38,1.81,2.68,2.68,0,0,0,1.06,1.1A3,3,0,0,0,161,310.86Zm10-7.77a3.89,3.89,0,0,1,2,.49,3.42,3.42,0,0,1,1.28,1.25v-1.6h1.47v9a4.36,4.36,0,0,1-.51,2.13,3.59,3.59,0,0,1-1.47,1.47,4.49,4.49,0,0,1-2.21.53,4.83,4.83,0,0,1-2.88-.82,3.17,3.17,0,0,1-1.36-2.22h1.44a2.27,2.27,0,0,0,1,1.28,3.21,3.21,0,0,0,1.81.5,2.64,2.64,0,0,0,1.95-.76,2.82,2.82,0,0,0,.77-2.11v-1.84a3.57,3.57,0,0,1-1.28,1.28,3.8,3.8,0,0,1-2,.51,3.95,3.95,0,0,1-3.61-2.19,5.05,5.05,0,0,1-.55-2.37,4.91,4.91,0,0,1,.55-2.35,3.92,3.92,0,0,1,1.49-1.58A4.08,4.08,0,0,1,171,303.09Zm3.27,4.51a3.65,3.65,0,0,0-.4-1.73,2.93,2.93,0,0,0-2.58-1.52,2.93,2.93,0,0,0-1.49.39,2.76,2.76,0,0,0-1.07,1.12,3.61,3.61,0,0,0-.4,1.72,3.75,3.75,0,0,0,.4,1.76,3,3,0,0,0,1.07,1.14,2.92,2.92,0,0,0,4.07-1.14A3.72,3.72,0,0,0,174.27,307.6Zm5.71-3.17v5.17a1.25,1.25,0,0,0,.27.91,1.35,1.35,0,0,0,.94.26h1.07V312H181a2.61,2.61,0,0,1-1.82-.56,2.39,2.39,0,0,1-.61-1.84v-5.17h-1.14v-1.2h1.14V301H180v2.21h2.28v1.2Zm12.14,7.71a4.46,4.46,0,0,1-2.24-.56,4.11,4.11,0,0,1-1.57-1.58,5,5,0,0,1-.56-2.4,4.7,4.7,0,0,1,.58-2.37,4,4,0,0,1,1.6-1.58,4.82,4.82,0,0,1,4.51,0,3.85,3.85,0,0,1,1.58,1.57,4.6,4.6,0,0,1,.6,2.38A4.7,4.7,0,0,1,196,310a4.17,4.17,0,0,1-1.62,1.58A4.58,4.58,0,0,1,192.12,312.14Zm0-1.28a3.13,3.13,0,0,0,1.47-.36,2.82,2.82,0,0,0,1.11-1.11,4,4,0,0,0,0-3.58,2.66,2.66,0,0,0-1.09-1.09,3.07,3.07,0,0,0-2.92,0,2.54,2.54,0,0,0-1.06,1.09,3.67,3.67,0,0,0-.4,1.79,3.94,3.94,0,0,0,.38,1.81,2.68,2.68,0,0,0,1.06,1.1A3,3,0,0,0,192.12,310.86Zm10-7.77a3.88,3.88,0,0,1,2,.49,3.35,3.35,0,0,1,1.28,1.25v-1.6h1.47v9a4.36,4.36,0,0,1-.51,2.13,3.59,3.59,0,0,1-1.47,1.47,4.49,4.49,0,0,1-2.21.53,4.83,4.83,0,0,1-2.88-.82,3.17,3.17,0,0,1-1.36-2.22h1.44a2.27,2.27,0,0,0,1,1.28,3.23,3.23,0,0,0,1.81.5,2.64,2.64,0,0,0,1.95-.76,2.82,2.82,0,0,0,.77-2.11v-1.84a3.57,3.57,0,0,1-1.28,1.28,3.79,3.79,0,0,1-2,.51,3.95,3.95,0,0,1-3.62-2.19,5,5,0,0,1-.54-2.37,4.91,4.91,0,0,1,.54-2.35,3.92,3.92,0,0,1,1.49-1.58A4.09,4.09,0,0,1,202.15,303.09Zm3.26,4.51a3.54,3.54,0,0,0-.4-1.73,2.93,2.93,0,0,0-2.58-1.52,2.87,2.87,0,0,0-1.48.39,2.72,2.72,0,0,0-1.08,1.12,3.61,3.61,0,0,0-.4,1.72,3.75,3.75,0,0,0,.4,1.76,3,3,0,0,0,1.08,1.14,2.86,2.86,0,0,0,1.48.38,2.83,2.83,0,0,0,2.58-1.52A3.6,3.6,0,0,0,205.41,307.6Zm11.77-3.17h-1.84V312h-1.46v-7.57h-1.14v-1.2h1.14v-.62a2.76,2.76,0,0,1,.75-2.15,3.66,3.66,0,0,1,2.45-.68V301a1.92,1.92,0,0,0-1.36.39,1.62,1.62,0,0,0-.38,1.23v.62h1.84Zm2.44-2.62a1,1,0,0,1,0-2,.91.91,0,0,1,.68.29,1,1,0,0,1,0,1.41A.91.91,0,0,1,219.62,301.81Zm.71,1.42V312h-1.46v-8.77Zm6.75-.16a3.53,3.53,0,0,1,2.59,1,3.67,3.67,0,0,1,1,2.78V312h-1.44v-5a2.79,2.79,0,0,0-.66-2,2.32,2.32,0,0,0-1.79-.7,2.43,2.43,0,0,0-1.84.72,2.93,2.93,0,0,0-.67,2.09V312h-1.46v-8.77h1.46v1.25a2.78,2.78,0,0,1,1.16-1A3.8,3.8,0,0,1,227.08,303.07Zm5.42,4.51a4.91,4.91,0,0,1,.54-2.35,4,4,0,0,1,1.49-1.58,4.13,4.13,0,0,1,2.15-.56,3.91,3.91,0,0,1,1.9.48,3.37,3.37,0,0,1,1.35,1.23v-4.64h1.47V312h-1.47v-1.65a3.47,3.47,0,0,1-1.28,1.3,3.89,3.89,0,0,1-2,.49,4.09,4.09,0,0,1-2.13-.57A4.17,4.17,0,0,1,233,310,5,5,0,0,1,232.5,307.58Zm7.43,0a3.54,3.54,0,0,0-.41-1.73,2.71,2.71,0,0,0-1.08-1.12,2.85,2.85,0,0,0-1.49-.4,2.91,2.91,0,0,0-1.49.39,2.64,2.64,0,0,0-1.07,1.12,3.5,3.5,0,0,0-.4,1.72,3.63,3.63,0,0,0,.4,1.76,2.77,2.77,0,0,0,2.56,1.52,2.93,2.93,0,0,0,1.49-.38,2.83,2.83,0,0,0,1.08-1.14A3.61,3.61,0,0,0,239.93,307.6Zm7.65,0a4.91,4.91,0,0,1,.54-2.35,4,4,0,0,1,1.49-1.58,4.11,4.11,0,0,1,2.15-.56,3.91,3.91,0,0,1,1.9.48A3.4,3.4,0,0,1,255,304.8v-4.64h1.48V312H255v-1.65a3.39,3.39,0,0,1-1.28,1.3,3.83,3.83,0,0,1-2,.49,4.09,4.09,0,0,1-2.13-.57,4.17,4.17,0,0,1-1.49-1.62A5,5,0,0,1,247.58,307.58Zm7.42,0a3.54,3.54,0,0,0-.4-1.73,2.78,2.78,0,0,0-1.08-1.12,2.85,2.85,0,0,0-1.49-.4,2.91,2.91,0,0,0-1.49.39,2.64,2.64,0,0,0-1.07,1.12,3.5,3.5,0,0,0-.4,1.72,3.63,3.63,0,0,0,.4,1.76,2.77,2.77,0,0,0,2.56,1.52,2.93,2.93,0,0,0,1.49-.38,2.9,2.9,0,0,0,1.08-1.14A3.6,3.6,0,0,0,255,307.6Zm11.93-.32c0,.28,0,.57,0,.88h-7a2.73,2.73,0,0,0,2.85,2.75,2.69,2.69,0,0,0,1.57-.43,2.38,2.38,0,0,0,.89-1.18h1.57a3.85,3.85,0,0,1-1.41,2.06,4.29,4.29,0,0,1-2.62.78,4.38,4.38,0,0,1-2.24-.56A4,4,0,0,1,259,310a5.47,5.47,0,0,1,0-4.78,3.78,3.78,0,0,1,1.52-1.57,4.51,4.51,0,0,1,2.28-.56,4.37,4.37,0,0,1,2.2.54,3.65,3.65,0,0,1,1.48,1.51A4.32,4.32,0,0,1,266.93,307.28Zm-1.5-.3a2.63,2.63,0,0,0-.37-1.43,2.29,2.29,0,0,0-1-.91,3,3,0,0,0-1.39-.32,2.75,2.75,0,0,0-1.89.7,2.92,2.92,0,0,0-.88,2Zm7.7-3.91a3.53,3.53,0,0,1,2.59,1,3.7,3.7,0,0,1,1,2.78V312h-1.44v-5a2.83,2.83,0,0,0-.65-2,2.34,2.34,0,0,0-1.79-.7,2.45,2.45,0,0,0-1.85.72,3,3,0,0,0-.67,2.09V312h-1.45v-8.77h1.45v1.25a2.87,2.87,0,0,1,1.17-1A3.77,3.77,0,0,1,273.13,303.07ZM34.8,330.43H33V338H31.5v-7.57H30.37v-1.2H31.5v-.62a2.73,2.73,0,0,1,.76-2.15,3.63,3.63,0,0,1,2.44-.68V327a1.92,1.92,0,0,0-1.36.39,1.66,1.66,0,0,0-.38,1.23v.62H34.8Zm5.52,7.71a4.46,4.46,0,0,1-2.24-.56A4.11,4.11,0,0,1,36.51,336a5,5,0,0,1-.56-2.4,4.81,4.81,0,0,1,.58-2.37,4,4,0,0,1,1.6-1.58,4.82,4.82,0,0,1,4.51,0,3.94,3.94,0,0,1,1.59,1.57,4.69,4.69,0,0,1,.59,2.38,4.61,4.61,0,0,1-.61,2.4,4.1,4.1,0,0,1-1.62,1.58A4.58,4.58,0,0,1,40.32,338.14Zm0-1.28a3.13,3.13,0,0,0,1.47-.36,2.82,2.82,0,0,0,1.11-1.11,3.46,3.46,0,0,0,.43-1.79,3.56,3.56,0,0,0-.42-1.79,2.64,2.64,0,0,0-1.08-1.09,3.09,3.09,0,0,0-2.93,0,2.6,2.6,0,0,0-1.06,1.09,4.3,4.3,0,0,0,0,3.6,2.6,2.6,0,0,0,1.05,1.1A3,3,0,0,0,40.32,336.86Zm7.87-6.2a2.74,2.74,0,0,1,1.09-1.17,3.4,3.4,0,0,1,1.74-.42v1.51h-.38c-1.64,0-2.45.88-2.45,2.65V338H46.73v-8.77h1.46Zm7.61,7.48a4.66,4.66,0,0,1-1.8-.33,3.22,3.22,0,0,1-1.27-1,2.58,2.58,0,0,1-.51-1.43h1.5a1.54,1.54,0,0,0,.61,1.08,2.45,2.45,0,0,0,1.46.41,2.08,2.08,0,0,0,1.31-.37,1.11,1.11,0,0,0,.48-.92.89.89,0,0,0-.51-.85,6.83,6.83,0,0,0-1.59-.56,13.34,13.34,0,0,1-1.6-.51,3.1,3.1,0,0,1-1.05-.79,2.26,2.26,0,0,1,0-2.61,2.68,2.68,0,0,1,1.13-.88,4.06,4.06,0,0,1,1.68-.33,3.57,3.57,0,0,1,2.35.73,2.66,2.66,0,0,1,1,2H57.47a1.47,1.47,0,0,0-.56-1.1,2.4,2.4,0,0,0-2.59-.08,1,1,0,0,0-.47.88,1,1,0,0,0,.27.72,2.31,2.31,0,0,0,.71.44c.29.11.68.23,1.18.37a12,12,0,0,1,1.54.51,2.62,2.62,0,0,1,1,.74,2,2,0,0,1,.44,1.3,2.17,2.17,0,0,1-.4,1.29,2.58,2.58,0,0,1-1.13.91A4,4,0,0,1,55.8,338.14Zm8.52-1.48L67,329.23H68.6L65.16,338h-1.7L60,329.23h1.57Zm13.48-7.43V338H76.35v-1.3a2.93,2.93,0,0,1-1.17,1.06,3.52,3.52,0,0,1-1.63.37,4,4,0,0,1-1.84-.42,3.14,3.14,0,0,1-1.3-1.28,4.21,4.21,0,0,1-.46-2.06v-5.14h1.44v4.95a2.86,2.86,0,0,0,.65,2,2.37,2.37,0,0,0,1.8.68,2.4,2.4,0,0,0,1.84-.72,3,3,0,0,0,.67-2.09v-4.82Zm6.74-.16a3.55,3.55,0,0,1,2.59,1,3.7,3.7,0,0,1,1,2.78V338H86.68v-5a2.79,2.79,0,0,0-.66-2,2.31,2.31,0,0,0-1.79-.7,2.43,2.43,0,0,0-1.84.72,2.93,2.93,0,0,0-.67,2.09V338H80.26v-8.77h1.46v1.25a2.87,2.87,0,0,1,1.17-1A3.77,3.77,0,0,1,84.54,329.07ZM90,333.58a4.91,4.91,0,0,1,.55-2.35A3.92,3.92,0,0,1,92,329.65a4.1,4.1,0,0,1,2.14-.56,3.89,3.89,0,0,1,1.9.48,3.37,3.37,0,0,1,1.35,1.23v-4.64h1.47V338H97.38v-1.65a3.47,3.47,0,0,1-1.28,1.3,3.89,3.89,0,0,1-2,.49A3.95,3.95,0,0,1,90.5,336,5.05,5.05,0,0,1,90,333.58Zm7.43,0a3.65,3.65,0,0,0-.4-1.73,2.93,2.93,0,0,0-2.58-1.52,2.93,2.93,0,0,0-1.49.39,2.76,2.76,0,0,0-1.07,1.12,3.5,3.5,0,0,0-.4,1.72,3.63,3.63,0,0,0,.4,1.76,3,3,0,0,0,1.07,1.14A2.92,2.92,0,0,0,97,335.34,3.72,3.72,0,0,0,97.38,333.6Zm8.2-4.53a3.53,3.53,0,0,1,2.59,1,3.71,3.71,0,0,1,1,2.78V338h-1.44v-5a2.79,2.79,0,0,0-.66-2,2.32,2.32,0,0,0-1.79-.7,2.43,2.43,0,0,0-1.84.72,2.93,2.93,0,0,0-.67,2.09V338h-1.46v-8.77h1.46v1.25a2.78,2.78,0,0,1,1.16-1A3.8,3.8,0,0,1,105.58,329.07Zm14,4.21c0,.28,0,.57,0,.88h-7a2.73,2.73,0,0,0,2.85,2.75,2.64,2.64,0,0,0,1.56-.43,2.34,2.34,0,0,0,.9-1.18h1.57a3.8,3.8,0,0,1-1.41,2.06,4.29,4.29,0,0,1-2.62.78,4.38,4.38,0,0,1-2.24-.56,4,4,0,0,1-1.54-1.58,5.47,5.47,0,0,1,0-4.78,3.74,3.74,0,0,1,1.53-1.57,4.82,4.82,0,0,1,4.47,0,3.71,3.71,0,0,1,1.48,1.51A4.32,4.32,0,0,1,119.54,333.28ZM118,333a2.63,2.63,0,0,0-.37-1.43,2.32,2.32,0,0,0-1-.91,3.07,3.07,0,0,0-1.4-.32,2.71,2.71,0,0,0-1.88.7,2.89,2.89,0,0,0-.89,2Zm10.8,5.16a4.67,4.67,0,0,1-1.81-.33,3.22,3.22,0,0,1-1.27-1,2.66,2.66,0,0,1-.51-1.43h1.51a1.49,1.49,0,0,0,.6,1.08,2.45,2.45,0,0,0,1.46.41,2.06,2.06,0,0,0,1.31-.37,1.11,1.11,0,0,0,.48-.92.89.89,0,0,0-.51-.85,6.9,6.9,0,0,0-1.58-.56,12.78,12.78,0,0,1-1.6-.51,3,3,0,0,1-1.06-.79,2.26,2.26,0,0,1,0-2.61,2.74,2.74,0,0,1,1.13-.88,4.1,4.1,0,0,1,1.68-.33,3.6,3.6,0,0,1,2.36.73,2.73,2.73,0,0,1,1,2H130.5a1.47,1.47,0,0,0-.56-1.1,2,2,0,0,0-1.34-.42,2,2,0,0,0-1.25.34,1,1,0,0,0-.47.88,1,1,0,0,0,.28.72,2.14,2.14,0,0,0,.7.44c.29.11.68.23,1.18.37a12,12,0,0,1,1.54.51,2.55,2.55,0,0,1,1,.74,2,2,0,0,1,.45,1.3,2.24,2.24,0,0,1-.4,1.29,2.67,2.67,0,0,1-1.14.91A4,4,0,0,1,128.84,338.14ZM139,338l-3.44-3.87V338h-1.46V326.16h1.46v7l3.37-3.89h2l-4.13,4.37L141,338Zm2.79-4.42a4.8,4.8,0,0,1,.55-2.35,3.9,3.9,0,0,1,1.48-1.58,4.09,4.09,0,0,1,2.13-.56,3.88,3.88,0,0,1,2,.49,3.39,3.39,0,0,1,1.27,1.25v-1.6h1.47V338h-1.47v-1.63a3.47,3.47,0,0,1-1.3,1.28,3.88,3.88,0,0,1-2,.49,3.92,3.92,0,0,1-3.6-2.19A4.93,4.93,0,0,1,141.78,333.58Zm7.43,0a3.65,3.65,0,0,0-.4-1.73,2.8,2.8,0,0,0-1.09-1.12,2.85,2.85,0,0,0-1.49-.4,2.93,2.93,0,0,0-1.49.39,2.7,2.7,0,0,0-1.07,1.12,3.5,3.5,0,0,0-.4,1.72,3.63,3.63,0,0,0,.4,1.76,2.91,2.91,0,0,0,5.14,0A3.72,3.72,0,0,0,149.21,333.6Zm5.7-3.17v5.17a1.25,1.25,0,0,0,.28.91,1.35,1.35,0,0,0,.94.26h1.07V338h-1.31a2.61,2.61,0,0,1-1.82-.56,2.39,2.39,0,0,1-.61-1.84v-5.17h-1.14v-1.2h1.14V327h1.45v2.21h2.29v1.2Zm5.56,5.55-1.79,4.31h-1l1.17-4.31Zm9.5-5.55h-1.84V338h-1.45v-7.57h-1.14v-1.2h1.14v-.62a2.76,2.76,0,0,1,.75-2.15,3.66,3.66,0,0,1,2.45-.68V327a1.91,1.91,0,0,0-1.36.39,1.62,1.62,0,0,0-.39,1.23v.62H170Zm8.95.08a4.16,4.16,0,0,1,.78,1.38,5,5,0,0,1,.29,1.71,4.61,4.61,0,0,1-.61,2.4,4.08,4.08,0,0,1-1.61,1.58,4.61,4.61,0,0,1-2.28.56,4.44,4.44,0,0,1-2.73-.88l-.67.74h-1l1.15-1.26a4.6,4.6,0,0,1-.8-1.4,5.38,5.38,0,0,1-.27-1.74,4.8,4.8,0,0,1,.57-2.37,4,4,0,0,1,1.6-1.58,4.51,4.51,0,0,1,2.26-.56,4.46,4.46,0,0,1,2.8.91l.69-.77h1Zm-6.31,3.09a3.73,3.73,0,0,0,.56,2.08l4.26-4.67a2.79,2.79,0,0,0-1.89-.66,3.08,3.08,0,0,0-1.47.37,2.6,2.6,0,0,0-1.06,1.09A3.79,3.79,0,0,0,172.61,333.6Zm5.89,0a3.37,3.37,0,0,0-.56-2l-4.25,4.68a2.79,2.79,0,0,0,1.8.6,3.14,3.14,0,0,0,1.48-.36,2.86,2.86,0,0,0,1.1-1.11A3.46,3.46,0,0,0,178.5,333.6Zm4.86-2.94a2.8,2.8,0,0,1,1.09-1.17,3.4,3.4,0,0,1,1.74-.42v1.51h-.38c-1.63,0-2.45.88-2.45,2.65V338H181.9v-8.77h1.46Zm8.23,2.92a4.91,4.91,0,0,1,.55-2.35,3.92,3.92,0,0,1,1.49-1.58,4.1,4.1,0,0,1,2.14-.56,3.89,3.89,0,0,1,1.9.48A3.37,3.37,0,0,1,199,330.8v-4.64h1.47V338H199v-1.65a3.47,3.47,0,0,1-1.28,1.3,3.89,3.89,0,0,1-2,.49,3.95,3.95,0,0,1-3.61-2.19A5.05,5.05,0,0,1,191.59,333.58Zm7.43,0a3.65,3.65,0,0,0-.4-1.73,2.93,2.93,0,0,0-2.58-1.52,2.93,2.93,0,0,0-1.49.39,2.76,2.76,0,0,0-1.07,1.12,3.61,3.61,0,0,0-.4,1.72,3.75,3.75,0,0,0,.4,1.76,3,3,0,0,0,1.07,1.14,2.92,2.92,0,0,0,4.07-1.14A3.72,3.72,0,0,0,199,333.6Zm11.93-.32c0,.28,0,.57,0,.88h-7a2.71,2.71,0,0,0,2.84,2.75,2.67,2.67,0,0,0,1.57-.43,2.34,2.34,0,0,0,.9-1.18h1.56a3.78,3.78,0,0,1-1.4,2.06,4.32,4.32,0,0,1-2.63.78,4.41,4.41,0,0,1-2.24-.56A4,4,0,0,1,203,336a4.89,4.89,0,0,1-.56-2.4,5,5,0,0,1,.54-2.38,3.72,3.72,0,0,1,1.52-1.57,4.84,4.84,0,0,1,4.48,0,3.69,3.69,0,0,1,1.47,1.51A4.33,4.33,0,0,1,211,333.28Zm-1.5-.3a2.71,2.71,0,0,0-.37-1.43,2.34,2.34,0,0,0-1-.91,3.06,3.06,0,0,0-1.39-.32,2.71,2.71,0,0,0-1.89.7,2.92,2.92,0,0,0-.88,2Zm7.7-3.91a3.56,3.56,0,0,1,2.59,1,3.7,3.7,0,0,1,1,2.78V338h-1.44v-5a2.79,2.79,0,0,0-.66-2,2.31,2.31,0,0,0-1.79-.7,2.43,2.43,0,0,0-1.84.72,2.93,2.93,0,0,0-.67,2.09V338h-1.46v-8.77h1.46v1.25a2.87,2.87,0,0,1,1.17-1A3.77,3.77,0,0,1,217.15,329.07Zm13.79,1.36H229.1V338h-1.45v-7.57h-1.14v-1.2h1.14v-.62a2.76,2.76,0,0,1,.75-2.15,3.66,3.66,0,0,1,2.45-.68V327a1.91,1.91,0,0,0-1.36.39,1.62,1.62,0,0,0-.39,1.23v.62h1.84Zm5.52,7.71a4.46,4.46,0,0,1-2.24-.56,4.11,4.11,0,0,1-1.57-1.58,5,5,0,0,1-.56-2.4,4.81,4.81,0,0,1,.58-2.37,4,4,0,0,1,1.6-1.58,4.82,4.82,0,0,1,4.51,0,3.94,3.94,0,0,1,1.59,1.57,4.69,4.69,0,0,1,.59,2.38,4.61,4.61,0,0,1-.61,2.4,4,4,0,0,1-1.62,1.58A4.58,4.58,0,0,1,236.46,338.14Zm0-1.28a3.08,3.08,0,0,0,1.47-.36,2.82,2.82,0,0,0,1.11-1.11,3.46,3.46,0,0,0,.43-1.79,3.56,3.56,0,0,0-.42-1.79,2.64,2.64,0,0,0-1.08-1.09,3.09,3.09,0,0,0-2.93,0,2.6,2.6,0,0,0-1.06,1.09,4.3,4.3,0,0,0,0,3.6,2.66,2.66,0,0,0,1.05,1.1A3,3,0,0,0,236.46,336.86Zm7.87-6.2a2.8,2.8,0,0,1,1.09-1.17,3.4,3.4,0,0,1,1.74-.42v1.51h-.38c-1.63,0-2.45.88-2.45,2.65V338h-1.46v-8.77h1.46Zm16.78,2.62c0,.28,0,.57-.05.88h-7a2.73,2.73,0,0,0,2.85,2.75,2.69,2.69,0,0,0,1.57-.43,2.38,2.38,0,0,0,.89-1.18h1.57a3.74,3.74,0,0,1-1.41,2.06,4.29,4.29,0,0,1-2.62.78,4.41,4.41,0,0,1-2.24-.56,4,4,0,0,1-1.54-1.58,5,5,0,0,1-.56-2.4,4.89,4.89,0,0,1,.55-2.38,3.72,3.72,0,0,1,1.52-1.57,4.84,4.84,0,0,1,4.48,0,3.69,3.69,0,0,1,1.47,1.51A4.33,4.33,0,0,1,261.11,333.28Zm-1.51-.3a2.63,2.63,0,0,0-.37-1.43,2.32,2.32,0,0,0-1-.91,3.07,3.07,0,0,0-1.4-.32,2.71,2.71,0,0,0-1.88.7,2.84,2.84,0,0,0-.88,2Zm6.69,3.68,2.72-7.43h1.56L267.12,338h-1.69L262,329.23h1.57Zm6.46-8.85a1,1,0,0,1-.7-.29,1,1,0,0,1,0-1.41,1,1,0,0,1,.7-.29.88.88,0,0,1,.67.29,1,1,0,0,1,0,1.41A.88.88,0,0,1,272.75,327.81Zm.7,1.42V338H272v-8.77Zm6.1-.14a3.89,3.89,0,0,1,2,.49,3.42,3.42,0,0,1,1.28,1.25v-1.6h1.47v9a4.25,4.25,0,0,1-.52,2.13,3.59,3.59,0,0,1-1.47,1.47,4.45,4.45,0,0,1-2.2.53,4.84,4.84,0,0,1-2.89-.82,3.16,3.16,0,0,1-1.35-2.22h1.44a2.23,2.23,0,0,0,1,1.28,3.21,3.21,0,0,0,1.81.5,2.66,2.66,0,0,0,1.95-.76,2.82,2.82,0,0,0,.77-2.11v-1.84a3.57,3.57,0,0,1-1.28,1.28,3.8,3.8,0,0,1-2,.51,4.09,4.09,0,0,1-2.13-.57,4.17,4.17,0,0,1-1.49-1.62,5,5,0,0,1-.54-2.37,4.91,4.91,0,0,1,.54-2.35,4,4,0,0,1,1.49-1.58A4.09,4.09,0,0,1,279.55,329.09Zm3.27,4.51a3.65,3.65,0,0,0-.4-1.73,2.8,2.8,0,0,0-1.09-1.12,2.85,2.85,0,0,0-1.49-.4,2.93,2.93,0,0,0-1.49.39,2.7,2.7,0,0,0-1.07,1.12,3.5,3.5,0,0,0-.4,1.72,3.63,3.63,0,0,0,.4,1.76,2.91,2.91,0,0,0,5.14,0A3.72,3.72,0,0,0,282.82,333.6ZM33,356.43v5.17a1.25,1.25,0,0,0,.27.91,1.37,1.37,0,0,0,.94.26H35.3V364H34a2.63,2.63,0,0,1-1.82-.56,2.39,2.39,0,0,1-.61-1.84v-5.17H30.42v-1.2h1.13V353H33v2.21H35.3v1.2Zm4.8-2.62a1,1,0,0,1-.7-.29,1,1,0,0,1,0-1.41,1,1,0,0,1,.7-.29.88.88,0,0,1,.67.29,1,1,0,0,1,0,1.41A.88.88,0,0,1,37.81,353.81Zm.71,1.42V364H37.06v-8.77Zm1.93,4.35a4.8,4.8,0,0,1,.55-2.35,3.92,3.92,0,0,1,1.49-1.58,4.1,4.1,0,0,1,2.14-.56,3.89,3.89,0,0,1,1.9.48,3.37,3.37,0,0,1,1.35,1.23v-4.64h1.47V364H47.88v-1.65a3.47,3.47,0,0,1-1.28,1.3,3.89,3.89,0,0,1-2,.49A3.95,3.95,0,0,1,41,362,4.93,4.93,0,0,1,40.45,359.58Zm7.43,0a3.65,3.65,0,0,0-.4-1.73,2.93,2.93,0,0,0-2.58-1.52,2.93,2.93,0,0,0-1.49.39,2.76,2.76,0,0,0-1.07,1.12,3.61,3.61,0,0,0-.4,1.72,3.75,3.75,0,0,0,.4,1.76,3,3,0,0,0,1.07,1.14,2.92,2.92,0,0,0,4.07-1.14A3.72,3.72,0,0,0,47.88,359.6Zm11.81-4.51a3.89,3.89,0,0,1,2,.49A3.42,3.42,0,0,1,63,356.83v-1.6h1.47v9a4.36,4.36,0,0,1-.51,2.13,3.67,3.67,0,0,1-1.48,1.47,4.45,4.45,0,0,1-2.2.53,4.79,4.79,0,0,1-2.88-.82A3.14,3.14,0,0,1,56,365.28h1.44a2.27,2.27,0,0,0,1,1.28,3.21,3.21,0,0,0,1.81.5,2.64,2.64,0,0,0,1.95-.76,2.82,2.82,0,0,0,.77-2.11v-1.84a3.57,3.57,0,0,1-1.28,1.28,3.8,3.8,0,0,1-2,.51A3.92,3.92,0,0,1,56.08,362a4.93,4.93,0,0,1-.55-2.37,4.8,4.8,0,0,1,.55-2.35,3.9,3.9,0,0,1,1.48-1.58A4.09,4.09,0,0,1,59.69,355.09ZM63,359.6a3.65,3.65,0,0,0-.4-1.73,2.8,2.8,0,0,0-1.09-1.12,2.85,2.85,0,0,0-1.49-.4,2.93,2.93,0,0,0-1.49.39,2.7,2.7,0,0,0-1.07,1.12,3.5,3.5,0,0,0-.4,1.72,3.63,3.63,0,0,0,.4,1.76,2.91,2.91,0,0,0,5.14,0A3.72,3.72,0,0,0,63,359.6Zm3.38,0a4.91,4.91,0,0,1,.55-2.35,3.92,3.92,0,0,1,1.49-1.58,4.08,4.08,0,0,1,2.12-.56,3.88,3.88,0,0,1,2,.49,3.39,3.39,0,0,1,1.27,1.25v-1.6h1.47V364H73.77v-1.63a3.47,3.47,0,0,1-1.3,1.28,3.83,3.83,0,0,1-2,.49,4,4,0,0,1-2.11-.57A4.09,4.09,0,0,1,66.89,362,5.05,5.05,0,0,1,66.34,359.58Zm7.43,0a3.65,3.65,0,0,0-.4-1.73,2.93,2.93,0,0,0-2.58-1.52,2.93,2.93,0,0,0-1.49.39,2.76,2.76,0,0,0-1.07,1.12,3.61,3.61,0,0,0-.4,1.72,3.75,3.75,0,0,0,.4,1.76,3,3,0,0,0,1.07,1.14,2.92,2.92,0,0,0,4.07-1.14A3.72,3.72,0,0,0,73.77,359.6Zm-1-7a1.6,1.6,0,0,1-.49,1.23,1.85,1.85,0,0,1-2.44,0,1.56,1.56,0,0,1-.49-1.21,1.6,1.6,0,0,1,.49-1.22,1.72,1.72,0,0,1,1.22-.46,1.68,1.68,0,0,1,1.22.46A1.57,1.57,0,0,1,72.79,352.61Zm-.85,0a.84.84,0,0,0-.25-.64.79.79,0,0,0-.61-.25.83.83,0,0,0-.62.25.88.88,0,0,0-.24.64.92.92,0,0,0,.24.66.83.83,0,0,0,.62.25.79.79,0,0,0,.61-.25A.89.89,0,0,0,71.94,352.59Zm7.22,4.07a2.78,2.78,0,0,1,1.08-1.17,3.44,3.44,0,0,1,1.75-.42v1.51H81.6c-1.63,0-2.44.88-2.44,2.65V364H77.7v-8.77h1.46Zm10.55-.23v5.17a1.25,1.25,0,0,0,.27.91,1.38,1.38,0,0,0,1,.26H92V364H90.69a2.65,2.65,0,0,1-1.83-.56,2.42,2.42,0,0,1-.6-1.84v-5.17H87.12v-1.2h1.14V353h1.45v2.21H92v1.2Zm3.51,3.15a4.91,4.91,0,0,1,.54-2.35,4,4,0,0,1,1.49-1.58,4.09,4.09,0,0,1,2.13-.56,3.9,3.9,0,0,1,2,.49,3.36,3.36,0,0,1,1.26,1.25v-1.6h1.47V364h-1.47v-1.63a3.44,3.44,0,0,1-1.29,1.28,3.89,3.89,0,0,1-2,.49,4,4,0,0,1-2.11-.57A4.17,4.17,0,0,1,93.76,362,5,5,0,0,1,93.22,359.58Zm7.42,0a3.54,3.54,0,0,0-.4-1.73,2.74,2.74,0,0,0-1.09-1.12,2.79,2.79,0,0,0-1.48-.4,2.91,2.91,0,0,0-1.49.39,2.64,2.64,0,0,0-1.07,1.12,3.5,3.5,0,0,0-.4,1.72,3.63,3.63,0,0,0,.4,1.76,2.9,2.9,0,0,0,5.13,0A3.6,3.6,0,0,0,100.64,359.6Zm5.39-2.74a3.58,3.58,0,0,1,1.31-1.28,3.92,3.92,0,0,1,2-.49,4,4,0,0,1,2.13.56,3.92,3.92,0,0,1,1.49,1.58,4.91,4.91,0,0,1,.54,2.35,5,5,0,0,1-.54,2.37,4.07,4.07,0,0,1-1.51,1.62,4,4,0,0,1-2.11.57,4,4,0,0,1-2-.49,3.39,3.39,0,0,1-1.28-1.27V364h-1.45V352.16H106Zm6,2.72a3.5,3.5,0,0,0-.4-1.72,2.66,2.66,0,0,0-1.08-1.12,2.93,2.93,0,0,0-1.49-.39,2.87,2.87,0,0,0-1.49.4,2.92,2.92,0,0,0-1.09,1.14,3.6,3.6,0,0,0-.4,1.71,3.72,3.72,0,0,0,.4,1.74,3.07,3.07,0,0,0,1.09,1.14,3.11,3.11,0,0,0,3,0,2.9,2.9,0,0,0,1.08-1.14A3.63,3.63,0,0,0,112,359.58Zm5.18-3.15v5.17a1.21,1.21,0,0,0,.28.91,1.35,1.35,0,0,0,.94.26h1.07V364h-1.31a2.61,2.61,0,0,1-1.82-.56,2.39,2.39,0,0,1-.61-1.84v-5.17h-1.14v-1.2h1.14V353h1.45v2.21h2.29v1.2Zm9.78.42a3.42,3.42,0,0,1,1.28-1.25,3.84,3.84,0,0,1,2-.51,4,4,0,0,1,2.11.56,3.88,3.88,0,0,1,1.5,1.58,4.8,4.8,0,0,1,.55,2.35,4.93,4.93,0,0,1-.55,2.37,4,4,0,0,1-1.5,1.62,4,4,0,0,1-2.11.57,3.94,3.94,0,0,1-2-.49,3.65,3.65,0,0,1-1.29-1.27v5.78h-1.46V355.23h1.46Zm5.95,2.73a3.5,3.5,0,0,0-.4-1.72,2.68,2.68,0,0,0-1.09-1.12,2.91,2.91,0,0,0-1.49-.39,2.84,2.84,0,0,0-1.48.4,2.92,2.92,0,0,0-1.09,1.14,3.48,3.48,0,0,0-.4,1.71,3.6,3.6,0,0,0,.4,1.74,3.07,3.07,0,0,0,1.09,1.14,2.92,2.92,0,0,0,4.06-1.14A3.63,3.63,0,0,0,132.89,359.58Zm2.86,0a4.91,4.91,0,0,1,.54-2.35,4,4,0,0,1,1.49-1.58,4.09,4.09,0,0,1,2.13-.56,3.88,3.88,0,0,1,2,.49,3.39,3.39,0,0,1,1.27,1.25v-1.6h1.47V364h-1.47v-1.63a3.47,3.47,0,0,1-1.3,1.28,3.88,3.88,0,0,1-2,.49,4,4,0,0,1-2.12-.57,4.17,4.17,0,0,1-1.49-1.62A5,5,0,0,1,135.75,359.58Zm7.43,0a3.54,3.54,0,0,0-.41-1.73,2.71,2.71,0,0,0-1.08-1.12,2.85,2.85,0,0,0-1.49-.4,2.91,2.91,0,0,0-1.49.39,2.64,2.64,0,0,0-1.07,1.12,3.5,3.5,0,0,0-.4,1.72,3.63,3.63,0,0,0,.4,1.76,2.77,2.77,0,0,0,2.56,1.52,2.93,2.93,0,0,0,1.49-.38,2.83,2.83,0,0,0,1.08-1.14A3.61,3.61,0,0,0,143.18,359.6Zm-1-7a1.61,1.61,0,0,1-.5,1.23,1.69,1.69,0,0,1-1.21.45,1.72,1.72,0,0,1-1.22-.47,1.57,1.57,0,0,1-.5-1.21,1.61,1.61,0,0,1,.5-1.22,1.72,1.72,0,0,1,1.22-.46,1.66,1.66,0,0,1,1.21.46A1.58,1.58,0,0,1,142.2,352.61Zm-.85,0a.88.88,0,0,0-.25-.64.82.82,0,0,0-.61-.25.85.85,0,0,0-.63.25.88.88,0,0,0-.24.64.92.92,0,0,0,.24.66.85.85,0,0,0,.63.25.82.82,0,0,0,.61-.25A.93.93,0,0,0,141.35,352.59Zm14.38,2.48a3.82,3.82,0,0,1,1.79.43,2.87,2.87,0,0,1,1.24,1.27,4.21,4.21,0,0,1,.47,2.06V364h-1.44v-5a2.79,2.79,0,0,0-.66-2,2.31,2.31,0,0,0-1.79-.7,2.43,2.43,0,0,0-1.84.72,2.93,2.93,0,0,0-.67,2.09V364h-1.46V352.16h1.46v4.32a2.84,2.84,0,0,1,1.18-1A4,4,0,0,1,155.73,355.07Zm5.33,4.51a4.8,4.8,0,0,1,.55-2.35,3.92,3.92,0,0,1,1.49-1.58,4.05,4.05,0,0,1,2.12-.56,3.88,3.88,0,0,1,2,.49,3.39,3.39,0,0,1,1.27,1.25v-1.6H170V364h-1.47v-1.63a3.47,3.47,0,0,1-1.3,1.28,3.85,3.85,0,0,1-2,.49,4,4,0,0,1-2.11-.57,4.09,4.09,0,0,1-1.49-1.62A4.93,4.93,0,0,1,161.06,359.58Zm7.43,0a3.65,3.65,0,0,0-.4-1.73,2.8,2.8,0,0,0-1.09-1.12,2.85,2.85,0,0,0-1.49-.4,2.93,2.93,0,0,0-1.49.39,2.7,2.7,0,0,0-1.07,1.12,3.5,3.5,0,0,0-.4,1.72,3.63,3.63,0,0,0,.4,1.76,2.91,2.91,0,0,0,5.14,0A3.72,3.72,0,0,0,168.49,359.6Zm7.19,3.06,2.72-7.43H180L176.52,364h-1.7l-3.44-8.77H173Zm13.71-3.38c0,.28,0,.57,0,.88h-7a2.92,2.92,0,0,0,.88,2,2.88,2.88,0,0,0,2,.72,2.69,2.69,0,0,0,1.57-.43,2.32,2.32,0,0,0,.89-1.18h1.57a3.74,3.74,0,0,1-1.41,2.06,4.27,4.27,0,0,1-2.62.78,4.41,4.41,0,0,1-2.24-.56A4,4,0,0,1,181.4,362a5.42,5.42,0,0,1,0-4.78,3.72,3.72,0,0,1,1.52-1.57,4.84,4.84,0,0,1,4.48,0,3.69,3.69,0,0,1,1.47,1.51A4.33,4.33,0,0,1,189.39,359.28Zm-1.51-.3a2.71,2.71,0,0,0-.36-1.43,2.4,2.4,0,0,0-1-.91,3.06,3.06,0,0,0-1.39-.32,2.71,2.71,0,0,0-1.89.7,2.88,2.88,0,0,0-.88,2Zm5.21-2.55v5.17a1.25,1.25,0,0,0,.27.91,1.35,1.35,0,0,0,.94.26h1.07V364h-1.31a2.61,2.61,0,0,1-1.82-.56,2.39,2.39,0,0,1-.61-1.84v-5.17h-1.14v-1.2h1.14V353h1.46v2.21h2.28v1.2Zm7.15,7.71a4.75,4.75,0,0,1-1.81-.33,3.25,3.25,0,0,1-1.26-1,2.58,2.58,0,0,1-.51-1.43h1.5a1.54,1.54,0,0,0,.61,1.08,2.43,2.43,0,0,0,1.46.41,2.08,2.08,0,0,0,1.31-.37,1.11,1.11,0,0,0,.48-.92.89.89,0,0,0-.51-.85,7,7,0,0,0-1.59-.56,13.34,13.34,0,0,1-1.6-.51,3.1,3.1,0,0,1-1-.79,2.09,2.09,0,0,1-.44-1.37,2.15,2.15,0,0,1,.4-1.24,2.77,2.77,0,0,1,1.14-.88,4.06,4.06,0,0,1,1.68-.33,3.59,3.59,0,0,1,2.35.73,2.66,2.66,0,0,1,1,2h-1.45a1.5,1.5,0,0,0-.56-1.1,2,2,0,0,0-1.35-.42,2.06,2.06,0,0,0-1.25.34,1.08,1.08,0,0,0-.19,1.6,2.19,2.19,0,0,0,.71.44c.28.11.68.23,1.18.37a12,12,0,0,1,1.54.51,2.52,2.52,0,0,1,1,.74,2,2,0,0,1,.45,1.3,2.17,2.17,0,0,1-.4,1.29,2.58,2.58,0,0,1-1.13.91A4,4,0,0,1,200.24,364.14Zm11-7.28a3.58,3.58,0,0,1,1.31-1.28,3.89,3.89,0,0,1,2-.49,4,4,0,0,1,2.13.56,4,4,0,0,1,1.49,1.58,4.91,4.91,0,0,1,.54,2.35,5,5,0,0,1-.54,2.37,4.14,4.14,0,0,1-1.51,1.62,4,4,0,0,1-2.11.57,3.93,3.93,0,0,1-2-.49,3.32,3.32,0,0,1-1.28-1.27V364h-1.46V352.16h1.46Zm5.95,2.72a3.5,3.5,0,0,0-.4-1.72,2.62,2.62,0,0,0-1.09-1.12,3,3,0,0,0-3,0,2.92,2.92,0,0,0-1.09,1.14,3.48,3.48,0,0,0-.4,1.71,3.6,3.6,0,0,0,.4,1.74,3.07,3.07,0,0,0,1.09,1.14,3,3,0,0,0,1.49.38,2.83,2.83,0,0,0,2.57-1.52A3.63,3.63,0,0,0,217.17,359.58Zm11.18-4.35V364H226.9v-1.3a2.93,2.93,0,0,1-1.17,1.06,3.55,3.55,0,0,1-1.63.37,3.93,3.93,0,0,1-1.84-.42,3.14,3.14,0,0,1-1.3-1.28,4.21,4.21,0,0,1-.46-2.06v-5.14h1.44v4.95a2.82,2.82,0,0,0,.65,2,2.7,2.7,0,0,0,3.63,0,3,3,0,0,0,.68-2.09v-4.82Zm6.73-.16a3.53,3.53,0,0,1,2.59,1,3.67,3.67,0,0,1,1,2.78V364h-1.44v-5a2.79,2.79,0,0,0-.66-2,2.32,2.32,0,0,0-1.79-.7,2.43,2.43,0,0,0-1.84.72,2.93,2.93,0,0,0-.67,2.09V364h-1.46v-8.77h1.46v1.25a2.78,2.78,0,0,1,1.16-1A3.8,3.8,0,0,1,235.08,355.07Zm5.42,4.51a4.91,4.91,0,0,1,.54-2.35,4,4,0,0,1,1.49-1.58,4.13,4.13,0,0,1,2.15-.56,3.91,3.91,0,0,1,1.9.48,3.37,3.37,0,0,1,1.35,1.23v-4.64h1.47V364h-1.47v-1.65a3.47,3.47,0,0,1-1.28,1.3,3.89,3.89,0,0,1-2,.49,4.09,4.09,0,0,1-2.13-.57A4.17,4.17,0,0,1,241,362,5,5,0,0,1,240.5,359.58Zm7.43,0a3.54,3.54,0,0,0-.41-1.73,2.71,2.71,0,0,0-1.08-1.12,2.85,2.85,0,0,0-1.49-.4,2.91,2.91,0,0,0-1.49.39,2.64,2.64,0,0,0-1.07,1.12,3.5,3.5,0,0,0-.4,1.72,3.63,3.63,0,0,0,.4,1.76,2.77,2.77,0,0,0,2.56,1.52,2.93,2.93,0,0,0,1.49-.38,2.83,2.83,0,0,0,1.08-1.14A3.61,3.61,0,0,0,247.93,359.6Zm4.39,4.5a1,1,0,0,1-.7-.29,1,1,0,0,1,0-1.41,1,1,0,0,1,.7-.29.88.88,0,0,1,.67.29,1,1,0,0,1,0,1.41A.88.88,0,0,1,252.32,364.1Z"/>
      <path d="M37.44,277.27a2.47,2.47,0,0,1,1.55,1A2.73,2.73,0,0,1,39.6,280a2.84,2.84,0,0,1-.45,1.58,2.94,2.94,0,0,1-1.26,1.06,4.77,4.77,0,0,1-2,.38H31.1V271.83h4.61a4.62,4.62,0,0,1,1.95.37,2.79,2.79,0,0,1,1.25,1,2.65,2.65,0,0,1,.43,1.49,2.51,2.51,0,0,1-.52,1.63A2.75,2.75,0,0,1,37.44,277.27Zm-4.1-.83h2a1.9,1.9,0,0,0,1.23-.35,1.29,1.29,0,0,0,.44-1,1.28,1.28,0,0,0-.44-1,1.79,1.79,0,0,0-1.23-.37h-2Zm2.26,4.74a1.85,1.85,0,0,0,1.26-.39,1.33,1.33,0,0,0,.47-1.09,1.38,1.38,0,0,0-.48-1.12,2,2,0,0,0-1.3-.41H33.34v3Zm14-2.8a5.54,5.54,0,0,1-.07.86H43.08a2.19,2.19,0,0,0,.67,1.5,2.06,2.06,0,0,0,1.46.55A1.85,1.85,0,0,0,47,280.22H49.4a4.1,4.1,0,0,1-1.47,2.11,4.36,4.36,0,0,1-2.67.81,4.67,4.67,0,0,1-2.31-.56A4.08,4.08,0,0,1,41.37,281a5,5,0,0,1-.56-2.4,5.08,5.08,0,0,1,.56-2.42,3.9,3.9,0,0,1,1.57-1.6,4.71,4.71,0,0,1,2.32-.56,4.52,4.52,0,0,1,2.25.55,3.76,3.76,0,0,1,1.56,1.55A4.6,4.6,0,0,1,49.63,278.38Zm-2.32-.64a1.77,1.77,0,0,0-.63-1.38,2.19,2.19,0,0,0-1.49-.53,2,2,0,0,0-1.4.51,2.16,2.16,0,0,0-.69,1.4Zm7.34,5.4a4.71,4.71,0,0,1-1.95-.38,3.64,3.64,0,0,1-1.38-1.07,2.74,2.74,0,0,1-.54-1.49H53a1.23,1.23,0,0,0,.49.85,1.83,1.83,0,0,0,1.11.33,1.69,1.69,0,0,0,1-.25.79.79,0,0,0,.37-.66.68.68,0,0,0-.45-.64,7.36,7.36,0,0,0-1.39-.48,12.37,12.37,0,0,1-1.64-.49,3.08,3.08,0,0,1-1.08-.79,2.12,2.12,0,0,1-.45-1.42,2.41,2.41,0,0,1,.41-1.35,3,3,0,0,1,1.22-1,4.69,4.69,0,0,1,1.87-.35,3.8,3.8,0,0,1,2.53.8,2.9,2.9,0,0,1,1,2.13H55.92a1.17,1.17,0,0,0-.45-.83,1.6,1.6,0,0,0-1-.32,1.71,1.71,0,0,0-1,.22.76.76,0,0,0,.13,1.31,7.28,7.28,0,0,0,1.39.47,12.32,12.32,0,0,1,1.59.49,2.77,2.77,0,0,1,1.07.8,2.14,2.14,0,0,1,.48,1.41,2.33,2.33,0,0,1-.43,1.38,2.85,2.85,0,0,1-1.22,1A4.69,4.69,0,0,1,54.65,283.14ZM65.23,283l-3-3.78V283H60V271.16h2.24v6.74l3-3.76h2.92l-3.91,4.44L68.14,283Zm6.33-7.49a3.1,3.1,0,0,1,1.12-1.1,3.17,3.17,0,0,1,1.6-.4v2.35h-.59a2.26,2.26,0,0,0-1.6.5,2.3,2.3,0,0,0-.53,1.72V283H69.32v-8.86h2.24Zm5.37-2.43a1.37,1.37,0,0,1-1-.37,1.26,1.26,0,0,1-.39-.94,1.21,1.21,0,0,1,.39-.93,1.33,1.33,0,0,1,1-.38,1.29,1.29,0,0,1,1,.38,1.18,1.18,0,0,1,.4.93,1.23,1.23,0,0,1-.4.94A1.32,1.32,0,0,1,76.93,273.08Zm1.1,1.06V283H75.79v-8.86Zm5.91,6.8,2.24-6.8h2.38L85.28,283H82.56l-3.26-8.86h2.4Zm14.12-2.56a5.61,5.61,0,0,1-.06.86H91.52a2.19,2.19,0,0,0,.67,1.5,2.06,2.06,0,0,0,1.46.55,1.83,1.83,0,0,0,1.77-1.07h2.42a4.16,4.16,0,0,1-1.47,2.11,4.37,4.37,0,0,1-2.68.81,4.64,4.64,0,0,1-2.3-.56A4.08,4.08,0,0,1,89.81,281a4.92,4.92,0,0,1-.56-2.4,5,5,0,0,1,.56-2.42,3.88,3.88,0,0,1,1.56-1.6,4.77,4.77,0,0,1,2.32-.56,4.53,4.53,0,0,1,2.26.55,3.74,3.74,0,0,1,1.55,1.55A4.49,4.49,0,0,1,98.06,278.38Zm-2.32-.64a1.76,1.76,0,0,0-.62-1.38,2.21,2.21,0,0,0-1.49-.53,2.07,2.07,0,0,0-1.41.51,2.25,2.25,0,0,0-.69,1.4Zm6.2-6.58V283H99.7V271.16Zm5.6,12a4.71,4.71,0,0,1-2-.38,3.64,3.64,0,0,1-1.38-1.07,2.74,2.74,0,0,1-.54-1.49h2.26a1.27,1.27,0,0,0,.49.85,1.83,1.83,0,0,0,1.11.33,1.69,1.69,0,0,0,1-.25.79.79,0,0,0,.37-.66.68.68,0,0,0-.45-.64,7.36,7.36,0,0,0-1.39-.48,12.17,12.17,0,0,1-1.63-.49,3,3,0,0,1-1.09-.79,2.12,2.12,0,0,1-.45-1.42,2.41,2.41,0,0,1,.41-1.35,3,3,0,0,1,1.22-1,4.69,4.69,0,0,1,1.87-.35,3.8,3.8,0,0,1,2.53.8,2.9,2.9,0,0,1,1,2.13h-2.14a1.1,1.1,0,0,0-.45-.83,1.6,1.6,0,0,0-1-.32,1.65,1.65,0,0,0-.94.22.71.71,0,0,0-.32.63.73.73,0,0,0,.44.68,7.54,7.54,0,0,0,1.39.47,11.84,11.84,0,0,1,1.59.49,2.77,2.77,0,0,1,1.07.8,2.14,2.14,0,0,1,.48,1.41,2.33,2.33,0,0,1-.43,1.38,2.85,2.85,0,0,1-1.22,1A4.69,4.69,0,0,1,107.54,283.14Zm13.57-4.76a5.61,5.61,0,0,1-.06.86h-6.48a2.15,2.15,0,0,0,.67,1.5,2,2,0,0,0,1.45.55,1.83,1.83,0,0,0,1.78-1.07h2.42a4.12,4.12,0,0,1-1.48,2.11,4.32,4.32,0,0,1-2.67.81,4.64,4.64,0,0,1-2.3-.56,4.17,4.17,0,0,1-1.59-1.61,5,5,0,0,1-.56-2.4,5.08,5.08,0,0,1,.56-2.42,4,4,0,0,1,1.57-1.6,4.74,4.74,0,0,1,2.32-.56,4.56,4.56,0,0,1,2.26.55,3.74,3.74,0,0,1,1.55,1.55A4.6,4.6,0,0,1,121.11,278.38Zm-2.32-.64a1.76,1.76,0,0,0-.62-1.38,2.23,2.23,0,0,0-1.49-.53,2,2,0,0,0-1.41.51,2.25,2.25,0,0,0-.69,1.4Z"/>
      <path d="M237.41,446.64v.88h-3.63v2.82h2.95v.89h-2.95V455h-1.09v-8.36Zm4.19,8.47a3.43,3.43,0,0,1-1.68-.42,3.14,3.14,0,0,1-1.18-1.19,3.74,3.74,0,0,1-.42-1.8,3.59,3.59,0,0,1,.44-1.78,2.9,2.9,0,0,1,1.2-1.18,3.61,3.61,0,0,1,3.38,0,2.91,2.91,0,0,1,1.19,1.17,3.84,3.84,0,0,1,0,3.59,3.1,3.1,0,0,1-1.22,1.19A3.46,3.46,0,0,1,241.6,455.11Zm0-1a2.29,2.29,0,0,0,1.11-.28,2,2,0,0,0,.82-.83,2.54,2.54,0,0,0,.33-1.34,2.63,2.63,0,0,0-.32-1.34,1.94,1.94,0,0,0-.81-.82,2.3,2.3,0,0,0-1.09-.28,2.34,2.34,0,0,0-1.11.28,2,2,0,0,0-.79.82,2.74,2.74,0,0,0-.3,1.34,2.94,2.94,0,0,0,.29,1.36,2,2,0,0,0,.79.82A2.22,2.22,0,0,0,241.6,454.15Zm5.9-4.66a2,2,0,0,1,.82-.87,2.53,2.53,0,0,1,1.3-.32v1.13h-.28c-1.23,0-1.84.67-1.84,2V455h-1.09v-6.58h1.09Zm9.79-1.19a2.63,2.63,0,0,1,1.94.74,2.74,2.74,0,0,1,.75,2.08V455H258.9v-3.72a2.07,2.07,0,0,0-.5-1.5,1.73,1.73,0,0,0-1.34-.53,1.81,1.81,0,0,0-1.38.54,2.21,2.21,0,0,0-.5,1.57V455h-1.1v-6.58h1.1v.94a2.06,2.06,0,0,1,.87-.78A2.86,2.86,0,0,1,257.29,448.3Zm10.13.12-4,9.68h-1.12l1.29-3.17L261,448.42h1.21l2.07,5.33,2-5.33Zm7.1,3q0,.32,0,.66h-5.26a2.13,2.13,0,0,0,.66,1.52,2.16,2.16,0,0,0,1.48.54,2,2,0,0,0,1.17-.32,1.7,1.7,0,0,0,.67-.89h1.18a2.89,2.89,0,0,1-1.06,1.55,3.19,3.19,0,0,1-2,.59,3.33,3.33,0,0,1-1.68-.42,3,3,0,0,1-1.16-1.19,3.74,3.74,0,0,1-.42-1.8,3.78,3.78,0,0,1,.41-1.79,2.8,2.8,0,0,1,1.14-1.17,3.44,3.44,0,0,1,1.71-.42,3.3,3.3,0,0,1,1.65.4,2.87,2.87,0,0,1,1.11,1.13A3.28,3.28,0,0,1,274.52,451.46Zm-1.13-.23a2,2,0,0,0-.27-1.07,1.78,1.78,0,0,0-.76-.68,2.24,2.24,0,0,0-1-.24,2.07,2.07,0,0,0-1.42.53,2.19,2.19,0,0,0-.66,1.46Zm-45.64,23.88a3.62,3.62,0,0,1-1.36-.25,2.5,2.5,0,0,1-.95-.72,2,2,0,0,1-.38-1.07h1.13a1.1,1.1,0,0,0,.45.8,1.79,1.79,0,0,0,1.1.31,1.61,1.61,0,0,0,1-.27.86.86,0,0,0,.36-.7.66.66,0,0,0-.38-.63,4.8,4.8,0,0,0-1.19-.42,9.45,9.45,0,0,1-1.2-.39,2.08,2.08,0,0,1-.79-.59,1.53,1.53,0,0,1-.33-1,1.56,1.56,0,0,1,.3-.92,2,2,0,0,1,.85-.66,3,3,0,0,1,1.26-.25,2.7,2.7,0,0,1,1.77.55,2,2,0,0,1,.72,1.51H229a1.18,1.18,0,0,0-.42-.83,1.52,1.52,0,0,0-1-.31,1.56,1.56,0,0,0-.94.25.79.79,0,0,0-.35.66.73.73,0,0,0,.21.54,1.67,1.67,0,0,0,.53.34c.21.08.51.17.88.27a8.62,8.62,0,0,1,1.16.39,1.92,1.92,0,0,1,.75.55,1.46,1.46,0,0,1,.34,1,1.64,1.64,0,0,1-.3,1,2.09,2.09,0,0,1-.85.69A3.06,3.06,0,0,1,227.75,475.11Zm3.53-3.42a3.73,3.73,0,0,1,.41-1.77,2.9,2.9,0,0,1,1.12-1.18,3.1,3.1,0,0,1,1.59-.42,2.88,2.88,0,0,1,1.5.37,2.5,2.5,0,0,1,.95.93v-1.2H238V475h-1.1v-1.22a2.7,2.7,0,0,1-1,1,3,3,0,0,1-1.49.37,3,3,0,0,1-1.58-.43,3,3,0,0,1-1.12-1.22A3.79,3.79,0,0,1,231.28,471.69Zm5.57,0a2.68,2.68,0,0,0-.3-1.3,2.14,2.14,0,0,0-.82-.84,2.1,2.1,0,0,0-1.11-.3,2.25,2.25,0,0,0-1.12.29,2.09,2.09,0,0,0-.8.84,2.68,2.68,0,0,0-.3,1.3,2.79,2.79,0,0,0,.3,1.32,2.19,2.19,0,0,0,.8.85,2.25,2.25,0,0,0,1.12.29,2.19,2.19,0,0,0,1.11-.29,2.1,2.1,0,0,0,.82-.85A2.75,2.75,0,0,0,236.85,471.7Zm-.73-5.24a1.23,1.23,0,0,1-.37.92,1.32,1.32,0,0,1-.92.34,1.29,1.29,0,0,1-.91-.35,1.18,1.18,0,0,1-.37-.91,1.21,1.21,0,0,1,.37-.92,1.4,1.4,0,0,1,1.83,0A1.21,1.21,0,0,1,236.12,466.46Zm-.64,0a.62.62,0,0,0-.19-.48.63.63,0,0,0-.46-.19.64.64,0,0,0-.46.19.65.65,0,0,0-.18.48.71.71,0,0,0,.18.5.64.64,0,0,0,.46.19.63.63,0,0,0,.46-.19A.68.68,0,0,0,235.48,466.44Zm6.77,7.55,2-5.57h1.16L242.87,475H241.6L239,468.42h1.18Zm10.28-2.53c0,.21,0,.43,0,.66h-5.26a2.13,2.13,0,0,0,.66,1.52,2.16,2.16,0,0,0,1.48.54,2,2,0,0,0,1.18-.32,1.75,1.75,0,0,0,.67-.89h1.17a2.82,2.82,0,0,1-1,1.55,3.24,3.24,0,0,1-2,.59,3.38,3.38,0,0,1-1.68-.42,3,3,0,0,1-1.15-1.19,3.74,3.74,0,0,1-.42-1.8,3.67,3.67,0,0,1,.41-1.79,2.8,2.8,0,0,1,1.14-1.17,3.65,3.65,0,0,1,3.36,0,2.85,2.85,0,0,1,1.1,1.13A3.28,3.28,0,0,1,252.53,471.46Zm-1.13-.23a2,2,0,0,0-.28-1.07,1.7,1.7,0,0,0-.75-.68,2.28,2.28,0,0,0-1.05-.24,2,2,0,0,0-1.41.53,2.11,2.11,0,0,0-.66,1.46Zm3.66-5.11V475H254v-8.88Zm7.39,9a3.62,3.62,0,0,1-1.36-.25,2.5,2.5,0,0,1-.95-.72,2,2,0,0,1-.38-1.07h1.13a1.1,1.1,0,0,0,.45.8,1.78,1.78,0,0,0,1.09.31,1.62,1.62,0,0,0,1-.27.86.86,0,0,0,.36-.7.66.66,0,0,0-.39-.63,4.55,4.55,0,0,0-1.18-.42,9.45,9.45,0,0,1-1.2-.39,2.19,2.19,0,0,1-.8-.59,1.59,1.59,0,0,1-.32-1,1.56,1.56,0,0,1,.3-.92,2,2,0,0,1,.85-.66,3,3,0,0,1,1.26-.25,2.7,2.7,0,0,1,1.77.55,2,2,0,0,1,.72,1.51H263.7a1.15,1.15,0,0,0-.43-.83,1.48,1.48,0,0,0-1-.31,1.56,1.56,0,0,0-.94.25.79.79,0,0,0-.35.66.73.73,0,0,0,.21.54,1.74,1.74,0,0,0,.52.34c.22.08.52.17.89.27a8.62,8.62,0,0,1,1.16.39,1.92,1.92,0,0,1,.75.55,1.46,1.46,0,0,1,.34,1,1.64,1.64,0,0,1-.3,1,2.09,2.09,0,0,1-.85.69A3.1,3.1,0,0,1,262.45,475.11Zm6.81,0a3.38,3.38,0,0,1-1.68-.42,3.07,3.07,0,0,1-1.18-1.19,3.74,3.74,0,0,1-.42-1.8,3.58,3.58,0,0,1,.43-1.78,3,3,0,0,1,1.2-1.18,3.63,3.63,0,0,1,3.39,0,2.89,2.89,0,0,1,1.18,1.17,3.77,3.77,0,0,1,0,3.59,3.08,3.08,0,0,1-1.21,1.19A3.48,3.48,0,0,1,269.26,475.11Zm0-1a2.22,2.22,0,0,0,1.1-.28,2.07,2.07,0,0,0,.83-.83,3,3,0,0,0,0-2.68,2.06,2.06,0,0,0-.81-.82,2.33,2.33,0,0,0-1.1-.28,2.28,2.28,0,0,0-1.1.28,2,2,0,0,0-.79.82,2.74,2.74,0,0,0-.3,1.34,2.82,2.82,0,0,0,.29,1.36,2,2,0,0,0,.79.82A2.19,2.19,0,0,0,269.26,474.15ZM282,468.3a2.8,2.8,0,0,1,1.37.33,2.23,2.23,0,0,1,1,.95,3.19,3.19,0,0,1,.35,1.54V475h-1.08v-3.72a2.11,2.11,0,0,0-.49-1.5,1.71,1.71,0,0,0-1.31-.53,1.78,1.78,0,0,0-1.36.55,2.27,2.27,0,0,0-.5,1.58V475h-1.08v-3.72a2.11,2.11,0,0,0-.49-1.5,1.69,1.69,0,0,0-1.31-.53,1.78,1.78,0,0,0-1.36.55,2.27,2.27,0,0,0-.5,1.58V475h-1.09v-6.58h1.09v.95a2.11,2.11,0,0,1,.86-.79,2.73,2.73,0,0,1,1.21-.28,2.85,2.85,0,0,1,1.47.38,2.2,2.2,0,0,1,.94,1.09,2.12,2.12,0,0,1,.92-1.08A2.62,2.62,0,0,1,282,468.3ZM229.29,494l2-5.57h1.17L229.92,495h-1.28l-2.58-6.58h1.18Zm10.28-2.53a5.07,5.07,0,0,1,0,.66h-5.25a2.13,2.13,0,0,0,.66,1.52,2.15,2.15,0,0,0,1.47.54,2,2,0,0,0,1.18-.32,1.75,1.75,0,0,0,.67-.89h1.18a2.89,2.89,0,0,1-1.06,1.55,3.22,3.22,0,0,1-2,.59,3.38,3.38,0,0,1-1.68-.42,3.06,3.06,0,0,1-1.15-1.19,3.74,3.74,0,0,1-.42-1.8,3.78,3.78,0,0,1,.41-1.79,2.8,2.8,0,0,1,1.14-1.17,3.4,3.4,0,0,1,1.7-.42,3.32,3.32,0,0,1,1.66.4,2.78,2.78,0,0,1,1.1,1.13A3.18,3.18,0,0,1,239.57,491.46Zm-1.13-.23a2,2,0,0,0-.27-1.07,1.78,1.78,0,0,0-.76-.68,2.24,2.24,0,0,0-1-.24,2,2,0,0,0-1.42.53,2.19,2.19,0,0,0-.66,1.46Zm3.9-1.91v3.88a.91.91,0,0,0,.21.68,1,1,0,0,0,.71.2h.8V495h-1a2,2,0,0,1-1.37-.42,1.78,1.78,0,0,1-.46-1.38v-3.88h-.85v-.9h.85v-1.65h1.09v1.65h1.72v.9Zm9,2.14q0,.32,0,.66h-5.26a2.13,2.13,0,0,0,.66,1.52,2.16,2.16,0,0,0,1.48.54,2,2,0,0,0,1.17-.32,1.7,1.7,0,0,0,.67-.89h1.18a2.92,2.92,0,0,1-1.05,1.55,3.24,3.24,0,0,1-2,.59,3.33,3.33,0,0,1-1.68-.42,3,3,0,0,1-1.15-1.19,3.74,3.74,0,0,1-.42-1.8,3.78,3.78,0,0,1,.4-1.79,2.86,2.86,0,0,1,1.14-1.17,3.44,3.44,0,0,1,1.71-.42,3.3,3.3,0,0,1,1.65.4,2.87,2.87,0,0,1,1.11,1.13A3.28,3.28,0,0,1,251.38,491.46Zm-1.12-.23a2.05,2.05,0,0,0-.28-1.07,1.78,1.78,0,0,0-.76-.68,2.24,2.24,0,0,0-1-.24,2.07,2.07,0,0,0-1.42.53,2.19,2.19,0,0,0-.66,1.46Zm3.66-1.74a2.07,2.07,0,0,1,.81-.87,2.57,2.57,0,0,1,1.31-.32v1.13h-.29c-1.22,0-1.83.67-1.83,2V495h-1.1v-6.58h1.1Zm3,2.2a3.73,3.73,0,0,1,.41-1.77,3,3,0,0,1,1.12-1.18,3.1,3.1,0,0,1,1.59-.42,2.88,2.88,0,0,1,1.5.37,2.5,2.5,0,0,1,.95.93v-1.2h1.11V495h-1.11v-1.22a2.7,2.7,0,0,1-1,1,3,3,0,0,1-1.49.37,3,3,0,0,1-1.58-.43,3.07,3.07,0,0,1-1.12-1.22A3.79,3.79,0,0,1,256.89,491.69Zm5.57,0a2.68,2.68,0,0,0-.3-1.3,2.18,2.18,0,0,0-.81-.84,2.16,2.16,0,0,0-1.12-.3,2.25,2.25,0,0,0-1.12.29,2.09,2.09,0,0,0-.8.84,2.68,2.68,0,0,0-.3,1.3,2.79,2.79,0,0,0,.3,1.32,2.19,2.19,0,0,0,.8.85,2.31,2.31,0,0,0,2.24,0,2.14,2.14,0,0,0,.81-.85A2.75,2.75,0,0,0,262.46,491.7Zm6.15-3.4a2.67,2.67,0,0,1,1.95.74,2.78,2.78,0,0,1,.74,2.08V495h-1.08v-3.72a2.07,2.07,0,0,0-.49-1.5,1.76,1.76,0,0,0-1.34-.53,1.81,1.81,0,0,0-1.38.54,2.21,2.21,0,0,0-.51,1.57V495h-1.09v-6.58h1.09v.94a2.14,2.14,0,0,1,.88-.78A2.81,2.81,0,0,1,268.61,488.3Zm10.48,3.16c0,.21,0,.43,0,.66h-5.26a2.13,2.13,0,0,0,.66,1.52,2.16,2.16,0,0,0,1.48.54,2,2,0,0,0,1.18-.32,1.75,1.75,0,0,0,.67-.89H279a2.82,2.82,0,0,1-1.05,1.55,3.24,3.24,0,0,1-2,.59,3.38,3.38,0,0,1-1.68-.42,3,3,0,0,1-1.15-1.19,3.74,3.74,0,0,1-.42-1.8,3.67,3.67,0,0,1,.41-1.79,2.8,2.8,0,0,1,1.14-1.17,3.65,3.65,0,0,1,3.36,0,2.85,2.85,0,0,1,1.1,1.13A3.28,3.28,0,0,1,279.09,491.46Zm-1.13-.23a2,2,0,0,0-.28-1.07,1.7,1.7,0,0,0-.75-.68,2.28,2.28,0,0,0-1.05-.24,2,2,0,0,0-1.41.53,2.11,2.11,0,0,0-.66,1.46Zm3.66-1.74a2,2,0,0,1,.82-.87,2.53,2.53,0,0,1,1.3-.32v1.13h-.28c-1.23,0-1.84.67-1.84,2V495h-1.09v-6.58h1.09Z"/>
      <path d="M255,521a50,50,0,1,0-50-50A50,50,0,0,0,255,521Z" fill="none" stroke="#fcf2d6" stroke-miterlimit="10" stroke-width="7"/>
      <path d="M255,421a50,50,0,1,1-38.63,18.25" fill="none" stroke="#f3a917" stroke-miterlimit="10" stroke-width="7"/>
      <a xlink:href="javascript:void(0);" target="_parent" cursor="pointer"><rect id="anchor" x="30.01" y="574.72" width="274.98" height="31.56" fill="#fafafa" opacity="0"/></a>
    </g>
  </g>
</svg>
