<svg xmlns="http://www.w3.org/2000/svg" width="454" height="195" viewBox="0 0 454 195">
  <g id="Layer_2" data-name="Layer 2">
    <g id="arrow">
      <path d="M174.9285,15.17,104.81,56.0655,85.0221,67.6066a2.5,2.5,0,1,0,2.5236,4.3173,442.3363,442.3363,0,0,1,54.1806-20.7086L139.8,46.6459c-12.37,9.18-26.7336,14.9557-40.9463,20.6084C84.5693,72.9355,69.9929,78.6272,57.4876,87.755c-3.0468,2.2238-6.3738,4.5447-8.64,7.6013-2.0847,2.812-3.4383,7.0336-.8216,9.9673,3.42,3.8349,8.4684,1.1178,11.9189-1.0546L72.4,96.4276,122.4306,64.929l49.82-31.3656,6.333-3.9871-3.03-3.9265C163.38,38.2533,148.2077,47.2167,132.6674,55.0361c-15.795,7.9476-32.136,14.8391-47.4674,23.6893a149.7476,149.7476,0,0,0-24.3892,17.23c-1.5345,1.3549-.3876,4.5066,1.7678,4.2677,19.7139-2.185,38.9327,4.5481,57.5228,10.1685l58.6259,17.7244,33.0219,9.9836,1.3292-4.8214q-32.1959-5.9035-64.3917-11.8066c-21.2715-3.8931-42.5789-7.6819-64.0691-10.1674-12.04-1.3925-24.13-2.3534-36.2476-2.6841-2.9578-.0807-3.2064,3.9919-.6646,4.9107,16.4632,5.951,34.1168,7.1874,51.41,8.7726l54.5783,5.0031,31.01,2.8426-.6646-4.9107c-15.5294,3.4479-31.8161.6193-47.3907-1.1L88.0248,118.77l-27.2891-3.0126a2.4714,2.4714,0,0,0-2.4553,2.1677,2.5182,2.5182,0,0,0,1.7907,2.743L118.9,139.6339l58.3539,18.8127,33.21,10.7064c2.7666.8919,4.2693-3.1,1.9264-4.5694a406.15,406.15,0,0,0-52.5222-27.81,411.1338,411.1338,0,0,0-55.7534-19.8651q-16.1675-4.4664-32.6657-7.5808a2.5126,2.5126,0,0,0-1.9264,4.5694,89.3463,89.3463,0,0,0,52.46,15.8586c3.2133-.063,3.2241-5.0632,0-5A84.745,84.745,0,0,1,72.0453,109.58l-1.9264,4.5694a406.139,406.139,0,0,1,57.0089,15.1371,402.44,402.44,0,0,1,54.0173,23.1868q14.69,7.6206,28.7207,16.4277l1.9264-4.5694L152.9638,145.366,94.61,126.5533,61.4,115.8469l-.6646,4.9107,49.12,5.4226,24.8083,2.7388c7.9436.8769,15.8874,1.8842,23.8582,2.4823,8.9722.6731,18.0256.6166,26.8464-1.3418a2.4853,2.4853,0,0,0,1.7908-2.743,2.5366,2.5366,0,0,0-2.4554-2.1677l-54.33-4.98-27.2892-2.5015c-8.6658-.7944-17.35-1.49-25.9834-2.5927a131.24,131.24,0,0,1-28.0671-6.3652L48.37,113.62c21.41.5844,42.6986,3.1607,63.8315,6.5394,21.2382,3.3955,42.37,7.4557,63.5235,11.3345l36.0242,6.6056c3.1266.5733,4.4541-3.8767,1.3292-4.8214l-59.1045-17.8691L124.5414,106.51c-9.5758-2.8951-19.124-5.9756-28.8549-8.3171-10.806-2.6-21.9979-4.2019-33.1079-2.97l1.7677,4.2678c13.1945-11.6508,28.9095-19.92,44.6646-27.5332,15.85-7.6593,32.0769-14.7349,46.9554-24.2228a126.5318,126.5318,0,0,0,23.1228-18.5492c1.9267-1.9947-.5649-5.4782-3.03-3.9265L127.9288,55.5613l-47.92,30.17c-8.006,5.04-15.9607,10.1754-24.0241,15.1233-1.0158.6234-2.8674,1.9136-4.0931,1.2457a.5307.5307,0,0,1-.3243-.4423,2.9108,2.9108,0,0,1,.2766-1.57c1.1835-3.0025,4.3132-5.0984,6.7757-6.9787,11.642-8.89,25.3178-14.5576,38.8252-19.9439,13.8273-5.514,27.9323-10.8476,40.4255-19.0824q2.2705-1.4965,4.4529-3.12a2.5364,2.5364,0,0,0,1.0229-3.1219,2.494,2.494,0,0,0-2.9493-1.4475,452.222,452.222,0,0,0-55.375,21.2127l2.5236,4.3173L157.664,31.0282l19.7881-11.5411c2.7782-1.62.2643-5.9433-2.5236-4.3173Z" fill="#231f20"/>
      <path d="M412.0137,98.0091q-63.1261-1.7214-126.2595-3.1608T159.4818,92.2548q-35.33-.6462-70.6612-1.2036v5l92.2162.5049,92.5654.5069,52.0463.2849v-5l-133.5264.8058-37.7509.2278c-2.7075.0163-3.5384,4.5191-.6646,4.9107,36.7634,5.01,73.8047,7.4679,110.87,8.7654,37.0885,1.2984,74.2086,1.5716,111.3141,2.0666l63.21.8432c3.2389.0432,3.191-4.8112,0-5Q386.8575,101.8756,334.559,99.84,282.09,97.8005,229.5858,96.832q-29.4769-.5437-58.9586-.75v5q38.0565-1.186,76.0936-2.9106,37.8614-1.7193,75.6956-3.9763,21.4446-1.2794,42.8783-2.7315c3.18-.2153,3.2519-4.9722,0-5l-116.504-.9963-32.7886-.28c-3.2182-.0275-3.2212,4.9725,0,5l116.5041.9963,32.7885.28v-5q-37.9881,2.5712-76.01,4.6047-37.8464,2.0214-75.7189,3.5051-21.4662.8408-42.9387,1.5086c-3.2086.1-3.2293,4.9772,0,5q52.3334.3691,104.652,1.7954,52.4895,1.4346,104.9425,3.94,29.4483,1.4064,58.8791,3.15v-5q-55.79-.7443-111.58-1.4945c-36.8816-.53-73.7807-1.2971-110.5886-3.8195-20.6885-1.4177-41.347-3.3824-61.8963-6.1826l-.6646,4.9107,133.5264-.8058,37.7509-.2278c3.217-.0194,3.2225-4.9823,0-5l-92.2162-.5049-92.5655-.5068-52.0462-.285c-3.22-.0176-3.2192,4.9492,0,5q63.1417.9969,126.2785,2.276t126.267,2.8434q35.3248.8748,70.6476,1.8385c3.2186.0878,3.2164-4.9123,0-5Z" fill="#231f20"/>
      <path d="M27.818,104.022c7.0248,3.3385,14.7024,4.107,22.2152,5.73a113.0577,113.0577,0,0,1,21.7347,7.0069,117.6471,117.6471,0,0,1,11.677,5.9624c2.7867,1.6215,5.3066-2.698,2.5236-4.3174a120.5505,120.5505,0,0,0-21.1123-9.69,157.0162,157.0162,0,0,0-22.321-5.4647,49.9588,49.9588,0,0,1-12.1936-3.5449,2.5691,2.5691,0,0,0-3.4205.8969,2.5218,2.5218,0,0,0,.8969,3.4205Z" fill="#231f20"/>
    </g>
    <g id="invisible-rectangle">
      <rect x="0.5" y="0.5" width="453" height="194" fill="#fff" stroke="#231f20" stroke-miterlimit="10" opacity="0"/>
    </g>
  </g>
</svg>
