<svg xmlns="http://www.w3.org/2000/svg" xmlns:xlink="http://www.w3.org/1999/xlink" width="160.2458" height="139.122" viewBox="0 0 160.2458 139.122">
  <a xlink:href="../overview.html" target="_top">
  <g id="Layer_2" data-name="Layer 2">
    <g id="Layer_2-2" data-name="Layer 2">
      <path d="M56.6656,103.9145a171.4153,171.4153,0,0,1,22.4788-1.17c9.6687.1312,9.76-14.8724.1081-15.0034a171.41,171.41,0,0,0-22.4787,1.17c-4.0175.4747-7.5278,3.0424-7.5558,7.4477-.0232,3.6561,3.4,8.0339,7.4476,7.5557Z" fill="#fdefd0"/>
      <path d="M25.4284,98.23a10.0587,10.0587,0,0,1-.4644-.9108l.7748,1.8565a8.4072,8.4072,0,0,1-.457-1.6386l.2572,1.9952a5.4048,5.4048,0,0,1-.0294-.9466l-.2666,1.9262a2.1924,2.1924,0,0,1,.1466-.5977l-.74,1.77.14-.2676-1.1627,1.5256a1.2036,1.2036,0,0,1,.3629-.3728l-3.3914,1.9688L20.8,104.47l-3.9214-.0093.1984.0381-3.2953-1.9026.154.13-1.194-1.5349.0993.1908-.7748-1.8565.0347.219.0093-3.9214-.04.2151.74-1.77-.1354.23,1.1627-1.5257-.1893.1916,1.5349-1.194a30.52,30.52,0,0,0-6.16,5.2694,8.176,8.176,0,0,0-2.1691,5.2216,7.6649,7.6649,0,0,0,2.226,5.3866,7.57,7.57,0,0,0,5.2216,2.1691c1.8887-.0715,4.1577-.6768,5.3866-2.226a17.4212,17.4212,0,0,1,2.7273-2.7489l-1.5348,1.194c.5422-.418,1.1094-.78,1.6761-1.1621a9.4322,9.4322,0,0,0,3.9839-5.0755,8.2937,8.2937,0,0,0-.8593-6.4029,7.8928,7.8928,0,0,0-7.7656-3.744,8.82,8.82,0,0,0-7.4184,8.7835,14.2129,14.2129,0,0,0,1.9918,7.19c1.9548,3.4011,6.888,4.8608,10.2673,2.6719A7.6409,7.6409,0,0,0,25.4284,98.23Z" fill="#fdefd0"/>
      <path d="M7.8027,107.7828l2.963-.7a3.5313,3.5313,0,0,0,2.4446-4.3054,3.5749,3.5749,0,0,0-4.3054-2.4446l-2.9631.7a3.5313,3.5313,0,0,0-2.4445,4.3054,3.5748,3.5748,0,0,0,4.3054,2.4446Z" fill="#fdefd0"/>
      <path d="M9.6662,109.1368c3.82,2.3441,8.1352,2.9562,11.6645,5.9463l4.2414-5.497a59.7846,59.7846,0,0,0-11.8736-6.0183c-2.1449-.8165-4.4572,1.2708-4.43,3.375.0446,3.51,3.1386,5.1293,6.0371,6.4445,4.5326,2.0567,8.7449,4.6508,13.1412,7.0206a36.2088,36.2088,0,0,1,11.1058,8.8185c2.0314,2.4032,5.745,6.4949,9.2308,6.3295,4.4748-.2123,4.53-7.0783,0-7a4.4775,4.4775,0,0,0-3.4233,1.4226c-2.7447,2.6956,1,7.9548,4.2414,5.497l8.64-6.5506c1.84-1.3947,2.6733-4.8423,0-6.0443-3.1925-1.4353-4.9483-4.8673-7.6688-7.0066-3.1519-2.4787-6.6584-4.4416-9.8063-6.9489C37.21,106.0932,28.8552,97.089,23.8042,100.028c-5.408,3.1467-.2541,9.7943,2.9878,12.1373,6.5649,4.7446,15.2,8.6184,19.0868,16.0747,2.0833,3.996,8.1265.4608,6.0443-3.533-2.2526-4.3208-5.6789-7.4484-9.5655-10.3026-2.5974-1.9074-11.83-10.1523-14.8036-8.4558l-2.697.3528c6.0877,1.73,11.1746,8.106,16.2793,11.6327,2.77,1.9136,5.33,3.4479,7.6571,5.9252,1.91,2.0333,3.3006,3.89,5.9145,5.0656v-6.0443l-8.64,6.5506,4.2414,5.497.395-.3878L48.23,135.5655l.5535-.01v-7q2.2305.7993-1.3421-1.3334a19.9258,19.9258,0,0,1-2.4875-2.3839c-.9827-1.1084-1.7914-2.3279-2.82-3.401a35.5371,35.5371,0,0,0-8.1046-5.9535c-3.1579-1.8076-6.4279-3.3879-9.5326-5.2928-2.7837-1.708-7.0272-2.73-9.2444-5.0271l1.0251,2.4749-.0088-.6963-4.43,3.375A51.5738,51.5738,0,0,1,22.039,115.63c3.2732,2.1664,7.293-2.9116,4.2414-5.4971-4.0779-3.455-8.6991-4.352-13.0811-7.0408-3.85-2.3624-7.3706,3.69-3.5331,6.0443Z" fill="#fdefd0"/>
      <path d="M19.64,94.9088c1.1037-1.8434,4.8255-3.1389,6.5324-4.2948,2.3165-1.5687,4.5212-3.29,6.9493-4.69,4.1092-2.37,8.3831-4.0275,11.5485-7.7122l-4.95-4.95A11.8339,11.8339,0,0,1,34.0456,77.51l3.4053,5.85c1.5317-1.7594,3.5478-2.1725,5.6135-3.0992,2.4255-1.088,4.0172-2.7139,6.151-4.2743,3.6651-2.68,9.1137-3.9255,11.1834-8.2521,1.9192-4.0118-3.838-7.5273-6.0442-3.5331a19.7787,19.7787,0,0,0-2.904,11.4565c.1227,2.3855.3418,4.6443.2953,7.0406-.03,1.549-.338,3.3386.3037,4.8176,1.2349,2.8464,3.9437,3.0566,6.752,2.7535a77.1875,77.1875,0,0,1,14.29.043c4.1676.3026,4.4228-5.6083.93-6.875a18.55,18.55,0,0,0-6.8216-1.1182c-4.5006.0626-4.5135,7.0628,0,7a13.0644,13.0644,0,0,1,4.9607.8682l.93-6.875c-2.8614-.2078-5.74-.525-8.6085-.61a25.1171,25.1171,0,0,0-3.7334.1451l-1.441.2507q-3.1485-.1245-1.2851.7737c.6876,1.7428.7542-1.7366.7619-1.9745a40.0471,40.0471,0,0,0-.11-4.3222c-.2817-3.7608-.1551-6.44,1.7233-9.8408L54.3546,64.201c-1.0281,2.1491-4.7726,3.3207-6.6853,4.4738-1.9091,1.151-3.4722,2.5848-5.2464,3.9016-3.191,2.3682-7.2051,2.7131-9.9217,5.8335-2.1091,2.4226-.1482,7.0927,3.4053,5.85A18.259,18.259,0,0,0,44.67,78.2116c2.73-3.4581-1.9678-8.4208-4.95-4.95-3.69,4.2955-9.7351,6.17-14.34,9.37-3.7694,2.6192-9.369,4.7094-11.7845,8.744-2.32,3.8745,3.73,7.3984,6.0443,3.533Z" fill="#fdefd0"/>
      <path d="M72.1771,89.6872c4.8243-1.6016,9.9718-.3648,14.9068.109,5.2659.5057,10.5456.85,15.827,1.1445,10.2745.5741,20.615,1.4474,30.7693-.6856,3.3348-.7005,3.3429-6.0528,0-6.75-.1886-.0393-3.9484-.3915-3.9771-.4084-1.7328-1.0208-.731-4.0835-.5387-5.4488a18.54,18.54,0,0,0-.1877-7.5924c-1.1107-4.3627-7.8637-2.5139-6.75,1.8608,1.17,4.5955-1.77,9.2451.0752,13.821,1.8422,4.5675,5.494,3.6786,9.5175,4.5178v-6.75c-10.6229,2.2315-21.8912.88-32.6368.2185-4.9689-.3061-9.934-.6805-14.8847-1.2082-4.79-.5106-9.3268-1.1235-13.9816.4218-4.2548,1.4126-2.4316,8.175,1.8608,6.75Z" fill="#fdefd0"/>
      <path d="M127.7814,72.5873c2.0888-12.2125-.2051-24.3465.5823-36.603.189-2.9415.7042-5.8516.89-8.7921.1512-2.3927-.2946-4.7841-.15-7.1552.2317-3.8086,2.1534-4.0652,5.1194-5.383a16.2642,16.2642,0,0,0,5.2384-3.3661,3.5342,3.5342,0,0,0-1.5444-5.85,4.4107,4.4107,0,0,0-5.8124,3.347c-.691,3.2281,3.34,6.1227,5.85,3.4053a8.3441,8.3441,0,0,1,4.5171-2.7447c3.4505-.91,3.202-5.724,0-6.75a8.6556,8.6556,0,0,0-5.6591-.0168c-3.9322,1.2219-2.9128,6.4959.93,6.875a42.0078,42.0078,0,0,0,11.3277-.3615q1.7164-.29,3.3965-.746-2.2724-.7836-1.7171.9666c-.5858,1.3538.2361,4.6708.2258,6.1978-.0558,8.2377-1.9273,16.1337-.46,24.3637.7894,4.4276,7.5366,2.5514,6.75-1.8608-1.8723-10.5014,1.983-21.2073.2428-31.8195-.4513-2.7522-1.9134-4.7914-4.9577-4.9131-1.7483-.07-3.6319.7847-5.3412,1.0613a36.5166,36.5166,0,0,1-9.4668.1115l.93,6.875,1.9373.0167v-6.75a15.0547,15.0547,0,0,0-7.606,4.5449l5.85,3.4053-.7972.9886-2.697.3528.6957.2006-1.5444-5.85c-3.1978,3.1642-8.2785,3.02-10.8718,7.1315-2.8011,4.441-1.078,10.5177-1.5418,15.4525a143.0987,143.0987,0,0,0-.6269,20.251c.3307,7.204.7833,14.4041-.44,21.5532-.7537,4.4061,5.9908,6.2992,6.75,1.8609Z" fill="#fdefd0"/>
      <path d="M149.4467,30.99c2.1458,10.7879.0544,21.55-2.1122,32.1582l6.75,1.8609a23.3644,23.3644,0,0,1,2.1257-6.2072l-6.5222-1.7665-.6419,7.1917c-.0674.7553.007,5.689-.3108,5.9869l4.2413-.5473,1.1619,1.4606L152.53,75.08l.2832-.1414-4.7886-1.2556c4.9584,7.1288,1.8176,17.0561.5157,24.89-.4424,2.662,2.3906,5.9179,5.1415,3.9526,2.8637-2.046,4.3116-5.0686,2.9912-8.5333-.8208-2.1537-4.0588-3.8321-5.85-1.5444a38.5946,38.5946,0,0,0-6.192,11.1968c-.6923,1.9649,1.181,4.7045,3.3749,4.43a12.4,12.4,0,0,0,7.4112-3.2381l-5.497-4.2414-4.9168,7.2986c-1.9725,2.9282-2.5609,3.6084-6.3215,3.36a76.4305,76.4305,0,0,0-16.4675.4528c-10.7522,1.57-21.9371-2.6225-32.3648.8878-3.4946,1.1764-3.2058,7.392.9305,6.8749l8.7259-1.0907-.93-6.875-5.2349.9014c-3.3985.5852-3.28,6.0722,0,6.75a20.0192,20.0192,0,0,0,8.5664-.0071c4.0018-.8356,2.8729-6.7077-.93-6.8749q-9.078-.3991-18.1611-.3688c-3.7968.0127-4.9473,6.2994-.93,6.875a40.3786,40.3786,0,0,0,7.2182.4655c4.4906-.1534,4.5222-6.9535,0-7l-18.59-.1911c-3.664-.0376-4.5051,4.6408-1.7665,6.5222a8.1584,8.1584,0,0,0,5.8,1.546,3.5023,3.5023,0,0,0,0-7,74.8017,74.8017,0,0,0-11.91.0667c-3.1.2632-5.2127,4.9116-1.7666,6.5221a12.6471,12.6471,0,0,0,9.1644.9412c3.1156-.8145,3.5474-6.2391,0-6.75-5.5665-.8015-19.1852-2.3581-18.6587,6.8641a3.5639,3.5639,0,0,0,3.5,3.5,5.2009,5.2009,0,0,0,5.3628-4.0232l-6.8749-.9305.0012,3.8441c.0015,4.6318,6.4591,4.3417,7,0,.1581-1.2694-.6571-4.0007-.0666-5.0471.5087-.9013,5.0906-1.4453,6.1426-1.68a65.5626,65.5626,0,0,1,14.424-1.4644c3.81.0027,4.9323-6.2326.93-6.875a200.9485,200.9485,0,0,0-20.1688-2.2252v7q16.8148-.9217,33.6473-.4635c4.5231.1231,4.4771-6.7622,0-7a185.3135,185.3135,0,0,0-30.61.902c-4.3828.493-4.61,6.8479,0,7q31.3485,1.0348,62.7166.9809c4.5589-.0079,4.4391-6.6493,0-7l-34.1465-2.6977v7c16.8043.0492,34.0478-1.0095,50.7926.4307a3.4242,3.4242,0,0,0,3.0221-1.7334,13.4088,13.4088,0,0,0,1.7237-8.53c-.1788-1.3707-.9489-3.1552-2.57-3.375-5.3841-.73-10.0176.4454-15.1462,2.0759-6.8894,2.19-12.8549,2.0052-19.9713,1.255-13.2311-1.395-26.5018-.7692-39.7553-.0714v7l34.72-2.58a3.5023,3.5023,0,0,0,0-7L78.2954,96.09l.93,6.875c11.95-3.6057,24.4781-.8015,36.7118-1.811,3.611-.2979,5.1167-6.2971.93-6.8749L86.1369,90.037l-.93,6.875q16.0471-.27,32.07.64c4.08.2319,4.5564-5.7021.93-6.8749a78.3971,78.3971,0,0,0-36.1153-2.8207c-3.3421.5-3.3431,6.2486,0,6.75l20.8018,3.12,9.4554,1.418c2.2817.3422,9.4979.2618,10.7818,2.5193l2.0917-5.1415a101.5256,101.5256,0,0,1-21.8165,1.5793v7q15.0318-.808,30.0348-2.0476c6.9727-.5829,14.0225-.6524,18.5911-6.65,1.5774-2.0706-.5457-5.4629-3.0221-5.2665l-25.62,2.0323,1.7665,6.5221a40.1584,40.1584,0,0,1,10.7914-5.5984c3.5668-1.2,3.2084-7.0746-.93-6.875a42.9906,42.9906,0,0,0-16.1008,3.9549c-3.2276,1.4716-1.5364,6.6057,1.7665,6.5222a99.9461,99.9461,0,0,0,18.2119-2.0521c4.06-.8609,8.2975-2.3164,9.99-6.4869,1.29-3.18.2863-7.59-3.4372-8.573-4.021-1.0613-8.5085,3.8974-10.9,6.4051l5.497.7083a29.5967,29.5967,0,0,1-2.6345-17.7838c.7035-4.3468-5.6957-6.3312-6.75-1.8608L127.5252,81.34l6.875.93c2.679-21.1988-.3471-42.5417,1.1872-63.7959a3.504,3.504,0,0,0-2.57-3.3749,30.3519,30.3519,0,0,1-6.5967-1.8728c-2.3612-1.0058-5.2507.12-5.2665,3.0222a47.6773,47.6773,0,0,0,1.9461,13.8542,3.5366,3.5366,0,0,0,5.85,1.5445c2.6259-2.5723,3.3066-5.5318,4.7541-8.7773,1.7139-3.8427,4.5287-5.6407,8.4576-6.8729,1.2567-.3941,4.2119-1.6085,5.5-1.2733q.8565-1.665.7688,1.1682a33.14,33.14,0,0,1,.4168,4.35,67.0187,67.0187,0,0,1-1.2855,14.1738c-1.5268,8.7781-3.1531,17.3351-3.1987,26.2817-.05,9.8993.727,19.7647-2.0351,29.405a3.5892,3.5892,0,0,0,1.6085,3.9525l.6213.411a3.4737,3.4737,0,0,0,3.533,0c4.3894-2.6038,3.8159-8.3184,2.9315-12.7165-1.47-7.3091-4.0737-13.8953-4.67-21.433-.5361-6.7809-.5407-13.6071-.7009-20.4041l-.2486-10.543c-.0613-2.6026-1.2581-9.4784,1.9685-10.7l-4.43-3.375-.6349,22.0636h7a70.3286,70.3286,0,0,0-3.1093-19.49,3.5382,3.5382,0,0,0-5.85-1.5444c-7.6449,7.49-6.1705,19.6164-5.2739,29.3165,1.1661,12.6157,3.285,25.361-.8009,37.6778-.8713,2.6264,1.8413,4.91,4.3054,4.3054,4.5689-1.121,6.1562-5.2264,5.6481-9.5886-.7468-6.4109-2.4441-12.6759-3.072-19.1389-1.3037-13.42-1.0645-26.9235-.8236-40.3853.07-3.9172-5.9231-4.7924-6.8749-.93-4.6051,18.684,2.5326,39.9442-7.2661,57.308l6.5222,1.7665-.2908-9.75c-.134-4.491-7.0257-4.5211-7,0a89.29,89.29,0,0,1-4.8812,29.69c-1.0839,3.1665,3.6845,6.1866,5.85,3.4053l8.2567-10.6054c2.684-3.4474-1.694-8.26-4.95-4.95-3.2019,3.2553-9.17,2.3981-13.3485,2.3967-4.9829-.0016-9.96-.1688-14.9346-.4463l.93,6.875a30.9721,30.9721,0,0,1,5.4389-.6883c4.5591-.1826,4.442-6.6,0-7L82.1172,83.2687c-6.4173-.5785-14.9552-2.7721-20.991.515-3.9657,2.16-6.4881,7.1931-4.7258,11.6.8837,2.21,2.5031,3.3557,4.54,4.3777,2.6711,1.34,1.3434-.0114.31.6755-1.7167,1.1409-3.3667,2.3538-5.1215,3.4426-2.7371,1.6984-1.8792,6.8645,1.7665,6.5222l7.117-.6683-1.7665-6.5221-6.7986,4.73,4.2414,5.497,9.1156-7.5443c3.5123-2.9068-1.4683-7.6564-4.95-4.95A145.9892,145.9892,0,0,0,47.27,117.08l5.497,4.2414,8.6236-11.3973c2.4368-3.2206-2.7606-6.9878-5.4971-4.2414a43.1064,43.1064,0,0,1-4.964,4.3417l5.2665,3.0222a25.169,25.169,0,0,1,2.7141-8.46l-6.0443-3.533a85.61,85.61,0,0,1-6.3,10.3821l6.3971,2.697,2.0053-5.8676c1.46-4.272-5.2991-6.1063-6.75-1.8609l-2.0053,5.8676c-1.3621,3.9857,4.2425,5.7408,6.3972,2.6969a85.6022,85.6022,0,0,0,6.3-10.3821c2.0557-3.9988-3.9757-7.5433-6.0443-3.533a35.1882,35.1882,0,0,0-3.67,11.9931c-.3288,2.5373,3.2581,4.5034,5.2665,3.0221a54.8574,54.8574,0,0,0,6.3808-5.4363l-5.497-4.2414L46.7228,117.788c-2.405,3.1786,2.8282,7.125,5.497,4.2414a145.9956,145.9956,0,0,1,17.5848-16.1357l-4.95-4.95-9.1156,7.5443c-3.0371,2.5136.9773,7.7678,4.2413,5.497l6.7986-4.73c2.5594-1.7806,2.0068-6.8765-1.7665-6.5222l-7.117.6683,1.7665,6.5221c3.4917-2.1666,9.9533-5.3158,9.9553-10.1922a5.8083,5.8083,0,0,0-2.1139-4.31c-1.6022-1.3954-5.3205-1.7133-4.1191-4.4058,1.9263-4.317,17.1664-.8887,20.707-.5695l23.6918,2.1357v-7a41.924,41.924,0,0,0-7.3.9383c-4.0161.8727-2.8566,6.6637.93,6.875,6.8277.3809,13.7.6233,20.5379.3861,4.7711-.1655,9.2213-.8552,12.695-4.3868l-4.95-4.95L121.44,95.0506l5.85,3.4053a95.3127,95.3127,0,0,0,5.1312-31.5507h-7l.2908,9.75c.1009,3.3842,4.7682,4.8745,6.5221,1.7665,10.3708-18.3776,3.1533-39.43,7.9717-58.98l-6.875-.93c-.1906,10.6546-.3811,21.3233.1943,31.97.27,4.9928.7221,9.9706,1.3878,14.9264.2047,1.5236,3.3125,15.0965,1.8045,15.4664l4.3054,4.3054C144.5219,74.6317,143.9,63.7071,142.8,52.8111c-.9014-8.9263-4.7626-24.4242,2.4979-31.5376l-5.85-1.5444a63.4056,63.4056,0,0,1,2.8593,17.6291c.0889,4.5078,6.87,4.5056,7,0l.6349-22.0636c.0609-2.1155-2.3111-4.1774-4.43-3.3749-4.6934,1.777-6.8612,5.62-7.1812,10.55-.4755,7.3262.2621,14.8964.4351,22.2349a189.248,189.248,0,0,0,1.1667,21.0424,67.0778,67.0778,0,0,0,2.0217,9.743c.4836,1.6641,4.35,11.8961,2.6046,12.9316h3.533l-.6213-.4109,1.6085,3.9525c3.3783-11.7909,1.8415-23.85,2.3826-35.9183.5266-11.7464,4.5946-23.1185,4.4-34.9195-.0588-3.5684.0741-9.6795-2.9166-12.2717-2.949-2.5561-7.9677-.8581-11.2831.0128-4.0492,1.0637-8.1416,2.79-11.0751,5.8753-3.261,3.43-3.3121,8.749-6.5858,11.9558l5.85,1.5444a40.9444,40.9444,0,0,1-1.6961-11.9933l-5.2665,3.0221a38.0306,38.0306,0,0,0,8.2688,2.5784l-2.57-3.375c-1.5343,21.2544,1.4919,42.5968-1.1872,63.7959-.4967,3.93,5.9815,4.7194,6.8749.93l3.1335-13.288-6.75-1.8608a37.8173,37.8173,0,0,0,3.34,23.1777c.9772,2.0223,4.0331,2.2431,5.497.7083,1.4925-1.5646,3.665-4.2787,5.9508-4.6049L142.75,86.98c.3235.2058-4.3552,1.6158-4.8195,1.725-1.7763.4177-3.6015.737-5.4038,1.018a91.7869,91.7869,0,0,1-11.8444.9719l1.7665,6.5221a33.5939,33.5939,0,0,1,12.5678-2.9992l-.93-6.875a46.6288,46.6288,0,0,0-12.4636,6.3041c-2.5367,1.8174-2.0308,6.8234,1.7665,6.5222l25.62-2.0323-3.0222-5.2665c-2.09,2.7436-6.5528,2.6639-9.6437,2.9366q-5.3207.4692-10.6478.863-11.1367.8423-22.29,1.4311c-4.4826.2409-4.5276,6.8526,0,7a110.36,110.36,0,0,0,23.6774-1.8294c2.2774-.4193,3.1264-3.3222,2.0917-5.1415-3.4049-5.987-12.7846-5.4091-18.7474-6.3034l-26.475-3.9705v6.75a70.6549,70.6549,0,0,1,32.3935,2.8207l.93-6.875q-16.0238-.91-32.07-.64c-3.7707.0635-4.9728,6.317-.9305,6.875l30.7312,4.2422.93-6.875c-12.9,1.0645-25.95-1.7478-38.5727,2.0611-3.9753,1.2-2.8728,6.4682.93,6.8749l27.7545,2.9684v-7l-34.72,2.58c-4.4486.3306-4.5306,7.2386,0,7,12.5986-.6633,25.253-1.3221,37.8413-.1243,5.6918.5416,11.354,1.483,17.0569.4907,5.9872-1.0418,11.9043-4.7182,18.1137-3.8759l-2.57-3.375a7.3026,7.3026,0,0,1-.7679,4.9966l3.0221-1.7335c-16.745-1.44-33.9889-.3815-50.7926-.4307-4.5587-.0133-4.438,6.6494,0,7l34.1465,2.6977v-7q-31.3656.0538-62.7166-.9809v7a185.3135,185.3135,0,0,1,30.61-.902v-7q-16.8341-.4582-33.6473.4635a3.5022,3.5022,0,0,0,0,7A182.3306,182.3306,0,0,1,79.9347,114.84l.93-6.875c-7.3384-.0052-15.5428.65-22.4275,3.3947-6.239,2.4868-4.3873,6.2972-5.0725,11.797h7l-.0012-3.8441c-.0013-4.0358-5.6656-4.6355-6.875-.93l1.3871-1.1159,3.5,3.5c-.0628-1.1,9.3347-.1808,9.7978-.1142v-6.75a4.36,4.36,0,0,1-3.77-.2356l-1.7665,6.5222a74.8017,74.8017,0,0,1,11.91-.0667v-7l-2.2669-.59-1.7665,6.5221,18.59.1911v-7a29.7327,29.7327,0,0,1-5.3573-.2154l-.93,6.8749q9.0867-.03,18.1611.3688l-.9305-6.875a8.9282,8.9282,0,0,1-4.8446.007v6.75l5.2349-.9014c3.8411-.6614,2.9945-7.3656-.93-6.875L90.78,112.4694l.93,6.875c6.4158-2.16,12.8373-.6236,19.3882-.0947,6.2087.5013,11.9941-1.0763,18.1442-1.3479,4.97-.2195,12.0782,2.1435,16.644-.2836,4.3629-2.3193,7.4157-9.5386,10.0775-13.49,2.3308-3.46-2.6509-6.7306-5.497-4.2414l-2.4614,1.1879,3.375,4.43a28.12,28.12,0,0,1,4.3919-8.108l-5.85-1.5444.2257.6281,5.1415,3.9526c1.6286-9.7989,4.9576-21.4-1.2213-30.2838A3.6077,3.6077,0,0,0,149.28,68.894l-.2833.1414a3.584,3.584,0,0,0-1.6084,3.9526,3.8342,3.8342,0,0,0,6.2964,2.1755c1.8735-1.7557,1.7417-3.9967,1.96-6.4417l1.043-11.6866c.3094-3.4663-4.9813-4.758-6.5221-1.7665a29.9721,29.9721,0,0,0-2.8313,7.8793c-.8963,4.3974,5.8477,6.2789,6.75,1.8609,2.4325-11.91,4.5176-23.7872,2.1123-35.88-.8781-4.4145-7.6265-2.5459-6.75,1.8609Z" fill="#fdefd0"/>
      <path d="M26.7585,102.7438A64.7357,64.7357,0,0,1,48.34,111.7281l2.6969-6.3971-10.7945-2.6478c-2.4485-.6006-5.1989,1.68-4.3054,4.3054,1.9291,5.669,12.0416,14.4174,16.5861,6.1229,4.9732-9.0771-8.2564-15.7807-14.7095-18.2779l.8361,6.3971c1.6991-.771,6.2954,1.57,7.945,2.0973l9.215,2.947c4.3973,1.4063,5.9062-5.0871,1.8609-6.75-2.5486-1.0476-5.0837-2.1259-7.5979-3.2539q-1.6738-.751-3.337-1.5256l-1.66-.78q-2.7782-.6945-1.1586-.9075c.0815.5825,2.4871-2.695.45.72a10.6689,10.6689,0,0,0-1.3345,4.5183c-.347,3.0751,4.0246,4.5364,5.9748,2.4748,6.1341-6.4842,6.3136-14.8035,5.6885-23.2527-.33-4.465-6.7989-4.5415-7,0A71.75,71.75,0,0,1,44.22,96.5687l6.875.93.1111-17.4534a3.5325,3.5325,0,0,0-4.43-3.3749c-4.3385,1.2933-7.55,5.733-10.7065,8.8114L23.8537,97.3957l5.497,4.2414A37.2315,37.2315,0,0,1,47.1918,82.6538L43.6588,76.61c-8.5809,5.53-18.5607,8.5685-25.9156,15.9154-2.8071,2.804.7827,7.51,4.2414,5.497,5.4289-3.16,12.7417-6.6321,19.2207-6.1018L38.73,90.8949c1.5433,1.4019,2.4548,3.2483,4.145,4.5722A17.7783,17.7783,0,0,0,49.2288,98.55c5.8855,1.6016,12.475,1.0438,18.4487.3359,3.4174-.405,10.2468-.288,12.1881-3.9629,2.3385-4.427-3.1045-7.7076-6.2866-9.2875l-.8361,6.3971a18.1667,18.1667,0,0,1,8.6406-.3656c4.4006.8612,6.2846-5.8842,1.8609-6.75a26.3922,26.3922,0,0,0-12.3623.3656c-2.7677.7448-3.59,5.03-.8361,6.3971a12.6765,12.6765,0,0,1,4.1888,2.8648L73.21,92.0691l.1338,1.0869,1.0251-2.4749c-.9909.9878-5.7209,1.07-7.159,1.2441a75.6978,75.6978,0,0,1-9.1715.5653c-3.2367-.0032-6.7716-.1157-9.6743-1.7329-2.0258-1.1286-2.75-3.0357-4.3509-4.51-2.8951-2.666-7.885-1.067-11.2466-.2266a55.0906,55.0906,0,0,0-14.3146,5.9568l4.2414,5.497c6.8639-6.8565,16.4724-9.6483,24.4988-14.8208,3.804-2.4514.491-8.0625-3.533-6.0443A43.0349,43.0349,0,0,0,23.3064,98.1041c-1.4866,3.45,2.44,7.223,5.497,4.2414l10.1794-9.928,4.75-4.633c1.3381-1.305,3.0681-3.8167,4.9032-4.3638l-4.43-3.375-.1111,17.4534c-.0258,4.0371,5.6794,4.6331,6.8749.93a78.9518,78.9518,0,0,0,3.7255-20.9117h-7c.469,6.3388,1.0733,13.3225-3.6382,18.303l5.9749,2.4749c.2508-2.2227,2.5414-4.0045,2.8573-6.3651a5.8486,5.8486,0,0,0-2.0049-5.3715c-3.5524-3.0013-8.5359-1.0795-11.7083,1.5073C27.8094,97.3346,49.99,103.8828,55.81,106.275l1.8609-6.75c-4.6066-1.4733-9.2006-2.9962-13.8225-4.4206-3.2107-.99-5.6389-1.3214-8.7315.0819-3.0413,1.38-1.6477,5.436.8361,6.3972a27.48,27.48,0,0,1,8.5961,4.8744c.1244.1151,2.3861,2.2968,1.3071,2.4569-1.3291.1973-2.8909-2.97-3.169-3.7872l-4.3054,4.3054,10.7946,2.6479a3.5166,3.5166,0,0,0,2.6969-6.3972,70.1735,70.1735,0,0,0-23.2534-9.69c-4.3908-.961-6.2665,5.7857-1.8609,6.75Z" fill="#fdefd0"/>
    </g>
    <g id="Layer_1-2" data-name="Layer 1">
      <g>
        <path d="M.0766,105.9005c-.2319,1.0429.9712,2.11,1.8208,1.3642,7.5943,4.5611,15.4439,8.7027,23.0171,13.3106a138.5444,138.5444,0,0,1,12.9566,8.7392c2.8921,2.2359,6.0742,4.8369,7.7114,8.1968-.4761.9585.9863,2.1646,2.0591,1.3316,4.2905-3.3218,8.5683-6.6988,12.6152-10.3111a1.2275,1.2275,0,0,0,1.585-1.1347,46.1187,46.1187,0,0,0,.1343-5.316,1.2851,1.2851,0,0,0,.2675.0269c27.1558-.0449,54.25-2.3984,81.4009-2.44a1.1225,1.1225,0,0,0,1.1328-.8847,1.0445,1.0445,0,0,0,1.2334.0117c2.2876-1.4761,3.9478-4.3775,5.5943-6.48a70.1894,70.1894,0,0,1,8.2485-9.3936c.9531-.8535-.0039-2.1469-1.0239-2.0468a1.6215,1.6215,0,0,0,.0683-.3384c1.05-16.7012-2.2754-33.3745-.4072-50.0581,1.7964-16.0664,0-32.3272,0-48.4312a1.5275,1.5275,0,0,0-.0249-.24c.4321-.7573.11-1.9106-.9829-1.8a203.6709,203.6709,0,0,1-21.1646.8135c-.0449,0-.09.01-.1333.0141a1.1241,1.1241,0,0,0-.9463.3467c-4.6806,4.6782-9.3823,9.2124-15.2182,12.43a1.1621,1.1621,0,0,0-.1978,1.9q-.0043,4.2693-.0185,8.5352c-.0645.0493-.1245.0986-.1929.1455a1.3593,1.3593,0,0,0,.1816,2.2461c-.0752,18.7739-.2241,37.5586.417,56.331a198.7472,198.7472,0,0,1-23.059-.6469c-12.2564-.8028-24.6382-2.3228-36.9356-1.6036.0166-6.2866.1582-12.5669,1.5811-18.726.19-.8448-.5787-1.8428-1.503-1.5044-16.792,6.0854-30.5586,17.98-45.4131,27.5883a1.0412,1.0412,0,0,0-.7089.4019,1.2252,1.2252,0,0,0-.0806.1c-.7017.4453-1.4067.8965-2.1133,1.335a1.2368,1.2368,0,0,0-.3891,1.7251Q6.3875,97.7814,1.2837,104.1861A1.2836,1.2836,0,0,0,.0766,105.9005Zm13.542-13.1079q1.88,1.1177,3.7891,2.2378a70.2818,70.2818,0,0,0-4.53,5.7094c-.959,1.2632-1.9355,2.5117-2.9575,3.7212-.5767.6812-1.4419,1.95-2.3457,2.23a1.1485,1.1485,0,0,0-.75.647q-1.6926-.9837-3.3633-1.982Q8.5,99.0407,13.6186,92.7926ZM9.104,108.649c1.7514-.9976,3.1172-3.1265,4.2646-4.5732,1.5459-1.962,2.9707-4.0586,4.5821-5.9844a1.0329,1.0329,0,0,0,.7685-.5991,2.584,2.584,0,0,1,.626-.97,1.6376,1.6376,0,0,0,.1855-.2515c3.9722,2.3266,7.97,4.6767,11.8907,7.1431-3.7832,3.833-8.2867,6.9624-11.2569,11.5185C16.4941,112.8165,12.7881,110.7555,9.104,108.649Zm13.1772,7.51c2.9483-4.503,7.5337-7.5625,11.2334-11.4043q2.926,1.8954,5.7652,3.8965a75.9294,75.9294,0,0,0-11.0806,10.5644,1.31,1.31,0,0,0-.2144.3853c-.0161-.0132-.03-.0181-.0439-.0308C26.0737,118.4014,24.1831,117.2711,22.2812,116.1588Zm22.9634-2.99a98.7206,98.7206,0,0,1-8.9033,10.9307,1.1966,1.1966,0,0,0-.2886.5479c-2.0488-1.3672-4.1211-2.6275-6.0444-3.8023a78.3339,78.3339,0,0,1,11.3139-10.7217Q43.3217,111.6048,45.2446,113.1685Zm6.4683,5.7466a4.5191,4.5191,0,0,0-.7217.7041,1.1407,1.1407,0,0,0-.3579.8628v.0083c-1.7637,1.6538-3.1924,3.6558-5.0547,5.2276-.876.7368-2.0772,1.8242-3.04,2.5883a1.23,1.23,0,0,0-.5029.2666c-.1157.1031-.229.2012-.3437.3008-1.1836-1.0312-2.45-2.0024-3.7554-2.9331.043-.0366.0879-.0737.1313-.1128A104.3247,104.3247,0,0,0,47.1377,114.73Q49.5064,116.7413,51.7129,118.9151Zm9.31-11.8677a1.1961,1.1961,0,0,0-.0747-.4062q3.6255.0059,7.2466.0181c-1.7676,3.52-4.2612,6.5883-6.5586,9.7861C61.3779,113.318,61.0722,110.1944,61.0229,107.0474Zm68.82,10.3765a1.1661,1.1661,0,0,0,.397-.396c2.8057-4.4267,5.5-8.9712,9.5737-12.3657a.3332.3332,0,0,0,.0523-.0552q3.1845-.3032,6.3647-.6684c-3.6352,4.31-6.7978,8.9941-10.3559,13.3632Q132.856,117.351,129.8432,117.4239Zm-1.7143-1.626a1.1169,1.1169,0,0,0,.5151,1.6577c-4.0923.1119-8.1846.2588-12.2744.4195v-.001c4.4009-2.7075,8.0874-7.8252,10.6133-12.24.0024-.0074.0024-.0117.0063-.0157q4.4824-.28,8.96-.6626C132.8569,108.1729,130.5205,112.03,128.1289,115.7979Zm-12.9937-.0317a1.2543,1.2543,0,0,0,.0894,2.1562q-4.2106.1649-8.4224.354a26.2462,26.2462,0,0,0,1.6817-2.69,61.2839,61.2839,0,0,1,6.9111-9.3008,1.2686,1.2686,0,0,0,.082-.1025q4.2964-.1692,8.58-.4048C121.7959,109.4972,118.729,113.5543,115.1352,115.7662Zm-7.6435-3.19c-.55.8613-1.0874,1.7319-1.6392,2.5874-.25.3857-.5029.7695-.7573,1.1474-.044.06-.0781.1026-.1128.1528a1.13,1.13,0,0,0-.9868.8453,2.5645,2.5645,0,0,0-.1084,1.0966q-4.8362.2088-9.6768.4165c2.5489-4.2431,6.3086-7.6357,8.1758-12.28,3.2446-.0577,6.4873-.146,9.7319-.2442A58.1577,58.1577,0,0,0,107.4917,112.5763Zm-15.99,6.0683a1.5694,1.5694,0,0,0-.1152.3q-4.3082.1715-8.6147.3237c3.0434-4.2441,6.56-8.1064,9.8325-12.164a1.3078,1.3078,0,0,0,.2368-.4575c2.2974-.01,4.5913-.0372,6.8862-.0679C97.6777,111,93.7881,114.33,91.5014,118.6446ZM80.5136,118.24a.9911.9911,0,0,0-.1059,1.1c-2.9839.0908-5.9692.1729-8.9546.2261,3.04-4.0215,5.4316-8.4868,8.5352-12.4614a1.4515,1.4515,0,0,0,.2172-.4229q4.8069.0081,9.6133-.0088C86.6738,110.4942,83.3838,114.2047,80.5136,118.24Zm-11.206.16a1.2775,1.2775,0,0,0-.2144,1.206q-3.3573.0484-6.7153.0591c2.8213-4.2671,6.3389-8.1035,8.438-12.81a1.1112,1.1112,0,0,0,.0644-.1934q3.203.0117,6.4053.0166C74.5029,110.5015,72.2182,114.6612,69.3076,118.4ZM47.4931,135.8907a21.414,21.414,0,0,0-3.9531-5.2856c1.1587-.8433,2.2378-1.8819,3.3125-2.7808,2.043-1.7061,3.5928-3.998,5.5923-5.73a1.0971,1.0971,0,0,0,.9067-.7119c.1162-.0752.2237-.1694.34-.2495.0351-.0269.0649-.0537.0976-.08a67.5155,67.5155,0,0,1,4.8081,5.7C55.0219,129.9356,51.2744,132.9439,47.4931,135.8907ZM150.38,109.9513c-1.6215,2.0561-3.36,5.2924-5.5986,6.7319a1.2082,1.2082,0,0,0-.5249.6982,1.2122,1.2122,0,0,0-.6123-.1577c-1.5425.001-3.084.0156-4.6294.0322,3.3867-4.3418,6.499-8.8881,10.16-13.0024a1.2209,1.2209,0,0,0,.3208-.7041q3.5889-.4469,7.1763-.9756A82.7058,82.7058,0,0,0,150.38,109.9513Zm-16.8183-47.96a1.15,1.15,0,0,0-1.9839-.5737c-1.5029,1.76-2.9893,3.5351-4.5723,5.2163a16.7459,16.7459,0,0,1-4.66,3.9272q-.0689-3.7719-.1089-7.5478a.9763.9763,0,0,0,1.3-.2725c1.5532-1.9165,3.2583-3.7222,4.9487-5.519,1.0034-1.0674,2.022-2.1133,3.0713-3.1333.4063-.398.8208-.7837,1.2485-1.1582.9121-.8023.5152-.12-.1728-.5806a1.1086,1.1086,0,0,0,1.2217-.0342Q133.7344,57.1534,133.562,61.9908ZM122.2148,31.6759a1.0668,1.0668,0,0,0,1.0733-.084c4.2675-2.6983,7.1255-6.9483,10.9692-10.1367q-.0168,4.4068-.0552,8.8164a1.1044,1.1044,0,0,0-1.812-.1929c-2.8818,3.293-6.7724,5.6484-10.2041,8.3857Q122.2022,35.066,122.2148,31.6759Zm-.0371,9.7666a1.1817,1.1817,0,0,0,.5425-.2764c3.685-3.168,8.1787-5.6851,11.3955-9.3569.0288-.0371.0508-.0708.0752-.1045q-.0292,3.4826-.0855,6.9687a1.104,1.104,0,0,0-.8989.3609c-3.6113,3.6606-6.8711,7.8061-11.04,10.8476C122.1636,47.0689,122.167,44.2613,122.1777,41.4425Zm11.7217,8.8232c-1.6382-1.1216-4.3589,2.3648-5.2432,3.2564-2.226,2.2456-4.4262,4.5678-6.4414,7.0083q-.0307-3.8533-.041-7.7115c4.6152-2.9736,8.1294-7.2314,11.8989-11.164C134.0244,44.5289,133.9658,47.3931,133.8994,50.2657Zm.3618-30.8755a1.2618,1.2618,0,0,0-1.4614.1079c-3.7637,3.0323-6.499,7.22-10.5777,9.8682.0069-1.38.0132-2.7573.0191-4.1377a61.86,61.86,0,0,0,12.0356-11.6528Q134.2725,16.4791,134.2612,19.39ZM122.3921,73.1549c4.5683-1.4981,7.9394-6.5279,10.9121-10.0088a1.5585,1.5585,0,0,0,.23-.39q-.1384,3.6717-.3057,7.3487a1.1025,1.1025,0,0,0-1.2466.2675,124.0578,124.0578,0,0,1-9.4355,8.7476Q122.4614,76.14,122.3921,73.1549Zm-.128-58.0352A64.8421,64.8421,0,0,0,134.2832,5.55c0,1.7114,0,3.4179-.0034,5.1284a1.2106,1.2106,0,0,0-1.2666.52A52.4988,52.4988,0,0,1,122.25,22.14Q122.2632,18.6308,122.2641,15.12Zm.36,66.6162a1.2626,1.2626,0,0,0,.9131-.2749,111.1455,111.1455,0,0,0,9.5683-8.7588c-.1357,2.7652-.2793,5.5323-.4472,8.3a.2129.2129,0,0,0,0,.0586,66.15,66.15,0,0,1-10.0122,1.544C122.6372,82.318,122.6323,82.0255,122.624,81.7359ZM97.1509,84.5645c12.4765.8374,25.6621,1.7539,37.8657-1.5742a1.2419,1.2419,0,0,0,.1-2.33c1.5635-25.7651,1.61-51.5908,1.61-77.3984,6.4565-.0039,12.8906-.086,19.3217-.6792.0327,15.9731,1.5318,31.9477-.0039,47.896-1.5893,16.5932,1.4121,33.0932.4287,49.687-.0429.0059-.0864,0-.1255.0068-31.9326,4.8194-64.3525,4.0391-96.5439,4.0284a1.233,1.233,0,0,0-.9092,2.0234,1.1312,1.1312,0,0,0-.313.8227c.0659,4.25.6045,8.4654.8531,12.6827-.0269.0493-.0591.09-.0855.1352a1.0924,1.0924,0,0,0,.1509,1.3941c.0317.9077.0532,1.811.0425,2.7226A80.7133,80.7133,0,0,0,48.17,112.4659a1.325,1.325,0,0,0-1.0913-.8989c-1.3482-1.0923-2.72-2.1685-4.1182-3.2075a1.347,1.347,0,0,0-1.6538-1.1988c-8.32-5.9785-17.3725-11.0908-26.13-16.2749.1778-.2134.3492-.43.5225-.6411,14.228-9.1621,27.4531-20.5781,43.2827-26.8379-1.168,6.3369-1.209,12.7793-1.2129,19.22a1.2291,1.2291,0,0,0,2.395.3418C72.4726,82.2369,84.8847,83.74,97.1509,84.5645Z" fill="#231f20"/>
        <path d="M24.13,100.0836c-3.6021,2.8388-6.3116,6.7505-9.77,9.7671-1.1836,1.0351.5478,2.7568,1.73,1.7246,3.4551-3.0191,6.1651-6.93,9.7652-9.7642C27.0923,100.8365,25.355,99.1226,24.13,100.0836Z" fill="#231f20"/>
      </g>
    </g>
  </g>
  </a>
</svg>
