<svg xmlns="http://www.w3.org/2000/svg" width="412.5117" height="412.5296" viewBox="0 0 412.5117 412.5296">
  <g id="Layer_2" data-name="Layer 2">
    <g id="Layer_1-2" data-name="Layer 1">
      <path d="M0,218.06v-24c.2536-1.2988.53-2.5936.7574-3.8969,2.2329-12.7759,3.6721-25.7521,6.8452-38.29C14.609,124.19,27.8163,99.46,45.4936,77.0528c2.91-3.6888,4.9581-3.8793,8.08-.3,5.364,6.15,10.8993,12.1793,16.7394,17.873,3.5747,3.4852,3.0369,6.05.3207,9.7745-34.1611,46.8386-43.1287,98.4287-25.87,153.5266,22.9427,73.2442,91.66,120.9273,168.3233,117.9932,48.6505-1.8621,88.9366-21.8931,121.4891-57.9088,2.5183-2.7862,2.6253-4.511-.6252-6.6456-4.5929-3.0162-9.0565-6.25-13.4029-9.6129-2.61-2.0195-4.3146-1.8946-6.7277.57a220.7956,220.7956,0,0,1-17.4486,16.42c-20.1964,16.57-43.518,26.1929-69.232,30.2975-4.3421.6932-6.2229-.8039-6.161-5.2336.1047-7.497.0156-14.9972-.028-22.4958-.0456-7.8185.1325-7.8479,7.5869-9.5354,35.3165-7.9948,60.972-28.3666,76.235-61.1344,11.8356-25.41,12.8545-51.7655,4.0994-78.4048-1.1566-3.5191-.9758-5.7176,2.5964-7.782,7.4958-4.3319,14.7861-9.0392,21.9892-13.85,3.5654-2.381,5.396-1.9166,7.0083,2.1676a138.9131,138.9131,0,0,1,9.5364,40.2219c2.0312,25.7175-1.56,50.5339-12.88,73.9352-1.4756,3.05-.8871,4.8286,1.8232,6.6261,4.58,3.0378,9.1315,6.1587,13.4139,9.5949,3.4053,2.7325,5.255,1.7318,6.737-1.8049.5788-1.3812,1.3141-2.6959,1.9267-4.064,16.6784-37.2438,20.7026-75.757,9.6236-115.11-15.7905-56.0874-51.4578-94.6371-105.7785-115.6231-25.83-9.9789-52.7474-12.5478-80.1406-9.052a162.3961,162.3961,0,0,0-52.39,15.828c-3.9731,1.9858-3.9446,3.6434-.8971,6.4682a140.1854,140.1854,0,0,1,10.8424,11.0627c2.8437,3.2912,5.56,3.77,9.58,2.0249a128.2087,128.2087,0,0,1,48.0134-10.8059c48.6129-1.2217,88.5832,16.9735,119.5363,54.6215,4.226,5.14,4.2008,5.5012-1.3877,9.0332-14.0856,8.9022-28.2388,17.6976-42.3836,26.5057-6.6964,4.17-6.6174,4.0784-2.5656,10.6994,16.3229,26.6734,18.14,54.3875,2.7725,81.6314-16.4569,29.1759-42.4763,43.0776-76.1145,40.6523-56.47-4.0716-90.3765-66.4628-63.5772-116.3637,19.8933-37.0418,64.3692-52.197,103.1581-34.949,3.8867,1.7283,6.6992,1.5315,10.0284-.9629,4.9283-3.6923,10.182-6.9505,15.2966-10.3942,5.3321-3.59,5.4145-3.9052.034-7.197-33.13-20.2692-67.5857-22.7938-103.1777-7.2037-55.1891,24.174-79.41,94.5346-50.7821,147.5535,16.4071,30.3865,41.5613,49.3357,75.4445,56.3727,4.1536.8626,6.0314,2.524,5.912,6.9055-.2222,8.16.0159,16.3317-.0756,24.4969-.0625,5.5809-1.0443,6.2681-6.7064,5.3922-23.3082-3.6061-44.8763-11.763-63.6022-26.1683C77.2946,288.5511,57.2462,243.4375,63.63,187.6215c4.1272-36.0879,21.0617-65.9411,48.1787-90.0484,5.4422-4.8381,5.3007-4.7763.3561-9.7724C100.5647,76.08,89.14,64.186,77.4978,52.5084c-3.1364-3.1459-2.9733-5.0323.62-7.8069C121.5667,11.1521,170.44-3.9073,225.3.863c37.4572,3.257,71.631,15.7094,101.6206,38.1688,62.073,46.4866,90.8785,109.0213,84.7941,186.25-4.1464,52.63-26.9087,97.2747-66.0444,132.8954-47.1523,42.9173-103.0426,60.4235-166.0369,52.5007C91.0442,399.5364,20.6939,332.454,3.8389,244.7188,2.147,235.9118,1.26,226.95,0,218.06Zm206.3891,32.8364,0-.0992c3.164,0,6.3323-.1041,9.4909.0273,3.666.1525,5.1581-1.3232,4.74-5.0769-1.5468-13.8911-2.8378-27.8118-4.51-41.6871-.5183-4.3016.1739-7.3073,3.677-10.4332,8.4639-7.5525,8.317-20.0156.3055-28.0255a19.1933,19.1933,0,0,0-27.3634.2c-7.7548,7.7908-7.9369,20.2259.4284,27.6264,3.7534,3.3205,4.2813,6.5387,3.7784,10.8884-1.5864,13.72-2.92,27.4693-4.51,41.189-.4654,4.017,1.1269,5.5435,4.9711,5.4118C200.3915,250.8146,203.3917,250.8966,206.3891,250.8966Z"/>
    </g>
  </g>
</svg>
