<svg xmlns="http://www.w3.org/2000/svg" width="230.397" height="356.7757" viewBox="0 0 230.397 356.7757">
  <g id="Layer_2" data-name="Layer 2">
    <g id="Layer_1-2" data-name="Layer 1">
      <g>
        <path d="M75.4318,298.57c3.067-.2383,6.2752-1.1749,9.1756-.5887,10.1032,2.0418,19.2267.6644,27.7938-5.3878,4.3919-3.1027,9.5542-5.0907,14.1653-7.914,5.5814-3.4173,10.8495-7.347,16.4394-10.7493,4.323-2.6312,8.8739-4.9124,13.4319-7.126,4.1238-2.0028,6.6666-4.3513,3.7687-9.2-.5483-.9174-.456-2.229-.6167-3.3648-.6416-4.5349-1.5908-9.0574-1.7988-13.6131-.1788-3.9169.7081-7.87.752-11.812.1193-10.7117.0415-21.4257.0416-32.1388q0-21.4932.0033-42.9864c.0024-3.7867-.59-6.4689-4.9186-8.4872-8.0089-3.7339-9.928-11.4792-10.0972-19.7477-.2887-14.1079-.709-28.2132-.9744-42.3214-.1265-6.7209.2877-13.4637-.0918-20.1655-.7362-13.001,7.6355-19.9076,17.189-25.6794,4.3706-2.6406,8.6031-4.5415,9.1666-10.4194.1239-1.2929,2.0672-2.4132,3.1767-3.6093,1.6353-1.763,3.2742-3.5226,4.7653-5.1263l-6.9473-6.3186,1.0245-1.2765a5.7822,5.7822,0,0,1,1.8208.0254c6.0185,2.1227,9.528-.8371,12.6952-5.5992,3.8548-5.7959,5.5919-6.057,11.9462-3.141,1.9466.8933,3.7593,2.0757,5.6937,2.999,8.2249,3.9257,8.0591,3.9011,7.69,12.7305a10.22,10.22,0,0,0,2.1216,6.7327c7.5017,8.2015,13.4288,17.6828,15.0727,28.3358,1.1618,7.5286,1.3711,15.3392,2.3871,23.0614.9487,7.21-5.8394,13.7847-13.1489,13.8229-5.5221.0288-6.82,2.4224-7.1964,6.809-.184,2.1468-.291,4.3-.4328,6.4508-.6057,2.1382-1.8146,4.31-1.6973,6.4072.2847,5.0906,1.1319,10.1544,1.8531,15.2147.8787,6.1655,1.86,12.3163,2.7976,18.4734.3223,4.4584.9408,8.9191.9046,13.3745-.0725,8.9416-.2636,17.8958-.8466,26.816-.7,10.702-2.1321,21.359-2.7145,32.0645-.3379,6.2116.3708,12.48.6086,18.7231q1.1729,9.3821,2.3458,18.7643l.8964,12.9279c-7.1968,4.9356-15.7031,8.7467-21.1975,15.1441-4.8484,5.6453-10.6606,8.6885-16.4459,12.39-.3988.2552-.37,1.1792-.6517,2.1974,2.5244.545,4.8876.9356,7.1712,1.6,1.11.3228,2.8582,1.09,2.9166,1.7757a3.8608,3.8608,0,0,1-1.6869,3.2c-6.1331,2.4894-12.3837,4.69-18.6,6.9745a1.0986,1.0986,0,0,1-.4962.0043c-15.0726-1.9847-28.5987,2.44-41.4817,9.815-5.9708,3.4179-12.28,3.3913-18.95,1.8543-3.3435-.77-7.086.1909-10.6479.3689-2.24-1.9584-4.3923-4.03-6.7379-5.8524C81.3327,310.7,76.0572,306.2689,75.4318,298.57Zm77.5126-13.9846,1.0807,1.5828c3.2433-.4314,6.8174-.1332,9.67-1.4266,9.8532-4.4678,19.4687-9.4628,29.146-14.3143,4.3994-2.2055,6.808-5.3713,5.7849-10.7554a77.2468,77.2468,0,0,1-.9978-12.2494c-.2811-10.1639.9075-20.4875-3.7388-30.1207a3.2673,3.2673,0,0,1,.0719-2.3826c1.3844-3.3079-.1668-4.1957-3.1529-4.1268-2.287.0529-4.5763.0106-7.219.0106,0,2.3691.28,4.3817-.09,6.267-.2875,1.4665-1.16,3.7529-2.16,3.9824-4.1935.9619-3.7919,3.8989-3.7663,6.9286.0555,6.5415.4171,13.1149-.0948,19.6164a131.3241,131.3241,0,0,1-3.03,17.3346,7.4484,7.4484,0,0,1-2.7263,3.911c-4.72,3.5736-9.7186,6.7819-14.3906,10.413C155.5587,280.6334,154.3888,282.7861,152.9444,284.5854ZM202.4827,29.2177c-.7727,5.4431,2.4486,9.2055,5.1035,13.068.6193.9009,2.5586,1.32,3.7962,1.1719.5317-.0636,1.1042-2.1225,1.1766-3.3043C212.9756,33.3532,206.6887,32.2649,202.4827,29.2177Z" fill="#061a24"/>
        <path d="M93.6183,322.7511a3.8809,3.8809,0,0,1,.965.2485q1.49,3.34,2.98,6.6794c-6.5259,3.3824-12.9839,6.9078-19.6193,10.06-1.9805.9407-4.5867.4894-6.6849,1.27-8.5178,3.17-16.8285,6.9407-25.4517,9.77-6.7944,2.23-13.9275,3.4364-20.9261,5.0273a34.0379,34.0379,0,0,1-5.8267.8657c-1.6056.0793-4.0578.353-4.7092-.5213-3.1934-4.2863-7.2854-4.2766-11.8015-3.3995-.3058.0594-.7155-.4158-2.15-1.3152L10.88,349.623a47.1884,47.1884,0,0,0-3.5364-4.8863,11.0927,11.0927,0,0,0-3.8794-2.7743c-3.9258-1.6029-4.66-3.6707-1.4528-6.3229a107.4975,107.4975,0,0,1,13.5646-9.7958Q29.7615,317.446,44.4,309.8224c5.1735-2.6939,10.7565-4.6014,16.1547-6.8639,10.1785,6.7051,20.3431,13.4314,30.5738,20.0558C91.6734,323.367,92.7757,322.8586,93.6183,322.7511Z" fill="#061a24"/>
        <path d="M210.4354,233.8388c-.2378-6.243-.9465-12.5115-.6086-18.7231.5824-10.7055,2.015-21.3625,2.7145-32.0645.583-8.92.7741-17.8744.8466-26.816.0362-4.4554-.5823-8.9161-.9042-13.3748q.5466-.0163,1.0922-.0323c.7114,7.561,1.2391,15.1474,2.2831,22.6622.219,1.576,2.3385,2.888,3.5822,4.3217,1.0508,13.5822,2.2681,27.1558,2.9684,40.7561.1022,1.983-1.806,5.2207-3.571,5.9359-5.6022,2.27-8.3776,5.3943-8.3947,11.4242Q210.4355,230.8835,210.4354,233.8388Z" fill="#197481"/>
        <path d="M93.6183,322.7511c-.8426.1075-1.9449.6159-2.49.2632C80.8981,316.39,70.7335,309.6636,60.555,302.9585L75.4319,298.57c.6253,7.6991,5.9008,12.13,11.4383,16.4331,2.3456,1.8226,4.4979,3.894,6.7379,5.8524Z" fill="#053e46"/>
        <path d="M219.4412,169.812c-1.2437-1.4337-3.3632-2.7457-3.5822-4.3217-1.044-7.5148-1.5717-15.1012-2.2829-22.6626-1.1765-9.7344-2.486-19.4555-3.429-29.2121-.2137-2.2113.845-4.5456,1.318-6.8232C216.8312,127.4563,216.6829,148.8181,219.4412,169.812Z" fill="#24a0b1"/>
        <path d="M211.4651,106.7924c-.473,2.2776-1.5317,4.6119-1.318,6.8232.943,9.7566,2.2525,19.4777,3.429,29.2121q-.5462.0166-1.0924.0327c-.9376-6.1568-1.9193-12.3076-2.798-18.4731-.7212-5.06-1.5684-10.1241-1.8531-15.2147-.1173-2.0974,1.0916-4.269,1.6973-6.4072Q210.4976,104.7787,211.4651,106.7924Z" fill="#2294a5"/>
        <path d="M213.6776,265.531l-.8964-12.9279c1.6535,2.3282,3.3442,4.6312,4.9432,6.9963.692,1.0235,1.7477,2.2536,1.6071,3.2435-.1113.7835-1.7395,1.4633-2.8,1.9653A14.5369,14.5369,0,0,1,213.6776,265.531Z" fill="#20808c"/>
        <path d="M97.563,329.679q-1.49-3.34-2.98-6.6794a28.2071,28.2071,0,0,1,5.3563-.1088c1.3482.2152,2.5769,1.178,3.8587,1.8085a18.3458,18.3458,0,0,1-2.6865,3.66C100.2034,329.1252,98.7658,329.2628,97.563,329.679Z" fill="#0b222b"/>
      </g>
    </g>
  </g>
</svg>
