<svg xmlns="http://www.w3.org/2000/svg" width="929.0548" height="306.4051" viewBox="0 0 929.0548 306.4051">
  <g id="Layer_2" data-name="Layer 2">
    <g id="Layer_1-2" data-name="Layer 1">
      <g>
        <path d="M0,66.2478H5.1563c17.1655,0,34.3322.1061,51.4957-.0814,3.8523-.042,5.3812.819,5.97,5.008,5.2133,37.0811,10.7221,74.1207,17.3624,111.3244,5.5683-38.5716,11.1366-77.1433,16.74-115.9591h61.4969V305.9523H112.5139V176.6441l-.8261-.0472q-8.9959,64.668-18.0084,129.4534H64.7166Q55.6218,240.765,46.5549,175.68l-.9784.0755V305.97H0Z"/>
        <path d="M252.7949,66.2477h38.0772c9.0266,0,9.0181.0018,10.8273,8.8184q10.4836,51.0906,20.99,102.1764a8.5593,8.5593,0,0,0,2.2383,4.5326V66.5041h43.9394V305.9134H321.5657q-12.1132-56.0015-24.2772-112.2377l-.7257.0857V305.8458H252.7949Z"/>
        <path d="M390.9023,305.8952V66.6651a16.5232,16.5232,0,0,1,2.54-.39c25.3165.2541,50.6364.366,75.9462.93,5.9192.132,11.8383,1.6379,17.6967,2.8138,9.765,1.96,15.4826,8.3235,17.2423,17.8218,1.4793,7.9854,2.8156,16.1394,2.8577,24.2259q.3868,74.2352-.034,148.4726c-.0609,8.8817-1.827,17.8339-3.5837,26.5976-1.602,7.993-6.9011,13.5831-15.0088,14.9532-11.112,1.8778-22.3575,3.6264-33.5912,3.9783-20.1435.631-40.3208.1849-60.484.1665C393.3664,306.2339,392.2489,306.0283,390.9023,305.8952Zm50.744-200.7033v5.6652q0,75.1546,0,150.3094c0,.9988-.3511,2.2047.0843,2.95.7549,1.2928,1.8737,3.1181,3.0557,3.2974,8.6028,1.3047,11.512-1.5317,11.516-10.938q.0288-67.9139-.0258-135.8277c-.0038-3.3135.1158-6.8471-.9691-9.8662a10.4248,10.4248,0,0,0-5.3908-5.3881C447.6876,104.4742,444.7825,105.1919,441.6463,105.1919Z"/>
        <path d="M640.7924,66.433h61.6955c10.3064,79.6863,20.61,159.348,31.0176,239.8182H722.5686c-5.6656,0-11.3319.0547-16.9966-.0156-5.5023-.0683-11.3629,1.3208-16.1868-4.6163V276.4365c5.36-.7,5.45-4.64,4.9911-9.3067-1.7737-18.0511-3.1529-36.1422-5.0653-54.1774-.64-6.036-2.4338-11.95-3.9086-18.9012,6.9134,1.2211,11.6532.3608,13.4356-5.613.5235-1.7548.1638-3.7925.1037-5.6971-.073-2.3185-.3811-4.6342-.37-6.95.0326-6.5408-1.619-11.9318-6.6655-16.8969-2.61-2.5675-7.126-6.27-4.679-11.8606.3448-.7877-.7646-2.8137-1.7368-3.4583a26.9968,26.9968,0,0,0-7.9724-4.0285c-1.7945-.45-4.9172.138-5.8751,1.4268-2.6387,3.55-5.3314,5.6122-10.0693,3.3258q-.18.6539-.36,1.3077l4.8792,3.6832c-5.9688,3.742-6.5834,12.0616-14.4713,14.5826-5.6217,1.7967-8.0106,7.618-7.8725,13.4247.3716,15.6337.9861,31.2712,2.067,46.8683.1636,2.3616,2.9238,5.6825,5.21,6.484,3.2235,1.13,2.3646,2.917,2.326,4.8371-.2108,10.4874-.9256,20.9888-.5849,31.4567.3865,11.8723,1.6192,23.7219,2.6836,35.5634.2354,2.6188-.4287,3.7459-3.0355,3.7436-13.8041-.0124-27.6081-.0058-42.3234-.0058C620.3476,226.1375,630.5412,146.51,640.7924,66.433Z"/>
        <path d="M527.7912,66.5232h80.2034v38.4724H578.3219v49.8121H608V194.08H577.9778V306.0183H527.7912Z"/>
        <path d="M748.7868,66.483H799.08V266.92H829v39.0334H748.7868Z"/>
        <path d="M929.0548,266.9356v38.8913H848.62V66.5134h50.1286V266.9356Z"/>
        <path d="M230.5,306.0442H180.6712V66.5755H230.5Z"/>
        <path d="M660.5461.7094c6.6421-1.76,11.1172-.1989,14.48,6.4628,4.3808,8.6781,10.056,16.7028,16.0878,24.8057V.6181h10.04V52.3543c-8.1973,2.102-9.4894,1.5987-13.8749-5.4482-5.25-8.4369-10.5036-16.872-16.5088-26.5177V52.6815H660.5461Z"/>
        <path d="M399.53,52.679V.6027c9.134,0,18.0709-.2974,26.9742.1211,4.698.2208,7.6731,3.51,9.2327,8.0089,3.3076,9.54.743,19.2186-6.7945,24.133,1.5,3.2092,3.0194,6.4849,4.5615,9.75,1.5454,3.2716,3.1139,6.5323,4.7549,9.9711a8.9093,8.9093,0,0,1-1.6778.4586c-9.649.27-9.65.2664-13.5589-8.6536a29.3158,29.3158,0,0,1-1.7406-4.1348c-1.5137-5.7377-4.7759-8.8561-11.6371-7.4178v19.84ZM409.836,24.0743c4.1411,0,7.77-.0026,11.3982.0008,3.9009.0035,5.1917-2.4046,5.2157-5.81.0256-3.6214.6256-7.9595-4.3273-8.7153-3.9664-.6052-8.0988-.1223-12.2866-.1223Z"/>
        <path d="M270.584,26.7545c-.2541,2.98-.361,5.981-.7873,8.936-2.0061,13.9029-7.4628,18.4035-21.4058,17.7992-14.6637-.6356-19.2292-4.6526-20.1495-19.499a103.9262,103.9262,0,0,1,1.322-21.767c.9765-6.4656,5.3281-10.908,11.98-11.678a68.0237,68.0237,0,0,1,15.87.1258,11.8213,11.8213,0,0,1,10.35,8.9605c1.5027,5.5608,2.3411,11.3011,3.469,16.9632Zm-32.1053-.139.0679,0a81.4366,81.4366,0,0,0,.0571,8.969c.6683,5.9961,3.3634,8.1658,9.7,8.3295,7.0823.183,10.3472-1.8763,11.0028-7.9895a97.0343,97.0343,0,0,0,.2808-16.4048c-.4849-7.66-3.5585-10.3621-10.5847-10.2627-7.2107.102-9.9425,2.75-10.4978,10.379C238.3362,21.9508,238.4787,24.2884,238.4787,26.6155Z"/>
        <path d="M597.596,26.915c.6721-4.9312,1.0182-9.935,2.0955-14.776,1.4746-6.626,5.7618-10.9742,12.6173-11.74a62.5322,62.5322,0,0,1,14.416.0351c7.4229.9087,11.85,6.0343,12.4484,13.0006a126.5919,126.5919,0,0,1-.192,27.2053c-1.24,9.3948-7.6594,12.93-19.4363,12.903-15.04-.0345-20.3033-5.0219-21.2237-20.1065-.1315-2.1559-.2828-4.3106-.4249-6.4659Zm10.63.5568a93.8082,93.8082,0,0,0,.9259,9.49c1.0008,5.2115,3.6223,6.909,9.8147,6.9535,6.5084.0469,9.7428-1.695,10.297-6.9836a99.9683,99.9683,0,0,0,.2417-19.3293c-.5689-6.2769-3.8214-8.418-10.2336-8.3442-6.7128.0774-9.21,1.9856-10.2695,8.352C608.4871,20.7077,608.49,23.8919,608.2263,27.4718Z"/>
        <path d="M380.4724.2665v9.8172q-8.4436,0-16.8359,0c-7.3783.0024-7.3859.0037-7.314,7.5.0125,1.3055.12,2.61.22,4.6815H377.2v8.8361l-20.3761,1.0407a8.32,8.32,0,0,0-.4552,1.6313c-.3768,9.8024-.3721,9.793,9.5959,9.8083,4.3312.0066,8.6625.0555,12.9936.1072a6.2665,6.2665,0,0,1,1.3118.4044v9.0117c-8.7389,0-17.4988.29-26.2261-.1175-4.6452-.217-7.7877-3.32-7.869-8.1773-.198-11.8241-.288-23.659.0115-35.4787.1425-5.6206,3.612-8.7911,9.4273-8.9939C363.7185.055,371.84.2665,380.4724.2665Z"/>
        <path d="M501.3371,53.0827a27.375,27.375,0,0,0-3.4447.0183c-5.59.9255-9.2739-.721-9.8682-6.9468-.3526-3.6942-2.5289-5.1184-6.1636-4.59a24.4879,24.4879,0,0,1-3.4948.0253c-8.6973,0-8.8317-.0433-11.4793,8.2276-.8181,2.5557-1.9688,3.52-4.567,3.3051-2.3-.19-4.628-.04-7.6256-.04,2.6687-7.9925,5.1621-15.5091,7.6889-23.0146,3.0224-8.9781,5.9507-17.992,9.2448-26.87A5.4313,5.4313,0,0,1,475.83.4231c2.9948.0991,8.0545.4073,8.6114,1.95C490.4151,18.9184,495.6759,35.7215,501.3371,53.0827ZM472.3949,31.9488h11.546c-1.7826-5.6707-3.4246-10.8939-5.5256-17.5773C476.1129,21.0934,474.33,26.3,472.3949,31.9488Z"/>
        <path d="M299.4715,32.5907V52.83h-9.9069V.7017c9.0645,0,17.9818-.3349,26.8574.1282,5.1492.2687,8.5715,3.8426,9.3393,8.9525a44.4511,44.4511,0,0,1,.3605,12.8339c-1.2069,8.2622-6.3218,11.7728-14.8378,11.0561C307.509,33.3547,303.7385,32.9832,299.4715,32.5907Zm.2946-7.0646c5.4724-1.1035,10.8895-1.261,15.1476-3.5627,1.486-.8032,1.4047-9.2267-.206-10.1194-4.2026-2.3294-9.6468-2.4186-14.9416-3.47Z"/>
        <path d="M549.1856,9.8854H535.1017V52.8215H524.69V9.9136H510.7119V.6238h38.4737Z"/>
        <path d="M568.6585.3708h9.3993V52.7527h-9.3993Z"/>
        <path d="M670.89,272.2012h6.1811c.97,11.0439,1.9479,22.18,2.96,33.7073H664.0673c.1912-2.0062-.078-4.1178.639-5.8119,2.4847-5.87,2.6274-11.8394,1.882-18.0314-.1551-1.2888,1.2036-2.7482,1.8276-4.1455C669.19,276.1879,669.9244,274.439,670.89,272.2012Z"/>
        <path d="M683.8945,155.5271c1.7036,2.5979,3.5,5.143,5.0317,7.8385.3029.5329-.186,1.8748-.7337,2.4089a2.2419,2.2419,0,0,1-2.1984-.0963c-1.9572-2.8161-4.6019-5.4618-3.9218-9.2355Z"/>
      </g>
    </g>
  </g>
</svg>
