<?xml version="1.0" encoding="utf-8"?>
<!-- Generator: Adobe Illustrator 25.2.3, SVG Export Plug-In . SVG Version: 6.00 Build 0)  -->
<svg version="1.1" id="Layer_1" xmlns="http://www.w3.org/2000/svg" xmlns:xlink="http://www.w3.org/1999/xlink" x="0px" y="0px"
	 viewBox="0 0 343 655" style="enable-background:new 0 0 343 655;" xml:space="preserve">
<style type="text/css">
	.st0{fill:#0A1013;}
	.st1{fill:none;}
	.st2{fill-opacity:0.75;}
	.st3{fill:#FFFFFF;}
	.st4{fill:#FAFAFA;}
	.st5{fill:#C99D2B;}
	.st6{fill:none;stroke:#FCF2D6;stroke-width:7;stroke-miterlimit:10;}
	.st7{fill:none;stroke:#F3A917;stroke-width:7;stroke-miterlimit:10;}
	.st8{opacity:0;}
</style>
<image style="overflow:visible;" width="633" height="355" xlink:href="operation-mindfall/operation-mindfall.png"  transform="matrix(0.5292 0 0 0.5292 4 64.1248)">
</image>
<g>
	<path class="st0" d="M4,7c0-2.8,2.2-5,5-5h325c2.8,0,5,2.2,5,5v63H4V7z"/>
</g>
<g>
	<path class="st1" d="M4,70h335v200H4V70z"/>
</g>
<rect x="244" y="227" class="st2" width="90" height="20"/>
<path class="st3" d="M252.5,235c0,0.7-0.2,1.3-0.7,1.7c-0.5,0.4-1.2,0.7-2.1,0.7H248v3.6h-0.8v-8.4h2.5c0.9,0,1.6,0.2,2.1,0.7
	C252.3,233.7,252.5,234.3,252.5,235z M249.7,236.7c1.3,0,2-0.6,2-1.7c0-0.6-0.2-1-0.5-1.3c-0.3-0.3-0.8-0.4-1.5-0.4H248v3.4H249.7z
	 M254.2,235.6c0.2-0.4,0.5-0.7,0.8-0.9c0.4-0.2,0.9-0.3,1.4-0.3v0.9h-0.2c-0.6,0-1.1,0.2-1.5,0.5s-0.6,0.9-0.6,1.6v3.7h-0.8v-6.6
	h0.8V235.6z M257.6,233.2c-0.2,0-0.3-0.1-0.4-0.2s-0.2-0.3-0.2-0.4c0-0.2,0.1-0.3,0.2-0.4c0.1-0.1,0.3-0.2,0.4-0.2s0.3,0.1,0.4,0.2
	c0.1,0.1,0.2,0.3,0.2,0.4c0,0.2-0.1,0.3-0.2,0.4C257.9,233.2,257.8,233.2,257.6,233.2z M258,234.4v6.6h-0.8v-6.6H258z M261.6,241.1
	c-0.8,0-1.4-0.2-1.8-0.5c-0.5-0.4-0.7-0.8-0.8-1.4h0.9c0,0.4,0.2,0.7,0.5,0.9c0.3,0.2,0.7,0.3,1.2,0.3c0.5,0,0.8-0.1,1.1-0.3
	c0.3-0.2,0.4-0.5,0.4-0.8c0-0.2-0.1-0.4-0.2-0.6c-0.1-0.1-0.3-0.3-0.6-0.3c-0.2-0.1-0.5-0.2-0.9-0.3c-0.5-0.1-0.9-0.3-1.2-0.4
	c-0.3-0.1-0.6-0.3-0.8-0.6c-0.2-0.3-0.3-0.6-0.3-1c0-0.3,0.1-0.6,0.3-0.9c0.2-0.3,0.5-0.5,0.8-0.6c0.4-0.2,0.8-0.2,1.2-0.2
	c0.7,0,1.3,0.2,1.7,0.5c0.4,0.4,0.7,0.8,0.7,1.5H263c0-0.4-0.2-0.7-0.5-0.9c-0.3-0.2-0.6-0.4-1.1-0.4c-0.4,0-0.8,0.1-1,0.3
	c-0.3,0.2-0.4,0.4-0.4,0.7c0,0.3,0.1,0.5,0.2,0.6c0.2,0.2,0.4,0.3,0.6,0.4c0.2,0.1,0.5,0.2,0.9,0.3c0.5,0.1,0.8,0.3,1.1,0.4
	s0.5,0.3,0.7,0.5c0.2,0.2,0.3,0.5,0.3,0.9c0,0.4-0.1,0.7-0.3,0.9c-0.2,0.3-0.5,0.5-0.8,0.6S262.1,241.1,261.6,241.1z M270.9,237.4
	c0,0.3,0,0.5,0,0.7h-5.4c0,0.5,0.1,0.9,0.4,1.3c0.2,0.4,0.5,0.6,0.9,0.8c0.4,0.2,0.7,0.3,1.2,0.3c0.5,0,1-0.1,1.4-0.4
	c0.4-0.3,0.6-0.6,0.7-1.1h0.9c-0.2,0.6-0.5,1.2-1,1.6c-0.5,0.4-1.2,0.6-2,0.6c-0.6,0-1.2-0.1-1.7-0.4c-0.5-0.3-0.9-0.7-1.2-1.2
	c-0.3-0.5-0.4-1.1-0.4-1.8c0-0.7,0.1-1.3,0.4-1.8c0.3-0.5,0.7-0.9,1.1-1.2c0.5-0.3,1-0.4,1.7-0.4c0.6,0,1.2,0.1,1.6,0.4
	c0.5,0.3,0.8,0.6,1.1,1.1C270.8,236.3,270.9,236.8,270.9,237.4z M270,237.4c0-0.5-0.1-0.9-0.3-1.2c-0.2-0.3-0.5-0.6-0.8-0.8
	c-0.4-0.2-0.7-0.3-1.2-0.3c-0.6,0-1.2,0.2-1.6,0.6c-0.4,0.4-0.7,1-0.7,1.7H270z M272.7,235.6c0.2-0.4,0.5-0.7,0.8-0.9
	c0.4-0.2,0.9-0.3,1.4-0.3v0.9h-0.2c-0.6,0-1.1,0.2-1.5,0.5c-0.4,0.3-0.6,0.9-0.6,1.6v3.7h-0.8v-6.6h0.8V235.6z M281,235.2h-1.5v5.8
	h-0.8v-5.8h-0.9v-0.7h0.9V234c0-0.7,0.2-1.2,0.5-1.6c0.4-0.3,1-0.5,1.8-0.5v0.7c-0.5,0-0.9,0.1-1.2,0.3c-0.2,0.2-0.3,0.6-0.3,1v0.5
	h1.5V235.2z M282.6,235.6c0.2-0.4,0.5-0.7,0.8-0.9c0.4-0.2,0.9-0.3,1.4-0.3v0.9h-0.2c-0.6,0-1.1,0.2-1.5,0.5
	c-0.4,0.3-0.6,0.9-0.6,1.6v3.7h-0.8v-6.6h0.8V235.6z M285.2,237.7c0-0.7,0.1-1.3,0.4-1.8c0.3-0.5,0.6-0.9,1.1-1.2
	c0.5-0.3,1-0.4,1.6-0.4c0.6,0,1.2,0.1,1.6,0.4c0.5,0.3,0.8,0.7,1,1.1v-1.4h0.8v6.6h-0.8v-1.5c-0.2,0.4-0.5,0.8-1,1.1
	c-0.4,0.3-1,0.4-1.6,0.4c-0.6,0-1.1-0.1-1.6-0.4c-0.5-0.3-0.8-0.7-1.1-1.2C285.4,239,285.2,238.4,285.2,237.7z M290.9,237.7
	c0-0.5-0.1-1-0.3-1.4c-0.2-0.4-0.5-0.7-0.9-0.9c-0.4-0.2-0.8-0.3-1.2-0.3c-0.5,0-0.9,0.1-1.2,0.3c-0.4,0.2-0.7,0.5-0.9,0.9
	c-0.2,0.4-0.3,0.9-0.3,1.4c0,0.5,0.1,1,0.3,1.4c0.2,0.4,0.5,0.7,0.9,0.9c0.4,0.2,0.8,0.3,1.2,0.3c0.4,0,0.9-0.1,1.2-0.3
	c0.4-0.2,0.7-0.5,0.9-0.9C290.8,238.7,290.9,238.3,290.9,237.7z M299.5,241l-2.7-2.9v2.9h-0.8v-8.9h0.8v5.3l2.6-2.9h1.2l-3.1,3.3
	l3.1,3.3H299.5z M302,235.6c0.2-0.4,0.5-0.7,0.8-0.9c0.4-0.2,0.9-0.3,1.4-0.3v0.9H304c-0.6,0-1.1,0.2-1.5,0.5s-0.6,0.9-0.6,1.6v3.7
	h-0.8v-6.6h0.8V235.6z M305.1,241.1c-0.2,0-0.3-0.1-0.4-0.2c-0.1-0.1-0.2-0.3-0.2-0.4c0-0.2,0.1-0.3,0.2-0.4
	c0.1-0.1,0.3-0.2,0.4-0.2c0.2,0,0.3,0.1,0.4,0.2c0.1,0.1,0.2,0.3,0.2,0.4c0,0.2-0.1,0.3-0.2,0.4C305.4,241,305.3,241.1,305.1,241.1z
	 M308.8,233.2v-0.8h2v8.6h-0.9v-7.8H308.8z M317.3,233.1l-3.3,7.9h-0.9l3.4-7.9h-4.8v-0.7h5.6V233.1z M323.4,233.1H319v3.1
	c0.2-0.3,0.5-0.5,0.9-0.7c0.4-0.2,0.8-0.3,1.2-0.3c0.7,0,1.2,0.1,1.6,0.4c0.4,0.3,0.7,0.6,0.9,1c0.2,0.4,0.3,0.9,0.3,1.4
	c0,0.6-0.1,1.1-0.3,1.5c-0.2,0.4-0.5,0.8-1,1.1c-0.4,0.3-1,0.4-1.6,0.4c-0.8,0-1.5-0.2-2-0.6c-0.5-0.4-0.8-1-0.9-1.7h0.8
	c0.1,0.5,0.3,0.9,0.7,1.2c0.4,0.3,0.8,0.4,1.4,0.4c0.7,0,1.2-0.2,1.6-0.6c0.4-0.4,0.5-1,0.5-1.6c0-0.7-0.2-1.2-0.5-1.5
	c-0.4-0.4-0.9-0.6-1.5-0.6c-0.5,0-0.9,0.1-1.2,0.3s-0.6,0.5-0.8,0.9h-0.8v-4.8h5.2V233.1z M325.8,239.6l-1.2,3.1H324l0.9-3.1H325.8z
	 M330.6,236.2v0.7H326v-0.7H330.6z"/>
<g>
	<path class="st4" d="M4,252h335v392c0,2.8-2.2,5-5,5H9c-2.8,0-5-2.2-5-5V252z"/>
</g>
<path class="st3" d="M96,25.2h0.8c2.8,0,5.5,0,8.3,0c0.6,0,0.9,0.1,1,0.8c0.8,6,1.7,12,2.8,18c0.9-6.2,1.8-12.5,2.7-18.7h9.9v38.6
	h-7.4V43l-0.1,0c-1,7-1.9,13.9-2.9,20.9h-4.7c-1-7-2-14-2.9-21l-0.2,0v21H96V25.2z"/>
<path class="st3" d="M136.8,25.2h6.1c1.5,0,1.5,0,1.7,1.4c1.1,5.5,2.3,11,3.4,16.5c0,0.3,0.2,0.5,0.4,0.7V25.3h7.1v38.6h-7.6
	c-1.3-6-2.6-12.1-3.9-18.1l-0.1,0v18.1h-7.1V25.2z"/>
<path class="st3" d="M159.1,63.9V25.3c0.1,0,0.3-0.1,0.4-0.1c4.1,0,8.2,0.1,12.3,0.2c1,0,1.9,0.3,2.9,0.5c1.6,0.3,2.5,1.3,2.8,2.9
	c0.2,1.3,0.5,2.6,0.5,3.9c0,8,0,16,0,24c0,1.4-0.3,2.9-0.6,4.3c-0.3,1.3-1.1,2.2-2.4,2.4c-1.8,0.3-3.6,0.6-5.4,0.6
	c-3.3,0.1-6.5,0-9.8,0C159.5,64,159.3,63.9,159.1,63.9z M167.3,31.5v0.9c0,8.1,0,16.2,0,24.3c0,0.2-0.1,0.4,0,0.5
	c0.1,0.2,0.3,0.5,0.5,0.5c1.4,0.2,1.9-0.2,1.9-1.8c0-7.3,0-14.6,0-21.9c0-0.5,0-1.1-0.2-1.6c-0.2-0.4-0.5-0.7-0.9-0.9
	C168.3,31.4,167.8,31.5,167.3,31.5z"/>
<path class="st3" d="M199.5,25.2h10c1.7,12.9,3.3,25.7,5,38.7h-1.8c-0.9,0-1.8,0-2.7,0c-0.9,0-1.8,0.2-2.6-0.7v-4.1
	c0.9-0.1,0.9-0.7,0.8-1.5c-0.3-2.9-0.5-5.8-0.8-8.7c-0.1-1-0.4-1.9-0.6-3.1c1.1,0.2,1.9,0.1,2.2-0.9c0.1-0.3,0-0.6,0-0.9
	c0-0.4-0.1-0.7-0.1-1.1c0-1.1-0.3-1.9-1.1-2.7c-0.4-0.4-1.1-1-0.8-1.9c0.1-0.1-0.1-0.5-0.3-0.6c-0.4-0.3-0.8-0.5-1.3-0.7
	c-0.3-0.1-0.8,0-0.9,0.2c-0.4,0.6-0.9,0.9-1.6,0.5c0,0.1,0,0.1-0.1,0.2l0.8,0.6c-1,0.6-1.1,1.9-2.3,2.4c-0.9,0.3-1.3,1.2-1.3,2.2
	c0.1,2.5,0.2,5,0.3,7.6c0,0.4,0.5,0.9,0.8,1c0.5,0.2,0.4,0.5,0.4,0.8c0,1.7-0.1,3.4-0.1,5.1c0.1,1.9,0.3,3.8,0.4,5.7
	c0,0.4-0.1,0.6-0.5,0.6c-2.2,0-4.5,0-6.8,0C196.2,51,197.8,38.2,199.5,25.2z"/>
<path class="st3" d="M181.2,25.3h12.9v6.2h-4.8v8h4.8v6.3h-4.8v18.1h-8.1V25.3z"/>
<path class="st3" d="M216.9,25.3h8.1v32.4h4.8v6.3h-12.9V25.3z"/>
<path class="st3" d="M246,57.6v6.3h-13V25.3h8.1v32.4H246z"/>
<path class="st3" d="M133.2,63.9h-8V25.3h8V63.9z"/>
<path class="st3" d="M202.6,14.6c1.1-0.3,1.8,0,2.3,1c0.7,1.4,1.6,2.7,2.6,4v-5.1h1.6V23c-1.3,0.3-1.5,0.3-2.2-0.9
	c-0.8-1.4-1.7-2.7-2.7-4.3V23h-1.7V14.6z"/>
<path class="st3" d="M160.5,23v-8.4c1.5,0,2.9,0,4.4,0c0.8,0,1.2,0.6,1.5,1.3c0.5,1.5,0.1,3.1-1.1,3.9c0.2,0.5,0.5,1,0.7,1.6
	c0.2,0.5,0.5,1.1,0.8,1.6c-0.1,0-0.2,0.1-0.3,0.1c-1.6,0-1.6,0-2.2-1.4c-0.1-0.2-0.2-0.4-0.3-0.7c-0.2-0.9-0.8-1.4-1.9-1.2V23H160.5
	z M162.2,18.4c0.7,0,1.3,0,1.8,0c0.6,0,0.8-0.4,0.8-0.9c0-0.6,0.1-1.3-0.7-1.4c-0.6-0.1-1.3,0-2,0V18.4z"/>
<path class="st3" d="M139.7,18.8c0,0.5-0.1,1-0.1,1.4c-0.3,2.2-1.2,3-3.5,2.9c-2.4-0.1-3.1-0.8-3.3-3.1c-0.1-1.2,0-2.4,0.2-3.5
	c0.2-1,0.9-1.8,1.9-1.9c0.9-0.1,1.7-0.1,2.6,0c0.4,0,0.8,0.2,1.1,0.5c0.3,0.3,0.5,0.6,0.6,1c0.2,0.9,0.4,1.8,0.6,2.7L139.7,18.8z
	 M134.5,18.8L134.5,18.8c0,0.5,0,1,0,1.4c0.1,1,0.5,1.3,1.6,1.3c1.1,0,1.7-0.3,1.8-1.3c0.1-0.9,0.1-1.8,0-2.6
	c-0.1-1.2-0.6-1.7-1.7-1.7c-1.2,0-1.6,0.4-1.7,1.7C134.5,18.1,134.5,18.4,134.5,18.8z"/>
<path class="st3" d="M192.5,18.9c0.1-0.8,0.2-1.6,0.3-2.4c0.2-1.1,0.9-1.8,2-1.9c0.8-0.1,1.6-0.1,2.3,0c1.2,0.1,1.9,1,2,2.1
	c0.1,1.5,0.1,2.9,0,4.4c-0.2,1.5-1.2,2.1-3.1,2.1c-2.4,0-3.3-0.8-3.4-3.2C192.6,19.6,192.6,19.2,192.5,18.9L192.5,18.9z M194.2,19
	c0,0.5,0.1,1,0.1,1.5c0.2,0.8,0.6,1.1,1.6,1.1c1.1,0,1.6-0.3,1.7-1.1c0.1-1,0.1-2.1,0-3.1c-0.1-1-0.6-1.4-1.7-1.3
	c-1.1,0-1.5,0.3-1.7,1.3C194.2,17.9,194.2,18.4,194.2,19L194.2,19z"/>
<path class="st3" d="M157.4,14.6v1.6c-0.9,0-1.8,0-2.7,0c-1.2,0-1.2,0-1.2,1.2c0,0.2,0,0.4,0,0.8h3.3v1.4l-3.3,0.2
	c0,0.1-0.1,0.2-0.1,0.3c-0.1,1.6-0.1,1.6,1.5,1.6c0.7,0,1.4,0,2.1,0c0.1,0,0.1,0,0.2,0.1v1.5c-1.4,0-2.8,0-4.2,0
	c-0.8,0-1.3-0.5-1.3-1.3c0-1.9,0-3.8,0-5.7c0-0.9,0.6-1.4,1.5-1.5C154.7,14.5,156,14.6,157.4,14.6z"/>
<path class="st3" d="M176.9,23.1c-0.2,0-0.4,0-0.6,0c-0.9,0.1-1.5-0.1-1.6-1.1c-0.1-0.6-0.4-0.8-1-0.7c-0.2,0-0.4,0-0.6,0
	c-1.4,0-1.4,0-1.9,1.3c-0.1,0.4-0.3,0.6-0.7,0.5c-0.4,0-0.7,0-1.2,0c0.4-1.3,0.8-2.5,1.2-3.7c0.5-1.4,1-2.9,1.5-4.3
	c0.1-0.1,0.2-0.2,0.3-0.3c0.1-0.1,0.3-0.1,0.4-0.1c0.5,0,1.3,0.1,1.4,0.3C175.2,17.6,176,20.3,176.9,23.1z M172.3,19.7h1.9
	c-0.3-0.9-0.6-1.8-0.9-2.8C172.9,17.9,172.6,18.8,172.3,19.7z"/>
<path class="st3" d="M144.4,19.8v3.3h-1.6v-8.4c1.5,0,2.9-0.1,4.3,0c0.8,0,1.4,0.6,1.5,1.4c0.1,0.7,0.1,1.4,0.1,2.1
	c-0.2,1.3-1,1.9-2.4,1.8C145.6,19.9,145,19.9,144.4,19.8z M144.4,18.6c0.9-0.2,1.8-0.2,2.4-0.6c0.2-0.1,0.2-1.5,0-1.6
	c-0.7-0.4-1.6-0.4-2.4-0.6V18.6z"/>
<path class="st3" d="M184.7,16.1h-2.3v6.9h-1.7v-6.9h-2.3v-1.5h6.2V16.1z"/>
<path class="st3" d="M187.8,14.6h1.5V23h-1.5V14.6z"/>
<path class="st3" d="M204.3,58.5h1c0.2,1.8,0.3,3.6,0.5,5.4h-2.6c0-0.3,0-0.7,0.1-0.9c0.4-0.9,0.4-1.9,0.3-2.9
	c0-0.2,0.2-0.4,0.3-0.7C204,59.1,204.2,58.8,204.3,58.5z"/>
<path class="st3" d="M206.4,39.6c0.3,0.4,0.6,0.8,0.8,1.3c0,0.1,0,0.3-0.1,0.4c-0.1,0-0.1,0-0.2,0c-0.1,0-0.1,0-0.2-0.1
	c-0.3-0.5-0.7-0.9-0.6-1.5L206.4,39.6z"/>
<path d="M44.7,431h-2.2l-5.1-7.7v7.7h-2.2v-11.2h2.2l5.1,7.7v-7.7h2.2V431z M54.3,423.5c0.3,0.4,0.6,0.9,0.8,1.4
	c0.2,0.5,0.3,1.1,0.3,1.7c0,0.9-0.2,1.7-0.6,2.4c-0.4,0.7-1,1.2-1.7,1.6c-0.7,0.4-1.5,0.6-2.3,0.6c-1,0-1.9-0.3-2.7-0.8l-0.6,0.7
	h-1.4l1.2-1.3c-0.3-0.4-0.6-0.9-0.8-1.4c-0.2-0.5-0.3-1.1-0.3-1.7c0-0.9,0.2-1.7,0.6-2.4c0.4-0.7,1-1.2,1.6-1.6
	c0.7-0.4,1.5-0.6,2.3-0.6c1.1,0,2,0.3,2.8,0.8l0.6-0.7h1.4L54.3,423.5z M48.5,426.6c0,0.5,0.1,1,0.3,1.4l3.3-3.6
	c-0.4-0.3-0.8-0.4-1.4-0.4c-0.6,0-1.2,0.2-1.6,0.7C48.8,425.1,48.5,425.7,48.5,426.6z M53.1,426.6c0-0.5-0.1-1-0.3-1.4l-3.3,3.6
	c0.4,0.3,0.8,0.4,1.3,0.4c0.4,0,0.8-0.1,1.1-0.3c0.4-0.2,0.7-0.5,0.9-0.9C53,427.6,53.1,427.1,53.1,426.6z M60.5,422
	c0.7,0,1.2,0.1,1.7,0.4c0.5,0.3,0.9,0.6,1.2,1v-1.3h2.3v8.9c0,0.8-0.2,1.6-0.5,2.2c-0.3,0.7-0.8,1.2-1.5,1.5
	c-0.7,0.4-1.5,0.6-2.4,0.6c-1.3,0-2.3-0.3-3.1-0.9c-0.8-0.6-1.3-1.4-1.4-2.4H59c0.1,0.4,0.4,0.7,0.8,1c0.4,0.2,0.9,0.4,1.4,0.4
	c0.7,0,1.2-0.2,1.6-0.6c0.4-0.4,0.6-1,0.6-1.8v-1.4c-0.3,0.4-0.7,0.8-1.2,1c-0.5,0.3-1.1,0.4-1.7,0.4c-0.7,0-1.4-0.2-2-0.6
	c-0.6-0.4-1.1-0.9-1.5-1.6c-0.4-0.7-0.5-1.5-0.5-2.4c0-0.9,0.2-1.7,0.5-2.4c0.4-0.7,0.8-1.2,1.5-1.6C59,422.2,59.7,422,60.5,422z
	 M63.4,426.6c0-0.5-0.1-1-0.3-1.4c-0.2-0.4-0.5-0.7-0.9-0.9c-0.4-0.2-0.8-0.3-1.2-0.3s-0.8,0.1-1.2,0.3c-0.4,0.2-0.6,0.5-0.9,0.9
	c-0.2,0.4-0.3,0.8-0.3,1.4c0,0.5,0.1,1,0.3,1.4c0.2,0.4,0.5,0.7,0.9,0.9c0.4,0.2,0.7,0.3,1.2,0.3c0.4,0,0.8-0.1,1.2-0.3
	c0.4-0.2,0.7-0.5,0.9-0.9C63.3,427.6,63.4,427.1,63.4,426.6z M70.1,419.2V431h-2.2v-11.8H70.1z M80.5,426.4c0,0.3,0,0.6-0.1,0.9H74
	c0.1,0.6,0.3,1.1,0.7,1.5c0.4,0.4,0.9,0.5,1.5,0.5c0.8,0,1.4-0.4,1.8-1.1h2.4c-0.3,0.9-0.7,1.6-1.5,2.1c-0.7,0.5-1.6,0.8-2.7,0.8
	c-0.9,0-1.6-0.2-2.3-0.6c-0.7-0.4-1.2-0.9-1.6-1.6c-0.4-0.7-0.6-1.5-0.6-2.4c0-0.9,0.2-1.7,0.6-2.4c0.4-0.7,0.9-1.2,1.6-1.6
	c0.7-0.4,1.4-0.6,2.3-0.6c0.8,0,1.6,0.2,2.3,0.5c0.7,0.4,1.2,0.9,1.6,1.6C80.4,424.7,80.5,425.5,80.5,426.4z M78.2,425.7
	c0-0.6-0.2-1-0.6-1.4c-0.4-0.4-0.9-0.5-1.5-0.5c-0.6,0-1,0.2-1.4,0.5c-0.4,0.3-0.6,0.8-0.7,1.4H78.2z M86.1,431.1
	c-0.9,0-1.6-0.2-2.3-0.6c-0.7-0.4-1.2-0.9-1.6-1.6c-0.4-0.7-0.6-1.5-0.6-2.4c0-0.9,0.2-1.7,0.6-2.4c0.4-0.7,1-1.2,1.6-1.6
	c0.7-0.4,1.5-0.6,2.3-0.6c0.9,0,1.6,0.2,2.3,0.6c0.7,0.4,1.2,0.9,1.6,1.6c0.4,0.7,0.6,1.5,0.6,2.4c0,0.9-0.2,1.7-0.6,2.4
	c-0.4,0.7-1,1.2-1.7,1.6C87.8,431,87,431.1,86.1,431.1z M86.1,429.2c0.4,0,0.8-0.1,1.1-0.3c0.4-0.2,0.7-0.5,0.9-0.9
	c0.2-0.4,0.3-0.9,0.3-1.4c0-0.8-0.2-1.5-0.7-1.9c-0.4-0.5-1-0.7-1.6-0.7s-1.2,0.2-1.6,0.7c-0.4,0.4-0.6,1.1-0.6,1.9
	c0,0.8,0.2,1.5,0.6,2C84.9,429,85.5,429.2,86.1,429.2z M94.6,423.5c0.3-0.5,0.7-0.8,1.1-1.1c0.5-0.3,1-0.4,1.6-0.4v2.4h-0.6
	c-0.7,0-1.2,0.2-1.6,0.5c-0.4,0.3-0.5,0.9-0.5,1.7v4.4h-2.2v-8.9h2.2V423.5z M98.3,426.5c0-0.9,0.2-1.7,0.5-2.4
	c0.4-0.7,0.9-1.2,1.5-1.6c0.6-0.4,1.3-0.6,2.1-0.6c0.6,0,1.1,0.1,1.6,0.4c0.5,0.2,0.9,0.6,1.2,1v-4.2h2.3V431h-2.3v-1.3
	c-0.3,0.4-0.7,0.8-1.2,1.1s-1.1,0.4-1.7,0.4c-0.7,0-1.4-0.2-2-0.6c-0.6-0.4-1.1-0.9-1.5-1.6C98.5,428.2,98.3,427.4,98.3,426.5z
	 M105.3,426.6c0-0.5-0.1-1-0.3-1.4c-0.2-0.4-0.5-0.7-0.9-0.9c-0.4-0.2-0.8-0.3-1.2-0.3s-0.8,0.1-1.2,0.3s-0.6,0.5-0.9,0.9
	c-0.2,0.4-0.3,0.8-0.3,1.4c0,0.5,0.1,1,0.3,1.4c0.2,0.4,0.5,0.7,0.9,0.9c0.4,0.2,0.7,0.3,1.2,0.3c0.4,0,0.8-0.1,1.2-0.3
	c0.4-0.2,0.7-0.5,0.9-0.9C105.1,427.6,105.3,427.1,105.3,426.6z"/>
<path d="M46,461.6c-0.5,0-1-0.2-1.4-0.6c-0.4-0.4-0.6-0.8-0.6-1.4c0-0.6,0.2-1,0.6-1.4c0.4-0.4,0.8-0.6,1.4-0.6c0.6,0,1,0.2,1.4,0.6
	c0.4,0.4,0.6,0.8,0.6,1.4c0,0.5-0.2,1-0.6,1.4C47,461.4,46.5,461.6,46,461.6z M58.7,460.6c0-0.9,0.2-1.7,0.5-2.4
	c0.4-0.7,0.9-1.2,1.5-1.6c0.6-0.4,1.3-0.6,2.1-0.6c0.8,0,1.4,0.2,2,0.5c0.6,0.3,1,0.7,1.3,1.2v-1.6h1.5v8.8h-1.5v-1.6
	c-0.3,0.5-0.7,0.9-1.3,1.3c-0.6,0.3-1.2,0.5-2,0.5c-0.8,0-1.5-0.2-2.1-0.6c-0.6-0.4-1.1-0.9-1.5-1.6
	C58.9,462.3,58.7,461.5,58.7,460.6z M66.1,460.6c0-0.7-0.1-1.2-0.4-1.7s-0.6-0.9-1.1-1.1c-0.4-0.3-0.9-0.4-1.5-0.4
	c-0.5,0-1,0.1-1.5,0.4c-0.4,0.3-0.8,0.6-1.1,1.1s-0.4,1.1-0.4,1.7c0,0.7,0.1,1.3,0.4,1.8c0.3,0.5,0.6,0.9,1.1,1.1
	c0.4,0.3,0.9,0.4,1.5,0.4c0.5,0,1-0.1,1.5-0.4c0.5-0.3,0.8-0.6,1.1-1.1C66,461.8,66.1,461.3,66.1,460.6z M69.7,460.6
	c0-0.9,0.2-1.7,0.5-2.4c0.4-0.7,0.9-1.2,1.5-1.6c0.7-0.4,1.4-0.6,2.2-0.6c1.1,0,2,0.3,2.7,0.8c0.7,0.5,1.2,1.2,1.4,2.2h-1.6
	c-0.1-0.5-0.4-1-0.9-1.3c-0.4-0.3-1-0.5-1.6-0.5c-0.8,0-1.5,0.3-2,0.9c-0.5,0.6-0.8,1.4-0.8,2.4c0,1.1,0.3,1.9,0.8,2.4
	c0.5,0.6,1.2,0.9,2,0.9c0.6,0,1.2-0.1,1.6-0.4c0.4-0.3,0.7-0.7,0.9-1.3H78c-0.2,0.9-0.7,1.6-1.4,2.2c-0.7,0.5-1.6,0.8-2.6,0.8
	c-0.8,0-1.6-0.2-2.2-0.6c-0.6-0.4-1.1-0.9-1.5-1.6S69.7,461.5,69.7,460.6z M81.9,457.4v5.2c0,0.4,0.1,0.7,0.3,0.9
	c0.2,0.2,0.5,0.3,0.9,0.3h1.1v1.2h-1.3c-0.8,0-1.4-0.2-1.8-0.6c-0.4-0.4-0.6-1-0.6-1.8v-5.2h-1.1v-1.2h1.1V454h1.5v2.2h2.3v1.2H81.9
	z M86.8,454.8c-0.3,0-0.5-0.1-0.7-0.3c-0.2-0.2-0.3-0.4-0.3-0.7c0-0.3,0.1-0.5,0.3-0.7s0.4-0.3,0.7-0.3c0.3,0,0.5,0.1,0.7,0.3
	c0.2,0.2,0.3,0.4,0.3,0.7c0,0.3-0.1,0.5-0.3,0.7C87.3,454.7,87.1,454.8,86.8,454.8z M87.5,456.2v8.8h-1.5v-8.8H87.5z M94,465.1
	c-0.8,0-1.6-0.2-2.2-0.6c-0.7-0.4-1.2-0.9-1.6-1.6c-0.4-0.7-0.6-1.5-0.6-2.4c0-0.9,0.2-1.7,0.6-2.4c0.4-0.7,0.9-1.2,1.6-1.6
	c0.7-0.4,1.4-0.6,2.3-0.6s1.6,0.2,2.3,0.6c0.7,0.4,1.2,0.9,1.6,1.6c0.4,0.7,0.6,1.5,0.6,2.4c0,0.9-0.2,1.7-0.6,2.4
	c-0.4,0.7-0.9,1.2-1.6,1.6C95.6,465,94.8,465.1,94,465.1z M94,463.9c0.5,0,1-0.1,1.5-0.4c0.5-0.2,0.8-0.6,1.1-1.1
	c0.3-0.5,0.4-1.1,0.4-1.8c0-0.7-0.1-1.3-0.4-1.8c-0.3-0.5-0.6-0.9-1.1-1.1c-0.4-0.2-0.9-0.4-1.5-0.4c-0.5,0-1,0.1-1.5,0.4
	c-0.4,0.2-0.8,0.6-1.1,1.1c-0.3,0.5-0.4,1.1-0.4,1.8c0,0.7,0.1,1.3,0.4,1.8c0.3,0.5,0.6,0.9,1.1,1.1C93,463.7,93.5,463.9,94,463.9z
	 M104.8,456.1c1.1,0,1.9,0.3,2.6,1c0.7,0.6,1,1.6,1,2.8v5.2H107v-5c0-0.9-0.2-1.5-0.7-2c-0.4-0.5-1-0.7-1.8-0.7
	c-0.8,0-1.4,0.2-1.8,0.7c-0.4,0.5-0.7,1.2-0.7,2.1v4.8h-1.5v-8.8h1.5v1.2c0.3-0.4,0.7-0.8,1.2-1
	C103.7,456.2,104.2,456.1,104.8,456.1z M46,491.6c-0.5,0-1-0.2-1.4-0.6c-0.4-0.4-0.6-0.8-0.6-1.4c0-0.6,0.2-1,0.6-1.4
	c0.4-0.4,0.8-0.6,1.4-0.6c0.6,0,1,0.2,1.4,0.6c0.4,0.4,0.6,0.8,0.6,1.4c0,0.5-0.2,1-0.6,1.4C47,491.4,46.5,491.6,46,491.6z
	 M62.5,493.7l2.7-7.4h1.6l-3.4,8.8h-1.7l-3.4-8.8h1.6L62.5,493.7z M69.1,484.8c-0.3,0-0.5-0.1-0.7-0.3c-0.2-0.2-0.3-0.4-0.3-0.7
	c0-0.3,0.1-0.5,0.3-0.7s0.4-0.3,0.7-0.3c0.3,0,0.5,0.1,0.7,0.3c0.2,0.2,0.3,0.4,0.3,0.7c0,0.3-0.1,0.5-0.3,0.7
	C69.6,484.7,69.4,484.8,69.1,484.8z M69.8,486.2v8.8h-1.5v-8.8H69.8z M73.9,487.7c0.3-0.5,0.6-0.9,1.1-1.2c0.5-0.3,1.1-0.4,1.7-0.4
	v1.5h-0.4c-1.6,0-2.4,0.9-2.4,2.7v4.8h-1.5v-8.8h1.5V487.7z M86.4,486.2v8.8h-1.5v-1.3c-0.3,0.4-0.7,0.8-1.2,1.1
	c-0.5,0.2-1,0.4-1.6,0.4c-0.7,0-1.3-0.1-1.8-0.4c-0.5-0.3-1-0.7-1.3-1.3c-0.3-0.6-0.5-1.3-0.5-2.1v-5.1h1.4v4.9c0,0.9,0.2,1.5,0.7,2
	c0.4,0.5,1,0.7,1.8,0.7c0.8,0,1.4-0.2,1.8-0.7c0.4-0.5,0.7-1.2,0.7-2.1v-4.8H86.4z M92.1,495.1c-0.7,0-1.3-0.1-1.8-0.3
	c-0.5-0.2-1-0.6-1.3-1c-0.3-0.4-0.5-0.9-0.5-1.4H90c0,0.4,0.2,0.8,0.6,1.1c0.4,0.3,0.9,0.4,1.5,0.4c0.6,0,1-0.1,1.3-0.4
	s0.5-0.6,0.5-0.9c0-0.4-0.2-0.7-0.5-0.8c-0.3-0.2-0.9-0.4-1.6-0.6c-0.7-0.2-1.2-0.3-1.6-0.5c-0.4-0.2-0.8-0.4-1.1-0.8
	c-0.3-0.4-0.4-0.8-0.4-1.4c0-0.4,0.1-0.9,0.4-1.2c0.3-0.4,0.6-0.7,1.1-0.9c0.5-0.2,1.1-0.3,1.7-0.3c1,0,1.8,0.2,2.4,0.7
	c0.6,0.5,0.9,1.2,1,2h-1.5c0-0.5-0.2-0.8-0.6-1.1c-0.3-0.3-0.8-0.4-1.3-0.4c-0.5,0-0.9,0.1-1.2,0.3c-0.3,0.2-0.5,0.5-0.5,0.9
	c0,0.3,0.1,0.5,0.3,0.7c0.2,0.2,0.4,0.3,0.7,0.4c0.3,0.1,0.7,0.2,1.2,0.4c0.6,0.2,1.1,0.3,1.5,0.5c0.4,0.2,0.7,0.4,1,0.7
	c0.3,0.3,0.4,0.8,0.4,1.3c0,0.5-0.1,0.9-0.4,1.3c-0.3,0.4-0.6,0.7-1.1,0.9C93.3,495,92.7,495.1,92.1,495.1z M46,521.6
	c-0.5,0-1-0.2-1.4-0.6c-0.4-0.4-0.6-0.8-0.6-1.4c0-0.6,0.2-1,0.6-1.4c0.4-0.4,0.8-0.6,1.4-0.6c0.6,0,1,0.2,1.4,0.6
	c0.4,0.4,0.6,0.8,0.6,1.4c0,0.5-0.2,1-0.6,1.4C47,521.4,46.5,521.6,46,521.6z M63.6,516.1c0.7,0,1.3,0.1,1.8,0.4
	c0.5,0.3,0.9,0.7,1.2,1.3c0.3,0.6,0.5,1.3,0.5,2.1v5.2h-1.4v-5c0-0.9-0.2-1.5-0.7-2c-0.4-0.5-1-0.7-1.8-0.7c-0.8,0-1.4,0.2-1.8,0.7
	c-0.4,0.5-0.7,1.2-0.7,2.1v4.8h-1.5v-11.8h1.5v4.3c0.3-0.4,0.7-0.8,1.2-1C62.4,516.2,63,516.1,63.6,516.1z M69.1,520.6
	c0-0.9,0.2-1.7,0.5-2.4c0.4-0.7,0.9-1.2,1.5-1.6c0.6-0.4,1.3-0.6,2.1-0.6c0.8,0,1.4,0.2,2,0.5c0.6,0.3,1,0.7,1.3,1.2v-1.6H78v8.8
	h-1.5v-1.6c-0.3,0.5-0.7,0.9-1.3,1.3c-0.6,0.3-1.2,0.5-2,0.5c-0.8,0-1.5-0.2-2.1-0.6c-0.6-0.4-1.1-0.9-1.5-1.6
	C69.3,522.3,69.1,521.5,69.1,520.6z M76.5,520.6c0-0.7-0.1-1.2-0.4-1.7c-0.3-0.5-0.6-0.9-1.1-1.1c-0.4-0.3-0.9-0.4-1.5-0.4
	c-0.5,0-1,0.1-1.5,0.4c-0.4,0.3-0.8,0.6-1.1,1.1c-0.3,0.5-0.4,1.1-0.4,1.7c0,0.7,0.1,1.3,0.4,1.8c0.3,0.5,0.6,0.9,1.1,1.1
	c0.4,0.3,0.9,0.4,1.5,0.4c0.5,0,1-0.1,1.5-0.4c0.5-0.3,0.8-0.6,1.1-1.1C76.4,521.8,76.5,521.3,76.5,520.6z M80.1,520.6
	c0-0.9,0.2-1.7,0.5-2.4c0.4-0.7,0.9-1.2,1.5-1.6c0.7-0.4,1.4-0.6,2.2-0.6c1.1,0,2,0.3,2.7,0.8c0.7,0.5,1.2,1.2,1.4,2.2h-1.6
	c-0.1-0.5-0.4-1-0.9-1.3c-0.4-0.3-1-0.5-1.6-0.5c-0.8,0-1.5,0.3-2,0.9c-0.5,0.6-0.8,1.4-0.8,2.4c0,1.1,0.3,1.9,0.8,2.4
	c0.5,0.6,1.2,0.9,2,0.9c0.6,0,1.2-0.1,1.6-0.4c0.4-0.3,0.7-0.7,0.9-1.3h1.6c-0.2,0.9-0.7,1.6-1.4,2.2c-0.7,0.5-1.6,0.8-2.6,0.8
	c-0.8,0-1.6-0.2-2.2-0.6c-0.6-0.4-1.1-0.9-1.5-1.6C80.2,522.3,80.1,521.5,80.1,520.6z M95.4,525l-3.4-3.9v3.9h-1.5v-11.8h1.5v7
	l3.4-3.9h2l-4.1,4.4l4.1,4.4H95.4z M99.6,514.8c-0.3,0-0.5-0.1-0.7-0.3c-0.2-0.2-0.3-0.4-0.3-0.7c0-0.3,0.1-0.5,0.3-0.7
	s0.4-0.3,0.7-0.3c0.3,0,0.5,0.1,0.7,0.3c0.2,0.2,0.3,0.4,0.3,0.7c0,0.3-0.1,0.5-0.3,0.7C100.1,514.7,99.9,514.8,99.6,514.8z
	 M100.3,516.2v8.8h-1.5v-8.8H100.3z M107.2,516.1c1.1,0,1.9,0.3,2.6,1c0.7,0.6,1,1.6,1,2.8v5.2h-1.4v-5c0-0.9-0.2-1.5-0.7-2
	c-0.4-0.5-1-0.7-1.8-0.7c-0.8,0-1.4,0.2-1.8,0.7c-0.4,0.5-0.7,1.2-0.7,2.1v4.8H103v-8.8h1.5v1.2c0.3-0.4,0.7-0.8,1.2-1
	C106.1,516.2,106.6,516.1,107.2,516.1z M117,516.1c0.8,0,1.4,0.2,2,0.5c0.6,0.3,1,0.7,1.3,1.2v-1.6h1.5v9c0,0.8-0.2,1.5-0.5,2.1
	c-0.3,0.6-0.8,1.1-1.5,1.5c-0.6,0.4-1.4,0.5-2.2,0.5c-1.2,0-2.1-0.3-2.9-0.8c-0.8-0.5-1.2-1.3-1.4-2.2h1.4c0.2,0.5,0.5,1,1,1.3
	c0.5,0.3,1.1,0.5,1.8,0.5c0.8,0,1.5-0.3,2-0.8c0.5-0.5,0.8-1.2,0.8-2.1v-1.8c-0.3,0.5-0.7,0.9-1.3,1.3c-0.6,0.3-1.2,0.5-2,0.5
	c-0.8,0-1.5-0.2-2.1-0.6c-0.6-0.4-1.1-0.9-1.5-1.6c-0.4-0.7-0.5-1.5-0.5-2.4c0-0.9,0.2-1.7,0.5-2.4c0.4-0.7,0.9-1.2,1.5-1.6
	C115.5,516.3,116.2,516.1,117,516.1z M120.2,520.6c0-0.7-0.1-1.2-0.4-1.7c-0.3-0.5-0.6-0.9-1.1-1.1c-0.4-0.3-0.9-0.4-1.5-0.4
	s-1,0.1-1.5,0.4c-0.4,0.3-0.8,0.6-1.1,1.1c-0.3,0.5-0.4,1.1-0.4,1.7c0,0.7,0.1,1.3,0.4,1.8c0.3,0.5,0.6,0.9,1.1,1.1
	c0.4,0.3,0.9,0.4,1.5,0.4s1-0.1,1.5-0.4c0.5-0.3,0.8-0.6,1.1-1.1C120.1,521.8,120.2,521.3,120.2,520.6z"/>
<path class="st5" d="M39,576.7h265c2.8,0,5,2.2,5,5v21.6c0,2.8-2.2,5-5,5H39c-2.8,0-5-2.2-5-5v-21.6C34,579,36.2,576.7,39,576.7z"/>
<path class="st3" d="M128.3,596.3h4v2.4h-7.1v-12.6h3.1V596.3z M145.4,588.5v2.6h4v2.3h-4v2.8h4.6v2.4h-7.6v-2.1h-4.2l-1.1,2.1h-3.3
	l6.5-12.6h9.7v2.4H145.4z M142.3,594.3v-5.9l-3,5.9H142.3z M157.4,598.8c-0.9,0-1.8-0.1-2.5-0.5c-0.7-0.3-1.3-0.7-1.8-1.3
	c-0.4-0.6-0.7-1.3-0.7-2.1h3.3c0,0.5,0.2,0.8,0.5,1.1c0.3,0.2,0.6,0.4,1.1,0.4c0.5,0,0.8-0.1,1.1-0.3c0.3-0.2,0.4-0.5,0.4-0.9
	c0-0.3-0.1-0.6-0.3-0.8c-0.2-0.2-0.5-0.4-0.8-0.5c-0.3-0.1-0.7-0.3-1.3-0.4c-0.8-0.3-1.5-0.5-2-0.8s-1-0.6-1.3-1.1s-0.6-1.1-0.6-1.9
	c0-1.2,0.4-2.1,1.3-2.8c0.9-0.7,2-1,3.3-1c1.4,0,2.5,0.3,3.4,1c0.9,0.7,1.3,1.6,1.4,2.8h-3.3c0-0.4-0.2-0.7-0.4-1
	c-0.3-0.2-0.6-0.4-1.1-0.4c-0.4,0-0.7,0.1-0.9,0.3c-0.2,0.2-0.3,0.5-0.3,0.8c0,0.4,0.2,0.7,0.6,1c0.4,0.2,1,0.5,1.8,0.7
	c0.8,0.3,1.5,0.5,2,0.8c0.5,0.3,1,0.6,1.3,1.1c0.4,0.5,0.6,1.1,0.6,1.9c0,0.7-0.2,1.4-0.6,2c-0.4,0.6-0.9,1.1-1.6,1.4
	C159.2,598.7,158.4,598.8,157.4,598.8z M183.8,586.1v12.6h-3.1v-7.6l-2.8,7.6h-2.5l-2.8-7.6v7.6h-3.1v-12.6h3.6l3.5,8.7l3.5-8.7
	H183.8z M190,588.6v2.6h4.1v2.4H190v2.8h4.7v2.5h-7.7v-12.6h7.7v2.5H190z M204,598.7l-2.6-4.8h-0.7v4.8h-3.1v-12.6h5.2
	c1,0,1.8,0.2,2.5,0.5c0.7,0.3,1.2,0.8,1.6,1.4c0.3,0.6,0.5,1.3,0.5,2c0,0.8-0.2,1.6-0.7,2.2c-0.5,0.7-1.2,1.1-2.1,1.4l2.9,5H204z
	 M200.7,591.8h1.9c0.6,0,1-0.1,1.3-0.4c0.3-0.3,0.4-0.7,0.4-1.2c0-0.5-0.1-0.9-0.4-1.1c-0.3-0.3-0.7-0.4-1.3-0.4h-1.9V591.8z
	 M213.3,588.6v2.6h4.1v2.4h-4.1v2.8h4.7v2.5h-7.7v-12.6h7.7v2.5H213.3z"/>
<path d="M42.1,302.8v1.2h-3v10h-1.5v-10h-3.1v-1.2H42.1z M43.3,309.6c0-0.9,0.2-1.7,0.5-2.4c0.4-0.7,0.9-1.2,1.5-1.6
	c0.6-0.4,1.3-0.6,2.1-0.6c0.8,0,1.4,0.2,2,0.5c0.6,0.3,1,0.7,1.3,1.2v-1.6h1.5v8.8h-1.5v-1.6c-0.3,0.5-0.7,0.9-1.3,1.3
	c-0.6,0.3-1.2,0.5-2,0.5c-0.8,0-1.5-0.2-2.1-0.6c-0.6-0.4-1.1-0.9-1.5-1.6C43.5,311.3,43.3,310.5,43.3,309.6z M50.8,309.6
	c0-0.7-0.1-1.2-0.4-1.7c-0.3-0.5-0.6-0.9-1.1-1.1c-0.4-0.3-0.9-0.4-1.5-0.4c-0.5,0-1,0.1-1.5,0.4c-0.4,0.3-0.8,0.6-1.1,1.1
	c-0.3,0.5-0.4,1.1-0.4,1.7c0,0.7,0.1,1.3,0.4,1.8c0.3,0.5,0.6,0.9,1.1,1.1c0.4,0.3,0.9,0.4,1.5,0.4c0.5,0,1-0.1,1.5-0.4
	c0.5-0.3,0.8-0.6,1.1-1.1C50.6,310.8,50.8,310.3,50.8,309.6z M58.3,305.1c0.8,0,1.4,0.2,2,0.5c0.6,0.3,1,0.7,1.3,1.2v-1.6h1.5v9
	c0,0.8-0.2,1.5-0.5,2.1c-0.3,0.6-0.8,1.1-1.5,1.5c-0.6,0.4-1.4,0.5-2.2,0.5c-1.2,0-2.1-0.3-2.9-0.8c-0.8-0.5-1.2-1.3-1.4-2.2h1.4
	c0.2,0.5,0.5,1,1,1.3c0.5,0.3,1.1,0.5,1.8,0.5c0.8,0,1.5-0.3,2-0.8c0.5-0.5,0.8-1.2,0.8-2.1v-1.8c-0.3,0.5-0.7,0.9-1.3,1.3
	c-0.6,0.3-1.2,0.5-2,0.5c-0.8,0-1.5-0.2-2.1-0.6c-0.6-0.4-1.1-0.9-1.5-1.6c-0.4-0.7-0.5-1.5-0.5-2.4c0-0.9,0.2-1.7,0.5-2.4
	c0.4-0.7,0.9-1.2,1.5-1.6C56.8,305.3,57.5,305.1,58.3,305.1z M61.6,309.6c0-0.7-0.1-1.2-0.4-1.7c-0.3-0.5-0.6-0.9-1.1-1.1
	c-0.4-0.3-0.9-0.4-1.5-0.4c-0.5,0-1,0.1-1.5,0.4c-0.4,0.3-0.8,0.6-1.1,1.1c-0.3,0.5-0.4,1.1-0.4,1.7c0,0.7,0.1,1.3,0.4,1.8
	c0.3,0.5,0.6,0.9,1.1,1.1c0.4,0.3,0.9,0.4,1.5,0.4c0.5,0,1-0.1,1.5-0.4c0.5-0.3,0.8-0.6,1.1-1.1C61.4,310.8,61.6,310.3,61.6,309.6z
	 M71.2,306.8c0.3-0.5,0.7-0.9,1.3-1.2c0.6-0.3,1.2-0.5,2-0.5c0.8,0,1.5,0.2,2.1,0.6c0.6,0.4,1.1,0.9,1.5,1.6
	c0.4,0.7,0.5,1.5,0.5,2.4c0,0.9-0.2,1.7-0.5,2.4c-0.4,0.7-0.9,1.2-1.5,1.6c-0.6,0.4-1.3,0.6-2.1,0.6c-0.7,0-1.4-0.2-2-0.5
	c-0.6-0.3-1-0.8-1.3-1.3v5.8h-1.5v-12.9h1.5V306.8z M77.2,309.6c0-0.7-0.1-1.2-0.4-1.7c-0.3-0.5-0.6-0.9-1.1-1.1
	c-0.4-0.3-0.9-0.4-1.5-0.4c-0.5,0-1,0.1-1.5,0.4c-0.4,0.3-0.8,0.6-1.1,1.1c-0.3,0.5-0.4,1.1-0.4,1.7c0,0.7,0.1,1.2,0.4,1.7
	c0.3,0.5,0.6,0.9,1.1,1.1c0.5,0.3,1,0.4,1.5,0.4c0.5,0,1-0.1,1.5-0.4c0.5-0.3,0.8-0.6,1.1-1.1C77.1,310.8,77.2,310.3,77.2,309.6z
	 M80,309.6c0-0.9,0.2-1.7,0.5-2.4c0.4-0.7,0.9-1.2,1.5-1.6c0.6-0.4,1.3-0.6,2.1-0.6c0.8,0,1.4,0.2,2,0.5c0.6,0.3,1,0.7,1.3,1.2v-1.6
	h1.5v8.8h-1.5v-1.6c-0.3,0.5-0.7,0.9-1.3,1.3c-0.6,0.3-1.2,0.5-2,0.5c-0.8,0-1.5-0.2-2.1-0.6c-0.6-0.4-1.1-0.9-1.5-1.6
	C80.2,311.3,80,310.5,80,309.6z M87.5,309.6c0-0.7-0.1-1.2-0.4-1.7c-0.3-0.5-0.6-0.9-1.1-1.1c-0.4-0.3-0.9-0.4-1.5-0.4
	s-1,0.1-1.5,0.4c-0.4,0.3-0.8,0.6-1.1,1.1c-0.3,0.5-0.4,1.1-0.4,1.7c0,0.7,0.1,1.3,0.4,1.8c0.3,0.5,0.6,0.9,1.1,1.1
	c0.4,0.3,0.9,0.4,1.5,0.4s1-0.1,1.5-0.4c0.5-0.3,0.8-0.6,1.1-1.1C87.3,310.8,87.5,310.3,87.5,309.6z M86.5,302.6
	c0,0.5-0.2,0.9-0.5,1.2c-0.3,0.3-0.7,0.4-1.2,0.4c-0.5,0-0.9-0.2-1.2-0.5c-0.3-0.3-0.5-0.7-0.5-1.2s0.2-0.9,0.5-1.2
	c0.3-0.3,0.7-0.5,1.2-0.5c0.5,0,0.9,0.2,1.2,0.5C86.3,301.7,86.5,302.1,86.5,302.6z M85.6,302.6c0-0.3-0.1-0.5-0.3-0.6
	c-0.2-0.2-0.4-0.3-0.6-0.3c-0.2,0-0.5,0.1-0.6,0.3c-0.2,0.2-0.2,0.4-0.2,0.6s0.1,0.5,0.2,0.7c0.2,0.2,0.4,0.3,0.6,0.3
	c0.2,0,0.4-0.1,0.6-0.3C85.6,303.1,85.6,302.9,85.6,302.6z M103.7,309.3c0,0.3,0,0.6,0,0.9h-7c0.1,0.9,0.3,1.5,0.9,2
	c0.5,0.5,1.2,0.7,2,0.7c0.6,0,1.2-0.1,1.6-0.4c0.4-0.3,0.7-0.7,0.9-1.2h1.6c-0.2,0.8-0.7,1.5-1.4,2.1c-0.7,0.5-1.6,0.8-2.6,0.8
	c-0.8,0-1.6-0.2-2.2-0.6c-0.7-0.4-1.2-0.9-1.5-1.6c-0.4-0.7-0.6-1.5-0.6-2.4c0-0.9,0.2-1.7,0.5-2.4c0.4-0.7,0.9-1.2,1.5-1.6
	c0.7-0.4,1.4-0.6,2.3-0.6c0.8,0,1.6,0.2,2.2,0.5c0.6,0.4,1.1,0.9,1.5,1.5C103.5,307.8,103.7,308.5,103.7,309.3z M102.2,309
	c0-0.6-0.1-1-0.4-1.4c-0.2-0.4-0.6-0.7-1-0.9c-0.4-0.2-0.9-0.3-1.4-0.3c-0.7,0-1.4,0.2-1.9,0.7c-0.5,0.5-0.8,1.1-0.9,2H102.2z
	 M109.9,305.1c1.1,0,1.9,0.3,2.6,1c0.7,0.6,1,1.6,1,2.8v5.2H112v-5c0-0.9-0.2-1.5-0.7-2c-0.4-0.5-1-0.7-1.8-0.7
	c-0.8,0-1.4,0.2-1.8,0.7c-0.4,0.5-0.7,1.2-0.7,2.1v4.8h-1.5v-8.8h1.5v1.2c0.3-0.4,0.7-0.8,1.2-1
	C108.7,305.2,109.3,305.1,109.9,305.1z M124.4,305.1c0.7,0,1.3,0.1,1.8,0.4c0.5,0.3,0.9,0.7,1.2,1.3c0.3,0.6,0.5,1.3,0.5,2.1v5.2
	h-1.4v-5c0-0.9-0.2-1.5-0.7-2c-0.4-0.5-1-0.7-1.8-0.7c-0.8,0-1.4,0.2-1.8,0.7c-0.4,0.5-0.7,1.2-0.7,2.1v4.8h-1.5v-11.8h1.5v4.3
	c0.3-0.4,0.7-0.8,1.2-1C123.2,305.2,123.8,305.1,124.4,305.1z M146,309.2c0,0.3,0,0.6-0.1,0.9h-7.2c0.1,0.6,0.2,1.1,0.5,1.5
	c0.3,0.4,0.6,0.7,1.1,0.9c0.4,0.2,0.9,0.3,1.3,0.3c0.7,0,1.2-0.1,1.7-0.4c0.4-0.3,0.7-0.7,0.9-1.2h1.6c-0.2,0.8-0.7,1.5-1.4,2.1
	c-0.7,0.5-1.5,0.8-2.5,0.8c-0.7,0-1.4-0.2-2-0.5c-0.6-0.3-1.1-0.8-1.4-1.3v1.7h-1.3v-1.7c-0.3,0.5-0.8,1-1.3,1.3
	c-0.6,0.3-1.2,0.5-2,0.5c-0.8,0-1.5-0.2-2.1-0.6c-0.6-0.4-1.1-0.9-1.5-1.6c-0.4-0.7-0.5-1.5-0.5-2.4c0-0.9,0.2-1.7,0.5-2.4
	c0.4-0.7,0.9-1.2,1.5-1.6c0.6-0.4,1.4-0.6,2.2-0.6c0.7,0,1.3,0.2,1.9,0.5c0.6,0.3,1,0.7,1.4,1.3v-1.6h1.2v1.6
	c0.8-1.2,1.9-1.8,3.3-1.8c0.8,0,1.5,0.2,2.1,0.6c0.6,0.4,1.1,0.9,1.5,1.5C145.8,307.8,146,308.5,146,309.2z M144.5,309.1
	c0-0.6-0.1-1.1-0.4-1.5c-0.2-0.4-0.6-0.7-1-0.9c-0.4-0.2-0.9-0.3-1.4-0.3c-0.8,0-1.4,0.2-2,0.7c-0.6,0.5-0.9,1.2-0.9,2H144.5z
	 M134.2,312.9c0.5,0,1-0.1,1.5-0.4c0.5-0.3,0.8-0.6,1.1-1.1c0.3-0.5,0.4-1.1,0.4-1.7c0-0.7-0.1-1.2-0.4-1.7
	c-0.3-0.5-0.6-0.9-1.1-1.1c-0.4-0.3-0.9-0.4-1.5-0.4c-0.5,0-1,0.1-1.5,0.4c-0.4,0.3-0.8,0.6-1.1,1.1c-0.3,0.5-0.4,1.1-0.4,1.7
	c0,0.7,0.1,1.3,0.4,1.8c0.3,0.5,0.6,0.9,1.1,1.1C133.2,312.7,133.7,312.9,134.2,312.9z M151,314.1c-0.7,0-1.3-0.1-1.8-0.3
	c-0.5-0.2-1-0.6-1.3-1c-0.3-0.4-0.5-0.9-0.5-1.4h1.5c0,0.4,0.2,0.8,0.6,1.1c0.4,0.3,0.9,0.4,1.5,0.4c0.6,0,1-0.1,1.3-0.4
	c0.3-0.2,0.5-0.6,0.5-0.9c0-0.4-0.2-0.7-0.5-0.8c-0.3-0.2-0.9-0.4-1.6-0.6c-0.7-0.2-1.2-0.3-1.6-0.5c-0.4-0.2-0.8-0.4-1.1-0.8
	c-0.3-0.4-0.4-0.8-0.4-1.4c0-0.4,0.1-0.9,0.4-1.2c0.3-0.4,0.6-0.7,1.1-0.9c0.5-0.2,1.1-0.3,1.7-0.3c1,0,1.8,0.2,2.4,0.7
	c0.6,0.5,0.9,1.2,1,2h-1.5c0-0.5-0.2-0.8-0.6-1.1c-0.3-0.3-0.8-0.4-1.3-0.4c-0.5,0-0.9,0.1-1.2,0.3c-0.3,0.2-0.5,0.5-0.5,0.9
	c0,0.3,0.1,0.5,0.3,0.7c0.2,0.2,0.4,0.3,0.7,0.4c0.3,0.1,0.7,0.2,1.2,0.4c0.6,0.2,1.1,0.3,1.5,0.5c0.4,0.2,0.7,0.4,1,0.7
	c0.3,0.3,0.4,0.8,0.4,1.3c0,0.5-0.1,0.9-0.4,1.3c-0.3,0.4-0.6,0.7-1.1,0.9C152.2,314,151.6,314.1,151,314.1z M157.7,306.9
	c0.3-0.5,0.7-0.9,1.3-1.3c0.6-0.3,1.2-0.5,2-0.5c0.8,0,1.5,0.2,2.1,0.6c0.6,0.4,1.1,0.9,1.5,1.6c0.4,0.7,0.5,1.5,0.5,2.4
	c0,0.9-0.2,1.7-0.5,2.4s-0.9,1.2-1.5,1.6c-0.6,0.4-1.3,0.6-2.1,0.6c-0.8,0-1.4-0.2-2-0.5c-0.6-0.3-1-0.8-1.3-1.3v1.6h-1.5v-11.8h1.5
	V306.9z M163.6,309.6c0-0.7-0.1-1.2-0.4-1.7s-0.6-0.9-1.1-1.1c-0.4-0.3-0.9-0.4-1.5-0.4c-0.5,0-1,0.1-1.5,0.4
	c-0.4,0.3-0.8,0.6-1.1,1.1c-0.3,0.5-0.4,1.1-0.4,1.7c0,0.7,0.1,1.2,0.4,1.7c0.3,0.5,0.6,0.9,1.1,1.1c0.5,0.3,1,0.4,1.5,0.4
	c0.5,0,1-0.1,1.5-0.4c0.5-0.3,0.8-0.6,1.1-1.1C163.5,310.8,163.6,310.3,163.6,309.6z M168.5,302.2V314H167v-11.8H168.5z
	 M186.6,309.2c0,0.3,0,0.6-0.1,0.9h-7.2c0.1,0.6,0.2,1.1,0.5,1.5c0.3,0.4,0.6,0.7,1.1,0.9c0.4,0.2,0.9,0.3,1.3,0.3
	c0.7,0,1.2-0.1,1.7-0.4c0.4-0.3,0.7-0.7,0.9-1.2h1.6c-0.2,0.8-0.7,1.5-1.4,2.1c-0.7,0.5-1.5,0.8-2.5,0.8c-0.7,0-1.4-0.2-2-0.5
	c-0.6-0.3-1.1-0.8-1.4-1.3v1.7h-1.3v-1.7c-0.3,0.5-0.8,1-1.3,1.3c-0.6,0.3-1.2,0.5-2,0.5c-0.8,0-1.5-0.2-2.1-0.6
	c-0.6-0.4-1.1-0.9-1.5-1.6c-0.4-0.7-0.5-1.5-0.5-2.4c0-0.9,0.2-1.7,0.5-2.4c0.4-0.7,0.9-1.2,1.5-1.6c0.6-0.4,1.4-0.6,2.2-0.6
	c0.7,0,1.3,0.2,1.9,0.5c0.6,0.3,1,0.7,1.4,1.3v-1.6h1.2v1.6c0.8-1.2,1.9-1.8,3.3-1.8c0.8,0,1.5,0.2,2.1,0.6c0.6,0.4,1.1,0.9,1.5,1.5
	C186.5,307.8,186.6,308.5,186.6,309.2z M185.1,309.1c0-0.6-0.1-1.1-0.4-1.5c-0.2-0.4-0.6-0.7-1-0.9c-0.4-0.2-0.9-0.3-1.4-0.3
	c-0.8,0-1.4,0.2-2,0.7c-0.6,0.5-0.9,1.2-0.9,2H185.1z M174.9,312.9c0.5,0,1-0.1,1.5-0.4c0.5-0.3,0.8-0.6,1.1-1.1
	c0.3-0.5,0.4-1.1,0.4-1.7c0-0.7-0.1-1.2-0.4-1.7s-0.6-0.9-1.1-1.1c-0.4-0.3-0.9-0.4-1.5-0.4c-0.5,0-1,0.1-1.5,0.4
	c-0.4,0.3-0.8,0.6-1.1,1.1s-0.4,1.1-0.4,1.7c0,0.7,0.1,1.3,0.4,1.8c0.3,0.5,0.6,0.9,1.1,1.1C173.8,312.7,174.3,312.9,174.9,312.9z
	 M191.6,314.1c-0.7,0-1.3-0.1-1.8-0.3c-0.5-0.2-1-0.6-1.3-1c-0.3-0.4-0.5-0.9-0.5-1.4h1.5c0,0.4,0.2,0.8,0.6,1.1
	c0.4,0.3,0.9,0.4,1.5,0.4c0.6,0,1-0.1,1.3-0.4c0.3-0.2,0.5-0.6,0.5-0.9c0-0.4-0.2-0.7-0.5-0.8c-0.3-0.2-0.9-0.4-1.6-0.6
	c-0.7-0.2-1.2-0.3-1.6-0.5c-0.4-0.2-0.8-0.4-1.1-0.8c-0.3-0.4-0.4-0.8-0.4-1.4c0-0.4,0.1-0.9,0.4-1.2c0.3-0.4,0.6-0.7,1.1-0.9
	c0.5-0.2,1.1-0.3,1.7-0.3c1,0,1.8,0.2,2.4,0.7s0.9,1.2,1,2h-1.5c0-0.5-0.2-0.8-0.6-1.1c-0.3-0.3-0.8-0.4-1.3-0.4
	c-0.5,0-0.9,0.1-1.2,0.3c-0.3,0.2-0.5,0.5-0.5,0.9c0,0.3,0.1,0.5,0.3,0.7c0.2,0.2,0.4,0.3,0.7,0.4c0.3,0.1,0.7,0.2,1.2,0.4
	c0.6,0.2,1.1,0.3,1.5,0.5c0.4,0.2,0.7,0.4,1,0.7c0.3,0.3,0.4,0.8,0.4,1.3c0,0.5-0.1,0.9-0.4,1.3c-0.3,0.4-0.6,0.7-1.1,0.9
	C192.8,314,192.3,314.1,191.6,314.1z M204.9,309.3c0,0.3,0,0.6,0,0.9h-7c0.1,0.9,0.3,1.5,0.9,2c0.5,0.5,1.2,0.7,2,0.7
	c0.6,0,1.2-0.1,1.6-0.4c0.4-0.3,0.7-0.7,0.9-1.2h1.6c-0.2,0.8-0.7,1.5-1.4,2.1c-0.7,0.5-1.6,0.8-2.6,0.8c-0.8,0-1.6-0.2-2.2-0.6
	c-0.7-0.4-1.2-0.9-1.5-1.6c-0.4-0.7-0.6-1.5-0.6-2.4c0-0.9,0.2-1.7,0.5-2.4c0.4-0.7,0.9-1.2,1.5-1.6c0.7-0.4,1.4-0.6,2.3-0.6
	c0.8,0,1.6,0.2,2.2,0.5c0.6,0.4,1.1,0.9,1.5,1.5C204.7,307.8,204.9,308.5,204.9,309.3z M203.4,309c0-0.6-0.1-1-0.4-1.4
	c-0.2-0.4-0.6-0.7-1-0.9c-0.4-0.2-0.9-0.3-1.4-0.3c-0.7,0-1.4,0.2-1.9,0.7c-0.5,0.5-0.8,1.1-0.9,2H203.4z M211.1,305.1
	c1.1,0,1.9,0.3,2.6,1c0.7,0.6,1,1.6,1,2.8v5.2h-1.4v-5c0-0.9-0.2-1.5-0.7-2c-0.4-0.5-1-0.7-1.8-0.7c-0.8,0-1.4,0.2-1.8,0.7
	c-0.4,0.5-0.7,1.2-0.7,2.1v4.8h-1.5v-8.8h1.5v1.2c0.3-0.4,0.7-0.8,1.2-1C209.9,305.2,210.5,305.1,211.1,305.1z M216.5,309.6
	c0-0.9,0.2-1.7,0.5-2.4c0.4-0.7,0.9-1.2,1.5-1.6c0.6-0.4,1.4-0.6,2.1-0.6c0.7,0,1.3,0.2,1.9,0.5c0.6,0.3,1,0.7,1.3,1.2v-4.6h1.5V314
	h-1.5v-1.6c-0.3,0.5-0.7,1-1.3,1.3c-0.6,0.3-1.2,0.5-2,0.5c-0.8,0-1.5-0.2-2.1-0.6c-0.6-0.4-1.1-0.9-1.5-1.6
	C216.7,311.3,216.5,310.5,216.5,309.6z M223.9,309.6c0-0.7-0.1-1.2-0.4-1.7c-0.3-0.5-0.6-0.9-1.1-1.1c-0.4-0.3-0.9-0.4-1.5-0.4
	c-0.5,0-1,0.1-1.5,0.4c-0.4,0.3-0.8,0.6-1.1,1.1c-0.3,0.5-0.4,1.1-0.4,1.7c0,0.7,0.1,1.3,0.4,1.8c0.3,0.5,0.6,0.9,1.1,1.1
	c0.4,0.3,0.9,0.4,1.5,0.4c0.5,0,1-0.1,1.5-0.4c0.5-0.3,0.8-0.6,1.1-1.1C223.8,310.8,223.9,310.3,223.9,309.6z M235.9,309.3
	c0,0.3,0,0.6,0,0.9h-7c0.1,0.9,0.3,1.5,0.9,2c0.5,0.5,1.2,0.7,2,0.7c0.6,0,1.2-0.1,1.6-0.4c0.4-0.3,0.7-0.7,0.9-1.2h1.6
	c-0.2,0.8-0.7,1.5-1.4,2.1c-0.7,0.5-1.6,0.8-2.6,0.8c-0.8,0-1.6-0.2-2.2-0.6c-0.7-0.4-1.2-0.9-1.5-1.6c-0.4-0.7-0.6-1.5-0.6-2.4
	c0-0.9,0.2-1.7,0.5-2.4c0.4-0.7,0.9-1.2,1.5-1.6c0.7-0.4,1.4-0.6,2.3-0.6c0.8,0,1.6,0.2,2.2,0.5c0.6,0.4,1.1,0.9,1.5,1.5
	C235.7,307.8,235.9,308.5,235.9,309.3z M234.4,309c0-0.6-0.1-1-0.4-1.4c-0.2-0.4-0.6-0.7-1-0.9c-0.4-0.2-0.9-0.3-1.4-0.3
	c-0.7,0-1.4,0.2-1.9,0.7c-0.5,0.5-0.8,1.1-0.9,2H234.4z M252.6,305.1c0.7,0,1.3,0.1,1.8,0.4c0.5,0.3,1,0.7,1.3,1.3
	c0.3,0.6,0.5,1.3,0.5,2.1v5.2h-1.4v-5c0-0.9-0.2-1.5-0.7-2c-0.4-0.5-1-0.7-1.7-0.7c-0.8,0-1.4,0.2-1.8,0.7c-0.4,0.5-0.7,1.2-0.7,2.1
	v4.8h-1.4v-5c0-0.9-0.2-1.5-0.7-2c-0.4-0.5-1-0.7-1.7-0.7c-0.8,0-1.4,0.2-1.8,0.7c-0.4,0.5-0.7,1.2-0.7,2.1v4.8H242v-8.8h1.5v1.3
	c0.3-0.5,0.7-0.8,1.2-1.1c0.5-0.2,1-0.4,1.6-0.4c0.7,0,1.4,0.2,2,0.5c0.6,0.3,1,0.8,1.3,1.5c0.2-0.6,0.6-1.1,1.2-1.4
	C251.3,305.2,251.9,305.1,252.6,305.1z M259.3,303.8c-0.3,0-0.5-0.1-0.7-0.3c-0.2-0.2-0.3-0.4-0.3-0.7c0-0.3,0.1-0.5,0.3-0.7
	c0.2-0.2,0.4-0.3,0.7-0.3c0.3,0,0.5,0.1,0.7,0.3c0.2,0.2,0.3,0.4,0.3,0.7c0,0.3-0.1,0.5-0.3,0.7
	C259.8,303.7,259.5,303.8,259.3,303.8z M260,305.2v8.8h-1.5v-8.8H260z M265.6,314.1c-0.7,0-1.3-0.1-1.8-0.3c-0.5-0.2-1-0.6-1.3-1
	c-0.3-0.4-0.5-0.9-0.5-1.4h1.5c0,0.4,0.2,0.8,0.6,1.1c0.4,0.3,0.9,0.4,1.5,0.4c0.6,0,1-0.1,1.3-0.4s0.5-0.6,0.5-0.9
	c0-0.4-0.2-0.7-0.5-0.8c-0.3-0.2-0.9-0.4-1.6-0.6c-0.6-0.2-1.2-0.3-1.6-0.5c-0.4-0.2-0.8-0.4-1.1-0.8c-0.3-0.4-0.4-0.8-0.4-1.4
	c0-0.4,0.1-0.9,0.4-1.2c0.3-0.4,0.6-0.7,1.1-0.9c0.5-0.2,1.1-0.3,1.7-0.3c1,0,1.8,0.2,2.4,0.7c0.6,0.5,0.9,1.2,1,2h-1.5
	c0-0.5-0.2-0.8-0.6-1.1c-0.3-0.3-0.8-0.4-1.3-0.4c-0.5,0-0.9,0.1-1.2,0.3c-0.3,0.2-0.5,0.5-0.5,0.9c0,0.3,0.1,0.5,0.3,0.7
	c0.2,0.2,0.4,0.3,0.7,0.4c0.3,0.1,0.7,0.2,1.2,0.4c0.6,0.2,1.1,0.3,1.5,0.5c0.4,0.2,0.7,0.4,1,0.7c0.3,0.3,0.4,0.8,0.4,1.3
	c0,0.5-0.1,0.9-0.4,1.3c-0.3,0.4-0.6,0.7-1.1,0.9C266.8,314,266.2,314.1,265.6,314.1z M273.9,314.1c-0.7,0-1.3-0.1-1.8-0.3
	c-0.5-0.2-1-0.6-1.3-1c-0.3-0.4-0.5-0.9-0.5-1.4h1.5c0,0.4,0.2,0.8,0.6,1.1c0.4,0.3,0.9,0.4,1.5,0.4c0.6,0,1-0.1,1.3-0.4
	c0.3-0.2,0.5-0.6,0.5-0.9c0-0.4-0.2-0.7-0.5-0.8c-0.3-0.2-0.9-0.4-1.6-0.6c-0.7-0.2-1.2-0.3-1.6-0.5c-0.4-0.2-0.8-0.4-1.1-0.8
	c-0.3-0.4-0.4-0.8-0.4-1.4c0-0.4,0.1-0.9,0.4-1.2c0.3-0.4,0.6-0.7,1.1-0.9c0.5-0.2,1-0.3,1.7-0.3c1,0,1.8,0.2,2.4,0.7
	c0.6,0.5,0.9,1.2,1,2h-1.5c0-0.5-0.2-0.8-0.6-1.1c-0.3-0.3-0.8-0.4-1.3-0.4c-0.5,0-0.9,0.1-1.2,0.3c-0.3,0.2-0.5,0.5-0.5,0.9
	c0,0.3,0.1,0.5,0.3,0.7c0.2,0.2,0.4,0.3,0.7,0.4c0.3,0.1,0.7,0.2,1.2,0.4c0.6,0.2,1.1,0.3,1.5,0.5c0.4,0.2,0.7,0.4,1,0.7
	c0.3,0.3,0.4,0.8,0.4,1.3c0,0.5-0.1,0.9-0.4,1.3c-0.3,0.4-0.6,0.7-1.1,0.9C275.1,314,274.6,314.1,273.9,314.1z M279.9,303.8
	c-0.3,0-0.5-0.1-0.7-0.3c-0.2-0.2-0.3-0.4-0.3-0.7c0-0.3,0.1-0.5,0.3-0.7c0.2-0.2,0.4-0.3,0.7-0.3c0.3,0,0.5,0.1,0.7,0.3
	c0.2,0.2,0.3,0.4,0.3,0.7c0,0.3-0.1,0.5-0.3,0.7C280.4,303.7,280.2,303.8,279.9,303.8z M280.6,305.2v8.8h-1.5v-8.8H280.6z
	 M286.9,314.1c-0.8,0-1.6-0.2-2.2-0.6c-0.7-0.4-1.2-0.9-1.6-1.6c-0.4-0.7-0.6-1.5-0.6-2.4c0-0.9,0.2-1.7,0.6-2.4
	c0.4-0.7,0.9-1.2,1.6-1.6c0.7-0.4,1.4-0.6,2.3-0.6s1.6,0.2,2.3,0.6c0.7,0.4,1.2,0.9,1.6,1.6c0.4,0.7,0.6,1.5,0.6,2.4
	c0,0.9-0.2,1.7-0.6,2.4c-0.4,0.7-0.9,1.2-1.6,1.6C288.5,314,287.8,314.1,286.9,314.1z M286.9,312.9c0.5,0,1-0.1,1.5-0.4
	c0.5-0.2,0.8-0.6,1.1-1.1c0.3-0.5,0.4-1.1,0.4-1.8c0-0.7-0.1-1.3-0.4-1.8c-0.3-0.5-0.6-0.9-1.1-1.1c-0.4-0.2-0.9-0.4-1.5-0.4
	c-0.5,0-1,0.1-1.5,0.4c-0.4,0.2-0.8,0.6-1.1,1.1c-0.3,0.5-0.4,1.1-0.4,1.8c0,0.7,0.1,1.3,0.4,1.8c0.3,0.5,0.6,0.9,1.1,1.1
	C285.9,312.7,286.4,312.9,286.9,312.9z M297.6,305.1c1.1,0,1.9,0.3,2.6,1c0.7,0.6,1,1.6,1,2.8v5.2h-1.4v-5c0-0.9-0.2-1.5-0.7-2
	c-0.4-0.5-1-0.7-1.8-0.7c-0.8,0-1.4,0.2-1.8,0.7c-0.4,0.5-0.7,1.2-0.7,2.1v4.8h-1.5v-8.8h1.5v1.2c0.3-0.4,0.7-0.8,1.2-1
	C296.5,305.2,297,305.1,297.6,305.1z M39.1,340.1c-0.8,0-1.6-0.2-2.2-0.6c-0.7-0.4-1.2-0.9-1.6-1.6c-0.4-0.7-0.6-1.5-0.6-2.4
	c0-0.9,0.2-1.7,0.6-2.4c0.4-0.7,0.9-1.2,1.6-1.6c0.7-0.4,1.4-0.6,2.3-0.6s1.6,0.2,2.3,0.6c0.7,0.4,1.2,0.9,1.6,1.6
	c0.4,0.7,0.6,1.5,0.6,2.4c0,0.9-0.2,1.7-0.6,2.4c-0.4,0.7-0.9,1.2-1.6,1.6C40.6,340,39.9,340.1,39.1,340.1z M39.1,338.9
	c0.5,0,1-0.1,1.5-0.4s0.8-0.6,1.1-1.1c0.3-0.5,0.4-1.1,0.4-1.8c0-0.7-0.1-1.3-0.4-1.8c-0.3-0.5-0.6-0.9-1.1-1.1
	c-0.4-0.2-0.9-0.4-1.5-0.4c-0.5,0-1,0.1-1.5,0.4c-0.4,0.2-0.8,0.6-1.1,1.1c-0.3,0.5-0.4,1.1-0.4,1.8c0,0.7,0.1,1.3,0.4,1.8
	c0.3,0.5,0.6,0.9,1.1,1.1C38.1,338.7,38.5,338.9,39.1,338.9z M49.1,331.1c0.8,0,1.4,0.2,2,0.5c0.6,0.3,1,0.7,1.3,1.2v-1.6h1.5v9
	c0,0.8-0.2,1.5-0.5,2.1c-0.3,0.6-0.8,1.1-1.5,1.5c-0.6,0.4-1.4,0.5-2.2,0.5c-1.2,0-2.1-0.3-2.9-0.8c-0.8-0.5-1.2-1.3-1.4-2.2h1.4
	c0.2,0.5,0.5,1,1,1.3c0.5,0.3,1.1,0.5,1.8,0.5c0.8,0,1.5-0.3,2-0.8c0.5-0.5,0.8-1.2,0.8-2.1v-1.8c-0.3,0.5-0.7,0.9-1.3,1.3
	c-0.6,0.3-1.2,0.5-2,0.5c-0.8,0-1.5-0.2-2.1-0.6c-0.6-0.4-1.1-0.9-1.5-1.6c-0.4-0.7-0.5-1.5-0.5-2.4c0-0.9,0.2-1.7,0.5-2.4
	c0.4-0.7,0.9-1.2,1.5-1.6C47.6,331.3,48.3,331.1,49.1,331.1z M52.3,335.6c0-0.7-0.1-1.2-0.4-1.7c-0.3-0.5-0.6-0.9-1.1-1.1
	c-0.4-0.3-0.9-0.4-1.5-0.4s-1,0.1-1.5,0.4c-0.4,0.3-0.8,0.6-1.1,1.1c-0.3,0.5-0.4,1.1-0.4,1.7c0,0.7,0.1,1.3,0.4,1.8
	c0.3,0.5,0.6,0.9,1.1,1.1c0.4,0.3,0.9,0.4,1.5,0.4s1-0.1,1.5-0.4c0.5-0.3,0.8-0.6,1.1-1.1C52.2,336.8,52.3,336.3,52.3,335.6z
	 M64.1,332.4h-1.8v7.6h-1.5v-7.6h-1.1v-1.2h1.1v-0.6c0-1,0.3-1.7,0.8-2.1c0.5-0.5,1.3-0.7,2.4-0.7v1.2c-0.6,0-1.1,0.1-1.4,0.4
	c-0.3,0.2-0.4,0.7-0.4,1.2v0.6h1.8V332.4z M66.6,329.8c-0.3,0-0.5-0.1-0.7-0.3c-0.2-0.2-0.3-0.4-0.3-0.7c0-0.3,0.1-0.5,0.3-0.7
	s0.4-0.3,0.7-0.3c0.3,0,0.5,0.1,0.7,0.3c0.2,0.2,0.3,0.4,0.3,0.7c0,0.3-0.1,0.5-0.3,0.7C67.1,329.7,66.8,329.8,66.6,329.8z
	 M67.3,331.2v8.8h-1.5v-8.8H67.3z M74,331.1c1.1,0,1.9,0.3,2.6,1c0.7,0.6,1,1.6,1,2.8v5.2h-1.4v-5c0-0.9-0.2-1.5-0.7-2
	c-0.4-0.5-1-0.7-1.8-0.7c-0.8,0-1.4,0.2-1.8,0.7c-0.4,0.5-0.7,1.2-0.7,2.1v4.8h-1.5v-8.8h1.5v1.2c0.3-0.4,0.7-0.8,1.2-1
	C72.9,331.2,73.4,331.1,74,331.1z M79.4,335.6c0-0.9,0.2-1.7,0.5-2.4c0.4-0.7,0.9-1.2,1.5-1.6c0.6-0.4,1.4-0.6,2.1-0.6
	c0.7,0,1.3,0.2,1.9,0.5c0.6,0.3,1,0.7,1.3,1.2v-4.6h1.5V340h-1.5v-1.6c-0.3,0.5-0.7,1-1.3,1.3c-0.6,0.3-1.2,0.5-2,0.5
	c-0.8,0-1.5-0.2-2.1-0.6c-0.6-0.4-1.1-0.9-1.5-1.6S79.4,336.5,79.4,335.6z M86.9,335.6c0-0.7-0.1-1.2-0.4-1.7s-0.6-0.9-1.1-1.1
	c-0.4-0.3-0.9-0.4-1.5-0.4s-1,0.1-1.5,0.4c-0.4,0.3-0.8,0.6-1.1,1.1c-0.3,0.5-0.4,1.1-0.4,1.7c0,0.7,0.1,1.3,0.4,1.8
	c0.3,0.5,0.6,0.9,1.1,1.1c0.4,0.3,0.9,0.4,1.5,0.4s1-0.1,1.5-0.4c0.5-0.3,0.8-0.6,1.1-1.1C86.7,336.8,86.9,336.3,86.9,335.6z
	 M105.6,331.1c0.7,0,1.3,0.1,1.8,0.4c0.5,0.3,1,0.7,1.3,1.3s0.5,1.3,0.5,2.1v5.2h-1.4v-5c0-0.9-0.2-1.5-0.7-2
	c-0.4-0.5-1-0.7-1.7-0.7c-0.8,0-1.4,0.2-1.8,0.7c-0.4,0.5-0.7,1.2-0.7,2.1v4.8h-1.4v-5c0-0.9-0.2-1.5-0.7-2c-0.4-0.5-1-0.7-1.7-0.7
	c-0.8,0-1.4,0.2-1.8,0.7c-0.4,0.5-0.7,1.2-0.7,2.1v4.8h-1.5v-8.8h1.5v1.3c0.3-0.5,0.7-0.8,1.2-1.1c0.5-0.2,1-0.4,1.6-0.4
	c0.7,0,1.4,0.2,2,0.5s1,0.8,1.3,1.5c0.2-0.6,0.7-1.1,1.2-1.4C104.3,331.2,104.9,331.1,105.6,331.1z M115.4,340.1
	c-0.8,0-1.6-0.2-2.2-0.6c-0.7-0.4-1.2-0.9-1.6-1.6c-0.4-0.7-0.6-1.5-0.6-2.4c0-0.9,0.2-1.7,0.6-2.4c0.4-0.7,0.9-1.2,1.6-1.6
	c0.7-0.4,1.4-0.6,2.3-0.6s1.6,0.2,2.3,0.6c0.7,0.4,1.2,0.9,1.6,1.6c0.4,0.7,0.6,1.5,0.6,2.4c0,0.9-0.2,1.7-0.6,2.4
	c-0.4,0.7-0.9,1.2-1.6,1.6C117,340,116.2,340.1,115.4,340.1z M115.4,338.9c0.5,0,1-0.1,1.5-0.4c0.5-0.2,0.8-0.6,1.1-1.1
	c0.3-0.5,0.4-1.1,0.4-1.8c0-0.7-0.1-1.3-0.4-1.8c-0.3-0.5-0.6-0.9-1.1-1.1c-0.4-0.2-0.9-0.4-1.5-0.4c-0.5,0-1,0.1-1.5,0.4
	c-0.4,0.2-0.8,0.6-1.1,1.1c-0.3,0.5-0.4,1.1-0.4,1.8c0,0.7,0.1,1.3,0.4,1.8c0.3,0.5,0.6,0.9,1.1,1.1
	C114.4,338.7,114.8,338.9,115.4,338.9z M121.2,335.6c0-0.9,0.2-1.7,0.5-2.4c0.4-0.7,0.9-1.2,1.5-1.6c0.6-0.4,1.4-0.6,2.1-0.6
	c0.7,0,1.3,0.2,1.9,0.5c0.6,0.3,1,0.7,1.3,1.2v-4.6h1.5V340h-1.5v-1.6c-0.3,0.5-0.7,1-1.3,1.3c-0.6,0.3-1.2,0.5-2,0.5
	c-0.8,0-1.5-0.2-2.1-0.6c-0.6-0.4-1.1-0.9-1.5-1.6S121.2,336.5,121.2,335.6z M128.7,335.6c0-0.7-0.1-1.2-0.4-1.7
	c-0.3-0.5-0.6-0.9-1.1-1.1c-0.4-0.3-0.9-0.4-1.5-0.4s-1,0.1-1.5,0.4c-0.4,0.3-0.8,0.6-1.1,1.1s-0.4,1.1-0.4,1.7
	c0,0.7,0.1,1.3,0.4,1.8c0.3,0.5,0.6,0.9,1.1,1.1c0.4,0.3,0.9,0.4,1.5,0.4s1-0.1,1.5-0.4c0.5-0.3,0.8-0.6,1.1-1.1
	C128.5,336.8,128.7,336.3,128.7,335.6z M136.2,331.1c0.8,0,1.4,0.2,2,0.5c0.6,0.3,1,0.7,1.3,1.2v-1.6h1.5v9c0,0.8-0.2,1.5-0.5,2.1
	c-0.3,0.6-0.8,1.1-1.5,1.5c-0.6,0.4-1.4,0.5-2.2,0.5c-1.2,0-2.1-0.3-2.9-0.8s-1.2-1.3-1.4-2.2h1.4c0.2,0.5,0.5,1,1,1.3
	c0.5,0.3,1.1,0.5,1.8,0.5c0.8,0,1.5-0.3,2-0.8c0.5-0.5,0.8-1.2,0.8-2.1v-1.8c-0.3,0.5-0.7,0.9-1.3,1.3c-0.6,0.3-1.2,0.5-2,0.5
	c-0.8,0-1.5-0.2-2.1-0.6c-0.6-0.4-1.1-0.9-1.5-1.6c-0.4-0.7-0.5-1.5-0.5-2.4c0-0.9,0.2-1.7,0.5-2.4c0.4-0.7,0.9-1.2,1.5-1.6
	C134.7,331.3,135.4,331.1,136.2,331.1z M139.5,335.6c0-0.7-0.1-1.2-0.4-1.7c-0.3-0.5-0.6-0.9-1.1-1.1c-0.4-0.3-0.9-0.4-1.5-0.4
	c-0.5,0-1,0.1-1.5,0.4c-0.4,0.3-0.8,0.6-1.1,1.1c-0.3,0.5-0.4,1.1-0.4,1.7c0,0.7,0.1,1.3,0.4,1.8c0.3,0.5,0.6,0.9,1.1,1.1
	c0.4,0.3,0.9,0.4,1.5,0.4c0.5,0,1-0.1,1.5-0.4c0.5-0.3,0.8-0.6,1.1-1.1C139.3,336.8,139.5,336.3,139.5,335.6z M144.2,329.8
	c-0.3,0-0.5-0.1-0.7-0.3c-0.2-0.2-0.3-0.4-0.3-0.7c0-0.3,0.1-0.5,0.3-0.7s0.4-0.3,0.7-0.3c0.3,0,0.5,0.1,0.7,0.3
	c0.2,0.2,0.3,0.4,0.3,0.7c0,0.3-0.1,0.5-0.3,0.7C144.6,329.7,144.4,329.8,144.2,329.8z M144.9,331.2v8.8h-1.5v-8.8H144.9z
	 M150.9,332.4h-1.8v7.6h-1.5v-7.6h-1.1v-1.2h1.1v-0.6c0-1,0.3-1.7,0.8-2.1c0.5-0.5,1.3-0.7,2.4-0.7v1.2c-0.6,0-1.1,0.1-1.4,0.4
	c-0.3,0.2-0.4,0.7-0.4,1.2v0.6h1.8V332.4z M154.4,332.4v5.2c0,0.4,0.1,0.7,0.3,0.9c0.2,0.2,0.5,0.3,0.9,0.3h1.1v1.2h-1.3
	c-0.8,0-1.4-0.2-1.8-0.6c-0.4-0.4-0.6-1-0.6-1.8v-5.2h-1.1v-1.2h1.1V329h1.5v2.2h2.3v1.2H154.4z M166.4,335.3c0,0.3,0,0.6,0,0.9h-7
	c0.1,0.9,0.3,1.5,0.9,2c0.5,0.5,1.2,0.7,2,0.7c0.6,0,1.2-0.1,1.6-0.4c0.4-0.3,0.7-0.7,0.9-1.2h1.6c-0.2,0.8-0.7,1.5-1.4,2.1
	c-0.7,0.5-1.6,0.8-2.6,0.8c-0.8,0-1.6-0.2-2.2-0.6c-0.7-0.4-1.2-0.9-1.5-1.6c-0.4-0.7-0.6-1.5-0.6-2.4c0-0.9,0.2-1.7,0.5-2.4
	c0.4-0.7,0.9-1.2,1.5-1.6c0.7-0.4,1.4-0.6,2.3-0.6c0.8,0,1.6,0.2,2.2,0.5c0.6,0.4,1.1,0.9,1.5,1.5
	C166.3,333.8,166.4,334.5,166.4,335.3z M164.9,335c0-0.6-0.1-1-0.4-1.4c-0.2-0.4-0.6-0.7-1-0.9c-0.4-0.2-0.9-0.3-1.4-0.3
	c-0.7,0-1.4,0.2-1.9,0.7c-0.5,0.5-0.8,1.1-0.9,2H164.9z M172.6,331.1c1.1,0,1.9,0.3,2.6,1c0.7,0.6,1,1.6,1,2.8v5.2h-1.4v-5
	c0-0.9-0.2-1.5-0.7-2c-0.4-0.5-1-0.7-1.8-0.7c-0.8,0-1.4,0.2-1.8,0.7c-0.4,0.5-0.7,1.2-0.7,2.1v4.8h-1.5v-8.8h1.5v1.2
	c0.3-0.4,0.7-0.8,1.2-1C171.5,331.2,172,331.1,172.6,331.1z M184.6,332.4v5.2c0,0.4,0.1,0.7,0.3,0.9c0.2,0.2,0.5,0.3,0.9,0.3h1.1
	v1.2h-1.3c-0.8,0-1.4-0.2-1.8-0.6c-0.4-0.4-0.6-1-0.6-1.8v-5.2H182v-1.2h1.1V329h1.5v2.2h2.3v1.2H184.6z M189.4,329.8
	c-0.3,0-0.5-0.1-0.7-0.3c-0.2-0.2-0.3-0.4-0.3-0.7c0-0.3,0.1-0.5,0.3-0.7s0.4-0.3,0.7-0.3c0.3,0,0.5,0.1,0.7,0.3
	c0.2,0.2,0.3,0.4,0.3,0.7c0,0.3-0.1,0.5-0.3,0.7C189.9,329.7,189.7,329.8,189.4,329.8z M190.1,331.2v8.8h-1.5v-8.8H190.1z
	 M194.1,328.2V340h-1.5v-11.8H194.1z M208.8,335.3c0,0.3,0,0.6,0,0.9h-7c0.1,0.9,0.3,1.5,0.9,2c0.5,0.5,1.2,0.7,2,0.7
	c0.6,0,1.2-0.1,1.6-0.4c0.4-0.3,0.7-0.7,0.9-1.2h1.6c-0.2,0.8-0.7,1.5-1.4,2.1c-0.7,0.5-1.6,0.8-2.6,0.8c-0.8,0-1.6-0.2-2.2-0.6
	c-0.7-0.4-1.2-0.9-1.5-1.6c-0.4-0.7-0.6-1.5-0.6-2.4c0-0.9,0.2-1.7,0.5-2.4c0.4-0.7,0.9-1.2,1.5-1.6c0.7-0.4,1.4-0.6,2.3-0.6
	c0.8,0,1.6,0.2,2.2,0.5c0.6,0.4,1.1,0.9,1.5,1.5C208.6,333.8,208.8,334.5,208.8,335.3z M207.3,335c0-0.6-0.1-1-0.4-1.4
	c-0.2-0.4-0.6-0.7-1-0.9c-0.4-0.2-0.9-0.3-1.4-0.3c-0.7,0-1.4,0.2-1.9,0.7c-0.5,0.5-0.8,1.1-0.9,2H207.3z M215,331.1
	c1.1,0,1.9,0.3,2.6,1c0.7,0.6,1,1.6,1,2.8v5.2h-1.4v-5c0-0.9-0.2-1.5-0.7-2c-0.4-0.5-1-0.7-1.8-0.7c-0.8,0-1.4,0.2-1.8,0.7
	c-0.4,0.5-0.7,1.2-0.7,2.1v4.8h-1.5v-8.8h1.5v1.2c0.3-0.4,0.7-0.8,1.2-1C213.9,331.2,214.4,331.1,215,331.1z M224.7,335.6
	c0-0.9,0.2-1.7,0.5-2.4c0.4-0.7,0.9-1.2,1.5-1.6c0.6-0.4,1.4-0.6,2.1-0.6c0.7,0,1.3,0.2,1.9,0.5c0.6,0.3,1,0.7,1.3,1.2v-4.6h1.5V340
	h-1.5v-1.6c-0.3,0.5-0.7,1-1.3,1.3c-0.6,0.3-1.2,0.5-2,0.5c-0.8,0-1.5-0.2-2.1-0.6c-0.6-0.4-1.1-0.9-1.5-1.6
	C224.9,337.3,224.7,336.5,224.7,335.6z M232.1,335.6c0-0.7-0.1-1.2-0.4-1.7c-0.3-0.5-0.6-0.9-1.1-1.1c-0.4-0.3-0.9-0.4-1.5-0.4
	c-0.5,0-1,0.1-1.5,0.4c-0.4,0.3-0.8,0.6-1.1,1.1c-0.3,0.5-0.4,1.1-0.4,1.7c0,0.7,0.1,1.3,0.4,1.8c0.3,0.5,0.6,0.9,1.1,1.1
	c0.4,0.3,0.9,0.4,1.5,0.4c0.5,0,1-0.1,1.5-0.4c0.5-0.3,0.8-0.6,1.1-1.1C232,336.8,232.1,336.3,232.1,335.6z M243.3,332.5
	c0.3,0.4,0.6,0.9,0.8,1.4c0.2,0.5,0.3,1.1,0.3,1.7c0,0.9-0.2,1.7-0.6,2.4c-0.4,0.7-0.9,1.2-1.6,1.6c-0.7,0.4-1.4,0.6-2.3,0.6
	c-1,0-1.9-0.3-2.7-0.9l-0.7,0.7h-1l1.2-1.3c-0.3-0.4-0.6-0.9-0.8-1.4c-0.2-0.5-0.3-1.1-0.3-1.7c0-0.9,0.2-1.7,0.6-2.4
	c0.4-0.7,0.9-1.2,1.6-1.6c0.7-0.4,1.4-0.6,2.3-0.6c1.1,0,2,0.3,2.8,0.9l0.7-0.8h1L243.3,332.5z M237,335.6c0,0.8,0.2,1.5,0.6,2.1
	l4.3-4.7c-0.5-0.4-1.1-0.7-1.9-0.7c-0.5,0-1,0.1-1.5,0.4c-0.4,0.2-0.8,0.6-1.1,1.1C237.1,334.3,237,334.9,237,335.6z M242.9,335.6
	c0-0.8-0.2-1.5-0.6-2l-4.3,4.7c0.5,0.4,1.1,0.6,1.8,0.6c0.5,0,1-0.1,1.5-0.4s0.8-0.6,1.1-1.1C242.7,336.9,242.9,336.3,242.9,335.6z
	 M245.8,335.6c0-0.9,0.2-1.7,0.5-2.4c0.4-0.7,0.9-1.2,1.5-1.6c0.6-0.4,1.4-0.6,2.1-0.6c0.7,0,1.3,0.2,1.9,0.5c0.6,0.3,1,0.7,1.3,1.2
	v-4.6h1.5V340h-1.5v-1.6c-0.3,0.5-0.7,1-1.3,1.3c-0.6,0.3-1.2,0.5-2,0.5c-0.8,0-1.5-0.2-2.1-0.6c-0.6-0.4-1.1-0.9-1.5-1.6
	C245.9,337.3,245.8,336.5,245.8,335.6z M253.2,335.6c0-0.7-0.1-1.2-0.4-1.7c-0.3-0.5-0.6-0.9-1.1-1.1c-0.4-0.3-0.9-0.4-1.5-0.4
	c-0.5,0-1,0.1-1.5,0.4c-0.4,0.3-0.8,0.6-1.1,1.1c-0.3,0.5-0.4,1.1-0.4,1.7c0,0.7,0.1,1.3,0.4,1.8c0.3,0.5,0.6,0.9,1.1,1.1
	c0.4,0.3,0.9,0.4,1.5,0.4c0.5,0,1-0.1,1.5-0.4c0.5-0.3,0.8-0.6,1.1-1.1C253,336.8,253.2,336.3,253.2,335.6z M265.1,335.3
	c0,0.3,0,0.6,0,0.9h-7c0.1,0.9,0.3,1.5,0.9,2c0.5,0.5,1.2,0.7,2,0.7c0.6,0,1.2-0.1,1.6-0.4c0.4-0.3,0.7-0.7,0.9-1.2h1.6
	c-0.2,0.8-0.7,1.5-1.4,2.1c-0.7,0.5-1.6,0.8-2.6,0.8c-0.8,0-1.6-0.2-2.2-0.6c-0.7-0.4-1.2-0.9-1.5-1.6c-0.4-0.7-0.6-1.5-0.6-2.4
	c0-0.9,0.2-1.7,0.5-2.4c0.4-0.7,0.9-1.2,1.5-1.6c0.7-0.4,1.4-0.6,2.3-0.6c0.8,0,1.6,0.2,2.2,0.5c0.6,0.4,1.1,0.9,1.5,1.5
	C264.9,333.8,265.1,334.5,265.1,335.3z M263.6,335c0-0.6-0.1-1-0.4-1.4c-0.2-0.4-0.6-0.7-1-0.9c-0.4-0.2-0.9-0.3-1.4-0.3
	c-0.7,0-1.4,0.2-1.9,0.7c-0.5,0.5-0.8,1.1-0.9,2H263.6z M268.5,328.2V340H267v-11.8H268.5z M271.7,329.8c-0.3,0-0.5-0.1-0.7-0.3
	c-0.2-0.2-0.3-0.4-0.3-0.7c0-0.3,0.1-0.5,0.3-0.7c0.2-0.2,0.4-0.3,0.7-0.3c0.3,0,0.5,0.1,0.7,0.3c0.2,0.2,0.3,0.4,0.3,0.7
	c0,0.3-0.1,0.5-0.3,0.7C272.2,329.7,272,329.8,271.7,329.8z M272.4,331.2v8.8H271v-8.8H272.4z M278.5,331.1c0.8,0,1.4,0.2,2,0.5
	c0.6,0.3,1,0.7,1.3,1.2v-1.6h1.5v9c0,0.8-0.2,1.5-0.5,2.1c-0.3,0.6-0.8,1.1-1.5,1.5c-0.6,0.4-1.4,0.5-2.2,0.5
	c-1.2,0-2.1-0.3-2.9-0.8s-1.2-1.3-1.4-2.2h1.4c0.2,0.5,0.5,1,1,1.3c0.5,0.3,1.1,0.5,1.8,0.5c0.8,0,1.5-0.3,2-0.8
	c0.5-0.5,0.8-1.2,0.8-2.1v-1.8c-0.3,0.5-0.7,0.9-1.3,1.3s-1.2,0.5-2,0.5c-0.8,0-1.5-0.2-2.1-0.6c-0.6-0.4-1.1-0.9-1.5-1.6
	s-0.5-1.5-0.5-2.4c0-0.9,0.2-1.7,0.5-2.4c0.4-0.7,0.9-1.2,1.5-1.6C277,331.3,277.7,331.1,278.5,331.1z M281.8,335.6
	c0-0.7-0.1-1.2-0.4-1.7s-0.6-0.9-1.1-1.1c-0.4-0.3-0.9-0.4-1.5-0.4c-0.5,0-1,0.1-1.5,0.4c-0.4,0.3-0.8,0.6-1.1,1.1
	c-0.3,0.5-0.4,1.1-0.4,1.7c0,0.7,0.1,1.3,0.4,1.8c0.3,0.5,0.6,0.9,1.1,1.1c0.4,0.3,0.9,0.4,1.5,0.4c0.5,0,1-0.1,1.5-0.4
	c0.5-0.3,0.8-0.6,1.1-1.1C281.7,336.8,281.8,336.3,281.8,335.6z M38.5,364.7l2.7-7.4h1.6l-3.4,8.8h-1.7l-3.4-8.8h1.6L38.5,364.7z
	 M45,355.8c-0.3,0-0.5-0.1-0.7-0.3c-0.2-0.2-0.3-0.4-0.3-0.7c0-0.3,0.1-0.5,0.3-0.7c0.2-0.2,0.4-0.3,0.7-0.3c0.3,0,0.5,0.1,0.7,0.3
	c0.2,0.2,0.3,0.4,0.3,0.7c0,0.3-0.1,0.5-0.3,0.7C45.4,355.7,45.2,355.8,45,355.8z M45.7,357.2v8.8h-1.5v-8.8H45.7z M49.6,358.7
	c0.3-0.5,0.6-0.9,1.1-1.2c0.5-0.3,1.1-0.4,1.7-0.4v1.5H52c-1.6,0-2.4,0.9-2.4,2.7v4.8h-1.5v-8.8h1.5V358.7z M61.9,357.2v8.8h-1.5
	v-1.3c-0.3,0.4-0.7,0.8-1.2,1.1c-0.5,0.2-1,0.4-1.6,0.4c-0.7,0-1.3-0.1-1.8-0.4c-0.5-0.3-1-0.7-1.3-1.3c-0.3-0.6-0.5-1.3-0.5-2.1
	v-5.1h1.4v4.9c0,0.9,0.2,1.5,0.7,2c0.4,0.5,1,0.7,1.8,0.7c0.8,0,1.4-0.2,1.8-0.7c0.4-0.5,0.7-1.2,0.7-2.1v-4.8H61.9z M67.4,366.1
	c-0.7,0-1.3-0.1-1.8-0.3c-0.5-0.2-1-0.6-1.3-1c-0.3-0.4-0.5-0.9-0.5-1.4h1.5c0,0.4,0.2,0.8,0.6,1.1c0.4,0.3,0.9,0.4,1.5,0.4
	c0.6,0,1-0.1,1.3-0.4s0.5-0.6,0.5-0.9c0-0.4-0.2-0.7-0.5-0.8c-0.3-0.2-0.9-0.4-1.6-0.6c-0.7-0.2-1.2-0.3-1.6-0.5
	c-0.4-0.2-0.8-0.4-1.1-0.8c-0.3-0.4-0.4-0.8-0.4-1.4c0-0.4,0.1-0.9,0.4-1.2c0.3-0.4,0.6-0.7,1.1-0.9c0.5-0.2,1.1-0.3,1.7-0.3
	c1,0,1.8,0.2,2.4,0.7c0.6,0.5,0.9,1.2,1,2h-1.5c0-0.5-0.2-0.8-0.6-1.1c-0.3-0.3-0.8-0.4-1.3-0.4c-0.5,0-0.9,0.1-1.2,0.3
	c-0.3,0.2-0.5,0.5-0.5,0.9c0,0.3,0.1,0.5,0.3,0.7c0.2,0.2,0.4,0.3,0.7,0.4c0.3,0.1,0.7,0.2,1.2,0.4c0.6,0.2,1.1,0.3,1.5,0.5
	c0.4,0.2,0.7,0.4,1,0.7c0.3,0.3,0.4,0.8,0.4,1.3c0,0.5-0.1,0.9-0.4,1.3c-0.3,0.4-0.6,0.7-1.1,0.9C68.6,366,68.1,366.1,67.4,366.1z
	 M74.2,364l-1.8,4.3h-1l1.2-4.3H74.2z M83.7,358.4h-1.8v7.6h-1.5v-7.6h-1.1v-1.2h1.1v-0.6c0-1,0.3-1.7,0.8-2.1
	c0.5-0.5,1.3-0.7,2.4-0.7v1.2c-0.6,0-1.1,0.1-1.4,0.4c-0.3,0.2-0.4,0.7-0.4,1.2v0.6h1.8V358.4z M92.7,358.5c0.3,0.4,0.6,0.9,0.8,1.4
	c0.2,0.5,0.3,1.1,0.3,1.7c0,0.9-0.2,1.7-0.6,2.4c-0.4,0.7-0.9,1.2-1.6,1.6c-0.7,0.4-1.4,0.6-2.3,0.6c-1,0-1.9-0.3-2.7-0.9l-0.7,0.7
	h-1l1.2-1.3c-0.3-0.4-0.6-0.9-0.8-1.4c-0.2-0.5-0.3-1.1-0.3-1.7c0-0.9,0.2-1.7,0.6-2.4c0.4-0.7,0.9-1.2,1.6-1.6
	c0.7-0.4,1.4-0.6,2.3-0.6c1.1,0,2,0.3,2.8,0.9l0.7-0.8h1L92.7,358.5z M86.3,361.6c0,0.8,0.2,1.5,0.6,2.1l4.3-4.7
	c-0.5-0.4-1.1-0.7-1.9-0.7c-0.5,0-1,0.1-1.5,0.4c-0.4,0.2-0.8,0.6-1.1,1.1C86.5,360.3,86.3,360.9,86.3,361.6z M92.2,361.6
	c0-0.8-0.2-1.5-0.6-2l-4.3,4.7c0.5,0.4,1.1,0.6,1.8,0.6c0.5,0,1-0.1,1.5-0.4c0.5-0.2,0.8-0.6,1.1-1.1
	C92.1,362.9,92.2,362.3,92.2,361.6z M97.1,358.7c0.3-0.5,0.6-0.9,1.1-1.2c0.5-0.3,1.1-0.4,1.7-0.4v1.5h-0.4c-1.6,0-2.4,0.9-2.4,2.7
	v4.8h-1.5v-8.8h1.5V358.7z M105.3,361.6c0-0.9,0.2-1.7,0.5-2.4c0.4-0.7,0.9-1.2,1.5-1.6c0.6-0.4,1.4-0.6,2.1-0.6
	c0.7,0,1.3,0.2,1.9,0.5c0.6,0.3,1,0.7,1.3,1.2v-4.6h1.5V366h-1.5v-1.6c-0.3,0.5-0.7,1-1.3,1.3c-0.6,0.3-1.2,0.5-2,0.5
	c-0.8,0-1.5-0.2-2.1-0.6c-0.6-0.4-1.1-0.9-1.5-1.6C105.5,363.3,105.3,362.5,105.3,361.6z M112.8,361.6c0-0.7-0.1-1.2-0.4-1.7
	c-0.3-0.5-0.6-0.9-1.1-1.1c-0.4-0.3-0.9-0.4-1.5-0.4s-1,0.1-1.5,0.4c-0.4,0.3-0.8,0.6-1.1,1.1c-0.3,0.5-0.4,1.1-0.4,1.7
	c0,0.7,0.1,1.3,0.4,1.8c0.3,0.5,0.6,0.9,1.1,1.1c0.4,0.3,0.9,0.4,1.5,0.4s1-0.1,1.5-0.4c0.5-0.3,0.8-0.6,1.1-1.1
	C112.6,362.8,112.8,362.3,112.8,361.6z M124.7,361.3c0,0.3,0,0.6,0,0.9h-7c0.1,0.9,0.3,1.5,0.9,2c0.5,0.5,1.2,0.7,2,0.7
	c0.6,0,1.2-0.1,1.6-0.4c0.4-0.3,0.7-0.7,0.9-1.2h1.6c-0.2,0.8-0.7,1.5-1.4,2.1c-0.7,0.5-1.6,0.8-2.6,0.8c-0.8,0-1.6-0.2-2.2-0.6
	c-0.7-0.4-1.2-0.9-1.5-1.6c-0.4-0.7-0.6-1.5-0.6-2.4c0-0.9,0.2-1.7,0.5-2.4c0.4-0.7,0.9-1.2,1.5-1.6c0.7-0.4,1.4-0.6,2.3-0.6
	c0.8,0,1.6,0.2,2.2,0.5c0.6,0.4,1.1,0.9,1.5,1.5C124.5,359.8,124.7,360.5,124.7,361.3z M123.2,361c0-0.6-0.1-1-0.4-1.4
	c-0.2-0.4-0.6-0.7-1-0.9c-0.4-0.2-0.9-0.3-1.4-0.3c-0.7,0-1.4,0.2-1.9,0.7c-0.5,0.5-0.8,1.1-0.9,2H123.2z M128.4,358.4v5.2
	c0,0.4,0.1,0.7,0.3,0.9c0.2,0.2,0.5,0.3,0.9,0.3h1.1v1.2h-1.3c-0.8,0-1.4-0.2-1.8-0.6c-0.4-0.4-0.6-1-0.6-1.8v-5.2h-1.1v-1.2h1.1
	V355h1.5v2.2h2.3v1.2H128.4z M144.7,361.3c0,0.3,0,0.6,0,0.9h-7c0.1,0.9,0.3,1.5,0.9,2c0.5,0.5,1.2,0.7,2,0.7c0.6,0,1.2-0.1,1.6-0.4
	c0.4-0.3,0.7-0.7,0.9-1.2h1.6c-0.2,0.8-0.7,1.5-1.4,2.1c-0.7,0.5-1.6,0.8-2.6,0.8c-0.8,0-1.6-0.2-2.2-0.6c-0.7-0.4-1.2-0.9-1.5-1.6
	c-0.4-0.7-0.6-1.5-0.6-2.4c0-0.9,0.2-1.7,0.5-2.4c0.4-0.7,0.9-1.2,1.5-1.6c0.7-0.4,1.4-0.6,2.3-0.6c0.8,0,1.6,0.2,2.2,0.5
	c0.6,0.4,1.1,0.9,1.5,1.5C144.5,359.8,144.7,360.5,144.7,361.3z M143.2,361c0-0.6-0.1-1-0.4-1.4c-0.2-0.4-0.6-0.7-1-0.9
	c-0.4-0.2-0.9-0.3-1.4-0.3c-0.7,0-1.4,0.2-1.9,0.7c-0.5,0.5-0.8,1.1-0.9,2H143.2z M148.1,358.7c0.3-0.5,0.6-0.9,1.1-1.2
	c0.5-0.3,1.1-0.4,1.7-0.4v1.5h-0.4c-1.6,0-2.4,0.9-2.4,2.7v4.8h-1.5v-8.8h1.5V358.7z M160.4,358.4h-1.8v7.6h-1.5v-7.6H156v-1.2h1.1
	v-0.6c0-1,0.3-1.7,0.8-2.1c0.5-0.5,1.3-0.7,2.4-0.7v1.2c-0.6,0-1.1,0.1-1.4,0.4c-0.3,0.2-0.4,0.7-0.4,1.2v0.6h1.8V358.4z
	 M165.9,366.1c-0.8,0-1.6-0.2-2.2-0.6c-0.7-0.4-1.2-0.9-1.6-1.6c-0.4-0.7-0.6-1.5-0.6-2.4c0-0.9,0.2-1.7,0.6-2.4
	c0.4-0.7,0.9-1.2,1.6-1.6c0.7-0.4,1.4-0.6,2.3-0.6s1.6,0.2,2.3,0.6c0.7,0.4,1.2,0.9,1.6,1.6c0.4,0.7,0.6,1.5,0.6,2.4
	c0,0.9-0.2,1.7-0.6,2.4c-0.4,0.7-0.9,1.2-1.6,1.6C167.5,366,166.8,366.1,165.9,366.1z M165.9,364.9c0.5,0,1-0.1,1.5-0.4
	c0.5-0.2,0.8-0.6,1.1-1.1c0.3-0.5,0.4-1.1,0.4-1.8c0-0.7-0.1-1.3-0.4-1.8c-0.3-0.5-0.6-0.9-1.1-1.1c-0.4-0.2-0.9-0.4-1.5-0.4
	c-0.5,0-1,0.1-1.5,0.4c-0.4,0.2-0.8,0.6-1.1,1.1c-0.3,0.5-0.4,1.1-0.4,1.8c0,0.7,0.1,1.3,0.4,1.8c0.3,0.5,0.6,0.9,1.1,1.1
	C164.9,364.7,165.4,364.9,165.9,364.9z M173.8,358.7c0.3-0.5,0.6-0.9,1.1-1.2c0.5-0.3,1.1-0.4,1.7-0.4v1.5h-0.4
	c-1.6,0-2.4,0.9-2.4,2.7v4.8h-1.5v-8.8h1.5V358.7z M185.7,366.1c-0.7,0-1.3-0.1-1.8-0.3c-0.5-0.2-1-0.6-1.3-1
	c-0.3-0.4-0.5-0.9-0.5-1.4h1.5c0,0.4,0.2,0.8,0.6,1.1c0.4,0.3,0.9,0.4,1.5,0.4c0.6,0,1-0.1,1.3-0.4c0.3-0.2,0.5-0.6,0.5-0.9
	c0-0.4-0.2-0.7-0.5-0.8c-0.3-0.2-0.9-0.4-1.6-0.6c-0.6-0.2-1.2-0.3-1.6-0.5c-0.4-0.2-0.8-0.4-1.1-0.8c-0.3-0.4-0.4-0.8-0.4-1.4
	c0-0.4,0.1-0.9,0.4-1.2c0.3-0.4,0.6-0.7,1.1-0.9c0.5-0.2,1.1-0.3,1.7-0.3c1,0,1.8,0.2,2.4,0.7c0.6,0.5,0.9,1.2,1,2h-1.5
	c0-0.5-0.2-0.8-0.6-1.1c-0.3-0.3-0.8-0.4-1.3-0.4c-0.5,0-0.9,0.1-1.2,0.3c-0.3,0.2-0.5,0.5-0.5,0.9c0,0.3,0.1,0.5,0.3,0.7
	c0.2,0.2,0.4,0.3,0.7,0.4c0.3,0.1,0.7,0.2,1.2,0.4c0.6,0.2,1.1,0.3,1.5,0.5c0.4,0.2,0.7,0.4,1,0.7c0.3,0.3,0.4,0.8,0.4,1.3
	c0,0.5-0.1,0.9-0.4,1.3c-0.3,0.4-0.6,0.7-1.1,0.9C186.9,366,186.3,366.1,185.7,366.1z M199,361.3c0,0.3,0,0.6,0,0.9h-7
	c0.1,0.9,0.3,1.5,0.9,2c0.5,0.5,1.2,0.7,2,0.7c0.6,0,1.2-0.1,1.6-0.4c0.4-0.3,0.7-0.7,0.9-1.2h1.6c-0.2,0.8-0.7,1.5-1.4,2.1
	c-0.7,0.5-1.6,0.8-2.6,0.8c-0.8,0-1.6-0.2-2.2-0.6c-0.7-0.4-1.2-0.9-1.5-1.6c-0.4-0.7-0.6-1.5-0.6-2.4c0-0.9,0.2-1.7,0.5-2.4
	c0.4-0.7,0.9-1.2,1.5-1.6c0.7-0.4,1.4-0.6,2.3-0.6c0.8,0,1.6,0.2,2.2,0.5c0.6,0.4,1.1,0.9,1.5,1.5C198.8,359.8,199,360.5,199,361.3z
	 M197.4,361c0-0.6-0.1-1-0.4-1.4c-0.2-0.4-0.6-0.7-1-0.9c-0.4-0.2-0.9-0.3-1.4-0.3c-0.7,0-1.4,0.2-1.9,0.7c-0.5,0.5-0.8,1.1-0.9,2
	H197.4z M205.1,357.1c1.1,0,1.9,0.3,2.6,1c0.7,0.6,1,1.6,1,2.8v5.2h-1.4v-5c0-0.9-0.2-1.5-0.7-2c-0.4-0.5-1-0.7-1.8-0.7
	c-0.8,0-1.4,0.2-1.8,0.7c-0.4,0.5-0.7,1.2-0.7,2.1v4.8h-1.5v-8.8h1.5v1.2c0.3-0.4,0.7-0.8,1.2-1C204,357.2,204.5,357.1,205.1,357.1z
	 M212.9,358.4v5.2c0,0.4,0.1,0.7,0.3,0.9c0.2,0.2,0.5,0.3,0.9,0.3h1.1v1.2h-1.3c-0.8,0-1.4-0.2-1.8-0.6c-0.4-0.4-0.6-1-0.6-1.8v-5.2
	h-1.1v-1.2h1.1V355h1.5v2.2h2.3v1.2H212.9z M217.4,366.1c-0.3,0-0.5-0.1-0.7-0.3c-0.2-0.2-0.3-0.4-0.3-0.7s0.1-0.5,0.3-0.7
	c0.2-0.2,0.4-0.3,0.7-0.3c0.3,0,0.5,0.1,0.7,0.3c0.2,0.2,0.3,0.4,0.3,0.7s-0.1,0.5-0.3,0.7C217.9,366,217.7,366.1,217.4,366.1z"/>
<path d="M41.4,279.3c0.6,0.1,1.1,0.4,1.6,0.9s0.6,1.1,0.6,1.8c0,0.6-0.1,1.1-0.4,1.6c-0.3,0.4-0.7,0.8-1.3,1.1s-1.2,0.4-2,0.4h-4.8
	v-11.2h4.6c0.8,0,1.4,0.1,2,0.4c0.6,0.2,1,0.6,1.2,1c0.3,0.4,0.4,0.9,0.4,1.5c0,0.7-0.2,1.2-0.5,1.6C42.5,278.8,42,279.1,41.4,279.3
	z M37.3,278.4h2c0.5,0,0.9-0.1,1.2-0.4c0.3-0.2,0.4-0.6,0.4-1s-0.1-0.8-0.4-1c-0.3-0.2-0.7-0.4-1.2-0.4h-2V278.4z M39.6,283.2
	c0.5,0,1-0.1,1.3-0.4c0.3-0.3,0.5-0.6,0.5-1.1c0-0.5-0.2-0.9-0.5-1.1c-0.3-0.3-0.8-0.4-1.3-0.4h-2.2v3H39.6z M53.6,280.4
	c0,0.3,0,0.6-0.1,0.9h-6.5c0.1,0.6,0.3,1.1,0.7,1.5c0.4,0.4,0.9,0.5,1.5,0.5c0.8,0,1.4-0.4,1.8-1.1h2.4c-0.3,0.9-0.7,1.6-1.5,2.1
	c-0.7,0.5-1.6,0.8-2.7,0.8c-0.9,0-1.6-0.2-2.3-0.6c-0.7-0.4-1.2-0.9-1.6-1.6c-0.4-0.7-0.6-1.5-0.6-2.4c0-0.9,0.2-1.7,0.6-2.4
	c0.4-0.7,0.9-1.2,1.6-1.6c0.7-0.4,1.4-0.6,2.3-0.6c0.8,0,1.6,0.2,2.3,0.5c0.7,0.4,1.2,0.9,1.6,1.6C53.4,278.7,53.6,279.5,53.6,280.4
	z M51.3,279.7c0-0.6-0.2-1-0.6-1.4c-0.4-0.4-0.9-0.5-1.5-0.5c-0.6,0-1,0.2-1.4,0.5c-0.4,0.3-0.6,0.8-0.7,1.4H51.3z M58.7,285.1
	c-0.7,0-1.4-0.1-2-0.4c-0.6-0.3-1-0.6-1.4-1.1c-0.3-0.4-0.5-0.9-0.5-1.5H57c0,0.3,0.2,0.6,0.5,0.8c0.3,0.2,0.7,0.3,1.1,0.3
	c0.4,0,0.8-0.1,1-0.3c0.2-0.2,0.4-0.4,0.4-0.7c0-0.3-0.1-0.5-0.4-0.6c-0.3-0.1-0.8-0.3-1.4-0.5c-0.7-0.2-1.2-0.3-1.6-0.5
	c-0.4-0.2-0.8-0.4-1.1-0.8c-0.3-0.4-0.4-0.8-0.4-1.4c0-0.5,0.1-0.9,0.4-1.3c0.3-0.4,0.7-0.7,1.2-1c0.5-0.2,1.2-0.4,1.9-0.4
	c1.1,0,1.9,0.3,2.5,0.8c0.6,0.5,1,1.2,1,2.1h-2.1c0-0.4-0.2-0.6-0.4-0.8c-0.3-0.2-0.6-0.3-1-0.3c-0.4,0-0.7,0.1-0.9,0.2
	c-0.2,0.1-0.3,0.4-0.3,0.6c0,0.3,0.1,0.5,0.4,0.7c0.3,0.1,0.8,0.3,1.4,0.5c0.6,0.2,1.2,0.3,1.6,0.5c0.4,0.2,0.8,0.4,1.1,0.8
	c0.3,0.4,0.5,0.8,0.5,1.4c0,0.5-0.1,1-0.4,1.4c-0.3,0.4-0.7,0.7-1.2,1C60,285,59.4,285.1,58.7,285.1z M69.2,285l-3-3.8v3.8H64v-11.8
	h2.2v6.7l3-3.8h2.9l-3.9,4.4l3.9,4.4H69.2z M75.6,277.5c0.3-0.5,0.7-0.8,1.1-1.1c0.5-0.3,1-0.4,1.6-0.4v2.4h-0.6
	c-0.7,0-1.2,0.2-1.6,0.5c-0.4,0.3-0.5,0.9-0.5,1.7v4.4h-2.2v-8.9h2.2V277.5z M80.9,275.1c-0.4,0-0.7-0.1-1-0.4
	c-0.3-0.3-0.4-0.6-0.4-0.9c0-0.4,0.1-0.7,0.4-0.9c0.3-0.3,0.6-0.4,1-0.4s0.7,0.1,1,0.4c0.3,0.2,0.4,0.6,0.4,0.9
	c0,0.4-0.1,0.7-0.4,0.9C81.6,275,81.3,275.1,80.9,275.1z M82,276.1v8.9h-2.2v-8.9H82z M87.9,282.9l2.2-6.8h2.4l-3.3,8.9h-2.7
	l-3.3-8.9h2.4L87.9,282.9z M102.1,280.4c0,0.3,0,0.6-0.1,0.9h-6.5c0.1,0.6,0.3,1.1,0.7,1.5c0.4,0.4,0.9,0.5,1.5,0.5
	c0.8,0,1.4-0.4,1.8-1.1h2.4c-0.3,0.9-0.7,1.6-1.5,2.1c-0.7,0.5-1.6,0.8-2.7,0.8c-0.9,0-1.6-0.2-2.3-0.6c-0.7-0.4-1.2-0.9-1.6-1.6
	c-0.4-0.7-0.6-1.5-0.6-2.4c0-0.9,0.2-1.7,0.6-2.4c0.4-0.7,0.9-1.2,1.6-1.6c0.7-0.4,1.4-0.6,2.3-0.6c0.8,0,1.6,0.2,2.3,0.5
	c0.7,0.4,1.2,0.9,1.6,1.6C101.9,278.7,102.1,279.5,102.1,280.4z M99.7,279.7c0-0.6-0.2-1-0.6-1.4c-0.4-0.4-0.9-0.5-1.5-0.5
	c-0.6,0-1,0.2-1.4,0.5c-0.4,0.3-0.6,0.8-0.7,1.4H99.7z M105.9,273.2V285h-2.2v-11.8H105.9z M111.5,285.1c-0.7,0-1.4-0.1-2-0.4
	c-0.6-0.3-1-0.6-1.4-1.1c-0.3-0.4-0.5-0.9-0.5-1.5h2.3c0,0.3,0.2,0.6,0.5,0.8c0.3,0.2,0.7,0.3,1.1,0.3c0.4,0,0.8-0.1,1-0.3
	c0.2-0.2,0.4-0.4,0.4-0.7c0-0.3-0.1-0.5-0.4-0.6c-0.3-0.1-0.8-0.3-1.4-0.5c-0.7-0.2-1.2-0.3-1.6-0.5c-0.4-0.2-0.8-0.4-1.1-0.8
	c-0.3-0.4-0.4-0.8-0.4-1.4c0-0.5,0.1-0.9,0.4-1.3c0.3-0.4,0.7-0.7,1.2-1c0.5-0.2,1.2-0.4,1.9-0.4c1.1,0,1.9,0.3,2.5,0.8
	c0.6,0.5,1,1.2,1,2.1h-2.1c0-0.4-0.2-0.6-0.4-0.8c-0.3-0.2-0.6-0.3-1-0.3c-0.4,0-0.7,0.1-0.9,0.2c-0.2,0.1-0.3,0.4-0.3,0.6
	c0,0.3,0.1,0.5,0.4,0.7c0.3,0.1,0.8,0.3,1.4,0.5c0.6,0.2,1.2,0.3,1.6,0.5c0.4,0.2,0.8,0.4,1.1,0.8c0.3,0.4,0.5,0.8,0.5,1.4
	c0,0.5-0.1,1-0.4,1.4c-0.3,0.4-0.7,0.7-1.2,1C112.9,285,112.2,285.1,111.5,285.1z M125.1,280.4c0,0.3,0,0.6-0.1,0.9h-6.5
	c0.1,0.6,0.3,1.1,0.7,1.5c0.4,0.4,0.9,0.5,1.5,0.5c0.8,0,1.4-0.4,1.8-1.1h2.4c-0.3,0.9-0.7,1.6-1.5,2.1c-0.7,0.5-1.6,0.8-2.7,0.8
	c-0.9,0-1.6-0.2-2.3-0.6c-0.7-0.4-1.2-0.9-1.6-1.6c-0.4-0.7-0.6-1.5-0.6-2.4c0-0.9,0.2-1.7,0.6-2.4c0.4-0.7,0.9-1.2,1.6-1.6
	c0.7-0.4,1.4-0.6,2.3-0.6c0.8,0,1.6,0.2,2.3,0.5c0.7,0.4,1.2,0.9,1.6,1.6C124.9,278.7,125.1,279.5,125.1,280.4z M122.8,279.7
	c0-0.6-0.2-1-0.6-1.4c-0.4-0.4-0.9-0.5-1.5-0.5c-0.6,0-1,0.2-1.4,0.5c-0.4,0.3-0.6,0.8-0.7,1.4H122.8z"/>
<path d="M241.4,449.6v0.9h-3.6v2.8h3v0.9h-3v3.8h-1.1v-8.4H241.4z M245.6,458.1c-0.6,0-1.2-0.1-1.7-0.4c-0.5-0.3-0.9-0.7-1.2-1.2
	c-0.3-0.5-0.4-1.1-0.4-1.8c0-0.7,0.1-1.3,0.4-1.8c0.3-0.5,0.7-0.9,1.2-1.2c0.5-0.3,1.1-0.4,1.7-0.4c0.6,0,1.2,0.1,1.7,0.4
	c0.5,0.3,0.9,0.7,1.2,1.2c0.3,0.5,0.4,1.1,0.4,1.8c0,0.7-0.2,1.3-0.5,1.8c-0.3,0.5-0.7,0.9-1.2,1.2
	C246.8,458,246.2,458.1,245.6,458.1z M245.6,457.1c0.4,0,0.8-0.1,1.1-0.3c0.3-0.2,0.6-0.5,0.8-0.8c0.2-0.4,0.3-0.8,0.3-1.3
	c0-0.5-0.1-1-0.3-1.3c-0.2-0.4-0.5-0.6-0.8-0.8c-0.3-0.2-0.7-0.3-1.1-0.3c-0.4,0-0.8,0.1-1.1,0.3c-0.3,0.2-0.6,0.4-0.8,0.8
	c-0.2,0.4-0.3,0.8-0.3,1.3c0,0.5,0.1,1,0.3,1.4c0.2,0.4,0.5,0.6,0.8,0.8C244.8,457.1,245.2,457.1,245.6,457.1z M251.5,452.5
	c0.2-0.4,0.5-0.7,0.8-0.9c0.4-0.2,0.8-0.3,1.3-0.3v1.1h-0.3c-1.2,0-1.8,0.7-1.8,2v3.6h-1.1v-6.6h1.1V452.5z M261.3,451.3
	c0.8,0,1.4,0.2,1.9,0.7c0.5,0.5,0.7,1.2,0.7,2.1v3.9h-1.1v-3.7c0-0.7-0.2-1.2-0.5-1.5c-0.3-0.4-0.8-0.5-1.3-0.5
	c-0.6,0-1,0.2-1.4,0.5c-0.3,0.4-0.5,0.9-0.5,1.6v3.6h-1.1v-6.6h1.1v0.9c0.2-0.3,0.5-0.6,0.9-0.8
	C260.4,451.4,260.8,451.3,261.3,451.3z M271.4,451.4l-4,9.7h-1.1l1.3-3.2l-2.7-6.5h1.2l2.1,5.3l2-5.3H271.4z M278.5,454.5
	c0,0.2,0,0.4,0,0.7h-5.3c0,0.6,0.3,1.2,0.7,1.5c0.4,0.4,0.9,0.5,1.5,0.5c0.5,0,0.9-0.1,1.2-0.3c0.3-0.2,0.5-0.5,0.7-0.9h1.2
	c-0.2,0.6-0.5,1.1-1.1,1.5c-0.5,0.4-1.2,0.6-2,0.6c-0.6,0-1.2-0.1-1.7-0.4c-0.5-0.3-0.9-0.7-1.2-1.2c-0.3-0.5-0.4-1.1-0.4-1.8
	c0-0.7,0.1-1.3,0.4-1.8c0.3-0.5,0.7-0.9,1.1-1.2c0.5-0.3,1.1-0.4,1.7-0.4c0.6,0,1.2,0.1,1.7,0.4s0.8,0.6,1.1,1.1
	C278.4,453.3,278.5,453.9,278.5,454.5z M277.4,454.2c0-0.4-0.1-0.8-0.3-1.1c-0.2-0.3-0.4-0.5-0.8-0.7c-0.3-0.2-0.7-0.2-1-0.2
	c-0.6,0-1,0.2-1.4,0.5c-0.4,0.4-0.6,0.8-0.7,1.5H277.4z M231.7,478.1c-0.5,0-1-0.1-1.4-0.3c-0.4-0.2-0.7-0.4-0.9-0.7
	c-0.2-0.3-0.4-0.7-0.4-1.1h1.1c0,0.3,0.2,0.6,0.5,0.8c0.3,0.2,0.6,0.3,1.1,0.3c0.4,0,0.7-0.1,1-0.3c0.2-0.2,0.4-0.4,0.4-0.7
	c0-0.3-0.1-0.5-0.4-0.6c-0.3-0.1-0.7-0.3-1.2-0.4c-0.5-0.1-0.9-0.3-1.2-0.4c-0.3-0.1-0.6-0.3-0.8-0.6c-0.2-0.3-0.3-0.6-0.3-1
	c0-0.3,0.1-0.6,0.3-0.9s0.5-0.5,0.9-0.7c0.4-0.2,0.8-0.3,1.3-0.3c0.7,0,1.3,0.2,1.8,0.6c0.4,0.4,0.7,0.9,0.7,1.5H233
	c0-0.3-0.2-0.6-0.4-0.8c-0.2-0.2-0.6-0.3-1-0.3c-0.4,0-0.7,0.1-0.9,0.3c-0.2,0.2-0.3,0.4-0.3,0.7c0,0.2,0.1,0.4,0.2,0.5
	c0.1,0.1,0.3,0.2,0.5,0.3c0.2,0.1,0.5,0.2,0.9,0.3c0.5,0.1,0.9,0.3,1.2,0.4c0.3,0.1,0.5,0.3,0.8,0.6c0.2,0.2,0.3,0.6,0.3,1
	c0,0.4-0.1,0.7-0.3,1c-0.2,0.3-0.5,0.5-0.9,0.7C232.6,478,232.2,478.1,231.7,478.1z M235.3,474.7c0-0.7,0.1-1.3,0.4-1.8
	c0.3-0.5,0.6-0.9,1.1-1.2c0.5-0.3,1-0.4,1.6-0.4c0.6,0,1.1,0.1,1.5,0.4c0.4,0.2,0.7,0.6,0.9,0.9v-1.2h1.1v6.6h-1.1v-1.2
	c-0.2,0.4-0.5,0.7-1,1c-0.4,0.2-0.9,0.4-1.5,0.4c-0.6,0-1.1-0.1-1.6-0.4s-0.8-0.7-1.1-1.2C235.4,475.9,235.3,475.4,235.3,474.7z
	 M240.9,474.7c0-0.5-0.1-0.9-0.3-1.3c-0.2-0.4-0.5-0.6-0.8-0.8c-0.3-0.2-0.7-0.3-1.1-0.3c-0.4,0-0.8,0.1-1.1,0.3
	c-0.3,0.2-0.6,0.5-0.8,0.8s-0.3,0.8-0.3,1.3c0,0.5,0.1,0.9,0.3,1.3c0.2,0.4,0.5,0.7,0.8,0.9c0.3,0.2,0.7,0.3,1.1,0.3
	c0.4,0,0.8-0.1,1.1-0.3c0.3-0.2,0.6-0.5,0.8-0.9C240.8,475.6,240.9,475.2,240.9,474.7z M240.1,469.5c0,0.4-0.1,0.7-0.4,0.9
	c-0.2,0.2-0.5,0.3-0.9,0.3c-0.4,0-0.7-0.1-0.9-0.3c-0.2-0.2-0.4-0.5-0.4-0.9s0.1-0.7,0.4-0.9s0.6-0.3,0.9-0.3c0.4,0,0.7,0.1,0.9,0.3
	C240,468.8,240.1,469.1,240.1,469.5z M239.5,469.4c0-0.2-0.1-0.4-0.2-0.5c-0.1-0.1-0.3-0.2-0.5-0.2s-0.3,0.1-0.5,0.2
	c-0.1,0.1-0.2,0.3-0.2,0.5s0.1,0.4,0.2,0.5c0.1,0.1,0.3,0.2,0.5,0.2s0.3-0.1,0.5-0.2C239.4,469.8,239.5,469.6,239.5,469.4z
	 M246.2,477l2-5.6h1.2l-2.6,6.6h-1.3l-2.6-6.6h1.2L246.2,477z M256.5,474.5c0,0.2,0,0.4,0,0.7h-5.3c0,0.6,0.3,1.2,0.7,1.5
	c0.4,0.4,0.9,0.5,1.5,0.5c0.5,0,0.9-0.1,1.2-0.3c0.3-0.2,0.5-0.5,0.7-0.9h1.2c-0.2,0.6-0.5,1.1-1.1,1.5c-0.5,0.4-1.2,0.6-2,0.6
	c-0.6,0-1.2-0.1-1.7-0.4c-0.5-0.3-0.9-0.7-1.2-1.2c-0.3-0.5-0.4-1.1-0.4-1.8c0-0.7,0.1-1.3,0.4-1.8c0.3-0.5,0.7-0.9,1.1-1.2
	c0.5-0.3,1.1-0.4,1.7-0.4c0.6,0,1.2,0.1,1.7,0.4s0.8,0.6,1.1,1.1C256.4,473.3,256.5,473.9,256.5,474.5z M255.4,474.2
	c0-0.4-0.1-0.8-0.3-1.1c-0.2-0.3-0.4-0.5-0.8-0.7c-0.3-0.2-0.7-0.2-1-0.2c-0.6,0-1,0.2-1.4,0.5c-0.4,0.4-0.6,0.8-0.7,1.5H255.4z
	 M259.1,469.1v8.9H258v-8.9H259.1z M266.4,478.1c-0.5,0-1-0.1-1.4-0.3c-0.4-0.2-0.7-0.4-0.9-0.7c-0.2-0.3-0.4-0.7-0.4-1.1h1.1
	c0,0.3,0.2,0.6,0.5,0.8c0.3,0.2,0.6,0.3,1.1,0.3c0.4,0,0.7-0.1,1-0.3c0.2-0.2,0.4-0.4,0.4-0.7c0-0.3-0.1-0.5-0.4-0.6
	c-0.3-0.1-0.7-0.3-1.2-0.4c-0.5-0.1-0.9-0.3-1.2-0.4c-0.3-0.1-0.6-0.3-0.8-0.6c-0.2-0.3-0.3-0.6-0.3-1c0-0.3,0.1-0.6,0.3-0.9
	c0.2-0.3,0.5-0.5,0.9-0.7c0.4-0.2,0.8-0.3,1.3-0.3c0.7,0,1.3,0.2,1.8,0.6c0.4,0.4,0.7,0.9,0.7,1.5h-1.1c0-0.3-0.2-0.6-0.4-0.8
	c-0.2-0.2-0.6-0.3-1-0.3c-0.4,0-0.7,0.1-0.9,0.3s-0.3,0.4-0.3,0.7c0,0.2,0.1,0.4,0.2,0.5c0.1,0.1,0.3,0.2,0.5,0.3
	c0.2,0.1,0.5,0.2,0.9,0.3c0.5,0.1,0.9,0.3,1.2,0.4c0.3,0.1,0.5,0.3,0.8,0.6c0.2,0.2,0.3,0.6,0.3,1c0,0.4-0.1,0.7-0.3,1
	s-0.5,0.5-0.9,0.7C267.3,478,266.9,478.1,266.4,478.1z M273.3,478.1c-0.6,0-1.2-0.1-1.7-0.4c-0.5-0.3-0.9-0.7-1.2-1.2
	c-0.3-0.5-0.4-1.1-0.4-1.8c0-0.7,0.1-1.3,0.4-1.8c0.3-0.5,0.7-0.9,1.2-1.2c0.5-0.3,1.1-0.4,1.7-0.4s1.2,0.1,1.7,0.4
	c0.5,0.3,0.9,0.7,1.2,1.2c0.3,0.5,0.4,1.1,0.4,1.8c0,0.7-0.2,1.3-0.5,1.8c-0.3,0.5-0.7,0.9-1.2,1.2S273.9,478.1,273.3,478.1z
	 M273.3,477.1c0.4,0,0.8-0.1,1.1-0.3c0.3-0.2,0.6-0.5,0.8-0.8c0.2-0.4,0.3-0.8,0.3-1.3c0-0.5-0.1-1-0.3-1.3
	c-0.2-0.4-0.5-0.6-0.8-0.8c-0.3-0.2-0.7-0.3-1.1-0.3c-0.4,0-0.8,0.1-1.1,0.3c-0.3,0.2-0.6,0.4-0.8,0.8c-0.2,0.4-0.3,0.8-0.3,1.3
	c0,0.5,0.1,1,0.3,1.4c0.2,0.4,0.5,0.6,0.8,0.8C272.5,477.1,272.9,477.1,273.3,477.1z M286,471.3c0.5,0,1,0.1,1.4,0.3
	c0.4,0.2,0.7,0.5,0.9,0.9c0.2,0.4,0.3,0.9,0.3,1.5v3.9h-1.1v-3.7c0-0.7-0.2-1.2-0.5-1.5c-0.3-0.4-0.8-0.5-1.3-0.5
	c-0.6,0-1,0.2-1.4,0.6c-0.3,0.4-0.5,0.9-0.5,1.6v3.6h-1.1v-3.7c0-0.7-0.2-1.2-0.5-1.5c-0.3-0.4-0.8-0.5-1.3-0.5
	c-0.6,0-1,0.2-1.4,0.6c-0.3,0.4-0.5,0.9-0.5,1.6v3.6h-1.1v-6.6h1.1v0.9c0.2-0.3,0.5-0.6,0.9-0.8c0.4-0.2,0.8-0.3,1.2-0.3
	c0.6,0,1,0.1,1.5,0.4c0.4,0.2,0.7,0.6,0.9,1.1c0.2-0.5,0.5-0.8,0.9-1.1C285,471.4,285.5,471.3,286,471.3z M233.3,497l2-5.6h1.2
	l-2.6,6.6h-1.3l-2.6-6.6h1.2L233.3,497z M243.6,494.5c0,0.2,0,0.4,0,0.7h-5.3c0,0.6,0.3,1.2,0.7,1.5c0.4,0.4,0.9,0.5,1.5,0.5
	c0.5,0,0.9-0.1,1.2-0.3c0.3-0.2,0.5-0.5,0.7-0.9h1.2c-0.2,0.6-0.5,1.1-1.1,1.5c-0.5,0.4-1.2,0.6-2,0.6c-0.6,0-1.2-0.1-1.7-0.4
	c-0.5-0.3-0.9-0.7-1.2-1.2c-0.3-0.5-0.4-1.1-0.4-1.8c0-0.7,0.1-1.3,0.4-1.8c0.3-0.5,0.7-0.9,1.1-1.2c0.5-0.3,1.1-0.4,1.7-0.4
	c0.6,0,1.2,0.1,1.7,0.4c0.5,0.3,0.8,0.6,1.1,1.1C243.4,493.3,243.6,493.9,243.6,494.5z M242.4,494.2c0-0.4-0.1-0.8-0.3-1.1
	c-0.2-0.3-0.4-0.5-0.8-0.7c-0.3-0.2-0.7-0.2-1-0.2c-0.6,0-1,0.2-1.4,0.5c-0.4,0.4-0.6,0.8-0.7,1.5H242.4z M246.3,492.3v3.9
	c0,0.3,0.1,0.5,0.2,0.7c0.1,0.1,0.4,0.2,0.7,0.2h0.8v0.9h-1c-0.6,0-1.1-0.1-1.4-0.4c-0.3-0.3-0.5-0.7-0.5-1.4v-3.9h-0.9v-0.9h0.9
	v-1.7h1.1v1.7h1.7v0.9H246.3z M255.4,494.5c0,0.2,0,0.4,0,0.7h-5.3c0,0.6,0.3,1.2,0.7,1.5c0.4,0.4,0.9,0.5,1.5,0.5
	c0.5,0,0.9-0.1,1.2-0.3c0.3-0.2,0.5-0.5,0.7-0.9h1.2c-0.2,0.6-0.5,1.1-1.1,1.5c-0.5,0.4-1.2,0.6-2,0.6c-0.6,0-1.2-0.1-1.7-0.4
	c-0.5-0.3-0.9-0.7-1.2-1.2c-0.3-0.5-0.4-1.1-0.4-1.8c0-0.7,0.1-1.3,0.4-1.8c0.3-0.5,0.7-0.9,1.1-1.2c0.5-0.3,1.1-0.4,1.7-0.4
	c0.6,0,1.2,0.1,1.7,0.4c0.5,0.3,0.8,0.6,1.1,1.1C255.3,493.3,255.4,493.9,255.4,494.5z M254.3,494.2c0-0.4-0.1-0.8-0.3-1.1
	c-0.2-0.3-0.4-0.5-0.8-0.7c-0.3-0.2-0.7-0.2-1-0.2c-0.6,0-1,0.2-1.4,0.5c-0.4,0.4-0.6,0.8-0.7,1.5H254.3z M257.9,492.5
	c0.2-0.4,0.5-0.7,0.8-0.9c0.4-0.2,0.8-0.3,1.3-0.3v1.1h-0.3c-1.2,0-1.8,0.7-1.8,2v3.6h-1.1v-6.6h1.1V492.5z M260.9,494.7
	c0-0.7,0.1-1.3,0.4-1.8c0.3-0.5,0.6-0.9,1.1-1.2c0.5-0.3,1-0.4,1.6-0.4c0.6,0,1.1,0.1,1.5,0.4c0.4,0.2,0.7,0.6,0.9,0.9v-1.2h1.1v6.6
	h-1.1v-1.2c-0.2,0.4-0.5,0.7-1,1c-0.4,0.2-0.9,0.4-1.5,0.4c-0.6,0-1.1-0.1-1.6-0.4c-0.5-0.3-0.8-0.7-1.1-1.2
	C261,495.9,260.9,495.4,260.9,494.7z M266.5,494.7c0-0.5-0.1-0.9-0.3-1.3c-0.2-0.4-0.5-0.6-0.8-0.8c-0.3-0.2-0.7-0.3-1.1-0.3
	s-0.8,0.1-1.1,0.3c-0.3,0.2-0.6,0.5-0.8,0.8c-0.2,0.4-0.3,0.8-0.3,1.3c0,0.5,0.1,0.9,0.3,1.3c0.2,0.4,0.5,0.7,0.8,0.9
	c0.3,0.2,0.7,0.3,1.1,0.3s0.8-0.1,1.1-0.3c0.3-0.2,0.6-0.5,0.8-0.9C266.4,495.6,266.5,495.2,266.5,494.7z M272.6,491.3
	c0.8,0,1.4,0.2,1.9,0.7c0.5,0.5,0.7,1.2,0.7,2.1v3.9h-1.1v-3.7c0-0.7-0.2-1.2-0.5-1.5c-0.3-0.4-0.8-0.5-1.3-0.5
	c-0.6,0-1,0.2-1.4,0.5c-0.3,0.4-0.5,0.9-0.5,1.6v3.6h-1.1v-6.6h1.1v0.9c0.2-0.3,0.5-0.6,0.9-0.8
	C271.8,491.4,272.2,491.3,272.6,491.3z M283.1,494.5c0,0.2,0,0.4,0,0.7h-5.3c0,0.6,0.3,1.2,0.7,1.5c0.4,0.4,0.9,0.5,1.5,0.5
	c0.5,0,0.9-0.1,1.2-0.3c0.3-0.2,0.5-0.5,0.7-0.9h1.2c-0.2,0.6-0.5,1.1-1.1,1.5c-0.5,0.4-1.2,0.6-2,0.6c-0.6,0-1.2-0.1-1.7-0.4
	c-0.5-0.3-0.9-0.7-1.2-1.2c-0.3-0.5-0.4-1.1-0.4-1.8c0-0.7,0.1-1.3,0.4-1.8c0.3-0.5,0.7-0.9,1.1-1.2c0.5-0.3,1.1-0.4,1.7-0.4
	c0.6,0,1.2,0.1,1.7,0.4s0.8,0.6,1.1,1.1C283,493.3,283.1,493.9,283.1,494.5z M282,494.2c0-0.4-0.1-0.8-0.3-1.1
	c-0.2-0.3-0.4-0.5-0.8-0.7c-0.3-0.2-0.7-0.2-1-0.2c-0.6,0-1,0.2-1.4,0.5c-0.4,0.4-0.6,0.8-0.7,1.5H282z M285.6,492.5
	c0.2-0.4,0.5-0.7,0.8-0.9c0.4-0.2,0.8-0.3,1.3-0.3v1.1h-0.3c-1.2,0-1.8,0.7-1.8,2v3.6h-1.1v-6.6h1.1V492.5z"/>
<path class="st6" d="M259,524c27.6,0,50-22.4,50-50c0-27.6-22.4-50-50-50s-50,22.4-50,50C209,501.6,231.4,524,259,524z"/>
<path class="st7" d="M259,424c11.4,0,22.4,3.9,31.2,11c8.9,7.1,15.1,17,17.5,28.1c2.5,11.1,1.1,22.7-3.9,32.9
	c-5,10.2-13.3,18.4-23.6,23.3c-10.3,4.9-21.9,6.1-32.9,3.4c-11-2.6-20.9-8.9-27.9-17.9c-7-9-10.7-20-10.6-31.4
	c0.1-11.4,4.2-22.3,11.4-31.1"/>
<rect id="anchor" x="34" y="576.7" class="st8" width="274.8" height="31.6"/>
</svg>
