<?xml version="1.0" encoding="utf-8"?>
<!-- Generator: Adobe Illustrator 25.2.3, SVG Export Plug-In . SVG Version: 6.00 Build 0)  -->
<svg version="1.1" id="Layer_1" xmlns="http://www.w3.org/2000/svg" xmlns:xlink="http://www.w3.org/1999/xlink" x="0px" y="0px"
	 viewBox="0 0 343 655" style="enable-background:new 0 0 343 655;" xml:space="preserve">
<style type="text/css">
	.st0{fill:#0A1013;}
	.st1{clip-path:url(#SVGID_2_);}
	.st2{fill:#821C1B;}
	.st3{fill:#E7B429;}
	.st4{fill:#FDFDFD;}
	.st5{fill:none;}
	.st6{fill-opacity:0.75;}
	.st7{fill:#FFFFFF;}
	.st8{fill:#FAFAFA;}
	.st9{fill:none;stroke:#DBF7E2;stroke-width:7;stroke-miterlimit:10;}
	.st10{fill:none;stroke:#2EA74E;stroke-width:7;stroke-miterlimit:10;}
	.st11{fill:#C99D2B;}
	.st12{fill:#0A1013;fill-opacity:0;}
</style>
<image style="overflow:visible;" width="633" height="355" xlink:href="the-last-secret/the-last-secret.png"  transform="matrix(0.5292 0 0 0.5292 4 64.1248)">
</image>
<g>
	<path class="st0" d="M4,7c0-2.8,2.2-5,5-5h325c2.8,0,5,2.2,5,5v63H4V7z"/>
</g>
<g>
	<g>
		<defs>
			
				<rect id="SVGID_1_" x="143.9" y="-60.5" transform="matrix(6.840850e-02 -0.9977 0.9977 6.840850e-02 123.4818 206.5187)" width="56.8" height="195.2"/>
		</defs>
		<clipPath id="SVGID_2_">
			<use xlink:href="#SVGID_1_"  style="overflow:visible;"/>
		</clipPath>
		<g class="st1">
			<path class="st2" d="M227,18.9c0.3-0.9,0.7-1.7,0.9-2.6c0.1-0.5,0.3-0.8,0.9-0.7c2.5,0,4.9,0,7.4,0.1c1.6,0,3.2,0.2,4.5,1.4
				l-0.1,0.1c-1.3-0.3-2.6-0.8-3.9-0.9c-2-0.1-4-0.1-6,0c-0.3,0-0.7,0.4-0.8,0.7c-0.3,0.9-0.5,1.9-0.8,2.9s-0.5,1.9-0.8,2.9
				c-0.2,1-0.5,1.9-0.8,2.9c-0.2,0.8-0.4,1.7-0.6,2.5c-0.5,1.5-0.8,3-1.2,4.5c-0.1,0.6-0.2,1.2-0.2,1.8c-1.1,3-1.7,6.1-2.6,9.3
				c1.2,0,2.3,0,3.4,0c0.7,0,0.9-0.2,1.1-0.8c0.8-3.2,1.7-6.4,2.6-9.6c0.1-0.6,0.4-0.8,1-0.7c0.3,0,0.6,0,0.9,0
				c1.7,0.1,2.3,0.9,2,2.5c-0.2,0.8-0.4,1.6-0.6,2.4c-0.4,1.7-0.8,3.4-1.2,5.1c-0.2,0.8,0.1,1.2,0.9,1.1c1-0.1,2.1,0,3.2,0l-0.4-0.5
				c0.2-0.2,0.4-0.4,0.5-0.6c0.3-1.1,0.6-2.3,0.8-3.5c0.1-0.3-0.2-0.7-0.2-1c0.3-0.4,0.6-0.7,0.8-1.1c0.2-0.7,0.4-1.3,0.5-2
				c0.3-1.8,0.3-3.6-1.3-4.6c0.9-0.8,2-1.5,2.5-2.4c0.8-1.4,1.3-3,1.9-4.6c0.3-1,0.5-2.2,0.6-3.3c0-0.2-0.2-0.5-0.3-0.6
				c-0.1-0.7-0.2-1.3-0.3-2l0,0c0.3,0.4,0.6,0.9,1,1.4c0.3-1.2,0.6-2.3,0.9-3.4c3.8,0,7.6,0,11.3,0c4.7,0,9.5,0,14.2,0
				c0.2,0,0.3-0.1,0.5-0.2l2.6,0.2l-0.1,1c-0.4,1.4-0.8,2.7-1.3,4.1c-0.2,0.5-0.3,1-0.4,1.6l-4.6,0.1c-2.1,7.9-4.2,15.7-6.2,23.6
				H252c2.1-7.9,4.2-15.7,6.2-23.6h-9.7l-1.3,4.9h6c-0.6,2.1-1.1,4.1-1.6,6.2c-0.1,0.2-0.5,0.5-0.8,0.5c-1.7,0-3.4,0-5.3,0l-1.4,5.3
				h7.5c-0.6,2.2-1.2,4.4-1.8,6.7h-20c-0.4-1.7-0.1-3.3,0.3-5c0.4-1.7,0.9-3.4,1.3-5.1c0.1-0.4,0.4-1-0.4-1.2
				c-0.7-0.1-0.9,0.3-1,0.9c-0.9,3.4-1.8,6.9-2.7,10.4h-7.2c0.2-0.9,0.4-1.7,0.7-2.7c-2,2-4.2,2.9-6.8,3s-4.9-0.5-6.4-3.1
				c-0.2,0.8-0.3,1.5-0.6,2.2c-0.1,0.3-0.5,0.6-0.8,0.6c-4.6,0-9.2,0-13.9,0c-0.1,0-0.1-0.1-0.2-0.1c0.2-0.7,0.4-1.4,0.6-2.3
				c-1.5,1.4-3.1,2.4-4.9,2.6c-1.5,0.2-3,0.1-4.4-0.1c-2.5-0.4-4.2-2.6-4-5.2c0.1-1.9,0.6-3.8,0.9-5.8h7.1c-0.4,1.6-0.7,3-1.1,4.5
				c0.9,0.3,1.4,0,1.7-0.7c0.6-1.2,0.8-2.5,0-3.7c-0.6-0.9-1.3-1.8-2.1-2.7c-4.1-4.7-2.8-10.1,0.1-13.8c2.3-2.9,6.8-4.1,10.2-2.8
				c0.5,0.2,1,0.7,1.5,1c-0.7-0.2-1.5-0.6-2.2-0.7c-4.2-0.7-7.7,1.5-9.3,5.7c-1.1,3.1-0.9,5.9,1.2,8.6c0.6,0.7,1.2,1.3,1.7,2.1
				c0.6,1,1.3,2,1.6,3.1c0.5,2.1-0.8,4.3-2.4,4.6c-0.8,0.2-1.6,0.3-2.1-0.5c-0.5-0.7-0.5-1.5-0.1-2.3c0.2-0.5,0.3-1.1,0.5-1.8
				c-1.2,0-2.3,0-3.3,0c-0.2,0-0.3,0.1-0.5,0.2c-0.1,0.1-0.3,0.2-0.3,0.4c-0.7,1.7-1,3.6-0.4,5.4c0.6,1.9,2.2,2.5,3.9,1.4l0.6,1.1
				c2.6,0,5.1-0.8,6.9-3.3l-3-0.9l0.1-0.4c0.4,0.1,0.8,0.3,1.2,0.4c2,0.7,2.2,0.6,2.9-1.4c0.6-1.8,1.1-3.7,0.7-5.7
				c0.1-0.1,0.4-0.1,0.4-0.2c0.6-2.2,1.2-4.5,1.8-6.8H192c0.3-1.3,0.6-2.5,0.9-3.7l-0.3-0.3c-0.4,0.3-1.1,0.6-1.2,1
				c-0.3,1-0.3,2-0.4,3c-1.4-1.1-0.3-5.5,1.7-5.8c1.8-0.3,2.7,0.5,2.3,2.3c-0.1,0.5-0.2,0.9-0.3,1.5c1.2,0,2.2,0,3.3,0
				c0.7,0,0.9-0.2,1.1-0.8c0.4-1.6,0.4-3.3,0-5l0.5,0.5c0.3-0.9,0.5-1.9,0.8-2.9h14.7c-0.1,0.6-0.2,1.2-0.3,1.7l-0.2,0.4l0.2,0.2
				c0.1-0.1,0.1-0.2,0.2-0.3c2.9-2.3,6.1-2.8,9.6-1.6c0.3,0.1,0.6,0.4,0.8,0.6c-0.1,0-0.3,0-0.4,0c-5-1.7-9.8,1-11.1,6.1
				c-1,4-2.1,7.9-3.1,11.8c-0.4,1.8-0.9,3.6-1.1,5.4c-0.2,2,0.9,3.6,2.8,4c1.4,0.3,2.8,0.3,4.2,0.1c3.9-0.8,7.3-5.8,7-10.2
				c-0.4,0-0.8-0.1-1.2-0.1c-2.6-0.1-2.6-0.1-3.2,2.5c-0.3,1.1-0.6,2.1-1.1,3c-0.5,1-2.1,1.4-3.1,1c-1.1-0.5-1.1-1.4-0.9-2.3
				c0.6-2.4,1.4-4.8,1.9-7.3c0.7-2.9,2-5.6,2-8.6c0-0.1,0.1-0.2,0.2-0.3c0.5-0.4,1-0.8,1.5-1.3c0.8-0.7,1.7-0.5,2.5-0.1
				s0.8,1.2,0.6,2c-0.2,0.9-0.4,1.8-0.7,2.7c-0.1,0.5,0,0.8,0.6,0.8c0.9,0,1.8,0.1,2.7,0c0.3,0,0.8-0.4,0.9-0.7
				c0.3-1.3,0.6-2.6,0.8-4C226.9,20.2,226.9,19.5,227,18.9z M260.6,37.1L260,37c0.1-0.2,0.2-0.5,0.2-0.5c0.8,0.1,0.6-0.6,0.8-1
				c0.4-0.7,0.3-1.5,0.6-2.3c0.7-2.1,1.2-4.2,1.8-6.4c0.6-2.4,1.3-4.8,1.9-7.2c0.3,0.1,0.6,0.4,0.9,0.4c1.1,0,2.1,0,3.2,0
				c0.1,0,0.2-0.1,0.3-0.2c0.1-0.1,0.2-0.2,0.2-0.3c0.3-1.1,0.6-2.2,0.9-3.5c-2,0.3-4-0.6-5.7,0.8l0.4-0.8c-0.7,0.1-1.4,0.4-1.9,0.3
				c-1.5-0.2-3-0.5-4.5,0.2c-0.2,0.1-0.4,0.1-0.5,0c-0.6-0.6-0.9,0-1.5,0.3l0.9,0.1c-0.1,0.1-0.1,0.4-0.2,0.4
				c-1.2,0.5-1.1,1.6-1.3,2.6h4.5c-0.7,2.6-1.4,5.2-2,7.7c-0.1,0.4,0,0.8,0,1.1c-0.1,0.1-0.4,0.3-0.4,0.5c-0.4,1.2-0.7,2.3-1,3.5
				c-0.9,3.5-1.8,7-2.8,10.6c1.3,0,2.6,0,3.8,0c0.1,0,0.2,0,0.3-0.1c0.1-0.1,0.1-0.1,0.2-0.2c0.3-1.1,0.6-2.3,0.9-3.4
				c0.1-0.3-0.1-0.6,0-0.8C260.1,38.4,260.4,37.8,260.6,37.1L260.6,37.1L260.6,37.1z M239,39.2c-0.4,1.4-0.8,2.8-1.2,4.3
				c0.2,0.1,0.4,0.1,0.7,0.2c3.5,0,7.1,0,10.6-0.1c0.2,0,0.5-0.1,0.5-0.3c0.3-1.1,0.6-2.3,1-3.5h-7.5c0.4-1.5,0.7-2.9,1-3.9
				l-0.6-0.6c0.5-0.5,0.9-0.8,1.1-1.2c0.3-0.6,0.5-1.2,0.5-1.8c0-0.6,0.2-0.6,0.7-0.6c1.6,0,3.2,0,4.7,0c0.3,0,0.8-0.1,0.8-0.3
				c0.4-1.2,0.6-2.3,1-3.6h-6c0.6-2.4,1.2-4.6,1.8-6.8c0.2-0.7,0.5-0.9,1.1-0.9c2.2,0,4.4,0,6.6,0c0.3-1,0.5-1.9,0.7-2.8
				c0.3-1,0.1-1.2-0.9-1.2c-1.6,0-3.1,0.2-4.7,0.2c-1.8,0-3.7-0.1-5.5-0.1c-0.2,0-0.6,0.4-0.7,0.7c-0.4,1.4-0.8,2.9-1.2,4.4
				c-0.1,0.6-0.1,1.2-0.1,1.7c-0.2,0.3-0.5,0.5-0.6,0.8c-0.5,1.6-0.9,3.2-1.3,4.9c-0.1,0.4,0,0.8,0.2,1.1c0.4,0.9,0.9,1.7,1.4,2.5
				l-0.4,0.3l-1.3-2.3l-0.4,0.2c-0.2,0.6-0.3,1.2-0.4,1.8c-0.1,0.4-0.1,0.9,0.2,1.1c0.5,0.4,1.1,0.7,1.7,0.1
				c0.5-0.6,0.8-0.3,1.1,0.4c-1,0-0.6,1.7-1.8,1.4c0.1-1.1-0.3-1.4-1.7-1.2c-0.3,1.6-0.7,3.3-1,5C239.1,39.2,239.1,39.2,239,39.2z
				 M214,16.2c-3.8,0-7.4,0.1-11,0c-0.8,0-1.1,0.3-1.3,1c-1.6,6.3-3.3,12.6-5,19c-0.5,2-1.1,4.1-1.6,6.1c-0.3,1.2,0,1.4,1.2,1.4
				c0.7,0,1.3,0,2,0c2.5,0,5.1,0,7.6-0.1c0.3,0,0.7-0.2,0.8-0.4c0.3-1,0.6-2.1,0.9-3.4c-1.5,0-2.8,0-4.2,0c-0.9,0-1.8,0.1-2.8,0.1
				c-0.2,0-0.6-0.5-0.5-0.6c0.5-1.9,1-3.7,1.6-5.6s0.5-1.9,2.4-2c1.1-0.1,2.2,0,3.3-0.1c0.3,0,0.8-0.2,0.8-0.4
				c0.4-1.1,0.6-2.3,1-3.5h-6c0.6-2.3,1.2-4.6,1.8-6.8c0.2-0.7,0.5-0.9,1.2-0.9c2,0,4,0,5.9,0c0.2,0,0.3-0.1,0.5-0.2
				c0.1-0.1,0.3-0.2,0.3-0.4C213.4,18.5,213.6,17.4,214,16.2z M220.5,22c-1.3-0.1-1.7,0.2-2.1,1.5c-1.1,4.3-2.3,8.5-3.4,12.8
				c-0.3,1-0.5,2-0.7,3.1c1.3,0.3,1.7-0.4,2-1.3c0.5-1.7,0.9-3.4,1.4-5.2l5.8-0.1l1.4-5.2h-5.8C219.6,25.6,220.1,23.8,220.5,22
				L220.5,22z M201,39.2h6.1c0.5-1.8,0.9-3.5,1.4-5.3h-6C202,35.6,201.5,37.3,201,39.2L201,39.2z M205.5,22.2
				c-0.4,1.7-0.9,3.3-1.3,4.9h6.1c0.4-1.6,0.9-3.2,1.3-4.9H205.5z M239.1,30.5l-1.2,0.7l0.7,1.3C238.8,31.7,238.9,31,239.1,30.5
				L239.1,30.5z"/>
			<path class="st2" d="M75.5,21.6c0.4-1.3,0.8-2.6,1.2-3.9c0.2-0.7,0.4-1.4,0.6-2.1h21.6c-1,4-2.1,7.8-3.1,11.8h2.1l3.1-11.8h21.3
				c-0.5,2.1-1,4.1-1.6,6.1c-0.1,0.2-0.5,0.5-0.8,0.5c-2,0-4,0-6,0c-0.6,0-0.9,0.1-1,0.7c-0.3,1.4-0.7,2.7-1.1,4.2h6
				c-0.6,2.3-1.2,4.4-1.7,6.6c-1.8,0-3.6,0-5.3,0c-0.3,0-0.7,0.2-0.8,0.4c-0.5,1.6-0.9,3.2-1.3,4.9h7.5c-0.6,2.3-1.2,4.4-1.8,6.6
				H93.1c1-4,2.1-7.8,3.1-11.8h-2.1c-1.1,4-2.1,7.8-3.1,11.8h-7.2c2.1-7.9,4.1-15.7,6.2-23.6c-0.8,0-1.5,0-2.3,0
				c-0.2,0-0.5,0.4-0.5,0.6c-1,3.6-1.9,7.2-2.9,10.9c-1,3.8-2,7.6-3,11.4c-0.1,0.5-0.4,0.7-1,0.7c-2.1,0-4.3,0-6.4,0l0.1-0.8
				c0.2-0.3,0.3-0.7,0.4-1c1.4-5.2,2.7-10.3,4.1-15.5c0.5-2.1,1.1-4.1,1.6-6L75.5,22L75.5,21.6z M95.5,31.8l3.2,0.5
				c-0.3,1.6-0.7,3.3-1,5l-0.3,0.5l0.2,0.1l0.2-0.6c0.6,0.3,1.2,0.6,1.5,1.6l-0.8-0.5l-0.8,1l-0.2-1.1L97,38.4
				c0.1,0.7,0.2,1.4,0.2,2.1c-1.4,0.7-0.9,2.2-1.4,3.3c0.9,0,1.7,0,2.5,0c1.7,0,1.7,0.1,2.2-1.6c0.4-1.4,0.7-2.9,1.1-4.3
				c0.4-1.4,0.8-2.8,1.2-4.2c0.4-1.3,0.5-2.7,1-4c0.5-1.4,0.7-2.9,1.1-4.3c0.7-2.8,1.5-5.5,2.3-8.3c0.2-0.6,0-0.9-0.7-0.8
				c-0.7,0-1.4,0-2.1,0c-1.5,0-1.5,0-1.9,1.5c-0.8,3.2-1.7,6.4-2.6,9.6c-0.1,0.3-0.4,0.7-0.6,0.7c-1.5,0.1-2.9,0-4.5,0
				c1-3.9,2-7.7,3.1-11.8c-1.5,0-2.8,0-4.1,0c-0.2,0-0.4,0.3-0.4,0.5c-0.8,3-1.6,6-2.4,9.1l0.4,0.1c-0.3,0.5-0.7,1-0.8,1.5
				c-1.2,4.4-2.3,8.9-3.5,13.4c-0.2,0.9-0.4,1.8-0.7,2.9c1.2,0,2.3,0,3.3,0c0.7,0,0.9-0.2,1.1-0.9c0.9-3.4,1.8-6.8,2.7-10.2
				c0.1-0.6,0.4-0.7,1-0.7C94.9,32.1,95.2,31.9,95.5,31.8L95.5,31.8z M107.7,39.9c0.7-2.7,1.4-5.3,2.2-7.8c0-0.2,0.4-0.3,0.6-0.3
				c1.3,0,2.7-0.1,4,0c1.1,0.1,1.6-0.2,1.7-1.3c0.1-0.8,0.3-1.6,0.4-2.4h-0.2c-0.3,0.3-0.6,0.6-1,1c0-0.5,0-0.8,0-1.2h-4.7
				c0.2-0.3,0.3-0.6,0.4-0.9c0.6-2,1.1-4,1.6-6.1c0.2-0.6,0.4-0.8,1-0.8c1.9,0,3.8,0,5.7,0c0.3,0,0.9-0.1,1-0.2
				c0.4-1.2,0.7-2.4,1-3.7l-11.9,0.1c-2.4,9.1-4.8,18.1-7.2,27.2c0.2,0.1,0.5,0.1,0.7,0.1c3.5,0,7.1,0.1,10.6,0.1
				c0.2,0,0.5-0.3,0.6-0.5c0.1-0.4,0.2-0.8,0.3-1.2c-0.2-0.3-0.5-0.6-0.6-0.8c0-0.1,0.3-0.4,0.5-0.5c0.1,0,0.3,0.2,0.4,0.3
				c0.1-0.2,0.1-0.6,0.3-1.1H107.7z M76.7,43.8c1.2,0,2.1,0,3.1,0.1c0.8,0,1.3-0.3,1.4-1.1c0.1-0.6,0.2-1.2,0.4-1.8
				c1.6-6,3.3-12,4.9-18c0.7-2.7,0.7-2.7,3.5-2.6c1.6,0,1.6,0,2-1.5c0.2-0.5,0.3-1.1,0.5-1.6c0.2-0.6,0-0.8-0.6-0.8
				c-1.7,0-3.3,0.1-5,0c-1.5-0.1-3.1,0-4.6,0c-3.2,0-3.1-0.1-3.8,3.1c-0.2,0.8,0,0.9,0.7,0.9c1.2,0,2.3,0,3.6,0
				c-0.9,4-2.1,7.8-3.1,11.6C78.6,35.8,77.7,39.7,76.7,43.8L76.7,43.8z"/>
			<path class="st3" d="M132.9,55.6c1.3-0.3,2.1-1.2,2.9-2.1c1.2-1.5,2.5-2.9,3.8-4.3c0.4-0.4,1-0.6,1.5-0.9l0.2,0.3l-5.8,6.5
				L138,55c0,0.1,0,0.3,0.1,0.4l-1.4,0.5l0.2,0.1c-0.4,0.7-0.7,1.5-1.2,2.1c-1.6,1.9-3.6,3.3-5.7,4.5h-0.6c-0.5-0.5-0.3-1,0-1.5
				c1.1-1.4,2.1-2.8,3.2-4.3l-0.3-0.9c-0.6,0.5-1.3,1.1-2,1.6c-0.5,0.4-1.1,0.7-1.7,0.9c-0.4,0.1-1,0.1-1.3-0.2
				c-0.2-0.2-0.2-0.9-0.1-1.3c0.9-1.9,2.4-3.2,4.3-3.9c0.5-0.2,1.1,0.1,1.7,0.3c0.1,0,0.2,0.6,0.2,0.8c-0.1,0.4-0.5,0.8-0.7,1.2
				c0,0.1-0.1,0.2-0.1,0.2L132.9,55.6z M130.4,61.2l0.2,0.2c1.8-1.1,3.4-2.3,4.6-4.1c0.1-0.2,0-0.6,0-0.9c-0.4,0.1-0.8,0-1,0.3
				c-0.9,0.9-1.7,1.9-2.5,2.9C131.2,60,130.8,60.6,130.4,61.2L130.4,61.2z M128.2,57.5c1.7-0.4,2.8-1.6,3.8-2.9
				c0.1-0.1,0-0.4-0.1-0.5c-0.1,0-0.1-0.1-0.2-0.1c-0.1,0-0.1,0-0.2,0C130,54.7,128.8,55.8,128.2,57.5L128.2,57.5z"/>
			<path class="st2" d="M162.9,32.2c0.3,1,0.8,2,0.8,3.1c0,3.4-1.1,6.5-3.8,8.8s-5.8,2.7-9.1,1.7c-0.9-0.3-1.6-0.9-2.5-1.4
				c-0.1,0.4-0.1,0.9-0.2,1.6h-7l0.3-5c-0.8,0-1.6,0-2.4,0c-0.3,0-0.6,0.4-0.7,0.6c-0.5,1.2-1.1,2.4-1.5,3.6c-0.2,0.5-0.4,0.7-1,0.7
				c-4.4,0-8.7,0-13.1,0c-1.3,0-2.7,0-4.2,0c2.7-10.1,5.3-20.2,8-30.3h7.2c-2.1,7.9-4.1,15.7-6.2,23.6h4.9c1.5-3.5,3-7,4.5-10.5
				c1.8-4.1,3.5-8.3,5.3-12.4c0.1-0.3,0.5-0.7,0.7-0.7c2.8,0,5.5,0,8.4,0c-0.7,6.4-1.3,12.7-2,19.2h6.1c-0.4,1.6-0.8,3-1.1,4.5
				c0.9,0.2,1.5-0.1,1.8-0.8c0.5-1.1,0.7-2.3-0.1-3.4c-0.6-0.9-1.3-1.8-2-2.7c-3.9-4.5-3.2-9.5-0.2-13.7c2.3-3.2,7.1-4.5,10.7-3
				c0.5,0.2,0.9,0.7,1.4,1c-1-0.3-1.9-1.3-2.9-0.5c-1.4-0.9-2.7-0.3-3.8,0.1c-3.5,1.1-6.1,5.9-5.6,9.8c0.3,2.2,2.4,5.4,3.4,5.4
				c0.2,0.5,0.4,0.9,0.6,1.3c1.8,2.6,1.4,5.1-1.1,7c-0.2,0.2-0.3,0.5-0.5,0.7c-0.2-0.2-0.5-0.5-0.7-0.5c-1.4,0-1.8-1.2-1.5-2.4
				c0.2-0.7,0.4-1.4,0.6-2.2c-1.3,0-2.4-0.1-3.6,0c-0.2,0-0.6,0.4-0.6,0.7c-0.2,1.1-0.2,2.2-0.4,3.3c-0.4,1.8,0.5,3.5,2.2,4.1
				c2.4,0.8,4.7,0.5,6.9-0.6l-0.6-1.3l0.3-0.2l0.9,1.1c0.1,0,0.2-0.1,0.3-0.2c2.7-2.4,3.8-5.5,3.5-9C163,33,162.9,32.6,162.9,32.2z
				 M126.6,40.4c-0.6-1,0.4-1.9,0.6-3s0.6-2.1,0.9-3.2c0.3-1.1,0.6-2.1,0.9-3.1c0.3-1,0.3-2,0.7-2.9c0.4-1,0.6-2.1,0.9-3.3l-0.8-0.2
				v-0.1l0.9,0.1c0.6-2.5,1.3-4.9,1.9-7.3c0.1-0.3-0.1-0.7-0.2-1l-1,0.3c-0.9-0.6-1.9-0.2-2.8-0.3c-0.1,0.4-0.3,0.6-0.3,0.9
				c-1.1,4-2.2,8.1-3.2,12.1c-0.1,0.2,0.2,0.6,0.2,0.7c-0.3,0.4-0.6,0.8-0.7,1.3c-0.2,0.7-0.4,1.5-0.6,2.3c-0.1,0.2-0.1,0.6,0,0.7
				c0.5,0.5,0.3,0.7-0.3,0.9c-0.1,0-0.1,0.1-0.2,0.2c0,0.1-0.1,0.1-0.1,0.2c-0.7,2.7-1.4,5.4-2.1,8.2H133l-0.1-1.2l0.8-0.2
				c-0.2,0.5-0.3,0.9-0.5,1.4c0.8,0,1.5-0.1,2.2,0c0.8,0.1,1.1-0.3,1.4-0.9c0.4-1.1,0.9-2.3,1.4-3.4c0.1-0.2,0.3-0.6,0.5-0.6
				c1.7-0.1,3.4-0.1,5.1-0.1l-0.3,4.9c1.1,0,2.2,0,3.3,0.1c0.6,0,0.9-0.2,0.9-0.8c0.4-4.4,0.9-8.8,1.4-13.2c0.3-2.3,0.6-4.6,0.8-7
				c0.2-2.1,0.3-4.3,0.4-6.5c-1.8,0-3.7,0-5.6,0.1c-0.3,0-0.8,0.4-1,0.8c-0.9,2.1-1.8,4.3-2.7,6.5c-1,2.3-2,4.5-3,6.8
				c-0.9,2.2-1.7,4.4-2.7,6.5c-0.4,0.8-0.7,1.6-1,2.5c-0.2,0.5-0.5,0.7-1,0.7c-1.7,0-3.4,0-5,0C127.8,40,127.2,40.2,126.6,40.4
				L126.6,40.4z"/>
			<path class="st3" d="M227,18.9c-0.1,0.7-0.1,1.3-0.2,2c-0.2,1.3-0.4,2.7-0.8,4c-0.1,0.3-0.5,0.6-0.9,0.7c-0.9,0.1-1.8,0-2.7,0
				c-0.6,0-0.7-0.3-0.6-0.8c0.2-0.9,0.5-1.8,0.7-2.7c0.2-0.8,0.2-1.6-0.6-2c-0.8-0.3-1.7-0.6-2.5,0.1c-0.5,0.4-1,0.8-1.5,1.3
				c-0.1,0.1-0.2,0.2-0.2,0.3c0,3-1.3,5.7-2,8.6c-0.6,2.5-1.3,4.9-1.9,7.3c-0.2,0.9-0.3,1.9,0.9,2.3c1,0.4,2.5,0,3.1-1
				c0.5-1,0.9-2,1.1-3c0.7-2.5,0.6-2.6,3.2-2.5c0.4,0,0.8,0.1,1.2,0.1c0.3,4.4-3,9.4-7,10.2c-1.4,0.2-2.8,0.2-4.2-0.1
				c-2-0.4-3-1.9-2.8-3.9c0.2-1.8,0.6-3.6,1.1-5.4c1-4,2.1-7.9,3.1-11.8c1.3-5.1,6-7.8,11.1-6.1c0.1,0,0.3,0,0.4,0
				c0.5,0.3,0.9,0.6,1.2,1C226.6,17.9,226.9,18.4,227,18.9L227,18.9z"/>
			<path class="st3" d="M162.9,32.2c0.1,0.4,0.2,0.8,0.2,1.3c0.4,3.6-0.8,6.6-3.5,9c-0.1,0.1-0.2,0.1-0.3,0.2l-0.9-1.1l-0.3,0.2
				l0.6,1.3c-2.2,1.1-4.5,1.4-6.9,0.6c-1.8-0.6-2.6-2.3-2.2-4.1c0.2-1.1,0.2-2.2,0.4-3.3c0-0.3,0.4-0.7,0.6-0.7c1.2-0.1,2.3,0,3.6,0
				c-0.2,0.8-0.4,1.5-0.6,2.2c-0.3,1.3,0.1,2.4,1.5,2.4c0.2,0,0.4,0.3,0.7,0.5c0.1-0.2,0.3-0.5,0.5-0.7c2.5-2,2.9-4.4,1.1-7
				c-0.3-0.4-0.4-0.8-0.7-1.3c-1,0-3.1-3.2-3.4-5.4c-0.6-3.9,2.1-8.7,5.6-9.8c1.2-0.4,2.4-1,3.8-0.1c1-0.8,1.9,0.2,2.9,0.5l0,0
				l0.4,0.3l0,0c0.8,1.5,1.2,3.1,0.7,4.8l-2.1-3.2l-0.3,0.2c0.7,1.1,1.3,2.1,2,3.2c0.4,0.5,0.1,1.8-0.5,1.8c-1.2,0-2.4-0.1-3.6-0.2
				c0.1-0.7,0.2-1.3,0.3-1.9c0.2-1.2-0.4-1.9-1.6-1.7c-0.6,0-1.2,0.3-1.7,0.6c-1.4,1.1-1.8,4-0.7,5.6c1,1.3,2,2.6,3,4
				C162.1,30.7,162.5,31.5,162.9,32.2z"/>
			<path class="st3" d="M198.8,18c0.4,1.6,0.4,3.3,0,5c-0.2,0.6-0.4,0.8-1.1,0.8c-1-0.1-2.1,0-3.3,0c0.1-0.6,0.2-1,0.3-1.5
				c0.4-1.8-0.4-2.6-2.3-2.3c-2.1,0.4-3.1,4.7-1.7,5.8l0,0c0.1,0.1,0.1,0.3,0.2,0.4c0.7,0.9,1.4,1.9,2.1,2.8
				c0.9,1.2,1.8,2.3,2.2,3.8c0.4,2,0,3.8-0.7,5.7c-0.7,2-0.9,2.1-2.9,1.4c-0.4-0.1-0.8-0.3-1.2-0.4l-0.1,0.4l3,0.9
				c-1.8,2.5-4.2,3.3-6.9,3.3l-0.6-1.1c-1.6,1.1-3.2,0.5-3.9-1.4c-0.6-1.8-0.3-3.6,0.4-5.4c0.1-0.2,0.2-0.3,0.3-0.4
				c0.1-0.1,0.3-0.2,0.5-0.2c1.1-0.1,2.2,0,3.3,0c-0.2,0.7-0.2,1.3-0.5,1.8c-0.4,0.8-0.3,1.6,0.1,2.3c0.5,0.7,1.3,0.7,2.1,0.5
				c1.7-0.3,3-2.6,2.5-4.6c-0.3-1.1-1-2.1-1.6-3.1c-0.5-0.7-1.1-1.4-1.7-2.1c-2.1-2.6-2.3-5.5-1.2-8.5c1.5-4.2,5-6.4,9.3-5.7
				c0.8,0.1,1.5,0.5,2.2,0.7l0,0l0.6,0.6C198.4,17.5,198.6,17.8,198.8,18z M187.3,43.4c-0.2-0.1-0.3-0.2-0.3-0.1
				c-0.1,0-0.1,0.1-0.2,0.1c0,0.1,0.1,0.2,0.1,0.2C186.9,43.5,187,43.5,187.3,43.4L187.3,43.4z"/>
			<path class="st2" d="M158.7,26.1c-1.1-1.6-0.8-4.4,0.7-5.6c0.5-0.4,1.1-0.6,1.7-0.6c1.2-0.1,1.8,0.6,1.6,1.7
				c-0.1,0.6-0.2,1.3-0.3,1.9c1.2,0.1,2.4,0.2,3.6,0.2c0.6,0,0.8-1.2,0.5-1.8c-0.7-1-1.3-2.1-2-3.2l0.3-0.2l2.1,3.2
				c0.4-1.8,0.1-3.3-0.7-4.8c0.1-0.1,0.3-0.1,0.3-0.2c0.1-1.4,1-1.4,2.1-1.4c4.7,0,9.4,0,14.1,0c0.2,0,0.3,0,0.6,0
				c-0.5,2.1-1.1,4.1-1.6,6.2c-0.1,0.2-0.5,0.5-0.8,0.5c-1.3,0-2.6,0-3.9,0c-2.1,7.9-4.2,15.7-6.3,23.6h-7.2
				c2.1-7.9,4.1-15.7,6.2-23.6h-2.1c-0.3,1-0.5,2-0.8,3c-0.1,0.2-0.4,0.5-0.6,0.6c-2.1,0-4.2,0-6.4,0c0.3-1.3,0.6-2.5,0.9-3.7
				c-0.9-0.3-1.3,0.2-1.7,0.8C158.3,23.9,158.5,25,158.7,26.1z M180,16.7c-0.2-0.1-0.6-0.5-1-0.5c-3.3,0-6.5,0-9.8,0
				c-0.2,0-0.6,0.1-0.6,0.3c-0.4,1.2-0.6,2.4-1,3.8l2-0.6c0.5,1,1.7,0,2.5,0.6c-2,7.7-4,15.4-6.1,23.3c1.4,0,2.6,0,3.9,0
				c0.2,0,0.4-0.4,0.5-0.6c2-7.4,4-14.8,6-22.2c0.1-0.5,0.4-0.6,0.8-0.7c0.5-0.1,1.2-0.6,1.2-1c0-1,0.8-0.6,1.2-0.9
				c0.2,0.3,0.8,0.4,0.5,1c-0.1,0.2,0.1,0.5,0.2,0.9c0.3-0.2,0.8-0.2,0.8-0.4c0.4-1.2,0.6-2.4,1-3.6c-0.5,0-0.9-0.1-1.2-0.1
				C180.6,16.3,180.3,16.5,180,16.7z"/>
			<path class="st3" d="M208.5,54.6c-1.3,1.1-2.6,2.2-3.9,3.3c-1.1,0.9-2.8,0.9-3.6-0.1c-1.4,0.6-2.8,1.5-4.3,0.2
				c-0.4,0.2-0.8,0.5-1.2,0.5c-0.4,0.1-1,0-1.3-0.2c-0.2-0.3-0.2-0.9,0-1.2c0.7-1.1,1.4-2.1,2.2-3.1c0.4-0.5,0.8-1,1.4-1.6l-1.6-0.1
				c0.4-0.9,1.1-1.1,1.8-1.1c0.3,0,0.7,0,1-0.2c0.3-0.1,0.6-0.4,0.8-0.6c0.3-0.4,0.7-0.9,1.5-0.5l-0.8,1l1.2,0.5v0.4
				c-0.6,0.1-1.2,0.2-1.8,0.3c-0.3,0.1-0.8,0.1-1,0.4c-1.1,1.3-2.2,2.7-3.3,4c-0.2,0.2-0.3,0.6-0.4,0.8l0.2,0.3l2.8-1.6
				c0-2,3-3.8,4.8-2.8c-0.5,0.5-0.7,1.5-1.9,0.9c-0.4-0.2-1.1,0.5-1.7,0.8c0.2,0.2,0.2,0.2,0.2,0.2c0.4,0.1,0.8,0.1,1.1,0.1
				c-0.3,0.3-0.6,0.5-0.9,0.7c-0.6,0.4-1.3,0.7-1.9,1.1l0.1,0.4c0.4,0,0.9,0.1,1.3,0c1.5-0.6,2.9-1.3,3.7-2.8
				c0.4-0.7,0.6-1.3,1.3-1.6c0.3-0.1,0.7-0.1,1-0.2c-0.1,0.3-0.1,0.7-0.3,0.9c-0.7,0.9-1.4,1.7-2.1,2.6c-0.2,0.3-0.4,0.6-0.7,1
				c1.1,0.1,1.7-0.5,2.3-1.1c0.9-0.9,1.7-2,2.5-2.9c0.3-0.4,0.8-0.6,1.5-1c-0.1,0.6-0.1,0.8-0.2,1.1c0.6-0.3,1.1-0.5,1.6-0.7
				c0.3-0.1,0.6,0.1,0.9,0.1c-0.1,0.3-0.1,0.6-0.2,0.9c-0.7,0.8-1.4,1.6-2.1,2.4c-0.3,0.4-0.6,0.8-0.8,1.2c1.3,0.2,1.9-0.9,3-1.3
				c-0.3,0.5-0.3,1-0.6,1.2c-0.6,0.5-1.2,0.9-1.9,1.1c-0.2,0.1-0.4,0.1-0.6,0c-0.2,0-0.4-0.1-0.6-0.3c-0.2-0.2-0.2-0.8,0-1.1
				c0.5-0.8,1.1-1.5,1.6-2.2l0.2-0.2c0-0.1,0.1-0.1,0.1-0.2h-0.2L208.5,54.6z"/>
			<path class="st3" d="M187.8,54.6c-1.3,1-2.6,2-3.8,3.2c-0.8,0.8-1.8,0.8-2.8,0.8c-0.7,0.1-1.1-0.7-0.7-1.4
				c0.3-0.5,0.6-0.8,0.9-1.3c0.4-0.6,0.7-1.4,1.2-1.9c0.4-0.5,1-0.8,1.6-1.1c0.1,0,0.2,0,0.3,0s0.2,0.1,0.2,0.2c0,0.2,0,0.4-0.1,0.6
				c-0.8,1-1.6,1.9-2.3,2.8c-0.2,0.3-0.4,0.6-0.7,0.9c1.1,0.2,1.7-0.5,2.2-1.1c0.9-0.9,1.7-2,2.5-2.9c0.3-0.3,0.7-0.4,1.1-0.6
				l0.2,0.5l-0.1,0.2l0.2-0.1c0.4-0.2,0.9-0.4,1.3-0.6c0.3-0.1,0.6,0.1,0.9,0.1c-0.1,0.3,0,0.7-0.2,0.9c-0.7,0.9-1.5,1.7-2.2,2.5
				c-0.2,0.3-0.4,0.6-0.6,0.9c0.1,0.1,0.2,0.2,0.3,0.3l2.5-1.5c0,0.4,0.1,0.7,0.1,1.3l2.4-0.6c0-0.1,0-0.2,0-0.3
				c-0.5-0.2-1.1-0.3-1.7-0.5c-0.8-0.2-0.8-0.7-0.5-1.4c0.7-1.1,3.7-2.4,4.9-2.1c0.2,0.1,0.5,0.5,0.5,0.7c-0.2,0.8-1.2,1.1-1.8,0.6
				l0.1-0.1h-0.2l-2.6,1l0.1,0.3c0.5,0.1,1.1,0.3,1.6,0.4c1,0.4,1.2,1.1,0.4,1.8c-0.4,0.4-1,0.7-1.5,1c-0.6,0.2-1.2,0.3-1.8,0.3
				c-0.4,0-0.8-0.3-1.3-0.5c-0.3,0.1-0.7,0.4-1.2,0.5c-0.2,0-0.4,0-0.6-0.1c-0.2-0.1-0.3-0.2-0.5-0.3c-0.2-0.2-0.2-0.7,0-1
				C186.6,56.1,187.3,55.3,187.8,54.6l0.3-0.3l0.2-0.2l0.1-0.1l-0.2,0.1l-0.3,0.1L187.8,54.6z"/>
			<path class="st3" d="M156.5,53l1.7,0.4c-0.2,0.6-0.3,1.3-0.6,1.8c-1,1.4-2.4,2.6-4,3.2c-0.9,0.4-1,0.3-1.6-0.3
				c-0.7,0.2-1.4,0.4-2.1,0.5c-0.7,0.1-1.1-0.4-1-1.1c0.1-0.5,0.2-0.9,0.4-1.3c1.4-2.9,3.5-5.4,6.1-7.3c0.5-0.3,1.5-0.6,1.7-0.4
				c0.6,0.6-0.1,1.2-0.5,1.7c-1.9,1.9-3.8,3.8-5.7,5.7c-0.4,0.4-1.1,0.9-0.6,1.5c0.1,0.2,1-0.1,1.5-0.3c0.3-0.1,0.6-0.5,0.8-0.8
				c2-2.4,4-4.9,6.1-7.3c0.3-0.4,0.9-0.6,1.4-0.9l0.2,0.3l-3.8,4.4c0,0.1-0.1,0.1-0.1,0.2L156.5,53z M155.7,49.5l-4.2,4.4l-0.2,0.2
				l0.4-0.1l4.2-4.4l0.1-0.2L155.7,49.5z M153.1,57.5c1.4,0,3.9-2.2,3.8-3.4c-0.9,0.1-1.7,0.5-2.4,1.1
				C153.7,55.8,153.3,56.6,153.1,57.5L153.1,57.5z"/>
			<path class="st3" d="M176.9,53.2c-1-0.6-1.1-1.4-0.2-2.3c0.8-0.8,1.8-1.4,2.9-1.8c1.1-0.4,2.3-0.5,3.4-0.5c0.3,0,0.6,0.4,0.9,0.6
				c-0.2,0.3-0.4,0.6-0.7,0.7c-0.6,0.2-1.3,0.7-1.9-0.1c-0.1-0.1-0.3-0.1-0.4-0.1c-1.4,0.3-2.6,0.8-3.6,1.9c1.3,1,2.7-0.3,3.9,0.3
				c-0.2,0.9-0.8,1.1-1.5,1.2c-2,0.3-3.5,1.4-4.7,2.8c-0.2,0.3-0.2,0.7-0.3,1.1c0.3,0.1,0.7,0.3,1,0.2c2-0.5,3.8-1.4,5.1-3
				c0.2-0.2,0.5-0.2,0.7-0.4c0,0.3,0.1,0.6,0.1,0.9c-0.1,0.3-0.3,0.5-0.5,0.7c-1.5,1.4-3.2,2.4-5.2,2.8c-0.9,0.2-1.9,0.2-2.4-0.7
				s0-1.8,0.7-2.4C175.1,54.7,176,54,176.9,53.2z"/>
			<path class="st3" d="M144.3,58.8c0.8-1.1,1.6-2.2,2.5-3.4c-1.6-0.1-3.1-0.3-4.1,1.2c-0.5,0.6-1,1.2-1.6,1.7
				c-0.2,0.2-0.5,0.2-0.8,0.3c0-0.3-0.1-0.7,0.1-0.9c0.7-0.8,1.4-1.6,2.1-2.4h-1.3c0.2-0.8,0.8-1,1.5-1c0.8,0,1.4-0.3,2-0.8
				c1.8-1.4,3.6-2.7,5.5-4c0.5-0.4,1.2-0.6,1.9-0.8c0.1,0,0.4,0.4,0.6,0.6c0,0.1-0.2,0.3-0.2,0.4c-1.9,2.7-3.9,5.3-5.8,8
				C146,58.4,145.4,58.9,144.3,58.8z M150.4,50.3l-5,3.6c0.1,0.1,0.1,0.3,0.2,0.4c0.8-0.1,1.8,0,2.3-0.5c1-1,1.7-2.3,2.6-3.5
				l0.1-0.2L150.4,50.3z"/>
			<path class="st3" d="M165.8,53.7c0.6-0.3,1.1-0.5,1.7-0.7c0.1,0,0.2,0,0.4,0c0.1,0,0.2,0.1,0.3,0.2c0.1,0.1,0,0.5-0.1,0.6
				c-0.6,0.7-1.2,1.3-1.8,2l-0.3-0.2c0-0.3,0-0.6-0.1-1.2c-1.4,1.2-2.7,2.3-4,3.5c-0.4,0.3-0.7,0.7-1.3,0.4
				c-0.2-0.1-0.5,0.1-0.7,0.1c-0.6,0.1-1.2,0.3-1.7,0.3c-0.4-0.1-1.1-0.4-1.2-0.7c-0.1-0.3,0.3-1,0.6-1.3c0.4-0.4,0.9-0.6,0.8-1.3
				c0-0.1,0.1-0.3,0.1-0.4c0.1-0.1,0.2-0.2,0.3-0.3c1.1-0.5,2.1-1,3.3-1.5c0.2-0.1,0.5,0.1,0.8,0.2c-0.1,0.3-0.2,0.6-0.4,0.8
				c-0.4,0.3-0.7,0.7-1.3,0.2c-0.2-0.2-1.1,0.5-1.7,1c0.1,0,0.2,0,0.3,0h1c-0.3,0.3-0.5,0.6-0.8,0.8c-0.6,0.4-1.3,0.8-2,1.1
				c0,0.2,0.1,0.3,0.1,0.5c0.5,0,1.1,0.1,1.5-0.1c1.1-0.6,2.1-1.3,3.1-2.1c0.7-0.5,1.1-1.3,1.7-1.9c0.3-0.3,0.8-0.5,1.4-0.8
				c-0.1,0.5-0.1,0.7-0.2,0.9l-0.3,0.3l0.1,0.1C165.6,53.9,165.7,53.8,165.8,53.7z"/>
			<path class="st3" d="M167.8,57.7c0.4-0.2,0.8-0.4,1.2-0.6c0.4-0.2,0.8-0.5,1.3-0.6c-0.2,0.3-0.2,0.7-0.5,0.9
				c-0.6,0.5-1.2,0.9-1.9,1.2c-0.4,0.1-1,0.1-1.2-0.1c-0.2-0.2-0.3-0.9-0.1-1.2c0.4-0.8,1-1.6,1.5-2.3c0.6-0.8,1.3-1.6,2.1-2.5h-1.5
				l-0.1-0.4c0.5-0.3,1.1-0.7,1.6-0.7c0.4,0,0.8-0.1,1.1-0.2c0.4-0.2,0.7-0.4,0.9-0.7c0.3-0.3,0.8-0.4,1.2-0.7
				c0.1,0.1,0.2,0.2,0.2,0.3l-0.8,1l1.2,0.6l-0.1,0.3c-0.3,0.1-0.7,0.3-1,0.3c-1.1-0.1-1.8,0.4-2.4,1.2c-0.8,1-1.6,2-2.4,3
				c-0.2,0.3-0.4,0.7-0.6,1.1L167.8,57.7z"/>
			<path class="st3" d="M207.8,51l-1.7,1.4c-0.1-1.3,0.5-1.8,1.5-1.7L207.8,51z"/>
			<path class="st3" d="M186.9,50.8c-0.3,0.8-0.8,1.3-1.7,1.3C185.4,51,185.9,50.6,186.9,50.8z"/>
			<path class="st2" d="M198.2,17.3l-0.6-0.6L198.2,17.3z"/>
			<path class="st2" d="M240.7,17c0.1,0.1,0.2,0.2,0.3,0.3l0,0L240.7,17C240.6,17.1,240.6,17,240.7,17L240.7,17z"/>
			<path class="st2" d="M166.1,17.1l-0.4-0.3L166.1,17.1z"/>
			<path class="st2" d="M241,17.3c0.1,0.1,0.1,0.1,0.2,0.2l0,0L241,17.3L241,17.3z"/>
			<path class="st3" d="M240.9,17.3l0.2,0.2c0.1,0.6,0.2,1.3,0.3,2c0.1,0.1,0.3,0.4,0.3,0.6c-0.2,1.1-0.3,2.2-0.6,3.3
				c-0.5,1.6-1,3.2-1.9,4.6c-0.6,1-1.7,1.6-2.6,2.4c1.7,1,1.7,2.8,1.3,4.6c-0.1,0.7-0.3,1.4-0.5,2c-0.2,0.4-0.5,0.7-0.8,1.1
				c0.1,0.2,0.3,0.6,0.2,1c-0.2,1.2-0.5,2.3-0.8,3.5c-0.1,0.2-0.3,0.3-0.5,0.6l0.4,0.5c-1.1,0-2.2,0-3.2,0c-0.9,0-1.1-0.4-0.9-1.1
				c0.4-1.7,0.8-3.4,1.2-5.1c0.2-0.8,0.4-1.6,0.6-2.4c0.3-1.6-0.4-2.4-2-2.5c-0.3,0-0.6,0-0.9,0c-0.5-0.1-0.8,0.1-1,0.7
				c-0.8,3.2-1.8,6.4-2.6,9.6c-0.2,0.6-0.4,0.9-1.1,0.8c-1.1-0.1-2.1,0-3.4,0c0.9-3.2,1.5-6.4,2.6-9.3c0.1-0.6,0.1-1.2,0.2-1.8
				c0.4-1.5,0.7-3,1.2-4.5c0.3-0.8,0.4-1.7,0.6-2.5c0.2-1,0.5-1.9,0.8-2.9s0.5-1.9,0.8-2.9s0.5-1.9,0.8-2.9c0.1-0.3,0.5-0.7,0.8-0.7
				c2-0.1,4-0.1,6,0c1.3,0.1,2.6,0.6,3.9,0.9L240.9,17.3z M231.2,29c0.5-0.2,0.9-0.4,1.2-0.4c2.1,0,3.2-0.9,3.8-2.9
				c0.2-0.8,0.4-1.6,0.6-2.4c0.7-2.7,0.3-3.2-2.4-3.2c-0.6,0-1.1,0-1.2,0.9c-0.1,0.8-0.4,1.5-0.6,2.2c-0.4,1.6-0.8,3.1-1.2,4.7
				C231.2,28.2,231.2,28.6,231.2,29L231.2,29z"/>
			<path class="st3" d="M214,16.2c-0.3,1.2-0.6,2.3-0.9,3.4c-0.1,0.2-0.2,0.3-0.3,0.4s-0.3,0.2-0.5,0.2c-2,0-4,0.1-5.9,0
				c-0.7,0-1,0.2-1.2,0.9c-0.5,2.2-1.2,4.5-1.8,6.8h6c-0.3,1.3-0.6,2.4-1,3.5c-0.1,0.2-0.5,0.4-0.8,0.4c-1.1,0.1-2.2,0-3.3,0.1
				c-1.9,0.1-1.9,0.1-2.4,2c-0.5,1.8-1.1,3.7-1.6,5.6c0,0.2,0.3,0.6,0.5,0.6c0.9,0,1.8-0.1,2.8-0.1c1.3,0,2.7,0,4.2,0
				c-0.4,1.3-0.6,2.3-0.9,3.4c-0.1,0.2-0.5,0.4-0.8,0.4c-2.5,0-5.1,0-7.6,0.1c-0.7,0-1.3,0-2,0c-1.2,0.1-1.4-0.2-1.2-1.4
				c0.5-2,1-4.1,1.6-6.1c1.7-6.3,3.3-12.6,5-19c0.2-0.7,0.5-1,1.3-1C206.6,16.2,210.2,16.2,214,16.2z M197.8,34.8
				c-0.1-0.1-0.1-0.1-0.2-0.2c0,0-0.1,0-0.1,0.1c0.1,0.1,0.1,0.1,0.2,0.2C197.7,34.9,197.8,34.8,197.8,34.8L197.8,34.8z"/>
			<path class="st3" d="M239.1,39.1c0.3-1.7,0.7-3.4,1-5c1.4-0.2,1.8,0.1,1.7,1.2c1.3,0.3,0.9-1.4,1.8-1.4c-0.3-0.7-0.6-1-1.1-0.4
				c-0.6,0.6-1.2,0.3-1.7-0.1c-0.2-0.2-0.2-0.7-0.2-1.1c0.1-0.6,0.3-1.2,0.4-1.8l0.4-0.2l1.3,2.3l0.4-0.3c-0.5-0.8-1-1.6-1.4-2.5
				c-0.2-0.4-0.3-0.8-0.2-1.1c0.4-1.6,0.8-3.2,1.3-4.9c0.1-0.3,0.4-0.6,0.6-0.8c0-0.5,0-1.1,0.1-1.7c0.3-1.5,0.7-2.9,1.2-4.4
				c0.1-0.3,0.5-0.7,0.7-0.7c1.8,0,3.7,0.1,5.5,0.1c1.6,0,3.1-0.1,4.7-0.2c1,0,1.1,0.2,0.9,1.2c-0.2,0.9-0.5,1.8-0.7,2.8
				c-2.2,0-4.4,0-6.6,0c-0.7,0-1,0.2-1.1,0.9c-0.5,2.2-1.2,4.5-1.8,6.8h6c-0.3,1.3-0.6,2.4-1,3.6c-0.1,0.2-0.5,0.3-0.8,0.3
				c-1.6,0-3.2,0-4.7,0c-0.4,0-0.7,0-0.7,0.6c0,0.6-0.2,1.2-0.5,1.8c-0.2,0.4-0.6,0.7-1.1,1.2L244,36c-0.3,1-0.6,2.3-1,3.9h7.5
				c-0.3,1.3-0.6,2.4-1,3.5c0,0.1-0.3,0.3-0.5,0.3c-3.5,0-7.1,0-10.6,0.1c-0.2,0-0.5-0.1-0.7-0.2c0.4-1.5,0.8-2.9,1.2-4.3l0.1,0.1
				L239.1,39.1z"/>
			<path class="st3" d="M257.9,17.1L257,17c0.6-0.3,0.8-1,1.5-0.3c0.1,0.1,0.4,0,0.5,0c1.5-0.7,3-0.4,4.5-0.2
				c0.6,0.1,1.2-0.2,1.9-0.3L265,17c1.8-1.4,3.8-0.5,5.7-0.8c-0.3,1.3-0.6,2.4-0.9,3.5c0,0.1-0.1,0.2-0.2,0.3s-0.2,0.1-0.3,0.2
				c-1.1,0-2.1,0.1-3.2,0c-0.3,0-0.6-0.2-0.9-0.4c-0.6,2.4-1.3,4.8-1.9,7.2c-0.6,2.1-1,4.3-1.8,6.4c-0.3,0.8-0.2,1.6-0.6,2.3
				c-0.2,0.4,0,1.1-0.8,1c-0.1,0-0.1,0.3-0.2,0.5l0.6,0.1c-0.3,0.7-0.6,1.3-0.8,2c-0.1,0.2,0.1,0.6,0,0.8c-0.3,1.2-0.6,2.3-0.9,3.4
				c0,0.1-0.1,0.1-0.2,0.2c-0.1,0.1-0.2,0.1-0.3,0.1c-1.2,0-2.5,0-3.8,0c0.9-3.6,1.8-7.1,2.8-10.6c0.3-1.2,0.6-2.4,1-3.5
				c0.1-0.2,0.3-0.4,0.4-0.5c0-0.4-0.1-0.8,0-1.1c0.6-2.5,1.3-5.1,2-7.7h-4.5c0.3-1,0.2-2.1,1.4-2.6
				C257.8,17.5,257.8,17.2,257.9,17.1L257.9,17.1L257.9,17.1z"/>
			<path class="st4" d="M214.6,17.4c-0.1,0.1-0.1,0.2-0.2,0.3l-0.2-0.2l0.2-0.4L214.6,17.4z"/>
			<path class="st3" d="M260.7,37.1L260.7,37.1L260.7,37.1L260.7,37.1z"/>
			<path class="st3" d="M97.7,37.2c0.3-1.7,0.7-3.3,1-5l-3.2-0.5l0,0l0,0c-0.3,0.1-0.6,0.3-0.8,0.3c-0.6,0-0.9,0.1-1,0.7
				c-0.9,3.4-1.8,6.8-2.7,10.2c-0.2,0.7-0.4,0.9-1.1,0.9c-1-0.1-2.1,0-3.3,0c0.2-1,0.5-2,0.7-2.9c1.2-4.5,2.3-8.9,3.5-13.4
				c0.1-0.5,0.5-1,0.8-1.5l-0.5,0c0.8-3,1.6-6,2.4-9.1c0.1-0.2,0.3-0.5,0.4-0.5c1.3,0,2.6,0,4.1,0c-1.1,4-2.1,7.8-3.1,11.8
				c1.6,0,3,0,4.5,0c0.2,0,0.5-0.4,0.6-0.7c0.9-3.2,1.7-6.4,2.6-9.6c0.4-1.5,0.4-1.5,1.9-1.5c0.7,0,1.4,0,2.1,0
				c0.6,0,0.8,0.2,0.7,0.8c-0.8,2.8-1.5,5.5-2.3,8.3c-0.4,1.4-0.6,2.9-1.1,4.3c-0.5,1.3-0.6,2.7-1,4c-0.4,1.4-0.8,2.8-1.2,4.2
				c-0.4,1.4-0.8,2.9-1.1,4.3c-0.4,1.7-0.4,1.7-2.2,1.6c-0.8,0-1.6,0-2.5,0c0.5-1.2,0.1-2.6,1.4-3.3c-0.1-0.7-0.2-1.4-0.2-2.1
				l0.4-0.1l0.2,1.1l0.8-1l0.8,0.5C99,37.9,98.4,37.6,97.7,37.2L97.7,37.2z M92.2,23.9c-0.7,1.1,0,1.2,0.5,1.5l0.3-0.2
				C92.8,24.7,92.5,24.3,92.2,23.9L92.2,23.9z"/>
			<path class="st3" d="M107.7,40h7.5c-0.1,0.5-0.2,0.9-0.3,1.1c-0.1-0.1-0.3-0.3-0.4-0.3c-0.2,0.1-0.5,0.4-0.5,0.5
				c0.1,0.3,0.4,0.5,0.6,0.8c-0.1,0.4-0.2,0.8-0.3,1.2c-0.1,0.2-0.4,0.5-0.6,0.5c-3.5,0-7.1,0-10.6-0.1c-0.2,0-0.5-0.1-0.7-0.1
				c2.4-9,4.7-18.1,7.2-27.2l11.9-0.1c-0.4,1.4-0.6,2.6-1,3.7c-0.1,0.2-0.6,0.2-1,0.2c-1.9,0-3.8,0-5.7,0c-0.6,0-0.9,0.2-1,0.8
				c-0.5,2-1.1,4.1-1.6,6.1c-0.1,0.3-0.3,0.6-0.4,0.9h4.7c0,0.3,0,0.7,0,1.2c0.4-0.4,0.7-0.7,1-1h0.2c-0.1,0.8-0.3,1.6-0.4,2.4
				c-0.1,1.1-0.7,1.4-1.7,1.3c-1.3-0.1-2.7-0.1-4,0c-0.2,0-0.6,0.2-0.6,0.3C109.1,34.7,108.4,37.3,107.7,40z M109.6,29l0.1-0.3
				c-0.3-0.3-0.6-1-0.7-0.9c-0.4,0.1-0.8,0.5-1.2,0.8l0.1,0.5L109.6,29z"/>
			<path class="st3" d="M76.7,43.8c1-4,2-8,3-11.9c1-3.8,2.2-7.6,3.1-11.6c-1.2,0-2.4,0-3.6,0c-0.7,0-0.9-0.2-0.7-0.9
				c0.7-3.1,0.7-3.1,3.8-3.1c1.5,0,3.1-0.1,4.6,0c1.7,0.1,3.3,0,5,0c0.7,0,0.8,0.3,0.6,0.8c-0.2,0.5-0.3,1.1-0.5,1.6
				c-0.5,1.6-0.4,1.6-2,1.5c-2.8-0.1-2.8-0.1-3.5,2.6c-1.6,6-3.3,12-4.9,18c-0.2,0.6-0.3,1.2-0.4,1.8c-0.1,0.8-0.5,1.2-1.4,1.1
				C78.8,43.8,77.8,43.8,76.7,43.8z M84.9,20.1l-0.2,0.4c0.4,0.2,0.8,0.3,1.1,0.5c0.1-0.2,0.2-0.4,0.2-0.5L84.9,20.1z"/>
			<path class="st3" d="M97.8,37.3l-0.2,0.6l-0.2-0.1L97.8,37.3L97.8,37.3z"/>
			<path class="st4" d="M132.9,55.6l-0.2,0.1c0-0.1,0.1-0.2,0.1-0.2L132.9,55.6z"/>
			<path class="st3" d="M126.6,40.4c0.7-0.2,1.2-0.4,1.8-0.4c1.7-0.1,3.4-0.1,5,0c0.5,0,0.8-0.1,1-0.7c0.3-0.8,0.6-1.7,1-2.5
				c1-2.1,1.8-4.3,2.7-6.5c1-2.3,2-4.5,3-6.8c0.9-2.1,1.8-4.3,2.7-6.5c0.2-0.3,0.6-0.8,1-0.8c1.9-0.1,3.8,0,5.6-0.1
				c-0.2,2.2-0.3,4.4-0.4,6.5c-0.2,2.3-0.5,4.6-0.8,7c-0.5,4.4-1,8.8-1.4,13.2c-0.1,0.6-0.3,0.8-0.9,0.8c-1.1-0.1-2.2-0.1-3.3-0.1
				l0.3-4.9c-1.7,0-3.4,0-5.1,0.1c-0.2,0-0.4,0.4-0.5,0.6c-0.5,1.1-1,2.2-1.4,3.4c-0.3,0.6-0.6,1-1.4,0.9c-0.7-0.1-1.4,0-2.2,0
				c0.2-0.5,0.3-0.9,0.5-1.4l-0.8,0.2l0.1,1.2h-11.7c0.7-2.8,1.4-5.5,2.1-8.2c0-0.1,0.1-0.1,0.1-0.2c0-0.1,0.1-0.1,0.2-0.2
				c0.5-0.2,0.8-0.4,0.3-0.9c-0.1-0.1-0.1-0.5,0-0.7c0.1-0.8,0.3-1.5,0.6-2.3c0.2-0.4,0.5-0.8,0.7-1.3c0-0.2-0.3-0.5-0.2-0.7
				c1-4,2.1-8.1,3.2-12.1c0.1-0.3,0.2-0.5,0.3-0.9c0.9,0.1,2-0.3,2.8,0.3l1-0.3c0.1,0.3,0.2,0.7,0.2,1c-0.6,2.4-1.3,4.8-1.9,7.3
				l-0.9-0.1v0.1l0.8,0.2c-0.3,1.1-0.5,2.2-0.9,3.3c-0.4,1-0.5,2-0.7,2.9c-0.3,1-0.6,2.1-0.9,3.1c-0.3,1-0.7,2.1-0.9,3.2
				C127,38.5,126,39.4,126.6,40.4z M140.2,35.1h4.2c0.1-4.5,1.1-8.7,1-13l-5.3,12.8l-0.4,0.2v0.1L140.2,35.1z M135.3,38
				C135.3,38,135.4,38,135.3,38C135.4,37.9,135.3,37.9,135.3,38C135.3,37.9,135.3,37.9,135.3,38C135.3,37.9,135.3,38,135.3,38
				L135.3,38z"/>
			<path class="st2" d="M187.3,43.4c-0.3,0.1-0.3,0.2-0.4,0.2c-0.1,0-0.1-0.1-0.1-0.2c0.1,0,0.1-0.1,0.2-0.1
				C187,43.2,187.1,43.3,187.3,43.4z"/>
			<path class="st2" d="M190.7,25.8c0.1,0.1,0.1,0.3,0.2,0.4C190.8,26,190.8,25.9,190.7,25.8z"/>
			<path class="st3" d="M180,16.7c0.4-0.2,0.6-0.4,0.9-0.5c0.3-0.1,0.7,0,1.2,0.1c-0.3,1.2-0.6,2.4-1,3.6c-0.1,0.2-0.5,0.3-0.8,0.4
				c-0.1-0.4-0.3-0.8-0.2-0.9c0.3-0.6-0.3-0.7-0.5-1c-0.4,0.3-1.2-0.1-1.2,0.9c0,0.3-0.7,0.8-1.2,1c-0.5,0.1-0.7,0.2-0.8,0.7
				c-2,7.4-3.9,14.8-6,22.2c-0.1,0.2-0.3,0.6-0.5,0.6c-1.2,0-2.5,0-3.9,0c2.1-7.9,4.1-15.6,6.1-23.3c-0.9-0.5-2.1,0.5-2.5-0.6
				l-2,0.6c0.4-1.5,0.7-2.7,1-3.8c0-0.1,0.4-0.3,0.6-0.3c3.3,0,6.5,0,9.8,0C179.4,16.3,179.8,16.6,180,16.7z"/>
			<path class="st4" d="M156.5,53h-0.2c0-0.1,0.1-0.1,0.1-0.2C156.4,52.9,156.5,53,156.5,53z"/>
			<path class="st4" d="M155.7,49.5l0.2-0.1l-0.1,0.2L155.7,49.5z"/>
			<path class="st4" d="M150.4,50.3l0.2-0.1l-0.1,0.2L150.4,50.3z"/>
			<path class="st2" d="M231.2,29c0-0.4,0-0.7,0.1-1.1c0.4-1.6,0.8-3.1,1.2-4.7c0.2-0.7,0.5-1.5,0.6-2.2c0.1-0.8,0.6-0.9,1.2-0.9
				c2.8,0,3.1,0.5,2.4,3.2c-0.2,0.8-0.4,1.6-0.6,2.4c-0.5,2.1-1.6,2.9-3.8,2.9C232.1,28.6,231.7,28.8,231.2,29z M232,27.7l0.3,0.3
				c0.4-0.3,1.1-0.5,1.2-0.9c0.6-1.6,1-3.2,1.6-4.9h-1.6C233,24.1,232.5,25.9,232,27.7L232,27.7z"/>
			<path class="st2" d="M197.8,34.8l-0.1,0.1c-0.1-0.1-0.1-0.1-0.2-0.2l0.1-0.1C197.7,34.6,197.8,34.7,197.8,34.8z"/>
			<path class="st2" d="M239.1,39.1v0.2l-0.1-0.1C239.1,39.2,239.1,39.2,239.1,39.1z"/>
			<path class="st2" d="M257.9,17.1L257.9,17.1L257.9,17.1L257.9,17.1z"/>
			<path class="st2" d="M92.2,23.9c0.3,0.4,0.5,0.9,0.8,1.3l-0.3,0.2C92.2,25.1,91.6,25,92.2,23.9z"/>
			<path class="st2" d="M95.5,31.7L95.5,31.7L95.5,31.7L95.5,31.7z"/>
			<path class="st2" d="M109.6,29h-1.7l-0.1-0.5c0.4-0.3,0.8-0.7,1.2-0.8c0.2,0,0.5,0.6,0.7,0.9L109.6,29z"/>
			<path class="st2" d="M84.9,20.1l1.2,0.4C86,20.7,86,20.9,85.9,21c-0.4-0.1-0.8-0.3-1.1-0.5L84.9,20.1z"/>
			<path class="st2" d="M140.1,34.9l5.3-12.8c0,4.3-0.9,8.5-1,13h-4.2C140.2,35,140.2,35,140.1,34.9z M142.5,31.7h-0.1l-1.1,2.8
				l1-0.1C142.3,33.4,142.4,32.5,142.5,31.7z"/>
			<path class="st2" d="M140.2,35.1l-0.5,0.1v-0.1l0.4-0.2C140.2,35,140.2,35,140.2,35.1z"/>
			<path class="st2" d="M135.3,38C135.3,38,135.3,37.9,135.3,38C135.2,37.9,135.3,37.9,135.3,38C135.3,37.9,135.4,37.9,135.3,38
				C135.4,38,135.3,38,135.3,38z"/>
		</g>
	</g>
</g>
<g>
	<path class="st5" d="M4,70h335v200H4V70z"/>
</g>
<rect x="244" y="227" class="st6" width="90" height="20"/>
<path class="st7" d="M252.5,235c0,0.7-0.2,1.3-0.7,1.7s-1.2,0.7-2.1,0.7H248v3.6h-0.8v-8.4h2.5c0.9,0,1.6,0.2,2.1,0.7
	C252.3,233.7,252.5,234.3,252.5,235z M249.7,236.7c1.3,0,2-0.6,2-1.7c0-0.6-0.2-1-0.5-1.3s-0.8-0.4-1.5-0.4H248v3.4H249.7z
	 M254.2,235.6c0.2-0.4,0.5-0.7,0.8-0.9c0.4-0.2,0.9-0.3,1.4-0.3v0.9h-0.2c-0.6,0-1.1,0.2-1.5,0.5s-0.6,0.9-0.6,1.6v3.7h-0.8v-6.6
	h0.8v1.1H254.2z M257.6,233.2c-0.2,0-0.3-0.1-0.4-0.2s-0.2-0.3-0.2-0.4c0-0.2,0.1-0.3,0.2-0.4c0.1-0.1,0.3-0.2,0.4-0.2
	s0.3,0.1,0.4,0.2c0.1,0.1,0.2,0.3,0.2,0.4c0,0.2-0.1,0.3-0.2,0.4C257.9,233.2,257.8,233.2,257.6,233.2z M258,234.4v6.6h-0.8v-6.6
	H258z M261.6,241.1c-0.8,0-1.4-0.2-1.8-0.5c-0.5-0.4-0.7-0.8-0.8-1.4h0.9c0,0.4,0.2,0.7,0.5,0.9s0.7,0.3,1.2,0.3s0.8-0.1,1.1-0.3
	c0.3-0.2,0.4-0.5,0.4-0.8c0-0.2-0.1-0.4-0.2-0.6c-0.1-0.1-0.3-0.3-0.6-0.3c-0.2-0.1-0.5-0.2-0.9-0.3c-0.5-0.1-0.9-0.3-1.2-0.4
	c-0.3-0.1-0.6-0.3-0.8-0.6c-0.2-0.3-0.3-0.6-0.3-1c0-0.3,0.1-0.6,0.3-0.9c0.2-0.3,0.5-0.5,0.8-0.6c0.4-0.2,0.8-0.2,1.2-0.2
	c0.7,0,1.3,0.2,1.7,0.5c0.4,0.4,0.7,0.8,0.7,1.5H263c0-0.4-0.2-0.7-0.5-0.9s-0.6-0.4-1.1-0.4c-0.4,0-0.8,0.1-1,0.3
	c-0.3,0.2-0.4,0.4-0.4,0.7s0.1,0.5,0.2,0.6c0.2,0.2,0.4,0.3,0.6,0.4c0.2,0.1,0.5,0.2,0.9,0.3c0.5,0.1,0.8,0.3,1.1,0.4
	s0.5,0.3,0.7,0.5s0.3,0.5,0.3,0.9s-0.1,0.7-0.3,0.9c-0.2,0.3-0.5,0.5-0.8,0.6S262.1,241.1,261.6,241.1z M270.9,237.4
	c0,0.3,0,0.5,0,0.7h-5.4c0,0.5,0.1,0.9,0.4,1.3c0.2,0.4,0.5,0.6,0.9,0.8s0.7,0.3,1.2,0.3s1-0.1,1.4-0.4c0.4-0.3,0.6-0.6,0.7-1.1h0.9
	c-0.2,0.6-0.5,1.2-1,1.6c-0.5,0.4-1.2,0.6-2,0.6c-0.6,0-1.2-0.1-1.7-0.4c-0.5-0.3-0.9-0.7-1.2-1.2c-0.3-0.5-0.4-1.1-0.4-1.8
	s0.1-1.3,0.4-1.8s0.7-0.9,1.1-1.2c0.5-0.3,1-0.4,1.7-0.4c0.6,0,1.2,0.1,1.6,0.4c0.5,0.3,0.8,0.6,1.1,1.1
	C270.8,236.3,270.9,236.8,270.9,237.4z M270,237.4c0-0.5-0.1-0.9-0.3-1.2c-0.2-0.3-0.5-0.6-0.8-0.8c-0.4-0.2-0.7-0.3-1.2-0.3
	c-0.6,0-1.2,0.2-1.6,0.6c-0.4,0.4-0.7,1-0.7,1.7H270z M272.7,235.6c0.2-0.4,0.5-0.7,0.8-0.9c0.4-0.2,0.9-0.3,1.4-0.3v0.9h-0.2
	c-0.6,0-1.1,0.2-1.5,0.5s-0.6,0.9-0.6,1.6v3.7h-0.8v-6.6h0.8v1.1H272.7z M281,235.2h-1.5v5.8h-0.8v-5.8h-0.9v-0.7h0.9V234
	c0-0.7,0.2-1.2,0.5-1.6c0.4-0.3,1-0.5,1.8-0.5v0.7c-0.5,0-0.9,0.1-1.2,0.3c-0.2,0.2-0.3,0.6-0.3,1v0.5h1.5V235.2z M282.6,235.6
	c0.2-0.4,0.5-0.7,0.8-0.9c0.4-0.2,0.9-0.3,1.4-0.3v0.9h-0.2c-0.6,0-1.1,0.2-1.5,0.5s-0.6,0.9-0.6,1.6v3.7h-0.8v-6.6h0.8v1.1H282.6z
	 M285.2,237.7c0-0.7,0.1-1.3,0.4-1.8s0.6-0.9,1.1-1.2s1-0.4,1.6-0.4s1.2,0.1,1.6,0.4c0.5,0.3,0.8,0.7,1,1.1v-1.4h0.8v6.6h-0.8v-1.5
	c-0.2,0.4-0.5,0.8-1,1.1c-0.4,0.3-1,0.4-1.6,0.4s-1.1-0.1-1.6-0.4c-0.5-0.3-0.8-0.7-1.1-1.2C285.4,239,285.2,238.4,285.2,237.7z
	 M290.9,237.7c0-0.5-0.1-1-0.3-1.4c-0.2-0.4-0.5-0.7-0.9-0.9s-0.8-0.3-1.2-0.3c-0.5,0-0.9,0.1-1.2,0.3c-0.4,0.2-0.7,0.5-0.9,0.9
	c-0.2,0.4-0.3,0.9-0.3,1.4s0.1,1,0.3,1.4c0.2,0.4,0.5,0.7,0.9,0.9s0.8,0.3,1.2,0.3c0.4,0,0.9-0.1,1.2-0.3c0.4-0.2,0.7-0.5,0.9-0.9
	S290.9,238.3,290.9,237.7z M299.5,241l-2.7-2.9v2.9H296v-8.9h0.8v5.3l2.6-2.9h1.2l-3.1,3.3l3.1,3.3h-1.1V241z M302,235.6
	c0.2-0.4,0.5-0.7,0.8-0.9c0.4-0.2,0.9-0.3,1.4-0.3v0.9H304c-0.6,0-1.1,0.2-1.5,0.5s-0.6,0.9-0.6,1.6v3.7h-0.8v-6.6h0.8v1.1H302z
	 M305.1,241.1c-0.2,0-0.3-0.1-0.4-0.2c-0.1-0.1-0.2-0.3-0.2-0.4c0-0.2,0.1-0.3,0.2-0.4c0.1-0.1,0.3-0.2,0.4-0.2
	c0.2,0,0.3,0.1,0.4,0.2c0.1,0.1,0.2,0.3,0.2,0.4c0,0.2-0.1,0.3-0.2,0.4S305.3,241.1,305.1,241.1z M308.8,233.2v-0.8h2v8.6h-0.9v-7.8
	H308.8z M317.3,233.1L314,241h-0.9l3.4-7.9h-4.8v-0.7h5.6L317.3,233.1L317.3,233.1z M323.4,233.1H319v3.1c0.2-0.3,0.5-0.5,0.9-0.7
	s0.8-0.3,1.2-0.3c0.7,0,1.2,0.1,1.6,0.4c0.4,0.3,0.7,0.6,0.9,1c0.2,0.4,0.3,0.9,0.3,1.4c0,0.6-0.1,1.1-0.3,1.5
	c-0.2,0.4-0.5,0.8-1,1.1c-0.4,0.3-1,0.4-1.6,0.4c-0.8,0-1.5-0.2-2-0.6c-0.5-0.4-0.8-1-0.9-1.7h0.8c0.1,0.5,0.3,0.9,0.7,1.2
	c0.4,0.3,0.8,0.4,1.4,0.4c0.7,0,1.2-0.2,1.6-0.6c0.4-0.4,0.5-1,0.5-1.6c0-0.7-0.2-1.2-0.5-1.5c-0.4-0.4-0.9-0.6-1.5-0.6
	c-0.5,0-0.9,0.1-1.2,0.3s-0.6,0.5-0.8,0.9h-0.8v-4.8h5.2v0.7H323.4z M325.8,239.6l-1.2,3.1H324l0.9-3.1H325.8z M330.6,236.2v0.7H326
	v-0.7H330.6z"/>
<g>
	<path class="st8" d="M4,252h335v392c0,2.8-2.2,5-5,5H9c-2.8,0-5-2.2-5-5V252z"/>
</g>
<path d="M237.2,446.9v1h-3.9v3.1h3.2v1h-3.2v4.1H232V447h5.2V446.9z M241.7,456.1c-0.7,0-1.3-0.2-1.8-0.5s-1-0.7-1.3-1.3
	c-0.3-0.6-0.5-1.2-0.5-2c0-0.7,0.2-1.4,0.5-1.9c0.3-0.6,0.8-1,1.3-1.3s1.2-0.5,1.8-0.5s1.3,0.2,1.8,0.5s1,0.7,1.3,1.3
	c0.3,0.6,0.5,1.2,0.5,1.9s-0.2,1.4-0.5,2s-0.8,1-1.3,1.3C243,456,242.4,456.1,241.7,456.1z M241.7,455.1c0.4,0,0.8-0.1,1.2-0.3
	c0.4-0.2,0.7-0.5,0.9-0.9s0.4-0.9,0.4-1.5s-0.1-1.1-0.3-1.5s-0.5-0.7-0.9-0.9c-0.4-0.2-0.8-0.3-1.2-0.3s-0.8,0.1-1.2,0.3
	c-0.4,0.2-0.6,0.5-0.9,0.9c-0.2,0.4-0.3,0.9-0.3,1.5s0.1,1.1,0.3,1.5s0.5,0.7,0.9,0.9C240.9,455,241.3,455.1,241.7,455.1z
	 M248.1,450c0.2-0.4,0.5-0.7,0.9-0.9c0.4-0.2,0.9-0.3,1.4-0.3v1.2h-0.3c-1.3,0-2,0.7-2,2.2v3.9h-1.2V449h1.2L248.1,450L248.1,450z
	 M256.4,450.2c0.2-0.4,0.6-0.8,1.1-1c0.5-0.3,1-0.4,1.6-0.4s1.2,0.2,1.7,0.5s0.9,0.7,1.2,1.3c0.3,0.5,0.4,1.2,0.4,1.9
	c0,0.7-0.1,1.4-0.4,1.9c-0.3,0.6-0.7,1-1.2,1.3s-1.1,0.5-1.7,0.5s-1.2-0.1-1.6-0.4c-0.5-0.3-0.8-0.6-1-1v1.3h-1.2v-9.6h1.2v3.7
	H256.4z M261.2,452.4c0-0.5-0.1-1-0.3-1.4c-0.2-0.4-0.5-0.7-0.9-0.9c-0.4-0.2-0.8-0.3-1.2-0.3c-0.4,0-0.8,0.1-1.2,0.3
	c-0.4,0.2-0.7,0.5-0.9,0.9c-0.2,0.4-0.3,0.9-0.3,1.4s0.1,1,0.3,1.4c0.2,0.4,0.5,0.7,0.9,0.9c0.4,0.2,0.8,0.3,1.2,0.3
	c0.4,0,0.8-0.1,1.2-0.3c0.4-0.2,0.7-0.5,0.9-0.9S261.2,453,261.2,452.4z M269.9,449.9c0.3,0.3,0.5,0.7,0.6,1.1
	c0.2,0.4,0.2,0.9,0.2,1.4c0,0.7-0.2,1.4-0.5,2s-0.8,1-1.3,1.3c-0.6,0.3-1.2,0.5-1.8,0.5c-0.8,0-1.6-0.2-2.2-0.7l-0.5,0.6h-0.8l0.9-1
	c-0.3-0.3-0.5-0.7-0.6-1.1s-0.2-0.9-0.2-1.4c0-0.7,0.2-1.4,0.5-1.9c0.3-0.6,0.8-1,1.3-1.3s1.2-0.5,1.8-0.5c0.9,0,1.6,0.2,2.3,0.7
	l0.6-0.6h0.8L269.9,449.9z M264.8,452.4c0,0.7,0.2,1.2,0.5,1.7l3.5-3.8c-0.4-0.4-0.9-0.5-1.5-0.5c-0.4,0-0.8,0.1-1.2,0.3
	c-0.4,0.2-0.6,0.5-0.9,0.9S264.8,451.9,264.8,452.4z M269.6,452.4c0-0.7-0.2-1.2-0.5-1.6l-3.5,3.8c0.4,0.3,0.9,0.5,1.5,0.5
	c0.4,0,0.8-0.1,1.2-0.3c0.4-0.2,0.7-0.5,0.9-0.9S269.6,453,269.6,452.4z M273.5,450c0.2-0.4,0.5-0.7,0.9-0.9
	c0.4-0.2,0.9-0.3,1.4-0.3v1.2h-0.3c-1.3,0-2,0.7-2,2.2v3.9h-1.2V449h1.2V450z M280.6,448.7c0.9,0,1.6,0.3,2.1,0.8s0.8,1.3,0.8,2.3
	v4.2h-1.2v-4c0-0.7-0.2-1.3-0.5-1.6c-0.4-0.4-0.8-0.6-1.5-0.6c-0.6,0-1.1,0.2-1.5,0.6s-0.5,1-0.5,1.7v3.9h-1.2v-7.1h1.2v1
	c0.2-0.4,0.6-0.6,0.9-0.8C279.7,448.8,280.2,448.7,280.6,448.7z M230,478.1c-0.5,0-1-0.1-1.5-0.3c-0.4-0.2-0.8-0.5-1-0.8
	c-0.3-0.3-0.4-0.7-0.4-1.2h1.2c0,0.4,0.2,0.6,0.5,0.9c0.3,0.2,0.7,0.3,1.2,0.3s0.8-0.1,1.1-0.3c0.3-0.2,0.4-0.5,0.4-0.8
	s-0.1-0.5-0.4-0.7c-0.3-0.2-0.7-0.3-1.3-0.5c-0.5-0.1-1-0.3-1.3-0.4s-0.6-0.4-0.9-0.6c-0.2-0.3-0.4-0.7-0.4-1.1s0.1-0.7,0.3-1
	s0.5-0.5,0.9-0.7s0.9-0.3,1.4-0.3c0.8,0,1.4,0.2,1.9,0.6s0.7,0.9,0.8,1.6h-1.2c0-0.4-0.2-0.7-0.5-0.9c-0.3-0.2-0.6-0.3-1.1-0.3
	c-0.4,0-0.8,0.1-1,0.3c-0.3,0.2-0.4,0.4-0.4,0.7c0,0.2,0.1,0.4,0.2,0.6c0.2,0.1,0.3,0.3,0.6,0.4c0.2,0.1,0.6,0.2,1,0.3
	c0.5,0.1,0.9,0.3,1.2,0.4s0.6,0.3,0.8,0.6c0.2,0.3,0.4,0.6,0.4,1.1c0,0.4-0.1,0.7-0.3,1.1s-0.5,0.6-0.9,0.7
	C230.9,478,230.5,478.1,230,478.1z M233.8,474.4c0-0.7,0.1-1.4,0.4-1.9c0.3-0.6,0.7-1,1.2-1.3s1.1-0.5,1.7-0.5
	c0.6,0,1.2,0.1,1.6,0.4c0.5,0.3,0.8,0.6,1,1v-1.3h1.2v7.1h-1.2v-1.3c-0.2,0.4-0.6,0.8-1.1,1c-0.5,0.3-1,0.4-1.6,0.4
	s-1.2-0.2-1.7-0.5s-0.9-0.8-1.2-1.3C234,475.8,233.8,475.1,233.8,474.4z M239.8,474.4c0-0.5-0.1-1-0.3-1.4s-0.5-0.7-0.9-0.9
	c-0.4-0.2-0.8-0.3-1.2-0.3s-0.8,0.1-1.2,0.3c-0.4,0.2-0.7,0.5-0.9,0.9s-0.3,0.9-0.3,1.4s0.1,1,0.3,1.4s0.5,0.7,0.9,0.9
	c0.4,0.2,0.8,0.3,1.2,0.3s0.8-0.1,1.2-0.3c0.4-0.2,0.7-0.5,0.9-0.9S239.8,475,239.8,474.4z M239,468.7c0,0.4-0.1,0.8-0.4,1
	c-0.3,0.2-0.6,0.4-1,0.4s-0.7-0.1-1-0.4s-0.4-0.6-0.4-1s0.1-0.7,0.4-1c0.3-0.3,0.6-0.4,1-0.4s0.7,0.1,1,0.4
	C238.9,468,239,468.3,239,468.7z M238.4,468.7c0-0.2-0.1-0.4-0.2-0.5c-0.1-0.1-0.3-0.2-0.5-0.2s-0.4,0.1-0.5,0.2s-0.2,0.3-0.2,0.5
	s0.1,0.4,0.2,0.5c0.1,0.1,0.3,0.2,0.5,0.2s0.4-0.1,0.5-0.2S238.4,468.9,238.4,468.7z M245.7,476.9l2.2-6h1.3l-2.8,7.1H245l-2.8-7.1
	h1.3L245.7,476.9z M256.8,474.2c0,0.2,0,0.5,0,0.7h-5.7c0,0.7,0.3,1.3,0.7,1.7c0.4,0.4,1,0.6,1.6,0.6c0.5,0,0.9-0.1,1.3-0.4
	c0.3-0.2,0.6-0.6,0.7-1h1.3c-0.2,0.7-0.6,1.2-1.1,1.7c-0.6,0.4-1.3,0.6-2.1,0.6c-0.7,0-1.3-0.2-1.8-0.5s-0.9-0.7-1.2-1.3
	c-0.3-0.6-0.5-1.2-0.5-2s0.1-1.4,0.4-1.9c0.3-0.6,0.7-1,1.2-1.3s1.2-0.5,1.8-0.5c0.7,0,1.3,0.1,1.8,0.4s0.9,0.7,1.2,1.2
	C256.7,472.9,256.8,473.5,256.8,474.2z M255.6,473.9c0-0.5-0.1-0.8-0.3-1.2c-0.2-0.3-0.5-0.6-0.8-0.7c-0.3-0.2-0.7-0.3-1.1-0.3
	c-0.6,0-1.1,0.2-1.5,0.6s-0.7,0.9-0.7,1.6H255.6z M259.6,468.4v9.6h-1.2v-9.6H259.6z M267.6,478.1c-0.5,0-1-0.1-1.5-0.3
	c-0.4-0.2-0.8-0.5-1-0.8c-0.3-0.3-0.4-0.7-0.4-1.2h1.2c0,0.4,0.2,0.6,0.5,0.9c0.3,0.2,0.7,0.3,1.2,0.3s0.8-0.1,1.1-0.3
	c0.3-0.2,0.4-0.5,0.4-0.8s-0.1-0.5-0.4-0.7s-0.7-0.3-1.3-0.5c-0.5-0.1-1-0.3-1.3-0.4s-0.6-0.4-0.9-0.6c-0.2-0.3-0.4-0.7-0.4-1.1
	s0.1-0.7,0.3-1c0.2-0.3,0.5-0.5,0.9-0.7s0.9-0.3,1.4-0.3c0.8,0,1.4,0.2,1.9,0.6s0.7,0.9,0.8,1.6h-1.2c0-0.4-0.2-0.7-0.5-0.9
	c-0.3-0.2-0.6-0.3-1.1-0.3c-0.4,0-0.8,0.1-1,0.3c-0.3,0.2-0.4,0.4-0.4,0.7c0,0.2,0.1,0.4,0.2,0.6c0.2,0.1,0.3,0.3,0.6,0.4
	c0.2,0.1,0.6,0.2,1,0.3c0.5,0.1,0.9,0.3,1.2,0.4c0.3,0.1,0.6,0.3,0.8,0.6c0.2,0.3,0.4,0.6,0.4,1.1c0,0.4-0.1,0.7-0.3,1.1
	c-0.2,0.3-0.5,0.6-0.9,0.7C268.5,478,268.1,478.1,267.6,478.1z M274.9,478.1c-0.7,0-1.3-0.2-1.8-0.5s-1-0.7-1.3-1.3
	c-0.3-0.6-0.5-1.2-0.5-2c0-0.7,0.2-1.4,0.5-1.9c0.3-0.6,0.8-1,1.3-1.3s1.2-0.5,1.8-0.5s1.3,0.2,1.8,0.5s1,0.7,1.3,1.3
	c0.3,0.6,0.5,1.2,0.5,1.9s-0.2,1.4-0.5,2s-0.8,1-1.3,1.3C276.2,478,275.6,478.1,274.9,478.1z M274.9,477.1c0.4,0,0.8-0.1,1.2-0.3
	c0.4-0.2,0.7-0.5,0.9-0.9c0.2-0.4,0.4-0.9,0.4-1.5s-0.1-1.1-0.3-1.5c-0.2-0.4-0.5-0.7-0.9-0.9c-0.4-0.2-0.8-0.3-1.2-0.3
	c-0.4,0-0.8,0.1-1.2,0.3c-0.4,0.2-0.6,0.5-0.9,0.9c-0.2,0.4-0.3,0.9-0.3,1.5s0.1,1.1,0.3,1.5c0.2,0.4,0.5,0.7,0.9,0.9
	C274.1,477,274.5,477.1,274.9,477.1z M288.7,470.7c0.6,0,1,0.1,1.5,0.4c0.4,0.2,0.8,0.6,1,1c0.3,0.5,0.4,1,0.4,1.7v4.2h-1.2v-4
	c0-0.7-0.2-1.3-0.5-1.6c-0.3-0.4-0.8-0.6-1.4-0.6s-1.1,0.2-1.5,0.6s-0.5,1-0.5,1.7v3.9h-1.2v-4c0-0.7-0.2-1.3-0.5-1.6
	c-0.3-0.4-0.8-0.6-1.4-0.6s-1.1,0.2-1.5,0.6s-0.5,1-0.5,1.7v3.9h-1.2v-7.1h1.2v1c0.2-0.4,0.5-0.7,0.9-0.9c0.4-0.2,0.8-0.3,1.3-0.3
	c0.6,0,1.1,0.1,1.6,0.4s0.8,0.7,1,1.2c0.2-0.5,0.5-0.9,1-1.2C287.6,470.9,288.2,470.7,288.7,470.7z M240.4,498.9l2.2-6h1.3l-2.8,7.1
	h-1.4l-2.8-7.1h1.3L240.4,498.9z M248.2,500.1c-0.7,0-1.3-0.2-1.8-0.5s-1-0.7-1.3-1.3c-0.3-0.6-0.5-1.2-0.5-2c0-0.7,0.2-1.4,0.5-1.9
	c0.3-0.6,0.8-1,1.3-1.3s1.2-0.5,1.8-0.5c0.7,0,1.3,0.2,1.8,0.5s1,0.7,1.3,1.3c0.3,0.6,0.5,1.2,0.5,1.9s-0.2,1.4-0.5,2
	s-0.8,1-1.3,1.3C249.5,500,248.8,500.1,248.2,500.1z M248.2,499.1c0.4,0,0.8-0.1,1.2-0.3c0.4-0.2,0.7-0.5,0.9-0.9s0.4-0.9,0.4-1.5
	s-0.1-1.1-0.3-1.5s-0.5-0.7-0.9-0.9c-0.4-0.2-0.8-0.3-1.2-0.3s-0.8,0.1-1.2,0.3c-0.4,0.2-0.6,0.5-0.9,0.9c-0.2,0.4-0.3,0.9-0.3,1.5
	s0.1,1.1,0.3,1.5s0.5,0.7,0.9,0.9C247.3,499,247.7,499.1,248.2,499.1z M257.4,500l-2.8-3.1v3.1h-1.2v-9.6h1.2v5.7l2.7-3.2h1.7
	l-3.4,3.5l3.4,3.6H257.4z M262.6,500.1c-0.5,0-1-0.1-1.5-0.3c-0.4-0.2-0.8-0.5-1-0.8c-0.3-0.3-0.4-0.7-0.4-1.2h1.2
	c0,0.4,0.2,0.6,0.5,0.9c0.3,0.2,0.7,0.3,1.2,0.3s0.8-0.1,1.1-0.3c0.3-0.2,0.4-0.5,0.4-0.8s-0.1-0.5-0.4-0.7s-0.7-0.3-1.3-0.5
	c-0.5-0.1-1-0.3-1.3-0.4s-0.6-0.4-0.9-0.6c-0.2-0.3-0.4-0.7-0.4-1.1s0.1-0.7,0.3-1c0.2-0.3,0.5-0.5,0.9-0.7s0.9-0.3,1.4-0.3
	c0.8,0,1.4,0.2,1.9,0.6s0.7,0.9,0.8,1.6h-1.2c0-0.4-0.2-0.7-0.5-0.9c-0.3-0.2-0.6-0.3-1.1-0.3c-0.4,0-0.8,0.1-1,0.3
	c-0.3,0.2-0.4,0.4-0.4,0.7c0,0.2,0.1,0.4,0.2,0.6c0.2,0.1,0.3,0.3,0.6,0.4c0.2,0.1,0.6,0.2,1,0.3c0.5,0.1,0.9,0.3,1.2,0.4
	c0.3,0.1,0.6,0.3,0.8,0.6c0.2,0.3,0.4,0.6,0.4,1.1c0,0.4-0.1,0.7-0.3,1.1c-0.2,0.3-0.5,0.6-0.9,0.7
	C263.5,500,263.1,500.1,262.6,500.1z M270.3,492.7c0.9,0,1.6,0.3,2.1,0.8s0.8,1.3,0.8,2.3v4.2H272v-4c0-0.7-0.2-1.3-0.5-1.6
	c-0.4-0.4-0.8-0.6-1.5-0.6c-0.6,0-1.1,0.2-1.5,0.6s-0.5,1-0.5,1.7v3.9h-1.2v-7.1h1.2v1c0.2-0.4,0.6-0.6,0.9-0.8
	C269.4,492.8,269.8,492.7,270.3,492.7z M281.7,496.2c0,0.2,0,0.5,0,0.7H276c0,0.7,0.3,1.3,0.7,1.7c0.4,0.4,1,0.6,1.6,0.6
	c0.5,0,0.9-0.1,1.3-0.4c0.3-0.2,0.6-0.6,0.7-1h1.3c-0.2,0.7-0.6,1.2-1.1,1.7c-0.6,0.4-1.3,0.6-2.1,0.6c-0.7,0-1.3-0.2-1.8-0.5
	s-0.9-0.7-1.2-1.3c-0.3-0.6-0.5-1.2-0.5-2s0.1-1.4,0.4-1.9c0.3-0.6,0.7-1,1.2-1.3s1.2-0.5,1.8-0.5c0.7,0,1.3,0.1,1.8,0.4
	s0.9,0.7,1.2,1.2C281.5,494.9,281.7,495.5,281.7,496.2z M280.4,495.9c0-0.5-0.1-0.8-0.3-1.2c-0.2-0.3-0.5-0.6-0.8-0.7
	c-0.3-0.2-0.7-0.3-1.1-0.3c-0.6,0-1.1,0.2-1.5,0.6s-0.7,0.9-0.7,1.6H280.4z"/>
<path class="st9" d="M259,523c27.6,0,50-22.4,50-50s-22.4-50-50-50s-50,22.4-50,50S231.4,523,259,523z"/>
<path class="st10" d="M259,423c9.9,0,19.6,2.9,27.8,8.4c8.2,5.5,14.6,13.3,18.4,22.4s4.8,19.2,2.8,28.9c-1.9,9.7-6.7,18.6-13.7,25.6
	s-15.9,11.8-25.6,13.7s-19.8,0.9-28.9-2.8c-9.1-3.8-17-10.2-22.5-18.4c-5.5-8.2-8.4-17.9-8.4-27.8"/>
<path d="M44.7,430h-2.2l-5.1-7.7v7.7h-2.2v-11.2h2.2l5.1,7.7v-7.7h2.2V430z M54.3,422.5c0.3,0.4,0.6,0.9,0.8,1.4s0.3,1.1,0.3,1.7
	c0,0.9-0.2,1.7-0.6,2.4c-0.4,0.7-1,1.2-1.7,1.6s-1.5,0.6-2.3,0.6c-1,0-1.9-0.3-2.7-0.8l-0.6,0.7h-1.4l1.2-1.3
	c-0.3-0.4-0.6-0.9-0.8-1.4s-0.3-1.1-0.3-1.7c0-0.9,0.2-1.7,0.6-2.4c0.4-0.7,1-1.2,1.6-1.6c0.7-0.4,1.5-0.6,2.3-0.6
	c1.1,0,2,0.3,2.8,0.8l0.6-0.7h1.4L54.3,422.5z M48.5,425.6c0,0.5,0.1,1,0.3,1.4l3.3-3.6c-0.4-0.3-0.8-0.4-1.4-0.4
	c-0.6,0-1.2,0.2-1.6,0.7C48.8,424.1,48.5,424.7,48.5,425.6z M53.1,425.6c0-0.5-0.1-1-0.3-1.4l-3.3,3.6c0.4,0.3,0.8,0.4,1.3,0.4
	c0.4,0,0.8-0.1,1.1-0.3c0.4-0.2,0.7-0.5,0.9-0.9C53,426.6,53.1,426.1,53.1,425.6z M60.5,421c0.7,0,1.2,0.1,1.7,0.4s0.9,0.6,1.2,1
	v-1.3h2.3v8.9c0,0.8-0.2,1.6-0.5,2.2c-0.3,0.7-0.8,1.2-1.5,1.5c-0.7,0.4-1.5,0.6-2.4,0.6c-1.3,0-2.3-0.3-3.1-0.9s-1.3-1.4-1.4-2.4
	H59c0.1,0.4,0.4,0.7,0.8,1c0.4,0.2,0.9,0.4,1.4,0.4c0.7,0,1.2-0.2,1.6-0.6c0.4-0.4,0.6-1,0.6-1.8v-1.4c-0.3,0.4-0.7,0.8-1.2,1
	c-0.5,0.3-1.1,0.4-1.7,0.4c-0.7,0-1.4-0.2-2-0.6s-1.1-0.9-1.5-1.6s-0.5-1.5-0.5-2.4s0.2-1.7,0.5-2.4c0.4-0.7,0.8-1.2,1.5-1.6
	C59,421.2,59.7,421,60.5,421z M63.4,425.6c0-0.5-0.1-1-0.3-1.4s-0.5-0.7-0.9-0.9c-0.4-0.2-0.8-0.3-1.2-0.3s-0.8,0.1-1.2,0.3
	c-0.4,0.2-0.6,0.5-0.9,0.9c-0.2,0.4-0.3,0.8-0.3,1.4c0,0.5,0.1,1,0.3,1.4s0.5,0.7,0.9,0.9c0.4,0.2,0.7,0.3,1.2,0.3
	c0.4,0,0.8-0.1,1.2-0.3c0.4-0.2,0.7-0.5,0.9-0.9C63.3,426.6,63.4,426.1,63.4,425.6z M70.1,418.2V430h-2.2v-11.8H70.1z M80.5,425.4
	c0,0.3,0,0.6-0.1,0.9H74c0.1,0.6,0.3,1.1,0.7,1.5c0.4,0.4,0.9,0.5,1.5,0.5c0.8,0,1.4-0.4,1.8-1.1h2.4c-0.3,0.9-0.7,1.6-1.5,2.1
	c-0.7,0.5-1.6,0.8-2.7,0.8c-0.9,0-1.6-0.2-2.3-0.6c-0.7-0.4-1.2-0.9-1.6-1.6s-0.6-1.5-0.6-2.4s0.2-1.7,0.6-2.4
	c0.4-0.7,0.9-1.2,1.6-1.6s1.4-0.6,2.3-0.6c0.8,0,1.6,0.2,2.3,0.5c0.7,0.4,1.2,0.9,1.6,1.6C80.4,423.7,80.5,424.5,80.5,425.4z
	 M78.2,424.7c0-0.6-0.2-1-0.6-1.4s-0.9-0.5-1.5-0.5s-1,0.2-1.4,0.5s-0.6,0.8-0.7,1.4H78.2z M86.1,430.1c-0.9,0-1.6-0.2-2.3-0.6
	c-0.7-0.4-1.2-0.9-1.6-1.6s-0.6-1.5-0.6-2.4s0.2-1.7,0.6-2.4c0.4-0.7,1-1.2,1.6-1.6c0.7-0.4,1.5-0.6,2.3-0.6c0.9,0,1.6,0.2,2.3,0.6
	c0.7,0.4,1.2,0.9,1.6,1.6s0.6,1.5,0.6,2.4s-0.2,1.7-0.6,2.4c-0.4,0.7-1,1.2-1.7,1.6C87.8,430,87,430.1,86.1,430.1z M86.1,428.2
	c0.4,0,0.8-0.1,1.1-0.3c0.4-0.2,0.7-0.5,0.9-0.9c0.2-0.4,0.3-0.9,0.3-1.4c0-0.8-0.2-1.5-0.7-1.9c-0.4-0.5-1-0.7-1.6-0.7
	s-1.2,0.2-1.6,0.7c-0.4,0.4-0.6,1.1-0.6,1.9s0.2,1.5,0.6,2C84.9,428,85.5,428.2,86.1,428.2z M94.6,422.5c0.3-0.5,0.7-0.8,1.1-1.1
	c0.5-0.3,1-0.4,1.6-0.4v2.4h-0.6c-0.7,0-1.2,0.2-1.6,0.5s-0.5,0.9-0.5,1.7v4.4h-2.2v-8.9h2.2V422.5z M98.3,425.5
	c0-0.9,0.2-1.7,0.5-2.4c0.4-0.7,0.9-1.2,1.5-1.6s1.3-0.6,2.1-0.6c0.6,0,1.1,0.1,1.6,0.4c0.5,0.2,0.9,0.6,1.2,1v-4.2h2.3V430h-2.3
	v-1.3c-0.3,0.4-0.7,0.8-1.2,1.1s-1.1,0.4-1.7,0.4c-0.7,0-1.4-0.2-2-0.6s-1.1-0.9-1.5-1.6C98.5,427.2,98.3,426.4,98.3,425.5z
	 M105.3,425.6c0-0.5-0.1-1-0.3-1.4c-0.2-0.4-0.5-0.7-0.9-0.9c-0.4-0.2-0.8-0.3-1.2-0.3s-0.8,0.1-1.2,0.3s-0.6,0.5-0.9,0.9
	c-0.2,0.4-0.3,0.8-0.3,1.4c0,0.5,0.1,1,0.3,1.4c0.2,0.4,0.5,0.7,0.9,0.9c0.4,0.2,0.7,0.3,1.2,0.3c0.4,0,0.8-0.1,1.2-0.3
	c0.4-0.2,0.7-0.5,0.9-0.9C105.1,426.6,105.3,426.1,105.3,425.6z"/>
<path d="M46,460.6c-0.5,0-1-0.2-1.4-0.6s-0.6-0.8-0.6-1.4s0.2-1,0.6-1.4c0.4-0.4,0.8-0.6,1.4-0.6c0.6,0,1,0.2,1.4,0.6
	s0.6,0.8,0.6,1.4c0,0.5-0.2,1-0.6,1.4C47,460.4,46.5,460.6,46,460.6z M67.2,459.3c0,0.3,0,0.6,0,0.9h-7c0.1,0.9,0.3,1.5,0.9,2
	c0.5,0.5,1.2,0.7,2,0.7c0.6,0,1.2-0.1,1.6-0.4s0.7-0.7,0.9-1.2h1.6c-0.2,0.8-0.7,1.5-1.4,2.1c-0.7,0.5-1.6,0.8-2.6,0.8
	c-0.8,0-1.6-0.2-2.2-0.6c-0.7-0.4-1.2-0.9-1.5-1.6c-0.4-0.7-0.6-1.5-0.6-2.4s0.2-1.7,0.5-2.4c0.4-0.7,0.9-1.2,1.5-1.6
	c0.7-0.4,1.4-0.6,2.3-0.6c0.8,0,1.6,0.2,2.2,0.5c0.6,0.4,1.1,0.9,1.5,1.5C67.1,457.8,67.2,458.5,67.2,459.3z M65.7,459
	c0-0.6-0.1-1-0.4-1.4c-0.2-0.4-0.6-0.7-1-0.9c-0.4-0.2-0.9-0.3-1.4-0.3c-0.7,0-1.4,0.2-1.9,0.7s-0.8,1.1-0.9,2h5.6V459z M72.6,462.7
	l2.7-7.4h1.6l-3.4,8.8h-1.7l-3.4-8.8H70L72.6,462.7z M86.4,459.3c0,0.3,0,0.6,0,0.9h-7c0.1,0.9,0.3,1.5,0.9,2c0.5,0.5,1.2,0.7,2,0.7
	c0.6,0,1.2-0.1,1.6-0.4s0.7-0.7,0.9-1.2h1.6c-0.2,0.8-0.7,1.5-1.4,2.1c-0.7,0.5-1.6,0.8-2.6,0.8c-0.8,0-1.6-0.2-2.2-0.6
	c-0.7-0.4-1.2-0.9-1.5-1.6c-0.4-0.7-0.6-1.5-0.6-2.4s0.2-1.7,0.5-2.4c0.4-0.7,0.9-1.2,1.5-1.6c0.7-0.4,1.4-0.6,2.3-0.6
	c0.8,0,1.6,0.2,2.2,0.5c0.6,0.4,1.1,0.9,1.5,1.5C86.3,457.8,86.4,458.5,86.4,459.3z M84.9,459c0-0.6-0.1-1-0.4-1.4
	c-0.2-0.4-0.6-0.7-1-0.9c-0.4-0.2-0.9-0.3-1.4-0.3c-0.7,0-1.4,0.2-1.9,0.7s-0.8,1.1-0.9,2h5.6V459z M92.8,455.1c1.1,0,1.9,0.3,2.6,1
	c0.7,0.6,1,1.6,1,2.8v5.2H95v-5c0-0.9-0.2-1.5-0.7-2c-0.4-0.5-1-0.7-1.8-0.7s-1.4,0.2-1.8,0.7s-0.7,1.2-0.7,2.1v4.8h-1.5v-8.8H90
	v1.2c0.3-0.4,0.7-0.8,1.2-1C91.6,455.2,92.2,455.1,92.8,455.1z M100.7,456.4v5.2c0,0.4,0.1,0.7,0.3,0.9c0.2,0.2,0.5,0.3,0.9,0.3h1.1
	v1.2h-1.3c-0.8,0-1.4-0.2-1.8-0.6s-0.6-1-0.6-1.8v-5.2h-1.1v-1.2h1.1V453h1.5v2.2h2.3v1.2L100.7,456.4L100.7,456.4z M112.5,455.2
	l-5.3,12.9h-1.5l1.7-4.2l-3.5-8.7h1.6l2.8,7.1l2.7-7.1L112.5,455.2L112.5,455.2z M115.5,456.7c0.3-0.5,0.6-0.9,1.1-1.2
	c0.5-0.3,1.1-0.4,1.7-0.4v1.5H118c-1.6,0-2.4,0.9-2.4,2.7v4.8h-1.5v-8.8h1.5L115.5,456.7L115.5,456.7z M46,490.6
	c-0.5,0-1-0.2-1.4-0.6s-0.6-0.8-0.6-1.4s0.2-1,0.6-1.4c0.4-0.4,0.8-0.6,1.4-0.6c0.6,0,1,0.2,1.4,0.6s0.6,0.8,0.6,1.4
	c0,0.5-0.2,1-0.6,1.4C47,490.4,46.5,490.6,46,490.6z M69.8,485.1c0.7,0,1.3,0.1,1.8,0.4s1,0.7,1.3,1.3c0.3,0.6,0.5,1.3,0.5,2.1v5.2
	H72v-5c0-0.9-0.2-1.5-0.7-2c-0.4-0.5-1-0.7-1.7-0.7c-0.8,0-1.4,0.2-1.8,0.7s-0.7,1.2-0.7,2.1v4.8h-1.4v-5c0-0.9-0.2-1.5-0.7-2
	c-0.4-0.5-1-0.7-1.7-0.7c-0.8,0-1.4,0.2-1.8,0.7c-0.4,0.5-0.7,1.2-0.7,2.1v4.8h-1.5v-8.8h1.5v1.3c0.3-0.5,0.7-0.8,1.2-1.1
	c0.5-0.2,1-0.4,1.6-0.4c0.7,0,1.4,0.2,2,0.5s1,0.8,1.3,1.5c0.2-0.6,0.7-1.1,1.2-1.4C68.5,485.2,69.1,485.1,69.8,485.1z M83.4,485.2
	l-5.3,12.9h-1.5l1.7-4.2l-3.5-8.7h1.6l2.8,7.1l2.7-7.1L83.4,485.2L83.4,485.2z M88.2,494.1c-0.7,0-1.3-0.1-1.8-0.3
	c-0.5-0.2-1-0.6-1.3-1s-0.5-0.9-0.5-1.4h1.5c0,0.4,0.2,0.8,0.6,1.1c0.4,0.3,0.9,0.4,1.5,0.4s1-0.1,1.3-0.4s0.5-0.6,0.5-0.9
	c0-0.4-0.2-0.7-0.5-0.8c-0.3-0.2-0.9-0.4-1.6-0.6s-1.2-0.3-1.6-0.5s-0.8-0.4-1.1-0.8c-0.3-0.4-0.4-0.8-0.4-1.4
	c0-0.4,0.1-0.9,0.4-1.2c0.3-0.4,0.6-0.7,1.1-0.9c0.5-0.2,1.1-0.3,1.7-0.3c1,0,1.8,0.2,2.4,0.7s0.9,1.2,1,2h-1.5
	c0-0.5-0.2-0.8-0.6-1.1c-0.3-0.3-0.8-0.4-1.3-0.4s-0.9,0.1-1.2,0.3c-0.3,0.2-0.5,0.5-0.5,0.9c0,0.3,0.1,0.5,0.3,0.7
	c0.2,0.2,0.4,0.3,0.7,0.4c0.3,0.1,0.7,0.2,1.2,0.4c0.6,0.2,1.1,0.3,1.5,0.5s0.7,0.4,1,0.7c0.3,0.3,0.4,0.8,0.4,1.3s-0.1,0.9-0.4,1.3
	s-0.6,0.7-1.1,0.9C89.3,494,88.8,494.1,88.2,494.1z M95.3,486.4v5.2c0,0.4,0.1,0.7,0.3,0.9c0.2,0.2,0.5,0.3,0.9,0.3h1.1v1.2h-1.3
	c-0.8,0-1.4-0.2-1.8-0.6s-0.6-1-0.6-1.8v-5.2h-1.1v-1.2h1.1V483h1.5v2.2h2.3v1.2L95.3,486.4L95.3,486.4z M100.3,483.8
	c-0.3,0-0.5-0.1-0.7-0.3c-0.2-0.2-0.3-0.4-0.3-0.7c0-0.3,0.1-0.5,0.3-0.7s0.4-0.3,0.7-0.3c0.3,0,0.5,0.1,0.7,0.3
	c0.2,0.2,0.3,0.4,0.3,0.7c0,0.3-0.1,0.5-0.3,0.7C100.8,483.7,100.6,483.8,100.3,483.8z M101,485.2v8.8h-1.5v-8.8H101z M108.6,494
	l-3.4-3.9v3.9h-1.5v-11.8h1.5v7l3.4-3.9h2l-4.1,4.4l4.1,4.4h-2V494z M46,520.6c-0.5,0-1-0.2-1.4-0.6c-0.4-0.4-0.6-0.8-0.6-1.4
	c0-0.6,0.2-1,0.6-1.4c0.4-0.4,0.8-0.6,1.4-0.6c0.6,0,1,0.2,1.4,0.6c0.4,0.4,0.6,0.8,0.6,1.4c0,0.5-0.2,1-0.6,1.4
	C47,520.4,46.5,520.6,46,520.6z M62.5,522.7l2.7-7.4h1.6l-3.4,8.8h-1.7l-3.4-8.8h1.6L62.5,522.7z M69.1,513.8
	c-0.3,0-0.5-0.1-0.7-0.3s-0.3-0.4-0.3-0.7s0.1-0.5,0.3-0.7c0.2-0.2,0.4-0.3,0.7-0.3c0.3,0,0.5,0.1,0.7,0.3c0.2,0.2,0.3,0.4,0.3,0.7
	s-0.1,0.5-0.3,0.7C69.6,513.7,69.4,513.8,69.1,513.8z M69.8,515.2v8.8h-1.5v-8.8H69.8z M71.9,519.6c0-0.9,0.2-1.7,0.5-2.4
	c0.4-0.7,0.9-1.2,1.5-1.6c0.6-0.4,1.4-0.6,2.1-0.6s1.3,0.2,1.9,0.5s1,0.7,1.3,1.2v-4.6h1.5V524h-1.5v-1.6c-0.3,0.5-0.7,1-1.3,1.3
	c-0.6,0.3-1.2,0.5-2,0.5s-1.5-0.2-2.1-0.6c-0.6-0.4-1.1-0.9-1.5-1.6C72.1,521.3,71.9,520.5,71.9,519.6z M79.3,519.6
	c0-0.7-0.1-1.2-0.4-1.7s-0.6-0.9-1.1-1.1c-0.4-0.3-0.9-0.4-1.5-0.4s-1,0.1-1.5,0.4c-0.4,0.3-0.8,0.6-1.1,1.1
	c-0.3,0.5-0.4,1.1-0.4,1.7c0,0.7,0.1,1.3,0.4,1.8s0.6,0.9,1.1,1.1c0.4,0.3,0.9,0.4,1.5,0.4s1-0.1,1.5-0.4c0.5-0.3,0.8-0.6,1.1-1.1
	C79.2,520.8,79.3,520.3,79.3,519.6z M91.4,519.3c0,0.3,0,0.6,0,0.9h-7c0.1,0.9,0.3,1.5,0.9,2c0.5,0.5,1.2,0.7,2,0.7
	c0.6,0,1.2-0.1,1.6-0.4c0.4-0.3,0.7-0.7,0.9-1.2h1.6c-0.2,0.8-0.7,1.5-1.4,2.1c-0.7,0.5-1.6,0.8-2.6,0.8c-0.8,0-1.6-0.2-2.2-0.6
	c-0.7-0.4-1.2-0.9-1.5-1.6c-0.4-0.7-0.6-1.5-0.6-2.4s0.2-1.7,0.5-2.4c0.4-0.7,0.9-1.2,1.5-1.6c0.7-0.4,1.4-0.6,2.3-0.6
	c0.8,0,1.6,0.2,2.2,0.5c0.6,0.4,1.1,0.9,1.5,1.5C91.3,517.8,91.4,518.5,91.4,519.3z M89.9,519c0-0.6-0.1-1-0.4-1.4
	c-0.2-0.4-0.6-0.7-1-0.9s-0.9-0.3-1.4-0.3c-0.7,0-1.4,0.2-1.9,0.7s-0.8,1.1-0.9,2L89.9,519L89.9,519z M97.8,515.1
	c1.1,0,1.9,0.3,2.6,1c0.7,0.6,1,1.6,1,2.8v5.2H100v-5c0-0.9-0.2-1.5-0.7-2c-0.4-0.5-1-0.7-1.8-0.7s-1.4,0.2-1.8,0.7
	s-0.7,1.2-0.7,2.1v4.8h-1.5v-8.8H95v1.2c0.3-0.4,0.7-0.8,1.2-1C96.6,515.2,97.2,515.1,97.8,515.1z M107,524.1
	c-0.7,0-1.3-0.1-1.8-0.3s-1-0.6-1.3-1s-0.5-0.9-0.5-1.4h1.5c0,0.4,0.2,0.8,0.6,1.1s0.9,0.4,1.5,0.4s1-0.1,1.3-0.4s0.5-0.6,0.5-0.9
	c0-0.4-0.2-0.7-0.5-0.8c-0.3-0.2-0.9-0.4-1.6-0.6c-0.7-0.2-1.2-0.3-1.6-0.5s-0.8-0.4-1.1-0.8c-0.3-0.4-0.4-0.8-0.4-1.4
	c0-0.4,0.1-0.9,0.4-1.2s0.6-0.7,1.1-0.9s1.1-0.3,1.7-0.3c1,0,1.8,0.2,2.4,0.7s0.9,1.2,1,2h-1.5c0-0.5-0.2-0.8-0.6-1.1
	c-0.3-0.3-0.8-0.4-1.3-0.4s-0.9,0.1-1.2,0.3c-0.3,0.2-0.5,0.5-0.5,0.9c0,0.3,0.1,0.5,0.3,0.7c0.2,0.2,0.4,0.3,0.7,0.4
	c0.3,0.1,0.7,0.2,1.2,0.4c0.6,0.2,1.1,0.3,1.5,0.5s0.7,0.4,1,0.7s0.4,0.8,0.4,1.3s-0.1,0.9-0.4,1.3c-0.3,0.4-0.6,0.7-1.1,0.9
	C108.2,524,107.6,524.1,107,524.1z M117.3,524l-3.4-3.9v3.9h-1.5v-11.8h1.5v7l3.4-3.9h2l-4.1,4.4l4.1,4.4h-2V524z M120.3,519.6
	c0-0.9,0.2-1.7,0.5-2.4c0.4-0.7,0.9-1.2,1.5-1.6c0.6-0.4,1.3-0.6,2.1-0.6c0.8,0,1.4,0.2,2,0.5s1,0.7,1.3,1.2v-1.6h1.5v8.8h-1.5v-1.6
	c-0.3,0.5-0.7,0.9-1.3,1.3c-0.6,0.3-1.2,0.5-2,0.5s-1.5-0.2-2.1-0.6c-0.6-0.4-1.1-0.9-1.5-1.6C120.5,521.3,120.3,520.5,120.3,519.6z
	 M127.7,519.6c0-0.7-0.1-1.2-0.4-1.7s-0.6-0.9-1.1-1.1c-0.4-0.3-0.9-0.4-1.5-0.4s-1,0.1-1.5,0.4c-0.4,0.3-0.8,0.6-1.1,1.1
	c-0.3,0.5-0.4,1.1-0.4,1.7c0,0.7,0.1,1.3,0.4,1.8s0.6,0.9,1.1,1.1c0.4,0.3,0.9,0.4,1.5,0.4s1-0.1,1.5-0.4c0.5-0.3,0.8-0.6,1.1-1.1
	C127.6,520.8,127.7,520.3,127.7,519.6z M133.2,516.9c0.3-0.5,0.7-0.9,1.3-1.3c0.6-0.3,1.2-0.5,2-0.5s1.5,0.2,2.1,0.6
	c0.6,0.4,1.1,0.9,1.5,1.6c0.4,0.7,0.5,1.5,0.5,2.4s-0.2,1.7-0.5,2.4c-0.4,0.7-0.9,1.2-1.5,1.6c-0.6,0.4-1.3,0.6-2.1,0.6
	s-1.4-0.2-2-0.5s-1-0.8-1.3-1.3v1.6h-1.5v-11.8h1.5V516.9z M139.2,519.6c0-0.7-0.1-1.2-0.4-1.7c-0.3-0.5-0.6-0.9-1.1-1.1
	c-0.4-0.3-0.9-0.4-1.5-0.4c-0.5,0-1,0.1-1.5,0.4c-0.4,0.3-0.8,0.6-1.1,1.1s-0.4,1.1-0.4,1.7c0,0.7,0.1,1.2,0.4,1.7
	c0.3,0.5,0.6,0.9,1.1,1.1c0.5,0.3,1,0.4,1.5,0.4s1-0.1,1.5-0.4c0.5-0.3,0.8-0.6,1.1-1.1S139.2,520.3,139.2,519.6z"/>
<path class="st11" d="M39,575.7h265c2.8,0,5,2.2,5,5v21.6c0,2.8-2.2,5-5,5H39c-2.8,0-5-2.2-5-5v-21.6C34,578,36.2,575.7,39,575.7z"
	/>
<path class="st7" d="M128.3,595.3h4v2.4h-7.1v-12.6h3.1V595.3z M145.4,587.5v2.6h4v2.3h-4v2.8h4.6v2.4h-7.6v-2.1h-4.2l-1.1,2.1h-3.3
	l6.5-12.6h9.7v2.4L145.4,587.5L145.4,587.5z M142.3,593.3v-5.9l-3,5.9H142.3z M157.4,597.8c-0.9,0-1.8-0.1-2.5-0.5
	c-0.7-0.3-1.3-0.7-1.8-1.3c-0.4-0.6-0.7-1.3-0.7-2.1h3.3c0,0.5,0.2,0.8,0.5,1.1c0.3,0.2,0.6,0.4,1.1,0.4s0.8-0.1,1.1-0.3
	s0.4-0.5,0.4-0.9c0-0.3-0.1-0.6-0.3-0.8s-0.5-0.4-0.8-0.5s-0.7-0.3-1.3-0.4c-0.8-0.3-1.5-0.5-2-0.8s-1-0.6-1.3-1.1s-0.6-1.1-0.6-1.9
	c0-1.2,0.4-2.1,1.3-2.8c0.9-0.7,2-1,3.3-1c1.4,0,2.5,0.3,3.4,1s1.3,1.6,1.4,2.8h-3.3c0-0.4-0.2-0.7-0.4-1c-0.3-0.2-0.6-0.4-1.1-0.4
	c-0.4,0-0.7,0.1-0.9,0.3s-0.3,0.5-0.3,0.8c0,0.4,0.2,0.7,0.6,1c0.4,0.2,1,0.5,1.8,0.7c0.8,0.3,1.5,0.5,2,0.8s1,0.6,1.3,1.1
	c0.4,0.5,0.6,1.1,0.6,1.9c0,0.7-0.2,1.4-0.6,2c-0.4,0.6-0.9,1.1-1.6,1.4C159.2,597.7,158.4,597.8,157.4,597.8z M183.8,585.1v12.6
	h-3.1v-7.6l-2.8,7.6h-2.5l-2.8-7.6v7.6h-3.1v-12.6h3.6l3.5,8.7l3.5-8.7H183.8z M190,587.6v2.6h4.1v2.4H190v2.8h4.7v2.5H187v-12.6
	h7.7v2.5H190V587.6z M204,597.7l-2.6-4.8h-0.7v4.8h-3.1v-12.6h5.2c1,0,1.8,0.2,2.5,0.5s1.2,0.8,1.6,1.4c0.3,0.6,0.5,1.3,0.5,2
	c0,0.8-0.2,1.6-0.7,2.2c-0.5,0.7-1.2,1.1-2.1,1.4l2.9,5L204,597.7L204,597.7z M200.7,590.8h1.9c0.6,0,1-0.1,1.3-0.4
	c0.3-0.3,0.4-0.7,0.4-1.2s-0.1-0.9-0.4-1.1c-0.3-0.3-0.7-0.4-1.3-0.4h-1.9V590.8z M213.3,587.6v2.6h4.1v2.4h-4.1v2.8h4.7v2.5h-7.7
	v-12.6h7.7v2.5h-4.7V587.6z"/>
<path d="M41.3,313l-4.6-5.1v5.1h-1.5v-11.2h1.5v5.2l4.6-5.2h1.8l-5.1,5.6l5.1,5.6H41.3z M48.6,313.1c-0.8,0-1.6-0.2-2.2-0.6
	c-0.7-0.4-1.2-0.9-1.6-1.6c-0.4-0.7-0.6-1.5-0.6-2.4s0.2-1.7,0.6-2.4c0.4-0.7,0.9-1.2,1.6-1.6c0.7-0.4,1.4-0.6,2.3-0.6
	s1.6,0.2,2.3,0.6s1.2,0.9,1.6,1.6c0.4,0.7,0.6,1.5,0.6,2.4s-0.2,1.7-0.6,2.4c-0.4,0.7-0.9,1.2-1.6,1.6
	C50.2,313,49.5,313.1,48.6,313.1z M48.6,311.9c0.5,0,1-0.1,1.5-0.4c0.5-0.2,0.8-0.6,1.1-1.1s0.4-1.1,0.4-1.8c0-0.7-0.1-1.3-0.4-1.8
	c-0.3-0.5-0.6-0.9-1.1-1.1c-0.4-0.2-0.9-0.4-1.5-0.4c-0.5,0-1,0.1-1.5,0.4c-0.4,0.2-0.8,0.6-1.1,1.1s-0.4,1.1-0.4,1.8
	c0,0.7,0.1,1.3,0.4,1.8c0.3,0.5,0.6,0.9,1.1,1.1S48.1,311.9,48.6,311.9z M65.6,304.1c0.7,0,1.3,0.1,1.8,0.4s1,0.7,1.3,1.3
	c0.3,0.6,0.5,1.3,0.5,2.1v5.2h-1.4v-5c0-0.9-0.2-1.5-0.7-2c-0.4-0.5-1-0.7-1.7-0.7c-0.8,0-1.4,0.2-1.8,0.7c-0.4,0.5-0.7,1.2-0.7,2.1
	v4.8h-1.4v-5c0-0.9-0.2-1.5-0.7-2c-0.4-0.5-1-0.7-1.7-0.7c-0.8,0-1.4,0.2-1.8,0.7c-0.4,0.5-0.7,1.2-0.7,2.1v4.8H55v-8.8h1.5v1.3
	c0.3-0.5,0.7-0.8,1.2-1.1c0.5-0.2,1-0.4,1.6-0.4c0.7,0,1.4,0.2,2,0.5s1,0.8,1.3,1.5c0.2-0.6,0.7-1.1,1.2-1.4
	C64.3,304.2,64.9,304.1,65.6,304.1z M77.3,305.8c0.3-0.5,0.7-0.9,1.3-1.2c0.6-0.3,1.2-0.5,2-0.5s1.5,0.2,2.1,0.6s1.1,0.9,1.5,1.6
	s0.5,1.5,0.5,2.4s-0.2,1.7-0.5,2.4s-0.9,1.2-1.5,1.6s-1.3,0.6-2.1,0.6c-0.7,0-1.4-0.2-2-0.5s-1-0.8-1.3-1.3v5.8h-1.5v-12.9h1.5
	V305.8z M83.2,308.6c0-0.7-0.1-1.2-0.4-1.7s-0.6-0.9-1.1-1.1c-0.4-0.3-0.9-0.4-1.5-0.4c-0.5,0-1,0.1-1.5,0.4
	c-0.4,0.3-0.8,0.6-1.1,1.1c-0.3,0.5-0.4,1.1-0.4,1.7c0,0.7,0.1,1.2,0.4,1.7s0.6,0.9,1.1,1.1c0.5,0.3,1,0.4,1.5,0.4s1-0.1,1.5-0.4
	s0.8-0.6,1.1-1.1C83.1,309.8,83.2,309.3,83.2,308.6z M86.1,308.6c0-0.9,0.2-1.7,0.5-2.4c0.4-0.7,0.9-1.2,1.5-1.6s1.3-0.6,2.1-0.6
	c0.8,0,1.4,0.2,2,0.5s1,0.7,1.3,1.2v-1.6H95v8.8h-1.5v-1.6c-0.3,0.5-0.7,0.9-1.3,1.3c-0.6,0.3-1.2,0.5-2,0.5s-1.5-0.2-2.1-0.6
	s-1.1-0.9-1.5-1.6S86.1,309.5,86.1,308.6z M93.5,308.6c0-0.7-0.1-1.2-0.4-1.7s-0.6-0.9-1.1-1.1c-0.4-0.3-0.9-0.4-1.5-0.4
	s-1,0.1-1.5,0.4c-0.4,0.3-0.8,0.6-1.1,1.1c-0.3,0.5-0.4,1.1-0.4,1.7c0,0.7,0.1,1.3,0.4,1.8s0.6,0.9,1.1,1.1c0.4,0.3,0.9,0.4,1.5,0.4
	s1-0.1,1.5-0.4s0.8-0.6,1.1-1.1C93.4,309.8,93.5,309.3,93.5,308.6z M92.5,301.6c0,0.5-0.2,0.9-0.5,1.2c-0.3,0.3-0.7,0.4-1.2,0.4
	s-0.9-0.2-1.2-0.5c-0.3-0.3-0.5-0.7-0.5-1.2s0.2-0.9,0.5-1.2c0.3-0.3,0.7-0.5,1.2-0.5s0.9,0.2,1.2,0.5
	C92.3,300.7,92.5,301.1,92.5,301.6z M91.7,301.6c0-0.3-0.1-0.5-0.3-0.6c-0.2-0.2-0.4-0.3-0.6-0.3s-0.5,0.1-0.6,0.3
	c-0.2,0.2-0.2,0.4-0.2,0.6s0.1,0.5,0.2,0.7c0.2,0.2,0.4,0.3,0.6,0.3s0.4-0.1,0.6-0.3C91.6,302.1,91.7,301.9,91.7,301.6z
	 M104.8,313.1c-0.7,0-1.3-0.1-1.8-0.3c-0.5-0.2-1-0.6-1.3-1s-0.5-0.9-0.5-1.4h1.5c0,0.4,0.2,0.8,0.6,1.1c0.4,0.3,0.9,0.4,1.5,0.4
	s1-0.1,1.3-0.4s0.5-0.6,0.5-0.9c0-0.4-0.2-0.7-0.5-0.8c-0.3-0.2-0.9-0.4-1.6-0.6s-1.2-0.3-1.6-0.5s-0.8-0.4-1.1-0.8
	c-0.3-0.4-0.4-0.8-0.4-1.4c0-0.4,0.1-0.9,0.4-1.2c0.3-0.4,0.6-0.7,1.1-0.9c0.5-0.2,1.1-0.3,1.7-0.3c1,0,1.8,0.2,2.4,0.7s0.9,1.2,1,2
	h-1.5c0-0.5-0.2-0.8-0.6-1.1c-0.3-0.3-0.8-0.4-1.3-0.4s-0.9,0.1-1.2,0.3c-0.3,0.2-0.5,0.5-0.5,0.9c0,0.3,0.1,0.5,0.3,0.7
	c0.2,0.2,0.4,0.3,0.7,0.4c0.3,0.1,0.7,0.2,1.2,0.4c0.6,0.2,1.1,0.3,1.5,0.5s0.7,0.4,1,0.7c0.3,0.3,0.4,0.8,0.4,1.3s-0.1,0.9-0.4,1.3
	s-0.6,0.7-1.1,0.9C106,313,105.4,313.1,104.8,313.1z M111.5,305.8c0.3-0.5,0.7-0.9,1.3-1.2c0.6-0.3,1.2-0.5,2-0.5s1.5,0.2,2.1,0.6
	s1.1,0.9,1.5,1.6s0.5,1.5,0.5,2.4s-0.2,1.7-0.5,2.4c-0.4,0.7-0.9,1.2-1.5,1.6s-1.3,0.6-2.1,0.6c-0.7,0-1.4-0.2-2-0.5s-1-0.8-1.3-1.3
	v5.8H110v-12.9h1.5V305.8z M117.5,308.6c0-0.7-0.1-1.2-0.4-1.7s-0.6-0.9-1.1-1.1c-0.4-0.3-0.9-0.4-1.5-0.4c-0.5,0-1,0.1-1.5,0.4
	c-0.4,0.3-0.8,0.6-1.1,1.1c-0.3,0.5-0.4,1.1-0.4,1.7c0,0.7,0.1,1.2,0.4,1.7s0.6,0.9,1.1,1.1c0.5,0.3,1,0.4,1.5,0.4s1-0.1,1.5-0.4
	s0.8-0.6,1.1-1.1C117.3,309.8,117.5,309.3,117.5,308.6z M124.7,313.1c-0.8,0-1.6-0.2-2.2-0.6c-0.7-0.4-1.2-0.9-1.6-1.6
	s-0.6-1.5-0.6-2.4s0.2-1.7,0.6-2.4c0.4-0.7,0.9-1.2,1.6-1.6s1.4-0.6,2.3-0.6s1.6,0.2,2.3,0.6c0.7,0.4,1.2,0.9,1.6,1.6
	c0.4,0.7,0.6,1.5,0.6,2.4s-0.2,1.7-0.6,2.4c-0.4,0.7-0.9,1.2-1.6,1.6C126.3,313,125.5,313.1,124.7,313.1z M124.7,311.9
	c0.5,0,1-0.1,1.5-0.4s0.8-0.6,1.1-1.1c0.3-0.5,0.4-1.1,0.4-1.8c0-0.7-0.1-1.3-0.4-1.8s-0.6-0.9-1.1-1.1c-0.4-0.2-0.9-0.4-1.5-0.4
	c-0.5,0-1,0.1-1.5,0.4c-0.4,0.2-0.8,0.6-1.1,1.1c-0.3,0.5-0.4,1.1-0.4,1.8c0,0.7,0.1,1.3,0.4,1.8s0.6,0.9,1.1,1.1
	S124.2,311.9,124.7,311.9z M132.5,305.7c0.3-0.5,0.6-0.9,1.1-1.2c0.5-0.3,1.1-0.4,1.7-0.4v1.5H135c-1.6,0-2.4,0.9-2.4,2.7v4.8h-1.5
	v-8.8h1.5v1.4H132.5z M145.1,308.3c0,0.3,0,0.6,0,0.9h-7c0.1,0.9,0.3,1.5,0.9,2c0.5,0.5,1.2,0.7,2,0.7c0.6,0,1.2-0.1,1.6-0.4
	c0.4-0.3,0.7-0.7,0.9-1.2h1.6c-0.2,0.8-0.7,1.5-1.4,2.1c-0.7,0.5-1.6,0.8-2.6,0.8c-0.8,0-1.6-0.2-2.2-0.6c-0.7-0.4-1.2-0.9-1.5-1.6
	c-0.4-0.7-0.6-1.5-0.6-2.4s0.2-1.7,0.5-2.4c0.4-0.7,0.9-1.2,1.5-1.6c0.7-0.4,1.4-0.6,2.3-0.6c0.8,0,1.6,0.2,2.2,0.5
	c0.6,0.4,1.1,0.9,1.5,1.5C144.9,306.8,145.1,307.5,145.1,308.3z M143.6,308c0-0.6-0.1-1-0.4-1.4c-0.2-0.4-0.6-0.7-1-0.9
	c-0.4-0.2-0.9-0.3-1.4-0.3c-0.7,0-1.4,0.2-1.9,0.7s-0.8,1.1-0.9,2h5.6V308z M148.8,305.4v5.2c0,0.4,0.1,0.7,0.3,0.9
	c0.2,0.2,0.5,0.3,0.9,0.3h1.1v1.2h-1.3c-0.8,0-1.4-0.2-1.8-0.6c-0.4-0.4-0.6-1-0.6-1.8v-5.2h-1.1v-1.2h1.1V302h1.5v2.2h2.3v1.2
	L148.8,305.4L148.8,305.4z M156.5,308.6c0-0.9,0.2-1.7,0.5-2.4c0.4-0.7,0.9-1.2,1.5-1.6s1.3-0.6,2.1-0.6s1.4,0.2,2,0.5
	s1,0.7,1.3,1.2v-1.6h1.5v8.8H164v-1.6c-0.3,0.5-0.7,0.9-1.3,1.3c-0.6,0.3-1.2,0.5-2,0.5s-1.5-0.2-2.1-0.6s-1.1-0.9-1.5-1.6
	C156.7,310.3,156.5,309.5,156.5,308.6z M164,308.6c0-0.7-0.1-1.2-0.4-1.7c-0.3-0.5-0.6-0.9-1.1-1.1c-0.4-0.3-0.9-0.4-1.5-0.4
	c-0.5,0-1,0.1-1.5,0.4c-0.4,0.3-0.8,0.6-1.1,1.1s-0.4,1.1-0.4,1.7c0,0.7,0.1,1.3,0.4,1.8c0.3,0.5,0.6,0.9,1.1,1.1
	c0.4,0.3,0.9,0.4,1.5,0.4c0.5,0,1-0.1,1.5-0.4s0.8-0.6,1.1-1.1C163.8,309.8,164,309.3,164,308.6z M171.5,305.4h-1.8v7.6h-1.5v-7.6
	H167v-1.2h1.1v-0.6c0-1,0.3-1.7,0.8-2.1c0.5-0.5,1.3-0.7,2.4-0.7v1.2c-0.6,0-1.1,0.1-1.4,0.4c-0.3,0.2-0.4,0.7-0.4,1.2v0.6h1.8v1.2
	H171.5z M184,310.5h-4.9l-0.9,2.5h-1.5l4-11.1h1.7l4,11.1h-1.5L184,310.5z M183.6,309.3l-2-5.6l-2,5.6H183.6z M189.7,301.2V313h-1.5
	v-11.8H189.7z M193.6,305.9c0.3-0.5,0.7-0.9,1.3-1.3c0.6-0.3,1.2-0.5,2-0.5s1.5,0.2,2.1,0.6s1.1,0.9,1.5,1.6s0.5,1.5,0.5,2.4
	s-0.2,1.7-0.5,2.4c-0.4,0.7-0.9,1.2-1.5,1.6s-1.3,0.6-2.1,0.6s-1.4-0.2-2-0.5s-1-0.8-1.3-1.3v1.6h-1.5v-11.8h1.5V305.9z
	 M199.5,308.6c0-0.7-0.1-1.2-0.4-1.7c-0.3-0.5-0.6-0.9-1.1-1.1c-0.4-0.3-0.9-0.4-1.5-0.4c-0.5,0-1,0.1-1.5,0.4
	c-0.4,0.3-0.8,0.6-1.1,1.1s-0.4,1.1-0.4,1.7c0,0.7,0.1,1.2,0.4,1.7c0.3,0.5,0.6,0.9,1.1,1.1c0.5,0.3,1,0.4,1.5,0.4s1-0.1,1.5-0.4
	s0.8-0.6,1.1-1.1C199.4,309.8,199.5,309.3,199.5,308.6z M211,308.3c0,0.3,0,0.6,0,0.9h-7c0.1,0.9,0.3,1.5,0.9,2
	c0.5,0.5,1.2,0.7,2,0.7c0.6,0,1.2-0.1,1.6-0.4c0.4-0.3,0.7-0.7,0.9-1.2h1.6c-0.2,0.8-0.7,1.5-1.4,2.1c-0.7,0.5-1.6,0.8-2.6,0.8
	c-0.8,0-1.6-0.2-2.2-0.6c-0.7-0.4-1.2-0.9-1.5-1.6c-0.4-0.7-0.6-1.5-0.6-2.4s0.2-1.7,0.5-2.4c0.4-0.7,0.9-1.2,1.5-1.6
	c0.7-0.4,1.4-0.6,2.3-0.6c0.8,0,1.6,0.2,2.2,0.5c0.6,0.4,1.1,0.9,1.5,1.5C210.8,306.8,211,307.5,211,308.3z M209.4,308
	c0-0.6-0.1-1-0.4-1.4c-0.2-0.4-0.6-0.7-1-0.9c-0.4-0.2-0.9-0.3-1.4-0.3c-0.7,0-1.4,0.2-1.9,0.7s-0.8,1.1-0.9,2h5.6V308z
	 M214.3,305.7c0.3-0.5,0.6-0.9,1.1-1.2c0.5-0.3,1.1-0.4,1.7-0.4v1.5h-0.4c-1.6,0-2.4,0.9-2.4,2.7v4.8h-1.5v-8.8h1.5L214.3,305.7
	L214.3,305.7z M220.6,305.4v5.2c0,0.4,0.1,0.7,0.3,0.9c0.2,0.2,0.5,0.3,0.9,0.3h1.1v1.2h-1.3c-0.8,0-1.4-0.2-1.8-0.6
	c-0.4-0.4-0.6-1-0.6-1.8v-5.2H218v-1.2h1.1V302h1.5v2.2h2.3v1.2L220.6,305.4L220.6,305.4z M230.4,303v3.7h4.1v1.2h-4.1v3.8h4.5v1.2
	h-6v-11.2h6v1.2L230.4,303L230.4,303z M237.9,302.8c-0.3,0-0.5-0.1-0.7-0.3c-0.2-0.2-0.3-0.4-0.3-0.7c0-0.3,0.1-0.5,0.3-0.7
	s0.4-0.3,0.7-0.3s0.5,0.1,0.7,0.3c0.2,0.2,0.3,0.4,0.3,0.7c0,0.3-0.1,0.5-0.3,0.7S238.2,302.8,237.9,302.8z M238.6,304.2v8.8h-1.5
	v-8.8H238.6z M245.3,304.1c1.1,0,1.9,0.3,2.6,1c0.7,0.6,1,1.6,1,2.8v5.2h-1.4v-5c0-0.9-0.2-1.5-0.7-2c-0.4-0.5-1-0.7-1.8-0.7
	s-1.4,0.2-1.8,0.7c-0.4,0.5-0.7,1.2-0.7,2.1v4.8H241v-8.8h1.5v1.2c0.3-0.4,0.7-0.8,1.2-1C244.2,304.2,244.8,304.1,245.3,304.1z
	 M254.4,313.1c-0.7,0-1.3-0.1-1.8-0.3c-0.5-0.2-1-0.6-1.3-1s-0.5-0.9-0.5-1.4h1.5c0,0.4,0.2,0.8,0.6,1.1c0.4,0.3,0.9,0.4,1.5,0.4
	s1-0.1,1.3-0.4c0.3-0.2,0.5-0.6,0.5-0.9c0-0.4-0.2-0.7-0.5-0.8c-0.3-0.2-0.9-0.4-1.6-0.6c-0.7-0.2-1.2-0.3-1.6-0.5
	c-0.4-0.2-0.8-0.4-1.1-0.8s-0.4-0.8-0.4-1.4c0-0.4,0.1-0.9,0.4-1.2c0.3-0.4,0.6-0.7,1.1-0.9c0.5-0.2,1.1-0.3,1.7-0.3
	c1,0,1.8,0.2,2.4,0.7s0.9,1.2,1,2h-1.5c0-0.5-0.2-0.8-0.6-1.1c-0.3-0.3-0.8-0.4-1.3-0.4s-0.9,0.1-1.2,0.3c-0.3,0.2-0.5,0.5-0.5,0.9
	c0,0.3,0.1,0.5,0.3,0.7s0.4,0.3,0.7,0.4s0.7,0.2,1.2,0.4c0.6,0.2,1.1,0.3,1.5,0.5c0.4,0.2,0.7,0.4,1,0.7c0.3,0.3,0.4,0.8,0.4,1.3
	s-0.1,0.9-0.4,1.3s-0.6,0.7-1.1,0.9C255.6,313,255,313.1,254.4,313.1z M261.4,305.4v5.2c0,0.4,0.1,0.7,0.3,0.9
	c0.2,0.2,0.5,0.3,0.9,0.3h1.1v1.2h-1.3c-0.8,0-1.4-0.2-1.8-0.6s-0.6-1-0.6-1.8v-5.2h-1.1v-1.2h1.1V302h1.5v2.2h2.3v1.2L261.4,305.4
	L261.4,305.4z M273.5,308.3c0,0.3,0,0.6,0,0.9h-7c0.1,0.9,0.3,1.5,0.9,2c0.5,0.5,1.2,0.7,2,0.7c0.6,0,1.2-0.1,1.6-0.4
	s0.7-0.7,0.9-1.2h1.6c-0.2,0.8-0.7,1.5-1.4,2.1c-0.7,0.5-1.6,0.8-2.6,0.8c-0.8,0-1.6-0.2-2.2-0.6c-0.7-0.4-1.2-0.9-1.5-1.6
	c-0.4-0.7-0.6-1.5-0.6-2.4s0.2-1.7,0.5-2.4c0.4-0.7,0.9-1.2,1.5-1.6c0.7-0.4,1.4-0.6,2.3-0.6c0.8,0,1.6,0.2,2.2,0.5
	c0.6,0.4,1.1,0.9,1.5,1.5C273.3,306.8,273.5,307.5,273.5,308.3z M272,308c0-0.6-0.1-1-0.4-1.4c-0.2-0.4-0.6-0.7-1-0.9
	c-0.4-0.2-0.9-0.3-1.4-0.3c-0.7,0-1.4,0.2-1.9,0.7s-0.8,1.1-0.9,2h5.6V308z M276.2,302.8c-0.3,0-0.5-0.1-0.7-0.3
	c-0.2-0.2-0.3-0.4-0.3-0.7c0-0.3,0.1-0.5,0.3-0.7c0.2-0.2,0.4-0.3,0.7-0.3c0.3,0,0.5,0.1,0.7,0.3c0.2,0.2,0.3,0.4,0.3,0.7
	c0,0.3-0.1,0.5-0.3,0.7C276.7,302.7,276.4,302.8,276.2,302.8z M276.9,304.2v8.8h-1.5v-8.8H276.9z M283.6,304.1c1.1,0,1.9,0.3,2.6,1
	c0.7,0.6,1,1.6,1,2.8v5.2h-1.4v-5c0-0.9-0.2-1.5-0.7-2c-0.4-0.5-1-0.7-1.8-0.7s-1.4,0.2-1.8,0.7s-0.7,1.2-0.7,2.1v4.8h-1.5v-8.8h1.5
	v1.2c0.3-0.4,0.7-0.8,1.2-1C282.5,304.2,283,304.1,283.6,304.1z M292.7,313.1c-0.7,0-1.3-0.1-1.8-0.3c-0.5-0.2-1-0.6-1.3-1
	s-0.5-0.9-0.5-1.4h1.5c0,0.4,0.2,0.8,0.6,1.1c0.4,0.3,0.9,0.4,1.5,0.4s1-0.1,1.3-0.4s0.5-0.6,0.5-0.9c0-0.4-0.2-0.7-0.5-0.8
	c-0.3-0.2-0.9-0.4-1.6-0.6c-0.6-0.2-1.2-0.3-1.6-0.5s-0.8-0.4-1.1-0.8c-0.3-0.4-0.4-0.8-0.4-1.4c0-0.4,0.1-0.9,0.4-1.2
	c0.3-0.4,0.6-0.7,1.1-0.9c0.5-0.2,1.1-0.3,1.7-0.3c1,0,1.8,0.2,2.4,0.7s0.9,1.2,1,2h-1.5c0-0.5-0.2-0.8-0.6-1.1
	c-0.3-0.3-0.8-0.4-1.3-0.4s-0.9,0.1-1.2,0.3c-0.3,0.2-0.5,0.5-0.5,0.9c0,0.3,0.1,0.5,0.3,0.7c0.2,0.2,0.4,0.3,0.7,0.4
	c0.3,0.1,0.7,0.2,1.2,0.4c0.6,0.2,1.1,0.3,1.5,0.5s0.7,0.4,1,0.7c0.3,0.3,0.4,0.8,0.4,1.3s-0.1,0.9-0.4,1.3s-0.6,0.7-1.1,0.9
	C293.9,313,293.3,313.1,292.7,313.1z M45.8,330.1c0.7,0,1.3,0.1,1.8,0.4s1,0.7,1.3,1.3c0.3,0.6,0.5,1.3,0.5,2.1v5.2H48v-5
	c0-0.9-0.2-1.5-0.7-2c-0.4-0.5-1-0.7-1.7-0.7c-0.8,0-1.4,0.2-1.8,0.7c-0.4,0.5-0.7,1.2-0.7,2.1v4.8h-1.4v-5c0-0.9-0.2-1.5-0.7-2
	c-0.4-0.5-1-0.7-1.7-0.7c-0.8,0-1.4,0.2-1.8,0.7c-0.4,0.5-0.7,1.2-0.7,2.1v4.8h-1.5v-8.8h1.5v1.3c0.3-0.5,0.7-0.8,1.2-1.1
	c0.5-0.2,1-0.4,1.6-0.4c0.7,0,1.4,0.2,2,0.5s1,0.8,1.3,1.5c0.2-0.6,0.7-1.1,1.2-1.4C44.5,330.2,45.1,330.1,45.8,330.1z M59.7,334.3
	c0,0.3,0,0.6,0,0.9h-7c0.1,0.9,0.3,1.5,0.9,2c0.5,0.5,1.2,0.7,2,0.7c0.6,0,1.2-0.1,1.6-0.4c0.4-0.3,0.7-0.7,0.9-1.2h1.6
	c-0.2,0.8-0.7,1.5-1.4,2.1c-0.7,0.5-1.6,0.8-2.6,0.8c-0.8,0-1.6-0.2-2.2-0.6c-0.7-0.4-1.2-0.9-1.5-1.6c-0.4-0.7-0.6-1.5-0.6-2.4
	s0.2-1.7,0.5-2.4c0.4-0.7,0.9-1.2,1.5-1.6c0.7-0.4,1.4-0.6,2.3-0.6c0.8,0,1.6,0.2,2.2,0.5c0.6,0.4,1.1,0.9,1.5,1.5
	C59.5,332.8,59.7,333.5,59.7,334.3z M58.2,334c0-0.6-0.1-1-0.4-1.4c-0.2-0.4-0.6-0.7-1-0.9c-0.4-0.2-0.9-0.3-1.4-0.3
	c-0.7,0-1.4,0.2-1.9,0.7s-0.8,1.1-0.9,2h5.6V334z M64.7,339.1c-0.7,0-1.3-0.1-1.8-0.3c-0.5-0.2-1-0.6-1.3-1s-0.5-0.9-0.5-1.4h1.5
	c0,0.4,0.2,0.8,0.6,1.1c0.4,0.3,0.9,0.4,1.5,0.4s1-0.1,1.3-0.4s0.5-0.6,0.5-0.9c0-0.4-0.2-0.7-0.5-0.8c-0.3-0.2-0.9-0.4-1.6-0.6
	c-0.7-0.2-1.2-0.3-1.6-0.5c-0.4-0.2-0.8-0.4-1.1-0.8s-0.4-0.8-0.4-1.4c0-0.4,0.1-0.9,0.4-1.2c0.3-0.4,0.6-0.7,1.1-0.9
	c0.5-0.2,1.1-0.3,1.7-0.3c1,0,1.8,0.2,2.4,0.7s0.9,1.2,1,2h-1.5c0-0.5-0.2-0.8-0.6-1.1c-0.3-0.3-0.8-0.4-1.3-0.4s-0.9,0.1-1.2,0.3
	c-0.3,0.2-0.5,0.5-0.5,0.9c0,0.3,0.1,0.5,0.3,0.7s0.4,0.3,0.7,0.4s0.7,0.2,1.2,0.4c0.6,0.2,1.1,0.3,1.5,0.5s0.7,0.4,1,0.7
	c0.3,0.3,0.4,0.8,0.4,1.3s-0.1,0.9-0.4,1.3s-0.6,0.7-1.1,0.9C65.9,339,65.4,339.1,64.7,339.1z M71.8,331.4v5.2
	c0,0.4,0.1,0.7,0.3,0.9c0.2,0.2,0.5,0.3,0.9,0.3h1.1v1.2h-1.3c-0.8,0-1.4-0.2-1.8-0.6s-0.6-1-0.6-1.8v-5.2h-1.1v-1.2h1.1V328h1.5
	v2.2h2.3v1.2L71.8,331.4L71.8,331.4z M83.4,337.7l2.7-7.4h1.6l-3.4,8.8h-1.7l-3.4-8.8h1.6L83.4,337.7z M97.1,334.3
	c0,0.3,0,0.6,0,0.9h-7c0.1,0.9,0.3,1.5,0.9,2c0.5,0.5,1.2,0.7,2,0.7c0.6,0,1.2-0.1,1.6-0.4s0.7-0.7,0.9-1.2h1.6
	c-0.2,0.8-0.7,1.5-1.4,2.1c-0.7,0.5-1.6,0.8-2.6,0.8c-0.8,0-1.6-0.2-2.2-0.6c-0.7-0.4-1.2-0.9-1.5-1.6c-0.4-0.7-0.6-1.5-0.6-2.4
	s0.2-1.7,0.5-2.4c0.4-0.7,0.9-1.2,1.5-1.6c0.7-0.4,1.4-0.6,2.3-0.6c0.8,0,1.6,0.2,2.2,0.5c0.6,0.4,1.1,0.9,1.5,1.5
	C96.9,332.8,97.1,333.5,97.1,334.3z M95.6,334c0-0.6-0.1-1-0.4-1.4c-0.2-0.4-0.6-0.7-1-0.9c-0.4-0.2-0.9-0.3-1.4-0.3
	c-0.7,0-1.4,0.2-1.9,0.7s-0.8,1.1-0.9,2h5.6V334z M100.4,327.2V339H99v-11.8H100.4z M104.4,331.9c0.3-0.5,0.7-0.9,1.3-1.3
	c0.6-0.3,1.2-0.5,2-0.5s1.5,0.2,2.1,0.6s1.1,0.9,1.5,1.6s0.5,1.5,0.5,2.4s-0.2,1.7-0.5,2.4c-0.4,0.7-0.9,1.2-1.5,1.6
	s-1.3,0.6-2.1,0.6c-0.8,0-1.4-0.2-2-0.5s-1-0.8-1.3-1.3v1.6h-1.5v-11.8h1.5V331.9z M110.3,334.6c0-0.7-0.1-1.2-0.4-1.7
	s-0.6-0.9-1.1-1.1c-0.4-0.3-0.9-0.4-1.5-0.4c-0.5,0-1,0.1-1.5,0.4c-0.4,0.3-0.8,0.6-1.1,1.1c-0.3,0.5-0.4,1.1-0.4,1.7
	c0,0.7,0.1,1.2,0.4,1.7s0.6,0.9,1.1,1.1c0.5,0.3,1,0.4,1.5,0.4s1-0.1,1.5-0.4s0.8-0.6,1.1-1.1C110.2,335.8,110.3,335.3,110.3,334.6z
	 M121.7,334.3c0,0.3,0,0.6,0,0.9h-7c0.1,0.9,0.3,1.5,0.9,2c0.5,0.5,1.2,0.7,2,0.7c0.6,0,1.2-0.1,1.6-0.4s0.7-0.7,0.9-1.2h1.6
	c-0.2,0.8-0.7,1.5-1.4,2.1c-0.7,0.5-1.6,0.8-2.6,0.8c-0.8,0-1.6-0.2-2.2-0.6c-0.7-0.4-1.2-0.9-1.5-1.6c-0.4-0.7-0.6-1.5-0.6-2.4
	s0.2-1.7,0.5-2.4c0.4-0.7,0.9-1.2,1.5-1.6c0.7-0.4,1.4-0.6,2.3-0.6c0.8,0,1.6,0.2,2.2,0.5c0.6,0.4,1.1,0.9,1.5,1.5
	C121.6,332.8,121.7,333.5,121.7,334.3z M120.2,334c0-0.6-0.1-1-0.4-1.4c-0.2-0.4-0.6-0.7-1-0.9c-0.4-0.2-0.9-0.3-1.4-0.3
	c-0.7,0-1.4,0.2-1.9,0.7s-0.8,1.1-0.9,2h5.6V334z M126.9,337.7l2.7-7.4h1.6l-3.4,8.8h-1.7l-3.4-8.8h1.6L126.9,337.7z M132.1,334.6
	c0-0.9,0.2-1.7,0.5-2.4c0.4-0.7,0.9-1.2,1.5-1.6s1.3-0.6,2.1-0.6s1.4,0.2,2,0.5s1,0.7,1.3,1.2v-1.6h1.5v8.8h-1.5v-1.6
	c-0.3,0.5-0.7,0.9-1.3,1.3c-0.6,0.3-1.2,0.5-2,0.5s-1.5-0.2-2.1-0.6s-1.1-0.9-1.5-1.6C132.3,336.3,132.1,335.5,132.1,334.6z
	 M139.5,334.6c0-0.7-0.1-1.2-0.4-1.7c-0.3-0.5-0.6-0.9-1.1-1.1c-0.4-0.3-0.9-0.4-1.5-0.4c-0.5,0-1,0.1-1.5,0.4
	c-0.4,0.3-0.8,0.6-1.1,1.1s-0.4,1.1-0.4,1.7c0,0.7,0.1,1.3,0.4,1.8c0.3,0.5,0.6,0.9,1.1,1.1c0.4,0.3,0.9,0.4,1.5,0.4
	c0.5,0,1-0.1,1.5-0.4s0.8-0.6,1.1-1.1C139.4,335.8,139.5,335.3,139.5,334.6z M144.9,331.7c0.3-0.5,0.6-0.9,1.1-1.2
	c0.5-0.3,1.1-0.4,1.7-0.4v1.5h-0.4c-1.6,0-2.4,0.9-2.4,2.7v4.8h-1.5v-8.8h1.5L144.9,331.7L144.9,331.7z M157.4,334.3
	c0,0.3,0,0.6,0,0.9h-7c0.1,0.9,0.3,1.5,0.9,2c0.5,0.5,1.2,0.7,2,0.7c0.6,0,1.2-0.1,1.6-0.4c0.4-0.3,0.7-0.7,0.9-1.2h1.6
	c-0.2,0.8-0.7,1.5-1.4,2.1c-0.7,0.5-1.6,0.8-2.6,0.8c-0.8,0-1.6-0.2-2.2-0.6c-0.7-0.4-1.2-0.9-1.5-1.6c-0.4-0.7-0.6-1.5-0.6-2.4
	s0.2-1.7,0.5-2.4c0.4-0.7,0.9-1.2,1.5-1.6c0.7-0.4,1.4-0.6,2.3-0.6c0.8,0,1.6,0.2,2.2,0.5c0.6,0.4,1.1,0.9,1.5,1.5
	C157.2,332.8,157.4,333.5,157.4,334.3z M155.9,334c0-0.6-0.1-1-0.4-1.4c-0.2-0.4-0.6-0.7-1-0.9c-0.4-0.2-0.9-0.3-1.4-0.3
	c-0.7,0-1.4,0.2-1.9,0.7s-0.8,1.1-0.9,2h5.6V334z M158.8,334.6c0-0.9,0.2-1.7,0.5-2.4c0.4-0.7,0.9-1.2,1.5-1.6s1.4-0.6,2.1-0.6
	c0.7,0,1.3,0.2,1.9,0.5c0.6,0.3,1,0.7,1.3,1.2v-4.6h1.5V339h-1.5v-1.6c-0.3,0.5-0.7,1-1.3,1.3s-1.2,0.5-2,0.5s-1.5-0.2-2.1-0.6
	s-1.1-0.9-1.5-1.6C159,336.3,158.8,335.5,158.8,334.6z M166.2,334.6c0-0.7-0.1-1.2-0.4-1.7c-0.3-0.5-0.6-0.9-1.1-1.1
	c-0.4-0.3-0.9-0.4-1.5-0.4c-0.5,0-1,0.1-1.5,0.4c-0.4,0.3-0.8,0.6-1.1,1.1s-0.4,1.1-0.4,1.7c0,0.7,0.1,1.3,0.4,1.8
	c0.3,0.5,0.6,0.9,1.1,1.1c0.4,0.3,0.9,0.4,1.5,0.4c0.5,0,1-0.1,1.5-0.4s0.8-0.6,1.1-1.1C166.1,335.8,166.2,335.3,166.2,334.6z
	 M178.1,334.3c0,0.3,0,0.6,0,0.9h-7c0.1,0.9,0.3,1.5,0.9,2c0.5,0.5,1.2,0.7,2,0.7c0.6,0,1.2-0.1,1.6-0.4c0.4-0.3,0.7-0.7,0.9-1.2
	h1.6c-0.2,0.8-0.7,1.5-1.4,2.1c-0.7,0.5-1.6,0.8-2.6,0.8c-0.8,0-1.6-0.2-2.2-0.6c-0.7-0.4-1.2-0.9-1.5-1.6c-0.4-0.7-0.6-1.5-0.6-2.4
	s0.2-1.7,0.5-2.4c0.4-0.7,0.9-1.2,1.5-1.6c0.7-0.4,1.4-0.6,2.3-0.6c0.8,0,1.6,0.2,2.2,0.5c0.6,0.4,1.1,0.9,1.5,1.5
	C178,332.8,178.1,333.5,178.1,334.3z M176.6,334c0-0.6-0.1-1-0.4-1.4c-0.2-0.4-0.6-0.7-1-0.9c-0.4-0.2-0.9-0.3-1.4-0.3
	c-0.7,0-1.4,0.2-1.9,0.7s-0.8,1.1-0.9,2h5.6V334z M188.7,330.1c0.7,0,1.3,0.1,1.8,0.4s0.9,0.7,1.2,1.3c0.3,0.6,0.5,1.3,0.5,2.1v5.2
	h-1.4v-5c0-0.9-0.2-1.5-0.7-2c-0.4-0.5-1-0.7-1.8-0.7s-1.4,0.2-1.8,0.7c-0.4,0.5-0.7,1.2-0.7,2.1v4.8h-1.5v-11.8h1.5v4.3
	c0.3-0.4,0.7-0.8,1.2-1C187.5,330.2,188,330.1,188.7,330.1z M202.6,334.3c0,0.3,0,0.6,0,0.9h-7c0.1,0.9,0.3,1.5,0.9,2
	c0.5,0.5,1.2,0.7,2,0.7c0.6,0,1.2-0.1,1.6-0.4c0.4-0.3,0.7-0.7,0.9-1.2h1.6c-0.2,0.8-0.7,1.5-1.4,2.1c-0.7,0.5-1.6,0.8-2.6,0.8
	c-0.8,0-1.6-0.2-2.2-0.6c-0.7-0.4-1.2-0.9-1.5-1.6c-0.4-0.7-0.6-1.5-0.6-2.4s0.2-1.7,0.5-2.4c0.4-0.7,0.9-1.2,1.5-1.6
	c0.7-0.4,1.4-0.6,2.3-0.6c0.8,0,1.6,0.2,2.2,0.5c0.6,0.4,1.1,0.9,1.5,1.5C202.4,332.8,202.6,333.5,202.6,334.3z M201.1,334
	c0-0.6-0.1-1-0.4-1.4c-0.2-0.4-0.6-0.7-1-0.9c-0.4-0.2-0.9-0.3-1.4-0.3c-0.7,0-1.4,0.2-1.9,0.7s-0.8,1.1-0.9,2h5.6V334z M215,330.1
	c0.7,0,1.3,0.1,1.8,0.4s1,0.7,1.3,1.3s0.5,1.3,0.5,2.1v5.2h-1.4v-5c0-0.9-0.2-1.5-0.7-2c-0.4-0.5-1-0.7-1.7-0.7
	c-0.8,0-1.4,0.2-1.8,0.7c-0.4,0.5-0.7,1.2-0.7,2.1v4.8h-1.4v-5c0-0.9-0.2-1.5-0.7-2c-0.4-0.5-1-0.7-1.7-0.7c-0.8,0-1.4,0.2-1.8,0.7
	c-0.4,0.5-0.7,1.2-0.7,2.1v4.8h-1.5v-8.8h1.5v1.3c0.3-0.5,0.7-0.8,1.2-1.1c0.5-0.2,1-0.4,1.6-0.4c0.7,0,1.4,0.2,2,0.5s1,0.8,1.3,1.5
	c0.2-0.6,0.7-1.1,1.2-1.4C213.7,330.2,214.3,330.1,215,330.1z M231.5,330.1c0.7,0,1.3,0.1,1.8,0.4s1,0.7,1.3,1.3
	c0.3,0.6,0.5,1.3,0.5,2.1v5.2h-1.4v-5c0-0.9-0.2-1.5-0.7-2c-0.4-0.5-1-0.7-1.7-0.7c-0.8,0-1.4,0.2-1.8,0.7c-0.4,0.5-0.7,1.2-0.7,2.1
	v4.8h-1.4v-5c0-0.9-0.2-1.5-0.7-2c-0.4-0.5-1-0.7-1.7-0.7c-0.8,0-1.4,0.2-1.8,0.7c-0.4,0.5-0.7,1.2-0.7,2.1v4.8H221v-8.8h1.5v1.3
	c0.3-0.5,0.7-0.8,1.2-1.1c0.5-0.2,1-0.4,1.6-0.4c0.7,0,1.4,0.2,2,0.5s1,0.8,1.3,1.5c0.2-0.6,0.7-1.1,1.2-1.4
	C230.2,330.2,230.8,330.1,231.5,330.1z M245.5,334.3c0,0.3,0,0.6,0,0.9h-7c0.1,0.9,0.3,1.5,0.9,2c0.5,0.5,1.2,0.7,2,0.7
	c0.6,0,1.2-0.1,1.6-0.4c0.4-0.3,0.7-0.7,0.9-1.2h1.6c-0.2,0.8-0.7,1.5-1.4,2.1c-0.7,0.5-1.6,0.8-2.6,0.8c-0.8,0-1.6-0.2-2.2-0.6
	c-0.7-0.4-1.2-0.9-1.5-1.6c-0.4-0.7-0.6-1.5-0.6-2.4s0.2-1.7,0.5-2.4c0.4-0.7,0.9-1.2,1.5-1.6c0.7-0.4,1.4-0.6,2.3-0.6
	c0.8,0,1.6,0.2,2.2,0.5c0.6,0.4,1.1,0.9,1.5,1.5C245.3,332.8,245.5,333.5,245.5,334.3z M243.9,334c0-0.6-0.1-1-0.4-1.4
	c-0.2-0.4-0.6-0.7-1-0.9c-0.4-0.2-0.9-0.3-1.4-0.3c-0.7,0-1.4,0.2-1.9,0.7s-0.8,1.1-0.9,2h5.6V334z M248.8,327.2V339h-1.5v-11.8
	H248.8z M252.1,328.8c-0.3,0-0.5-0.1-0.7-0.3c-0.2-0.2-0.3-0.4-0.3-0.7c0-0.3,0.1-0.5,0.3-0.7s0.4-0.3,0.7-0.3s0.5,0.1,0.7,0.3
	c0.2,0.2,0.3,0.4,0.3,0.7c0,0.3-0.1,0.5-0.3,0.7S252.3,328.8,252.1,328.8z M252.8,330.2v8.8h-1.5v-8.8H252.8z M258.9,330.1
	c0.8,0,1.4,0.2,2,0.5s1,0.7,1.3,1.2v-1.6h1.5v9c0,0.8-0.2,1.5-0.5,2.1s-0.8,1.1-1.5,1.5c-0.6,0.4-1.4,0.5-2.2,0.5
	c-1.2,0-2.1-0.3-2.9-0.8c-0.8-0.5-1.2-1.3-1.4-2.2h1.4c0.2,0.5,0.5,1,1,1.3s1.1,0.5,1.8,0.5c0.8,0,1.5-0.3,2-0.8s0.8-1.2,0.8-2.1
	v-1.8c-0.3,0.5-0.7,0.9-1.3,1.3c-0.6,0.3-1.2,0.5-2,0.5s-1.5-0.2-2.1-0.6s-1.1-0.9-1.5-1.6s-0.5-1.5-0.5-2.4s0.2-1.7,0.5-2.4
	c0.4-0.7,0.9-1.2,1.5-1.6C257.4,330.3,258.1,330.1,258.9,330.1z M262.1,334.6c0-0.7-0.1-1.2-0.4-1.7s-0.6-0.9-1.1-1.1
	c-0.4-0.3-0.9-0.4-1.5-0.4s-1,0.1-1.5,0.4c-0.4,0.3-0.8,0.6-1.1,1.1c-0.3,0.5-0.4,1.1-0.4,1.7c0,0.7,0.1,1.3,0.4,1.8
	s0.6,0.9,1.1,1.1c0.4,0.3,0.9,0.4,1.5,0.4s1-0.1,1.5-0.4s0.8-0.6,1.1-1.1C262,335.8,262.1,335.3,262.1,334.6z M270.4,330.1
	c0.7,0,1.3,0.1,1.8,0.4s0.9,0.7,1.2,1.3c0.3,0.6,0.5,1.3,0.5,2.1v5.2h-1.4v-5c0-0.9-0.2-1.5-0.7-2c-0.4-0.5-1-0.7-1.8-0.7
	s-1.4,0.2-1.8,0.7s-0.7,1.2-0.7,2.1v4.8H266v-11.8h1.5v4.3c0.3-0.4,0.7-0.8,1.2-1C269.2,330.2,269.8,330.1,270.4,330.1z
	 M284.3,334.3c0,0.3,0,0.6,0,0.9h-7c0.1,0.9,0.3,1.5,0.9,2c0.5,0.5,1.2,0.7,2,0.7c0.6,0,1.2-0.1,1.6-0.4s0.7-0.7,0.9-1.2h1.6
	c-0.2,0.8-0.7,1.5-1.4,2.1c-0.7,0.5-1.6,0.8-2.6,0.8c-0.8,0-1.6-0.2-2.2-0.6c-0.7-0.4-1.2-0.9-1.5-1.6c-0.4-0.7-0.6-1.5-0.6-2.4
	s0.2-1.7,0.5-2.4c0.4-0.7,0.9-1.2,1.5-1.6c0.7-0.4,1.4-0.6,2.3-0.6c0.8,0,1.6,0.2,2.2,0.5c0.6,0.4,1.1,0.9,1.5,1.5
	C284.1,332.8,284.3,333.5,284.3,334.3z M282.8,334c0-0.6-0.1-1-0.4-1.4c-0.2-0.4-0.6-0.7-1-0.9c-0.4-0.2-0.9-0.3-1.4-0.3
	c-0.7,0-1.4,0.2-1.9,0.7s-0.8,1.1-0.9,2h5.6V334z M285.7,334.6c0-0.9,0.2-1.7,0.5-2.4c0.4-0.7,0.9-1.2,1.5-1.6s1.4-0.6,2.1-0.6
	s1.3,0.2,1.9,0.5s1,0.7,1.3,1.2v-4.6h1.5V339H293v-1.6c-0.3,0.5-0.7,1-1.3,1.3c-0.6,0.3-1.2,0.5-2,0.5s-1.5-0.2-2.1-0.6
	s-1.1-0.9-1.5-1.6C285.9,336.3,285.7,335.5,285.7,334.6z M293.1,334.6c0-0.7-0.1-1.2-0.4-1.7s-0.6-0.9-1.1-1.1
	c-0.4-0.3-0.9-0.4-1.5-0.4s-1,0.1-1.5,0.4c-0.4,0.3-0.8,0.6-1.1,1.1c-0.3,0.5-0.4,1.1-0.4,1.7c0,0.7,0.1,1.3,0.4,1.8
	s0.6,0.9,1.1,1.1c0.4,0.3,0.9,0.4,1.5,0.4s1-0.1,1.5-0.4s0.8-0.6,1.1-1.1C293,335.8,293.1,335.3,293.1,334.6z M298.5,337l-1.8,4.3
	h-1l1.2-4.3H298.5z M38.8,357.4H37v7.6h-1.5v-7.6h-1.1v-1.2h1.1v-0.6c0-1,0.3-1.7,0.8-2.1c0.5-0.5,1.3-0.7,2.4-0.7v1.2
	c-0.6,0-1.1,0.1-1.4,0.4c-0.3,0.2-0.4,0.7-0.4,1.2v0.6h1.8v1.2H38.8z M47.7,357.5c0.3,0.4,0.6,0.9,0.8,1.4s0.3,1.1,0.3,1.7
	c0,0.9-0.2,1.7-0.6,2.4c-0.4,0.7-0.9,1.2-1.6,1.6c-0.7,0.4-1.4,0.6-2.3,0.6c-1,0-1.9-0.3-2.7-0.9l-0.7,0.7h-1l1.2-1.3
	c-0.3-0.4-0.6-0.9-0.8-1.4s-0.3-1.1-0.3-1.7c0-0.9,0.2-1.7,0.6-2.4c0.4-0.7,0.9-1.2,1.6-1.6c0.7-0.4,1.4-0.6,2.3-0.6
	c1.1,0,2,0.3,2.8,0.9l0.7-0.8h1L47.7,357.5z M41.4,360.6c0,0.8,0.2,1.5,0.6,2.1l4.3-4.7c-0.5-0.4-1.1-0.7-1.9-0.7
	c-0.5,0-1,0.1-1.5,0.4c-0.4,0.2-0.8,0.6-1.1,1.1C41.6,359.3,41.4,359.9,41.4,360.6z M47.3,360.6c0-0.8-0.2-1.5-0.6-2l-4.3,4.7
	c0.5,0.4,1.1,0.6,1.8,0.6c0.5,0,1-0.1,1.5-0.4c0.5-0.2,0.8-0.6,1.1-1.1C47.2,361.9,47.3,361.3,47.3,360.6z M52.2,357.7
	c0.3-0.5,0.6-0.9,1.1-1.2c0.5-0.3,1.1-0.4,1.7-0.4v1.5h-0.4c-1.6,0-2.4,0.9-2.4,2.7v4.8h-1.5v-8.8h1.5
	C52.2,356.3,52.2,357.7,52.2,357.7z M60.4,360.6c0-0.9,0.2-1.7,0.5-2.4c0.4-0.7,0.9-1.2,1.5-1.6s1.4-0.6,2.1-0.6s1.3,0.2,1.9,0.5
	s1,0.7,1.3,1.2v-4.6h1.5V365h-1.5v-1.6c-0.3,0.5-0.7,1-1.3,1.3c-0.6,0.3-1.2,0.5-2,0.5c-0.8,0-1.5-0.2-2.1-0.6s-1.1-0.9-1.5-1.6
	C60.6,362.3,60.4,361.5,60.4,360.6z M67.8,360.6c0-0.7-0.1-1.2-0.4-1.7s-0.6-0.9-1.1-1.1c-0.4-0.3-0.9-0.4-1.5-0.4s-1,0.1-1.5,0.4
	c-0.4,0.3-0.8,0.6-1.1,1.1s-0.4,1.1-0.4,1.7c0,0.7,0.1,1.3,0.4,1.8c0.3,0.5,0.6,0.9,1.1,1.1c0.4,0.3,0.9,0.4,1.5,0.4s1-0.1,1.5-0.4
	s0.8-0.6,1.1-1.1C67.7,361.8,67.8,361.3,67.8,360.6z M79.8,360.3c0,0.3,0,0.6,0,0.9h-7c0.1,0.9,0.3,1.5,0.9,2c0.5,0.5,1.2,0.7,2,0.7
	c0.6,0,1.2-0.1,1.6-0.4s0.7-0.7,0.9-1.2h1.6c-0.2,0.8-0.7,1.5-1.4,2.1c-0.7,0.5-1.6,0.8-2.6,0.8c-0.8,0-1.6-0.2-2.2-0.6
	c-0.7-0.4-1.2-0.9-1.5-1.6c-0.4-0.7-0.6-1.5-0.6-2.4s0.2-1.7,0.5-2.4c0.4-0.7,0.9-1.2,1.5-1.6c0.7-0.4,1.4-0.6,2.3-0.6
	c0.8,0,1.6,0.2,2.2,0.5c0.6,0.4,1.1,0.9,1.5,1.5C79.6,358.8,79.8,359.5,79.8,360.3z M78.3,360c0-0.6-0.1-1-0.4-1.4
	c-0.2-0.4-0.6-0.7-1-0.9c-0.4-0.2-0.9-0.3-1.4-0.3c-0.7,0-1.4,0.2-1.9,0.7s-0.8,1.1-0.9,2h5.6V360z M86,356.1c1.1,0,1.9,0.3,2.6,1
	c0.7,0.6,1,1.6,1,2.8v5.2h-1.4v-5c0-0.9-0.2-1.5-0.7-2c-0.4-0.5-1-0.7-1.8-0.7s-1.4,0.2-1.8,0.7s-0.7,1.2-0.7,2.1v4.8h-1.5v-8.8h1.5
	v1.2c0.3-0.4,0.7-0.8,1.2-1C84.8,356.2,85.4,356.1,86,356.1z M99.8,356.1c0.8,0,1.4,0.2,2,0.5s1,0.7,1.3,1.2v-1.6h1.5v9
	c0,0.8-0.2,1.5-0.5,2.1s-0.8,1.1-1.5,1.5c-0.6,0.4-1.4,0.5-2.2,0.5c-1.2,0-2.1-0.3-2.9-0.8s-1.2-1.3-1.4-2.2h1.4
	c0.2,0.5,0.5,1,1,1.3s1.1,0.5,1.8,0.5c0.8,0,1.4-0.3,2-0.8c0.5-0.5,0.8-1.2,0.8-2.1v-1.8c-0.3,0.5-0.7,0.9-1.3,1.3
	c-0.6,0.3-1.2,0.5-2,0.5s-1.5-0.2-2.1-0.6s-1.1-0.9-1.5-1.6s-0.5-1.5-0.5-2.4s0.2-1.7,0.5-2.4c0.4-0.7,0.9-1.2,1.5-1.6
	C98.3,356.3,99,356.1,99.8,356.1z M103.1,360.6c0-0.7-0.1-1.2-0.4-1.7s-0.6-0.9-1.1-1.1c-0.4-0.3-0.9-0.4-1.5-0.4
	c-0.5,0-1,0.1-1.5,0.4c-0.4,0.3-0.8,0.6-1.1,1.1c-0.3,0.5-0.4,1.1-0.4,1.7c0,0.7,0.1,1.3,0.4,1.8s0.6,0.9,1.1,1.1
	c0.4,0.3,0.9,0.4,1.5,0.4c0.5,0,1-0.1,1.5-0.4s0.8-0.6,1.1-1.1C102.9,361.8,103.1,361.3,103.1,360.6z M114.3,357.5
	c0.3,0.4,0.6,0.9,0.8,1.4c0.2,0.5,0.3,1.1,0.3,1.7c0,0.9-0.2,1.7-0.6,2.4c-0.4,0.7-0.9,1.2-1.6,1.6s-1.4,0.6-2.3,0.6
	c-1,0-1.9-0.3-2.7-0.9l-0.7,0.7h-1l1.2-1.3c-0.3-0.4-0.6-0.9-0.8-1.4c-0.2-0.5-0.3-1.1-0.3-1.7c0-0.9,0.2-1.7,0.6-2.4
	c0.4-0.7,0.9-1.2,1.6-1.6s1.4-0.6,2.3-0.6c1.1,0,2,0.3,2.8,0.9l0.7-0.8h1L114.3,357.5z M108,360.6c0,0.8,0.2,1.5,0.6,2.1l4.3-4.7
	c-0.5-0.4-1.1-0.7-1.9-0.7c-0.5,0-1,0.1-1.5,0.4c-0.4,0.2-0.8,0.6-1.1,1.1C108.1,359.3,108,359.9,108,360.6z M113.8,360.6
	c0-0.8-0.2-1.5-0.6-2l-4.3,4.7c0.5,0.4,1.1,0.6,1.8,0.6c0.5,0,1-0.1,1.5-0.4c0.5-0.2,0.8-0.6,1.1-1.1
	C113.7,361.9,113.8,361.3,113.8,360.6z M118.7,357.7c0.3-0.5,0.6-0.9,1.1-1.2c0.5-0.3,1.1-0.4,1.7-0.4v1.5h-0.4
	c-1.6,0-2.4,0.9-2.4,2.7v4.8h-1.5v-8.8h1.5C118.7,356.3,118.7,357.7,118.7,357.7z M129.3,357.4v5.2c0,0.4,0.1,0.7,0.3,0.9
	c0.2,0.2,0.5,0.3,0.9,0.3h1.1v1.2h-1.3c-0.8,0-1.4-0.2-1.8-0.6c-0.4-0.4-0.6-1-0.6-1.8v-5.2h-1.1v-1.2h1.1V354h1.5v2.2h2.3v1.2
	L129.3,357.4L129.3,357.4z M132.8,360.6c0-0.9,0.2-1.7,0.5-2.4c0.4-0.7,0.9-1.2,1.5-1.6s1.3-0.6,2.1-0.6s1.4,0.2,2,0.5
	s1,0.7,1.3,1.2v-1.6h1.5v8.8h-1.5v-1.6c-0.3,0.5-0.7,0.9-1.3,1.3c-0.6,0.3-1.2,0.5-2,0.5s-1.5-0.2-2.1-0.6s-1.1-0.9-1.5-1.6
	C132.9,362.3,132.8,361.5,132.8,360.6z M140.2,360.6c0-0.7-0.1-1.2-0.4-1.7c-0.3-0.5-0.6-0.9-1.1-1.1c-0.4-0.3-0.9-0.4-1.5-0.4
	c-0.5,0-1,0.1-1.5,0.4c-0.4,0.3-0.8,0.6-1.1,1.1s-0.4,1.1-0.4,1.7c0,0.7,0.1,1.3,0.4,1.8c0.3,0.5,0.6,0.9,1.1,1.1
	c0.4,0.3,0.9,0.4,1.5,0.4c0.5,0,1-0.1,1.5-0.4s0.8-0.6,1.1-1.1C140.1,361.8,140.2,361.3,140.2,360.6z M145.6,357.9
	c0.3-0.5,0.7-0.9,1.3-1.3c0.6-0.3,1.2-0.5,2-0.5s1.5,0.2,2.1,0.6s1.1,0.9,1.5,1.6s0.5,1.5,0.5,2.4s-0.2,1.7-0.5,2.4
	c-0.4,0.7-0.9,1.2-1.5,1.6s-1.3,0.6-2.1,0.6s-1.4-0.2-2-0.5s-1-0.8-1.3-1.3v1.6h-1.5v-11.8h1.5V357.9z M151.5,360.6
	c0-0.7-0.1-1.2-0.4-1.7c-0.3-0.5-0.6-0.9-1.1-1.1c-0.4-0.3-0.9-0.4-1.5-0.4c-0.5,0-1,0.1-1.5,0.4c-0.4,0.3-0.8,0.6-1.1,1.1
	s-0.4,1.1-0.4,1.7c0,0.7,0.1,1.2,0.4,1.7c0.3,0.5,0.6,0.9,1.1,1.1c0.5,0.3,1,0.4,1.5,0.4s1-0.1,1.5-0.4s0.8-0.6,1.1-1.1
	C151.4,361.8,151.5,361.3,151.5,360.6z M156.7,357.4v5.2c0,0.4,0.1,0.7,0.3,0.9c0.2,0.2,0.5,0.3,0.9,0.3h1.1v1.2h-1.3
	c-0.8,0-1.4-0.2-1.8-0.6c-0.4-0.4-0.6-1-0.6-1.8v-5.2h-1.1v-1.2h1.1V354h1.5v2.2h2.3v1.2L156.7,357.4L156.7,357.4z M168.6,357.4
	h-1.8v7.6h-1.5v-7.6h-1.1v-1.2h1.1v-0.6c0-1,0.3-1.7,0.8-2.1c0.5-0.5,1.3-0.7,2.4-0.7v1.2c-0.6,0-1.1,0.1-1.4,0.4
	c-0.3,0.2-0.4,0.7-0.4,1.2v0.6h1.8L168.6,357.4L168.6,357.4z M174.1,365.1c-0.8,0-1.6-0.2-2.2-0.6c-0.7-0.4-1.2-0.9-1.6-1.6
	c-0.4-0.7-0.6-1.5-0.6-2.4s0.2-1.7,0.6-2.4c0.4-0.7,0.9-1.2,1.6-1.6c0.7-0.4,1.4-0.6,2.3-0.6s1.6,0.2,2.3,0.6s1.2,0.9,1.6,1.6
	c0.4,0.7,0.6,1.5,0.6,2.4s-0.2,1.7-0.6,2.4c-0.4,0.7-0.9,1.2-1.6,1.6C175.7,365,175,365.1,174.1,365.1z M174.1,363.9
	c0.5,0,1-0.1,1.5-0.4c0.5-0.2,0.8-0.6,1.1-1.1s0.4-1.1,0.4-1.8c0-0.7-0.1-1.3-0.4-1.8c-0.3-0.5-0.6-0.9-1.1-1.1
	c-0.4-0.2-0.9-0.4-1.5-0.4c-0.5,0-1,0.1-1.5,0.4c-0.4,0.2-0.8,0.6-1.1,1.1s-0.4,1.1-0.4,1.8c0,0.7,0.1,1.3,0.4,1.8
	c0.3,0.5,0.6,0.9,1.1,1.1S173.6,363.9,174.1,363.9z M182,357.7c0.3-0.5,0.6-0.9,1.1-1.2c0.5-0.3,1.1-0.4,1.7-0.4v1.5h-0.4
	c-1.6,0-2.4,0.9-2.4,2.7v4.8h-1.5v-8.8h1.5L182,357.7L182,357.7z M198.8,360.3c0,0.3,0,0.6,0,0.9h-7c0.1,0.9,0.3,1.5,0.9,2
	c0.5,0.5,1.2,0.7,2,0.7c0.6,0,1.2-0.1,1.6-0.4c0.4-0.3,0.7-0.7,0.9-1.2h1.6c-0.2,0.8-0.7,1.5-1.4,2.1c-0.7,0.5-1.6,0.8-2.6,0.8
	c-0.8,0-1.6-0.2-2.2-0.6c-0.7-0.4-1.2-0.9-1.5-1.6c-0.4-0.7-0.6-1.5-0.6-2.4s0.2-1.7,0.5-2.4c0.4-0.7,0.9-1.2,1.5-1.6
	c0.7-0.4,1.4-0.6,2.3-0.6c0.8,0,1.6,0.2,2.2,0.5c0.6,0.4,1.1,0.9,1.5,1.5C198.6,358.8,198.8,359.5,198.8,360.3z M197.3,360
	c0-0.6-0.1-1-0.4-1.4c-0.2-0.4-0.6-0.7-1-0.9c-0.4-0.2-0.9-0.3-1.4-0.3c-0.7,0-1.4,0.2-1.9,0.7s-0.8,1.1-0.9,2h5.6V360z
	 M203.9,363.7l2.7-7.4h1.6l-3.4,8.8h-1.7l-3.4-8.8h1.6L203.9,363.7z M210.4,354.8c-0.3,0-0.5-0.1-0.7-0.3c-0.2-0.2-0.3-0.4-0.3-0.7
	c0-0.3,0.1-0.5,0.3-0.7s0.4-0.3,0.7-0.3s0.5,0.1,0.7,0.3c0.2,0.2,0.3,0.4,0.3,0.7c0,0.3-0.1,0.5-0.3,0.7S210.7,354.8,210.4,354.8z
	 M211.1,356.2v8.8h-1.5v-8.8H211.1z M217.2,356.1c0.8,0,1.4,0.2,2,0.5s1,0.7,1.3,1.2v-1.6h1.5v9c0,0.8-0.2,1.5-0.5,2.1
	s-0.8,1.1-1.5,1.5c-0.6,0.4-1.4,0.5-2.2,0.5c-1.2,0-2.1-0.3-2.9-0.8s-1.2-1.3-1.4-2.2h1.4c0.2,0.5,0.5,1,1,1.3s1.1,0.5,1.8,0.5
	c0.8,0,1.5-0.3,2-0.8s0.8-1.2,0.8-2.1v-1.8c-0.3,0.5-0.7,0.9-1.3,1.3c-0.6,0.3-1.2,0.5-2,0.5s-1.5-0.2-2.1-0.6s-1.1-0.9-1.5-1.6
	s-0.5-1.5-0.5-2.4s0.2-1.7,0.5-2.4c0.4-0.7,0.9-1.2,1.5-1.6C215.7,356.3,216.4,356.1,217.2,356.1z M220.5,360.6
	c0-0.7-0.1-1.2-0.4-1.7c-0.3-0.5-0.6-0.9-1.1-1.1c-0.4-0.3-0.9-0.4-1.5-0.4c-0.5,0-1,0.1-1.5,0.4c-0.4,0.3-0.8,0.6-1.1,1.1
	s-0.4,1.1-0.4,1.7c0,0.7,0.1,1.3,0.4,1.8c0.3,0.5,0.6,0.9,1.1,1.1c0.4,0.3,0.9,0.4,1.5,0.4c0.5,0,1-0.1,1.5-0.4s0.8-0.6,1.1-1.1
	C220.3,361.8,220.5,361.3,220.5,360.6z M226.2,357.4v5.2c0,0.4,0.1,0.7,0.3,0.9c0.2,0.2,0.5,0.3,0.9,0.3h1.1v1.2h-1.3
	c-0.8,0-1.4-0.2-1.8-0.6c-0.4-0.4-0.6-1-0.6-1.8v-5.2h-1.1v-1.2h1.1V354h1.5v2.2h2.3v1.2L226.2,357.4L226.2,357.4z M230.7,365.1
	c-0.3,0-0.5-0.1-0.7-0.3c-0.2-0.2-0.3-0.4-0.3-0.7s0.1-0.5,0.3-0.7s0.4-0.3,0.7-0.3s0.5,0.1,0.7,0.3c0.2,0.2,0.3,0.4,0.3,0.7
	s-0.1,0.5-0.3,0.7C231.2,365,231,365.1,230.7,365.1z"/>
<path d="M41.4,278.3c0.6,0.1,1.1,0.4,1.6,0.9s0.6,1.1,0.6,1.8c0,0.6-0.1,1.1-0.4,1.6c-0.3,0.4-0.7,0.8-1.3,1.1s-1.2,0.4-2,0.4h-4.8
	v-11.2h4.6c0.8,0,1.4,0.1,2,0.4c0.6,0.2,1,0.6,1.2,1c0.3,0.4,0.4,0.9,0.4,1.5c0,0.7-0.2,1.2-0.5,1.6C42.5,277.8,42,278.1,41.4,278.3
	z M37.3,277.4h2c0.5,0,0.9-0.1,1.2-0.4c0.3-0.2,0.4-0.6,0.4-1s-0.1-0.8-0.4-1c-0.3-0.2-0.7-0.4-1.2-0.4h-2V277.4z M39.6,282.2
	c0.5,0,1-0.1,1.3-0.4s0.5-0.6,0.5-1.1s-0.2-0.9-0.5-1.1c-0.3-0.3-0.8-0.4-1.3-0.4h-2.2v3H39.6z M53.6,279.4c0,0.3,0,0.6-0.1,0.9H47
	c0.1,0.6,0.3,1.1,0.7,1.5s0.9,0.5,1.5,0.5c0.8,0,1.4-0.4,1.8-1.1h2.4c-0.3,0.9-0.7,1.6-1.5,2.1c-0.7,0.5-1.6,0.8-2.7,0.8
	c-0.9,0-1.6-0.2-2.3-0.6s-1.2-0.9-1.6-1.6c-0.4-0.7-0.6-1.5-0.6-2.4s0.2-1.7,0.6-2.4c0.4-0.7,0.9-1.2,1.6-1.6
	c0.7-0.4,1.4-0.6,2.3-0.6c0.8,0,1.6,0.2,2.3,0.5c0.7,0.4,1.2,0.9,1.6,1.6C53.4,277.7,53.6,278.5,53.6,279.4z M51.3,278.7
	c0-0.6-0.2-1-0.6-1.4c-0.4-0.4-0.9-0.5-1.5-0.5s-1,0.2-1.4,0.5s-0.6,0.8-0.7,1.4H51.3z M58.7,284.1c-0.7,0-1.4-0.1-2-0.4
	s-1-0.6-1.4-1.1c-0.3-0.4-0.5-0.9-0.5-1.5H57c0,0.3,0.2,0.6,0.5,0.8c0.3,0.2,0.7,0.3,1.1,0.3c0.4,0,0.8-0.1,1-0.3
	c0.2-0.2,0.4-0.4,0.4-0.7c0-0.3-0.1-0.5-0.4-0.6c-0.3-0.1-0.8-0.3-1.4-0.5c-0.7-0.2-1.2-0.3-1.6-0.5c-0.4-0.2-0.8-0.4-1.1-0.8
	s-0.4-0.8-0.4-1.4c0-0.5,0.1-0.9,0.4-1.3c0.3-0.4,0.7-0.7,1.2-1c0.5-0.2,1.2-0.4,1.9-0.4c1.1,0,1.9,0.3,2.5,0.8s1,1.2,1,2.1H60
	c0-0.4-0.2-0.6-0.4-0.8c-0.3-0.2-0.6-0.3-1-0.3s-0.7,0.1-0.9,0.2s-0.3,0.4-0.3,0.6c0,0.3,0.1,0.5,0.4,0.7c0.3,0.1,0.8,0.3,1.4,0.5
	c0.6,0.2,1.2,0.3,1.6,0.5c0.4,0.2,0.8,0.4,1.1,0.8s0.5,0.8,0.5,1.4c0,0.5-0.1,1-0.4,1.4c-0.3,0.4-0.7,0.7-1.2,1
	C60,284,59.4,284.1,58.7,284.1z M69.2,284l-3-3.8v3.8H64v-11.8h2.2v6.7l3-3.8h2.9l-3.9,4.4l3.9,4.4L69.2,284L69.2,284z M75.6,276.5
	c0.3-0.5,0.7-0.8,1.1-1.1c0.5-0.3,1-0.4,1.6-0.4v2.4h-0.6c-0.7,0-1.2,0.2-1.6,0.5s-0.5,0.9-0.5,1.7v4.4h-2.2v-8.9h2.2V276.5z
	 M80.9,274.1c-0.4,0-0.7-0.1-1-0.4s-0.4-0.6-0.4-0.9c0-0.4,0.1-0.7,0.4-0.9c0.3-0.3,0.6-0.4,1-0.4s0.7,0.1,1,0.4
	c0.3,0.2,0.4,0.6,0.4,0.9c0,0.4-0.1,0.7-0.4,0.9C81.6,274,81.3,274.1,80.9,274.1z M82,275.1v8.9h-2.2v-8.9H82z M87.9,281.9l2.2-6.8
	h2.4l-3.3,8.9h-2.7l-3.3-8.9h2.4L87.9,281.9z M102.1,279.4c0,0.3,0,0.6-0.1,0.9h-6.5c0.1,0.6,0.3,1.1,0.7,1.5
	c0.4,0.4,0.9,0.5,1.5,0.5c0.8,0,1.4-0.4,1.8-1.1h2.4c-0.3,0.9-0.7,1.6-1.5,2.1c-0.7,0.5-1.6,0.8-2.7,0.8c-0.9,0-1.6-0.2-2.3-0.6
	c-0.7-0.4-1.2-0.9-1.6-1.6s-0.6-1.5-0.6-2.4s0.2-1.7,0.6-2.4c0.4-0.7,0.9-1.2,1.6-1.6s1.4-0.6,2.3-0.6c0.8,0,1.6,0.2,2.3,0.5
	c0.7,0.4,1.2,0.9,1.6,1.6C101.9,277.7,102.1,278.5,102.1,279.4z M99.7,278.7c0-0.6-0.2-1-0.6-1.4s-0.9-0.5-1.5-0.5s-1,0.2-1.4,0.5
	s-0.6,0.8-0.7,1.4H99.7z M105.9,272.2V284h-2.2v-11.8H105.9z M111.5,284.1c-0.7,0-1.4-0.1-2-0.4s-1-0.6-1.4-1.1
	c-0.3-0.4-0.5-0.9-0.5-1.5h2.3c0,0.3,0.2,0.6,0.5,0.8c0.3,0.2,0.7,0.3,1.1,0.3s0.8-0.1,1-0.3c0.2-0.2,0.4-0.4,0.4-0.7
	c0-0.3-0.1-0.5-0.4-0.6s-0.8-0.3-1.4-0.5c-0.7-0.2-1.2-0.3-1.6-0.5s-0.8-0.4-1.1-0.8c-0.3-0.4-0.4-0.8-0.4-1.4
	c0-0.5,0.1-0.9,0.4-1.3s0.7-0.7,1.2-1c0.5-0.2,1.2-0.4,1.9-0.4c1.1,0,1.9,0.3,2.5,0.8s1,1.2,1,2.1h-2.1c0-0.4-0.2-0.6-0.4-0.8
	c-0.3-0.2-0.6-0.3-1-0.3s-0.7,0.1-0.9,0.2c-0.2,0.1-0.3,0.4-0.3,0.6c0,0.3,0.1,0.5,0.4,0.7c0.3,0.1,0.8,0.3,1.4,0.5s1.2,0.3,1.6,0.5
	s0.8,0.4,1.1,0.8c0.3,0.4,0.5,0.8,0.5,1.4c0,0.5-0.1,1-0.4,1.4s-0.7,0.7-1.2,1C112.9,284,112.2,284.1,111.5,284.1z M125.1,279.4
	c0,0.3,0,0.6-0.1,0.9h-6.5c0.1,0.6,0.3,1.1,0.7,1.5c0.4,0.4,0.9,0.5,1.5,0.5c0.8,0,1.4-0.4,1.8-1.1h2.4c-0.3,0.9-0.7,1.6-1.5,2.1
	c-0.7,0.5-1.6,0.8-2.7,0.8c-0.9,0-1.6-0.2-2.3-0.6c-0.7-0.4-1.2-0.9-1.6-1.6s-0.6-1.5-0.6-2.4s0.2-1.7,0.6-2.4
	c0.4-0.7,0.9-1.2,1.6-1.6s1.4-0.6,2.3-0.6c0.8,0,1.6,0.2,2.3,0.5c0.7,0.4,1.2,0.9,1.6,1.6C124.9,277.7,125.1,278.5,125.1,279.4z
	 M122.8,278.7c0-0.6-0.2-1-0.6-1.4s-0.9-0.5-1.5-0.5s-1,0.2-1.4,0.5s-0.6,0.8-0.7,1.4H122.8z"/>
<rect id="anchor" x="34" y="575.7" class="st12" width="275" height="31.6"/>
</svg>
