<svg width="46" height="43" viewBox="0 0 46 43" fill="none" xmlns="http://www.w3.org/2000/svg">
<path d="M38.9736 6.78078C38.9736 6.78078 39.2683 7.06466 39.5795 7.38559C41.5977 9.46657 46.76 15.5163 45.4279 23.2931C44.3723 29.4558 39.8264 33.2784 37.4549 35.2726C34.4729 37.7802 29.8757 41.6949 22.648 42.0718C12.6007 42.5959 6.10405 35.8533 5.56304 35.2726C2.10431 31.5602 1.46875 27.7097 1.00699 24.912C0.643059 22.7065 -0.338015 14.6398 5.18338 8.39962C5.25097 8.32324 5.33908 8.22361 5.4636 8.09073C9.81126 3.44456 16.6611 2.57445 19.231 2.24798C23.4413 1.83935 27.7051 2.1699 31.76 3.21928C36.4083 4.47676 38.4899 6.33215 38.9736 6.78078Z" fill="black"/>
<path d="M18.8313 15.441V10.83H26.8643V32H21.7023V15.441H18.8313Z" fill="white"/>
</svg>
