<svg width="46" height="44" viewBox="0 0 46 44" fill="none" xmlns="http://www.w3.org/2000/svg">
<path d="M38.9736 6.24364C38.9736 6.24364 39.2683 6.52752 39.5795 6.84845C41.5977 8.92942 46.76 14.9791 45.4279 22.7559C44.3723 28.9185 39.8264 32.7411 37.4549 34.7353C34.4729 37.2429 29.8757 41.1575 22.648 41.5345C12.6007 42.0585 6.10405 35.316 5.56304 34.7353C2.10431 31.0229 1.46875 27.1724 1.00699 24.3748C0.643059 22.1693 -0.338015 14.1026 5.18338 7.86247C5.25097 7.7861 5.33908 7.68646 5.4636 7.55359C9.81126 2.90744 16.6611 2.03734 19.231 1.71087C23.4413 1.30224 27.7051 1.63279 31.76 2.68217C36.4083 3.93964 38.4899 5.79501 38.9736 6.24364Z" fill="black"/>
<path d="M16.0642 28.027C16.7216 27.505 17.0212 27.2633 16.9632 27.302C18.8579 25.736 20.3466 24.4503 21.4292 23.445C22.5312 22.4397 23.4592 21.386 24.2132 20.284C24.9672 19.182 25.3442 18.109 25.3442 17.065C25.3442 16.2723 25.1606 15.6537 24.7932 15.209C24.4259 14.7643 23.8749 14.542 23.1402 14.542C22.4056 14.542 21.8256 14.8223 21.4002 15.383C20.9942 15.9243 20.7912 16.6977 20.7912 17.703H16.0062C16.0449 16.0597 16.3929 14.687 17.0502 13.585C17.7269 12.483 18.6066 11.671 19.6892 11.149C20.7912 10.627 22.0092 10.366 23.3432 10.366C25.6439 10.366 27.3742 10.9557 28.5342 12.135C29.7136 13.3143 30.3032 14.8513 30.3032 16.746C30.3032 18.8147 29.5976 20.7383 28.1862 22.517C26.7749 24.2763 24.9769 25.997 22.7922 27.679H30.6222V31.71H16.0642V28.027Z" fill="white"/>
</svg>
