<svg width="46" height="44" viewBox="0 0 46 44" fill="none" xmlns="http://www.w3.org/2000/svg">
<path d="M38.9736 6.92545C38.9736 6.92545 39.2683 7.20935 39.5795 7.53029C41.5977 9.61133 46.76 15.6612 45.4279 23.4383C44.3723 29.6011 39.8264 33.4239 37.4549 35.4182C34.4729 37.9259 29.8757 41.8406 22.648 42.2176C12.6007 42.7416 6.10405 35.9989 5.56304 35.4182C2.10431 31.7056 1.46875 27.855 1.00699 25.0572C0.643059 22.8517 -0.338015 14.7847 5.18338 8.54434C5.25097 8.46797 5.33908 8.36833 5.4636 8.23545C9.81126 3.58913 16.6611 2.71899 19.231 2.39251C23.4413 1.98387 27.7051 2.31444 31.76 3.36385C36.4083 4.62137 38.4899 6.47681 38.9736 6.92545Z" fill="black"/>
<path d="M15.9166 16.804C15.9939 14.7353 16.6706 13.1403 17.9466 12.019C19.2226 10.8977 20.9529 10.337 23.1376 10.337C24.5876 10.337 25.8249 10.5883 26.8496 11.091C27.8936 11.5937 28.6766 12.28 29.1986 13.15C29.7399 14.02 30.0106 14.9963 30.0106 16.079C30.0106 17.355 29.6916 18.399 29.0536 19.211C28.4156 20.0037 27.6713 20.545 26.8206 20.835V20.951C27.9226 21.3183 28.7926 21.9273 29.4306 22.778C30.0686 23.6287 30.3876 24.721 30.3876 26.055C30.3876 27.2537 30.1073 28.317 29.5466 29.245C29.0053 30.1537 28.2029 30.869 27.1396 31.391C26.0956 31.913 24.8486 32.174 23.3986 32.174C21.0786 32.174 19.2226 31.6037 17.8306 30.463C16.4579 29.3223 15.7329 27.6017 15.6556 25.301H20.4696C20.4889 26.1517 20.7306 26.8283 21.1946 27.331C21.6586 27.8143 22.3353 28.056 23.2246 28.056C23.9786 28.056 24.5586 27.8433 24.9646 27.418C25.3899 26.9733 25.6026 26.3933 25.6026 25.678C25.6026 24.75 25.3029 24.083 24.7036 23.677C24.1236 23.2517 23.1859 23.039 21.8906 23.039H20.9626V19.008H21.8906C22.8766 19.008 23.6693 18.8437 24.2686 18.515C24.8873 18.167 25.1966 17.558 25.1966 16.688C25.1966 15.992 25.0033 15.4507 24.6166 15.064C24.2299 14.6773 23.6983 14.484 23.0216 14.484C22.2869 14.484 21.7359 14.7063 21.3686 15.151C21.0206 15.5957 20.8176 16.1467 20.7596 16.804H15.9166Z" fill="white"/>
</svg>
