<svg width="98" height="132" viewBox="0 0 98 132" fill="none" xmlns="http://www.w3.org/2000/svg">
<path d="M74.7013 13.9342C74.7013 13.9342 74.9592 14.445 75.2236 15.015C76.9386 18.7121 81.0487 29.2306 76.4388 40.1604C72.7857 48.8215 65.6885 52.9282 61.9861 55.0706C57.3304 57.7645 50.1346 61.9889 41.0173 60.1885C28.3433 57.6858 22.8398 45.7208 22.3887 44.6964C19.5055 38.1468 20.18 32.3143 20.6701 28.076C21.0565 24.7352 22.9045 12.6295 32.1317 5.30791C32.2447 5.21803 32.3923 5.10138 32.5971 4.94774C39.7612 -0.426746 48.5967 0.530149 51.9116 0.889079C57.2945 1.66157 62.4628 3.53154 67.0985 6.38388C72.392 9.73318 74.2714 13.1213 74.7013 13.9342Z" fill="black"/>
<path d="M65.4675 42.7686H52.4713C52.1143 42.7686 51.8248 43.0589 51.8248 43.4172C51.8248 43.7754 52.1143 44.0658 52.4713 44.0658H64.7359C64.4505 45.1304 63.48 45.9161 62.3299 45.9161H36.7937C35.6436 45.9161 34.6731 45.1304 34.3877 44.0658H46.6522C47.0093 44.0658 47.2987 43.7754 47.2987 43.4172C47.2987 43.0589 47.0093 42.7686 46.6522 42.7686H33.656C33.2989 42.7686 33.0095 43.0589 33.0095 43.4172C33.0095 45.5104 34.707 47.2134 36.7937 47.2134H62.3299C64.4165 47.2134 66.114 45.5104 66.114 43.4172C66.114 43.0589 65.8245 42.7686 65.4675 42.7686Z" fill="#C99D2B"/>
<path d="M50.2069 37.9738C50.2069 37.6156 49.9174 37.3252 49.5603 37.3252C49.2032 37.3252 48.9138 37.6156 48.9138 37.9738V40.4971C48.9138 40.8554 49.2032 41.1458 49.5603 41.1458C49.9174 41.1458 50.2069 40.8554 50.2069 40.4971V37.9738Z" fill="#C99D2B"/>
<path d="M43.7645 40.6894C43.8238 40.9999 44.0948 41.2161 44.3989 41.2161C44.4392 41.2161 44.4801 41.2122 44.5212 41.2044C44.8719 41.1371 45.1018 40.7974 45.0347 40.4457L44.7619 39.016C44.6948 38.6642 44.3557 38.4335 44.0053 38.501C43.6546 38.5683 43.4247 38.9079 43.4918 39.2597L43.7645 40.6894Z" fill="#C99D2B"/>
<path d="M44.2691 36.4195L43.9963 34.9897C43.9292 34.6379 43.5901 34.4071 43.2398 34.4746C42.889 34.5419 42.6591 34.8816 42.7262 35.2334L42.9989 36.6632C43.0582 36.9738 43.3292 37.1899 43.6333 37.1899C43.6736 37.1899 43.7144 37.1861 43.7555 37.1783C44.1062 37.111 44.3362 36.7712 44.2691 36.4195Z" fill="#C99D2B"/>
<path d="M39.1457 39.1561L39.7686 40.798C39.8668 41.0569 40.1124 41.2161 40.373 41.2161C40.4494 41.2161 40.5272 41.2024 40.6028 41.1735C40.9366 41.0461 41.1042 40.6715 40.9772 40.3368L40.3543 38.6949C40.2273 38.3602 39.8536 38.192 39.52 38.3194C39.1863 38.4468 39.0186 38.8214 39.1457 39.1561Z" fill="#C99D2B"/>
<path d="M36.2902 31.6264L38.161 36.5578C38.2592 36.8167 38.5048 36.9759 38.7654 36.9759C38.8418 36.9759 38.9195 36.9623 38.9952 36.9333C39.3289 36.806 39.4965 36.4313 39.3695 36.0966L37.4988 31.1651C37.3718 30.8304 36.9982 30.6622 36.6645 30.7897C36.3308 30.917 36.1632 31.2916 36.2902 31.6264Z" fill="#C99D2B"/>
<path d="M35.3063 29.0279C35.4045 29.2868 35.6501 29.446 35.9107 29.446C35.9872 29.446 36.0649 29.4324 36.1405 29.4034C36.4743 29.2761 36.6419 28.9015 36.5149 28.5667L34.2605 22.6237C34.1335 22.2889 33.7598 22.1207 33.4263 22.2482C33.0925 22.3756 32.9249 22.7502 33.0519 23.0849L35.3063 29.0279Z" fill="#C99D2B"/>
<path d="M55.1129 38.501C54.762 38.4334 54.4234 38.6643 54.3563 39.016L54.0836 40.4457C54.0165 40.7974 54.2465 41.1371 54.5972 41.2044C54.6382 41.2123 54.6791 41.2161 54.7194 41.2161C55.0235 41.2161 55.2945 41 55.3538 40.6894L55.6265 39.2597C55.6936 38.9079 55.4637 38.5683 55.1129 38.501Z" fill="#C99D2B"/>
<path d="M56.1232 36.6632L56.396 35.2334C56.463 34.8817 56.2331 34.5419 55.8824 34.4746C55.5315 34.4071 55.193 34.638 55.1258 34.9897L54.8531 36.4195C54.7861 36.7712 55.016 37.111 55.3667 37.1783C55.4077 37.1862 55.4486 37.1899 55.4889 37.1899C55.793 37.1899 56.064 36.9737 56.1232 36.6632Z" fill="#C99D2B"/>
<path d="M58.7666 38.6949L58.1437 40.3368C58.0167 40.6715 58.1844 41.0461 58.5181 41.1735C58.5938 41.2023 58.6715 41.2161 58.7479 41.2161C59.0086 41.2161 59.2541 41.0568 59.3524 40.798L59.9753 39.1561C60.1023 38.8213 59.9347 38.4468 59.601 38.3194C59.2669 38.1921 58.8937 38.3602 58.7666 38.6949Z" fill="#C99D2B"/>
<path d="M60.1294 36.9333C60.2051 36.9622 60.2828 36.9759 60.3592 36.9759C60.6199 36.9759 60.8655 36.8167 60.9637 36.5578L62.8345 31.6264C62.9615 31.2916 62.7938 30.917 62.4601 30.7897C62.1263 30.6622 61.7528 30.8304 61.6259 31.1651L59.7551 36.0966C59.628 36.4314 59.7956 36.806 60.1294 36.9333Z" fill="#C99D2B"/>
<path d="M62.9829 29.4034C63.0586 29.4323 63.1363 29.446 63.2127 29.446C63.4734 29.446 63.7189 29.2868 63.8172 29.0279L66.0716 23.0849C66.1986 22.7501 66.031 22.3755 65.6973 22.2482C65.3632 22.1207 64.99 22.2889 64.863 22.6237L62.6086 28.5667C62.4815 28.9014 62.6492 29.2761 62.9829 29.4034Z" fill="#C99D2B"/>
<path d="M40.5085 30.5732L49.2351 35.6709C49.3357 35.7296 49.448 35.759 49.5604 35.759C49.6728 35.759 49.7853 35.7296 49.8857 35.6709L58.6124 30.5732C58.8113 30.457 58.9337 30.2435 58.9337 30.0125V19.7397C58.9337 19.5087 58.8113 19.2952 58.6124 19.179L49.8857 14.0813C49.6847 13.9638 49.4362 13.9638 49.2351 14.0813L40.5085 19.179C40.3095 19.2952 40.1872 19.5087 40.1872 19.7397V30.0125C40.1872 30.2435 40.3096 30.4571 40.5085 30.5732ZM41.4803 20.8681L48.9139 25.2104V33.9818L41.4803 29.6395V20.8681ZM50.207 33.9818V25.2104L57.6405 20.8681V29.6395L50.207 33.9818ZM49.5604 15.3927L57.0019 19.7397L49.5604 24.0867L42.1189 19.7397L49.5604 15.3927Z" fill="#C99D2B"/>
<path d="M49.5603 44.0659C49.9174 44.0659 50.2069 43.7755 50.2069 43.4172C50.2069 43.059 49.9174 42.7686 49.5603 42.7686C49.2032 42.7686 48.9138 43.059 48.9138 43.4172C48.9138 43.7755 49.2032 44.0659 49.5603 44.0659Z" fill="#C99D2B"/>
<path d="M8.58938 94.5033H4.14138L3.40538 96.6313H1.05337L5.06938 85.4473H7.67738L11.6934 96.6313H9.32538L8.58938 94.5033ZM7.98138 92.7113L6.36538 88.0393L4.74937 92.7113H7.98138ZM21.5625 87.7673V96.6313H19.3065V95.5113C19.0185 95.8953 18.6398 96.1993 18.1705 96.4233C17.7118 96.6367 17.2105 96.7433 16.6665 96.7433C15.9732 96.7433 15.3598 96.5993 14.8265 96.3113C14.2932 96.0127 13.8718 95.5807 13.5625 95.0153C13.2638 94.4393 13.1145 93.7567 13.1145 92.9673V87.7673H15.3545V92.6473C15.3545 93.3513 15.5305 93.8953 15.8825 94.2793C16.2345 94.6527 16.7145 94.8393 17.3225 94.8393C17.9412 94.8393 18.4265 94.6527 18.7785 94.2793C19.1305 93.8953 19.3065 93.3513 19.3065 92.6473V87.7673H21.5625ZM27.2446 87.6233C27.906 87.6233 28.4873 87.7567 28.9886 88.0233C29.49 88.2793 29.8846 88.6153 30.1726 89.0313V87.7673H32.4286V96.6953C32.4286 97.5167 32.2633 98.2473 31.9326 98.8873C31.602 99.538 31.106 100.05 30.4446 100.423C29.7833 100.807 28.9833 100.999 28.0446 100.999C26.786 100.999 25.7513 100.706 24.9406 100.119C24.1406 99.5327 23.6873 98.7327 23.5806 97.7193H25.8046C25.922 98.1247 26.1726 98.4447 26.5566 98.6793C26.9513 98.9247 27.426 99.0473 27.9806 99.0473C28.6313 99.0473 29.1593 98.85 29.5646 98.4553C29.97 98.0713 30.1726 97.4847 30.1726 96.6953V95.3193C29.8846 95.7353 29.4846 96.082 28.9726 96.3593C28.4713 96.6367 27.8953 96.7753 27.2446 96.7753C26.498 96.7753 25.8153 96.5833 25.1966 96.1993C24.578 95.8153 24.0873 95.2767 23.7246 94.5833C23.3726 93.8793 23.1966 93.074 23.1966 92.1673C23.1966 91.2713 23.3726 90.4767 23.7246 89.7833C24.0873 89.09 24.5726 88.5567 25.1806 88.1833C25.7993 87.81 26.4873 87.6233 27.2446 87.6233ZM30.1726 92.1993C30.1726 91.6553 30.066 91.1913 29.8526 90.8073C29.6393 90.4127 29.3513 90.114 28.9886 89.9113C28.626 89.698 28.2366 89.5913 27.8206 89.5913C27.4046 89.5913 27.0206 89.6927 26.6686 89.8953C26.3166 90.098 26.0286 90.3967 25.8046 90.7913C25.5913 91.1753 25.4846 91.634 25.4846 92.1673C25.4846 92.7007 25.5913 93.17 25.8046 93.5753C26.0286 93.97 26.3166 94.274 26.6686 94.4873C27.0313 94.7007 27.4153 94.8073 27.8206 94.8073C28.2366 94.8073 28.626 94.706 28.9886 94.5033C29.3513 94.29 29.6393 93.9913 29.8526 93.6073C30.066 93.2127 30.1726 92.7433 30.1726 92.1993ZM45.6244 87.6393C46.7124 87.6393 47.587 87.9753 48.2484 88.6473C48.9204 89.3087 49.2564 90.2367 49.2564 91.4313V96.6313H47.0164V91.7353C47.0164 91.042 46.8404 90.514 46.4884 90.1513C46.1364 89.778 45.6564 89.5913 45.0484 89.5913C44.4404 89.5913 43.955 89.778 43.5924 90.1513C43.2404 90.514 43.0644 91.042 43.0644 91.7353V96.6313H40.8244V91.7353C40.8244 91.042 40.6484 90.514 40.2964 90.1513C39.9444 89.778 39.4644 89.5913 38.8564 89.5913C38.2377 89.5913 37.747 89.778 37.3844 90.1513C37.0324 90.514 36.8564 91.042 36.8564 91.7353V96.6313H34.6164V87.7673H36.8564V88.8393C37.1444 88.466 37.5124 88.1727 37.9604 87.9593C38.419 87.746 38.9204 87.6393 39.4644 87.6393C40.1577 87.6393 40.7764 87.7887 41.3204 88.0873C41.8644 88.3753 42.2857 88.7913 42.5844 89.3353C42.8724 88.8233 43.2884 88.4127 43.8324 88.1033C44.387 87.794 44.9844 87.6393 45.6244 87.6393ZM59.622 92.0073C59.622 92.3273 59.6007 92.6153 59.558 92.8713H53.078C53.1313 93.5113 53.3553 94.0127 53.75 94.3753C54.1447 94.738 54.63 94.9193 55.206 94.9193C56.038 94.9193 56.63 94.562 56.982 93.8473H59.398C59.142 94.7007 58.6513 95.4047 57.926 95.9593C57.2007 96.5033 56.31 96.7753 55.254 96.7753C54.4007 96.7753 53.6327 96.5887 52.95 96.2153C52.278 95.8313 51.75 95.2927 51.366 94.5993C50.9927 93.906 50.806 93.106 50.806 92.1993C50.806 91.282 50.9927 90.4767 51.366 89.7833C51.7393 89.09 52.262 88.5567 52.934 88.1833C53.606 87.81 54.3793 87.6233 55.254 87.6233C56.0967 87.6233 56.8487 87.8047 57.51 88.1673C58.182 88.53 58.6993 89.0473 59.062 89.7193C59.4353 90.3807 59.622 91.1433 59.622 92.0073ZM57.302 91.3673C57.2913 90.7913 57.0833 90.3327 56.678 89.9913C56.2727 89.6393 55.7767 89.4633 55.19 89.4633C54.6353 89.4633 54.166 89.634 53.782 89.9753C53.4087 90.306 53.1793 90.77 53.094 91.3673H57.302ZM66.169 87.6393C67.225 87.6393 68.0783 87.9753 68.729 88.6473C69.3797 89.3087 69.705 90.2367 69.705 91.4313V96.6313H67.465V91.7353C67.465 91.0313 67.289 90.4927 66.937 90.1193C66.585 89.7353 66.105 89.5433 65.497 89.5433C64.8783 89.5433 64.3877 89.7353 64.025 90.1193C63.673 90.4927 63.497 91.0313 63.497 91.7353V96.6313H61.257V87.7673H63.497V88.8713C63.7957 88.4873 64.1743 88.1887 64.633 87.9753C65.1023 87.7513 65.6143 87.6393 66.169 87.6393ZM74.4431 89.6073V93.8953C74.4431 94.194 74.5125 94.4127 74.6511 94.5513C74.8005 94.6793 75.0458 94.7433 75.3871 94.7433H76.4271V96.6313H75.0191C73.1311 96.6313 72.1871 95.714 72.1871 93.8793V89.6073H71.1311V87.7673H72.1871V85.5753H74.4431V87.7673H76.4271V89.6073H74.4431ZM86.2783 92.0073C86.2783 92.3273 86.2569 92.6153 86.2143 92.8713H79.7343C79.7876 93.5113 80.0116 94.0127 80.4062 94.3753C80.8009 94.738 81.2863 94.9193 81.8623 94.9193C82.6943 94.9193 83.2863 94.562 83.6383 93.8473H86.0543C85.7983 94.7007 85.3076 95.4047 84.5823 95.9593C83.8569 96.5033 82.9663 96.7753 81.9103 96.7753C81.0569 96.7753 80.2889 96.5887 79.6063 96.2153C78.9342 95.8313 78.4062 95.2927 78.0222 94.5993C77.6489 93.906 77.4622 93.106 77.4622 92.1993C77.4622 91.282 77.6489 90.4767 78.0222 89.7833C78.3956 89.09 78.9183 88.5567 79.5903 88.1833C80.2623 87.81 81.0356 87.6233 81.9103 87.6233C82.7529 87.6233 83.5049 87.8047 84.1663 88.1673C84.8383 88.53 85.3556 89.0473 85.7183 89.7193C86.0916 90.3807 86.2783 91.1433 86.2783 92.0073ZM83.9583 91.3673C83.9476 90.7913 83.7396 90.3327 83.3342 89.9913C82.9289 89.6393 82.4329 89.4633 81.8463 89.4633C81.2916 89.4633 80.8223 89.634 80.4383 89.9753C80.0649 90.306 79.8356 90.77 79.7503 91.3673H83.9583ZM87.3372 92.1673C87.3372 91.2713 87.5132 90.4767 87.8652 89.7833C88.2279 89.09 88.7186 88.5567 89.3372 88.1833C89.9559 87.81 90.6439 87.6233 91.4012 87.6233C91.9773 87.6233 92.5266 87.7513 93.0493 88.0073C93.5719 88.2527 93.9879 88.5833 94.2973 88.9993V84.7913H96.5693V96.6313H94.2973V95.3193C94.0199 95.7567 93.6306 96.1087 93.1293 96.3753C92.6279 96.642 92.0466 96.7753 91.3853 96.7753C90.6386 96.7753 89.9559 96.5833 89.3372 96.1993C88.7186 95.8153 88.2279 95.2767 87.8652 94.5833C87.5132 93.8793 87.3372 93.074 87.3372 92.1673ZM94.3133 92.1993C94.3133 91.6553 94.2066 91.1913 93.9933 90.8073C93.7799 90.4127 93.4919 90.114 93.1293 89.9113C92.7666 89.698 92.3773 89.5913 91.9613 89.5913C91.5453 89.5913 91.1613 89.6927 90.8092 89.8953C90.4572 90.098 90.1693 90.3967 89.9453 90.7913C89.7319 91.1753 89.6253 91.634 89.6253 92.1673C89.6253 92.7007 89.7319 93.17 89.9453 93.5753C90.1693 93.97 90.4572 94.274 90.8092 94.4873C91.1719 94.7007 91.5559 94.8073 91.9613 94.8073C92.3773 94.8073 92.7666 94.706 93.1293 94.5033C93.4919 94.29 93.7799 93.9913 93.9933 93.6073C94.2066 93.2127 94.3133 92.7433 94.3133 92.1993ZM26.497 116.143C26.785 115.674 27.1583 115.306 27.617 115.039C28.0863 114.773 28.6197 114.639 29.217 114.639V116.991H28.625C27.921 116.991 27.3877 117.157 27.025 117.487C26.673 117.818 26.497 118.394 26.497 119.215V123.631H24.257V114.767H26.497V116.143ZM38.9658 119.007C38.9658 119.327 38.9444 119.615 38.9018 119.871H32.4218C32.4751 120.511 32.6991 121.013 33.0938 121.375C33.4884 121.738 33.9738 121.919 34.5498 121.919C35.3818 121.919 35.9738 121.562 36.3258 120.847H38.7418C38.4858 121.701 37.9951 122.405 37.2698 122.959C36.5444 123.503 35.6538 123.775 34.5978 123.775C33.7444 123.775 32.9764 123.589 32.2938 123.215C31.6217 122.831 31.0937 122.293 30.7097 121.599C30.3364 120.906 30.1497 120.106 30.1497 119.199C30.1497 118.282 30.3364 117.477 30.7097 116.783C31.0831 116.09 31.6058 115.557 32.2778 115.183C32.9498 114.81 33.7231 114.623 34.5978 114.623C35.4404 114.623 36.1924 114.805 36.8538 115.167C37.5258 115.53 38.0431 116.047 38.4058 116.719C38.7791 117.381 38.9658 118.143 38.9658 119.007ZM36.6458 118.367C36.6351 117.791 36.4271 117.333 36.0217 116.991C35.6164 116.639 35.1204 116.463 34.5338 116.463C33.9791 116.463 33.5098 116.634 33.1258 116.975C32.7524 117.306 32.5231 117.77 32.4378 118.367H36.6458ZM40.0247 119.167C40.0247 118.271 40.2007 117.477 40.5527 116.783C40.9154 116.09 41.4007 115.557 42.0087 115.183C42.6274 114.81 43.3154 114.623 44.0728 114.623C44.7341 114.623 45.3101 114.757 45.8008 115.023C46.3021 115.29 46.7021 115.626 47.0008 116.031V114.767H49.2568V123.631H47.0008V122.335C46.7128 122.751 46.3128 123.098 45.8008 123.375C45.2994 123.642 44.7181 123.775 44.0568 123.775C43.3101 123.775 42.6274 123.583 42.0087 123.199C41.4007 122.815 40.9154 122.277 40.5527 121.583C40.2007 120.879 40.0247 120.074 40.0247 119.167ZM47.0008 119.199C47.0008 118.655 46.8941 118.191 46.6808 117.807C46.4674 117.413 46.1794 117.114 45.8168 116.911C45.4541 116.698 45.0648 116.591 44.6488 116.591C44.2328 116.591 43.8488 116.693 43.4967 116.895C43.1447 117.098 42.8568 117.397 42.6328 117.791C42.4194 118.175 42.3128 118.634 42.3128 119.167C42.3128 119.701 42.4194 120.17 42.6328 120.575C42.8568 120.97 43.1447 121.274 43.4967 121.487C43.8594 121.701 44.2434 121.807 44.6488 121.807C45.0648 121.807 45.4541 121.706 45.8168 121.503C46.1794 121.29 46.4674 120.991 46.6808 120.607C46.8941 120.213 47.0008 119.743 47.0008 119.199ZM53.6845 111.791V123.631H51.4445V111.791H53.6845ZM57.0336 113.711C56.639 113.711 56.3083 113.589 56.0416 113.343C55.7856 113.087 55.6576 112.773 55.6576 112.399C55.6576 112.026 55.7856 111.717 56.0416 111.471C56.3083 111.215 56.639 111.087 57.0336 111.087C57.4283 111.087 57.7536 111.215 58.0096 111.471C58.2763 111.717 58.4096 112.026 58.4096 112.399C58.4096 112.773 58.2763 113.087 58.0096 113.343C57.7536 113.589 57.4283 113.711 57.0336 113.711ZM58.1376 114.767V123.631H55.8976V114.767H58.1376ZM62.9588 116.607V120.895C62.9588 121.194 63.0281 121.413 63.1667 121.551C63.3161 121.679 63.5614 121.743 63.9028 121.743H64.9427V123.631H63.5347C61.6467 123.631 60.7027 122.714 60.7027 120.879V116.607H59.6467V114.767H60.7027V112.575H62.9588V114.767H64.9427V116.607H62.9588ZM75.0339 114.767L69.5459 127.823H67.1619L69.0819 123.407L65.5299 114.767H68.0419L70.3299 120.959L72.6499 114.767H75.0339Z" fill="black"/>
</svg>
