<svg width="111" height="116" viewBox="0 0 111 116" fill="none" xmlns="http://www.w3.org/2000/svg">
<path d="M93.8361 14.1702C93.8361 14.1702 94.5586 14.9872 95.3216 15.9109C100.27 21.9 112.927 39.3113 109.661 61.6933C107.073 79.4297 95.927 90.4315 90.1127 96.1709C82.8014 103.388 71.5301 114.654 53.8093 115.739C29.1756 117.247 13.2473 97.8422 11.9208 96.1709C3.44078 85.4863 1.88252 74.4044 0.750395 66.3526C-0.14188 60.005 -2.54726 36.7887 10.99 18.8293C11.1557 18.6094 11.3717 18.3227 11.677 17.9403C22.3365 4.5684 39.1307 2.06418 45.4317 1.12459C55.7544 -0.0514598 66.2083 0.899879 76.1499 3.92004C87.5466 7.53912 92.6503 12.879 93.8361 14.1702Z" fill="black"/>
<path d="M55.5407 21.6475C54.8387 21.6475 54.2695 22.2162 54.2695 22.9177V30.4751C54.2695 31.1766 54.8387 31.7454 55.5407 31.7454C56.2426 31.7454 56.8119 31.1766 56.8119 30.4751V22.9177C56.8119 22.2162 56.2426 21.6475 55.5407 21.6475Z" fill="#C99D2B"/>
<path d="M48.3399 32.495L45.2984 29.4582C44.8014 28.9622 43.9968 28.9626 43.5005 29.4589C43.0043 29.9553 43.0047 30.7595 43.5012 31.2555L46.5429 34.2924C46.7911 34.5402 47.1163 34.6641 47.4414 34.6641C47.7669 34.6641 48.0924 34.5399 48.3406 34.2916C48.8368 33.7953 48.8364 32.991 48.3399 32.495Z" fill="#C99D2B"/>
<path d="M67.5855 29.4607C67.0889 28.9646 66.2839 28.9651 65.7877 29.4613L62.5541 32.6957C62.0579 33.1921 62.0583 33.9964 62.5548 34.4924C62.8031 34.7404 63.1284 34.8643 63.4535 34.8643C63.779 34.8643 64.1044 34.7401 64.3527 34.4918L67.5863 31.2575C68.0825 30.7611 68.0821 29.9567 67.5855 29.4607Z" fill="#C99D2B"/>
<path d="M79.7597 55.2031H78.7339C79.5711 54.1119 80.0703 52.7485 80.0703 51.2701V49.4762C80.0703 45.9057 77.1652 43.0009 73.5943 43.0009C70.0235 43.0009 67.1184 45.9057 67.1184 49.4761V50.8706L57.5549 41.3081C57.0242 40.7776 56.2437 40.6073 55.5432 40.8602C54.843 40.6073 54.0623 40.7776 53.5314 41.3083L43.9681 50.8706V49.4761C43.9678 45.9057 41.0627 43.0009 37.4918 43.0009C33.921 43.0009 31.0159 45.9057 31.0159 49.4761V51.27C31.0159 52.7485 31.5151 54.1118 32.3523 55.203H31.3265C26.7352 55.2031 23 58.9379 23 63.5286V80.3701C23 81.0722 23.5693 81.6412 24.2712 81.6412H29.6421C29.7692 81.6412 29.8918 81.622 30.0076 81.5873C30.1234 81.622 30.2459 81.6412 30.373 81.6412H44.6107C45.3126 81.6412 45.8819 81.0722 45.8819 80.3701V76.0485C45.8819 75.3465 45.3126 74.7775 44.6107 74.7775C43.9087 74.7775 43.3394 75.3465 43.3394 76.0485V79.0991H31.6443V64.6157C31.6443 63.9137 31.075 63.3447 30.373 63.3447C29.6711 63.3447 29.1018 63.9137 29.1018 64.6157V79.0991H25.5424V63.5286C25.5424 60.3396 28.1371 57.7453 31.3265 57.7453H40.1614C40.5112 57.7453 40.828 57.6038 41.0579 57.3753C41.0588 57.3744 41.0595 57.3739 41.0604 57.3731L54.2644 44.1706C54.1778 46.8103 53.3566 49.3528 51.8762 51.5514L43.5563 63.9058C43.4151 64.1157 43.3396 64.3629 43.3396 64.6157V66.0072C43.3396 66.7092 43.9088 67.2782 44.6108 67.2782C45.3127 67.2782 45.882 66.7092 45.882 66.0072V65.0037L53.9851 52.971C54.6042 52.0517 55.1233 51.0803 55.5432 50.072C55.9631 51.0803 56.4821 52.0517 57.1014 52.971L65.2043 65.0037V80.3701C65.2043 81.0722 65.7736 81.6412 66.4755 81.6412H80.7132C80.8403 81.6412 80.9628 81.622 81.0786 81.5873C81.1944 81.622 81.317 81.6412 81.4441 81.6412H86.815C87.5169 81.6412 88.0862 81.0722 88.0862 80.3701V63.5286C88.0862 58.9379 84.351 55.2031 79.7597 55.2031ZM41.4254 51.27C41.4254 53.4388 39.6609 55.2031 37.4918 55.2031C35.3228 55.2031 33.5583 53.4388 33.5583 51.2701V49.4762C33.5583 47.3074 35.3229 45.5431 37.4918 45.5431C39.6608 45.5431 41.4254 47.3074 41.4254 49.4761V51.27ZM69.6608 49.4761C69.6608 47.3074 71.4254 45.5431 73.5943 45.5431C75.7633 45.5431 77.5279 47.3074 77.5279 49.4761V51.27C77.5279 53.4388 75.7634 55.2031 73.5943 55.2031C71.4253 55.2031 69.6608 53.4388 69.6608 51.2701V49.4761ZM85.5438 79.0991H81.9844V69.6932C81.9844 68.9912 81.4151 68.4222 80.7132 68.4222C80.0112 68.4222 79.4419 68.9912 79.4419 69.6932V79.0991H67.7468V64.6157C67.7468 64.3628 67.6713 64.1156 67.53 63.9058L59.2102 51.5515C57.7297 49.3529 56.9085 46.8104 56.8219 44.1707L70.0259 57.3731C70.0427 57.3899 70.0585 57.404 70.0737 57.4166C70.2991 57.6203 70.5971 57.7455 70.9248 57.7455H79.7597C82.9491 57.7455 85.5438 60.3399 85.5438 63.5288V79.0991V79.0991Z" fill="#C99D2B"/>
<path d="M81.6112 63.7153C81.3749 63.4791 81.0469 63.3433 80.7126 63.3433C80.3783 63.3433 80.0503 63.4791 79.8139 63.7153C79.5774 63.9515 79.4414 64.2791 79.4414 64.6131C79.4414 64.947 79.5773 65.2746 79.8139 65.5108C80.0503 65.747 80.3783 65.8829 80.7126 65.8829C81.0469 65.8829 81.3749 65.747 81.6112 65.5108C81.8477 65.2746 81.9838 64.947 81.9838 64.6131C81.9838 64.2791 81.8478 63.9528 81.6112 63.7153Z" fill="#C99D2B"/>
<path d="M45.5077 70.4471C45.2714 70.211 44.9434 70.0752 44.6091 70.0752C44.2748 70.0752 43.9468 70.211 43.7104 70.4471C43.4739 70.6832 43.3379 71.0107 43.3379 71.3446C43.3379 71.6784 43.4738 72.006 43.7104 72.2421C43.9469 72.4782 44.2748 72.614 44.6091 72.614C44.9434 72.614 45.2714 72.4782 45.5077 72.2421C45.7442 72.006 45.8803 71.6784 45.8803 71.3446C45.8803 71.0107 45.7443 70.6832 45.5077 70.4471Z" fill="#C99D2B"/>
</svg>
