<svg width="121" height="116" viewBox="0 0 121 116" fill="none" xmlns="http://www.w3.org/2000/svg">
<path d="M120.505 58.5448C120.505 58.5448 120.436 59.6743 120.319 60.9115C119.559 68.9346 116.082 90.9903 97.2726 105.004C82.3671 116.109 66.118 115.995 57.6415 115.936C46.982 115.861 30.4472 115.849 16.6437 103.638C-2.54462 86.663 -0.00726499 60.7438 0.244598 58.5448C1.85472 44.4867 8.83691 35.2179 13.9105 28.4828C17.9098 23.1737 33.1684 4.38583 56.2749 1.15376C56.5578 1.11427 56.9269 1.06289 57.431 1.00618C75.0611 -0.974358 89.2248 9.51604 94.5395 13.4518C102.979 20.1662 109.955 28.5366 115.038 38.048C120.75 49.0664 120.581 56.7278 120.505 58.5448Z" fill="black"/>
<path d="M51.9559 64.7581C51.9406 64.6831 51.9183 64.6093 51.889 64.5389C51.8596 64.4674 51.8233 64.3994 51.781 64.3361C51.7376 64.2717 51.6883 64.2119 51.6343 64.158C51.362 63.886 50.9571 63.7606 50.5757 63.838C50.5005 63.8532 50.4266 63.8755 50.3562 63.9048C50.2846 63.9341 50.2165 63.9704 50.1531 64.0126C50.0886 64.0548 50.0287 64.1041 49.9747 64.158C49.9208 64.2119 49.8715 64.2717 49.8292 64.3361C49.787 64.3994 49.7506 64.4674 49.7212 64.5389C49.6919 64.6093 49.6696 64.6831 49.6543 64.7581C49.6391 64.8332 49.6309 64.9105 49.6309 64.9867C49.6309 65.0629 49.6391 65.1403 49.6543 65.2165C49.6696 65.2903 49.6919 65.3642 49.7212 65.4357C49.7506 65.506 49.787 65.574 49.8292 65.6373C49.8715 65.7017 49.9208 65.7615 49.9747 65.8154C50.0287 65.8694 50.0886 65.9186 50.1531 65.962C50.2165 66.0042 50.2846 66.0405 50.3562 66.0698C50.4266 66.0991 50.5005 66.1214 50.5757 66.1366C50.6508 66.1519 50.7282 66.1589 50.8045 66.1589C51.1132 66.1589 51.416 66.0335 51.6343 65.8154C51.6883 65.7615 51.7376 65.7017 51.781 65.6373C51.8233 65.574 51.8596 65.506 51.889 65.4357C51.9183 65.3642 51.9406 65.2903 51.9559 65.2165C51.9711 65.1403 51.9782 65.0629 51.9782 64.9867C51.9782 64.9105 51.9711 64.8332 51.9559 64.7581Z" fill="#C99D2B"/>
<path d="M88.9175 85.0219H86.4864V72.4718V67.3255C86.4864 65.3885 84.9104 63.8127 82.9732 63.8127H80.9689V56.7127V52.2372C80.9689 50.3003 79.3929 48.7244 77.4557 48.7244H73.8528V45.3172C74.6579 45.1139 75.4201 44.6989 76.0487 44.0703C77.4936 42.6257 77.8567 40.4243 76.9523 38.5921L73.7316 32.068C73.5338 31.6675 73.1258 31.4139 72.6791 31.4139C72.2325 31.4139 71.8245 31.6675 71.6267 32.068L68.406 38.5923C67.5016 40.4242 67.8647 42.6257 69.3096 44.0704C69.9382 44.699 70.7004 45.1141 71.5055 45.3173V48.7245H61.2192V43.6798C62.0244 43.4765 62.7865 43.0615 63.4151 42.4329C64.86 40.9883 65.223 38.7869 64.3187 36.9547L61.098 30.4305C60.9002 30.03 60.4923 29.7764 60.0456 29.7764C59.5989 29.7764 59.1909 30.03 58.9932 30.4305L55.7724 36.9549C54.8681 38.7869 55.2312 40.9883 56.676 42.4329C57.3046 43.0615 58.0668 43.4765 58.8719 43.6798V48.7245H48.5856V45.3209C49.4096 45.1132 50.1652 44.6868 50.7816 44.0704C52.2264 42.6259 52.5896 40.4243 51.6852 38.5923L48.4644 32.068C48.2667 31.6675 47.8587 31.4139 47.412 31.4139C46.9653 31.4139 46.5573 31.6675 46.3596 32.068L43.1388 38.5924C42.2345 40.4243 42.5977 42.6259 44.0424 44.0706C44.6588 44.6869 45.4144 45.1133 46.2383 45.3211V48.7246H42.6355C40.6982 48.7246 39.1222 50.3004 39.1222 52.2374V56.7132V63.8129H37.118C35.1807 63.8129 33.6048 65.3887 33.6048 67.3257V72.472V85.0221H31.1737C30.5254 85.0221 30 85.5475 30 86.1957C30 86.8438 30.5254 87.3692 31.1737 87.3692H34.7784H85.3127H88.9175C89.5657 87.3692 90.0911 86.8438 90.0911 86.1957C90.0911 85.5475 89.5657 85.0219 88.9175 85.0219ZM70.9694 42.4106C70.2362 41.6777 70.052 40.5606 70.5109 39.6309L72.6793 35.2386L74.8476 39.6309C75.3065 40.5606 75.1222 41.6777 74.3892 42.4106C74.2264 42.5734 74.045 42.7061 73.853 42.8127C73.1253 43.2166 72.2335 43.2166 71.5057 42.8127C71.3135 42.7062 71.1322 42.5735 70.9694 42.4106ZM58.3358 40.7732C57.6027 40.0403 57.4185 38.9232 57.8774 37.9935L60.0456 33.6013L62.2139 37.9937C62.6728 38.9233 62.4885 40.0404 61.7555 40.7733C61.5927 40.9361 61.4114 41.0688 61.2193 41.1754C60.4917 41.5793 59.5998 41.5793 58.872 41.1754C58.6799 41.0687 58.4986 40.9361 58.3358 40.7732ZM45.7022 42.4106C44.969 41.6777 44.7849 40.5606 45.2438 39.6309L47.4121 35.2386L49.5804 39.6309C50.0393 40.5605 49.8551 41.6775 49.122 42.4106C48.9592 42.5734 48.7779 42.7061 48.5859 42.8127C47.8582 43.2166 46.9664 43.2166 46.2386 42.8127C46.0463 42.7062 45.865 42.5735 45.7022 42.4106ZM42.6355 51.0714H77.4558C78.0987 51.0714 78.6217 51.5943 78.6217 52.2372V55.9215C78.1046 56.0839 77.5475 56.1587 76.89 56.1587C75.1396 56.1587 74.3408 55.6263 73.3296 54.9522C72.2039 54.2018 70.9282 53.3515 68.4671 53.3515C66.0062 53.3515 64.7304 54.2018 63.6049 54.9522C62.5937 55.6263 61.795 56.1587 60.0447 56.1587C58.2945 56.1587 57.4958 55.6263 56.4847 54.9522C55.3592 54.202 54.0835 53.3515 51.6226 53.3515C49.1618 53.3515 47.8862 54.202 46.7606 54.9522C45.7495 55.6263 44.9508 56.1587 43.2008 56.1587C42.5436 56.1587 41.9867 56.0838 41.4697 55.9216V52.2372H41.4695C41.4695 51.5943 41.9926 51.0714 42.6355 51.0714ZM84.1391 85.0219H35.9521V73.7434C36.9499 73.9269 37.5856 74.3499 38.3385 74.8518C39.464 75.6021 40.7396 76.4525 43.2007 76.4525C45.6615 76.4525 46.9371 75.602 48.0627 74.8518C49.0738 74.1777 49.8724 73.6453 51.6225 73.6453C53.3726 73.6453 54.1714 74.1777 55.1825 74.8518C56.3081 75.6021 57.5837 76.4525 60.0446 76.4525C62.5057 76.4525 63.7813 75.602 64.9069 74.8518C65.9181 74.1777 66.7167 73.6453 68.467 73.6453C70.2174 73.6453 71.0162 74.1777 72.0274 74.8518C73.1531 75.602 74.4287 76.4525 76.8899 76.4525C79.3509 76.4525 80.6267 75.602 81.7523 74.8518C82.5053 74.3499 83.1411 73.9268 84.1391 73.7433V85.0219ZM84.1391 71.3693C82.4158 71.5887 81.3816 72.278 80.4503 72.8988C79.439 73.5729 78.6403 74.1053 76.8899 74.1053C75.1395 74.1053 74.3408 73.5729 73.3295 72.8988C72.2038 72.1486 70.9281 71.2982 68.467 71.2982C66.0061 71.2982 64.7303 72.1486 63.6048 72.8988C62.5936 73.5729 61.7949 74.1053 60.0446 74.1053C58.2944 74.1053 57.4957 73.5729 56.4846 72.8988C55.359 72.1485 54.0834 71.2982 51.6224 71.2982C49.1616 71.2982 47.8859 72.1486 46.7604 72.8988C45.7493 73.5729 44.9506 74.1053 43.2006 74.1053C41.4503 74.1053 40.6516 73.5729 39.6405 72.8988C38.7092 72.278 37.6752 71.5887 35.9521 71.3693V67.3253C35.9521 66.6825 36.4752 66.1596 37.118 66.1596H46.1252C46.7734 66.1596 47.2989 65.6342 47.2989 64.9861C47.2989 64.3379 46.7734 63.8126 46.1252 63.8126H41.4695V58.3404C42.0097 58.4508 42.5803 58.5058 43.2007 58.5058C45.6615 58.5058 46.9371 57.6554 48.0627 56.9051C49.0738 56.2311 49.8724 55.6987 51.6225 55.6987C53.3728 55.6987 54.1714 56.2311 55.1825 56.9051C56.3081 57.6554 57.5837 58.5058 60.0446 58.5058C62.5056 58.5058 63.7813 57.6554 64.9069 56.9051C65.9181 56.2311 66.7167 55.6987 68.467 55.6987C70.2174 55.6987 71.0162 56.2311 72.0274 56.9051C73.1531 57.6555 74.4288 58.5058 76.8899 58.5058C77.5105 58.5058 78.0814 58.4507 78.6216 58.3402V63.8127H55.4835C54.8352 63.8127 54.3098 64.3381 54.3098 64.9862C54.3098 65.6343 54.8352 66.1597 55.4835 66.1597H82.9732C83.6161 66.1597 84.1391 66.6827 84.1391 67.3255V71.3693Z" fill="#C99D2B"/>
<path d="M41.4449 82.1054C41.4297 82.0303 41.4074 81.9565 41.378 81.8862C41.3487 81.8158 41.3123 81.7478 41.2701 81.6834C41.2266 81.6201 41.1785 81.5603 41.1234 81.5052C41.0694 81.4513 41.0095 81.4032 40.945 81.3598C40.8816 81.3176 40.8135 81.2813 40.7431 81.252C40.6727 81.2227 40.5987 81.2004 40.5236 81.1852C40.1422 81.109 39.7373 81.2332 39.4638 81.5052C39.4098 81.5603 39.3605 81.6201 39.3183 81.6834C39.276 81.7478 39.2396 81.8158 39.2103 81.8862C39.1809 81.9565 39.1587 82.0303 39.1434 82.1054C39.1281 82.1816 39.1211 82.2578 39.1211 82.3351C39.1211 82.4113 39.1281 82.4875 39.1434 82.5637C39.1587 82.6387 39.1809 82.7126 39.2103 82.7829C39.2396 82.8532 39.276 82.9212 39.3183 82.9857C39.3605 83.049 39.4098 83.1088 39.4638 83.1639C39.6821 83.3819 39.9849 83.5073 40.2948 83.5073C40.371 83.5073 40.4473 83.4991 40.5236 83.4839C40.5987 83.4686 40.6727 83.4464 40.7431 83.4171C40.8135 83.3878 40.8816 83.3514 40.945 83.3092C41.0095 83.2658 41.0694 83.2178 41.1234 83.1639C41.1785 83.1088 41.2266 83.049 41.2701 82.9857C41.3123 82.9212 41.3487 82.8532 41.378 82.7829C41.4074 82.7126 41.4297 82.6387 41.4449 82.5637C41.4602 82.4875 41.4684 82.4113 41.4684 82.3351C41.4684 82.2578 41.4602 82.1817 41.4449 82.1054Z" fill="#C99D2B"/>
<path d="M54.0594 78.5967C54.0441 78.5216 54.0218 78.4478 53.9925 78.3774C53.9631 78.307 53.9268 78.239 53.8845 78.1745C53.8411 78.1112 53.7918 78.0502 53.7378 77.9963C53.6838 77.9424 53.624 77.8931 53.5594 77.8509C53.496 77.8087 53.428 77.7723 53.3575 77.743C53.2859 77.7137 53.212 77.6914 53.1381 77.6762C52.9867 77.6457 52.8306 77.6457 52.6792 77.6762C52.6041 77.6914 52.5301 77.7137 52.4597 77.743C52.3881 77.7723 52.32 77.8087 52.2567 77.8509C52.1921 77.8931 52.1322 77.9424 52.0783 77.9963C52.0243 78.0502 51.975 78.1112 51.9327 78.1745C51.8905 78.239 51.8541 78.307 51.8247 78.3774C51.7954 78.4478 51.7731 78.5216 51.7578 78.5967C51.7426 78.6729 51.7344 78.7491 51.7344 78.8253C51.7344 78.9027 51.7426 78.979 51.7578 79.0552C51.7731 79.1302 51.7954 79.2041 51.8247 79.2744C51.8541 79.3448 51.8905 79.4128 51.9327 79.4773C51.975 79.5406 52.0243 79.6016 52.0783 79.6555C52.1322 79.7095 52.1921 79.7576 52.2567 79.8009C52.32 79.8432 52.3881 79.8795 52.4597 79.9088C52.5301 79.9381 52.6041 79.9604 52.6792 79.9757C52.7543 79.9909 52.8317 79.9991 52.908 79.9991C52.9843 79.9991 53.0618 79.9909 53.1381 79.9757C53.212 79.9604 53.2859 79.9381 53.3575 79.9088C53.428 79.8795 53.496 79.8432 53.5594 79.8009C53.624 79.7576 53.6838 79.7095 53.7378 79.6555C53.7918 79.6016 53.8411 79.5406 53.8845 79.4773C53.9268 79.4128 53.9631 79.3448 53.9925 79.2744C54.0218 79.2041 54.0441 79.1302 54.0594 79.0552C54.0746 78.979 54.0817 78.9027 54.0817 78.8253C54.0817 78.7491 54.0746 78.6729 54.0594 78.5967Z" fill="#C99D2B"/>
<path d="M67.6305 82.1042C67.6153 82.0292 67.593 81.9553 67.5636 81.885C67.5343 81.8146 67.4979 81.7467 67.4556 81.6822C67.4134 81.6189 67.3641 81.5591 67.3101 81.504C67.2561 81.4501 67.1963 81.402 67.1317 81.3587C67.0683 81.3165 67.0003 81.2801 66.9287 81.2508C66.8582 81.2215 66.7843 81.1992 66.7092 81.184C66.5578 81.1535 66.4017 81.1535 66.2503 81.184C66.1763 81.1992 66.1024 81.2215 66.0308 81.2508C65.9604 81.2801 65.8923 81.3165 65.8289 81.3587C65.7644 81.402 65.7045 81.4501 65.6505 81.504C65.5965 81.5591 65.5472 81.6189 65.5038 81.6822C65.4616 81.7467 65.4252 81.8146 65.3958 81.885C65.3665 81.9553 65.3442 82.0292 65.3289 82.1042C65.3137 82.1804 65.3066 82.2566 65.3066 82.3339C65.3066 82.4101 65.3137 82.4863 65.3289 82.5625C65.3442 82.6375 65.3665 82.7114 65.3958 82.7817C65.4252 82.8521 65.4616 82.92 65.5038 82.9845C65.5472 83.0478 65.5965 83.1088 65.6505 83.1627C65.7045 83.2166 65.7644 83.2659 65.8289 83.3081C65.8923 83.3503 65.9604 83.3866 66.0308 83.4159C66.1024 83.4452 66.1763 83.4675 66.2503 83.4827C66.3266 83.498 66.404 83.5062 66.4803 83.5062C66.789 83.5062 67.0918 83.3807 67.3101 83.1627C67.3641 83.1088 67.4134 83.0478 67.4556 82.9845C67.4979 82.92 67.5343 82.8521 67.5636 82.7817C67.593 82.7114 67.6153 82.6375 67.6305 82.5625C67.6458 82.4863 67.654 82.4101 67.654 82.3339C67.654 82.2566 67.6458 82.1804 67.6305 82.1042Z" fill="#C99D2B"/>
<path d="M80.9449 79.2988C80.9297 79.2238 80.9074 79.1499 80.878 79.0796C80.8487 79.0092 80.8123 78.9401 80.7701 78.8767C80.7278 78.8134 80.6785 78.7525 80.6245 78.6985C80.405 78.4804 80.1034 78.355 79.7947 78.355C79.4849 78.355 79.1833 78.4804 78.9638 78.6985C78.9098 78.7525 78.8617 78.8134 78.8183 78.8767C78.776 78.9401 78.7396 79.0092 78.7103 79.0796C78.681 79.1499 78.6587 79.2238 78.6434 79.2988C78.6281 79.3739 78.6211 79.4513 78.6211 79.5275C78.6211 79.6049 78.6281 79.6811 78.6434 79.7573C78.6587 79.8323 78.681 79.9062 78.7103 79.9766C78.7396 80.0469 78.776 80.1149 78.8183 80.1782C78.8617 80.2427 78.9098 80.3025 78.9638 80.3576C79.019 80.4116 79.0788 80.4596 79.1422 80.503C79.2067 80.5452 79.2748 80.5816 79.3452 80.6109C79.4157 80.6402 79.4896 80.6625 79.5647 80.6777C79.641 80.693 79.7173 80.7 79.7947 80.7C80.1034 80.7 80.4062 80.5757 80.6245 80.3576C80.6785 80.3025 80.7278 80.2427 80.7701 80.1782C80.8123 80.1149 80.8487 80.0469 80.878 79.9766C80.9074 79.905 80.9297 79.8323 80.9449 79.7573C80.9602 79.6811 80.9684 79.6049 80.9684 79.5275C80.9684 79.4512 80.9602 79.3739 80.9449 79.2988Z" fill="#C99D2B"/>
<path d="M69.2684 60.1149C69.2531 60.0411 69.2308 59.9672 69.2015 59.8957C69.1721 59.8254 69.1357 59.7574 69.0935 59.6941C69.0501 59.6296 69.0008 59.5698 68.9468 59.5159C68.8928 59.4608 68.8329 59.4128 68.7684 59.3694C68.705 59.3272 68.6369 59.2909 68.5665 59.2616C68.4949 59.2322 68.421 59.21 68.3471 59.1947C68.1956 59.1643 68.0396 59.1643 67.8882 59.1947C67.813 59.21 67.7391 59.2322 67.6687 59.2616C67.5971 59.2909 67.529 59.3272 67.4656 59.3694C67.4011 59.4128 67.3412 59.4608 67.2872 59.5159C67.2333 59.5698 67.184 59.6296 67.1417 59.6941C67.0995 59.7574 67.0631 59.8254 67.0337 59.8957C67.0044 59.9672 66.9821 60.0411 66.9668 60.1149C66.9516 60.1911 66.9434 60.2685 66.9434 60.3447C66.9434 60.4209 66.9516 60.4982 66.9668 60.5733C66.9821 60.6483 67.0044 60.7221 67.0337 60.7925C67.0631 60.8628 67.0995 60.932 67.1417 60.9953C67.184 61.0597 67.2333 61.1195 67.2872 61.1734C67.3412 61.2274 67.4011 61.2766 67.4656 61.3188C67.529 61.361 67.5971 61.3973 67.6687 61.4266C67.7391 61.4559 67.813 61.4782 67.8882 61.4935C67.9633 61.5087 68.0407 61.5169 68.117 61.5169C68.1933 61.5169 68.2708 61.5087 68.3471 61.4935C68.421 61.4782 68.4949 61.4559 68.5665 61.4266C68.6369 61.3973 68.705 61.361 68.7684 61.3188C68.8329 61.2766 68.8928 61.2274 68.9468 61.1734C69.0008 61.1195 69.0501 61.0597 69.0935 60.9953C69.1357 60.932 69.1721 60.8628 69.2015 60.7925C69.2308 60.7221 69.2531 60.6483 69.2684 60.5733C69.2836 60.4982 69.2907 60.4209 69.2907 60.3447C69.2907 60.2685 69.2836 60.1911 69.2684 60.1149Z" fill="#C99D2B"/>
<path d="M53.9449 58.5163C53.9297 58.4413 53.9074 58.3674 53.878 58.2971C53.8487 58.2268 53.8123 58.1588 53.7701 58.0943C53.7278 58.031 53.6785 57.97 53.6245 57.9161C53.5705 57.8622 53.5095 57.813 53.4461 57.7708C53.3816 57.7286 53.3135 57.6922 53.2431 57.6629C53.1727 57.6336 53.0987 57.6113 53.0236 57.5961C52.8722 57.5656 52.7161 57.5656 52.5647 57.5961C52.4896 57.6113 52.4157 57.6336 52.3452 57.6629C52.2748 57.6922 52.2067 57.7286 52.1422 57.7708C52.0788 57.813 52.019 57.8622 51.9638 57.9161C51.9098 57.97 51.8617 58.031 51.8183 58.0943C51.776 58.1588 51.7396 58.2268 51.7103 58.2971C51.6809 58.3674 51.6586 58.4413 51.6434 58.5163C51.6281 58.5925 51.6211 58.6687 51.6211 58.746C51.6211 58.8222 51.6281 58.8984 51.6434 58.9746C51.6586 59.0497 51.6809 59.1235 51.7103 59.1938C51.7396 59.2642 51.776 59.3322 51.8183 59.3966C51.8617 59.4599 51.9098 59.5197 51.9638 59.5748C52.019 59.6287 52.0788 59.6768 52.1422 59.7202C52.2067 59.7624 52.2748 59.7987 52.3452 59.828C52.4157 59.8573 52.4896 59.8796 52.5647 59.8948C52.641 59.9101 52.7173 59.9183 52.7948 59.9183C52.871 59.9183 52.9485 59.9101 53.0236 59.8948C53.0987 59.8796 53.1727 59.8573 53.2431 59.828C53.3135 59.7987 53.3816 59.7624 53.4461 59.7202C53.5095 59.6768 53.5705 59.6287 53.6245 59.5748C53.6785 59.5197 53.7266 59.4599 53.7701 59.3966C53.8123 59.3322 53.8487 59.2642 53.878 59.1938C53.9074 59.1235 53.9297 59.0497 53.9449 58.9746C53.9602 58.8984 53.9672 58.8222 53.9672 58.746C53.9672 58.6686 53.9602 58.5924 53.9449 58.5163Z" fill="#C99D2B"/>
</svg>
