<svg width="44" height="43" viewBox="0 0 44 43" fill="none" xmlns="http://www.w3.org/2000/svg">
<path d="M42.3375 20.8527C43.0382 23.1169 44.4768 27.7654 42.3375 32.4338C38.326 41.1878 23.5581 46.0307 12.5226 40.9077C4.36119 37.1193 0.00905256 28.7008 1.41078e-05 20.8527C-0.00912313 12.9171 4.42046 3.56152 12.5223 0.797792C24.6214 -3.32944 38.7737 9.33759 42.3375 20.8527Z" fill="black"/>
<path d="M25.6919 18.8218H18.424C17.8506 18.8218 17.3856 19.2626 17.3856 19.8063V28.9131C17.3856 29.4568 17.8505 29.8976 18.424 29.8976H25.6919C26.2653 29.8976 26.7303 29.4569 26.7303 28.9131V19.8062C26.7303 19.2625 26.2653 18.8218 25.6919 18.8218ZM22.0579 29.3569C21.8123 29.3569 21.6123 29.1678 21.6123 28.9341C21.6123 28.7009 21.8123 28.5114 22.0579 28.5114C22.304 28.5114 22.504 28.7009 22.504 28.9341C22.504 29.1678 22.304 29.3569 22.0579 29.3569ZM25.8219 27.8711C25.8219 27.9898 25.7204 28.0858 25.5953 28.0858H18.5206C18.3955 28.0858 18.294 27.9897 18.294 27.8711V19.8765C18.294 19.7579 18.3955 19.6618 18.5206 19.6618H25.5953C25.7204 19.6618 25.8219 19.7579 25.8219 19.8765V27.8711Z" fill="black"/>
<path d="M32.0999 14.5875H26.7801V13.5281C26.7801 12.3595 25.8258 11.4092 24.6522 11.4092H18.2684C17.0949 11.4092 16.1405 12.3594 16.1405 13.5281V14.5875H10.8207C9.64713 14.5875 8.69281 15.5378 8.69281 16.7064V30.4789C8.69281 31.6475 9.64713 32.5978 10.8207 32.5978H32.0999C33.2735 32.5978 34.2278 31.6476 34.2278 30.4789V16.7064C34.2278 15.5378 33.2735 14.5875 32.0999 14.5875ZM17.2045 13.5281C17.2045 12.944 17.6819 12.4686 18.2684 12.4686H24.6522C25.2387 12.4686 25.7161 12.944 25.7161 13.5281V14.5875H17.2045V13.5281ZM33.1639 30.479C33.1639 31.063 32.6864 31.5384 32.0999 31.5384H10.8207C10.2342 31.5384 9.7568 31.063 9.7568 30.479V22.7683C10.0711 22.9508 10.4314 23.063 10.8207 23.063H19.3324V24.6521C19.3324 24.9449 19.5704 25.1819 19.8644 25.1819H23.0563C23.3503 25.1819 23.5883 24.9449 23.5883 24.6521V23.063H32.1C32.4893 23.063 32.8497 22.9508 33.1639 22.7683L33.1639 30.479ZM20.3964 24.1224V22.0035H22.5243V24.1224H20.3964ZM33.1639 20.9441C33.1639 21.5281 32.6864 22.0035 32.0999 22.0035H23.5882V21.4738C23.5882 21.181 23.3503 20.9441 23.0562 20.9441H19.8644C19.5703 20.9441 19.3324 21.181 19.3324 21.4738V22.0035H10.8207C10.2342 22.0035 9.7568 21.5281 9.7568 20.9441V16.7064C9.7568 16.1224 10.2342 15.647 10.8207 15.647H32.0999C32.6864 15.647 33.1639 16.1224 33.1639 16.7064V20.9441Z" fill="#C99D2B"/>
</svg>
