<svg width="70" height="77" viewBox="0 0 70 77" fill="none" xmlns="http://www.w3.org/2000/svg">
<path d="M10.2354 10.2285H16.8387" stroke="white" stroke-width="7" stroke-linecap="round" stroke-linejoin="round"/>
<path d="M13.5359 6.46338V13.9931" stroke="white" stroke-width="7" stroke-linecap="round" stroke-linejoin="round"/>
<path d="M34.9977 6.46338L33.3469 13.9931" stroke="white" stroke-width="12" stroke-linecap="round" stroke-linejoin="round"/>
<path d="M56.459 10.2285H63.0624" stroke="white" stroke-width="7" stroke-linecap="round" stroke-linejoin="round"/>
<path d="M59.7594 6.46338V13.9931" stroke="white" stroke-width="7" stroke-linecap="round" stroke-linejoin="round"/>
<path d="M46.5527 25.2874L43.251 29.0522" stroke="white" stroke-width="12" stroke-linecap="round" stroke-linejoin="round"/>
<path d="M56.459 40.347L63.0624 38.4646" stroke="white" stroke-width="12" stroke-linecap="round" stroke-linejoin="round"/>
<path d="M56.459 62.9353H63.0624" stroke="white" stroke-width="7" stroke-linecap="round" stroke-linejoin="round"/>
<path d="M59.7598 59.1709V66.7004" stroke="white" stroke-width="7" stroke-linecap="round" stroke-linejoin="round"/>
<path d="M43.2516 53.591L21.7312 29.052L7.2367 65.1188C6.95629 65.8191 6.87025 66.6003 6.99013 67.3579C7.11001 68.1154 7.43008 68.8131 7.90745 69.3574C8.38482 69.9017 8.99668 70.2667 9.66105 70.4034C10.3254 70.5401 11.0106 70.442 11.6247 70.1222L43.2516 53.5948V53.591Z" stroke="white" stroke-width="12" stroke-linecap="round" stroke-linejoin="round"/>
<path d="M40.8948 53.1544L10.0032 68.7181L7.88086 65.6525L22.0297 32.167L40.8948 53.1544Z" fill="white"/>
</svg>
