<svg width="65" height="65" viewBox="0 0 65 65" fill="none" xmlns="http://www.w3.org/2000/svg">
<g clip-path="url(#clip0)">
<path d="M8.9375 0.463379C6.81577 0.463379 4.78094 1.30623 3.28065 2.80652C1.78035 4.30682 0.9375 6.34165 0.9375 8.46338L0.9375 56.4634C0.9375 58.5851 1.78035 60.6199 3.28065 62.1202C4.78094 63.6205 6.81577 64.4634 8.9375 64.4634H56.9375C59.0592 64.4634 61.0941 63.6205 62.5944 62.1202C64.0946 60.6199 64.9375 58.5851 64.9375 56.4634V8.46338C64.9375 6.34165 64.0946 4.30682 62.5944 2.80652C61.0941 1.30623 59.0592 0.463379 56.9375 0.463379L8.9375 0.463379ZM49.0575 20.3434C49.6131 20.8984 49.9289 21.6491 49.9371 22.4344C49.9454 23.2197 49.6453 23.9769 49.1015 24.5434L33.1335 44.5034C32.8591 44.799 32.5278 45.0362 32.1596 45.2008C31.7914 45.3655 31.3938 45.4542 30.9905 45.4617C30.5872 45.4692 30.1866 45.3952 29.8125 45.2443C29.4385 45.0934 29.0987 44.8686 28.8135 44.5834L18.2335 33.9994C17.9388 33.7247 17.7023 33.3935 17.5384 33.0255C17.3744 32.6575 17.2862 32.2603 17.2791 31.8575C17.272 31.4547 17.3461 31.0545 17.497 30.681C17.6479 30.3074 17.8725 29.9681 18.1573 29.6832C18.4422 29.3983 18.7816 29.1738 19.1551 29.0229C19.5287 28.872 19.9288 28.7979 20.3316 28.805C20.7344 28.8121 21.1317 28.9003 21.4997 29.0643C21.8677 29.2282 22.1989 29.4646 22.4735 29.7594L30.8495 38.1314L44.7415 20.4314C45.0154 20.1353 45.3462 19.8974 45.7141 19.7321C46.082 19.5667 46.4795 19.4772 46.8828 19.469C47.2861 19.4608 47.6869 19.534 48.0612 19.6842C48.4356 19.8345 48.7758 20.0587 49.0615 20.3434H49.0575Z" fill="white"/>
</g>
<defs>
<clipPath id="clip0">
<rect width="64" height="64" fill="white" transform="translate(0.9375 0.463379)"/>
</clipPath>
</defs>
</svg>
