<svg width="30" height="30" viewBox="0 0 30 30" fill="none" xmlns="http://www.w3.org/2000/svg">
<path d="M25.6114 4.38863C19.7586 -1.46288 10.2404 -1.46288 4.38767 4.38863C-1.46256 10.2401 -1.46256 19.7608 4.38767 25.6123C7.31404 28.5375 11.1571 29.9994 15.0002 29.9994C18.8433 29.9994 22.685 28.5374 25.6114 25.6123C31.4629 19.7609 31.4629 10.2401 25.6114 4.38863ZM21.1893 19.4219C21.6782 19.9109 21.6782 20.7013 21.1893 21.1902C20.9454 21.4341 20.6253 21.5567 20.3051 21.5567C19.985 21.5567 19.6648 21.4341 19.4209 21.1902L15.0001 16.7681L10.5805 21.1889C10.3354 21.4328 10.0152 21.5554 9.69635 21.5554C9.37622 21.5554 9.05603 21.4328 8.81216 21.1889C8.3232 20.7 8.3232 19.9084 8.81216 19.4206L13.2317 14.9998L8.81093 10.579C8.32197 10.0901 8.32197 9.29845 8.81093 8.81073C9.29866 8.32177 10.0903 8.32177 10.5792 8.81073L15 13.2315L19.4208 8.81073C19.9098 8.32177 20.7002 8.32177 21.1892 8.81073C21.6781 9.29845 21.6781 10.0901 21.1892 10.579L16.7684 14.9998L21.1893 19.4219Z" fill="black"/>
</svg>
