<svg width="121" height="117" viewBox="0 0 121 117" fill="none" xmlns="http://www.w3.org/2000/svg">
<path d="M120.505 58.6703C120.505 58.6703 120.436 59.7998 120.319 61.037C119.559 69.0601 116.082 91.1157 97.2727 105.13C82.3671 116.235 66.1181 116.121 57.6415 116.061C46.9821 115.987 30.4473 115.975 16.6437 103.763C-2.54462 86.7884 -0.007265 60.8693 0.244598 58.6703C1.85472 44.6122 8.83691 35.3434 13.9105 28.6083C17.9099 23.2992 33.1684 4.51132 56.2749 1.27924C56.5578 1.23975 56.9269 1.18838 57.431 1.13167C75.0612 -0.848869 89.2248 9.64152 94.5395 13.5773C102.979 20.2916 109.955 28.6621 115.038 38.1735C120.75 49.1919 120.581 56.8533 120.505 58.6703Z" fill="black"/>
<path d="M75.1437 89.7687C74.8769 89.7687 74.6211 89.6628 74.4325 89.4742C74.2439 89.2856 74.1379 89.0298 74.1379 88.7631V35.3417L61.3912 29.9947L50.6871 34.2053V88.7631C50.6871 89.0298 50.5811 89.2856 50.3925 89.4742C50.2039 89.6628 49.9481 89.7687 49.6813 89.7687C49.4146 89.7687 49.1588 89.6628 48.9702 89.4742C48.7816 89.2856 48.6756 89.0298 48.6756 88.7631V33.5195C48.6755 33.3174 48.7363 33.12 48.85 32.953C48.9638 32.786 49.1252 32.6572 49.3132 32.5832L61.0351 27.9724C61.279 27.8763 61.5507 27.8792 61.7925 27.9804L75.5329 33.7457C75.7156 33.8224 75.8715 33.9513 75.9812 34.1162C76.0909 34.2812 76.1494 34.4749 76.1494 34.6729V88.7631C76.1494 89.0298 76.0435 89.2856 75.8548 89.4742C75.6662 89.6628 75.4104 89.7687 75.1437 89.7687Z" fill="#C99D2B"/>
<path d="M61.4004 89.7687C61.1337 89.7687 60.8778 89.6627 60.6892 89.4741C60.5006 89.2855 60.3947 89.0298 60.3947 88.763V28.9094C60.3947 28.6427 60.5006 28.3869 60.6892 28.1983C60.8778 28.0098 61.1337 27.9038 61.4004 27.9038C61.6671 27.9038 61.9229 28.0098 62.1116 28.1983C62.3002 28.3869 62.4061 28.6427 62.4061 28.9094V88.763C62.4061 89.0298 62.3002 89.2855 62.1116 89.4741C61.9229 89.6627 61.6671 89.7687 61.4004 89.7687Z" fill="#C99D2B"/>
<path d="M91.3762 89.7702C91.1095 89.7702 90.8537 89.6642 90.665 89.4756C90.4764 89.287 90.3705 89.0312 90.3705 88.7645V57.1568L80.5364 51.4356H75.1386C74.8718 51.4356 74.616 51.3297 74.4274 51.1411C74.2388 50.9525 74.1328 50.6967 74.1328 50.43C74.1328 50.1633 74.2388 49.9075 74.4274 49.7189C74.616 49.5303 74.8718 49.4243 75.1386 49.4243H80.8079C80.9846 49.4249 81.1581 49.4721 81.3108 49.5611L91.8801 55.7097C92.0327 55.7977 92.1594 55.9244 92.2477 56.0769C92.336 56.2294 92.3826 56.4024 92.383 56.5785V88.7595C92.3836 88.892 92.3581 89.0234 92.3078 89.1461C92.2574 89.2688 92.1834 89.3803 92.0898 89.4742C91.9962 89.5681 91.885 89.6426 91.7626 89.6934C91.6401 89.7442 91.5088 89.7703 91.3762 89.7702Z" fill="#C99D2B"/>
<path d="M80.8065 89.7702C80.5398 89.7702 80.284 89.6642 80.0954 89.4756C79.9067 89.287 79.8008 89.0312 79.8008 88.7645V50.43C79.8008 50.1633 79.9067 49.9075 80.0954 49.7189C80.284 49.5303 80.5398 49.4243 80.8065 49.4243C81.0733 49.4243 81.3291 49.5303 81.5177 49.7189C81.7063 49.9075 81.8123 50.1633 81.8123 50.43V88.7645C81.8123 89.0312 81.7063 89.287 81.5177 89.4756C81.3291 89.6642 81.0733 89.7702 80.8065 89.7702Z" fill="#C99D2B"/>
<path d="M29.0175 89.7687C28.7507 89.7687 28.4949 89.6628 28.3063 89.4742C28.1177 89.2856 28.0117 89.0298 28.0117 88.7631V57.4436C28.0117 57.1769 28.1177 56.9211 28.3063 56.7325C28.4949 56.5439 28.7507 56.438 29.0175 56.438H49.6764C49.9431 56.438 50.1989 56.5439 50.3875 56.7325C50.5761 56.9211 50.6821 57.1769 50.6821 57.4436C50.6821 57.7103 50.5761 57.9661 50.3875 58.1547C50.1989 58.3432 49.9431 58.4492 49.6764 58.4492H30.0232V88.7631C30.0232 89.0298 29.9172 89.2856 29.7286 89.4742C29.54 89.6628 29.2842 89.7687 29.0175 89.7687Z" fill="#C99D2B"/>
<path d="M34.555 62.3098H32.4178C32.1511 62.3098 31.8953 62.2039 31.7067 62.0154C31.5181 61.8269 31.4121 61.5713 31.4121 61.3048C31.4121 61.0382 31.5181 60.7826 31.7067 60.5942C31.8953 60.4057 32.1511 60.2998 32.4178 60.2998H34.555C34.8218 60.2998 35.0776 60.4057 35.2662 60.5942C35.4548 60.7826 35.5607 61.0382 35.5607 61.3048C35.5607 61.5713 35.4548 61.8269 35.2662 62.0154C35.0776 62.2039 34.8218 62.3098 34.555 62.3098Z" fill="#C99D2B"/>
<path d="M40.4194 62.309H38.2811C38.0144 62.309 37.7586 62.2032 37.57 62.0148C37.3814 61.8264 37.2754 61.5708 37.2754 61.3044C37.2754 61.038 37.3814 60.7824 37.57 60.594C37.7586 60.4056 38.0144 60.2998 38.2811 60.2998H40.4194C40.6861 60.2998 40.9419 60.4056 41.1305 60.594C41.3191 60.7824 41.4251 61.038 41.4251 61.3044C41.4251 61.5708 41.3191 61.8264 41.1305 62.0148C40.9419 62.2032 40.6861 62.309 40.4194 62.309Z" fill="#C99D2B"/>
<path d="M46.2817 62.309H44.1444C43.8777 62.309 43.6219 62.2032 43.4333 62.0148C43.2446 61.8264 43.1387 61.5708 43.1387 61.3044C43.1387 61.038 43.2446 60.7824 43.4333 60.594C43.6219 60.4056 43.8777 60.2998 44.1444 60.2998H46.2817C46.5484 60.2998 46.8042 60.4056 46.9928 60.594C47.1814 60.7824 47.2874 61.038 47.2874 61.3044C47.2874 61.5708 47.1814 61.8264 46.9928 62.0148C46.8042 62.2032 46.5484 62.309 46.2817 62.309Z" fill="#C99D2B"/>
<path d="M34.555 67.0263H32.4178C32.1511 67.0263 31.8953 66.9204 31.7067 66.732C31.5181 66.5436 31.4121 66.2881 31.4121 66.0217C31.4121 65.7552 31.5181 65.4997 31.7067 65.3113C31.8953 65.1229 32.1511 65.0171 32.4178 65.0171H34.555C34.8218 65.0171 35.0776 65.1229 35.2662 65.3113C35.4548 65.4997 35.5607 65.7552 35.5607 66.0217C35.5607 66.2881 35.4548 66.5436 35.2662 66.732C35.0776 66.9204 34.8218 67.0263 34.555 67.0263Z" fill="#C99D2B"/>
<path d="M40.4194 67.0263H38.2811C38.0144 67.0263 37.7586 66.9204 37.57 66.732C37.3814 66.5436 37.2754 66.2881 37.2754 66.0217C37.2754 65.7552 37.3814 65.4997 37.57 65.3113C37.7586 65.1229 38.0144 65.0171 38.2811 65.0171H40.4194C40.6861 65.0171 40.9419 65.1229 41.1305 65.3113C41.3191 65.4997 41.4251 65.7552 41.4251 66.0217C41.4251 66.2881 41.3191 66.5436 41.1305 66.732C40.9419 66.9204 40.6861 67.0263 40.4194 67.0263Z" fill="#C99D2B"/>
<path d="M46.2817 67.0263H44.1444C43.8777 67.0263 43.6219 66.9204 43.4333 66.732C43.2446 66.5436 43.1387 66.2881 43.1387 66.0217C43.1387 65.7552 43.2446 65.4997 43.4333 65.3113C43.6219 65.1229 43.8777 65.0171 44.1444 65.0171H46.2817C46.5484 65.0171 46.8042 65.1229 46.9928 65.3113C47.1814 65.4997 47.2874 65.7552 47.2874 66.0217C47.2874 66.2881 47.1814 66.5436 46.9928 66.732C46.8042 66.9204 46.5484 67.0263 46.2817 67.0263Z" fill="#C99D2B"/>
<path d="M34.555 71.746H32.4178C32.1511 71.746 31.8953 71.6402 31.7067 71.4518C31.5181 71.2634 31.4121 71.0078 31.4121 70.7414C31.4121 70.475 31.5181 70.2195 31.7067 70.0311C31.8953 69.8427 32.1511 69.7368 32.4178 69.7368H34.555C34.8218 69.7368 35.0776 69.8427 35.2662 70.0311C35.4548 70.2195 35.5607 70.475 35.5607 70.7414C35.5607 71.0078 35.4548 71.2634 35.2662 71.4518C35.0776 71.6402 34.8218 71.746 34.555 71.746Z" fill="#C99D2B"/>
<path d="M40.4194 71.7468H38.2811C38.0144 71.7468 37.7586 71.6409 37.57 71.4524C37.3814 71.264 37.2754 71.0083 37.2754 70.7418C37.2754 70.4753 37.3814 70.2196 37.57 70.0312C37.7586 69.8427 38.0144 69.7368 38.2811 69.7368H40.4194C40.6861 69.7368 40.9419 69.8427 41.1305 70.0312C41.3191 70.2196 41.4251 70.4753 41.4251 70.7418C41.4251 71.0083 41.3191 71.264 41.1305 71.4524C40.9419 71.6409 40.6861 71.7468 40.4194 71.7468Z" fill="#C99D2B"/>
<path d="M46.2817 71.7468H44.1444C43.8777 71.7468 43.6219 71.6409 43.4333 71.4524C43.2446 71.264 43.1387 71.0083 43.1387 70.7418C43.1387 70.4753 43.2446 70.2196 43.4333 70.0312C43.6219 69.8427 43.8777 69.7368 44.1444 69.7368H46.2817C46.5484 69.7368 46.8042 69.8427 46.9928 70.0312C47.1814 70.2196 47.2874 70.4753 47.2874 70.7418C47.2874 71.0083 47.1814 71.264 46.9928 71.4524C46.8042 71.6409 46.5484 71.7468 46.2817 71.7468Z" fill="#C99D2B"/>
<path d="M34.555 76.4641H32.4178C32.1511 76.4641 31.8953 76.3582 31.7067 76.1697C31.5181 75.9812 31.4121 75.7256 31.4121 75.4591C31.4121 75.1925 31.5181 74.9369 31.7067 74.7485C31.8953 74.56 32.1511 74.4541 32.4178 74.4541H34.555C34.8218 74.4541 35.0776 74.56 35.2662 74.7485C35.4548 74.9369 35.5607 75.1925 35.5607 75.4591C35.5607 75.7256 35.4548 75.9812 35.2662 76.1697C35.0776 76.3582 34.8218 76.4641 34.555 76.4641Z" fill="#C99D2B"/>
<path d="M40.4194 76.4641H38.2811C38.0144 76.4641 37.7586 76.3582 37.57 76.1697C37.3814 75.9812 37.2754 75.7256 37.2754 75.4591C37.2754 75.1925 37.3814 74.9369 37.57 74.7485C37.7586 74.56 38.0144 74.4541 38.2811 74.4541H40.4194C40.6861 74.4541 40.9419 74.56 41.1305 74.7485C41.3191 74.9369 41.4251 75.1925 41.4251 75.4591C41.4251 75.7256 41.3191 75.9812 41.1305 76.1697C40.9419 76.3582 40.6861 76.4641 40.4194 76.4641Z" fill="#C99D2B"/>
<path d="M46.2817 76.4641H44.1444C43.8777 76.4641 43.6219 76.3582 43.4333 76.1697C43.2446 75.9812 43.1387 75.7256 43.1387 75.4591C43.1387 75.1925 43.2446 74.9369 43.4333 74.7485C43.6219 74.56 43.8777 74.4541 44.1444 74.4541H46.2817C46.5484 74.4541 46.8042 74.56 46.9928 74.7485C47.1814 74.9369 47.2874 75.1925 47.2874 75.4591C47.2874 75.7256 47.1814 75.9812 46.9928 76.1697C46.8042 76.3582 46.5484 76.4641 46.2817 76.4641Z" fill="#C99D2B"/>
<path d="M34.555 81.1857H32.4178C32.1511 81.1857 31.8953 81.0799 31.7067 80.8914C31.5181 80.7029 31.4121 80.4473 31.4121 80.1808C31.4121 79.9142 31.5181 79.6586 31.7067 79.4701C31.8953 79.2817 32.1511 79.1758 32.4178 79.1758H34.555C34.8218 79.1758 35.0776 79.2817 35.2662 79.4701C35.4548 79.6586 35.5607 79.9142 35.5607 80.1808C35.5607 80.4473 35.4548 80.7029 35.2662 80.8914C35.0776 81.0799 34.8218 81.1857 34.555 81.1857Z" fill="#C99D2B"/>
<path d="M40.4194 81.185H38.2811C38.0144 81.185 37.7586 81.0791 37.57 80.8907C37.3814 80.7023 37.2754 80.4468 37.2754 80.1804C37.2754 79.9139 37.3814 79.6584 37.57 79.47C37.7586 79.2816 38.0144 79.1758 38.2811 79.1758H40.4194C40.6861 79.1758 40.9419 79.2816 41.1305 79.47C41.3191 79.6584 41.4251 79.9139 41.4251 80.1804C41.4251 80.4468 41.3191 80.7023 41.1305 80.8907C40.9419 81.0791 40.6861 81.185 40.4194 81.185Z" fill="#C99D2B"/>
<path d="M46.2817 81.185H44.1444C43.8777 81.185 43.6219 81.0791 43.4333 80.8907C43.2446 80.7023 43.1387 80.4468 43.1387 80.1804C43.1387 79.9139 43.2446 79.6584 43.4333 79.47C43.6219 79.2816 43.8777 79.1758 44.1444 79.1758H46.2817C46.5484 79.1758 46.8042 79.2816 46.9928 79.47C47.1814 79.6584 47.2874 79.9139 47.2874 80.1804C47.2874 80.4468 47.1814 80.7023 46.9928 80.8907C46.8042 81.0791 46.5484 81.185 46.2817 81.185Z" fill="#C99D2B"/>
<path d="M34.555 85.9034H32.4178C32.1511 85.9034 31.8953 85.7976 31.7067 85.6093C31.5181 85.421 31.4121 85.1655 31.4121 84.8992C31.4121 84.6329 31.5181 84.3775 31.7067 84.1891C31.8953 84.0008 32.1511 83.895 32.4178 83.895H34.555C34.8218 83.895 35.0776 84.0008 35.2662 84.1891C35.4548 84.3775 35.5607 84.6329 35.5607 84.8992C35.5607 85.1655 35.4548 85.421 35.2662 85.6093C35.0776 85.7976 34.8218 85.9034 34.555 85.9034Z" fill="#C99D2B"/>
<path d="M40.4194 85.9034H38.2811C38.0144 85.9034 37.7586 85.7976 37.57 85.6093C37.3814 85.421 37.2754 85.1655 37.2754 84.8992C37.2754 84.6329 37.3814 84.3775 37.57 84.1891C37.7586 84.0008 38.0144 83.895 38.2811 83.895H40.4194C40.6861 83.895 40.9419 84.0008 41.1305 84.1891C41.3191 84.3775 41.4251 84.6329 41.4251 84.8992C41.4251 85.1655 41.3191 85.421 41.1305 85.6093C40.9419 85.7976 40.6861 85.9034 40.4194 85.9034Z" fill="#C99D2B"/>
<path d="M46.2817 85.9034H44.1444C43.8777 85.9034 43.6219 85.7976 43.4333 85.6093C43.2446 85.421 43.1387 85.1655 43.1387 84.8992C43.1387 84.6329 43.2446 84.3775 43.4333 84.1891C43.6219 84.0008 43.8777 83.895 44.1444 83.895H46.2817C46.5484 83.895 46.8042 84.0008 46.9928 84.1891C47.1814 84.3775 47.2874 84.6329 47.2874 84.8992C47.2874 85.1655 47.1814 85.421 46.9928 85.6093C46.8042 85.7976 46.5484 85.9034 46.2817 85.9034Z" fill="#C99D2B"/>
<path d="M57.8565 38.7458C57.5898 38.7458 57.334 38.6399 57.1453 38.4515C56.9567 38.2631 56.8508 38.0075 56.8508 37.741V35.8451C56.8508 35.5786 56.9567 35.323 57.1453 35.1346C57.334 34.9462 57.5898 34.8403 57.8565 34.8403C58.1232 34.8403 58.3791 34.9462 58.5677 35.1346C58.7563 35.323 58.8622 35.5786 58.8622 35.8451V37.741C58.8622 38.0075 58.7563 38.2631 58.5677 38.4515C58.3791 38.6399 58.1232 38.7458 57.8565 38.7458Z" fill="#C99D2B"/>
<path d="M53.2689 39.9155C53.0022 39.9155 52.7464 39.8097 52.5578 39.6212C52.3691 39.4327 52.2632 39.1771 52.2632 38.9106V37.0142C52.2632 36.7477 52.3691 36.4921 52.5578 36.3036C52.7464 36.1152 53.0022 36.0093 53.2689 36.0093C53.5357 36.0093 53.7915 36.1152 53.9801 36.3036C54.1687 36.4921 54.2747 36.7477 54.2747 37.0142V38.9106C54.2747 39.1771 54.1687 39.4327 53.9801 39.6212C53.7915 39.8097 53.5357 39.9155 53.2689 39.9155Z" fill="#C99D2B"/>
<path d="M57.8573 46.3082C57.5906 46.3082 57.3347 46.2023 57.1461 46.0137C56.9575 45.8252 56.8516 45.5695 56.8516 45.3029V43.4057C56.8516 43.1391 56.9575 42.8834 57.1461 42.6949C57.3347 42.5063 57.5906 42.4004 57.8573 42.4004C58.124 42.4004 58.3798 42.5063 58.5685 42.6949C58.7571 42.8834 58.863 43.1391 58.863 43.4057V45.3029C58.863 45.5695 58.7571 45.8252 58.5685 46.0137C58.3798 46.2023 58.124 46.3082 57.8573 46.3082Z" fill="#C99D2B"/>
<path d="M53.2694 47.4781C53.0027 47.4781 52.7469 47.3722 52.5582 47.1837C52.3696 46.9951 52.2637 46.7394 52.2637 46.4728V44.5757C52.2637 44.309 52.3696 44.0533 52.5582 43.8648C52.7469 43.6762 53.0027 43.5703 53.2694 43.5703C53.5361 43.5703 53.792 43.6762 53.9806 43.8648C54.1692 44.0533 54.2751 44.309 54.2751 44.5757V46.4728C54.2751 46.7394 54.1692 46.9951 53.9806 47.1837C53.792 47.3722 53.5361 47.4781 53.2694 47.4781Z" fill="#C99D2B"/>
<path d="M57.8573 53.8826C57.5906 53.8826 57.3347 53.7767 57.1461 53.5882C56.9575 53.3997 56.8516 53.1441 56.8516 52.8775V50.9768C56.8516 50.7102 56.9575 50.4546 57.1461 50.2661C57.3347 50.0776 57.5906 49.9717 57.8573 49.9717C58.124 49.9717 58.3798 50.0776 58.5685 50.2661C58.7571 50.4546 58.863 50.7102 58.863 50.9768V52.8775C58.863 53.1441 58.7571 53.3997 58.5685 53.5882C58.3798 53.7767 58.124 53.8826 57.8573 53.8826Z" fill="#C99D2B"/>
<path d="M53.2694 55.048C53.0027 55.048 52.7469 54.942 52.5582 54.7535C52.3696 54.5649 52.2637 54.3092 52.2637 54.0426V52.1455C52.2637 51.8789 52.3696 51.6231 52.5582 51.4346C52.7469 51.2461 53.0027 51.1401 53.2694 51.1401C53.5361 51.1401 53.792 51.2461 53.9806 51.4346C54.1692 51.6231 54.2751 51.8789 54.2751 52.1455V54.0426C54.2751 54.3092 54.1692 54.5649 53.9806 54.7535C53.792 54.942 53.5361 55.048 53.2694 55.048Z" fill="#C99D2B"/>
<path d="M57.8573 61.4444C57.5906 61.4444 57.3347 61.3385 57.1461 61.15C56.9575 60.9614 56.8516 60.7057 56.8516 60.4391V58.542C56.8516 58.2753 56.9575 58.0196 57.1461 57.8311C57.3347 57.6425 57.5906 57.5366 57.8573 57.5366C58.124 57.5366 58.3798 57.6425 58.5685 57.8311C58.7571 58.0196 58.863 58.2753 58.863 58.542V60.4391C58.863 60.7057 58.7571 60.9614 58.5685 61.15C58.3798 61.3385 58.124 61.4444 57.8573 61.4444Z" fill="#C99D2B"/>
<path d="M53.2694 62.6129C53.0027 62.6129 52.7469 62.507 52.5582 62.3184C52.3696 62.1299 52.2637 61.8742 52.2637 61.6075V59.7104C52.2637 59.4438 52.3696 59.1881 52.5582 58.9995C52.7469 58.811 53.0027 58.7051 53.2694 58.7051C53.5361 58.7051 53.792 58.811 53.9806 58.9995C54.1692 59.1881 54.2751 59.4438 54.2751 59.7104V61.6075C54.2751 61.8742 54.1692 62.1299 53.9806 62.3184C53.792 62.507 53.5361 62.6129 53.2694 62.6129Z" fill="#C99D2B"/>
<path d="M57.8573 69.007C57.5906 69.007 57.3347 68.901 57.1461 68.7125C56.9575 68.5239 56.8516 68.2682 56.8516 68.0016V66.1045C56.8516 65.8378 56.9575 65.5821 57.1461 65.3936C57.3347 65.205 57.5906 65.0991 57.8573 65.0991C58.124 65.0991 58.3798 65.205 58.5685 65.3936C58.7571 65.5821 58.863 65.8378 58.863 66.1045V68.0016C58.863 68.2682 58.7571 68.5239 58.5685 68.7125C58.3798 68.901 58.124 69.007 57.8573 69.007Z" fill="#C99D2B"/>
<path d="M53.2694 70.1747C53.0027 70.1747 52.7469 70.0688 52.5582 69.8803C52.3696 69.6919 52.2637 69.4362 52.2637 69.1696V67.2751C52.2637 67.0085 52.3696 66.7529 52.5582 66.5644C52.7469 66.3759 53.0027 66.27 53.2694 66.27C53.5361 66.27 53.792 66.3759 53.9806 66.5644C54.1692 66.7529 54.2751 67.0085 54.2751 67.2751V69.1696C54.2751 69.4362 54.1692 69.6919 53.9806 69.8803C53.792 70.0688 53.5361 70.1747 53.2694 70.1747Z" fill="#C99D2B"/>
<path d="M57.8573 76.5711C57.5906 76.5711 57.3347 76.4652 57.1461 76.2767C56.9575 76.0882 56.8516 75.8325 56.8516 75.5659V73.6692C56.8516 73.4026 56.9575 73.147 57.1461 72.9585C57.3347 72.77 57.5906 72.6641 57.8573 72.6641C58.124 72.6641 58.3798 72.77 58.5685 72.9585C58.7571 73.147 58.863 73.4026 58.863 73.6692V75.5659C58.863 75.8325 58.7571 76.0882 58.5685 76.2767C58.3798 76.4652 58.124 76.5711 57.8573 76.5711Z" fill="#C99D2B"/>
<path d="M53.2694 77.7415C53.0027 77.7415 52.7469 77.6356 52.5582 77.4471C52.3696 77.2586 52.2637 77.0029 52.2637 76.7364V74.8396C52.2637 74.573 52.3696 74.3174 52.5582 74.1289C52.7469 73.9404 53.0027 73.8345 53.2694 73.8345C53.5361 73.8345 53.792 73.9404 53.9806 74.1289C54.1692 74.3174 54.2751 74.573 54.2751 74.8396V76.7364C54.2751 77.0029 54.1692 77.2586 53.9806 77.4471C53.792 77.6356 53.5361 77.7415 53.2694 77.7415Z" fill="#C99D2B"/>
<path d="M57.8573 84.1337C57.5906 84.1337 57.3347 84.0278 57.1461 83.8394C56.9575 83.6509 56.8516 83.3954 56.8516 83.1289V81.2377C56.8516 80.9712 56.9575 80.7157 57.1461 80.5272C57.3347 80.3388 57.5906 80.2329 57.8573 80.2329C58.124 80.2329 58.3798 80.3388 58.5685 80.5272C58.7571 80.7157 58.863 80.9712 58.863 81.2377V83.1339C58.8617 83.3995 58.7552 83.6538 58.5667 83.8412C58.3782 84.0285 58.1232 84.1337 57.8573 84.1337Z" fill="#C99D2B"/>
<path d="M53.2694 85.3049C53.0027 85.3049 52.7469 85.1989 52.5582 85.0104C52.3696 84.8218 52.2637 84.5661 52.2637 84.2994V82.401C52.2637 82.1343 52.3696 81.8786 52.5582 81.69C52.7469 81.5014 53.0027 81.3955 53.2694 81.3955C53.5361 81.3955 53.792 81.5014 53.9806 81.69C54.1692 81.8786 54.2751 82.1343 54.2751 82.401V84.2984C54.2753 84.4305 54.2494 84.5614 54.1989 84.6835C54.1484 84.8056 54.0743 84.9165 53.9809 85.01C53.8875 85.1035 53.7766 85.1776 53.6545 85.2282C53.5324 85.2788 53.4016 85.3049 53.2694 85.3049Z" fill="#C99D2B"/>
<path d="M64.7942 37.7927C64.5275 37.7927 64.2716 37.6868 64.083 37.4982C63.8944 37.3097 63.7885 37.054 63.7885 36.7874V34.8925C63.7885 34.6259 63.8944 34.3702 64.083 34.1816C64.2716 33.9931 64.5275 33.8872 64.7942 33.8872C65.0609 33.8872 65.3167 33.9931 65.5054 34.1816C65.694 34.3702 65.7999 34.6259 65.7999 34.8925V36.7874C65.7999 37.054 65.694 37.3097 65.5054 37.4982C65.3167 37.6868 65.0609 37.7927 64.7942 37.7927Z" fill="#C99D2B"/>
<path d="M68.1952 39.0711C67.9285 39.0711 67.6726 38.9652 67.484 38.7766C67.2954 38.5881 67.1895 38.3323 67.1895 38.0657V36.1695C67.1895 35.9028 67.2954 35.6471 67.484 35.4585C67.6726 35.27 67.9285 35.1641 68.1952 35.1641C68.4619 35.1641 68.7177 35.27 68.9064 35.4585C69.095 35.6471 69.2009 35.9028 69.2009 36.1695V38.0667C69.2007 38.3332 69.0946 38.5886 68.906 38.777C68.7174 38.9653 68.4618 39.0711 68.1952 39.0711Z" fill="#C99D2B"/>
<path d="M71.5881 40.3548C71.3214 40.3548 71.0656 40.2489 70.877 40.0603C70.6884 39.8718 70.5824 39.616 70.5824 39.3494V37.4532C70.5824 37.1865 70.6884 36.9308 70.877 36.7422C71.0656 36.5537 71.3214 36.4478 71.5881 36.4478C71.8549 36.4478 72.1107 36.5537 72.2993 36.7422C72.4879 36.9308 72.5939 37.1865 72.5939 37.4532V39.3504C72.5936 39.6169 72.4875 39.8723 72.2989 40.0607C72.1104 40.249 71.8547 40.3548 71.5881 40.3548Z" fill="#C99D2B"/>
<path d="M64.7948 45.3281C64.5281 45.3281 64.2722 45.2222 64.0836 45.0337C63.895 44.8452 63.7891 44.5895 63.7891 44.3229V42.4232C63.7891 42.1566 63.895 41.9009 64.0836 41.7124C64.2722 41.5239 64.5281 41.418 64.7948 41.418C65.0615 41.418 65.3174 41.5239 65.506 41.7124C65.6946 41.9009 65.8005 42.1566 65.8005 42.4232V44.3229C65.8005 44.5895 65.6946 44.8452 65.506 45.0337C65.3174 45.2222 65.0615 45.3281 64.7948 45.3281Z" fill="#C99D2B"/>
<path d="M68.1952 46.6059C67.9285 46.6059 67.6726 46.5 67.484 46.3116C67.2954 46.1231 67.1895 45.8675 67.1895 45.6011V43.706C67.1895 43.4395 67.2954 43.1839 67.484 42.9955C67.6726 42.807 67.9285 42.7012 68.1952 42.7012C68.4619 42.7012 68.7177 42.807 68.9064 42.9955C69.095 43.1839 69.2009 43.4395 69.2009 43.706V45.6011C69.2009 45.8675 69.095 46.1231 68.9064 46.3116C68.7177 46.5 68.4619 46.6059 68.1952 46.6059Z" fill="#C99D2B"/>
<path d="M71.5878 47.8867C71.321 47.8867 71.0652 47.7808 70.8766 47.5923C70.688 47.4038 70.582 47.1481 70.582 46.8815V44.9857C70.582 44.7191 70.688 44.4634 70.8766 44.2749C71.0652 44.0864 71.321 43.9805 71.5878 43.9805C71.8545 43.9805 72.1103 44.0864 72.2989 44.2749C72.4875 44.4634 72.5935 44.7191 72.5935 44.9857V46.8825C72.5932 47.1489 72.4872 47.4044 72.2986 47.5927C72.11 47.781 71.8543 47.8867 71.5878 47.8867Z" fill="#C99D2B"/>
<path d="M64.7948 52.872C64.5281 52.872 64.2722 52.7661 64.0836 52.5775C63.895 52.389 63.7891 52.1333 63.7891 51.8667V49.9647C63.7891 49.6981 63.895 49.4424 64.0836 49.2539C64.2722 49.0654 64.5281 48.9595 64.7948 48.9595C65.0615 48.9595 65.3173 49.0654 65.506 49.2539C65.6946 49.4424 65.8005 49.6981 65.8005 49.9647V51.8617C65.8012 51.9941 65.7757 52.1254 65.7254 52.2479C65.6752 52.3705 65.6012 52.4819 65.5077 52.5758C65.4143 52.6696 65.3032 52.7441 65.1808 52.795C65.0585 52.8458 64.9273 52.872 64.7948 52.872Z" fill="#C99D2B"/>
<path d="M68.1952 54.151C67.9285 54.151 67.6726 54.0451 67.484 53.8565C67.2954 53.668 67.1895 53.4123 67.1895 53.1456V51.2485C67.1895 50.9819 67.2954 50.7262 67.484 50.5376C67.6726 50.3491 67.9285 50.2432 68.1952 50.2432C68.4619 50.2432 68.7177 50.3491 68.9064 50.5376C69.095 50.7262 69.2009 50.9819 69.2009 51.2485V53.1456C69.2009 53.4123 69.095 53.668 68.9064 53.8565C68.7177 54.0451 68.4619 54.151 68.1952 54.151Z" fill="#C99D2B"/>
<path d="M71.5878 55.4305C71.321 55.4305 71.0652 55.3245 70.8766 55.136C70.688 54.9474 70.582 54.6917 70.582 54.4251V52.5288C70.582 52.2622 70.688 52.0065 70.8766 51.8179C71.0652 51.6294 71.321 51.5234 71.5878 51.5234C71.8545 51.5234 72.1103 51.6294 72.2989 51.8179C72.4875 52.0065 72.5935 52.2622 72.5935 52.5288V54.4261C72.5932 54.6925 72.4872 54.948 72.2986 55.1363C72.11 55.3247 71.8543 55.4305 71.5878 55.4305Z" fill="#C99D2B"/>
<path d="M64.7948 60.4083C64.5281 60.4083 64.2722 60.3024 64.0836 60.1138C63.895 59.9253 63.7891 59.6696 63.7891 59.403V57.5058C63.7891 57.2392 63.895 56.9835 64.0836 56.7949C64.2722 56.6064 64.5281 56.5005 64.7948 56.5005C65.0615 56.5005 65.3174 56.6064 65.506 56.7949C65.6946 56.9835 65.8005 57.2392 65.8005 57.5058V59.403C65.8005 59.6696 65.6946 59.9253 65.506 60.1138C65.3174 60.3024 65.0615 60.4083 64.7948 60.4083Z" fill="#C99D2B"/>
<path d="M68.1952 61.6886C67.9285 61.6886 67.6726 61.5827 67.484 61.3941C67.2954 61.2056 67.1895 60.9499 67.1895 60.6832V58.7861C67.1895 58.5195 67.2954 58.2638 67.484 58.0752C67.6726 57.8867 67.9285 57.7808 68.1952 57.7808C68.4619 57.7808 68.7177 57.8867 68.9064 58.0752C69.095 58.2638 69.2009 58.5195 69.2009 58.7861V60.6832C69.2009 60.9499 69.095 61.2056 68.9064 61.3941C68.7177 61.5827 68.4619 61.6886 68.1952 61.6886Z" fill="#C99D2B"/>
<path d="M71.5878 62.9684C71.321 62.9684 71.0652 62.8624 70.8766 62.6739C70.688 62.4854 70.582 62.2296 70.582 61.963V60.0659C70.582 59.7993 70.688 59.5435 70.8766 59.355C71.0652 59.1665 71.321 59.0605 71.5878 59.0605C71.8545 59.0605 72.1103 59.1665 72.2989 59.355C72.4875 59.5435 72.5935 59.7993 72.5935 60.0659V61.963C72.5935 62.2296 72.4875 62.4854 72.2989 62.6739C72.1103 62.8624 71.8545 62.9684 71.5878 62.9684Z" fill="#C99D2B"/>
<path d="M64.7948 67.9424C64.5281 67.9424 64.2722 67.8365 64.0836 67.648C63.895 67.4594 63.7891 67.2037 63.7891 66.9371V65.0453C63.7891 64.7787 63.895 64.523 64.0836 64.3345C64.2722 64.1459 64.5281 64.04 64.7948 64.04C65.0615 64.04 65.3174 64.1459 65.506 64.3345C65.6946 64.523 65.8005 64.7787 65.8005 65.0453V66.9422C65.7992 67.2079 65.6927 67.4623 65.5042 67.6497C65.3157 67.8372 65.0607 67.9424 64.7948 67.9424Z" fill="#C99D2B"/>
<path d="M68.1952 69.2246C67.9285 69.2246 67.6726 69.1187 67.484 68.9303C67.2954 68.7418 67.1895 68.4862 67.1895 68.2197V66.3233C67.1895 66.0568 67.2954 65.8012 67.484 65.6127C67.6726 65.4242 67.9285 65.3184 68.1952 65.3184C68.4619 65.3184 68.7177 65.4242 68.9064 65.6127C69.095 65.8012 69.2009 66.0568 69.2009 66.3233V68.2197C69.2009 68.4862 69.095 68.7418 68.9064 68.9303C68.7177 69.1187 68.4619 69.2246 68.1952 69.2246Z" fill="#C99D2B"/>
<path d="M71.5878 70.506C71.321 70.506 71.0652 70.4 70.8766 70.2115C70.688 70.023 70.582 69.7672 70.582 69.5006V67.6035C70.582 67.3369 70.688 67.0811 70.8766 66.8926C71.0652 66.7041 71.321 66.5981 71.5878 66.5981C71.8545 66.5981 72.1103 66.7041 72.2989 66.8926C72.4875 67.0811 72.5935 67.3369 72.5935 67.6035V69.5006C72.5935 69.7672 72.4875 70.023 72.2989 70.2115C72.1103 70.4 71.8545 70.506 71.5878 70.506Z" fill="#C99D2B"/>
<path d="M64.7948 75.4815C64.5281 75.4815 64.2722 75.3756 64.0836 75.1871C63.895 74.9985 63.7891 74.7428 63.7891 74.4762V72.5791C63.7891 72.3124 63.895 72.0567 64.0836 71.8682C64.2722 71.6797 64.5281 71.5737 64.7948 71.5737C65.0615 71.5737 65.3174 71.6797 65.506 71.8682C65.6946 72.0567 65.8005 72.3124 65.8005 72.5791V74.4762C65.8005 74.7428 65.6946 74.9985 65.506 75.1871C65.3174 75.3756 65.0615 75.4815 64.7948 75.4815Z" fill="#C99D2B"/>
<path d="M68.1952 76.7633C67.9285 76.7633 67.6726 76.6574 67.484 76.4688C67.2954 76.2803 67.1895 76.0246 67.1895 75.7579V73.8608C67.1895 73.5942 67.2954 73.3385 67.484 73.1499C67.6726 72.9614 67.9285 72.8555 68.1952 72.8555C68.4619 72.8555 68.7177 72.9614 68.9064 73.1499C69.095 73.3385 69.2009 73.5942 69.2009 73.8608V75.7579C69.2009 76.0246 69.095 76.2803 68.9064 76.4688C68.7177 76.6574 68.4619 76.7633 68.1952 76.7633Z" fill="#C99D2B"/>
<path d="M71.5878 78.0436C71.321 78.0436 71.0652 77.9376 70.8766 77.7491C70.688 77.5606 70.582 77.3048 70.582 77.0382V75.1411C70.582 74.8745 70.688 74.6187 70.8766 74.4302C71.0652 74.2417 71.321 74.1357 71.5878 74.1357C71.8545 74.1357 72.1103 74.2417 72.2989 74.4302C72.4875 74.6187 72.5935 74.8745 72.5935 75.1411V77.0382C72.5935 77.3048 72.4875 77.5606 72.2989 77.7491C72.1103 77.9376 71.8545 78.0436 71.5878 78.0436Z" fill="#C99D2B"/>
<path d="M64.7948 83.0211C64.5281 83.0211 64.2722 82.9152 64.0836 82.7266C63.895 82.5381 63.7891 82.2824 63.7891 82.0157V80.1186C63.7891 79.852 63.895 79.5963 64.0836 79.4077C64.2722 79.2192 64.5281 79.1133 64.7948 79.1133C65.0615 79.1133 65.3174 79.2192 65.506 79.4077C65.6946 79.5963 65.8005 79.852 65.8005 80.1186V82.0157C65.8005 82.2824 65.6946 82.5381 65.506 82.7266C65.3174 82.9152 65.0615 83.0211 64.7948 83.0211Z" fill="#C99D2B"/>
<path d="M68.1952 84.3001C67.9285 84.3001 67.6726 84.1942 67.484 84.0057C67.2954 83.8172 67.1895 83.5615 67.1895 83.2949V81.3982C67.1895 81.1316 67.2954 80.876 67.484 80.6875C67.6726 80.499 67.9285 80.3931 68.1952 80.3931C68.4619 80.3931 68.7177 80.499 68.9064 80.6875C69.095 80.876 69.2009 81.1316 69.2009 81.3982V83.2949C69.2009 83.5615 69.095 83.8172 68.9064 84.0057C68.7177 84.1942 68.4619 84.3001 68.1952 84.3001Z" fill="#C99D2B"/>
<path d="M71.5878 85.5816C71.321 85.5816 71.0652 85.4757 70.8766 85.2872C70.688 85.0987 70.582 84.8431 70.582 84.5766V82.6802C70.582 82.4137 70.688 82.1581 70.8766 81.9696C71.0652 81.7812 71.321 81.6753 71.5878 81.6753C71.8545 81.6753 72.1103 81.7812 72.2989 81.9696C72.4875 82.1581 72.5935 82.4137 72.5935 82.6802V84.5766C72.5935 84.8431 72.4875 85.0987 72.2989 85.2872C72.1103 85.4757 71.8545 85.5816 71.5878 85.5816Z" fill="#C99D2B"/>
<path d="M84.3065 59.1611C84.0398 59.1611 83.784 59.0553 83.5954 58.867C83.4067 58.6786 83.3008 58.4232 83.3008 58.1568V57.1415C83.3008 56.8751 83.4067 56.6197 83.5954 56.4314C83.784 56.243 84.0398 56.1372 84.3065 56.1372C84.5733 56.1372 84.8291 56.243 85.0177 56.4314C85.2063 56.6197 85.3123 56.8751 85.3123 57.1415V58.1568C85.3123 58.4232 85.2063 58.6786 85.0177 58.867C84.8291 59.0553 84.5733 59.1611 84.3065 59.1611Z" fill="#C99D2B"/>
<path d="M87.6952 61.2934C87.4285 61.2934 87.1726 61.1875 86.984 60.999C86.7954 60.8105 86.6895 60.5548 86.6895 60.2883V59.2722C86.6895 59.0056 86.7954 58.75 86.984 58.5615C87.1726 58.373 87.4285 58.2671 87.6952 58.2671C87.9619 58.2671 88.2177 58.373 88.4064 58.5615C88.595 58.75 88.7009 59.0056 88.7009 59.2722V60.2883C88.7009 60.5548 88.595 60.8105 88.4064 60.999C88.2177 61.1875 87.9619 61.2934 87.6952 61.2934Z" fill="#C99D2B"/>
<path d="M84.3065 64.127C84.0398 64.127 83.784 64.0211 83.5954 63.8327C83.4067 63.6443 83.3008 63.3888 83.3008 63.1223V62.1077C83.3008 61.8412 83.4067 61.5857 83.5954 61.3973C83.784 61.2089 84.0398 61.103 84.3065 61.103C84.5733 61.103 84.8291 61.2089 85.0177 61.3973C85.2063 61.5857 85.3123 61.8412 85.3123 62.1077V63.1233C85.312 63.3896 85.2059 63.6449 85.0173 63.8331C84.8287 64.0212 84.5731 64.127 84.3065 64.127Z" fill="#C99D2B"/>
<path d="M87.6952 66.2564C87.4285 66.2564 87.1726 66.1505 86.984 65.962C86.7954 65.7735 86.6895 65.5178 86.6895 65.2513V64.24C86.6895 63.9735 86.7954 63.7178 86.984 63.5293C87.1726 63.3408 87.4285 63.2349 87.6952 63.2349C87.9619 63.2349 88.2177 63.3408 88.4064 63.5293C88.595 63.7178 88.7009 63.9735 88.7009 64.24V65.2563C88.6996 65.522 88.5931 65.7764 88.4046 65.9638C88.2161 66.1512 87.9611 66.2564 87.6952 66.2564Z" fill="#C99D2B"/>
<path d="M84.3065 69.0946C84.0398 69.0946 83.784 68.9887 83.5954 68.8002C83.4067 68.6118 83.3008 68.3561 83.3008 68.0896V67.0734C83.3008 66.8069 83.4067 66.5512 83.5954 66.3627C83.784 66.1743 84.0398 66.0684 84.3065 66.0684C84.5733 66.0684 84.8291 66.1743 85.0177 66.3627C85.2063 66.5512 85.3123 66.8069 85.3123 67.0734V68.0896C85.3123 68.3561 85.2063 68.6118 85.0177 68.8002C84.8291 68.9887 84.5733 69.0946 84.3065 69.0946Z" fill="#C99D2B"/>
<path d="M87.6952 71.2242C87.4285 71.2242 87.1726 71.1184 86.984 70.9299C86.7954 70.7415 86.6895 70.4859 86.6895 70.2194V69.2035C86.6895 68.937 86.7954 68.6815 86.984 68.493C87.1726 68.3046 87.4285 68.1987 87.6952 68.1987C87.9619 68.1987 88.2177 68.3046 88.4064 68.493C88.595 68.6815 88.7009 68.937 88.7009 69.2035V70.2194C88.7009 70.4859 88.595 70.7415 88.4064 70.9299C88.2177 71.1184 87.9619 71.2242 87.6952 71.2242Z" fill="#C99D2B"/>
<path d="M84.3065 74.0624C84.0398 74.0624 83.784 73.9565 83.5954 73.768C83.4067 73.5795 83.3008 73.3239 83.3008 73.0573V72.0412C83.3008 71.7746 83.4067 71.519 83.5954 71.3305C83.784 71.142 84.0398 71.0361 84.3065 71.0361C84.5733 71.0361 84.8291 71.142 85.0177 71.3305C85.2063 71.519 85.3123 71.7746 85.3123 72.0412V73.0573C85.3123 73.3239 85.2063 73.5795 85.0177 73.768C84.8291 73.9565 84.5733 74.0624 84.3065 74.0624Z" fill="#C99D2B"/>
<path d="M87.6952 76.1908C87.4285 76.1908 87.1726 76.0849 86.984 75.8964C86.7954 75.708 86.6895 75.4523 86.6895 75.1857V74.1696C86.6895 73.9031 86.7954 73.6474 86.984 73.4589C87.1726 73.2704 87.4285 73.1646 87.6952 73.1646C87.9619 73.1646 88.2177 73.2704 88.4064 73.4589C88.595 73.6474 88.7009 73.9031 88.7009 74.1696V75.1857C88.7009 75.4523 88.595 75.708 88.4064 75.8964C88.2177 76.0849 87.9619 76.1908 87.6952 76.1908Z" fill="#C99D2B"/>
<path d="M84.3065 79.0235C84.0398 79.0235 83.784 78.9177 83.5954 78.7292C83.4067 78.5408 83.3008 78.2852 83.3008 78.0187V77.0068C83.3008 76.7403 83.4067 76.4847 83.5954 76.2963C83.784 76.1078 84.0398 76.002 84.3065 76.002C84.5733 76.002 84.8291 76.1078 85.0177 76.2963C85.2063 76.4847 85.3123 76.7403 85.3123 77.0068V78.0187C85.3123 78.2852 85.2063 78.5408 85.0177 78.7292C84.8291 78.9177 84.5733 79.0235 84.3065 79.0235Z" fill="#C99D2B"/>
<path d="M87.6952 81.1563C87.4285 81.1563 87.1726 81.0504 86.984 80.8621C86.7954 80.6738 86.6895 80.4183 86.6895 80.152V79.1366C86.6895 78.8703 86.7954 78.6148 86.984 78.4265C87.1726 78.2381 87.4285 78.1323 87.6952 78.1323C87.9619 78.1323 88.2177 78.2381 88.4064 78.4265C88.595 78.6148 88.7009 78.8703 88.7009 79.1366V80.152C88.7009 80.4183 88.595 80.6738 88.4064 80.8621C88.2177 81.0504 87.9619 81.1563 87.6952 81.1563Z" fill="#C99D2B"/>
<path d="M84.3065 83.9925C84.0398 83.9925 83.784 83.8866 83.5954 83.6983C83.4067 83.5099 83.3008 83.2543 83.3008 82.9879V81.9723C83.3008 81.7059 83.4067 81.4504 83.5954 81.262C83.784 81.0736 84.0398 80.9678 84.3065 80.9678C84.5733 80.9678 84.8291 81.0736 85.0177 81.262C85.2063 81.4504 85.3123 81.7059 85.3123 81.9723V82.9879C85.3123 83.2543 85.2063 83.5099 85.0177 83.6983C84.8291 83.8866 84.5733 83.9925 84.3065 83.9925Z" fill="#C99D2B"/>
<path d="M87.6952 86.1216C87.4285 86.1216 87.1726 86.0158 86.984 85.8274C86.7954 85.6391 86.6895 85.3836 86.6895 85.1173V84.1019C86.6895 83.8356 86.7954 83.5801 86.984 83.3918C87.1726 83.2035 87.4285 83.0977 87.6952 83.0977C87.9619 83.0977 88.2177 83.2035 88.4064 83.3918C88.595 83.5801 88.7009 83.8356 88.7009 84.1019V85.1173C88.7009 85.3836 88.595 85.6391 88.4064 85.8274C88.2177 86.0158 87.9619 86.1216 87.6952 86.1216Z" fill="#C99D2B"/>
<path d="M94.396 89.7504H26.0057C25.739 89.7504 25.4832 89.6446 25.2946 89.4562C25.106 89.2678 25 89.0122 25 88.7458C25 88.4794 25.106 88.2238 25.2946 88.0354C25.4832 87.8471 25.739 87.7412 26.0057 87.7412H94.396C94.6627 87.7412 94.9186 87.8471 95.1072 88.0354C95.2958 88.2238 95.4017 88.4794 95.4017 88.7458C95.4017 89.0122 95.2958 89.2678 95.1072 89.4562C94.9186 89.6446 94.6627 89.7504 94.396 89.7504Z" fill="#C99D2B"/>
</svg>
