<svg width="60" height="65" viewBox="0 0 60 65" fill="none" xmlns="http://www.w3.org/2000/svg">
<path d="M23.4266 0.46859C21.3508 0.46859 19.5149 1.66849 18.23 3.21503C16.9475 4.7669 16.0094 6.70807 15.19 8.80123C13.9217 12.0276 13.0287 15.6113 12.2212 18.9684C9.63957 19.811 7.44743 20.8616 5.68991 22.1334C3.6284 23.6213 1.90176 25.6852 1.90176 28.4663C1.90176 30.8874 3.21514 32.8179 4.87053 34.2151C6.27892 35.4043 8.01506 36.3909 10.0671 37.2149C10.1811 37.8388 10.3663 38.4681 10.5848 39.0547C8.58269 40.3266 5.41204 42.7797 2.34826 47.47L0.9375 49.7205L2.94202 51.3017L10.7321 57.3012L9.25007 60.6342L7.54006 64.4633H53.2592L51.5492 60.6289L50.0695 57.2959L57.8667 51.2964L59.8713 49.7152L58.4629 47.4593C55.3991 42.7664 52.2261 40.3133 50.2215 39.044C50.4424 38.4521 50.6253 37.8255 50.7441 37.2042C52.7937 36.3829 54.5298 35.3963 55.9382 34.2071C57.596 32.8099 58.907 30.8794 58.907 28.4583C58.907 25.6718 57.1875 23.6133 55.1236 22.1255C53.3613 20.8536 51.1716 19.8056 48.5923 18.9577C47.7064 15.4833 46.7231 11.8383 45.4763 8.62791C44.6688 6.56142 43.7781 4.65491 42.5075 3.1297C41.2345 1.60983 39.4295 0.463257 37.3846 0.463257C35.9999 0.463257 34.9525 0.895221 33.822 1.20986C32.6939 1.52983 31.5468 1.79648 30.4091 1.79648C28.1291 1.79648 26.2196 0.463257 23.4337 0.463257L23.4266 0.46859ZM23.4266 5.80148C23.9134 5.80148 26.8371 7.1347 30.402 7.1347C32.1833 7.1347 33.7745 6.73473 35.0048 6.3881C36.2351 6.03613 37.1732 5.80148 37.3798 5.80148C37.9261 5.80148 38.3369 5.99346 39.0115 6.8014C39.686 7.60933 40.484 9.04921 41.1632 10.8011C42.4576 14.1155 43.4432 18.6404 44.5072 22.8001C44.5072 22.7947 44.6355 22.6721 44.2864 22.8801C43.6926 23.2454 42.4529 23.7147 40.9447 23.968C37.9284 24.4746 33.8197 24.4666 30.4068 24.4666C27.0105 24.4666 22.8922 24.4133 19.8688 23.88C18.3583 23.6213 17.1375 23.1654 16.5295 22.8001C16.3443 22.6881 16.2754 22.7307 16.2326 22.7201C16.2331 22.6907 16.2331 22.6614 16.2326 22.6321C16.2421 22.6054 16.2326 22.5787 16.2326 22.5521C16.2593 22.5243 16.2855 22.4959 16.311 22.4668C16.4878 22.108 16.5886 21.7084 16.6055 21.2989C16.6059 21.2722 16.6059 21.2455 16.6055 21.2189C17.4605 17.6778 18.4105 13.9261 19.5743 10.9664C20.2702 9.18786 21.023 7.73465 21.7261 6.88672C22.4314 6.03346 22.9136 5.80148 23.4361 5.80148H23.4266ZM11.846 24.7172C12.3827 25.9705 13.328 26.9677 14.297 27.549C15.7339 28.4156 17.3988 28.8209 19.1895 29.1329C22.7758 29.7568 26.9653 29.7995 30.3996 29.7995C33.8125 29.7995 38.0139 29.8181 41.6097 29.2129C43.4005 28.9142 45.0535 28.5196 46.5023 27.6343C47.476 27.0397 48.4189 25.9865 48.9485 24.7172C50.421 25.3039 51.6513 25.9278 52.5111 26.5491C53.8886 27.5517 54.1498 28.2956 54.1498 28.4689C54.1498 28.6289 54.024 29.1355 53.0336 29.9728C52.0432 30.8074 50.3332 31.77 48.141 32.5539C43.7401 34.1271 37.4059 35.1404 30.3996 35.1404C23.3933 35.1404 17.052 34.1271 12.6582 32.5539C10.4613 31.7726 8.75132 30.8101 7.76568 29.9728C6.77055 29.1329 6.6518 28.6262 6.6518 28.4663C6.6518 28.2903 6.83705 27.6263 8.20981 26.6317C9.07194 26.0105 10.3473 25.3252 11.8483 24.7172H11.846ZM18.0068 39.3027C18.7905 39.444 19.5648 39.6813 20.3818 39.7986C20.6905 42.1371 22.3198 44.2036 24.9181 44.3849C26.9131 44.5182 29.1694 43.457 29.3665 40.4653C29.7227 40.4706 30.0505 40.4653 30.4068 40.4653C30.763 40.4653 31.0955 40.4706 31.4518 40.4653C31.6465 43.457 33.9028 44.5182 35.9025 44.3849C38.4961 44.2036 40.1206 42.1371 40.4293 39.7986C41.2487 39.6813 42.0206 39.444 42.8044 39.2974L42.5787 40.9639C41.8472 45.3448 40.0992 49.4165 37.8999 52.2163C35.7078 55.016 33.1262 56.5093 30.4068 56.4639C27.6137 56.4186 25.0867 54.9067 22.9112 52.131C20.7309 49.3578 19.0162 45.3662 18.2324 40.9639L18.0115 39.2974L18.0068 39.3027ZM47.0271 43.1264C47.9107 43.7076 50.2334 45.4195 52.8934 48.7099L45.6924 54.2908L43.9824 55.544L44.8754 57.6238L45.5404 59.125H38.0496C39.3082 58.1508 40.4539 57.0043 41.4601 55.712C44.0726 52.3789 45.8301 48.006 46.8039 43.2944C46.8846 43.241 46.9464 43.1797 47.0271 43.129V43.1264ZM13.7056 43.2064C13.7959 43.2704 13.9027 43.3183 14.0001 43.377C15.0166 48.03 16.767 52.3443 19.3439 55.624C20.4127 56.9839 21.6548 58.1571 22.9777 59.125H15.2589L15.9286 57.6238L16.8193 55.544L15.1187 54.2908L7.91768 48.7099C10.4352 45.5955 12.7223 43.8783 13.7127 43.209L13.7056 43.2064Z" fill="white"/>
</svg>
