<svg width="42" height="43" viewBox="0 0 42 43" fill="none" xmlns="http://www.w3.org/2000/svg">
<path d="M35.0299 5.05248C35.0299 5.05248 35.2996 5.35749 35.5844 5.70229C37.4317 7.93808 42.1566 14.4378 40.9373 22.7932C39.9712 29.4143 35.8104 33.5213 33.6399 35.6639C30.9105 38.358 26.7029 42.5639 20.0875 42.9688C10.8915 43.5319 4.94532 36.2877 4.45015 35.6639C1.28447 31.6752 0.702763 27.5383 0.280129 24.5325C-0.0529651 22.1629 -0.950915 13.4961 4.10266 6.79175C4.16453 6.70969 4.24517 6.60265 4.35914 6.45989C8.33843 1.46808 14.6079 0.533244 16.9601 0.182488C20.8136 -0.256537 24.7162 0.098604 28.4275 1.22605C32.682 2.57707 34.5872 4.57048 35.0299 5.05248Z" fill="black"/>
<path d="M25.3415 15.9675L25.0251 15.8882C23.4982 15.5072 21.8967 16.1286 21.0273 17.4393C20.8853 17.6674 20.9552 17.9673 21.1835 18.1092C21.4025 18.2452 21.6895 18.1871 21.8382 17.9768C22.4804 17.0104 23.6614 16.552 24.7881 16.8318L25.105 16.9111C25.3662 16.9745 25.6294 16.8143 25.6929 16.5533C25.7557 16.2949 25.5992 16.034 25.3415 15.9675Z" fill="#C99D2B"/>
<path d="M30.4328 21.5787C30.3097 21.5378 30.1754 21.5477 30.0596 21.6061H30.0611C27.8124 22.7295 25.1658 22.7295 22.9172 21.6061C22.6773 21.4849 22.3844 21.5811 22.2632 21.8209C22.2046 21.9365 22.1948 22.0708 22.2357 22.1938L22.7006 23.5931C23.3877 25.684 25.6407 26.8224 27.7328 26.1356C28.9369 25.7403 29.8812 24.7965 30.2767 23.5931L30.7411 22.1938C30.8259 21.9389 30.6878 21.6635 30.4328 21.5787ZM29.3533 23.2871C28.8348 24.8681 27.1322 25.7297 25.5503 25.2115C24.6387 24.9128 23.9237 24.1982 23.625 23.2871L23.4999 22.91C25.4343 23.5912 27.5435 23.5912 29.4779 22.91L29.3533 23.2871Z" fill="#C99D2B"/>
<path d="M32.5938 17.6419C32.5888 17.6339 32.5835 17.626 32.578 17.6182C31.7079 16.3089 30.1074 15.6883 28.5812 16.0686L28.2638 16.1484C28.0076 16.23 27.8662 16.5036 27.9479 16.7595C28.0224 16.993 28.2592 17.1346 28.5004 17.09L28.8182 17.0107C29.9445 16.7313 31.1251 17.1896 31.7671 18.1557C31.909 18.3838 32.2092 18.4537 32.4375 18.3118C32.6658 18.17 32.7357 17.87 32.5938 17.6419Z" fill="#C99D2B"/>
<path d="M34.2229 11.535C29.2012 9.86462 23.7736 9.86462 18.7518 11.535C18.5535 11.6015 18.4199 11.7873 18.4199 11.9964V15.6215C14.2931 16.5295 9.99724 16.3009 5.99014 14.9601C5.73519 14.8748 5.45937 15.0124 5.37419 15.2674C5.35758 15.3171 5.34906 15.3691 5.34906 15.4215V22.5669C5.349 26.5125 7.02934 30.2714 9.9695 32.9028C11.7181 34.4667 14.342 34.5349 16.1695 33.0639L16.3185 32.9442C18.3286 31.3342 19.8445 29.1904 20.6921 26.7585C21.351 27.7702 22.1406 28.6906 23.0403 29.4958C24.7888 31.0597 27.4125 31.1279 29.2398 29.6569L29.3888 29.5372C32.6658 26.9123 34.5677 22.9373 34.5554 18.7389V11.9964C34.5553 11.7872 34.4214 11.6013 34.2229 11.535ZM15.7081 32.1864L15.562 32.3061C14.1045 33.4793 12.0117 33.4243 10.6179 32.1762C7.88441 29.7298 6.3223 26.2351 6.3226 22.5669V16.0878C10.2456 17.2823 14.4067 17.4665 18.4199 16.6232V19.1619C18.4199 19.4464 18.4288 19.731 18.4466 20.0156C18.4525 20.11 18.4651 20.2034 18.4729 20.2979C18.4885 20.4867 18.5031 20.676 18.5265 20.8644C18.5411 20.9788 18.562 21.0917 18.579 21.2051C18.6043 21.3725 18.6277 21.5405 18.6589 21.7069C18.6813 21.8276 18.7109 21.9474 18.7367 22.0676C18.7708 22.2253 18.8025 22.3834 18.8419 22.5397C18.8735 22.6643 18.9115 22.7874 18.9461 22.911C18.9884 23.061 19.0288 23.2114 19.076 23.3598C19.1159 23.4854 19.1617 23.609 19.205 23.7331C19.2537 23.8791 19.3048 24.0227 19.3603 24.1658C19.409 24.2904 19.462 24.4126 19.5136 24.5352C19.5725 24.6754 19.63 24.8156 19.6933 24.9533C19.7497 25.0765 19.8115 25.1967 19.8719 25.3188C19.924 25.424 19.9693 25.531 20.0262 25.6352C19.3102 28.218 17.7995 30.51 15.7081 32.1864ZM33.5818 18.7389C33.593 22.6423 31.825 26.3381 28.7788 28.7794L28.6299 28.8991C27.173 30.0708 25.0819 30.0158 23.6887 28.7692C22.5942 27.7903 21.6761 26.6306 20.9744 25.3407C20.2003 23.9212 19.6984 22.3695 19.4946 20.7656C19.4273 20.2328 19.3935 19.6964 19.3934 19.1594V12.3498C24.0103 10.8906 28.9649 10.8906 33.5818 12.3498V18.7389Z" fill="#C99D2B"/>
<path d="M11.2095 20.0889C10.9852 19.9404 10.683 20.0016 10.5343 20.2256L10.3231 20.5452C9.75919 21.398 8.80458 21.911 7.78163 21.9109C7.51281 21.9109 7.29486 22.1287 7.29486 22.3973C7.29486 22.6659 7.51281 22.8837 7.78163 22.8837C9.13096 22.8841 10.3904 22.2078 11.1345 21.0831L11.3462 20.7636C11.4949 20.5395 11.4337 20.2375 11.2095 20.0889Z" fill="#C99D2B"/>
<path d="M16.276 27.2644H16.2735C14.4269 26.0213 12.0107 26.0213 10.1641 27.2644C9.38312 27.7889 9.17545 28.8469 9.70025 29.6275C10.0156 30.0965 10.5431 30.3786 11.1084 30.3806C11.3716 30.3805 11.6312 30.3188 11.8663 30.2006C12.7182 29.7758 13.7204 29.7758 14.5723 30.2006C15.4105 30.6242 16.4337 30.2884 16.8575 29.4505C17.2472 28.6799 16.9972 27.7397 16.276 27.2644ZM15.9328 29.0845C15.7309 29.3882 15.3343 29.494 15.0079 29.3311C13.8807 28.7685 12.5544 28.7685 11.4272 29.3311C11.1009 29.4946 10.7038 29.3887 10.5024 29.0845C10.2788 28.7496 10.3688 28.297 10.7034 28.073C12.2224 27.0506 14.2098 27.0506 15.7288 28.073C16.0645 28.296 16.1558 28.7488 15.9328 29.0845Z" fill="#C99D2B"/>
<path d="M18.67 24.4577L17.7193 22.2414L17.7145 22.2331C17.6466 22.0407 17.4649 21.9118 17.2608 21.9111C16.238 21.9112 15.2834 21.3981 14.7198 20.5451L14.5076 20.2254C14.359 20.0015 14.0568 19.9404 13.8327 20.089C13.6086 20.2375 13.5475 20.5395 13.6962 20.7635L13.9084 21.0831C14.5204 22.0048 15.4863 22.6329 16.5774 22.8188L15.874 24.4577C15.5428 25.2293 15.9003 26.1231 16.6724 26.4541C17.4445 26.785 18.3389 26.4277 18.67 25.6561C18.8342 25.2735 18.8342 24.8403 18.67 24.4577ZM17.7291 25.3591C17.5485 25.6113 17.1976 25.6695 16.9454 25.489C16.8952 25.4532 16.8513 25.4093 16.8154 25.3591C16.7118 25.2066 16.6935 25.0117 16.7667 24.8425L17.27 23.6687L17.7734 24.8425C17.8482 25.011 17.8315 25.2059 17.7291 25.3591Z" fill="#C99D2B"/>
</svg>
