<svg width="66" height="130" viewBox="0 0 66 130" fill="none" xmlns="http://www.w3.org/2000/svg">
<path d="M3.91059 83.3925V90.3045C3.91059 91.0619 4.10792 91.6432 4.50259 92.0485C4.89725 92.4432 5.45192 92.6405 6.16659 92.6405C6.89192 92.6405 7.45192 92.4432 7.84659 92.0485C8.24125 91.6432 8.43859 91.0619 8.43859 90.3045V83.3925H10.6946V90.2885C10.6946 91.2379 10.4866 92.0432 10.0706 92.7045C9.66525 93.3552 9.11592 93.8459 8.42259 94.1765C7.73992 94.5072 6.97725 94.6725 6.13459 94.6725C5.30259 94.6725 4.54525 94.5072 3.86259 94.1765C3.19059 93.8459 2.65725 93.3552 2.26259 92.7045C1.86792 92.0432 1.67059 91.2379 1.67059 90.2885V83.3925H3.91059ZM17.7708 85.5685C18.8268 85.5685 19.6802 85.9045 20.3308 86.5765C20.9815 87.2379 21.3068 88.1659 21.3068 89.3605V94.5605H19.0668V89.6645C19.0668 88.9605 18.8908 88.4219 18.5388 88.0485C18.1868 87.6645 17.7068 87.4725 17.0988 87.4725C16.4802 87.4725 15.9895 87.6645 15.6268 88.0485C15.2748 88.4219 15.0988 88.9605 15.0988 89.6645V94.5605H12.8588V85.6965H15.0988V86.8005C15.3975 86.4165 15.7762 86.1179 16.2348 85.9045C16.7042 85.6805 17.2162 85.5685 17.7708 85.5685ZM22.861 90.0965C22.861 89.2005 23.037 88.4059 23.389 87.7125C23.7516 87.0192 24.2423 86.4859 24.861 86.1125C25.4796 85.7392 26.1676 85.5525 26.925 85.5525C27.501 85.5525 28.0503 85.6805 28.573 85.9365C29.0956 86.1819 29.5116 86.5125 29.821 86.9285V82.7205H32.093V94.5605H29.821V93.2485C29.5436 93.6859 29.1543 94.0379 28.653 94.3045C28.1516 94.5712 27.5703 94.7045 26.909 94.7045C26.1623 94.7045 25.4796 94.5125 24.861 94.1285C24.2423 93.7445 23.7516 93.2059 23.389 92.5125C23.037 91.8085 22.861 91.0032 22.861 90.0965ZM29.837 90.1285C29.837 89.5845 29.7303 89.1205 29.517 88.7365C29.3036 88.3419 29.0156 88.0432 28.653 87.8405C28.2903 87.6272 27.901 87.5205 27.485 87.5205C27.069 87.5205 26.685 87.6219 26.333 87.8245C25.981 88.0272 25.693 88.3259 25.469 88.7205C25.2556 89.1045 25.149 89.5632 25.149 90.0965C25.149 90.6299 25.2556 91.0992 25.469 91.5045C25.693 91.8992 25.981 92.2032 26.333 92.4165C26.6956 92.6299 27.0796 92.7365 27.485 92.7365C27.901 92.7365 28.2903 92.6352 28.653 92.4325C29.0156 92.2192 29.3036 91.9205 29.517 91.5365C29.7303 91.1419 29.837 90.6725 29.837 90.1285ZM37.6727 94.7045C36.9474 94.7045 36.2967 94.5765 35.7207 94.3205C35.1447 94.0539 34.686 93.6965 34.3447 93.2485C34.014 92.8005 33.8327 92.3045 33.8007 91.7605H36.0567C36.0994 92.1019 36.2647 92.3845 36.5527 92.6085C36.8514 92.8325 37.2194 92.9445 37.6567 92.9445C38.0834 92.9445 38.414 92.8592 38.6487 92.6885C38.894 92.5179 39.0167 92.2992 39.0167 92.0325C39.0167 91.7445 38.8674 91.5312 38.5687 91.3925C38.2807 91.2432 37.8167 91.0832 37.1767 90.9125C36.5154 90.7525 35.9714 90.5872 35.5447 90.4165C35.1287 90.2459 34.766 89.9845 34.4567 89.6325C34.158 89.2805 34.0087 88.8059 34.0087 88.2085C34.0087 87.7179 34.1474 87.2699 34.4247 86.8645C34.7127 86.4592 35.118 86.1392 35.6407 85.9045C36.174 85.6699 36.798 85.5525 37.5127 85.5525C38.5687 85.5525 39.4114 85.8192 40.0407 86.3525C40.67 86.8752 41.0167 87.5845 41.0807 88.4805H38.9367C38.9047 88.1285 38.7554 87.8512 38.4887 87.6485C38.2327 87.4352 37.886 87.3285 37.4487 87.3285C37.0434 87.3285 36.7287 87.4032 36.5047 87.5525C36.2914 87.7019 36.1847 87.9099 36.1847 88.1765C36.1847 88.4752 36.334 88.7045 36.6327 88.8645C36.9314 89.0139 37.3954 89.1685 38.0247 89.3285C38.6647 89.4885 39.1927 89.6539 39.6087 89.8245C40.0247 89.9952 40.382 90.2619 40.6807 90.6245C40.99 90.9765 41.15 91.4459 41.1607 92.0325C41.1607 92.5445 41.0167 93.0032 40.7287 93.4085C40.4514 93.8139 40.046 94.1339 39.5127 94.3685C38.99 94.5925 38.3767 94.7045 37.6727 94.7045ZM45.2395 82.7205V94.5605H42.9995V82.7205H45.2395ZM48.5886 84.6405C48.1939 84.6405 47.8633 84.5179 47.5966 84.2725C47.3406 84.0165 47.2126 83.7019 47.2126 83.3285C47.2126 82.9552 47.3406 82.6459 47.5966 82.4005C47.8633 82.1445 48.1939 82.0165 48.5886 82.0165C48.9833 82.0165 49.3086 82.1445 49.5646 82.4005C49.8313 82.6459 49.9646 82.9552 49.9646 83.3285C49.9646 83.7019 49.8313 84.0165 49.5646 84.2725C49.3086 84.5179 48.9833 84.6405 48.5886 84.6405ZM49.6926 85.6965V94.5605H47.4526V85.6965H49.6926ZM54.1457 86.9765C54.4337 86.5712 54.8284 86.2352 55.3297 85.9685C55.8417 85.6912 56.423 85.5525 57.0737 85.5525C57.831 85.5525 58.5137 85.7392 59.1217 86.1125C59.7404 86.4859 60.2257 87.0192 60.5777 87.7125C60.9404 88.3952 61.1217 89.1899 61.1217 90.0965C61.1217 91.0032 60.9404 91.8085 60.5777 92.5125C60.2257 93.2059 59.7404 93.7445 59.1217 94.1285C58.5137 94.5125 57.831 94.7045 57.0737 94.7045C56.423 94.7045 55.847 94.5712 55.3457 94.3045C54.855 94.0379 54.455 93.7019 54.1457 93.2965V98.7845H51.9057V85.6965H54.1457V86.9765ZM58.8337 90.0965C58.8337 89.5632 58.7217 89.1045 58.4977 88.7205C58.2844 88.3259 57.9964 88.0272 57.6337 87.8245C57.2817 87.6219 56.8977 87.5205 56.4817 87.5205C56.0764 87.5205 55.6924 87.6272 55.3297 87.8405C54.9777 88.0432 54.6897 88.3419 54.4657 88.7365C54.2524 89.1312 54.1457 89.5952 54.1457 90.1285C54.1457 90.6619 54.2524 91.1259 54.4657 91.5205C54.6897 91.9152 54.9777 92.2192 55.3297 92.4325C55.6924 92.6352 56.0764 92.7365 56.4817 92.7365C56.8977 92.7365 57.2817 92.6299 57.6337 92.4165C57.9964 92.2032 58.2844 91.8992 58.4977 91.5045C58.7217 91.1099 58.8337 90.6405 58.8337 90.0965ZM15.8801 113.993C16.1681 113.566 16.5628 113.219 17.0641 112.953C17.5761 112.686 18.1574 112.553 18.8081 112.553C19.5654 112.553 20.2481 112.739 20.8561 113.113C21.4748 113.486 21.9601 114.019 22.3121 114.713C22.6748 115.395 22.8561 116.19 22.8561 117.097C22.8561 118.003 22.6748 118.809 22.3121 119.513C21.9601 120.206 21.4748 120.745 20.8561 121.129C20.2481 121.513 19.5654 121.705 18.8081 121.705C18.1468 121.705 17.5654 121.577 17.0641 121.321C16.5734 121.054 16.1788 120.713 15.8801 120.297V121.561H13.6401V109.721H15.8801V113.993ZM20.5681 117.097C20.5681 116.563 20.4561 116.105 20.2321 115.721C20.0188 115.326 19.7308 115.027 19.3681 114.825C19.0161 114.622 18.6321 114.521 18.2161 114.521C17.8108 114.521 17.4268 114.627 17.0641 114.841C16.7121 115.043 16.4241 115.342 16.2001 115.737C15.9868 116.131 15.8801 116.595 15.8801 117.129C15.8801 117.662 15.9868 118.126 16.2001 118.521C16.4241 118.915 16.7121 119.219 17.0641 119.433C17.4268 119.635 17.8108 119.737 18.2161 119.737C18.6321 119.737 19.0161 119.63 19.3681 119.417C19.7308 119.203 20.0188 118.899 20.2321 118.505C20.4561 118.11 20.5681 117.641 20.5681 117.097ZM32.9638 112.697L27.4758 125.753H25.0918L27.0118 121.337L23.4598 112.697H25.9718L28.2598 118.889L30.5798 112.697H32.9638ZM42.4113 116.937C42.4113 117.257 42.39 117.545 42.3473 117.801H35.8673C35.9207 118.441 36.1447 118.942 36.5393 119.305C36.934 119.667 37.4193 119.849 37.9953 119.849C38.8273 119.849 39.4193 119.491 39.7713 118.777H42.1873C41.9313 119.63 41.4407 120.334 40.7153 120.889C39.99 121.433 39.0993 121.705 38.0433 121.705C37.19 121.705 36.422 121.518 35.7393 121.145C35.0673 120.761 34.5393 120.222 34.1553 119.529C33.782 118.835 33.5953 118.035 33.5953 117.129C33.5953 116.211 33.782 115.406 34.1553 114.713C34.5287 114.019 35.0513 113.486 35.7233 113.113C36.3953 112.739 37.1687 112.553 38.0433 112.553C38.886 112.553 39.638 112.734 40.2993 113.097C40.9713 113.459 41.4887 113.977 41.8513 114.649C42.2247 115.31 42.4113 116.073 42.4113 116.937ZM40.0913 116.297C40.0807 115.721 39.8727 115.262 39.4673 114.921C39.062 114.569 38.566 114.393 37.9793 114.393C37.4247 114.393 36.9553 114.563 36.5713 114.905C36.198 115.235 35.9687 115.699 35.8833 116.297H40.0913ZM48.9583 112.569C50.0143 112.569 50.8677 112.905 51.5183 113.577C52.169 114.238 52.4943 115.166 52.4943 116.361V121.561H50.2543V116.665C50.2543 115.961 50.0783 115.422 49.7263 115.049C49.3743 114.665 48.8943 114.473 48.2863 114.473C47.6677 114.473 47.177 114.665 46.8143 115.049C46.4623 115.422 46.2863 115.961 46.2863 116.665V121.561H44.0463V112.697H46.2863V113.801C46.585 113.417 46.9637 113.118 47.4223 112.905C47.8917 112.681 48.4037 112.569 48.9583 112.569Z" fill="black"/>
<path d="M64.3938 30.7047C64.3938 30.7047 64.3582 31.2934 64.2969 31.9382C63.9012 36.1198 62.0901 47.6151 52.292 54.9191C44.5276 60.707 36.0634 60.6476 31.6479 60.6166C26.0953 60.5776 17.4822 60.5714 10.2918 54.2069C0.2965 45.3597 1.61822 31.8508 1.74942 30.7047C2.58814 23.3777 6.22522 18.5468 8.8681 15.0365C10.9514 12.2695 18.8997 2.47729 30.936 0.792748C31.0833 0.772166 31.2756 0.745388 31.5382 0.715832C40.7219 -0.316414 48.0998 5.15113 50.8683 7.20245C55.2646 10.7019 58.8985 15.0646 61.5463 20.0218C64.5218 25.7646 64.4336 29.7577 64.3938 30.7047Z" fill="black"/>
<path d="M35.5892 16.7983H31.1173C30.6726 16.7983 30.246 16.6332 29.9315 16.3393C29.617 16.0454 29.4404 15.6468 29.4404 15.2312C29.4404 14.8156 29.617 14.417 29.9315 14.1231C30.246 13.8292 30.6726 13.6641 31.1173 13.6641H35.5892C36.034 13.6641 36.4605 13.8292 36.775 14.1231C37.0895 14.417 37.2662 14.8156 37.2662 15.2312C37.2662 15.6468 37.0895 16.0454 36.775 16.3393C36.4605 16.6332 36.034 16.7983 35.5892 16.7983Z" fill="#C99D2B"/>
<path d="M44.4213 22.1323C44.2909 22.0103 44.1578 21.8916 44.0236 21.7744L45.4185 20.0253C45.5071 19.9142 45.5449 19.7747 45.5236 19.6375C45.5022 19.5004 45.4234 19.3767 45.3046 19.2939L43.5124 18.0439C43.4535 18.0028 43.3866 17.973 43.3154 17.9561C43.2442 17.9392 43.1701 17.9356 43.0975 17.9455C43.0248 17.9554 42.9549 17.9786 42.8918 18.0138C42.8287 18.0489 42.7737 18.0954 42.7298 18.1505L41.3432 19.8894C37.9124 17.9781 33.8314 17.3615 29.9315 18.1654C26.0315 18.9692 22.6059 21.133 20.3523 24.216C18.0986 27.299 17.1865 31.0694 17.8015 34.7593C18.4166 38.4492 20.5126 41.7811 23.6628 44.0765C26.8129 46.3718 30.7802 47.458 34.7568 47.1137C38.7333 46.7695 42.42 45.0207 45.066 42.2236C47.712 39.4265 49.1183 35.7914 48.9986 32.0586C48.8788 28.3258 47.2419 24.7761 44.4213 22.1323ZM33.3539 45.0271C25.9565 45.0271 19.9382 39.3993 19.9382 32.4817C19.9382 25.5642 25.9565 19.9364 33.3539 19.9364C40.7514 19.9364 46.7697 25.5642 46.7697 32.4817C46.7697 39.3993 40.7514 45.0271 33.3539 45.0271Z" fill="#C99D2B"/>
<path d="M43.9776 32.9989H33.3568C33.2085 32.9989 33.0663 32.9438 32.9615 32.8458C32.8567 32.7479 32.7978 32.615 32.7978 32.4764V22.5503C32.7978 22.4117 32.8567 22.2788 32.9615 22.1808C33.0663 22.0829 33.2085 22.0278 33.3568 22.0278C39.5213 22.0278 44.5365 26.715 44.5365 32.4764C44.5365 32.615 44.4776 32.7479 44.3728 32.8458C44.268 32.9438 44.1258 32.9989 43.9776 32.9989Z" fill="#C99D2B"/>
<path d="M29.5423 23.7192C29.851 23.7192 30.1013 23.4854 30.1013 23.197C30.1013 22.9086 29.851 22.6748 29.5423 22.6748C29.2336 22.6748 28.9833 22.9086 28.9833 23.197C28.9833 23.4854 29.2336 23.7192 29.5423 23.7192Z" fill="#C99D2B"/>
<path d="M26.6556 25.2756C26.9643 25.2756 27.2146 25.0417 27.2146 24.7531C27.2146 24.4644 26.9643 24.2305 26.6556 24.2305C26.3469 24.2305 26.0966 24.4644 26.0966 24.7531C26.0966 25.0417 26.3469 25.2756 26.6556 25.2756Z" fill="#C99D2B"/>
<path d="M24.4349 27.5881C24.7436 27.5881 24.9939 27.3544 24.9939 27.066C24.9939 26.7777 24.7436 26.5439 24.4349 26.5439C24.1262 26.5439 23.8759 26.7777 23.8759 27.066C23.8759 27.3544 24.1262 27.5881 24.4349 27.5881Z" fill="#C99D2B"/>
<path d="M23.0794 30.4329C23.3882 30.4329 23.6384 30.1989 23.6384 29.9103C23.6384 29.6217 23.3882 29.3877 23.0794 29.3877C22.7707 29.3877 22.5204 29.6217 22.5204 29.9103C22.5204 30.1989 22.7707 30.4329 23.0794 30.4329Z" fill="#C99D2B"/>
<path d="M22.7318 33.5266C23.0405 33.5266 23.2908 33.2929 23.2908 33.0045C23.2908 32.7162 23.0405 32.4824 22.7318 32.4824C22.4231 32.4824 22.1728 32.7162 22.1728 33.0045C22.1728 33.2929 22.4231 33.5266 22.7318 33.5266Z" fill="#C99D2B"/>
<path d="M23.4251 36.5706C23.7339 36.5706 23.9841 36.3368 23.9841 36.0485C23.9841 35.7601 23.7339 35.5264 23.4251 35.5264C23.1164 35.5264 22.8661 35.7601 22.8661 36.0485C22.8661 36.3368 23.1164 36.5706 23.4251 36.5706Z" fill="#C99D2B"/>
<path d="M25.0892 39.2639C25.3979 39.2639 25.6482 39.0302 25.6482 38.7418C25.6482 38.4535 25.3979 38.2197 25.0892 38.2197C24.7805 38.2197 24.5302 38.4535 24.5302 38.7418C24.5302 39.0302 24.7805 39.2639 25.0892 39.2639Z" fill="#C99D2B"/>
<path d="M27.5658 41.3457C27.8745 41.3457 28.1248 41.112 28.1248 40.8237C28.1248 40.5355 27.8745 40.3018 27.5658 40.3018C27.257 40.3018 27.0068 40.5355 27.0068 40.8237C27.0068 41.112 27.257 41.3457 27.5658 41.3457Z" fill="#C99D2B"/>
<path d="M30.6048 42.6116C30.9135 42.6116 31.1638 42.3778 31.1638 42.0895C31.1638 41.8011 30.9135 41.5674 30.6048 41.5674C30.2961 41.5674 30.0458 41.8011 30.0458 42.0895C30.0458 42.3778 30.2961 42.6116 30.6048 42.6116Z" fill="#C99D2B"/>
<path d="M33.9173 42.9346C34.226 42.9346 34.4763 42.7009 34.4763 42.4126C34.4763 42.1243 34.226 41.8906 33.9173 41.8906C33.6086 41.8906 33.3583 42.1243 33.3583 42.4126C33.3583 42.7009 33.6086 42.9346 33.9173 42.9346Z" fill="#C99D2B"/>
<path d="M37.1693 42.2893C37.478 42.2893 37.7283 42.0553 37.7283 41.7667C37.7283 41.4781 37.478 41.2441 37.1693 41.2441C36.8606 41.2441 36.6103 41.4781 36.6103 41.7667C36.6103 42.0553 36.8606 42.2893 37.1693 42.2893Z" fill="#C99D2B"/>
<path d="M40.0482 40.7314C40.3569 40.7314 40.6072 40.4976 40.6072 40.2092C40.6072 39.9208 40.3569 39.687 40.0482 39.687C39.7395 39.687 39.4892 39.9208 39.4892 40.2092C39.4892 40.4976 39.7395 40.7314 40.0482 40.7314Z" fill="#C99D2B"/>
<path d="M42.2767 38.4182C42.5854 38.4182 42.8357 38.1845 42.8357 37.8961C42.8357 37.6078 42.5854 37.374 42.2767 37.374C41.968 37.374 41.7177 37.6078 41.7177 37.8961C41.7177 38.1845 41.968 38.4182 42.2767 38.4182Z" fill="#C99D2B"/>
<path d="M43.6263 35.5754C43.935 35.5754 44.1853 35.3417 44.1853 35.0533C44.1853 34.765 43.935 34.5312 43.6263 34.5312C43.3176 34.5312 43.0673 34.765 43.0673 35.0533C43.0673 35.3417 43.3176 35.5754 43.6263 35.5754Z" fill="#C99D2B"/>
</svg>
