<svg width="80" height="128" viewBox="0 0 80 128" fill="none" xmlns="http://www.w3.org/2000/svg">
<path d="M12.7886 81.3925V88.3045C12.7886 89.0619 12.9859 89.6432 13.3806 90.0485C13.7752 90.4432 14.3299 90.6405 15.0446 90.6405C15.7699 90.6405 16.3299 90.4432 16.7246 90.0485C17.1192 89.6432 17.3166 89.0619 17.3166 88.3045V81.3925H19.5726V88.2885C19.5726 89.2379 19.3646 90.0432 18.9486 90.7045C18.5432 91.3552 17.9939 91.8459 17.3006 92.1765C16.6179 92.5072 15.8552 92.6725 15.0126 92.6725C14.1806 92.6725 13.4232 92.5072 12.7406 92.1765C12.0686 91.8459 11.5352 91.3552 11.1406 90.7045C10.7459 90.0432 10.5486 89.2379 10.5486 88.2885V81.3925H12.7886ZM26.6488 83.5685C27.7048 83.5685 28.5581 83.9045 29.2088 84.5765C29.8595 85.2379 30.1848 86.1659 30.1848 87.3605V92.5605H27.9448V87.6645C27.9448 86.9605 27.7688 86.4219 27.4168 86.0485C27.0648 85.6645 26.5848 85.4725 25.9768 85.4725C25.3581 85.4725 24.8675 85.6645 24.5048 86.0485C24.1528 86.4219 23.9768 86.9605 23.9768 87.6645V92.5605H21.7368V83.6965H23.9768V84.8005C24.2755 84.4165 24.6541 84.1179 25.1128 83.9045C25.5821 83.6805 26.0941 83.5685 26.6488 83.5685ZM31.7389 88.0965C31.7389 87.2005 31.9149 86.4059 32.2669 85.7125C32.6296 85.0192 33.1203 84.4859 33.7389 84.1125C34.3576 83.7392 35.0456 83.5525 35.8029 83.5525C36.3789 83.5525 36.9283 83.6805 37.4509 83.9365C37.9736 84.1819 38.3896 84.5125 38.6989 84.9285V80.7205H40.9709V92.5605H38.6989V91.2485C38.4216 91.6859 38.0323 92.0379 37.5309 92.3045C37.0296 92.5712 36.4483 92.7045 35.7869 92.7045C35.0403 92.7045 34.3576 92.5125 33.7389 92.1285C33.1203 91.7445 32.6296 91.2059 32.2669 90.5125C31.9149 89.8085 31.7389 89.0032 31.7389 88.0965ZM38.7149 88.1285C38.7149 87.5845 38.6083 87.1205 38.3949 86.7365C38.1816 86.3419 37.8936 86.0432 37.5309 85.8405C37.1683 85.6272 36.7789 85.5205 36.3629 85.5205C35.9469 85.5205 35.5629 85.6219 35.2109 85.8245C34.8589 86.0272 34.5709 86.3259 34.3469 86.7205C34.1336 87.1045 34.0269 87.5632 34.0269 88.0965C34.0269 88.6299 34.1336 89.0992 34.3469 89.5045C34.5709 89.8992 34.8589 90.2032 35.2109 90.4165C35.5736 90.6299 35.9576 90.7365 36.3629 90.7365C36.7789 90.7365 37.1683 90.6352 37.5309 90.4325C37.8936 90.2192 38.1816 89.9205 38.3949 89.5365C38.6083 89.1419 38.7149 88.6725 38.7149 88.1285ZM46.5507 92.7045C45.8254 92.7045 45.1747 92.5765 44.5987 92.3205C44.0227 92.0539 43.564 91.6965 43.2227 91.2485C42.892 90.8005 42.7107 90.3045 42.6787 89.7605H44.9347C44.9774 90.1019 45.1427 90.3845 45.4307 90.6085C45.7294 90.8325 46.0974 90.9445 46.5347 90.9445C46.9614 90.9445 47.292 90.8592 47.5267 90.6885C47.772 90.5179 47.8947 90.2992 47.8947 90.0325C47.8947 89.7445 47.7454 89.5312 47.4467 89.3925C47.1587 89.2432 46.6947 89.0832 46.0547 88.9125C45.3934 88.7525 44.8494 88.5872 44.4227 88.4165C44.0067 88.2459 43.644 87.9845 43.3347 87.6325C43.036 87.2805 42.8867 86.8059 42.8867 86.2085C42.8867 85.7179 43.0254 85.2699 43.3027 84.8645C43.5907 84.4592 43.996 84.1392 44.5187 83.9045C45.052 83.6699 45.676 83.5525 46.3907 83.5525C47.4467 83.5525 48.2894 83.8192 48.9187 84.3525C49.548 84.8752 49.8947 85.5845 49.9587 86.4805H47.8147C47.7827 86.1285 47.6334 85.8512 47.3667 85.6485C47.1107 85.4352 46.764 85.3285 46.3267 85.3285C45.9214 85.3285 45.6067 85.4032 45.3827 85.5525C45.1694 85.7019 45.0627 85.9099 45.0627 86.1765C45.0627 86.4752 45.212 86.7045 45.5107 86.8645C45.8094 87.0139 46.2734 87.1685 46.9027 87.3285C47.5427 87.4885 48.0707 87.6539 48.4867 87.8245C48.9027 87.9952 49.26 88.2619 49.5587 88.6245C49.868 88.9765 50.028 89.4459 50.0387 90.0325C50.0387 90.5445 49.8947 91.0032 49.6067 91.4085C49.3294 91.8139 48.924 92.1339 48.3907 92.3685C47.868 92.5925 47.2547 92.7045 46.5507 92.7045ZM54.1174 80.7205V92.5605H51.8774V80.7205H54.1174ZM57.4666 82.6405C57.0719 82.6405 56.7412 82.5179 56.4746 82.2725C56.2186 82.0165 56.0906 81.7019 56.0906 81.3285C56.0906 80.9552 56.2186 80.6459 56.4746 80.4005C56.7412 80.1445 57.0719 80.0165 57.4666 80.0165C57.8612 80.0165 58.1866 80.1445 58.4426 80.4005C58.7092 80.6459 58.8426 80.9552 58.8426 81.3285C58.8426 81.7019 58.7092 82.0165 58.4426 82.2725C58.1866 82.5179 57.8612 82.6405 57.4666 82.6405ZM58.5706 83.6965V92.5605H56.3306V83.6965H58.5706ZM63.0237 84.9765C63.3117 84.5712 63.7064 84.2352 64.2077 83.9685C64.7197 83.6912 65.301 83.5525 65.9517 83.5525C66.709 83.5525 67.3917 83.7392 67.9997 84.1125C68.6184 84.4859 69.1037 85.0192 69.4557 85.7125C69.8184 86.3952 69.9997 87.1899 69.9997 88.0965C69.9997 89.0032 69.8184 89.8085 69.4557 90.5125C69.1037 91.2059 68.6184 91.7445 67.9997 92.1285C67.3917 92.5125 66.709 92.7045 65.9517 92.7045C65.301 92.7045 64.725 92.5712 64.2237 92.3045C63.733 92.0379 63.333 91.7019 63.0237 91.2965V96.7845H60.7837V83.6965H63.0237V84.9765ZM67.7117 88.0965C67.7117 87.5632 67.5997 87.1045 67.3757 86.7205C67.1624 86.3259 66.8744 86.0272 66.5117 85.8245C66.1597 85.6219 65.7757 85.5205 65.3597 85.5205C64.9544 85.5205 64.5704 85.6272 64.2077 85.8405C63.8557 86.0432 63.5677 86.3419 63.3437 86.7365C63.1304 87.1312 63.0237 87.5952 63.0237 88.1285C63.0237 88.6619 63.1304 89.1259 63.3437 89.5205C63.5677 89.9152 63.8557 90.2192 64.2077 90.4325C64.5704 90.6352 64.9544 90.7365 65.3597 90.7365C65.7757 90.7365 66.1597 90.6299 66.5117 90.4165C66.8744 90.2032 67.1624 89.8992 67.3757 89.5045C67.5997 89.1099 67.7117 88.6405 67.7117 88.0965ZM10.0159 112.073C10.3039 111.603 10.6772 111.235 11.1359 110.969C11.6052 110.702 12.1385 110.569 12.7359 110.569V112.921H12.1439C11.4399 112.921 10.9065 113.086 10.5439 113.417C10.1919 113.747 10.0159 114.323 10.0159 115.145V119.561H7.77588V110.697H10.0159V112.073ZM22.6126 110.697V119.561H20.3566V118.441C20.0686 118.825 19.69 119.129 19.2206 119.353C18.762 119.566 18.2606 119.673 17.7166 119.673C17.0233 119.673 16.41 119.529 15.8766 119.241C15.3433 118.942 14.922 118.51 14.6126 117.945C14.314 117.369 14.1646 116.686 14.1646 115.897V110.697H16.4046V115.577C16.4046 116.281 16.5806 116.825 16.9326 117.209C17.2846 117.582 17.7646 117.769 18.3726 117.769C18.9913 117.769 19.4766 117.582 19.8286 117.209C20.1806 116.825 20.3566 116.281 20.3566 115.577V110.697H22.6126ZM35.8308 110.569C36.9188 110.569 37.7934 110.905 38.4548 111.577C39.1268 112.238 39.4628 113.166 39.4628 114.361V119.561H37.2228V114.665C37.2228 113.971 37.0468 113.443 36.6948 113.081C36.3428 112.707 35.8628 112.521 35.2548 112.521C34.6468 112.521 34.1614 112.707 33.7988 113.081C33.4468 113.443 33.2708 113.971 33.2708 114.665V119.561H31.0308V114.665C31.0308 113.971 30.8548 113.443 30.5028 113.081C30.1508 112.707 29.6708 112.521 29.0628 112.521C28.4441 112.521 27.9534 112.707 27.5908 113.081C27.2388 113.443 27.0628 113.971 27.0628 114.665V119.561H24.8228V110.697H27.0628V111.769C27.3508 111.395 27.7188 111.102 28.1668 110.889C28.6254 110.675 29.1268 110.569 29.6708 110.569C30.3641 110.569 30.9828 110.718 31.5268 111.017C32.0708 111.305 32.4921 111.721 32.7908 112.265C33.0788 111.753 33.4948 111.342 34.0388 111.033C34.5934 110.723 35.1908 110.569 35.8308 110.569ZM52.5964 110.569C53.6844 110.569 54.559 110.905 55.2204 111.577C55.8924 112.238 56.2284 113.166 56.2284 114.361V119.561H53.9884V114.665C53.9884 113.971 53.8124 113.443 53.4604 113.081C53.1084 112.707 52.6284 112.521 52.0204 112.521C51.4124 112.521 50.927 112.707 50.5644 113.081C50.2124 113.443 50.0364 113.971 50.0364 114.665V119.561H47.7964V114.665C47.7964 113.971 47.6204 113.443 47.2684 113.081C46.9164 112.707 46.4364 112.521 45.8284 112.521C45.2097 112.521 44.719 112.707 44.3564 113.081C44.0044 113.443 43.8284 113.971 43.8284 114.665V119.561H41.5884V110.697H43.8284V111.769C44.1164 111.395 44.4844 111.102 44.9324 110.889C45.391 110.675 45.8924 110.569 46.4364 110.569C47.1297 110.569 47.7484 110.718 48.2924 111.017C48.8364 111.305 49.2577 111.721 49.5564 112.265C49.8444 111.753 50.2604 111.342 50.8044 111.033C51.359 110.723 51.9564 110.569 52.5964 110.569ZM66.594 114.937C66.594 115.257 66.5727 115.545 66.53 115.801H60.05C60.1033 116.441 60.3273 116.942 60.722 117.305C61.1167 117.667 61.602 117.849 62.178 117.849C63.01 117.849 63.602 117.491 63.954 116.777H66.37C66.114 117.63 65.6233 118.334 64.898 118.889C64.1727 119.433 63.282 119.705 62.226 119.705C61.3727 119.705 60.6047 119.518 59.922 119.145C59.25 118.761 58.722 118.222 58.338 117.529C57.9647 116.835 57.778 116.035 57.778 115.129C57.778 114.211 57.9647 113.406 58.338 112.713C58.7113 112.019 59.234 111.486 59.906 111.113C60.578 110.739 61.3513 110.553 62.226 110.553C63.0687 110.553 63.8207 110.734 64.482 111.097C65.154 111.459 65.6713 111.977 66.034 112.649C66.4073 113.31 66.594 114.073 66.594 114.937ZM64.274 114.297C64.2633 113.721 64.0553 113.262 63.65 112.921C63.2447 112.569 62.7487 112.393 62.162 112.393C61.6073 112.393 61.138 112.563 60.754 112.905C60.3807 113.235 60.1513 113.699 60.066 114.297H64.274ZM70.837 112.537V116.825C70.837 117.123 70.9063 117.342 71.045 117.481C71.1943 117.609 71.4397 117.673 71.781 117.673H72.821V119.561H71.413C69.525 119.561 68.581 118.643 68.581 116.809V112.537H67.525V110.697H68.581V108.505H70.837V110.697H72.821V112.537H70.837Z" fill="white"/>
<path d="M71.7727 30.1666C71.7727 30.1666 71.7371 30.7553 71.6758 31.4001C71.2801 35.5817 69.469 47.077 59.6709 54.381C51.9065 60.1689 43.4423 60.1095 39.0268 60.0785C33.4742 60.0396 24.8611 60.0333 17.6707 53.6688C7.67541 44.8217 8.99713 31.3127 9.12833 30.1666C9.96705 22.8396 13.6041 18.0087 16.247 14.4984C18.3303 11.7314 26.2786 1.9392 38.3149 0.254662C38.4623 0.23408 38.6545 0.207302 38.9171 0.177746C48.1008 -0.8545 55.4787 4.61304 58.2472 6.66436C62.6435 10.1638 66.2774 14.5265 68.9252 19.4838C71.9007 25.2265 71.8125 29.2196 71.7727 30.1666Z" fill="#C99D2B"/>
<path d="M51.4723 33.5962C51.3429 33.5962 51.2188 33.5465 51.1273 33.4581C51.0358 33.3697 50.9844 33.2498 50.9844 33.1248V31.7248C50.9844 31.5998 51.0358 31.4799 51.1273 31.3915C51.2188 31.3031 51.3429 31.2534 51.4723 31.2534C51.6017 31.2534 51.7258 31.3031 51.8173 31.3915C51.9088 31.4799 51.9602 31.5998 51.9602 31.7248V33.1248C51.9602 33.2498 51.9088 33.3697 51.8173 33.4581C51.7258 33.5465 51.6017 33.5962 51.4723 33.5962Z" fill="black"/>
<path d="M35.8984 47.0762C35.769 47.0762 35.6449 47.0265 35.5534 46.938C35.4619 46.8496 35.4105 46.7296 35.4105 46.6045V14.5316C35.4102 14.4655 35.4242 14.4001 35.4517 14.3395C35.4792 14.279 35.5196 14.2248 35.5702 14.1803C35.6208 14.1358 35.6805 14.1021 35.7455 14.0814C35.8104 14.0607 35.8792 14.0534 35.9472 14.06L51.5256 15.5834C51.6464 15.5952 51.7583 15.65 51.8395 15.7372C51.9207 15.8244 51.9653 15.9378 51.9647 16.0551V23.7573C51.9647 23.8824 51.9133 24.0024 51.8218 24.0908C51.7303 24.1793 51.6062 24.229 51.4768 24.229C51.3474 24.229 51.2233 24.1793 51.1318 24.0908C51.0403 24.0024 50.9889 23.8824 50.9889 23.7573V16.4815L36.3863 15.0533V46.0645L50.9889 44.1519V36.4355C50.9889 36.3104 51.0403 36.1905 51.1318 36.102C51.2233 36.0136 51.3474 35.9639 51.4768 35.9639C51.6062 35.9639 51.7303 36.0136 51.8218 36.102C51.9133 36.1905 51.9647 36.3104 51.9647 36.4355V44.5622C51.9647 44.6763 51.922 44.7865 51.8444 44.8725C51.7668 44.9584 51.6596 45.0142 51.5427 45.0296L35.9643 47.0719C35.9425 47.0747 35.9204 47.0762 35.8984 47.0762Z" fill="black"/>
<path d="M51.4723 28.8945C51.3429 28.8945 51.2188 28.8449 51.1273 28.7565C51.0358 28.6681 50.9844 28.5482 50.9844 28.4232V27.0515C50.9844 26.9264 51.0358 26.8065 51.1273 26.7181C51.2188 26.6297 51.3429 26.5801 51.4723 26.5801C51.6017 26.5801 51.7258 26.6297 51.8173 26.7181C51.9088 26.8065 51.9602 26.9264 51.9602 27.0515V28.4232C51.9602 28.5482 51.9088 28.6681 51.8173 28.7565C51.7258 28.8449 51.6017 28.8945 51.4723 28.8945Z" fill="black"/>
<path d="M28.6659 45.333C28.5365 45.333 28.4124 45.2833 28.3209 45.1949C28.2294 45.1064 28.178 44.9864 28.178 44.8613V16.0395C28.178 15.9144 28.2294 15.7945 28.3209 15.706C28.4124 15.6176 28.5365 15.5679 28.6659 15.5679H35.8965C36.0259 15.5679 36.15 15.6176 36.2415 15.706C36.333 15.7945 36.3844 15.9144 36.3844 16.0395C36.3844 16.1646 36.333 16.2846 36.2415 16.3731C36.15 16.4615 36.0259 16.5112 35.8965 16.5112H29.1538V44.8613C29.1538 44.9864 29.1024 45.1064 29.0109 45.1949C28.9194 45.2833 28.7953 45.333 28.6659 45.333Z" fill="black"/>
<path d="M31.4215 45.3311C31.2921 45.3311 31.168 45.2814 31.0765 45.1929C30.985 45.1045 30.9336 44.9845 30.9336 44.8594V18.793C30.9336 18.6679 30.985 18.5479 31.0765 18.4594C31.168 18.371 31.2921 18.3213 31.4215 18.3213H35.893C36.0224 18.3213 36.1465 18.371 36.238 18.4594C36.3295 18.5479 36.3809 18.6679 36.3809 18.793C36.3809 18.918 36.3295 19.038 36.238 19.1265C36.1465 19.2149 36.0224 19.2646 35.893 19.2646H31.9094V44.8594C31.9094 44.9845 31.858 45.1045 31.7665 45.1929C31.675 45.2814 31.5509 45.3311 31.4215 45.3311Z" fill="black"/>
<path d="M35.8916 45.3306H23.4879C23.3585 45.3306 23.2344 45.2809 23.1429 45.1926C23.0514 45.1042 23 44.9843 23 44.8594C23 44.7344 23.0514 44.6146 23.1429 44.5262C23.2344 44.4378 23.3585 44.3882 23.4879 44.3882H35.8916C36.021 44.3882 36.1451 44.4378 36.2366 44.5262C36.3281 44.6146 36.3795 44.7344 36.3795 44.8594C36.3795 44.9843 36.3281 45.1042 36.2366 45.1926C36.1451 45.2809 36.021 45.3306 35.8916 45.3306Z" fill="black"/>
<path d="M56.6148 45.3301H49.1461C49.0167 45.3301 48.8926 45.2805 48.8011 45.1921C48.7096 45.1038 48.6582 44.984 48.6582 44.8591C48.6582 44.7342 48.7096 44.6144 48.8011 44.5261C48.8926 44.4378 49.0167 44.3882 49.1461 44.3882H56.6148C56.7442 44.3882 56.8682 44.4378 56.9597 44.5261C57.0512 44.6144 57.1026 44.7342 57.1026 44.8591C57.1026 44.984 57.0512 45.1038 56.9597 45.1921C56.8682 45.2805 56.7442 45.3301 56.6148 45.3301Z" fill="black"/>
<path d="M39.2828 32.2637C38.934 32.2637 38.5931 32.1637 38.3032 31.9765C38.0132 31.7892 37.7872 31.5231 37.6538 31.2117C37.5203 30.9003 37.4854 30.5577 37.5534 30.2271C37.6214 29.8966 37.7894 29.5929 38.036 29.3546C38.2826 29.1163 38.5968 28.954 38.9388 28.8882C39.2808 28.8225 39.6354 28.8562 39.9576 28.9852C40.2797 29.1142 40.5551 29.3326 40.7489 29.6128C40.9426 29.8931 41.046 30.2225 41.046 30.5596C41.0455 31.0114 40.8596 31.4445 40.529 31.764C40.1985 32.0835 39.7503 32.2632 39.2828 32.2637ZM39.2828 29.7985C39.127 29.7985 38.9748 29.8432 38.8453 29.9268C38.7158 30.0104 38.6149 30.1293 38.5553 30.2683C38.4957 30.4074 38.4801 30.5604 38.5105 30.708C38.5408 30.8557 38.6158 30.9913 38.726 31.0977C38.8361 31.2041 38.9764 31.2766 39.1292 31.306C39.2819 31.3354 39.4402 31.3203 39.5841 31.2627C39.728 31.2051 39.851 31.1075 39.9375 30.9824C40.0241 30.8572 40.0702 30.7101 40.0702 30.5596C40.07 30.3578 39.9869 30.1644 39.8393 30.0217C39.6917 29.879 39.4916 29.7988 39.2828 29.7985Z" fill="black"/>
</svg>
