<svg width="83" height="128" viewBox="0 0 83 128" fill="none" xmlns="http://www.w3.org/2000/svg">
<path d="M32.3203 81.3921V83.2001H27.6643V86.0641H31.2323V87.8401H27.6643V92.5601H25.4243V81.3921H32.3203ZM35.0447 82.6401C34.65 82.6401 34.3194 82.5174 34.0527 82.2721C33.7967 82.0161 33.6687 81.7014 33.6687 81.3281C33.6687 80.9547 33.7967 80.6454 34.0527 80.4001C34.3194 80.1441 34.65 80.0161 35.0447 80.0161C35.4394 80.0161 35.7647 80.1441 36.0207 80.4001C36.2874 80.6454 36.4207 80.9547 36.4207 81.3281C36.4207 81.7014 36.2874 82.0161 36.0207 82.2721C35.7647 82.5174 35.4394 82.6401 35.0447 82.6401ZM36.1487 83.6961V92.5601H33.9087V83.6961H36.1487ZM43.2738 83.5681C44.3298 83.5681 45.1831 83.9041 45.8338 84.5761C46.4845 85.2374 46.8098 86.1654 46.8098 87.3601V92.5601H44.5698V87.6641C44.5698 86.9601 44.3938 86.4214 44.0418 86.0481C43.6898 85.6641 43.2098 85.4721 42.6018 85.4721C41.9831 85.4721 41.4925 85.6641 41.1298 86.0481C40.7778 86.4214 40.6018 86.9601 40.6018 87.6641V92.5601H38.3618V83.6961H40.6018V84.8001C40.9005 84.4161 41.2791 84.1174 41.7378 83.9041C42.2071 83.6801 42.7191 83.5681 43.2738 83.5681ZM48.3639 88.0961C48.3639 87.2001 48.5399 86.4054 48.8919 85.7121C49.2546 85.0187 49.7453 84.4854 50.3639 84.1121C50.9826 83.7387 51.6706 83.5521 52.4279 83.5521C53.0039 83.5521 53.5533 83.6801 54.0759 83.9361C54.5986 84.1814 55.0146 84.5121 55.3239 84.9281V80.7201H57.5959V92.5601H55.3239V91.2481C55.0466 91.6854 54.6573 92.0374 54.1559 92.3041C53.6546 92.5707 53.0733 92.7041 52.4119 92.7041C51.6653 92.7041 50.9826 92.5121 50.3639 92.1281C49.7453 91.7441 49.2546 91.2054 48.8919 90.5121C48.5399 89.8081 48.3639 89.0027 48.3639 88.0961ZM55.3399 88.1281C55.3399 87.5841 55.2333 87.1201 55.0199 86.7361C54.8066 86.3414 54.5186 86.0427 54.1559 85.8401C53.7933 85.6267 53.4039 85.5201 52.9879 85.5201C52.5719 85.5201 52.1879 85.6214 51.8359 85.8241C51.4839 86.0267 51.1959 86.3254 50.9719 86.7201C50.7586 87.1041 50.6519 87.5627 50.6519 88.0961C50.6519 88.6294 50.7586 89.0987 50.9719 89.5041C51.1959 89.8987 51.4839 90.2027 51.8359 90.4161C52.1986 90.6294 52.5826 90.7361 52.9879 90.7361C53.4039 90.7361 53.7933 90.6347 54.1559 90.4321C54.5186 90.2187 54.8066 89.9201 55.0199 89.5361C55.2333 89.1414 55.3399 88.6721 55.3399 88.1281ZM13.0729 110.568C14.1609 110.568 15.0356 110.904 15.6969 111.576C16.3689 112.237 16.7049 113.165 16.7049 114.36V119.56H14.4649V114.664C14.4649 113.971 14.2889 113.443 13.9369 113.08C13.5849 112.707 13.1049 112.52 12.4969 112.52C11.8889 112.52 11.4036 112.707 11.0409 113.08C10.6889 113.443 10.5129 113.971 10.5129 114.664V119.56H8.27294V114.664C8.27294 113.971 8.09694 113.443 7.74494 113.08C7.39294 112.707 6.91294 112.52 6.30494 112.52C5.68627 112.52 5.1956 112.707 4.83294 113.08C4.48094 113.443 4.30494 113.971 4.30494 114.664V119.56H2.06494V110.696H4.30494V111.768C4.59294 111.395 4.96094 111.101 5.40894 110.888C5.8676 110.675 6.36894 110.568 6.91294 110.568C7.60627 110.568 8.22494 110.717 8.76894 111.016C9.31294 111.304 9.73427 111.72 10.0329 112.264C10.3209 111.752 10.7369 111.341 11.2809 111.032C11.8356 110.723 12.4329 110.568 13.0729 110.568ZM22.7666 119.704C21.9132 119.704 21.1452 119.517 20.4626 119.144C19.7799 118.76 19.2412 118.221 18.8466 117.528C18.4626 116.835 18.2706 116.035 18.2706 115.128C18.2706 114.221 18.4679 113.421 18.8626 112.728C19.2679 112.035 19.8172 111.501 20.5106 111.128C21.2039 110.744 21.9772 110.552 22.8306 110.552C23.6839 110.552 24.4572 110.744 25.1506 111.128C25.8439 111.501 26.3879 112.035 26.7826 112.728C27.1879 113.421 27.3906 114.221 27.3906 115.128C27.3906 116.035 27.1826 116.835 26.7666 117.528C26.3612 118.221 25.8066 118.76 25.1026 119.144C24.4092 119.517 23.6306 119.704 22.7666 119.704ZM22.7666 117.752C23.1719 117.752 23.5506 117.656 23.9026 117.464C24.2652 117.261 24.5532 116.963 24.7666 116.568C24.9799 116.173 25.0866 115.693 25.0866 115.128C25.0866 114.285 24.8626 113.64 24.4146 113.192C23.9772 112.733 23.4386 112.504 22.7986 112.504C22.1586 112.504 21.6199 112.733 21.1826 113.192C20.7559 113.64 20.5426 114.285 20.5426 115.128C20.5426 115.971 20.7506 116.621 21.1666 117.08C21.5932 117.528 22.1266 117.752 22.7666 117.752ZM31.2737 112.072C31.5617 111.603 31.935 111.235 32.3937 110.968C32.863 110.701 33.3964 110.568 33.9937 110.568V112.92H33.4017C32.6977 112.92 32.1644 113.085 31.8017 113.416C31.4497 113.747 31.2737 114.323 31.2737 115.144V119.56H29.0337V110.696H31.2737V112.072ZM34.9264 115.096C34.9264 114.2 35.1024 113.405 35.4544 112.712C35.8171 112.019 36.3078 111.485 36.9264 111.112C37.5451 110.739 38.2331 110.552 38.9904 110.552C39.5664 110.552 40.1158 110.68 40.6384 110.936C41.1611 111.181 41.5771 111.512 41.8864 111.928V107.72H44.1584V119.56H41.8864V118.248C41.6091 118.685 41.2198 119.037 40.7184 119.304C40.2171 119.571 39.6358 119.704 38.9744 119.704C38.2278 119.704 37.5451 119.512 36.9264 119.128C36.3078 118.744 35.8171 118.205 35.4544 117.512C35.1024 116.808 34.9264 116.003 34.9264 115.096ZM41.9024 115.128C41.9024 114.584 41.7958 114.12 41.5824 113.736C41.3691 113.341 41.0811 113.043 40.7184 112.84C40.3558 112.627 39.9664 112.52 39.5504 112.52C39.1344 112.52 38.7504 112.621 38.3984 112.824C38.0464 113.027 37.7584 113.325 37.5344 113.72C37.3211 114.104 37.2144 114.563 37.2144 115.096C37.2144 115.629 37.3211 116.099 37.5344 116.504C37.7584 116.899 38.0464 117.203 38.3984 117.416C38.7611 117.629 39.1451 117.736 39.5504 117.736C39.9664 117.736 40.3558 117.635 40.7184 117.432C41.0811 117.219 41.3691 116.92 41.5824 116.536C41.7958 116.141 41.9024 115.672 41.9024 115.128ZM54.5862 114.936C54.5862 115.256 54.5649 115.544 54.5222 115.8H48.0422C48.0955 116.44 48.3195 116.941 48.7142 117.304C49.1089 117.667 49.5942 117.848 50.1702 117.848C51.0022 117.848 51.5942 117.491 51.9462 116.776H54.3622C54.1062 117.629 53.6155 118.333 52.8902 118.888C52.1649 119.432 51.2742 119.704 50.2182 119.704C49.3649 119.704 48.5969 119.517 47.9142 119.144C47.2422 118.76 46.7142 118.221 46.3302 117.528C45.9569 116.835 45.7702 116.035 45.7702 115.128C45.7702 114.211 45.9569 113.405 46.3302 112.712C46.7035 112.019 47.2262 111.485 47.8982 111.112C48.5702 110.739 49.3435 110.552 50.2182 110.552C51.0609 110.552 51.8129 110.733 52.4742 111.096C53.1462 111.459 53.6635 111.976 54.0262 112.648C54.3995 113.309 54.5862 114.072 54.5862 114.936ZM52.2662 114.296C52.2555 113.72 52.0475 113.261 51.6422 112.92C51.2369 112.568 50.7409 112.392 50.1542 112.392C49.5995 112.392 49.1302 112.563 48.7462 112.904C48.3729 113.235 48.1435 113.699 48.0582 114.296H52.2662ZM58.4612 112.072C58.7492 111.603 59.1225 111.235 59.5812 110.968C60.0505 110.701 60.5839 110.568 61.1812 110.568V112.92H60.5892C59.8852 112.92 59.3519 113.085 58.9892 113.416C58.6372 113.747 58.4612 114.323 58.4612 115.144V119.56H56.2212V110.696H58.4612V112.072ZM70.9299 114.936C70.9299 115.256 70.9086 115.544 70.8659 115.8H64.3859C64.4393 116.44 64.6633 116.941 65.0579 117.304C65.4526 117.667 65.9379 117.848 66.5139 117.848C67.3459 117.848 67.9379 117.491 68.2899 116.776H70.7059C70.4499 117.629 69.9593 118.333 69.2339 118.888C68.5086 119.432 67.6179 119.704 66.5619 119.704C65.7086 119.704 64.9406 119.517 64.2579 119.144C63.5859 118.76 63.0579 118.221 62.6739 117.528C62.3006 116.835 62.1139 116.035 62.1139 115.128C62.1139 114.211 62.3006 113.405 62.6739 112.712C63.0473 112.019 63.5699 111.485 64.2419 111.112C64.9139 110.739 65.6873 110.552 66.5619 110.552C67.4046 110.552 68.1566 110.733 68.8179 111.096C69.4899 111.459 70.0073 111.976 70.3699 112.648C70.7433 113.309 70.9299 114.072 70.9299 114.936ZM68.6099 114.296C68.5993 113.72 68.3913 113.261 67.9859 112.92C67.5806 112.568 67.0846 112.392 66.4979 112.392C65.9433 112.392 65.4739 112.563 65.0899 112.904C64.7166 113.235 64.4873 113.699 64.4019 114.296H68.6099ZM77.4769 110.568C78.5329 110.568 79.3863 110.904 80.0369 111.576C80.6876 112.237 81.0129 113.165 81.0129 114.36V119.56H78.7729V114.664C78.7729 113.96 78.5969 113.421 78.2449 113.048C77.8929 112.664 77.4129 112.472 76.8049 112.472C76.1863 112.472 75.6956 112.664 75.3329 113.048C74.9809 113.421 74.8049 113.96 74.8049 114.664V119.56H72.5649V110.696H74.8049V111.8C75.1036 111.416 75.4823 111.117 75.9409 110.904C76.4103 110.68 76.9223 110.568 77.4769 110.568Z" fill="black"/>
<path d="M72.7727 30.848C72.7727 30.848 72.7371 31.4367 72.6758 32.0815C72.2801 36.2632 70.469 47.7585 60.6709 55.0626C52.9065 60.8505 44.4423 60.7911 40.0268 60.7602C34.4742 60.7212 25.8611 60.7149 18.6707 54.3504C8.67541 45.5032 9.99713 31.9941 10.1283 30.848C10.9671 23.5209 14.6041 18.69 17.247 15.1797C19.3303 12.4126 27.2786 2.62037 39.3149 0.935816C39.4623 0.915234 39.6545 0.888456 39.9171 0.858899C49.1008 -0.173355 56.4787 5.29423 59.2472 7.34557C63.6435 10.8451 67.2774 15.2078 69.9252 20.1651C72.9007 25.9078 72.8125 29.901 72.7727 30.848Z" fill="black"/>
<path d="M57.8022 43.527L47.4628 33.1815C47.4595 33.1781 47.4561 33.1747 47.4527 33.1714L45.3176 31.0349C45.0526 30.7698 44.623 30.7698 44.3581 31.0349L43.3025 32.0912L42.034 30.8218C45.5767 26.7803 45.4227 20.6051 41.5705 16.75L41.5705 16.75C37.5563 12.7343 31.025 12.7344 27.0109 16.7501C22.9976 20.7665 22.9976 27.3017 27.011 31.3182C29.018 33.326 31.6543 34.33 34.2907 34.33C36.7152 34.33 39.1394 33.4801 41.0745 31.7819L42.343 33.0512L41.2874 34.1074C41.0224 34.3725 41.0224 34.8022 41.2873 35.0673L43.4271 37.209C43.4333 37.2152 43.4396 37.2213 43.4459 37.2272L53.7721 47.5595C53.8993 47.6868 54.0719 47.7583 54.2518 47.7583C54.4317 47.7583 54.6044 47.6867 54.7315 47.5595L57.8022 44.4871C57.9294 44.3598 58.0008 44.1871 58.0008 44.0071C58.0008 43.8271 57.9294 43.6542 57.8022 43.527ZM40.6113 30.3578C40.6112 30.3579 40.6111 30.3579 40.611 30.3581C40.611 30.3581 40.6109 30.3583 40.6108 30.3583C37.1257 33.8445 31.4553 33.8444 27.9704 30.3581C24.4861 26.8711 24.4861 21.1971 27.9703 17.7101C29.7128 15.9668 32.0018 15.0952 34.2907 15.0952C36.5796 15.0952 38.8685 15.9668 40.6109 17.7099C44.0953 21.197 44.0954 26.8707 40.6113 30.3578ZM42.7265 34.5874L44.8378 32.4749L46.0188 33.6566L43.9074 35.7693L42.7265 34.5874ZM54.2518 46.1194L44.8671 36.7291L46.9783 34.6167L56.363 44.0069L54.2518 46.1194Z" fill="#C99D2B"/>
<path d="M39.4272 18.8862C36.5927 16.0516 31.9804 16.0516 29.1451 18.8862C26.3107 21.7215 26.3108 26.3343 29.1451 29.1689C30.5185 30.5424 32.3443 31.2988 34.2864 31.2988C36.2284 31.2988 38.0541 30.5425 39.427 29.169C40.8004 27.7958 41.5569 25.97 41.5569 24.0278C41.5569 22.0856 40.8006 20.2596 39.4272 18.8862ZM38.4676 28.2094C37.3509 29.3266 35.866 29.9418 34.2864 29.9418C32.7068 29.9418 31.2217 29.3266 30.1046 28.2094C27.7991 25.9039 27.7992 22.152 30.1046 19.8458C31.2577 18.6929 32.7718 18.1166 34.2864 18.1166C35.8005 18.1166 37.3151 18.6931 38.4676 19.8458C39.5848 20.9629 40.2 22.4481 40.2 24.0278C40.2 25.6074 39.5849 27.0923 38.4676 28.2094Z" fill="#C99D2B"/>
<path d="M38.5949 23.436C38.544 23.0647 38.2018 22.8049 37.8306 22.856C37.4593 22.9069 37.1997 23.2491 37.2506 23.6204C37.3789 24.5561 37.0699 25.4752 36.4029 26.1419C36.1379 26.4069 36.1379 26.8365 36.4028 27.1015C36.5353 27.2339 36.7089 27.3002 36.8826 27.3002C37.0562 27.3002 37.2298 27.234 37.3623 27.1016C38.3321 26.132 38.7814 24.796 38.5949 23.436Z" fill="#C99D2B"/>
<path d="M37.1819 21.0137C36.3088 21.0137 36.3074 22.3711 37.1819 22.3711C38.055 22.3712 38.0564 21.0137 37.1819 21.0137Z" fill="#C99D2B"/>
</svg>
