<svg width="117" height="116" viewBox="0 0 117 116" fill="none" xmlns="http://www.w3.org/2000/svg">
<path d="M113.347 55.867C115.223 61.9324 119.074 74.3845 113.347 86.8897C102.607 110.339 63.0703 123.312 33.5257 109.589C11.6759 99.4409 0.0242357 76.8901 3.77696e-05 55.867C-0.0244246 34.6097 11.8345 9.54867 33.525 2.14537C65.9169 -8.91039 103.806 25.0212 113.347 55.867Z" fill="black"/>
<path d="M68.1892 65.1458C68.0145 64.6609 67.4797 64.4095 66.9948 64.5842C66.5098 64.759 66.2584 65.2937 66.4332 65.7785C66.4375 65.7904 66.442 65.8022 66.4468 65.814C67.298 68.035 67.3596 69.7335 66.6148 70.4801C65.7113 71.3815 63.4611 71.0997 60.5939 69.7279C56.7553 67.735 53.2661 65.1316 50.2627 62.0195C42.9519 54.7087 39.9354 47.535 41.8011 45.6695C42.3965 45.1994 43.1703 45.0188 43.9123 45.1768C44.4264 45.2146 44.8738 44.8285 44.9116 44.3145C44.9481 43.8177 44.5879 43.3798 44.0934 43.3197C42.7957 43.0901 41.4643 43.4684 40.4814 44.3462C37.0616 47.7646 42.2892 56.6815 48.943 63.3353C52.0955 66.5972 55.7586 69.3235 59.7884 71.4067C60.5181 71.7561 61.2702 72.057 62.0396 72.3073L55.4082 74.8214C46.5532 71.4553 40.1786 63.606 38.7015 54.2495C38.6216 53.7403 38.1439 53.3923 37.6347 53.4722C37.1254 53.5521 36.7773 54.0296 36.8572 54.5388C37.0038 55.472 37.1998 56.4053 37.4396 57.318C39.5889 65.4602 45.2497 72.2242 52.8864 75.7751L41.9719 79.9046C41.9219 79.8211 41.8589 79.7462 41.7852 79.6825C39.0114 77.4558 37.2709 74.1901 36.9692 70.6462L36.5362 65.4024C36.5021 64.8944 36.0625 64.5101 35.5543 64.5442C35.5446 64.5449 35.5349 64.5456 35.5254 64.5467C35.0115 64.5875 34.6281 65.0372 34.6689 65.5509C34.669 65.553 34.6692 65.5552 34.6695 65.5573L35.11 70.7992C35.4381 74.5873 37.2054 78.1055 40.0483 80.6307L32.2624 83.5778L33.6624 77.8329C33.7846 77.3319 33.4775 76.8268 32.9764 76.7046C32.4753 76.5825 31.9702 76.8895 31.848 77.3905L30.0271 84.8563C29.9043 85.3568 30.2107 85.8622 30.7114 85.9848C30.8951 86.0298 31.0879 86.0179 31.2647 85.951L65.7981 72.8859C65.8531 72.8591 65.905 72.8265 65.9531 72.7888C66.7005 72.6741 67.3933 72.3285 67.9346 71.8006C68.8594 70.8757 69.6555 68.9692 68.1892 65.1458Z" fill="#C99D2B"/>
<path d="M76.9936 62.7469C71.9481 60.859 66.4947 60.3297 61.18 61.2123L57.8452 61.7721C57.339 61.8693 57.0075 62.3583 57.1048 62.8643C57.1989 63.3531 57.6603 63.682 58.1532 63.6117L61.4871 63.0567C66.4783 62.2272 71.6001 62.7247 76.3384 64.4989C76.4435 64.5361 76.5544 64.5548 76.666 64.554C77.1814 64.5548 77.6 64.1379 77.6008 63.6226C77.6015 63.2325 77.3593 62.8833 76.9936 62.7469Z" fill="#C99D2B"/>
<path d="M80.3161 48.2786C80.0944 47.8134 79.5374 47.6159 79.0719 47.8374L59.4719 57.1654C59.0065 57.3868 58.8087 57.9433 59.0303 58.4086C59.0303 58.4087 59.0304 58.4088 59.0304 58.4088C59.2519 58.8739 59.8088 59.0715 60.2743 58.8501C60.2744 58.8501 60.2744 58.85 60.2745 58.85L79.8746 49.5221C80.3401 49.3005 80.5377 48.7439 80.3161 48.2786Z" fill="#C99D2B"/>
<path d="M52.6688 36.357C52.5662 35.8519 52.0735 35.5256 51.5683 35.6283C51.0631 35.7309 50.7368 36.2235 50.8395 36.7286C50.8417 36.7398 50.8443 36.7509 50.847 36.762C52.0283 42.0393 51.5415 47.5532 49.4535 52.5419L48.0964 55.7979C47.9003 56.2723 48.1242 56.8161 48.5976 57.0148C48.711 57.0625 48.8329 57.0869 48.956 57.0867C49.3327 57.0867 49.6725 56.8604 49.8175 56.5128L51.1755 53.2605C53.4126 47.9167 53.9344 42.0101 52.6688 36.357Z" fill="#C99D2B"/>
<path d="M81.3391 63.6206C79.7927 63.6206 78.5391 64.8736 78.5391 66.4193C78.5391 67.965 79.7927 69.218 81.3391 69.218C82.8855 69.218 84.1391 67.965 84.1391 66.4193C84.1391 64.8736 82.8855 63.6206 81.3391 63.6206ZM81.3391 67.3522C80.8236 67.3522 80.4057 66.9345 80.4057 66.4193C80.4057 65.9041 80.8236 65.4864 81.3391 65.4864C81.8545 65.4864 82.2724 65.9041 82.2724 66.4193C82.2724 66.9345 81.8545 67.3522 81.3391 67.3522Z" fill="#C99D2B"/>
<path d="M58.9387 37.4844C57.3923 37.4844 56.1387 38.7374 56.1387 40.2831C56.1387 41.8287 57.3923 43.0817 58.9387 43.0817C60.4851 43.0817 61.7387 41.8287 61.7387 40.2831C61.7387 38.7374 60.4851 37.4844 58.9387 37.4844ZM58.9387 41.2159C58.4232 41.2159 58.0053 40.7982 58.0053 40.2831C58.0053 39.7679 58.4232 39.3502 58.9387 39.3502C59.4541 39.3502 59.872 39.7679 59.872 40.2831C59.872 40.7982 59.4541 41.2159 58.9387 41.2159Z" fill="#C99D2B"/>
<path d="M50.5364 33.7559C51.5673 33.7559 52.403 32.9208 52.403 31.8907C52.403 30.8605 51.5673 30.0254 50.5364 30.0254C49.5054 30.0254 48.6697 30.8605 48.6697 31.8907C48.6697 32.9208 49.5054 33.7559 50.5364 33.7559Z" fill="#C99D2B"/>
<path d="M76.6677 34.6875C76.1523 34.6875 75.7344 35.105 75.7344 35.62V36.5525C75.7344 37.0674 76.1523 37.485 76.6677 37.485C77.1832 37.485 77.6011 37.0674 77.6011 36.5525V35.62C77.6011 35.105 77.1832 34.6875 76.6677 34.6875Z" fill="#C99D2B"/>
<path d="M76.6669 30.0254C76.1514 30.0254 75.7335 30.4429 75.7335 30.9579V31.8904C75.7335 32.4053 76.1514 32.8228 76.6669 32.8228C77.1823 32.8228 77.6002 32.4053 77.6002 31.8904V30.9579C77.6002 30.4429 77.1823 30.0254 76.6669 30.0254Z" fill="#C99D2B"/>
<path d="M79.469 32.8223H78.5357C78.0203 32.8223 77.6024 33.2397 77.6024 33.7546C77.6024 34.2695 78.0203 34.687 78.5357 34.687H79.469C79.9844 34.687 80.4023 34.2695 80.4023 33.7546C80.4023 33.2397 79.9844 32.8223 79.469 32.8223Z" fill="#C99D2B"/>
<path d="M74.8062 32.8223H73.8729C73.3575 32.8223 72.9396 33.2397 72.9396 33.7546C72.9396 34.2695 73.3575 34.687 73.8729 34.687H74.8062C75.3217 34.687 75.7396 34.2695 75.7396 33.7546C75.7396 33.2397 75.3217 32.8223 74.8062 32.8223Z" fill="#C99D2B"/>
<path d="M70.1333 40.2656H65.447C64.9316 40.2656 64.5137 40.6832 64.5137 41.1983V45.8813C64.5137 46.3964 64.9316 46.814 65.447 46.814H70.1333C70.6487 46.814 71.0666 46.3964 71.0666 45.8813V41.1983C71.0666 40.6832 70.6487 40.2656 70.1333 40.2656ZM69.2 44.9486H66.3803V42.131H69.2V44.9486Z" fill="#C99D2B"/>
<path d="M63.3343 48.0573C62.9916 47.6918 62.4214 47.6619 62.0424 47.9896L52.7091 56.3841C52.3262 56.7287 52.2953 57.3183 52.64 57.7011C52.9849 58.0837 53.5749 58.1146 53.9579 57.7701L63.2912 49.3757C63.6675 49.0234 63.6867 48.4333 63.3343 48.0573Z" fill="#C99D2B"/>
<path d="M80.3982 51.4888C79.8827 51.4888 79.4648 51.9062 79.4648 52.421V53.3532C79.4648 53.868 79.8827 54.2854 80.3982 54.2854C80.9136 54.2854 81.3315 53.868 81.3315 53.3532V52.421C81.3315 51.9062 80.9136 51.4888 80.3982 51.4888Z" fill="#C99D2B"/>
<path d="M84.3627 51.3273L83.7028 50.6681C83.332 50.3102 82.7412 50.3205 82.3831 50.6909C82.0338 51.0522 82.0338 51.6251 82.3831 51.9866L83.0429 52.6458C83.4137 53.0036 84.0045 52.9934 84.3627 52.623C84.7121 52.2615 84.7121 51.6886 84.3627 51.3273Z" fill="#C99D2B"/>
<path d="M85.0698 47.7485H84.1365C83.621 47.7485 83.2031 48.166 83.2031 48.6809C83.2031 49.1958 83.621 49.6132 84.1365 49.6132H85.0698C85.5852 49.6132 86.0031 49.1958 86.0031 48.6809C86.0031 48.166 85.5852 47.7485 85.0698 47.7485Z" fill="#C99D2B"/>
<path d="M84.3394 44.7228C83.9777 44.3737 83.4043 44.3737 83.0425 44.7228L82.3826 45.3824C82.0182 45.7468 82.0183 46.3374 82.3829 46.7017C82.5579 46.8765 82.7952 46.9748 83.0425 46.9748C83.2901 46.9748 83.5274 46.8764 83.7024 46.7015L84.3622 46.0419C84.7204 45.6713 84.7101 45.0807 84.3394 44.7228Z" fill="#C99D2B"/>
<path d="M80.3982 43.082C79.8827 43.082 79.4648 43.4997 79.4648 44.0148V44.9475C79.4648 45.4626 79.8827 45.8803 80.3982 45.8803C80.9136 45.8803 81.3315 45.4626 81.3315 44.9475V44.0148C81.3315 43.4997 80.9136 43.082 80.3982 43.082Z" fill="#C99D2B"/>
<path d="M78.4252 45.3825L77.7653 44.7229C77.3945 44.3649 76.8037 44.3751 76.4456 44.7457C76.0963 45.1073 76.0963 45.6805 76.4456 46.0422L77.1054 46.7019C77.4762 47.06 78.067 47.0497 78.4252 46.679C78.7746 46.3174 78.7746 45.7441 78.4252 45.3825Z" fill="#C99D2B"/>
<path d="M41.1555 34.06C41.0456 33.7227 40.7536 33.4769 40.4023 33.4258L37.663 33.0276L36.4412 30.5477C36.1689 30.0857 35.5733 29.9317 35.111 30.2038C34.9689 30.2874 34.8505 30.4057 34.7668 30.5477L33.5395 33.0276L30.8001 33.4258C30.2899 33.4994 29.9361 33.9724 30.0097 34.4822C30.039 34.6852 30.1344 34.8727 30.2812 35.016L32.2627 36.9466L31.796 39.6727C31.7064 40.18 32.0452 40.6638 32.5528 40.7533C32.7572 40.7893 32.9677 40.7564 33.1512 40.6595L35.6012 39.3687L38.0512 40.6557C38.5075 40.8954 39.0718 40.7202 39.3117 40.2643C39.4072 40.0827 39.4401 39.8749 39.4055 39.6727L38.9388 36.9466L40.9212 35.016C41.175 34.7678 41.2658 34.3973 41.1555 34.06ZM37.2812 35.9533C37.0614 36.1673 36.961 36.4755 37.0124 36.7778L37.2439 38.1255L36.0352 37.4885C35.7635 37.3459 35.4389 37.3459 35.1672 37.4885L33.9539 38.1245L34.1853 36.7769C34.2377 36.4757 34.139 36.168 33.9212 35.9533L32.9403 34.9992L34.2945 34.8024C34.5986 34.7584 34.8614 34.5675 34.9973 34.2923L35.6012 33.0677L36.206 34.2923C36.3418 34.5673 36.6042 34.758 36.9079 34.8024L38.2612 34.9992L37.2812 35.9533Z" fill="#C99D2B"/>
<path d="M82.8525 76.8006H82.8488L82.4643 76.2241C80.3082 73.0015 76.9177 70.8103 73.0926 70.1672C72.5823 70.0944 72.1096 70.4489 72.0368 70.9589C71.9665 71.4517 72.2956 71.9129 72.7846 72.0067C75.5436 72.4748 78.0579 73.8757 79.9069 75.975C78.3523 76.2545 76.9927 77.1877 76.1736 78.5375C75.1684 80.3368 75.813 82.6098 77.6133 83.6145C79.4136 84.6191 81.6877 83.9749 82.693 82.1756C83.0769 81.4348 83.2842 80.6152 83.2987 79.781C84.2918 81.2226 84.3712 83.1051 83.5031 84.6252C83.2401 85.0683 83.3863 85.6406 83.8296 85.9034C84.273 86.1662 84.8456 86.0201 85.1085 85.577C85.1169 85.5628 85.125 85.5485 85.1327 85.5338C86.8416 82.4829 85.835 78.6279 82.8525 76.8006ZM81.0652 81.2651C80.567 82.1673 79.4315 82.4949 78.529 81.997C77.6264 81.4991 77.2985 80.3642 77.7967 79.4622C77.7995 79.4572 77.8023 79.452 77.8051 79.447C78.3558 78.5457 79.2849 77.9414 80.3325 77.8034C80.4948 77.7989 80.6555 77.8362 80.7992 77.9116C81.5869 78.3509 81.6289 80.2558 81.0652 81.2651Z" fill="#C99D2B"/>
</svg>
