<svg width="72" height="65" viewBox="0 0 72 65" fill="none" xmlns="http://www.w3.org/2000/svg">
<path d="M46.8768 60.3047H69.829C70.9773 60.3047 71.9082 61.2356 71.9082 62.3839C71.9082 63.5322 70.9773 64.4631 69.829 64.4631H46.8768C45.7285 64.4631 44.7976 63.5322 44.7976 62.3839C44.7976 61.2355 45.7285 60.3047 46.8768 60.3047Z" fill="white"/>
<path d="M69.829 56.1467H55.1937C54.0454 56.1467 53.1144 55.2158 53.1144 54.0675C53.1144 52.9192 54.0454 51.9883 55.1937 51.9883H69.829C70.9773 51.9883 71.9082 52.9192 71.9082 54.0675C71.9082 55.2158 70.9773 56.1467 69.829 56.1467Z" fill="white"/>
<path d="M69.829 47.8295H63.5105C62.3622 47.8295 61.4313 46.8985 61.4313 45.7502C61.4313 44.602 62.3622 43.671 63.5105 43.671H69.829C70.9773 43.671 71.9082 44.602 71.9082 45.7502C71.9082 46.8985 70.9773 47.8295 69.829 47.8295Z" fill="white"/>
<path d="M0.937729 51.9875C0.937454 50.2461 0.93745 49.9616 0.93745 49.9084C0.93745 47.1314 2.01878 44.5206 3.98225 42.5571C5.94573 40.5935 8.55653 39.5122 11.3334 39.5122C12.6665 39.5122 13.8361 39.4225 14.8679 39.2653V45.0415C14.8679 46.1898 15.7989 47.1207 16.9471 47.1207C18.0954 47.1207 19.0264 46.1898 19.0264 45.0415V37.9999C19.4613 37.7797 19.8515 37.5453 20.2046 37.3035L24.7051 41.804C25.1111 42.21 25.6433 42.413 26.1753 42.413C26.7074 42.413 27.2395 42.21 27.6455 41.804C28.4575 40.9922 28.4575 39.6756 27.6455 38.8636L22.8168 34.0347C23.1669 32.6487 23.0688 31.0146 22.8676 29.7512C27.1081 29.7198 31.3952 29.0645 34.1643 26.2954C35.7656 24.6943 36.0471 23.0488 36.2956 21.597C36.6088 19.768 36.9618 17.7212 40.5518 14.4382L52.9582 26.8448L27.9348 51.9878H0.937729V51.9875Z" fill="white"/>
<path d="M0.93943 56.1463H28.7998C29.353 56.1463 29.8834 55.9259 30.2736 55.5339L56.3913 29.2914L58.2866 30.3299C58.4595 30.4247 58.6183 30.5436 58.7576 30.6831C61.1897 33.1151 61.1897 37.0724 58.7576 39.5045L36.844 61.4182C34.8807 63.3817 32.2699 64.463 29.4929 64.4633H7.17583C3.78962 64.4633 0.994461 61.7115 0.940262 58.3314C0.939152 58.2982 0.93832 58.265 0.938179 58.2256C0.938179 58.1958 0.93943 56.1463 0.93943 56.1463Z" fill="white"/>
<path d="M32.1968 20.8955C31.9784 22.1715 31.8642 22.7147 31.2238 23.3552C28.9947 25.5841 24.463 25.7132 20.3236 25.5452H19.5085L11.1107 17.1472C10.7208 16.7573 10.5016 16.2285 10.5016 15.6771C10.5016 15.1255 10.7208 14.5969 11.1107 14.2069L24.2454 1.07226C25.0572 0.260256 26.3738 0.260256 27.1858 1.07226L37.6097 11.4962C33.0876 15.6928 32.5793 18.6619 32.1968 20.8955Z" fill="white"/>
</svg>
