<svg width="140" height="65" viewBox="0 0 140 65" fill="none" xmlns="http://www.w3.org/2000/svg">
<path d="M14.9375 14.4634C18.8035 14.4634 21.9375 11.3294 21.9375 7.46337C21.9375 3.59738 18.8035 0.463379 14.9375 0.463379C11.0715 0.463379 7.9375 3.59738 7.9375 7.46337C7.9375 11.3294 11.0715 14.4634 14.9375 14.4634Z" fill="white"/>
<path d="M20.9375 16.4634H8.93749C6.81769 16.4696 4.7865 17.3145 3.28756 18.8134C1.78863 20.3124 0.943765 22.3436 0.9375 24.4634V37.9034C0.9375 39.2596 1.99125 40.4134 3.34625 40.4621C3.68204 40.4744 4.01687 40.4188 4.33071 40.2988C4.64455 40.1787 4.93097 39.9966 5.17285 39.7634C5.41473 39.5301 5.60711 39.2505 5.73849 38.9412C5.86987 38.632 5.93755 38.2994 5.93749 37.9634V25.4971C5.93432 25.2391 6.02878 24.9895 6.20196 24.7982C6.37513 24.607 6.61421 24.4882 6.87124 24.4659C7.00803 24.4568 7.14522 24.4759 7.2743 24.5221C7.40338 24.5683 7.52159 24.6405 7.62158 24.7343C7.72157 24.828 7.80121 24.9414 7.85556 25.0672C7.9099 25.1931 7.93779 25.3288 7.93749 25.4659V61.5883C7.93749 62.3508 8.24039 63.0821 8.77956 63.6213C9.31873 64.1604 10.05 64.4633 10.8125 64.4633C11.575 64.4633 12.3063 64.1604 12.8454 63.6213C13.3846 63.0821 13.6875 62.3508 13.6875 61.5883V43.7558C13.6831 43.433 13.8008 43.1205 14.017 42.8808C14.2333 42.6411 14.5322 42.492 14.8537 42.4634C15.0248 42.4519 15.1964 42.4757 15.3578 42.5333C15.5193 42.591 15.6672 42.6812 15.7923 42.7985C15.9174 42.9157 16.017 43.0574 16.085 43.2148C16.153 43.3722 16.1879 43.5419 16.1875 43.7133V61.5883C16.1875 62.3508 16.4904 63.0821 17.0296 63.6213C17.5687 64.1604 18.3 64.4633 19.0625 64.4633C19.825 64.4633 20.5562 64.1604 21.0954 63.6213C21.6346 63.0821 21.9375 62.3508 21.9375 61.5883V25.4971C21.9343 25.2391 22.0288 24.9895 22.2019 24.7982C22.3751 24.607 22.6142 24.4882 22.8712 24.4659C23.008 24.4568 23.1452 24.4759 23.2743 24.5221C23.4034 24.5683 23.5216 24.6405 23.6216 24.7343C23.7216 24.828 23.8012 24.9414 23.8555 25.0672C23.9099 25.1931 23.9378 25.3288 23.9375 25.4659V37.9059C23.9375 39.2621 24.9912 40.4159 26.3462 40.4646C26.6822 40.4769 27.0173 40.4212 27.3313 40.301C27.6453 40.1808 27.9318 39.9985 28.1737 39.765C28.4156 39.5315 28.608 39.2516 28.7392 38.942C28.8704 38.6324 28.9379 38.2996 28.9375 37.9634V24.4634C28.9312 22.3436 28.0863 20.3124 26.5874 18.8134C25.0885 17.3145 23.0573 16.4696 20.9375 16.4634Z" fill="white"/>
<path d="M55.7366 14.4632C59.6026 14.4632 62.7366 11.3292 62.7366 7.46325C62.7366 3.59726 59.6026 0.463257 55.7366 0.463257C51.8706 0.463257 48.7366 3.59726 48.7366 7.46325C48.7366 11.3292 51.8706 14.4632 55.7366 14.4632Z" fill="white"/>
<path d="M61.7366 16.4633H49.7366C47.6168 16.4695 45.5856 17.3144 44.0867 18.8133C42.5878 20.3123 41.7429 22.3434 41.7366 24.4632V37.9032C41.7366 39.2595 42.7904 40.4132 44.1454 40.462C44.4812 40.4742 44.816 40.4187 45.1298 40.2986C45.4437 40.1786 45.7301 39.9965 45.972 39.7632C46.2139 39.53 46.4062 39.2504 46.5376 38.9411C46.669 38.6318 46.7367 38.2993 46.7366 37.9632V25.497C46.7334 25.239 46.8279 24.9894 47.0011 24.7981C47.1743 24.6068 47.4133 24.4881 47.6704 24.4657C47.8072 24.4567 47.9444 24.4758 48.0734 24.522C48.2025 24.5681 48.3207 24.6404 48.4207 24.7341C48.5207 24.8279 48.6003 24.9413 48.6547 25.0671C48.709 25.193 48.7369 25.3287 48.7366 25.4657V61.5882C48.7366 62.3507 49.0395 63.082 49.5787 63.6211C50.1179 64.1603 50.8491 64.4632 51.6116 64.4632C52.3741 64.4632 53.1054 64.1603 53.6446 63.6211C54.1837 63.082 54.4866 62.3507 54.4866 61.5882V43.7557C54.4822 43.4329 54.5999 43.1204 54.8162 42.8807C55.0325 42.641 55.3313 42.4919 55.6529 42.4632C55.8239 42.4517 55.9955 42.4756 56.157 42.5332C56.3184 42.5909 56.4663 42.6811 56.5914 42.7984C56.7165 42.9156 56.8161 43.0573 56.8841 43.2147C56.9521 43.3721 56.987 43.5418 56.9866 43.7132V61.5882C56.9866 62.3507 57.2895 63.082 57.8287 63.6211C58.3679 64.1603 59.0991 64.4632 59.8616 64.4632C60.6241 64.4632 61.3554 64.1603 61.8945 63.6211C62.4337 63.082 62.7366 62.3507 62.7366 61.5882V25.497C62.7334 25.239 62.8279 24.9894 63.0011 24.7981C63.1742 24.6068 63.4133 24.4881 63.6704 24.4657C63.8071 24.4567 63.9443 24.4758 64.0734 24.522C64.2025 24.5681 64.3207 24.6404 64.4207 24.7341C64.5207 24.8279 64.6003 24.9413 64.6547 25.0671C64.709 25.193 64.7369 25.3287 64.7366 25.4657V37.9057C64.7366 39.262 65.7904 40.4157 67.1454 40.4645C67.4814 40.4768 67.8164 40.4211 68.1304 40.3009C68.4444 40.1807 68.7309 39.9984 68.9729 39.7649C69.2148 39.5314 69.4071 39.2514 69.5383 38.9419C69.6696 38.6323 69.737 38.2995 69.7366 37.9632V24.4632C69.7303 22.3434 68.8855 20.3123 67.3865 18.8133C65.8876 17.3144 63.8564 16.4695 61.7366 16.4633Z" fill="white"/>
<path d="M78.9365 14.4632C82.8025 14.4632 85.9365 11.3292 85.9365 7.46325C85.9365 3.59726 82.8025 0.463257 78.9365 0.463257C75.0705 0.463257 71.9365 3.59726 71.9365 7.46325C71.9365 11.3292 75.0705 14.4632 78.9365 14.4632Z" fill="white"/>
<path d="M84.9365 16.4633H72.9365C70.8167 16.4695 68.7855 17.3144 67.2866 18.8133C65.7877 20.3123 64.9428 22.3434 64.9365 24.4632V37.9032C64.9365 39.2595 65.9903 40.4132 67.3453 40.462C67.6811 40.4742 68.0159 40.4187 68.3297 40.2986C68.6436 40.1786 68.93 39.9965 69.1719 39.7632C69.4138 39.53 69.6061 39.2504 69.7375 38.9411C69.8689 38.6318 69.9366 38.2993 69.9365 37.9632V25.497C69.9333 25.239 70.0278 24.9894 70.201 24.7981C70.3742 24.6068 70.6132 24.4881 70.8703 24.4657C71.0071 24.4567 71.1442 24.4758 71.2733 24.522C71.4024 24.5681 71.5206 24.6404 71.6206 24.7341C71.7206 24.8279 71.8002 24.9413 71.8546 25.0671C71.9089 25.193 71.9368 25.3287 71.9365 25.4657V61.5882C71.9365 62.3507 72.2394 63.082 72.7786 63.6211C73.3177 64.1603 74.049 64.4632 74.8115 64.4632C75.574 64.4632 76.3053 64.1603 76.8444 63.6211C77.3836 63.082 77.6865 62.3507 77.6865 61.5882V43.7557C77.6821 43.4329 77.7998 43.1204 78.0161 42.8807C78.2323 42.641 78.5312 42.4919 78.8528 42.4632C79.0238 42.4517 79.1954 42.4756 79.3569 42.5332C79.5183 42.5909 79.6662 42.6811 79.7913 42.7984C79.9164 42.9156 80.016 43.0573 80.084 43.2147C80.152 43.3721 80.1869 43.5418 80.1865 43.7132V61.5882C80.1865 62.3507 80.4894 63.082 81.0286 63.6211C81.5677 64.1603 82.299 64.4632 83.0615 64.4632C83.824 64.4632 84.5553 64.1603 85.0944 63.6211C85.6336 63.082 85.9365 62.3507 85.9365 61.5882V25.497C85.9333 25.239 86.0278 24.9894 86.201 24.7981C86.3741 24.6068 86.6132 24.4881 86.8703 24.4657C87.007 24.4567 87.1442 24.4758 87.2733 24.522C87.4024 24.5681 87.5206 24.6404 87.6206 24.7341C87.7206 24.8279 87.8002 24.9413 87.8546 25.0671C87.9089 25.193 87.9368 25.3287 87.9365 25.4657V37.9057C87.9365 39.262 88.9902 40.4157 90.3452 40.4645C90.6813 40.4768 91.0163 40.4211 91.3303 40.3009C91.6443 40.1807 91.9308 39.9984 92.1728 39.7649C92.4147 39.5314 92.607 39.2514 92.7382 38.9419C92.8695 38.6323 92.9369 38.2995 92.9365 37.9632V24.4632C92.9302 22.3434 92.0854 20.3123 90.5864 18.8133C89.0875 17.3144 87.0563 16.4695 84.9365 16.4633Z" fill="white"/>
<path d="M102.137 14.4632C106.003 14.4632 109.137 11.3292 109.137 7.46325C109.137 3.59726 106.003 0.463257 102.137 0.463257C98.2713 0.463257 95.1373 3.59726 95.1373 7.46325C95.1373 11.3292 98.2713 14.4632 102.137 14.4632Z" fill="white"/>
<path d="M108.137 16.4633H96.1373C94.0175 16.4695 91.9863 17.3144 90.4873 18.8133C88.9884 20.3123 88.1435 22.3434 88.1373 24.4632V37.9032C88.1373 39.2595 89.191 40.4132 90.546 40.462C90.8818 40.4742 91.2166 40.4187 91.5305 40.2986C91.8443 40.1786 92.1307 39.9965 92.3726 39.7632C92.6145 39.53 92.8069 39.2504 92.9383 38.9411C93.0696 38.6318 93.1373 38.2993 93.1373 37.9632V25.497C93.1341 25.239 93.2286 24.9894 93.4017 24.7981C93.5749 24.6068 93.814 24.4881 94.071 24.4657C94.2078 24.4567 94.345 24.4758 94.4741 24.522C94.6031 24.5681 94.7214 24.6404 94.8213 24.7341C94.9213 24.8279 95.001 24.9413 95.0553 25.0671C95.1097 25.193 95.1376 25.3287 95.1373 25.4657V61.5882C95.1373 62.3507 95.4402 63.082 95.9793 63.6211C96.5185 64.1603 97.2498 64.4632 98.0123 64.4632C98.7748 64.4632 99.506 64.1603 100.045 63.6211C100.584 63.082 100.887 62.3507 100.887 61.5882V43.7557C100.883 43.4329 101.001 43.1204 101.217 42.8807C101.433 42.641 101.732 42.4919 102.054 42.4632C102.225 42.4517 102.396 42.4756 102.558 42.5332C102.719 42.5909 102.867 42.6811 102.992 42.7984C103.117 42.9156 103.217 43.0573 103.285 43.2147C103.353 43.3721 103.388 43.5418 103.387 43.7132V61.5882C103.387 62.3507 103.69 63.082 104.229 63.6211C104.768 64.1603 105.5 64.4632 106.262 64.4632C107.025 64.4632 107.756 64.1603 108.295 63.6211C108.834 63.082 109.137 62.3507 109.137 61.5882V25.497C109.134 25.239 109.229 24.9894 109.402 24.7981C109.575 24.6068 109.814 24.4881 110.071 24.4657C110.208 24.4567 110.345 24.4758 110.474 24.522C110.603 24.5681 110.721 24.6404 110.821 24.7341C110.921 24.8279 111.001 24.9413 111.055 25.0671C111.11 25.193 111.138 25.3287 111.137 25.4657V37.9057C111.137 39.262 112.191 40.4157 113.546 40.4645C113.882 40.4768 114.217 40.4211 114.531 40.3009C114.845 40.1807 115.132 39.9984 115.373 39.7649C115.615 39.5314 115.808 39.2514 115.939 38.9419C116.07 38.6323 116.138 38.2995 116.137 37.9632V24.4632C116.131 22.3434 115.286 20.3123 113.787 18.8133C112.288 17.3144 110.257 16.4695 108.137 16.4633Z" fill="white"/>
<path d="M125.336 14.4632C129.202 14.4632 132.336 11.3292 132.336 7.46325C132.336 3.59726 129.202 0.463257 125.336 0.463257C121.47 0.463257 118.336 3.59726 118.336 7.46325C118.336 11.3292 121.47 14.4632 125.336 14.4632Z" fill="white"/>
<path d="M131.336 16.4633H119.336C117.216 16.4695 115.185 17.3144 113.686 18.8133C112.187 20.3123 111.342 22.3434 111.336 24.4632V37.9032C111.336 39.2595 112.39 40.4132 113.745 40.462C114.081 40.4742 114.415 40.4187 114.729 40.2986C115.043 40.1786 115.33 39.9965 115.571 39.7632C115.813 39.53 116.006 39.2504 116.137 38.9411C116.268 38.6318 116.336 38.2993 116.336 37.9632V25.497C116.333 25.239 116.427 24.9894 116.601 24.7981C116.774 24.6068 117.013 24.4881 117.27 24.4657C117.407 24.4567 117.544 24.4758 117.673 24.522C117.802 24.5681 117.92 24.6404 118.02 24.7341C118.12 24.8279 118.2 24.9413 118.254 25.0671C118.308 25.193 118.336 25.3287 118.336 25.4657V61.5882C118.336 62.3507 118.639 63.082 119.178 63.6211C119.717 64.1603 120.449 64.4632 121.211 64.4632C121.974 64.4632 122.705 64.1603 123.244 63.6211C123.783 63.082 124.086 62.3507 124.086 61.5882V43.7557C124.082 43.4329 124.199 43.1204 124.416 42.8807C124.632 42.641 124.931 42.4919 125.252 42.4632C125.423 42.4517 125.595 42.4756 125.756 42.5332C125.918 42.5909 126.066 42.6811 126.191 42.7984C126.316 42.9156 126.416 43.0573 126.484 43.2147C126.552 43.3721 126.586 43.5418 126.586 43.7132V61.5882C126.586 62.3507 126.889 63.082 127.428 63.6211C127.967 64.1603 128.699 64.4632 129.461 64.4632C130.224 64.4632 130.955 64.1603 131.494 63.6211C132.033 63.082 132.336 62.3507 132.336 61.5882V25.497C132.333 25.239 132.427 24.9894 132.601 24.7981C132.774 24.6068 133.013 24.4881 133.27 24.4657C133.407 24.4567 133.544 24.4758 133.673 24.522C133.802 24.5681 133.92 24.6404 134.02 24.7341C134.12 24.8279 134.2 24.9413 134.254 25.0671C134.308 25.193 134.336 25.3287 134.336 25.4657V37.9057C134.336 39.262 135.39 40.4157 136.745 40.4645C137.081 40.4768 137.416 40.4211 137.73 40.3009C138.044 40.1807 138.33 39.9984 138.572 39.7649C138.814 39.5314 139.007 39.2514 139.138 38.9419C139.269 38.6323 139.336 38.2995 139.336 37.9632V24.4632C139.33 22.3434 138.485 20.3123 136.986 18.8133C135.487 17.3144 133.456 16.4695 131.336 16.4633Z" fill="white"/>
</svg>
