<svg width="46" height="65" viewBox="0 0 46 65" fill="none" xmlns="http://www.w3.org/2000/svg">
<path d="M23.2972 0.463379C15.5915 0.463379 9.32239 7.64098 9.32239 16.4634V26.0634H6.52743C5.04489 26.0634 3.62307 26.7377 2.57475 27.9379C1.52644 29.1381 0.9375 30.766 0.9375 32.4634V58.0634C0.9375 59.7608 1.52644 61.3886 2.57475 62.5889C3.62307 63.7891 5.04489 64.4634 6.52743 64.4634H40.067C41.5495 64.4634 42.9714 63.7891 44.0197 62.5889C45.068 61.3886 45.6569 59.7608 45.6569 58.0634V32.4634C45.6569 30.766 45.068 29.1381 44.0197 27.9379C42.9714 26.7377 41.5495 26.0634 40.067 26.0634H37.272V16.4634C37.272 7.64098 31.0029 0.463379 23.2972 0.463379ZM14.9123 16.4634C14.9123 11.1706 18.6743 6.86338 23.2972 6.86338C27.9201 6.86338 31.6821 11.1706 31.6821 16.4634V26.0634H14.9123V16.4634ZM26.0922 50.777V58.0634H20.5023V50.777C19.5251 50.1363 18.7405 49.1716 18.2518 48.0101C17.7632 46.8486 17.5935 45.5448 17.7651 44.2706C17.9367 42.9965 18.4416 41.8118 19.2131 40.8728C19.9847 39.9337 20.9867 39.2845 22.087 39.0106C22.9043 38.8037 23.7517 38.8095 24.5668 39.0275C25.3819 39.2455 26.1438 39.6702 26.7965 40.2703C27.4491 40.8704 27.9757 41.6306 28.3376 42.4947C28.6994 43.3589 28.8872 44.305 28.8871 45.2634C28.8855 46.3826 28.6263 47.4815 28.1357 48.4494C27.645 49.4174 26.9401 50.2202 26.0922 50.777Z" fill="white"/>
</svg>
