<svg width="73" height="65" viewBox="0 0 73 65" fill="none" xmlns="http://www.w3.org/2000/svg">
<path d="M36.6518 0.463379C28.0221 0.463379 21.0268 7.51463 21.0268 16.2134C21.0268 23.2459 31.2388 36.0634 35.1513 40.7159C35.9437 41.6584 37.3611 41.6584 38.1523 40.7159C42.0647 36.0634 52.2768 23.2459 52.2768 16.2134C52.2768 7.51463 45.2815 0.463379 36.6518 0.463379ZM36.6518 21.4634C33.7748 21.4634 31.4435 19.1134 31.4435 16.2134C31.4435 13.3134 33.7748 10.9634 36.6518 10.9634C39.5288 10.9634 41.8601 13.3134 41.8601 16.2134C41.8601 19.1134 39.5288 21.4634 36.6518 21.4634ZM3.43254 27.4571C2.69615 27.754 2.06489 28.2665 1.62018 28.9284C1.17546 29.5904 0.937676 30.3714 0.9375 31.1709L0.9375 62.4609C0.9375 63.8759 2.35491 64.8434 3.65823 64.3184L20.7788 56.4634V27.3284C19.6825 25.3309 18.786 23.3859 18.1436 21.5259L3.43254 27.4571ZM36.6518 45.4221C34.907 45.4221 33.2565 44.6496 32.1243 43.3021C29.6863 40.4021 27.0933 37.0996 24.747 33.7121V56.4621L48.5565 64.4621V33.7134C46.2103 37.0996 43.6186 40.4034 41.1793 43.3034C40.0471 44.6496 38.3966 45.4221 36.6518 45.4221ZM69.6453 20.6084L52.5248 28.4634V64.4634L69.871 57.4696C70.6075 57.1729 71.2389 56.6605 71.6836 55.9985C72.1284 55.3365 72.3661 54.5554 72.3661 53.7559V22.4659C72.3661 21.0509 70.9487 20.0834 69.6453 20.6084Z" fill="white"/>
</svg>
