<svg width="79" height="130" viewBox="0 0 79 130" fill="none" xmlns="http://www.w3.org/2000/svg">
<path d="M15.7887 83.3925V85.2005H11.1327V88.0645H14.7007V89.8405H11.1327V94.5605H8.89269V83.3925H15.7887ZM21.3131 94.7045C20.4597 94.7045 19.6917 94.5179 19.0091 94.1445C18.3264 93.7605 17.7877 93.2219 17.3931 92.5285C17.0091 91.8352 16.8171 91.0352 16.8171 90.1285C16.8171 89.2219 17.0144 88.4219 17.4091 87.7285C17.8144 87.0352 18.3637 86.5019 19.0571 86.1285C19.7504 85.7445 20.5237 85.5525 21.3771 85.5525C22.2304 85.5525 23.0037 85.7445 23.6971 86.1285C24.3904 86.5019 24.9344 87.0352 25.3291 87.7285C25.7344 88.4219 25.9371 89.2219 25.9371 90.1285C25.9371 91.0352 25.7291 91.8352 25.3131 92.5285C24.9077 93.2219 24.3531 93.7605 23.6491 94.1445C22.9557 94.5179 22.1771 94.7045 21.3131 94.7045ZM21.3131 92.7525C21.7184 92.7525 22.0971 92.6565 22.4491 92.4645C22.8117 92.2619 23.0997 91.9632 23.3131 91.5685C23.5264 91.1739 23.6331 90.6939 23.6331 90.1285C23.6331 89.2859 23.4091 88.6405 22.9611 88.1925C22.5237 87.7339 21.9851 87.5045 21.3451 87.5045C20.7051 87.5045 20.1664 87.7339 19.7291 88.1925C19.3024 88.6405 19.0891 89.2859 19.0891 90.1285C19.0891 90.9712 19.2971 91.6219 19.7131 92.0805C20.1397 92.5285 20.6731 92.7525 21.3131 92.7525ZM29.8202 87.0725C30.1082 86.6032 30.4815 86.2352 30.9402 85.9685C31.4095 85.7019 31.9429 85.5685 32.5402 85.5685V87.9205H31.9482C31.2442 87.9205 30.7109 88.0859 30.3482 88.4165C29.9962 88.7472 29.8202 89.3232 29.8202 90.1445V94.5605H27.5802V85.6965H29.8202V87.0725ZM42.2889 89.9365C42.2889 90.2565 42.2676 90.5445 42.2249 90.8005H35.7449C35.7983 91.4405 36.0223 91.9419 36.4169 92.3045C36.8116 92.6672 37.2969 92.8485 37.8729 92.8485C38.7049 92.8485 39.2969 92.4912 39.6489 91.7765H42.0649C41.8089 92.6299 41.3183 93.3339 40.5929 93.8885C39.8676 94.4325 38.9769 94.7045 37.9209 94.7045C37.0676 94.7045 36.2996 94.5179 35.6169 94.1445C34.9449 93.7605 34.4169 93.2219 34.0329 92.5285C33.6596 91.8352 33.4729 91.0352 33.4729 90.1285C33.4729 89.2112 33.6596 88.4059 34.0329 87.7125C34.4063 87.0192 34.9289 86.4859 35.6009 86.1125C36.2729 85.7392 37.0463 85.5525 37.9209 85.5525C38.7636 85.5525 39.5156 85.7339 40.1769 86.0965C40.8489 86.4592 41.3663 86.9765 41.7289 87.6485C42.1023 88.3099 42.2889 89.0725 42.2889 89.9365ZM39.9689 89.2965C39.9583 88.7205 39.7503 88.2619 39.3449 87.9205C38.9396 87.5685 38.4436 87.3925 37.8569 87.3925C37.3023 87.3925 36.8329 87.5632 36.4489 87.9045C36.0756 88.2352 35.8463 88.6992 35.7609 89.2965H39.9689ZM47.3959 85.5525C48.0573 85.5525 48.6386 85.6859 49.1399 85.9525C49.6413 86.2085 50.0359 86.5445 50.3239 86.9605V85.6965H52.5799V94.6245C52.5799 95.4459 52.4146 96.1765 52.0839 96.8165C51.7533 97.4672 51.2573 97.9792 50.5959 98.3525C49.9346 98.7365 49.1346 98.9285 48.1959 98.9285C46.9373 98.9285 45.9026 98.6352 45.0919 98.0485C44.2919 97.4619 43.8386 96.6619 43.7319 95.6485H45.9559C46.0733 96.0539 46.3239 96.3739 46.7079 96.6085C47.1026 96.8539 47.5773 96.9765 48.1319 96.9765C48.7826 96.9765 49.3106 96.7792 49.7159 96.3845C50.1213 96.0005 50.3239 95.4139 50.3239 94.6245V93.2485C50.0359 93.6645 49.6359 94.0112 49.1239 94.2885C48.6226 94.5659 48.0466 94.7045 47.3959 94.7045C46.6493 94.7045 45.9666 94.5125 45.3479 94.1285C44.7293 93.7445 44.2386 93.2059 43.8759 92.5125C43.5239 91.8085 43.3479 91.0032 43.3479 90.0965C43.3479 89.2005 43.5239 88.4059 43.8759 87.7125C44.2386 87.0192 44.7239 86.4859 45.3319 86.1125C45.9506 85.7392 46.6386 85.5525 47.3959 85.5525ZM50.3239 90.1285C50.3239 89.5845 50.2173 89.1205 50.0039 88.7365C49.7906 88.3419 49.5026 88.0432 49.1399 87.8405C48.7773 87.6272 48.3879 87.5205 47.9719 87.5205C47.5559 87.5205 47.1719 87.6219 46.8199 87.8245C46.4679 88.0272 46.1799 88.3259 45.9559 88.7205C45.7426 89.1045 45.6359 89.5632 45.6359 90.0965C45.6359 90.6299 45.7426 91.0992 45.9559 91.5045C46.1799 91.8992 46.4679 92.2032 46.8199 92.4165C47.1826 92.6299 47.5666 92.7365 47.9719 92.7365C48.3879 92.7365 48.7773 92.6352 49.1399 92.4325C49.5026 92.2192 49.7906 91.9205 50.0039 91.5365C50.2173 91.1419 50.3239 90.6725 50.3239 90.1285ZM54.1917 90.0965C54.1917 89.2005 54.3677 88.4059 54.7197 87.7125C55.0824 87.0192 55.5677 86.4859 56.1757 86.1125C56.7944 85.7392 57.4824 85.5525 58.2397 85.5525C58.901 85.5525 59.477 85.6859 59.9677 85.9525C60.469 86.2192 60.869 86.5552 61.1677 86.9605V85.6965H63.4237V94.5605H61.1677V93.2645C60.8797 93.6805 60.4797 94.0272 59.9677 94.3045C59.4664 94.5712 58.885 94.7045 58.2237 94.7045C57.477 94.7045 56.7944 94.5125 56.1757 94.1285C55.5677 93.7445 55.0824 93.2059 54.7197 92.5125C54.3677 91.8085 54.1917 91.0032 54.1917 90.0965ZM61.1677 90.1285C61.1677 89.5845 61.061 89.1205 60.8477 88.7365C60.6344 88.3419 60.3464 88.0432 59.9837 87.8405C59.621 87.6272 59.2317 87.5205 58.8157 87.5205C58.3997 87.5205 58.0157 87.6219 57.6637 87.8245C57.3117 88.0272 57.0237 88.3259 56.7997 88.7205C56.5864 89.1045 56.4797 89.5632 56.4797 90.0965C56.4797 90.6299 56.5864 91.0992 56.7997 91.5045C57.0237 91.8992 57.3117 92.2032 57.6637 92.4165C58.0264 92.6299 58.4104 92.7365 58.8157 92.7365C59.2317 92.7365 59.621 92.6352 59.9837 92.4325C60.3464 92.2192 60.6344 91.9205 60.8477 91.5365C61.061 91.1419 61.1677 90.6725 61.1677 90.1285ZM60.9917 83.0885C60.9917 83.6432 60.8104 84.0912 60.4477 84.4325C60.0957 84.7632 59.653 84.9285 59.1197 84.9285C58.597 84.9285 58.1544 84.7632 57.7917 84.4325C57.429 84.0912 57.2477 83.6432 57.2477 83.0885C57.2477 82.5339 57.429 82.0912 57.7917 81.7605C58.1544 81.4192 58.597 81.2485 59.1197 81.2485C59.653 81.2485 60.0957 81.4192 60.4477 81.7605C60.8104 82.0912 60.9917 82.5339 60.9917 83.0885ZM59.8877 83.0885C59.8877 82.8432 59.813 82.6512 59.6637 82.5125C59.5144 82.3632 59.333 82.2885 59.1197 82.2885C58.9064 82.2885 58.725 82.3632 58.5757 82.5125C58.4264 82.6512 58.3517 82.8432 58.3517 83.0885C58.3517 83.3125 58.4264 83.5045 58.5757 83.6645C58.725 83.8139 58.9064 83.8885 59.1197 83.8885C59.333 83.8885 59.5144 83.8139 59.6637 83.6645C59.813 83.5045 59.8877 83.3125 59.8877 83.0885ZM67.8514 87.0725C68.1394 86.6032 68.5128 86.2352 68.9714 85.9685C69.4408 85.7019 69.9741 85.5685 70.5714 85.5685V87.9205H69.9794C69.2754 87.9205 68.7421 88.0859 68.3794 88.4165C68.0274 88.7472 67.8514 89.3232 67.8514 90.1445V94.5605H65.6114V85.6965H67.8514V87.0725ZM9.831 112.697V121.561H7.575V120.441C7.287 120.825 6.90833 121.129 6.439 121.353C5.98033 121.566 5.479 121.673 4.935 121.673C4.24167 121.673 3.62833 121.529 3.095 121.241C2.56167 120.942 2.14033 120.51 1.831 119.945C1.53233 119.369 1.383 118.686 1.383 117.897V112.697H3.623V117.577C3.623 118.281 3.799 118.825 4.151 119.209C4.503 119.582 4.983 119.769 5.591 119.769C6.20967 119.769 6.695 119.582 7.047 119.209C7.399 118.825 7.575 118.281 7.575 117.577V112.697H9.831ZM11.4651 117.097C11.4651 116.201 11.6411 115.406 11.9931 114.713C12.3558 114.019 12.8465 113.486 13.4651 113.113C14.0838 112.739 14.7718 112.553 15.5291 112.553C16.1051 112.553 16.6545 112.681 17.1771 112.937C17.6998 113.182 18.1158 113.513 18.4251 113.929V109.721H20.6971V121.561H18.4251V120.249C18.1478 120.686 17.7585 121.038 17.2571 121.305C16.7558 121.571 16.1745 121.705 15.5131 121.705C14.7665 121.705 14.0838 121.513 13.4651 121.129C12.8465 120.745 12.3558 120.206 11.9931 119.513C11.6411 118.809 11.4651 118.003 11.4651 117.097ZM18.4411 117.129C18.4411 116.585 18.3345 116.121 18.1211 115.737C17.9078 115.342 17.6198 115.043 17.2571 114.841C16.8945 114.627 16.5051 114.521 16.0891 114.521C15.6731 114.521 15.2891 114.622 14.9371 114.825C14.5851 115.027 14.2971 115.326 14.0731 115.721C13.8598 116.105 13.7531 116.563 13.7531 117.097C13.7531 117.63 13.8598 118.099 14.0731 118.505C14.2971 118.899 14.5851 119.203 14.9371 119.417C15.2998 119.63 15.6838 119.737 16.0891 119.737C16.5051 119.737 16.8945 119.635 17.2571 119.433C17.6198 119.219 17.9078 118.921 18.1211 118.537C18.3345 118.142 18.4411 117.673 18.4411 117.129ZM31.1249 116.937C31.1249 117.257 31.1035 117.545 31.0609 117.801H24.5809C24.6342 118.441 24.8582 118.942 25.2529 119.305C25.6475 119.667 26.1329 119.849 26.7089 119.849C27.5409 119.849 28.1329 119.491 28.4849 118.777H30.9009C30.6449 119.63 30.1542 120.334 29.4289 120.889C28.7035 121.433 27.8129 121.705 26.7569 121.705C25.9035 121.705 25.1355 121.518 24.4529 121.145C23.7809 120.761 23.2529 120.222 22.8689 119.529C22.4955 118.835 22.3089 118.035 22.3089 117.129C22.3089 116.211 22.4955 115.406 22.8689 114.713C23.2422 114.019 23.7649 113.486 24.4369 113.113C25.1089 112.739 25.8822 112.553 26.7569 112.553C27.5995 112.553 28.3515 112.734 29.0129 113.097C29.6849 113.459 30.2022 113.977 30.5649 114.649C30.9382 115.31 31.1249 116.073 31.1249 116.937ZM28.8049 116.297C28.7942 115.721 28.5862 115.262 28.1809 114.921C27.7755 114.569 27.2795 114.393 26.6929 114.393C26.1382 114.393 25.6689 114.563 25.2849 114.905C24.9115 115.235 24.6822 115.699 24.5969 116.297H28.8049ZM37.6719 112.569C38.7279 112.569 39.5812 112.905 40.2319 113.577C40.8825 114.238 41.2079 115.166 41.2079 116.361V121.561H38.9679V116.665C38.9679 115.961 38.7919 115.422 38.4399 115.049C38.0879 114.665 37.6079 114.473 36.9999 114.473C36.3812 114.473 35.8905 114.665 35.5279 115.049C35.1759 115.422 34.9999 115.961 34.9999 116.665V121.561H32.7599V112.697H34.9999V113.801C35.2985 113.417 35.6772 113.118 36.1359 112.905C36.6052 112.681 37.1172 112.569 37.6719 112.569ZM42.762 117.097C42.762 116.201 42.938 115.406 43.29 114.713C43.6527 114.019 44.1433 113.486 44.762 113.113C45.3807 112.739 46.0687 112.553 46.826 112.553C47.402 112.553 47.9513 112.681 48.474 112.937C48.9967 113.182 49.4127 113.513 49.722 113.929V109.721H51.994V121.561H49.722V120.249C49.4447 120.686 49.0553 121.038 48.554 121.305C48.0527 121.571 47.4713 121.705 46.81 121.705C46.0633 121.705 45.3807 121.513 44.762 121.129C44.1433 120.745 43.6527 120.206 43.29 119.513C42.938 118.809 42.762 118.003 42.762 117.097ZM49.738 117.129C49.738 116.585 49.6313 116.121 49.418 115.737C49.2047 115.342 48.9167 115.043 48.554 114.841C48.1913 114.627 47.802 114.521 47.386 114.521C46.97 114.521 46.586 114.622 46.234 114.825C45.882 115.027 45.594 115.326 45.37 115.721C45.1567 116.105 45.05 116.563 45.05 117.097C45.05 117.63 45.1567 118.099 45.37 118.505C45.594 118.899 45.882 119.203 46.234 119.417C46.5967 119.63 46.9807 119.737 47.386 119.737C47.802 119.737 48.1913 119.635 48.554 119.433C48.9167 119.219 49.2047 118.921 49.418 118.537C49.6313 118.142 49.738 117.673 49.738 117.129ZM61.6378 114.057C61.9791 114.451 62.2404 114.91 62.4218 115.433C62.6138 115.955 62.7098 116.521 62.7098 117.129C62.7098 118.035 62.5018 118.835 62.0858 119.529C61.6804 120.222 61.1258 120.761 60.4218 121.145C59.7284 121.518 58.9498 121.705 58.0858 121.705C57.0618 121.705 56.1604 121.433 55.3818 120.889L54.7738 121.561H53.4138L54.6458 120.217C54.3044 119.811 54.0431 119.347 53.8618 118.825C53.6804 118.302 53.5898 117.737 53.5898 117.129C53.5898 116.222 53.7871 115.422 54.1818 114.729C54.5871 114.035 55.1364 113.502 55.8298 113.129C56.5231 112.745 57.2964 112.553 58.1498 112.553C59.2058 112.553 60.1231 112.83 60.9018 113.385L61.5258 112.697H62.8858L61.6378 114.057ZM55.8618 117.129C55.8618 117.673 55.9578 118.153 56.1498 118.569L59.4778 114.937C59.0831 114.649 58.6298 114.505 58.1178 114.505C57.4778 114.505 56.9391 114.734 56.5018 115.193C56.0751 115.641 55.8618 116.286 55.8618 117.129ZM60.4058 117.129C60.4058 116.606 60.3098 116.137 60.1178 115.721L56.8058 119.353C57.1684 119.619 57.5951 119.753 58.0858 119.753C58.4911 119.753 58.8698 119.657 59.2218 119.465C59.5844 119.262 59.8724 118.963 60.0858 118.569C60.2991 118.174 60.4058 117.694 60.4058 117.129ZM66.5624 114.073C66.8504 113.603 67.2237 113.235 67.6824 112.969C68.1517 112.702 68.685 112.569 69.2824 112.569V114.921H68.6904C67.9864 114.921 67.453 115.086 67.0904 115.417C66.7384 115.747 66.5624 116.323 66.5624 117.145V121.561H64.3224V112.697H66.5624V114.073ZM74.1831 121.705C73.4578 121.705 72.8071 121.577 72.2311 121.321C71.6551 121.054 71.1965 120.697 70.8551 120.249C70.5245 119.801 70.3431 119.305 70.3111 118.761H72.5671C72.6098 119.102 72.7751 119.385 73.0631 119.609C73.3618 119.833 73.7298 119.945 74.1671 119.945C74.5938 119.945 74.9245 119.859 75.1591 119.689C75.4045 119.518 75.5271 119.299 75.5271 119.033C75.5271 118.745 75.3778 118.531 75.0791 118.393C74.7911 118.243 74.3271 118.083 73.6871 117.913C73.0258 117.753 72.4818 117.587 72.0551 117.417C71.6391 117.246 71.2765 116.985 70.9671 116.633C70.6685 116.281 70.5191 115.806 70.5191 115.209C70.5191 114.718 70.6578 114.27 70.9351 113.865C71.2231 113.459 71.6285 113.139 72.1511 112.905C72.6845 112.67 73.3085 112.553 74.0231 112.553C75.0791 112.553 75.9218 112.819 76.5511 113.353C77.1805 113.875 77.5271 114.585 77.5911 115.481H75.4471C75.4151 115.129 75.2658 114.851 74.9991 114.649C74.7431 114.435 74.3965 114.329 73.9591 114.329C73.5538 114.329 73.2391 114.403 73.0151 114.553C72.8018 114.702 72.6951 114.91 72.6951 115.177C72.6951 115.475 72.8445 115.705 73.1431 115.865C73.4418 116.014 73.9058 116.169 74.5351 116.329C75.1751 116.489 75.7031 116.654 76.1191 116.825C76.5351 116.995 76.8925 117.262 77.1911 117.625C77.5005 117.977 77.6605 118.446 77.6711 119.033C77.6711 119.545 77.5271 120.003 77.2391 120.409C76.9618 120.814 76.5565 121.134 76.0231 121.369C75.5005 121.593 74.8871 121.705 74.1831 121.705Z" fill="black"/>
<path d="M67.8337 29.7007C68.8078 32.862 70.8078 39.3519 67.8337 45.8696C62.2566 58.0915 41.7253 64.8529 26.3829 57.7005C15.0364 52.4112 8.98579 40.6578 8.97323 29.7007C8.96052 18.6215 15.1188 5.5598 26.3826 1.70123C43.2035 -4.06098 62.879 13.624 67.8337 29.7007Z" fill="black"/>
<path d="M55.0339 46.2051V30.0667H53.9618V27.9149H52.8897V24.6872H51.8177V22.5354H50.7456V24.6872H49.6735V27.9149H48.6014V15.9617L45.3852 16.6072V15.0041H44.3131V16.8224L43.2411 17.0376V13.9282H42.169V17.2527L41.0969 17.4679V15.0041H40.0248V17.6836L36.8086 18.3292V21.4595H27.1599V22.5354H28.232V29.0397C28.0562 29.0107 27.8782 28.9908 27.696 28.9908C25.6274 28.9908 23.9437 30.9215 23.9437 33.2944C23.9437 35.458 25.3449 37.2488 27.1599 37.549V38.2499C26.7113 37.8427 26.1554 37.5979 25.5518 37.5979C24.074 37.5979 22.8716 39.0456 22.8716 40.8256C22.8716 42.3846 23.7942 43.6881 25.0158 43.9882V46.2051H22.8716V47.281H56.106V46.2051H55.0339ZM31.4482 45.6672C31.4482 44.7774 32.1697 44.0533 33.0564 44.0533C33.6353 44.0533 34.1724 44.368 34.4581 44.8748L34.6243 45.1701L35.2005 45.1292C35.3581 45.1292 35.5243 45.1599 35.7087 45.2223L36.2297 45.3976L36.3921 44.871C36.7411 43.7386 37.7703 42.9774 38.9528 42.9774C39.9273 42.9774 40.8268 43.5105 41.3001 44.3691L41.6351 44.9781L42.1379 44.4993C42.742 43.9247 43.7396 43.9247 44.3437 44.4993L44.8465 44.9781L45.1815 44.3691C45.6554 43.5105 46.5548 42.9774 47.5294 42.9774C48.6931 42.9774 49.7169 43.7241 50.0772 44.8355L50.2278 45.2997L50.7032 45.1943C51.7657 44.9576 52.804 45.3966 53.4145 46.2051H31.5522C31.4911 46.0319 31.4482 45.8528 31.4482 45.6672ZM53.9618 31.1426V45.2029C53.6509 44.8834 53.2902 44.6203 52.8897 44.4277V32.2185H45.3852V42.5847C45.0845 42.7956 44.8106 43.0463 44.5801 43.34C44.4943 43.29 44.4043 43.2475 44.3131 43.2082V31.1426H53.9618ZM47.5294 41.9015C47.1606 41.9015 46.8009 41.9618 46.4573 42.0651V33.2944H48.6014V42.0575C48.26 41.9559 47.8998 41.9015 47.5294 41.9015ZM49.6735 33.2944H51.8177V44.1039C51.5266 44.0614 51.2302 44.0409 50.9273 44.0705C50.6437 43.461 50.2053 42.9564 49.6735 42.5836V33.2944ZM45.3852 30.0667V28.9908H52.8897V30.0667H45.3852ZM50.7456 25.7631H51.8177V27.9149H50.7456V25.7631ZM47.5294 17.2743V27.9149H44.3131V30.0667H43.2411V42.9855C42.7736 42.9855 42.3068 43.1038 41.902 43.34C41.1972 42.4411 40.1133 41.9015 38.9528 41.9015C38.5818 41.9015 38.2216 41.9553 37.8807 42.0559V19.2103L47.5294 17.2743ZM29.3041 22.5354H36.8086V42.5799C36.2726 42.9543 35.832 43.4637 35.5484 44.0802C35.4353 44.0646 35.3206 44.056 35.2016 44.0549C34.6993 43.383 33.9049 42.9774 33.0564 42.9774C31.5785 42.9774 30.3762 44.184 30.3762 45.6672C30.3762 45.849 30.4003 46.0281 30.4362 46.2051H28.232V44.2518L31.4482 40.4867V39.1628C33.2633 38.8627 34.6645 37.0718 34.6645 34.9082C34.6645 33.289 33.8797 31.8769 32.7245 31.1426H33.5924V30.0667H32.5203V31.0258C32.032 30.7585 31.4879 30.6046 30.9122 30.6046C30.82 30.6046 30.7257 30.6105 30.6302 30.6197C30.2759 30.1092 29.8224 29.6955 29.3041 29.412V22.5354ZM31.4482 33.2944C31.4482 32.7295 31.3501 32.191 31.177 31.6966C32.531 31.8575 33.5924 33.2363 33.5924 34.9082C33.5924 36.6883 32.3901 38.1359 30.9122 38.1359C30.2357 38.1359 29.593 37.8233 29.1025 37.2811C30.4759 36.6415 31.4482 35.0965 31.4482 33.2944ZM28.232 37.9105C28.8072 38.5872 29.5571 39.0294 30.3762 39.1644V40.0892L28.232 42.5998V37.9105ZM25.0158 33.2944C25.0158 31.5143 26.2181 30.0667 27.696 30.0667C29.1738 30.0667 30.3762 31.5143 30.3762 33.2944C30.3762 34.8533 29.4536 36.1568 28.232 36.457V32.7564H27.1599V36.457C25.9383 36.1568 25.0158 34.8533 25.0158 33.2944ZM23.9437 40.8256C23.9437 39.6389 24.6652 38.6738 25.5518 38.6738C26.4384 38.6738 27.1599 39.6389 27.1599 40.8256C27.1599 42.0123 26.4384 42.9774 25.5518 42.9774C24.6652 42.9774 23.9437 42.0123 23.9437 40.8256ZM26.0879 43.9882C26.4845 43.8909 26.848 43.6848 27.1599 43.4019V46.2051H26.0879V43.9882Z" fill="#C99D2B"/>
<path d="M42.1708 20.3838H38.9546V24.6858H42.1708V20.3838ZM41.0987 23.6103H40.0267V21.4593H41.0987V23.6103Z" fill="#C99D2B"/>
<path d="M42.1699 25.7637H38.9537V30.0654H42.1699V25.7637ZM41.0978 28.99H40.0257V26.8391H41.0978V28.99Z" fill="#C99D2B"/>
<path d="M42.1699 31.1426H38.9537V35.4443H42.1699V31.1426ZM41.0978 34.3689H40.0257V32.218H41.0978V34.3689Z" fill="#C99D2B"/>
<path d="M42.1699 36.5225H38.9537V40.824H42.1699V36.5225ZM41.0978 39.7486H40.0257V37.5978H41.0978V39.7486Z" fill="#C99D2B"/>
<path d="M46.4588 20.3838H43.2426V24.6858H46.4588V20.3838ZM45.3867 23.6103H44.3146V21.4593H45.3867V23.6103Z" fill="#C99D2B"/>
<path d="M30.3775 23.6113H31.4496V24.686H30.3775V23.6113Z" fill="#C99D2B"/>
<path d="M32.5201 23.6113H33.5922V24.686H32.5201V23.6113Z" fill="#C99D2B"/>
<path d="M34.6646 23.6113H35.7367V24.686H34.6646V23.6113Z" fill="#C99D2B"/>
<path d="M30.3775 25.7637H31.4496V26.8381H30.3775V25.7637Z" fill="#C99D2B"/>
<path d="M32.5201 25.7637H33.5922V26.8381H32.5201V25.7637Z" fill="#C99D2B"/>
<path d="M34.6646 25.7637H35.7367V26.8381H34.6646V25.7637Z" fill="#C99D2B"/>
<path d="M32.5201 27.9141H33.5922V28.9893H32.5201V27.9141Z" fill="#C99D2B"/>
<path d="M30.3775 27.9141H31.4496V28.9893H30.3775V27.9141Z" fill="#C99D2B"/>
<path d="M34.6646 27.9141H35.7367V28.9893H34.6646V27.9141Z" fill="#C99D2B"/>
<path d="M34.6646 30.0664H35.7367V31.1409H34.6646V30.0664Z" fill="#C99D2B"/>
</svg>
