<svg width="15" height="35" viewBox="0 0 15 35" fill="none" xmlns="http://www.w3.org/2000/svg">
<path d="M7.5 7.45341C9.57107 7.45341 11.25 5.78491 11.25 3.72671C11.25 1.6685 9.57107 0 7.5 0C5.42893 0 3.75 1.6685 3.75 3.72671C3.75 5.78491 5.42893 7.45341 7.5 7.45341Z" fill="#C99D2B"/>
<path d="M10.7143 8.51807H4.28571C3.1501 8.5214 2.06197 8.9712 1.25896 9.76921C0.455964 10.5672 0.00335642 11.6486 0 12.7772V19.9324C0 20.6545 0.564509 21.2687 1.2904 21.2947C1.47029 21.3012 1.64966 21.2716 1.81779 21.2077C1.98592 21.1438 2.13936 21.0469 2.26894 20.9227C2.39852 20.7985 2.50158 20.6496 2.57196 20.485C2.64234 20.3203 2.6786 20.1433 2.67857 19.9644V13.3275C2.67687 13.1902 2.72748 13.0573 2.82025 12.9554C2.91302 12.8536 3.0411 12.7904 3.17879 12.7785C3.25207 12.7737 3.32557 12.7838 3.39472 12.8084C3.46387 12.833 3.52719 12.8715 3.58076 12.9214C3.63433 12.9713 3.67699 13.0317 3.70611 13.0987C3.73522 13.1657 3.75016 13.2379 3.75 13.3109V32.542C3.75 32.948 3.91227 33.3373 4.20111 33.6243C4.48995 33.9114 4.8817 34.0726 5.29018 34.0726C5.69866 34.0726 6.09041 33.9114 6.37925 33.6243C6.66809 33.3373 6.83036 32.948 6.83036 32.542V23.0482C6.82799 22.8764 6.89105 22.71 7.00691 22.5824C7.12277 22.4548 7.28287 22.3754 7.45513 22.3601C7.54677 22.354 7.6387 22.3667 7.72519 22.3974C7.81169 22.4281 7.89091 22.4761 7.95792 22.5385C8.02494 22.601 8.07831 22.6764 8.11474 22.7602C8.15116 22.844 8.16985 22.9343 8.16964 23.0256V32.542C8.16964 32.948 8.33191 33.3373 8.62075 33.6243C8.90959 33.9114 9.30134 34.0726 9.70982 34.0726C10.1183 34.0726 10.5101 33.9114 10.7989 33.6243C11.0877 33.3373 11.25 32.948 11.25 32.542V13.3275C11.2483 13.1902 11.2989 13.0573 11.3917 12.9554C11.4844 12.8536 11.6125 12.7904 11.7502 12.7785C11.8235 12.7737 11.897 12.7838 11.9661 12.8084C12.0353 12.833 12.0986 12.8715 12.1522 12.9214C12.2058 12.9713 12.2484 13.0317 12.2775 13.0987C12.3066 13.1657 12.3216 13.2379 12.3214 13.3109V19.9338C12.3214 20.6558 12.8859 21.2701 13.6118 21.296C13.7918 21.3025 13.9713 21.2729 14.1395 21.2089C14.3078 21.1449 14.4613 21.0479 14.5909 20.9236C14.7204 20.7992 14.8235 20.6502 14.8938 20.4854C14.9641 20.3206 15.0002 20.1434 15 19.9644V12.7772C14.9966 11.6486 14.544 10.5672 13.741 9.76921C12.938 8.9712 11.8499 8.5214 10.7143 8.51807V8.51807Z" fill="#C99D2B"/>
</svg>
