<svg width="62" height="65" viewBox="0 0 62 65" fill="none" xmlns="http://www.w3.org/2000/svg" xmlns:xlink="http://www.w3.org/1999/xlink">
<a xlink:href="https://www.facebook.com/cityescape.dk/reviews/" target="_blank" cursor="pointer">
<path d="M52.1048 8.45184C52.1048 8.45184 52.506 8.90605 52.9296 9.41953C55.6773 12.749 62.7053 22.4284 60.8917 34.8711C59.4547 44.7312 53.2658 50.8473 50.0373 54.038C45.9775 58.0501 39.7189 64.3134 29.8789 64.9165C16.2005 65.7549 7.35586 54.9671 6.61933 54.038C1.91058 48.0982 1.04532 41.9375 0.416675 37.4613C-0.0787824 33.9325 -1.41443 21.026 6.10245 11.0419C6.19448 10.9197 6.31443 10.7603 6.48395 10.5477C12.4029 3.11399 21.7283 1.72184 25.2271 1.19949C30.959 0.545703 36.7638 1.07457 42.2841 2.75355C48.6124 4.76548 51.4463 7.73404 52.1048 8.45184Z" fill="white"/>
<path d="M38.0188 16.7732H42.4004V9.26419C41.6445 9.16187 39.0447 8.93164 36.0169 8.93164C29.6994 8.93164 25.3718 12.8416 25.3718 20.0279V26.6416H18.4004V35.0361H25.3718V56.1582H33.9191V35.0381H40.6085L41.6705 26.6436H33.9171V20.8603C33.9191 18.434 34.583 16.7732 38.0188 16.7732Z" fill="black"/>
</a>
</svg>
