<svg width="98" height="132" viewBox="0 0 98 132" fill="none" xmlns="http://www.w3.org/2000/svg">
<path d="M73.469 14.0774C73.469 14.0774 73.7268 14.5882 73.9913 15.1582C75.7062 18.8553 79.8163 29.3739 75.2064 40.3038C71.5533 48.9649 64.4561 53.0717 60.7537 55.2141C56.098 57.908 48.9023 62.1324 39.7849 60.332C27.1109 57.8294 21.6074 45.8643 21.1563 44.8398C18.2732 38.2902 18.9476 32.4576 19.4378 28.2193C19.8241 24.8784 21.6721 12.7727 30.8994 5.45102C31.0124 5.36113 31.1599 5.24448 31.3647 5.09084C38.5289 -0.283688 47.3644 0.673214 50.6793 1.03215C56.0621 1.80464 61.2305 3.67463 65.8661 6.52699C71.1596 9.87632 73.039 13.2645 73.469 14.0774Z" fill="black"/>
<path d="M58.1105 17.0903C58.1107 17.4675 58.2227 17.8361 58.4324 18.1496C58.6421 18.4632 58.94 18.7075 59.2885 18.8517C59.6371 18.9959 60.0205 19.0336 60.3904 18.9599C60.7603 18.8862 61.1001 18.7045 61.3667 18.4377C61.6334 18.1709 61.8149 17.8311 61.8884 17.4611C61.962 17.0912 61.9241 16.7077 61.7798 16.3593C61.6354 16.0108 61.3909 15.713 61.0773 15.5035C60.7637 15.294 60.395 15.1821 60.0178 15.1821C59.512 15.1828 59.0271 15.3841 58.6696 15.7418C58.312 16.0995 58.111 16.5845 58.1105 17.0903ZM61.0924 17.0903C61.0922 17.3028 61.029 17.5104 60.9108 17.687C60.7927 17.8636 60.6248 18.0012 60.4284 18.0824C60.232 18.1636 60.016 18.1848 59.8076 18.1432C59.5992 18.1016 59.4078 17.9992 59.2576 17.8489C59.1074 17.6986 59.0052 17.5071 58.9638 17.2987C58.9224 17.0903 58.9437 16.8742 59.0251 16.6779C59.1064 16.4816 59.2442 16.3139 59.4209 16.1958C59.5976 16.0778 59.8053 16.0148 60.0178 16.0148C60.3028 16.0152 60.576 16.1287 60.7775 16.3303C60.9789 16.5319 61.0922 16.8053 61.0924 17.0903Z" fill="#C99D2B"/>
<path d="M37.8016 16.7199C37.8014 16.2451 37.6603 15.7809 37.3964 15.3862C37.1324 14.9914 36.7574 14.6838 36.3187 14.5023C35.88 14.3207 35.3973 14.2733 34.9317 14.3661C34.466 14.4589 34.0384 14.6877 33.7027 15.0236C33.3671 15.3595 33.1386 15.7874 33.046 16.2532C32.9535 16.719 33.0011 17.2017 33.1829 17.6404C33.3646 18.0792 33.6723 18.4541 34.0671 18.7179C34.4619 18.9818 34.926 19.1226 35.4008 19.1226C36.0375 19.1217 36.6478 18.8682 37.0979 18.4178C37.548 17.9674 37.801 17.3568 37.8016 16.7199ZM33.8326 16.7199C33.8329 16.4098 33.9251 16.1066 34.0975 15.8489C34.27 15.5911 34.515 15.3902 34.8016 15.2717C35.0881 15.1532 35.4034 15.1223 35.7075 15.183C36.0116 15.2436 36.2909 15.3931 36.5101 15.6125C36.7293 15.8319 36.8785 16.1114 36.9389 16.4156C36.9993 16.7199 36.9682 17.0352 36.8495 17.3217C36.7307 17.6083 36.5297 17.8532 36.2719 18.0255C36.014 18.1978 35.7109 18.2897 35.4008 18.2897C34.9848 18.2891 34.5861 18.1235 34.2921 17.8292C33.9981 17.5349 33.8328 17.136 33.8324 16.7199H33.8326Z" fill="#C99D2B"/>
<path d="M35.9353 29.5703C35.6566 29.5702 35.384 29.6527 35.1522 29.8074C34.9204 29.9622 34.7396 30.1822 34.6329 30.4396C34.5261 30.697 34.4981 30.9804 34.5524 31.2537C34.6067 31.5271 34.7409 31.7782 34.9379 31.9753C35.135 32.1724 35.3861 32.3067 35.6595 32.3611C35.9329 32.4155 36.2163 32.3876 36.4738 32.281C36.7314 32.1744 36.9515 31.9938 37.1064 31.762C37.2613 31.5303 37.3439 31.2579 37.3439 30.9792C37.3436 30.6057 37.1951 30.2477 36.931 29.9836C36.6669 29.7194 36.3089 29.5708 35.9353 29.5703ZM35.9353 31.5557C35.8213 31.5558 35.7097 31.5221 35.6148 31.4588C35.5199 31.3956 35.4459 31.3056 35.4021 31.2003C35.3584 31.0949 35.3469 30.979 35.369 30.8671C35.3912 30.7553 35.4461 30.6525 35.5267 30.5718C35.6073 30.4911 35.71 30.4361 35.8219 30.4138C35.9338 30.3915 36.0497 30.4029 36.1551 30.4465C36.2605 30.4901 36.3506 30.564 36.414 30.6588C36.4774 30.7536 36.5113 30.8651 36.5113 30.9792C36.5112 31.1319 36.4505 31.2784 36.3425 31.3865C36.2345 31.4945 36.0881 31.5554 35.9353 31.5557Z" fill="#C99D2B"/>
<path d="M62.0153 28.416C61.7365 28.4159 61.464 28.4984 61.2322 28.6532C61.0004 28.8079 60.8197 29.0279 60.7129 29.2853C60.6062 29.5428 60.5782 29.8261 60.6325 30.0994C60.6868 30.3728 60.8209 30.6239 61.018 30.821C61.215 31.0181 61.4661 31.1524 61.7395 31.2068C62.0129 31.2612 62.2962 31.2333 62.5538 31.1267C62.8113 31.0201 63.0314 30.8395 63.1863 30.6078C63.3412 30.3761 63.4238 30.1036 63.4238 29.825C63.4235 29.4515 63.275 29.0934 63.0109 28.8293C62.7469 28.5652 62.3888 28.4165 62.0153 28.416ZM62.0153 30.4014C61.9012 30.4015 61.7897 30.3678 61.6948 30.3045C61.5999 30.2413 61.5259 30.1513 61.4822 30.046C61.4384 29.9407 61.4269 29.8247 61.4491 29.7129C61.4713 29.601 61.5262 29.4982 61.6068 29.4176C61.6874 29.3369 61.7901 29.2819 61.9019 29.2596C62.0138 29.2373 62.1298 29.2487 62.2351 29.2923C62.3405 29.3359 62.4306 29.4098 62.494 29.5046C62.5574 29.5994 62.5912 29.7109 62.5912 29.825C62.5911 29.9777 62.5304 30.1242 62.4224 30.2322C62.3145 30.3403 62.168 30.4011 62.0153 30.4014Z" fill="#C99D2B"/>
<path d="M62.7785 13.7383C62.5343 13.7382 62.2955 13.8105 62.0924 13.9461C61.8893 14.0817 61.731 14.2744 61.6374 14.5C61.5439 14.7256 61.5194 14.9738 61.5669 15.2133C61.6145 15.4529 61.732 15.6729 61.9046 15.8456C62.0773 16.0183 62.2972 16.136 62.5367 16.1837C62.7762 16.2314 63.0245 16.2071 63.2502 16.1137C63.4758 16.0203 63.6687 15.8621 63.8045 15.6591C63.9402 15.4561 64.0127 15.2174 64.0128 14.9732C64.0126 14.6459 63.8825 14.332 63.6511 14.1005C63.4197 13.869 63.1059 13.7387 62.7785 13.7383ZM62.7785 15.3749C62.699 15.375 62.6212 15.3515 62.555 15.3074C62.4888 15.2632 62.4372 15.2005 62.4067 15.127C62.3762 15.0536 62.3681 14.9727 62.3836 14.8947C62.3991 14.8166 62.4373 14.745 62.4935 14.6887C62.5498 14.6324 62.6214 14.5941 62.6994 14.5785C62.7775 14.563 62.8583 14.5709 62.9318 14.6014C63.0053 14.6318 63.0682 14.6833 63.1123 14.7495C63.1565 14.8156 63.1801 14.8934 63.1801 14.9729C63.18 15.0794 63.1377 15.1815 63.0624 15.2569C62.9871 15.3322 62.885 15.3747 62.7785 15.3749Z" fill="#C99D2B"/>
<path d="M48.5362 32.1192C52.7636 32.1192 56.203 28.675 56.203 24.4416C56.203 20.2083 52.7636 16.7642 48.5362 16.7642C44.3087 16.7642 40.8695 20.2083 40.8695 24.4416C40.8695 28.675 44.3088 32.1192 48.5362 32.1192ZM48.5362 17.5968C52.3045 17.5968 55.3703 20.6674 55.3703 24.4416C55.3703 28.2159 52.3045 31.2866 48.5362 31.2866C44.7678 31.2866 41.7022 28.2159 41.7022 24.4416C41.7022 20.6674 44.7679 17.5968 48.5362 17.5968Z" fill="#C99D2B"/>
<path d="M48.4789 30.4946C49.6786 30.4963 50.8517 30.142 51.85 29.4767C52.8483 28.8114 53.6268 27.8648 54.087 26.7569C54.5472 25.649 54.6685 24.4294 54.4355 23.2525C54.2025 22.0756 53.6256 20.9943 52.7779 20.1453C51.9302 19.2964 50.8498 18.718 49.6733 18.4833C48.4969 18.2487 47.2772 18.3683 46.1687 18.827C45.0603 19.2858 44.1128 20.0631 43.4461 21.0605C42.7795 22.0579 42.4236 23.2307 42.4236 24.4305C42.4244 26.0371 43.0623 27.5779 44.1975 28.7147C45.3327 29.8516 46.8724 30.4917 48.4789 30.4946ZM48.4789 19.199C49.5139 19.1973 50.5261 19.5027 51.3874 20.0766C52.2488 20.6504 52.9205 21.4669 53.3177 22.4227C53.715 23.3784 53.8197 24.4306 53.6189 25.4459C53.418 26.4613 52.9204 27.3943 52.1892 28.1267C51.4579 28.8592 50.5259 29.3583 49.5109 29.5608C48.496 29.7634 47.4438 29.6603 46.4874 29.2645C45.5311 28.8688 44.7136 28.1983 44.1385 27.3378C43.5633 26.4773 43.2563 25.4655 43.2563 24.4305C43.2567 23.0446 43.8069 21.7155 44.786 20.7347C45.7651 19.754 47.0932 19.2017 48.4789 19.199Z" fill="#C99D2B"/>
<path d="M57.9347 32.603C57.5222 32.5048 57.1026 32.3857 56.6877 32.2489C56.2016 32.0888 55.7087 31.9001 55.2163 31.6862C56.1719 30.6978 56.9307 29.5364 57.4523 28.264H58.6324C58.9327 28.2635 59.2206 28.1438 59.4328 27.9312C59.6451 27.7186 59.7643 27.4304 59.7645 27.13V22.5149C59.7643 22.2144 59.645 21.9263 59.4327 21.7137C59.2204 21.5011 58.9326 21.3815 58.6323 21.381H57.729C56.4421 17.5348 52.8121 14.7563 48.5462 14.7563C44.2802 14.7563 40.6501 17.5353 39.363 21.381H38.5661C38.2658 21.3816 37.978 21.5012 37.7658 21.7138C37.5536 21.9263 37.4343 22.2144 37.4341 22.5149V27.13C37.4343 27.4304 37.5536 27.7186 37.7659 27.9311C37.9781 28.1437 38.266 28.2633 38.5663 28.2638H39.6529C40.203 29.5698 41.0075 30.7531 42.0195 31.7446C41.622 31.9018 41.2104 32.0493 40.7867 32.1833C40.3031 32.336 39.7907 32.4773 39.2638 32.6028C37.7254 32.9726 36.3525 33.8415 35.3594 35.0739C34.3537 36.3278 33.8045 37.8869 33.8024 39.4947V47.3398C33.8024 47.4503 33.8463 47.5562 33.9244 47.6343C34.0024 47.7125 34.1083 47.7563 34.2188 47.7563H62.9797C63.0901 47.7563 63.196 47.7125 63.2741 47.6343C63.3522 47.5562 63.3961 47.4503 63.3961 47.3398V39.4947C63.394 37.887 62.845 36.3279 61.8394 35.074C60.8463 33.8415 59.4733 32.9727 57.9347 32.603ZM57.9664 22.2141H58.6326C58.7121 22.2144 58.7883 22.2461 58.8445 22.3025C58.9006 22.3589 58.9322 22.4353 58.9321 22.5149V27.13C58.9322 27.2096 58.9006 27.2859 58.8445 27.3423C58.7883 27.3987 58.7121 27.4305 58.6326 27.4307H57.7552C58.0641 26.4698 58.2237 25.4671 58.2284 24.4576C58.2286 23.7021 58.1407 22.9492 57.9664 22.2141ZM38.5658 27.4309C38.4863 27.4306 38.4102 27.3987 38.3541 27.3423C38.298 27.2859 38.2666 27.2095 38.2667 27.13V22.5149C38.2667 22.4353 38.2982 22.3589 38.3543 22.3025C38.4105 22.2461 38.4867 22.2144 38.5663 22.2141H39.126C38.7143 23.9396 38.7891 25.7455 39.3422 27.4309H38.5658ZM39.6962 24.4578C39.6962 19.5678 43.6662 15.5895 48.5459 15.5895C53.4256 15.5895 57.3955 19.5676 57.3955 24.4578C57.3955 27.7085 55.4976 30.9954 52.7441 32.5745C52.4712 32.3169 52.1103 32.1733 51.7351 32.1732H45.3568C45.0078 32.1731 44.67 32.2972 44.404 32.5234C41.6181 30.9387 39.6965 27.6691 39.6965 24.4578H39.6962ZM52.3817 33.6545C52.3817 33.8262 52.3137 33.9908 52.1925 34.1123C52.0713 34.2339 51.907 34.3023 51.7354 34.3027H45.3568C45.185 34.3027 45.0202 34.2345 44.8987 34.1129C44.7772 33.9913 44.709 33.8264 44.709 33.6545C44.709 33.4826 44.7772 33.3177 44.8987 33.1962C45.0202 33.0746 45.185 33.0063 45.3568 33.0063H51.7354C51.907 33.0067 52.0713 33.0752 52.1925 33.1967C52.3137 33.3182 52.3817 33.4829 52.3817 33.6545ZM62.5632 46.9232H58.2546V40.1155C58.2546 40.005 58.2107 39.8991 58.1327 39.8209C58.0546 39.7428 57.9487 39.6989 57.8383 39.6989C57.7279 39.6989 57.622 39.7428 57.5439 39.8209C57.4658 39.8991 57.422 40.005 57.422 40.1155V46.9232H39.7763V40.1155C39.7763 40.005 39.7325 39.8991 39.6544 39.8209C39.5763 39.7428 39.4704 39.6989 39.36 39.6989C39.2496 39.6989 39.1437 39.7428 39.0656 39.8209C38.9875 39.8991 38.9437 40.005 38.9437 40.1155V46.9232H34.6347V39.4947C34.6339 38.0852 35.11 36.717 35.9855 35.6128C36.8609 34.5086 38.0842 33.7335 39.4561 33.4136C40.0024 33.2835 40.5344 33.137 41.037 32.978C41.6171 32.7946 42.177 32.5873 42.7087 32.3627C43.0968 32.6802 43.5097 32.9663 43.9432 33.2183C43.875 33.4397 43.8597 33.6741 43.8985 33.9026C43.9373 34.131 44.0291 34.3472 44.1665 34.5337C44.304 34.7202 44.4833 34.8719 44.6899 34.9765C44.8966 35.0811 45.1249 35.1357 45.3565 35.136H51.7351C51.9605 35.1366 52.183 35.0856 52.3856 34.9867C52.5882 34.8879 52.7655 34.7439 52.9038 34.5658C53.0421 34.3877 53.1377 34.1802 53.1834 33.9594C53.2291 33.7385 53.2235 33.5101 53.1672 33.2918C53.6601 33.0067 54.1255 32.6764 54.5572 32.3051C55.1666 32.5842 55.7908 32.8297 56.427 33.0405C56.8642 33.1844 57.3064 33.31 57.7415 33.4136C59.1135 33.7334 60.3368 34.5085 61.2123 35.6127C62.0879 36.7169 62.564 38.0852 62.5632 39.4947V46.9232Z" fill="#C99D2B"/>
<path d="M36.2288 39.3774C36.1184 39.3774 36.0125 39.4213 35.9344 39.4994C35.8564 39.5775 35.8125 39.6834 35.8125 39.7938V45.9816C35.8125 46.092 35.8564 46.1979 35.9344 46.276C36.0125 46.3541 36.1184 46.3979 36.2288 46.3979C36.3392 46.3979 36.4451 46.3541 36.5232 46.276C36.6013 46.1979 36.6451 46.092 36.6451 45.9816V39.7938C36.6451 39.6834 36.6013 39.5775 36.5232 39.4994C36.4451 39.4213 36.3392 39.3774 36.2288 39.3774Z" fill="#C99D2B"/>
<path d="M36.2288 37.6216C36.1184 37.6216 36.0125 37.6655 35.9344 37.7436C35.8564 37.8216 35.8125 37.9276 35.8125 38.038V38.3951C35.8125 38.5055 35.8564 38.6115 35.9344 38.6896C36.0125 38.7677 36.1184 38.8115 36.2288 38.8115C36.3392 38.8115 36.4451 38.7677 36.5232 38.6896C36.6013 38.6115 36.6451 38.5055 36.6451 38.3951V38.038C36.6451 37.9276 36.6013 37.8216 36.5232 37.7436C36.4451 37.6655 36.3392 37.6216 36.2288 37.6216Z" fill="#C99D2B"/>
<path d="M47.1917 21.127C47.2374 21.1269 47.2827 21.1194 47.3259 21.1047C47.423 21.0716 47.5232 21.0423 47.6231 21.0176C47.6763 21.0046 47.7264 20.9812 47.7705 20.9489C47.8146 20.9165 47.8519 20.8757 47.8802 20.8289C47.9086 20.7821 47.9274 20.7302 47.9356 20.6761C47.9438 20.6221 47.9413 20.5669 47.9282 20.5138C47.915 20.4607 47.8915 20.4107 47.859 20.3667C47.8265 20.3227 47.7856 20.2855 47.7387 20.2573C47.6918 20.2291 47.6398 20.2104 47.5857 20.2023C47.5315 20.1942 47.4763 20.1969 47.4232 20.2101C47.3004 20.2405 47.1775 20.2764 47.0578 20.3171C46.9642 20.3487 46.885 20.4125 46.8343 20.4971C46.7835 20.5817 46.7644 20.6816 46.7805 20.7789C46.7966 20.8762 46.8468 20.9646 46.9221 21.0284C46.9975 21.0921 47.093 21.1271 47.1917 21.127Z" fill="#C99D2B"/>
<path d="M46.4449 21.5482C46.49 21.5173 46.5286 21.4777 46.5584 21.4319C46.5881 21.386 46.6086 21.3348 46.6186 21.281C46.6286 21.2273 46.6279 21.1721 46.6166 21.1186C46.6052 21.0651 46.5834 21.0144 46.5525 20.9693C46.5215 20.9242 46.482 20.8857 46.4362 20.8559C46.3903 20.8261 46.3391 20.8056 46.2853 20.7956C46.2316 20.7857 46.1764 20.7864 46.1229 20.7977C46.0694 20.809 46.0187 20.8308 45.9736 20.8618C45.3847 21.2643 44.9026 21.8041 44.5691 22.4347C44.2356 23.0652 44.0606 23.7675 44.0592 24.4808C44.0592 24.5912 44.1031 24.6971 44.1811 24.7752C44.2592 24.8532 44.3651 24.8971 44.4755 24.8971C44.5859 24.8971 44.6918 24.8532 44.7699 24.7752C44.848 24.6971 44.8919 24.5912 44.8919 24.4808C44.8932 23.9026 45.0354 23.3335 45.306 22.8225C45.5766 22.3116 45.9675 21.8742 46.4449 21.5482Z" fill="#C99D2B"/>
<path d="M9.43692 96.7749L6.97292 92.4229H5.91692V96.7749H3.67692V85.6069H7.86892C8.73292 85.6069 9.46892 85.7616 10.0769 86.0709C10.6849 86.3696 11.1383 86.7802 11.4369 87.3029C11.7463 87.8149 11.9009 88.3909 11.9009 89.0309C11.9009 89.7669 11.6876 90.4336 11.2609 91.0309C10.8343 91.6176 10.1996 92.0229 9.35692 92.2469L12.0289 96.7749H9.43692ZM5.91692 90.7429H7.78892C8.39692 90.7429 8.85026 90.5989 9.14892 90.3109C9.44759 90.0122 9.59692 89.6016 9.59692 89.0789C9.59692 88.5669 9.44759 88.1722 9.14892 87.8949C8.85026 87.6069 8.39692 87.4629 7.78892 87.4629H5.91692V90.7429ZM17.8629 96.9189C17.0096 96.9189 16.2416 96.7322 15.5589 96.3589C14.8763 95.9749 14.3376 95.4362 13.9429 94.7429C13.5589 94.0496 13.3669 93.2496 13.3669 92.3429C13.3669 91.4362 13.5643 90.6362 13.9589 89.9429C14.3643 89.2496 14.9136 88.7162 15.6069 88.3429C16.3003 87.9589 17.0736 87.7669 17.9269 87.7669C18.7803 87.7669 19.5536 87.9589 20.2469 88.3429C20.9403 88.7162 21.4843 89.2496 21.8789 89.9429C22.2843 90.6362 22.4869 91.4362 22.4869 92.3429C22.4869 93.2496 22.2789 94.0496 21.8629 94.7429C21.4576 95.4362 20.9029 95.9749 20.1989 96.3589C19.5056 96.7322 18.7269 96.9189 17.8629 96.9189ZM17.8629 94.9669C18.2683 94.9669 18.6469 94.8709 18.9989 94.6789C19.3616 94.4762 19.6496 94.1776 19.8629 93.7829C20.0763 93.3882 20.1829 92.9082 20.1829 92.3429C20.1829 91.5002 19.9589 90.8549 19.5109 90.4069C19.0736 89.9482 18.5349 89.7189 17.8949 89.7189C17.2549 89.7189 16.7163 89.9482 16.2789 90.4069C15.8523 90.8549 15.6389 91.5002 15.6389 92.3429C15.6389 93.1856 15.8469 93.8362 16.2629 94.2949C16.6896 94.7429 17.2229 94.9669 17.8629 94.9669ZM26.37 84.9349V96.7749H24.13V84.9349H26.37ZM30.8232 84.9349V96.7749H28.5832V84.9349H30.8232ZM41.2763 92.1509C41.2763 92.4709 41.255 92.7589 41.2123 93.0149H34.7323C34.7856 93.6549 35.0096 94.1562 35.4043 94.5189C35.799 94.8816 36.2843 95.0629 36.8603 95.0629C37.6923 95.0629 38.2843 94.7056 38.6363 93.9909H41.0523C40.7963 94.8442 40.3056 95.5482 39.5803 96.1029C38.855 96.6469 37.9643 96.9189 36.9083 96.9189C36.055 96.9189 35.287 96.7322 34.6043 96.3589C33.9323 95.9749 33.4043 95.4362 33.0203 94.7429C32.647 94.0496 32.4603 93.2496 32.4603 92.3429C32.4603 91.4256 32.647 90.6202 33.0203 89.9269C33.3936 89.2336 33.9163 88.7002 34.5883 88.3269C35.2603 87.9536 36.0336 87.7669 36.9083 87.7669C37.751 87.7669 38.503 87.9482 39.1643 88.3109C39.8363 88.6736 40.3536 89.1909 40.7163 89.8629C41.0896 90.5242 41.2763 91.2869 41.2763 92.1509ZM38.9563 91.5109C38.9456 90.9349 38.7376 90.4762 38.3323 90.1349C37.927 89.7829 37.431 89.6069 36.8443 89.6069C36.2896 89.6069 35.8203 89.7776 35.4363 90.1189C35.063 90.4496 34.8336 90.9136 34.7483 91.5109H38.9563ZM46.3033 96.9189C45.578 96.9189 44.9273 96.7909 44.3513 96.5349C43.7753 96.2682 43.3166 95.9109 42.9753 95.4629C42.6446 95.0149 42.4633 94.5189 42.4313 93.9749H44.6873C44.73 94.3162 44.8953 94.5989 45.1833 94.8229C45.482 95.0469 45.85 95.1589 46.2873 95.1589C46.714 95.1589 47.0446 95.0736 47.2793 94.9029C47.5246 94.7322 47.6473 94.5136 47.6473 94.2469C47.6473 93.9589 47.498 93.7456 47.1993 93.6069C46.9113 93.4576 46.4473 93.2976 45.8073 93.1269C45.146 92.9669 44.602 92.8016 44.1753 92.6309C43.7593 92.4602 43.3966 92.1989 43.0873 91.8469C42.7886 91.4949 42.6393 91.0202 42.6393 90.4229C42.6393 89.9322 42.778 89.4842 43.0553 89.0789C43.3433 88.6736 43.7486 88.3536 44.2713 88.1189C44.8046 87.8842 45.4286 87.7669 46.1433 87.7669C47.1993 87.7669 48.042 88.0336 48.6713 88.5669C49.3006 89.0896 49.6473 89.7989 49.7113 90.6949H47.5673C47.5353 90.3429 47.386 90.0656 47.1193 89.8629C46.8633 89.6496 46.5166 89.5429 46.0793 89.5429C45.674 89.5429 45.3593 89.6176 45.1353 89.7669C44.922 89.9162 44.8153 90.1242 44.8153 90.3909C44.8153 90.6896 44.9646 90.9189 45.2633 91.0789C45.562 91.2282 46.026 91.3829 46.6553 91.5429C47.2953 91.7029 47.8233 91.8682 48.2393 92.0389C48.6553 92.2096 49.0126 92.4762 49.3113 92.8389C49.6206 93.1909 49.7806 93.6602 49.7913 94.2469C49.7913 94.7589 49.6473 95.2176 49.3593 95.6229C49.082 96.0282 48.6766 96.3482 48.1433 96.5829C47.6206 96.8069 47.0073 96.9189 46.3033 96.9189ZM53.87 89.1909C54.158 88.7856 54.5527 88.4496 55.054 88.1829C55.566 87.9056 56.1474 87.7669 56.798 87.7669C57.5554 87.7669 58.238 87.9536 58.846 88.3269C59.4647 88.7002 59.95 89.2336 60.302 89.9269C60.6647 90.6096 60.846 91.4042 60.846 92.3109C60.846 93.2176 60.6647 94.0229 60.302 94.7269C59.95 95.4202 59.4647 95.9589 58.846 96.3429C58.238 96.7269 57.5554 96.9189 56.798 96.9189C56.1474 96.9189 55.5714 96.7856 55.07 96.5189C54.5794 96.2522 54.1794 95.9162 53.87 95.5109V100.999H51.63V87.9109H53.87V89.1909ZM58.558 92.3109C58.558 91.7776 58.446 91.3189 58.222 90.9349C58.0087 90.5402 57.7207 90.2416 57.358 90.0389C57.006 89.8362 56.622 89.7349 56.206 89.7349C55.8007 89.7349 55.4167 89.8416 55.054 90.0549C54.702 90.2576 54.414 90.5562 54.19 90.9509C53.9767 91.3456 53.87 91.8096 53.87 92.3429C53.87 92.8762 53.9767 93.3402 54.19 93.7349C54.414 94.1296 54.702 94.4336 55.054 94.6469C55.4167 94.8496 55.8007 94.9509 56.206 94.9509C56.622 94.9509 57.006 94.8442 57.358 94.6309C57.7207 94.4176 58.0087 94.1136 58.222 93.7189C58.446 93.3242 58.558 92.8549 58.558 92.3109ZM63.6098 86.8549C63.2151 86.8549 62.8845 86.7322 62.6178 86.4869C62.3618 86.2309 62.2338 85.9162 62.2338 85.5429C62.2338 85.1696 62.3618 84.8602 62.6178 84.6149C62.8845 84.3589 63.2151 84.2309 63.6098 84.2309C64.0045 84.2309 64.3298 84.3589 64.5858 84.6149C64.8525 84.8602 64.9858 85.1696 64.9858 85.5429C64.9858 85.9162 64.8525 86.2309 64.5858 86.4869C64.3298 86.7322 64.0045 86.8549 63.6098 86.8549ZM64.7138 87.9109V96.7749H62.4738V87.9109H64.7138ZM69.1669 84.9349V96.7749H66.9269V84.9349H69.1669ZM79.1285 96.9189C78.2752 96.9189 77.5072 96.7322 76.8245 96.3589C76.1419 95.9749 75.6032 95.4362 75.2085 94.7429C74.8245 94.0496 74.6325 93.2496 74.6325 92.3429C74.6325 91.4362 74.8299 90.6362 75.2245 89.9429C75.6299 89.2496 76.1792 88.7162 76.8725 88.3429C77.5659 87.9589 78.3392 87.7669 79.1925 87.7669C80.0459 87.7669 80.8192 87.9589 81.5125 88.3429C82.2059 88.7162 82.7499 89.2496 83.1445 89.9429C83.5499 90.6362 83.7525 91.4362 83.7525 92.3429C83.7525 93.2496 83.5445 94.0496 83.1285 94.7429C82.7232 95.4362 82.1685 95.9749 81.4645 96.3589C80.7712 96.7322 79.9925 96.9189 79.1285 96.9189ZM79.1285 94.9669C79.5339 94.9669 79.9125 94.8709 80.2645 94.6789C80.6272 94.4762 80.9152 94.1776 81.1285 93.7829C81.3419 93.3882 81.4485 92.9082 81.4485 92.3429C81.4485 91.5002 81.2245 90.8549 80.7765 90.4069C80.3392 89.9482 79.8005 89.7189 79.1605 89.7189C78.5205 89.7189 77.9819 89.9482 77.5445 90.4069C77.1179 90.8549 76.9045 91.5002 76.9045 92.3429C76.9045 93.1856 77.1125 93.8362 77.5285 94.2949C77.9552 94.7429 78.4885 94.9669 79.1285 94.9669ZM88.8677 87.7669C89.529 87.7669 90.1103 87.9002 90.6117 88.1669C91.113 88.4229 91.5077 88.7589 91.7957 89.1749V87.9109H94.0517V96.8389C94.0517 97.6602 93.8863 98.3909 93.5557 99.0309C93.225 99.6816 92.729 100.194 92.0677 100.567C91.4063 100.951 90.6063 101.143 89.6677 101.143C88.409 101.143 87.3743 100.85 86.5637 100.263C85.7637 99.6762 85.3103 98.8762 85.2037 97.8629H87.4277C87.545 98.2682 87.7957 98.5882 88.1797 98.8229C88.5743 99.0682 89.049 99.1909 89.6037 99.1909C90.2543 99.1909 90.7823 98.9936 91.1877 98.5989C91.593 98.2149 91.7957 97.6282 91.7957 96.8389V95.4629C91.5077 95.8789 91.1077 96.2256 90.5957 96.5029C90.0943 96.7802 89.5183 96.9189 88.8677 96.9189C88.121 96.9189 87.4383 96.7269 86.8197 96.3429C86.201 95.9589 85.7103 95.4202 85.3477 94.7269C84.9957 94.0229 84.8197 93.2176 84.8197 92.3109C84.8197 91.4149 84.9957 90.6202 85.3477 89.9269C85.7103 89.2336 86.1957 88.7002 86.8037 88.3269C87.4223 87.9536 88.1103 87.7669 88.8677 87.7669ZM91.7957 92.3429C91.7957 91.7989 91.689 91.3349 91.4757 90.9509C91.2623 90.5562 90.9743 90.2576 90.6117 90.0549C90.249 89.8416 89.8597 89.7349 89.4437 89.7349C89.0277 89.7349 88.6437 89.8362 88.2917 90.0389C87.9397 90.2416 87.6517 90.5402 87.4277 90.9349C87.2143 91.3189 87.1077 91.7776 87.1077 92.3109C87.1077 92.8442 87.2143 93.3136 87.4277 93.7189C87.6517 94.1136 87.9397 94.4176 88.2917 94.6309C88.6543 94.8442 89.0383 94.9509 89.4437 94.9509C89.8597 94.9509 90.249 94.8496 90.6117 94.6469C90.9743 94.4336 91.2623 94.1349 91.4757 93.7509C91.689 93.3562 91.7957 92.8869 91.7957 92.3429ZM18.4884 114.911L15.8964 123.775H13.4804L11.8644 117.583L10.2484 123.775H7.81636L5.20836 114.911H7.48036L9.04836 121.663L10.7444 114.911H13.1124L14.7764 121.647L16.3444 114.911H18.4884ZM24.6924 114.783C25.3644 114.783 25.9617 114.932 26.4844 115.231C27.007 115.519 27.4124 115.951 27.7004 116.527C27.999 117.092 28.1484 117.775 28.1484 118.575V123.775H25.9084V118.879C25.9084 118.175 25.7324 117.636 25.3804 117.263C25.0284 116.879 24.5484 116.687 23.9404 116.687C23.3217 116.687 22.831 116.879 22.4684 117.263C22.1164 117.636 21.9404 118.175 21.9404 118.879V123.775H19.7004V111.935H21.9404V116.015C22.2284 115.631 22.6124 115.332 23.0924 115.119C23.5724 114.895 24.1057 114.783 24.6924 114.783ZM34.2145 123.919C33.3612 123.919 32.5932 123.732 31.9105 123.359C31.2278 122.975 30.6892 122.436 30.2945 121.743C29.9105 121.05 29.7185 120.25 29.7185 119.343C29.7185 118.436 29.9158 117.636 30.3105 116.943C30.7158 116.25 31.2652 115.716 31.9585 115.343C32.6518 114.959 33.4252 114.767 34.2785 114.767C35.1318 114.767 35.9052 114.959 36.5985 115.343C37.2918 115.716 37.8358 116.25 38.2305 116.943C38.6358 117.636 38.8385 118.436 38.8385 119.343C38.8385 120.25 38.6305 121.05 38.2145 121.743C37.8092 122.436 37.2545 122.975 36.5505 123.359C35.8572 123.732 35.0785 123.919 34.2145 123.919ZM34.2145 121.967C34.6198 121.967 34.9985 121.871 35.3505 121.679C35.7132 121.476 36.0012 121.178 36.2145 120.783C36.4278 120.388 36.5345 119.908 36.5345 119.343C36.5345 118.5 36.3105 117.855 35.8625 117.407C35.4252 116.948 34.8865 116.719 34.2465 116.719C33.6065 116.719 33.0678 116.948 32.6305 117.407C32.2038 117.855 31.9905 118.5 31.9905 119.343C31.9905 120.186 32.1985 120.836 32.6145 121.295C33.0412 121.743 33.5745 121.967 34.2145 121.967ZM39.9056 119.311C39.9056 118.415 40.0816 117.62 40.4336 116.927C40.7963 116.234 41.2869 115.7 41.9056 115.327C42.5243 114.954 43.2123 114.767 43.9696 114.767C44.5456 114.767 45.0949 114.895 45.6176 115.151C46.1403 115.396 46.5563 115.727 46.8656 116.143V111.935H49.1376V123.775H46.8656V122.463C46.5883 122.9 46.1989 123.252 45.6976 123.519C45.1963 123.786 44.6149 123.919 43.9536 123.919C43.2069 123.919 42.5243 123.727 41.9056 123.343C41.2869 122.959 40.7963 122.42 40.4336 121.727C40.0816 121.023 39.9056 120.218 39.9056 119.311ZM46.8816 119.343C46.8816 118.799 46.7749 118.335 46.5616 117.951C46.3483 117.556 46.0603 117.258 45.6976 117.055C45.3349 116.842 44.9456 116.735 44.5296 116.735C44.1136 116.735 43.7296 116.836 43.3776 117.039C43.0256 117.242 42.7376 117.54 42.5136 117.935C42.3003 118.319 42.1936 118.778 42.1936 119.311C42.1936 119.844 42.3003 120.314 42.5136 120.719C42.7376 121.114 43.0256 121.418 43.3776 121.631C43.7403 121.844 44.1243 121.951 44.5296 121.951C44.9456 121.951 45.3349 121.85 45.6976 121.647C46.0603 121.434 46.3483 121.135 46.5616 120.751C46.7749 120.356 46.8816 119.887 46.8816 119.343ZM59.6934 114.911V123.775H57.4374V122.655C57.1494 123.039 56.7707 123.343 56.3014 123.567C55.8427 123.78 55.3414 123.887 54.7974 123.887C54.104 123.887 53.4907 123.743 52.9574 123.455C52.424 123.156 52.0027 122.724 51.6934 122.159C51.3947 121.583 51.2454 120.9 51.2454 120.111V114.911H53.4854V119.791C53.4854 120.495 53.6614 121.039 54.0134 121.423C54.3654 121.796 54.8454 121.983 55.4534 121.983C56.072 121.983 56.5574 121.796 56.9094 121.423C57.2614 121.039 57.4374 120.495 57.4374 119.791V114.911H59.6934ZM66.8155 114.783C67.8715 114.783 68.7248 115.119 69.3755 115.791C70.0262 116.452 70.3515 117.38 70.3515 118.575V123.775H68.1115V118.879C68.1115 118.175 67.9355 117.636 67.5835 117.263C67.2315 116.879 66.7515 116.687 66.1435 116.687C65.5248 116.687 65.0342 116.879 64.6715 117.263C64.3195 117.636 64.1435 118.175 64.1435 118.879V123.775H61.9035V114.911H64.1435V116.015C64.4422 115.631 64.8208 115.332 65.2795 115.119C65.7488 114.895 66.2608 114.783 66.8155 114.783ZM77.3936 114.783C78.4496 114.783 79.3029 115.119 79.9536 115.791C80.6043 116.452 80.9296 117.38 80.9296 118.575V123.775H78.6896V118.879C78.6896 118.175 78.5136 117.636 78.1616 117.263C77.8096 116.879 77.3296 116.687 76.7216 116.687C76.1029 116.687 75.6123 116.879 75.2496 117.263C74.8976 117.636 74.7216 118.175 74.7216 118.879V123.775H72.4816V114.911H74.7216V116.015C75.0203 115.631 75.3989 115.332 75.8576 115.119C76.3269 114.895 76.8389 114.783 77.3936 114.783ZM84.1957 113.855C83.8011 113.855 83.4704 113.732 83.2037 113.487C82.9477 113.231 82.8197 112.916 82.8197 112.543C82.8197 112.17 82.9477 111.86 83.2037 111.615C83.4704 111.359 83.8011 111.231 84.1957 111.231C84.5904 111.231 84.9157 111.359 85.1717 111.615C85.4384 111.86 85.5717 112.17 85.5717 112.543C85.5717 112.916 85.4384 113.231 85.1717 113.487C84.9157 113.732 84.5904 113.855 84.1957 113.855ZM85.2997 114.911V123.775H83.0597V114.911H85.2997ZM90.1209 116.751V121.039C90.1209 121.338 90.1902 121.556 90.3289 121.695C90.4782 121.823 90.7235 121.887 91.0649 121.887H92.1049V123.775H90.6969C88.8089 123.775 87.8649 122.858 87.8649 121.023V116.751H86.8089V114.911H87.8649V112.719H90.1209V114.911H92.1049V116.751H90.1209Z" fill="black"/>
</svg>
