<svg width="40" height="43" viewBox="0 0 40 43" fill="none" xmlns="http://www.w3.org/2000/svg">
<path d="M37.2344 9.55977C37.2344 9.55977 37.4107 9.92561 37.5915 10.3339C38.7637 12.982 41.5734 20.5159 38.4221 28.3445C35.9249 34.5481 31.0733 37.4896 28.5424 39.0241C25.3599 40.9536 20.4409 43.9793 14.2084 42.6898C5.54469 40.8973 1.78257 32.3272 1.47421 31.5934C-0.49669 26.9023 -0.0356384 22.7246 0.299423 19.689C0.563507 17.2961 1.82679 8.62527 8.13442 3.38111C8.21167 3.31672 8.3125 3.23317 8.45253 3.12313C13.3498 -0.726393 19.3897 -0.0410085 21.6557 0.216079C25.3353 0.769378 28.8683 2.10876 32.0372 4.15177C35.6558 6.55074 36.9405 8.97754 37.2344 9.55977Z" fill="black"/>
<path d="M33.3739 24.8628L32.4425 23.9531C32.1111 23.629 31.6695 23.4505 31.199 23.4505C30.8981 23.4505 30.6093 23.5238 30.3533 23.6612L28.5981 21.9442L28.6836 21.8606C29.3957 21.1618 29.3954 20.0263 28.6835 19.3299C28.4292 19.0803 28.1117 18.9139 27.7657 18.8438C27.8134 18.6828 27.8384 18.5141 27.8384 18.3414C27.8384 17.8618 27.6482 17.412 27.3038 17.0761C27.0494 16.8265 26.732 16.66 26.386 16.59C26.4336 16.429 26.4587 16.2603 26.4587 16.0876C26.4587 15.6079 26.2685 15.1582 25.9235 14.8218C25.663 14.5669 25.3427 14.4056 25.0065 14.337C25.1864 13.7295 25.0326 13.0461 24.5447 12.5674C24.1386 12.1713 23.5874 12.001 23.0563 12.0562L19.5782 11.4114C19.0477 11.3129 18.3853 11.2477 17.9671 11.6213C17.9408 11.6448 17.9138 11.672 17.8874 11.7022C17.239 11.4707 16.4828 11.6085 15.9636 12.1165C15.6192 12.4534 15.4294 12.903 15.4294 13.3824C15.4294 13.5551 15.4544 13.7237 15.502 13.8848C15.1564 13.9548 14.8394 14.121 14.5858 14.3698C14.2407 14.7064 14.0504 15.1555 14.05 15.6344C14.0499 15.8075 14.075 15.9767 14.1228 16.1382C13.777 16.208 13.4598 16.3739 13.2055 16.6227C12.8603 16.9604 12.6703 17.4102 12.6703 17.8893C12.6703 18.2564 12.7822 18.606 12.9895 18.9014C12.7277 18.9883 12.488 19.1329 12.2872 19.3293C11.5746 20.0263 11.5744 21.1618 12.2876 21.8616L12.3728 21.9447L10.6174 23.6608C9.96502 23.36 9.16124 23.4727 8.62288 23.9993L7.69088 24.9095C7.35938 25.2337 7.17687 25.6663 7.17682 26.1274C7.17682 26.5886 7.35938 27.0212 7.69088 27.3455L8.85402 28.4833C9.06004 28.6848 9.3939 28.6846 9.59965 28.4828C9.80545 28.2811 9.80524 27.9541 9.59923 27.7526L8.43608 26.6148C8.30405 26.4857 8.23133 26.3126 8.23133 26.1275C8.23133 25.9424 8.30405 25.7694 8.43577 25.6405L9.36782 24.7302C9.60069 24.5024 9.95712 24.4685 10.2278 24.627C10.2468 24.655 10.2689 24.6817 10.2941 24.7064C10.3393 24.7508 10.3909 24.7848 10.4456 24.8097L15.7906 30.0367C15.816 30.0909 15.8508 30.1419 15.8963 30.1865C15.9406 30.23 15.9912 30.2636 16.0448 30.2883C16.1578 30.4134 16.2203 30.5733 16.2203 30.7438C16.2203 30.9289 16.1475 31.102 16.0155 31.2312L15.0844 32.142C14.8093 32.4103 14.3617 32.4102 14.0875 32.1428L12.9243 31.0035C12.7184 30.8019 12.3846 30.8019 12.1787 31.0035C11.9728 31.2052 11.9728 31.5321 12.1787 31.7338L13.3427 32.8739C13.6853 33.208 14.1352 33.375 14.5853 33.375C15.0356 33.375 15.486 33.2078 15.8291 32.8733L16.7608 31.9619C17.0923 31.6376 17.2748 31.2051 17.2748 30.7438C17.2748 30.4147 17.1814 30.1004 17.0076 29.8294L18.9832 27.8968C18.9853 27.8947 18.9874 27.8926 18.9896 27.8905C19.2158 27.6615 19.8458 27.7043 20.455 27.7458C20.8879 27.7753 21.3704 27.808 21.8419 27.7548L24.0054 29.8712C23.8653 30.1214 23.7904 30.4039 23.7904 30.6982C23.7904 31.1589 23.973 31.5912 24.3045 31.9155L25.2363 32.8269C25.5675 33.151 26.0091 33.3295 26.4797 33.3295C26.9502 33.3295 27.3918 33.151 27.7232 32.8269L33.3743 27.299C33.7058 26.9747 33.8883 26.5422 33.8883 26.081C33.8883 25.6199 33.7057 25.1873 33.3739 24.8628V24.8628ZM19.3818 12.4262L21.669 12.8502L20.3 14.1904C20.0883 14.0907 19.798 13.9048 19.4796 13.6065C19.0437 13.1982 18.732 12.7267 18.7036 12.4326C18.7035 12.4325 18.7035 12.4323 18.7035 12.4322C18.7035 12.4321 18.7035 12.4321 18.7035 12.432C18.7015 12.4109 18.7009 12.394 18.7012 12.3811C18.7701 12.3647 18.9533 12.3465 19.3818 12.4262ZM16.7088 12.8472C16.9759 12.5858 17.3908 12.5557 17.6926 12.7559C17.8637 13.4582 18.4754 14.0948 18.7507 14.3527C18.9546 14.5438 19.6091 15.1169 20.2697 15.2745C20.3591 15.3999 20.4077 15.5495 20.4077 15.7073C20.4077 15.9106 20.3279 16.1007 20.1824 16.243C20.0373 16.3854 19.8429 16.4637 19.635 16.4637C19.427 16.4637 19.2326 16.3854 19.0868 16.2424L19.0868 16.2423L19.0865 16.2421L16.7087 13.9175C16.5637 13.7757 16.4839 13.5856 16.4839 13.3824C16.484 13.1791 16.5638 12.989 16.7088 12.8472V12.8472ZM15.331 15.1005C15.4761 14.9582 15.6703 14.8798 15.8779 14.8798C16.0858 14.8798 16.2806 14.9584 16.4266 15.1013L18.3413 16.9727C18.6428 17.2685 18.6428 17.7497 18.3424 18.0445C18.1965 18.1867 18.0014 18.2651 17.7931 18.2651C17.5848 18.2651 17.3897 18.1867 17.2445 18.0451L17.2444 18.045L15.7919 16.6227C15.7896 16.6205 15.7872 16.6185 15.7849 16.6162L15.3304 16.1713C15.1846 16.0287 15.1044 15.8383 15.1045 15.6351C15.1048 15.4326 15.1847 15.2432 15.331 15.1005V15.1005ZM13.9507 17.3534C14.0958 17.2115 14.2904 17.1333 14.4987 17.1333C14.7052 17.1333 14.8982 17.2103 15.0427 17.3498L16.4997 18.7761C16.645 18.9179 16.725 19.1077 16.725 19.3108C16.725 19.5138 16.645 19.7036 16.4991 19.8459C16.354 19.9879 16.1596 20.066 15.9517 20.066C15.7435 20.066 15.5485 19.9877 15.4032 19.8459L14.875 19.3292C14.8749 19.3291 14.8747 19.329 14.8746 19.3289L13.9507 18.4251C13.8051 18.2826 13.7249 18.0923 13.7249 17.8892C13.7249 17.6863 13.8051 17.4959 13.9507 17.3534V17.3534ZM13.0324 20.06C13.1782 19.9174 13.373 19.8388 13.581 19.8388C13.789 19.8388 13.9838 19.9173 14.1296 20.0598L14.6585 20.5773C14.8038 20.719 14.8838 20.9088 14.8838 21.1119C14.8838 21.3149 14.8038 21.5048 14.6574 21.6476C14.5123 21.7899 14.3179 21.8683 14.11 21.8683C13.902 21.8683 13.7076 21.7899 13.5615 21.6466L13.4952 21.582C13.4943 21.5811 13.4937 21.5802 13.4928 21.5794C13.4918 21.5784 13.4908 21.5776 13.4898 21.5767L13.0329 21.131C12.7314 20.8351 12.7311 20.3547 13.0324 20.06ZM23.7772 25.9288C23.5713 25.7269 23.2375 25.7268 23.0315 25.9283L22.5624 26.3872C22.1167 26.8237 21.309 26.7687 20.528 26.7157C19.6798 26.6579 18.8027 26.5984 18.2351 27.169L16.2931 29.0688L11.4366 24.3194L13.1553 22.6392C13.4393 22.8097 13.7671 22.9011 14.1101 22.9011C14.6001 22.9011 15.0595 22.7151 15.4027 22.3784C15.7482 22.0414 15.9385 21.5917 15.9385 21.1119C15.9385 21.1075 15.9382 21.1031 15.9382 21.0986C15.9427 21.0987 15.9473 21.0989 15.9518 21.0989C16.4411 21.0989 16.9002 20.9135 17.2439 20.5773C17.5894 20.2403 17.7797 19.7906 17.7797 19.3109C17.7797 19.3064 17.7793 19.302 17.7793 19.2975C17.784 19.2975 17.7886 19.2979 17.7932 19.2979C18.2824 19.2979 18.7417 19.1126 19.0877 18.7752C19.4468 18.4229 19.6245 17.959 19.621 17.4962C19.6258 17.4962 19.6305 17.4965 19.6352 17.4965C20.1252 17.4964 20.5846 17.3105 20.9283 16.9732C21.2727 16.6363 21.4624 16.1867 21.4624 15.7073C21.4624 15.372 21.3693 15.0515 21.1958 14.7739L22.7022 13.2992C22.8144 13.1897 22.9528 13.121 23.0979 13.0926C23.1136 13.091 23.1291 13.0885 23.1445 13.0856C23.3772 13.0541 23.6217 13.1245 23.7997 13.2981C24.1012 13.5939 24.1012 14.0751 23.8008 14.3699L23.342 14.8173C23.3405 14.8188 23.3388 14.8202 23.3373 14.8217L22.8089 15.3383C22.6029 15.5398 22.6026 15.8668 22.8085 16.0685C23.0143 16.2704 23.3481 16.2705 23.5541 16.069L24.0147 15.6185C24.0148 15.6184 24.0149 15.6183 24.015 15.6182L24.0846 15.5503C24.387 15.2569 24.8768 15.2575 25.1788 15.5529C25.3242 15.6946 25.4042 15.8845 25.4042 16.0875C25.4042 16.2905 25.3242 16.4804 25.1777 16.6232L24.7163 17.076C24.7162 17.0761 24.7162 17.0761 24.7161 17.0762L24.1878 17.5916C23.9814 17.7929 23.9808 18.1198 24.1862 18.3218C24.3917 18.5239 24.7255 18.5245 24.9319 18.3233L25.4626 17.8056C25.6077 17.6633 25.8021 17.5849 26.01 17.5849C26.218 17.5849 26.4125 17.6633 26.5586 17.8066C26.7039 17.9484 26.7839 18.1383 26.7839 18.3413C26.7839 18.5443 26.7039 18.7342 26.5578 18.8767L25.6379 19.778C25.4321 19.9797 25.4321 20.3066 25.638 20.5082C25.741 20.609 25.8759 20.6594 26.0108 20.6594C26.1457 20.6594 26.2807 20.6089 26.3836 20.5081L26.8345 20.0664C26.837 20.064 26.8398 20.0619 26.8424 20.0594C26.9874 19.917 27.1818 19.8387 27.3898 19.8387C27.5978 19.8387 27.7922 19.917 27.9378 20.0599C28.2389 20.3546 28.2387 20.835 27.9378 21.1303L27.4794 21.5786C27.4792 21.5788 27.479 21.579 27.4789 21.5791C27.4787 21.5793 27.4786 21.5795 27.4784 21.5796L26.7509 22.2913C26.5449 22.4928 26.5447 22.8198 26.7504 23.0216C26.8534 23.1225 26.9885 23.173 27.1235 23.173C27.2583 23.173 27.3932 23.1227 27.4961 23.022L27.852 22.6739L29.5575 24.3423L24.7014 29.0925L22.9615 27.3905C23.0828 27.3141 23.1989 27.2243 23.3078 27.1176L23.7766 26.659C23.9827 26.4575 23.983 26.1305 23.7772 25.9288V25.9288ZM32.629 26.5683L26.9779 32.0962C26.8457 32.2255 26.6688 32.2967 26.4797 32.2967C26.2906 32.2967 26.1136 32.2255 25.9813 32.0961L25.0496 31.1847C24.9176 31.0556 24.8449 30.8828 24.8449 30.6982C24.8449 30.5136 24.9176 30.3408 25.0496 30.2116L30.7007 24.6837C30.833 24.5544 31.0099 24.4831 31.199 24.4831C31.3881 24.4831 31.5651 24.5544 31.6976 24.684L32.6291 25.5937C32.7611 25.7228 32.8338 25.8958 32.8338 26.0809C32.8338 26.2661 32.7611 26.4392 32.629 26.5683V26.5683Z" fill="#C99D2B"/>
</svg>
