<svg width="140" height="65" viewBox="0 0 140 65" fill="none" xmlns="http://www.w3.org/2000/svg">
<path d="M14.9375 14.376C18.8035 14.376 21.9375 11.2614 21.9375 7.41942C21.9375 3.57744 18.8035 0.462891 14.9375 0.462891C11.0715 0.462891 7.9375 3.57744 7.9375 7.41942C7.9375 11.2614 11.0715 14.376 14.9375 14.376Z" fill="white"/>
<path d="M20.9375 16.7614H8.93751C6.8177 16.7676 4.78651 17.6072 3.28757 19.0968C1.78863 20.5865 0.943765 22.605 0.9375 24.7117V38.0682C0.9375 39.416 1.99125 40.5626 3.34625 40.6111C3.68205 40.6233 4.01688 40.5681 4.33072 40.4487C4.64456 40.3294 4.93098 40.1485 5.17286 39.9167C5.41474 39.6849 5.60712 39.407 5.7385 39.0996C5.86988 38.7923 5.93756 38.4618 5.93751 38.1278V25.739C5.93433 25.4826 6.0288 25.2345 6.20197 25.0444C6.37515 24.8544 6.61422 24.7364 6.87126 24.7142C7.00805 24.7051 7.14524 24.7242 7.27432 24.77C7.4034 24.8159 7.5216 24.8877 7.6216 24.9809C7.72159 25.0741 7.80123 25.1867 7.85558 25.3118C7.90992 25.4369 7.93781 25.5717 7.93751 25.7079V61.6061C7.93751 62.3639 8.24041 63.0906 8.77958 63.6264C9.31875 64.1623 10.05 64.4633 10.8125 64.4633C11.575 64.4633 12.3063 64.1623 12.8455 63.6264C13.3846 63.0906 13.6875 62.3639 13.6875 61.6061V43.8844C13.6831 43.5636 13.8008 43.253 14.0171 43.0148C14.2334 42.7766 14.5322 42.6284 14.8538 42.5999C15.0248 42.5885 15.1964 42.6122 15.3579 42.6695C15.5193 42.7267 15.6672 42.8164 15.7923 42.933C15.9174 43.0495 16.017 43.1903 16.085 43.3467C16.153 43.5031 16.1879 43.6718 16.1875 43.8421V61.6061C16.1875 62.3639 16.4904 63.0906 17.0296 63.6264C17.5688 64.1623 18.3 64.4633 19.0625 64.4633C19.825 64.4633 20.5563 64.1623 21.0955 63.6264C21.6346 63.0906 21.9375 62.3639 21.9375 61.6061V25.739C21.9344 25.4826 22.0288 25.2345 22.202 25.0444C22.3752 24.8544 22.6142 24.7364 22.8713 24.7142C23.0081 24.7051 23.1453 24.7242 23.2743 24.77C23.4034 24.8159 23.5216 24.8877 23.6216 24.9809C23.7216 25.0741 23.8013 25.1867 23.8556 25.3118C23.91 25.4369 23.9378 25.5717 23.9375 25.7079V38.0707C23.9375 39.4185 24.9913 40.5651 26.3463 40.6136C26.6823 40.6258 27.0173 40.5705 27.3313 40.451C27.6453 40.3315 27.9319 40.1504 28.1738 39.9183C28.4157 39.6862 28.608 39.4081 28.7393 39.1004C28.8705 38.7928 28.9379 38.462 28.9375 38.1278V24.7117C28.9313 22.605 28.0864 20.5865 26.5875 19.0968C25.0885 17.6072 23.0573 16.7676 20.9375 16.7614Z" fill="white"/>
<path d="M51.7368 14.376C55.6028 14.376 58.7368 11.2614 58.7368 7.41942C58.7368 3.57744 55.6028 0.462891 51.7368 0.462891C47.8708 0.462891 44.7368 3.57744 44.7368 7.41942C44.7368 11.2614 47.8708 14.376 51.7368 14.376Z" fill="white"/>
<path d="M57.7368 16.3637H45.7368C43.617 16.3699 41.5858 17.2096 40.0869 18.6992C38.5879 20.1888 37.7431 22.2074 37.7368 24.314V37.6706C37.7368 39.0184 38.7906 40.165 40.1456 40.2134C40.4814 40.2256 40.8162 40.1704 41.13 40.0511C41.4439 39.9318 41.7303 39.7508 41.9722 39.519C42.2141 39.2872 42.4064 39.0094 42.5378 38.702C42.6692 38.3947 42.7369 38.0641 42.7368 37.7302V25.3414C42.7336 25.085 42.8281 24.8369 43.0013 24.6468C43.1745 24.4567 43.4135 24.3388 43.6706 24.3165C43.8074 24.3075 43.9446 24.3265 44.0736 24.3724C44.2027 24.4183 44.3209 24.49 44.4209 24.5832C44.5209 24.6764 44.6005 24.7891 44.6549 24.9142C44.7092 25.0392 44.7371 25.1741 44.7368 25.3103V61.2085C44.7368 61.9663 45.0397 62.693 45.5789 63.2288C46.1181 63.7646 46.8493 64.0656 47.6118 64.0656C48.3743 64.0656 49.1056 63.7646 49.6448 63.2288C50.1839 62.693 50.4868 61.9663 50.4868 61.2085V43.4867C50.4824 43.1659 50.6001 42.8553 50.8164 42.6171C51.0327 42.3789 51.3315 42.2307 51.6531 42.2023C51.8241 42.1908 51.9957 42.2145 52.1572 42.2718C52.3187 42.3291 52.4665 42.4188 52.5916 42.5353C52.7167 42.6518 52.8164 42.7927 52.8844 42.9491C52.9523 43.1055 52.9872 43.2741 52.9868 43.4445V61.2085C52.9868 61.9663 53.2897 62.693 53.8289 63.2288C54.3681 63.7646 55.0993 64.0656 55.8618 64.0656C56.6243 64.0656 57.3556 63.7646 57.8948 63.2288C58.4339 62.693 58.7368 61.9663 58.7368 61.2085V25.3414C58.7337 25.085 58.8281 24.8369 59.0013 24.6468C59.1745 24.4567 59.4136 24.3388 59.6706 24.3165C59.8074 24.3075 59.9446 24.3265 60.0737 24.3724C60.2027 24.4183 60.3209 24.49 60.4209 24.5832C60.5209 24.6764 60.6006 24.7891 60.6549 24.9142C60.7093 25.0392 60.7372 25.1741 60.7369 25.3103V37.6731C60.7369 39.0209 61.7906 40.1675 63.1456 40.2159C63.4816 40.2281 63.8166 40.1728 64.1307 40.0534C64.4447 39.9339 64.7312 39.7527 64.9731 39.5207C65.215 39.2886 65.4074 39.0104 65.5386 38.7028C65.6698 38.3951 65.7373 38.0643 65.7369 37.7302V24.314C65.7306 22.2074 64.8857 20.1888 63.3868 18.6992C61.8879 17.2096 59.8567 16.3699 57.7368 16.3637Z" fill="white"/>
<path d="M88.5381 14.376C92.4041 14.376 95.5381 11.2614 95.5381 7.41942C95.5381 3.57744 92.4041 0.462891 88.5381 0.462891C84.6721 0.462891 81.5381 3.57744 81.5381 7.41942C81.5381 11.2614 84.6721 14.376 88.5381 14.376Z" fill="white"/>
<path d="M94.5381 16.3637H82.5381C80.4183 16.3699 78.3871 17.2096 76.8882 18.6992C75.3892 20.1888 74.5444 22.2074 74.5381 24.314V37.6706C74.5381 39.0184 75.5918 40.165 76.9468 40.2134C77.2826 40.2256 77.6175 40.1704 77.9313 40.0511C78.2451 39.9318 78.5316 39.7508 78.7734 39.519C79.0153 39.2872 79.2077 39.0094 79.3391 38.702C79.4705 38.3947 79.5381 38.0641 79.5381 37.7302V25.3414C79.5349 25.085 79.6294 24.8369 79.8026 24.6468C79.9757 24.4567 80.2148 24.3388 80.4718 24.3165C80.6086 24.3075 80.7458 24.3265 80.8749 24.3724C81.004 24.4183 81.1222 24.49 81.2222 24.5832C81.3222 24.6764 81.4018 24.7891 81.4562 24.9142C81.5105 25.0392 81.5384 25.1741 81.5381 25.3103V61.2085C81.5381 61.9663 81.841 62.693 82.3802 63.2288C82.9193 63.7646 83.6506 64.0656 84.4131 64.0656C85.1756 64.0656 85.9069 63.7646 86.446 63.2288C86.9852 62.693 87.2881 61.9663 87.2881 61.2085V43.4867C87.2837 43.1659 87.4014 42.8553 87.6177 42.6171C87.8339 42.3789 88.1328 42.2307 88.4544 42.2023C88.6254 42.1908 88.797 42.2145 88.9585 42.2718C89.1199 42.3291 89.2678 42.4188 89.3929 42.5353C89.518 42.6518 89.6176 42.7927 89.6856 42.9491C89.7536 43.1055 89.7885 43.2741 89.7881 43.4445V61.2085C89.7881 61.9663 90.091 62.693 90.6302 63.2288C91.1693 63.7646 91.9006 64.0656 92.6631 64.0656C93.4256 64.0656 94.1569 63.7646 94.696 63.2288C95.2352 62.693 95.5381 61.9663 95.5381 61.2085V25.3414C95.5349 25.085 95.6294 24.8369 95.8026 24.6468C95.9758 24.4567 96.2148 24.3388 96.4719 24.3165C96.6087 24.3075 96.7458 24.3265 96.8749 24.3724C97.004 24.4183 97.1222 24.49 97.2222 24.5832C97.3222 24.6764 97.4018 24.7891 97.4562 24.9142C97.5105 25.0392 97.5384 25.1741 97.5381 25.3103V37.6731C97.5381 39.0209 98.5919 40.1675 99.9469 40.2159C100.283 40.2281 100.618 40.1728 100.932 40.0534C101.246 39.9339 101.532 39.7527 101.774 39.5207C102.016 39.2886 102.209 39.0104 102.34 38.7028C102.471 38.3951 102.539 38.0643 102.538 37.7302V24.314C102.532 22.2074 101.687 20.1888 100.188 18.6992C98.6891 17.2096 96.6579 16.3699 94.5381 16.3637Z" fill="white"/>
<path d="M125.337 14.376C129.203 14.376 132.337 11.2614 132.337 7.41942C132.337 3.57744 129.203 0.462891 125.337 0.462891C121.471 0.462891 118.337 3.57744 118.337 7.41942C118.337 11.2614 121.471 14.376 125.337 14.376Z" fill="white"/>
<path d="M131.337 16.3637H119.337C117.218 16.3699 115.186 17.2096 113.687 18.6992C112.189 20.1888 111.344 22.2074 111.337 24.314V37.6706C111.337 39.0184 112.391 40.165 113.746 40.2134C114.082 40.2256 114.417 40.1704 114.731 40.0511C115.044 39.9318 115.331 39.7508 115.573 39.519C115.815 39.2872 116.007 39.0094 116.138 38.702C116.27 38.3947 116.337 38.0641 116.337 37.7302V25.3414C116.334 25.085 116.429 24.8369 116.602 24.6468C116.775 24.4567 117.014 24.3388 117.271 24.3165C117.408 24.3075 117.545 24.3265 117.674 24.3724C117.803 24.4183 117.922 24.49 118.021 24.5832C118.121 24.6764 118.201 24.7891 118.255 24.9142C118.31 25.0392 118.338 25.1741 118.337 25.3103V61.2085C118.337 61.9663 118.64 62.693 119.179 63.2288C119.719 63.7646 120.45 64.0656 121.212 64.0656C121.975 64.0656 122.706 63.7646 123.245 63.2288C123.785 62.693 124.087 61.9663 124.087 61.2085V43.4867C124.083 43.1659 124.201 42.8553 124.417 42.6171C124.633 42.3789 124.932 42.2307 125.254 42.2023C125.425 42.1908 125.596 42.2145 125.758 42.2718C125.919 42.3291 126.067 42.4188 126.192 42.5353C126.317 42.6518 126.417 42.7927 126.485 42.9491C126.553 43.1055 126.588 43.2741 126.587 43.4445V61.2085C126.587 61.9663 126.89 62.693 127.429 63.2288C127.969 63.7646 128.7 64.0656 129.462 64.0656C130.225 64.0656 130.956 63.7646 131.495 63.2288C132.035 62.693 132.337 61.9663 132.337 61.2085V25.3414C132.334 25.085 132.429 24.8369 132.602 24.6468C132.775 24.4567 133.014 24.3388 133.271 24.3165C133.408 24.3075 133.545 24.3265 133.674 24.3724C133.803 24.4183 133.922 24.49 134.022 24.5832C134.122 24.6764 134.201 24.7891 134.256 24.9142C134.31 25.0392 134.338 25.1741 134.337 25.3103V37.6731C134.337 39.0209 135.391 40.1675 136.746 40.2159C137.082 40.2281 137.417 40.1728 137.731 40.0534C138.045 39.9339 138.332 39.7527 138.574 39.5207C138.816 39.2886 139.008 39.0104 139.139 38.7028C139.27 38.3951 139.338 38.0643 139.337 37.7302V24.314C139.331 22.2074 138.486 20.1888 136.987 18.6992C135.488 17.2096 133.457 16.3699 131.337 16.3637Z" fill="white"/>
</svg>
