<svg width="98" height="132" viewBox="0 0 98 132" fill="none" xmlns="http://www.w3.org/2000/svg">
<path d="M74.6318 13.3468C74.6318 13.3468 74.8905 13.8576 75.1557 14.4276C76.8757 18.1247 80.9981 28.6432 76.3744 39.573C72.7105 48.2341 65.5921 52.3408 61.8786 54.4832C57.209 57.1771 49.9918 61.4015 40.8472 59.6011C28.1354 57.0984 22.6155 45.1334 22.163 44.109C19.2712 37.5594 19.9477 31.7269 20.4393 27.4886C20.8268 24.1478 22.6803 12.0421 31.9352 4.72051C32.0485 4.63062 32.1964 4.51398 32.4019 4.36034C39.5874 -1.01415 48.4493 -0.0572538 51.7741 0.301677C57.173 1.07416 62.3568 2.94413 67.0063 5.79647C72.3156 9.14578 74.2006 12.5339 74.6318 13.3468Z" fill="#C99D2B"/>
<path d="M63.321 47.0044H35.6791C34.8112 47.0026 34.0926 46.3299 34.0331 45.464L33.0798 31.1606C33.0494 30.7051 33.2091 30.257 33.5209 29.9234C33.8331 29.5898 34.2692 29.4004 34.726 29.4004H64.2741C64.731 29.4004 65.167 29.5898 65.4792 29.9234C65.791 30.257 65.9507 30.7051 65.9203 31.1606L64.967 45.464C64.9076 46.3299 64.1889 47.0026 63.321 47.0044V47.0044ZM34.726 30.5006C34.5735 30.5004 34.4279 30.5632 34.3236 30.6742C34.2195 30.7854 34.1661 30.9349 34.1761 31.087L35.129 45.3905C35.1482 45.6798 35.3891 45.9046 35.6791 45.9042H63.321C63.6111 45.9048 63.8518 45.6804 63.8711 45.3909L64.824 31.0876C64.8341 30.9355 64.7807 30.7863 64.6766 30.6748C64.5722 30.5638 64.4266 30.5008 64.2741 30.501L34.726 30.5006Z" fill="black"/>
<path d="M60.751 43.7002H38.252C37.6723 43.6998 37.192 43.2514 37.1517 42.6733L36.565 33.8728C36.5446 33.5686 36.6516 33.2693 36.8602 33.0471C37.0685 32.8245 37.3601 32.6986 37.6651 32.6992H46.2015C46.5052 32.6992 46.7514 32.9456 46.7514 33.2495C46.7514 33.5531 46.5052 33.7994 46.2015 33.7994H37.6651L38.252 42.6002H60.751L61.3379 33.7994H52.8015C52.4978 33.7994 52.2516 33.5531 52.2516 33.2495C52.2516 32.9456 52.4978 32.6992 52.8015 32.6992H61.3379C61.6431 32.6986 61.9347 32.8247 62.1432 33.0473C62.3516 33.2697 62.4586 33.5688 62.4381 33.8732L61.8513 42.6737C61.8108 43.2516 61.3305 43.7 60.751 43.7002V43.7002Z" fill="black"/>
<path d="M65.4499 21.7002H33.5501C33.2461 21.7002 33 21.4539 33 21.1503V20.6002C33.004 16.9567 35.9566 14.004 39.6 14H59.4C63.0434 14.004 65.996 16.9567 66 20.6002V21.1503C66 21.4539 65.7539 21.7002 65.4499 21.7002V21.7002ZM34.0999 20.6002H64.9001C64.8966 17.564 62.4361 15.1034 59.4 15.1H39.6C36.5639 15.1034 34.1034 17.564 34.0999 20.6002V20.6002Z" fill="black"/>
<path d="M62.7036 21.7002H36.3036C35.9999 21.7002 35.7538 21.4539 35.7538 21.1503V20.0503C35.7538 16.375 38.5587 14 42.9036 14H56.1036C60.4486 14 63.2535 16.375 63.2535 20.0503V21.1503C63.2535 21.4539 63.0074 21.7002 62.7036 21.7002V21.7002ZM36.8537 20.6002H62.1536V20.0503C62.1536 16.4002 59.0282 15.1 56.1036 15.1H42.9036C39.9791 15.1 36.8537 16.4002 36.8537 20.0503V20.6002Z" fill="black"/>
<path d="M49.5024 38.2007C47.3773 38.1985 45.655 36.4759 45.6523 34.3506V29.9503C45.6523 29.6465 45.8987 29.4004 46.2024 29.4004H52.8024C53.1061 29.4004 53.3525 29.6465 53.3525 29.9503V34.3506C53.3499 36.4759 51.6276 38.1985 49.5024 38.2007ZM46.7523 30.5004V34.3506C46.7523 35.8694 47.9837 37.1007 49.5024 37.1007C51.0211 37.1007 52.2525 35.8694 52.2525 34.3506V30.5004H46.7523Z" fill="black"/>
<path d="M49.5016 34.8989C48.5904 34.8989 47.8516 34.1605 47.8516 33.2495C47.8516 32.3383 48.5904 31.5996 49.5016 31.5996C50.4128 31.5996 51.1516 32.3383 51.1516 33.2495C51.1516 34.1605 50.4128 34.8989 49.5016 34.8989V34.8989ZM49.5016 32.6993C49.1978 32.6993 48.9515 32.9456 48.9515 33.2495C48.9515 33.5529 49.1978 33.7992 49.5016 33.7992C49.8053 33.7992 50.0516 33.5529 50.0516 33.2495C50.0516 32.9456 49.8053 32.6993 49.5016 32.6993Z" fill="black"/>
<path d="M62.3155 19.501H36.6748C36.3709 19.501 36.1248 19.2547 36.1248 18.9508C36.1248 18.6469 36.3709 18.4004 36.6748 18.4004H62.3155C62.6194 18.4004 62.8656 18.6469 62.8656 18.9508C62.8656 19.2547 62.6194 19.501 62.3155 19.501Z" fill="black"/>
<path d="M61.0199 17.3001H37.9747C37.6712 17.3001 37.4246 17.0538 37.4246 16.7502C37.4246 16.4463 37.6712 16.2 37.9747 16.2H61.0199C61.3234 16.2 61.57 16.4463 61.57 16.7502C61.57 17.0538 61.3234 17.3001 61.0199 17.3001Z" fill="black"/>
<path d="M49.5032 36.0015C49.1995 36.0015 48.9531 35.7553 48.9531 35.4515V34.3514C48.9531 34.0474 49.1995 33.8013 49.5032 33.8013C49.8069 33.8013 50.0533 34.0474 50.0533 34.3514V35.4515C50.0533 35.7553 49.8069 36.0015 49.5032 36.0015Z" fill="black"/>
<path d="M61.704 37.1035H51.9524C51.6487 37.1035 51.4023 36.8571 51.4023 36.5534C51.4023 36.2494 51.6487 36.0029 51.9524 36.0029H61.704C62.0075 36.0029 62.2538 36.2494 62.2538 36.5534C62.2538 36.8571 62.0075 37.1035 61.704 37.1035Z" fill="black"/>
<path d="M47.0456 37.1035H37.294C36.9905 37.1035 36.7441 36.8571 36.7441 36.5534C36.7441 36.2494 36.9905 36.0029 37.294 36.0029H47.0456C47.3493 36.0029 47.5956 36.2494 47.5956 36.5534C47.5956 36.8571 47.3493 37.1035 47.0456 37.1035V37.1035Z" fill="black"/>
<path d="M61.4838 40.4023H37.5149C37.2112 40.4023 36.9648 40.1563 36.9648 39.8524C36.9648 39.549 37.2112 39.3027 37.5149 39.3027H61.4838C61.7875 39.3027 62.0339 39.549 62.0339 39.8524C62.0339 40.1563 61.7875 40.4023 61.4838 40.4023Z" fill="black"/>
<path d="M53.5574 26.1548C53.495 26.1548 53.433 26.1439 53.3743 26.1228L53.354 26.1179C53.1631 26.0715 53.0114 25.9265 52.9562 25.7381C52.901 25.5493 52.9508 25.3458 53.0865 25.2035C53.2223 25.0618 53.4237 25.0028 53.6148 25.0493L53.6511 25.0586C53.7045 25.0719 53.7564 25.0902 53.8062 25.1137C54.0763 25.255 54.182 25.5874 54.043 25.8585C53.949 26.0396 53.7619 26.154 53.5574 26.1548Z" fill="black"/>
<path d="M61.5994 30.502C61.5236 30.5022 61.4485 30.4862 61.3792 30.4556C61.2457 30.3974 61.1407 30.2882 61.0871 30.1525C61.0342 30.0165 61.0372 29.865 61.0956 29.7313L64.9455 20.9305C65.0728 20.6618 65.3902 20.5429 65.6627 20.6618C65.935 20.7808 66.0635 21.0947 65.953 21.3706L62.1031 30.1714C62.0157 30.372 61.8179 30.5017 61.5994 30.502V30.502Z" fill="black"/>
<path d="M45.3182 25.9399C45.0369 25.9403 44.801 25.7285 44.7708 25.4494C44.7406 25.1701 44.9259 24.9127 45.2002 24.8529C47.1624 24.4292 49.1818 24.339 51.1738 24.5863C51.4731 24.6266 51.6842 24.9008 51.6459 25.2005C51.6078 25.5001 51.3351 25.713 51.0352 25.6773C49.1685 25.4466 47.2762 25.5311 45.4375 25.9274C45.3982 25.9359 45.3581 25.9403 45.3182 25.9399Z" fill="black"/>
<path d="M37.3994 30.5005C37.1807 30.5005 36.9827 30.3712 36.8951 30.1704L33.045 21.3705C32.9346 21.0946 33.0631 20.781 33.3356 20.6618C33.608 20.5429 33.9256 20.6618 34.0527 20.9305L37.9028 29.7307C38.024 30.0087 37.8975 30.3326 37.6196 30.4542C37.5503 30.4848 37.4751 30.5007 37.3994 30.5005V30.5005Z" fill="black"/>
<path d="M60.2278 30.0907C60.1293 30.0905 60.0328 30.0644 59.9482 30.0142L50.6825 24.5407C50.4909 24.4273 50.3862 24.2098 50.4176 23.9897C50.4488 23.7689 50.61 23.5892 50.8255 23.534L53.5049 22.845C53.6463 22.8079 53.7966 22.8291 53.9219 22.9036L56.0202 24.1433L56.0281 24.1484L59.8187 26.3873C59.9442 26.4616 60.0352 26.5827 60.0715 26.7241L60.7607 29.4037C60.803 29.5683 60.7668 29.7435 60.6627 29.8776C60.5583 30.0122 60.3978 30.0907 60.2278 30.0907ZM52.3855 24.2688L59.3641 28.3938L59.0628 27.2208L57.1647 26.0999L57.1526 26.0926L53.5585 23.9691L52.3855 24.2688Z" fill="black"/>
<path d="M55.4099 30.5011C55.1779 30.5015 54.9708 30.3564 54.8916 30.1385C54.8125 29.9206 54.8788 29.6763 55.0574 29.5282L57.078 27.848L56.5334 25.7259L55.9283 25.3662C55.913 25.3591 55.8977 25.3508 55.882 25.342L53.3589 23.8521C53.097 23.6976 53.0102 23.3607 53.1645 23.0988C53.3186 22.8372 53.656 22.7502 53.9176 22.9044L56.4015 24.3708C56.4178 24.3784 56.4339 24.3873 56.4494 24.3961L57.2907 24.8973C57.4156 24.9712 57.5062 25.0918 57.5429 25.2324L58.2301 27.9117C58.2829 28.1173 58.2124 28.335 58.049 28.471L55.7612 30.374C55.6625 30.4559 55.5382 30.5011 55.4099 30.5011V30.5011Z" fill="black"/>
<path d="M52.6503 30.501C52.6152 30.501 52.5798 30.4978 52.5452 30.4911C52.2473 30.4335 52.0521 30.1452 52.1097 29.8471L52.9568 25.4571C52.9967 25.2488 53.1532 25.082 53.3587 25.0286L56.0317 24.3357C56.1757 24.2994 56.3279 24.3206 56.4565 24.3951L59.8213 26.3858C60.0825 26.5405 60.1696 26.8779 60.0149 27.1392C59.8604 27.4009 59.523 27.4875 59.2614 27.333L56.0901 25.4571L53.971 26.0075L53.1887 30.0548C53.1391 30.3132 52.9135 30.5002 52.6503 30.501V30.501Z" fill="black"/>
<path d="M51.7463 30.5004C51.4706 30.5 51.2377 30.2958 51.2017 30.0227L50.4208 24.1375C50.389 23.8408 50.5994 23.5727 50.8953 23.5337C51.191 23.4944 51.4641 23.6982 51.5108 23.9929L52.2919 29.8779C52.3127 30.0352 52.2645 30.1935 52.1602 30.3129C52.0557 30.4322 51.9048 30.5004 51.7463 30.5004V30.5004Z" fill="black"/>
<path d="M59.1874 30.5005C58.9223 30.5007 58.6953 30.3122 58.6462 30.0522C58.5974 29.7921 58.7408 29.5341 58.9876 29.4381L60.0325 29.0313C60.3141 28.9256 60.6287 29.0659 60.7379 29.3462C60.8475 29.6265 60.7113 29.9427 60.4323 30.0557L59.3874 30.463C59.3235 30.4876 59.2559 30.5005 59.1874 30.5005V30.5005Z" fill="black"/>
<path d="M47.1095 30.5012C47.0761 30.5014 47.0427 30.4982 47.0096 30.492C46.7113 30.4364 46.5144 30.1496 46.5695 29.8511L46.9957 27.5455L44.1012 25.0755L40.5148 26.3404L39.8304 30.0481C39.7949 30.2414 39.659 30.4007 39.4737 30.4668C39.2886 30.5325 39.0825 30.4948 38.9329 30.3671C38.7832 30.2396 38.7131 30.0422 38.7486 29.8489L39.491 25.828C39.5268 25.6346 39.6632 25.4749 39.8485 25.4094L44.0339 23.9298C44.2192 23.8644 44.4255 23.9028 44.5747 24.0305L47.9505 26.912C48.1003 27.0393 48.1706 27.2373 48.1347 27.4306L47.6513 30.0485C47.6044 30.3107 47.376 30.5014 47.1095 30.5012Z" fill="black"/>
<path d="M44.8682 30.499C44.8344 30.499 44.8005 30.496 44.7671 30.4898C44.4686 30.4342 44.2716 30.147 44.3272 29.8485L44.5983 28.3927L43.6396 27.5678L42.4468 27.9893L42.2151 29.2343L42.5622 29.5287C42.7936 29.7265 42.8214 30.0741 42.6236 30.3055C42.4262 30.5369 42.0786 30.5645 41.8472 30.3671L41.258 29.8667C41.1352 29.7621 41.0645 29.6089 41.0645 29.4476C41.0647 29.4119 41.0677 29.3765 41.0737 29.3415L41.4198 27.4772C41.456 27.2839 41.5924 27.1246 41.7781 27.0593L43.5709 26.427C43.7564 26.3613 43.9628 26.4 44.1121 26.5279L45.519 27.7378C45.5548 27.764 45.5873 27.7944 45.6153 27.8286C45.7206 27.9537 45.7647 28.1196 45.7355 28.2807L45.4058 30.0515C45.3566 30.3099 45.1317 30.4974 44.8682 30.499V30.499Z" fill="black"/>
<path d="M41.8477 28.1631C41.7089 28.1631 41.5752 28.1109 41.4734 28.0169L39.6585 26.3354C39.4357 26.1288 39.4226 25.7809 39.6291 25.558C39.8357 25.3352 40.1838 25.3219 40.4065 25.5286L42.2215 27.2098C42.3875 27.3637 42.442 27.6033 42.3595 27.8138C42.2769 28.0243 42.0737 28.1631 41.8477 28.1631Z" fill="black"/>
<path d="M40.1914 30.5005C39.9233 30.5007 39.6941 30.3079 39.6486 30.0437C39.6033 29.7794 39.7548 29.5212 40.0077 29.4318L41.4378 28.9258C41.7218 28.8329 42.0279 28.984 42.1272 29.266C42.2265 29.5478 42.0825 29.8576 41.8029 29.9631L40.3729 30.4691C40.3145 30.4896 40.2531 30.5003 40.1914 30.5005Z" fill="black"/>
<path d="M45.1937 28.7299C44.9254 28.7303 44.6958 28.5369 44.6505 28.2725C44.6053 28.0078 44.7576 27.7492 45.0112 27.6606L47.4137 26.8154C47.6977 26.7226 48.0038 26.8736 48.1029 27.1556C48.202 27.4372 48.0582 27.747 47.7787 27.8527L45.3758 28.6985C45.3174 28.719 45.2557 28.7297 45.1937 28.7299V28.7299Z" fill="black"/>
<path d="M43.9255 27.4297C43.9027 27.4297 43.8804 27.4297 43.8572 27.4261C43.7124 27.4081 43.5807 27.3334 43.4912 27.2181C43.4014 27.1031 43.3611 26.9571 43.3793 26.8123L43.6757 24.3837C43.7122 24.0818 43.9863 23.867 44.2883 23.9034C44.5898 23.9399 44.8051 24.2139 44.7687 24.5156L44.471 26.947C44.4373 27.2227 44.2031 27.4297 43.9255 27.4297V27.4297Z" fill="black"/>
<path d="M29.4931 84.9253V86.7333H26.5171V96.0933H24.2771V86.7333H21.3011V84.9253H29.4931ZM30.5514 91.6293C30.5514 90.7333 30.7274 89.9386 31.0794 89.2453C31.4421 88.5519 31.9274 88.0186 32.5354 87.6453C33.1541 87.2719 33.8421 87.0853 34.5994 87.0853C35.2608 87.0853 35.8368 87.2186 36.3274 87.4853C36.8288 87.7519 37.2288 88.0879 37.5274 88.4933V87.2293H39.7834V96.0933H37.5274V94.7973C37.2394 95.2133 36.8394 95.5599 36.3274 95.8373C35.8261 96.1039 35.2448 96.2373 34.5834 96.2373C33.8368 96.2373 33.1541 96.0453 32.5354 95.6613C31.9274 95.2773 31.4421 94.7386 31.0794 94.0453C30.7274 93.3413 30.5514 92.5359 30.5514 91.6293ZM37.5274 91.6613C37.5274 91.1173 37.4208 90.6533 37.2074 90.2693C36.9941 89.8746 36.7061 89.5759 36.3434 89.3733C35.9808 89.1599 35.5914 89.0533 35.1754 89.0533C34.7594 89.0533 34.3754 89.1546 34.0234 89.3573C33.6714 89.5599 33.3834 89.8586 33.1594 90.2533C32.9461 90.6373 32.8394 91.0959 32.8394 91.6293C32.8394 92.1626 32.9461 92.6319 33.1594 93.0373C33.3834 93.4319 33.6714 93.7359 34.0234 93.9493C34.3861 94.1626 34.7701 94.2693 35.1754 94.2693C35.5914 94.2693 35.9808 94.1679 36.3434 93.9653C36.7061 93.7519 36.9941 93.4533 37.2074 93.0693C37.4208 92.6746 37.5274 92.2053 37.5274 91.6613ZM45.4432 87.0853C46.1045 87.0853 46.6859 87.2186 47.1872 87.4853C47.6885 87.7413 48.0832 88.0773 48.3712 88.4933V87.2293H50.6272V96.1573C50.6272 96.9786 50.4619 97.7093 50.1312 98.3493C49.8005 98.9999 49.3045 99.5119 48.6432 99.8853C47.9819 100.269 47.1819 100.461 46.2432 100.461C44.9845 100.461 43.9499 100.168 43.1392 99.5813C42.3392 98.9946 41.8859 98.1946 41.7792 97.1813H44.0032C44.1205 97.5866 44.3712 97.9066 44.7552 98.1413C45.1499 98.3866 45.6245 98.5093 46.1792 98.5093C46.8299 98.5093 47.3579 98.3119 47.7632 97.9173C48.1685 97.5333 48.3712 96.9466 48.3712 96.1573V94.7813C48.0832 95.1973 47.6832 95.5439 47.1712 95.8213C46.6699 96.0986 46.0939 96.2373 45.4432 96.2373C44.6965 96.2373 44.0139 96.0453 43.3952 95.6613C42.7765 95.2773 42.2859 94.7386 41.9232 94.0453C41.5712 93.3413 41.3952 92.5359 41.3952 91.6293C41.3952 90.7333 41.5712 89.9386 41.9232 89.2453C42.2859 88.5519 42.7712 88.0186 43.3792 87.6453C43.9979 87.2719 44.6859 87.0853 45.4432 87.0853ZM48.3712 91.6613C48.3712 91.1173 48.2645 90.6533 48.0512 90.2693C47.8379 89.8746 47.5499 89.5759 47.1872 89.3733C46.8245 89.1599 46.4352 89.0533 46.0192 89.0533C45.6032 89.0533 45.2192 89.1546 44.8672 89.3573C44.5152 89.5599 44.2272 89.8586 44.0032 90.2533C43.7899 90.6373 43.6832 91.0959 43.6832 91.6293C43.6832 92.1626 43.7899 92.6319 44.0032 93.0373C44.2272 93.4319 44.5152 93.7359 44.8672 93.9493C45.2299 94.1626 45.6139 94.2693 46.0192 94.2693C46.4352 94.2693 46.8245 94.1679 47.1872 93.9653C47.5499 93.7519 47.8379 93.4533 48.0512 93.0693C48.2645 92.6746 48.3712 92.2053 48.3712 91.6613ZM58.8674 88.5093C59.1554 88.1039 59.5501 87.7679 60.0514 87.5013C60.5634 87.2239 61.1448 87.0853 61.7954 87.0853C62.5528 87.0853 63.2354 87.2719 63.8434 87.6453C64.4621 88.0186 64.9474 88.5519 65.2994 89.2453C65.6621 89.9279 65.8434 90.7226 65.8434 91.6293C65.8434 92.5359 65.6621 93.3413 65.2994 94.0453C64.9474 94.7386 64.4621 95.2773 63.8434 95.6613C63.2354 96.0453 62.5528 96.2373 61.7954 96.2373C61.1448 96.2373 60.5688 96.1039 60.0674 95.8373C59.5768 95.5706 59.1768 95.2346 58.8674 94.8293V100.317H56.6274V87.2293H58.8674V88.5093ZM63.5554 91.6293C63.5554 91.0959 63.4434 90.6373 63.2194 90.2533C63.0061 89.8586 62.7181 89.5599 62.3554 89.3573C62.0034 89.1546 61.6194 89.0533 61.2034 89.0533C60.7981 89.0533 60.4141 89.1599 60.0514 89.3733C59.6994 89.5759 59.4114 89.8746 59.1874 90.2693C58.9741 90.6639 58.8674 91.1279 58.8674 91.6613C58.8674 92.1946 58.9741 92.6586 59.1874 93.0533C59.4114 93.4479 59.6994 93.7519 60.0514 93.9653C60.4141 94.1679 60.7981 94.2693 61.2034 94.2693C61.6194 94.2693 62.0034 94.1626 62.3554 93.9493C62.7181 93.7359 63.0061 93.4319 63.2194 93.0373C63.4434 92.6426 63.5554 92.1733 63.5554 91.6293ZM66.8952 91.6293C66.8952 90.7333 67.0712 89.9386 67.4232 89.2453C67.7859 88.5519 68.2712 88.0186 68.8792 87.6453C69.4979 87.2719 70.1859 87.0853 70.9432 87.0853C71.6045 87.0853 72.1805 87.2186 72.6712 87.4853C73.1725 87.7519 73.5725 88.0879 73.8712 88.4933V87.2293H76.1272V96.0933H73.8712V94.7973C73.5832 95.2133 73.1832 95.5599 72.6712 95.8373C72.1699 96.1039 71.5885 96.2373 70.9272 96.2373C70.1805 96.2373 69.4979 96.0453 68.8792 95.6613C68.2712 95.2773 67.7859 94.7386 67.4232 94.0453C67.0712 93.3413 66.8952 92.5359 66.8952 91.6293ZM73.8712 91.6613C73.8712 91.1173 73.7645 90.6533 73.5512 90.2693C73.3379 89.8746 73.0499 89.5759 72.6872 89.3733C72.3245 89.1599 71.9352 89.0533 71.5192 89.0533C71.1032 89.0533 70.7192 89.1546 70.3672 89.3573C70.0152 89.5599 69.7272 89.8586 69.5032 90.2533C69.2899 90.6373 69.1832 91.0959 69.1832 91.6293C69.1832 92.1626 69.2899 92.6319 69.5032 93.0373C69.7272 93.4319 70.0152 93.7359 70.3672 93.9493C70.7299 94.1626 71.1139 94.2693 71.5192 94.2693C71.9352 94.2693 72.3245 94.1679 72.6872 93.9653C73.0499 93.7519 73.3379 93.4533 73.5512 93.0693C73.7645 92.6746 73.8712 92.2053 73.8712 91.6613ZM73.6952 84.6213C73.6952 85.1759 73.5139 85.6239 73.1512 85.9653C72.7992 86.2959 72.3565 86.4613 71.8232 86.4613C71.3005 86.4613 70.8579 86.2959 70.4952 85.9653C70.1325 85.6239 69.9512 85.1759 69.9512 84.6213C69.9512 84.0666 70.1325 83.6239 70.4952 83.2933C70.8579 82.9519 71.3005 82.7813 71.8232 82.7813C72.3565 82.7813 72.7992 82.9519 73.1512 83.2933C73.5139 83.6239 73.6952 84.0666 73.6952 84.6213ZM72.5912 84.6213C72.5912 84.3759 72.5165 84.1839 72.3672 84.0453C72.2179 83.8959 72.0365 83.8213 71.8232 83.8213C71.6099 83.8213 71.4285 83.8959 71.2792 84.0453C71.1299 84.1839 71.0552 84.3759 71.0552 84.6213C71.0552 84.8453 71.1299 85.0373 71.2792 85.1973C71.4285 85.3466 71.6099 85.4213 71.8232 85.4213C72.0365 85.4213 72.2179 85.3466 72.3672 85.1973C72.5165 85.0373 72.5912 84.8453 72.5912 84.6213ZM11.7304 123.237C11.005 123.237 10.3544 123.109 9.77838 122.853C9.20238 122.587 8.74371 122.229 8.40238 121.781C8.07171 121.333 7.89038 120.837 7.85838 120.293H10.1144C10.157 120.635 10.3224 120.917 10.6104 121.141C10.909 121.365 11.277 121.477 11.7144 121.477C12.141 121.477 12.4717 121.392 12.7064 121.221C12.9517 121.051 13.0744 120.832 13.0744 120.565C13.0744 120.277 12.925 120.064 12.6264 119.925C12.3384 119.776 11.8744 119.616 11.2344 119.445C10.573 119.285 10.029 119.12 9.60238 118.949C9.18638 118.779 8.82371 118.517 8.51438 118.165C8.21571 117.813 8.06638 117.339 8.06638 116.741C8.06638 116.251 8.20504 115.803 8.48238 115.397C8.77038 114.992 9.17571 114.672 9.69838 114.437C10.2317 114.203 10.8557 114.085 11.5704 114.085C12.6264 114.085 13.469 114.352 14.0984 114.885C14.7277 115.408 15.0744 116.117 15.1384 117.013H12.9944C12.9624 116.661 12.813 116.384 12.5464 116.181C12.2904 115.968 11.9437 115.861 11.5064 115.861C11.101 115.861 10.7864 115.936 10.5624 116.085C10.349 116.235 10.2424 116.443 10.2424 116.709C10.2424 117.008 10.3917 117.237 10.6904 117.397C10.989 117.547 11.453 117.701 12.0824 117.861C12.7224 118.021 13.2504 118.187 13.6664 118.357C14.0824 118.528 14.4397 118.795 14.7384 119.157C15.0477 119.509 15.2077 119.979 15.2184 120.565C15.2184 121.077 15.0744 121.536 14.7864 121.941C14.509 122.347 14.1037 122.667 13.5704 122.901C13.0477 123.125 12.4344 123.237 11.7304 123.237ZM22.3051 123.093L19.2971 119.317V123.093H17.0571V111.253H19.2971V117.989L22.2731 114.229H25.1851L21.2811 118.677L25.2171 123.093H22.3051ZM25.8249 118.629C25.8249 117.733 26.0009 116.939 26.3529 116.245C26.7155 115.552 27.2009 115.019 27.8089 114.645C28.4275 114.272 29.1155 114.085 29.8729 114.085C30.5342 114.085 31.1102 114.219 31.6009 114.485C32.1022 114.752 32.5022 115.088 32.8009 115.493V114.229H35.0569V123.093H32.8009V121.797C32.5129 122.213 32.1129 122.56 31.6009 122.837C31.0995 123.104 30.5182 123.237 29.8569 123.237C29.1102 123.237 28.4275 123.045 27.8089 122.661C27.2009 122.277 26.7155 121.739 26.3529 121.045C26.0009 120.341 25.8249 119.536 25.8249 118.629ZM32.8009 118.661C32.8009 118.117 32.6942 117.653 32.4809 117.269C32.2675 116.875 31.9795 116.576 31.6169 116.373C31.2542 116.16 30.8649 116.053 30.4489 116.053C30.0329 116.053 29.6489 116.155 29.2969 116.357C28.9449 116.56 28.6569 116.859 28.4329 117.253C28.2195 117.637 28.1129 118.096 28.1129 118.629C28.1129 119.163 28.2195 119.632 28.4329 120.037C28.6569 120.432 28.9449 120.736 29.2969 120.949C29.6595 121.163 30.0435 121.269 30.4489 121.269C30.8649 121.269 31.2542 121.168 31.6169 120.965C31.9795 120.752 32.2675 120.453 32.4809 120.069C32.6942 119.675 32.8009 119.205 32.8009 118.661ZM39.8526 116.069V120.357C39.8526 120.656 39.922 120.875 40.0606 121.013C40.21 121.141 40.4553 121.205 40.7966 121.205H41.8366V123.093H40.4286C38.5406 123.093 37.5966 122.176 37.5966 120.341V116.069H36.5406V114.229H37.5966V112.037H39.8526V114.229H41.8366V116.069H39.8526ZM46.0558 116.069V120.357C46.0558 120.656 46.1251 120.875 46.2638 121.013C46.4131 121.141 46.6584 121.205 46.9998 121.205H48.0398V123.093H46.6318C44.7438 123.093 43.7998 122.176 43.7998 120.341V116.069H42.7438V114.229H43.7998V112.037H46.0558V114.229H48.0398V116.069H46.0558ZM57.8909 118.469C57.8909 118.789 57.8695 119.077 57.8269 119.333H51.3469C51.4002 119.973 51.6242 120.475 52.0189 120.837C52.4135 121.2 52.8989 121.381 53.4749 121.381C54.3069 121.381 54.8989 121.024 55.2509 120.309H57.6669C57.4109 121.163 56.9202 121.867 56.1949 122.421C55.4695 122.965 54.5789 123.237 53.5229 123.237C52.6695 123.237 51.9015 123.051 51.2189 122.677C50.5469 122.293 50.0189 121.755 49.6349 121.061C49.2615 120.368 49.0749 119.568 49.0749 118.661C49.0749 117.744 49.2615 116.939 49.6349 116.245C50.0082 115.552 50.5309 115.019 51.2029 114.645C51.8749 114.272 52.6482 114.085 53.5229 114.085C54.3655 114.085 55.1175 114.267 55.7789 114.629C56.4509 114.992 56.9682 115.509 57.3309 116.181C57.7042 116.843 57.8909 117.605 57.8909 118.469ZM55.5709 117.829C55.5602 117.253 55.3522 116.795 54.9469 116.453C54.5415 116.101 54.0455 115.925 53.4589 115.925C52.9042 115.925 52.4349 116.096 52.0509 116.437C51.6775 116.768 51.4482 117.232 51.3629 117.829H55.5709ZM60.6619 113.173C60.2565 113.173 59.9205 113.051 59.6539 112.805C59.3979 112.549 59.2699 112.235 59.2699 111.861C59.2699 111.488 59.3979 111.179 59.6539 110.933C59.9205 110.677 60.2565 110.549 60.6619 110.549C61.0565 110.549 61.3819 110.677 61.6379 110.933C61.8939 111.179 62.0219 111.488 62.0219 111.861C62.0219 112.235 61.8939 112.549 61.6379 112.805C61.3819 113.051 61.0565 113.173 60.6619 113.173ZM61.7659 124.549C61.7659 125.531 61.5205 126.235 61.0299 126.661C60.5499 127.099 59.8565 127.317 58.9499 127.317H57.9579V125.413H58.5979C58.9392 125.413 59.1792 125.344 59.3179 125.205C59.4565 125.077 59.5259 124.864 59.5259 124.565V114.229H61.7659V124.549ZM63.403 118.629C63.403 117.733 63.579 116.939 63.931 116.245C64.2937 115.552 64.779 115.019 65.387 114.645C66.0057 114.272 66.6937 114.085 67.451 114.085C68.1123 114.085 68.6883 114.219 69.179 114.485C69.6803 114.752 70.0803 115.088 70.379 115.493V114.229H72.635V123.093H70.379V121.797C70.091 122.213 69.691 122.56 69.179 122.837C68.6777 123.104 68.0963 123.237 67.435 123.237C66.6883 123.237 66.0057 123.045 65.387 122.661C64.779 122.277 64.2937 121.739 63.931 121.045C63.579 120.341 63.403 119.536 63.403 118.629ZM70.379 118.661C70.379 118.117 70.2723 117.653 70.059 117.269C69.8457 116.875 69.5577 116.576 69.195 116.373C68.8323 116.16 68.443 116.053 68.027 116.053C67.611 116.053 67.227 116.155 66.875 116.357C66.523 116.56 66.235 116.859 66.011 117.253C65.7977 117.637 65.691 118.096 65.691 118.629C65.691 119.163 65.7977 119.632 66.011 120.037C66.235 120.432 66.523 120.736 66.875 120.949C67.2377 121.163 67.6217 121.269 68.027 121.269C68.443 121.269 68.8323 121.168 69.195 120.965C69.5577 120.752 69.8457 120.453 70.059 120.069C70.2723 119.675 70.379 119.205 70.379 118.661ZM78.2948 114.085C78.9561 114.085 79.5374 114.219 80.0388 114.485C80.5401 114.741 80.9348 115.077 81.2228 115.493V114.229H83.4788V123.157C83.4788 123.979 83.3134 124.709 82.9828 125.349C82.6521 126 82.1561 126.512 81.4948 126.885C80.8334 127.269 80.0334 127.461 79.0948 127.461C77.8361 127.461 76.8014 127.168 75.9908 126.581C75.1908 125.995 74.7374 125.195 74.6308 124.181H76.8548C76.9721 124.587 77.2228 124.907 77.6068 125.141C78.0014 125.387 78.4761 125.509 79.0308 125.509C79.6814 125.509 80.2094 125.312 80.6148 124.917C81.0201 124.533 81.2228 123.947 81.2228 123.157V121.781C80.9348 122.197 80.5348 122.544 80.0228 122.821C79.5214 123.099 78.9454 123.237 78.2948 123.237C77.5481 123.237 76.8654 123.045 76.2468 122.661C75.6281 122.277 75.1374 121.739 74.7747 121.045C74.4227 120.341 74.2467 119.536 74.2467 118.629C74.2467 117.733 74.4227 116.939 74.7747 116.245C75.1374 115.552 75.6228 115.019 76.2308 114.645C76.8494 114.272 77.5374 114.085 78.2948 114.085ZM81.2228 118.661C81.2228 118.117 81.1161 117.653 80.9028 117.269C80.6894 116.875 80.4014 116.576 80.0388 116.373C79.6761 116.16 79.2868 116.053 78.8708 116.053C78.4548 116.053 78.0708 116.155 77.7188 116.357C77.3668 116.56 77.0788 116.859 76.8548 117.253C76.6414 117.637 76.5348 118.096 76.5348 118.629C76.5348 119.163 76.6414 119.632 76.8548 120.037C77.0788 120.432 77.3668 120.736 77.7188 120.949C78.0814 121.163 78.4654 121.269 78.8708 121.269C79.2868 121.269 79.6761 121.168 80.0388 120.965C80.4014 120.752 80.6894 120.453 80.9028 120.069C81.1161 119.675 81.2228 119.205 81.2228 118.661ZM88.2745 116.069V120.357C88.2745 120.656 88.3438 120.875 88.4825 121.013C88.6318 121.141 88.8772 121.205 89.2185 121.205H90.2585V123.093H88.8505C86.9625 123.093 86.0185 122.176 86.0185 120.341V116.069H84.9625V114.229H86.0185V112.037H88.2745V114.229H90.2585V116.069H88.2745Z" fill="white"/>
</svg>
