<svg width="79" height="128" viewBox="0 0 79 128" fill="none" xmlns="http://www.w3.org/2000/svg">
<path d="M12.2186 81.3921V92.5601H9.97863V81.3921H12.2186ZM20.4843 85.0721C20.7723 84.6027 21.1456 84.2347 21.6043 83.9681C22.0736 83.7014 22.6069 83.5681 23.2043 83.5681V85.9201H22.6123C21.9083 85.9201 21.3749 86.0854 21.0123 86.4161C20.6603 86.7467 20.4843 87.3227 20.4843 88.1441V92.5601H18.2443V83.6961H20.4843V85.0721ZM25.849 82.6401C25.4543 82.6401 25.1237 82.5174 24.857 82.2721C24.601 82.0161 24.473 81.7014 24.473 81.3281C24.473 80.9547 24.601 80.6454 24.857 80.4001C25.1237 80.1441 25.4543 80.0161 25.849 80.0161C26.2437 80.0161 26.569 80.1441 26.825 80.4001C27.0917 80.6454 27.225 80.9547 27.225 81.3281C27.225 81.7014 27.0917 82.0161 26.825 82.2721C26.569 82.5174 26.2437 82.6401 25.849 82.6401ZM26.953 83.6961V92.5601H24.713V83.6961H26.953ZM34.0781 83.5681C35.1341 83.5681 35.9875 83.9041 36.6381 84.5761C37.2888 85.2374 37.6141 86.1654 37.6141 87.3601V92.5601H35.3741V87.6641C35.3741 86.9601 35.1981 86.4214 34.8461 86.0481C34.4941 85.6641 34.0141 85.4721 33.4061 85.4721C32.7875 85.4721 32.2968 85.6641 31.9341 86.0481C31.5821 86.4214 31.4061 86.9601 31.4061 87.6641V92.5601H29.1661V83.6961H31.4061V84.8001C31.7048 84.4161 32.0835 84.1174 32.5421 83.9041C33.0115 83.6801 33.5235 83.5681 34.0781 83.5681ZM43.2163 83.5521C43.8776 83.5521 44.4589 83.6854 44.9603 83.9521C45.4616 84.2081 45.8563 84.5441 46.1443 84.9601V83.6961H48.4003V92.6241C48.4003 93.4454 48.2349 94.1761 47.9043 94.8161C47.5736 95.4667 47.0776 95.9787 46.4163 96.3521C45.7549 96.7361 44.9549 96.9281 44.0163 96.9281C42.7576 96.9281 41.7229 96.6347 40.9123 96.0481C40.1123 95.4614 39.6589 94.6614 39.5523 93.6481H41.7763C41.8936 94.0534 42.1443 94.3734 42.5283 94.6081C42.9229 94.8534 43.3976 94.9761 43.9523 94.9761C44.6029 94.9761 45.1309 94.7787 45.5363 94.3841C45.9416 94.0001 46.1443 93.4134 46.1443 92.6241V91.2481C45.8563 91.6641 45.4563 92.0107 44.9443 92.2881C44.4429 92.5654 43.8669 92.7041 43.2163 92.7041C42.4696 92.7041 41.7869 92.5121 41.1683 92.1281C40.5496 91.7441 40.0589 91.2054 39.6963 90.5121C39.3443 89.8081 39.1683 89.0027 39.1683 88.0961C39.1683 87.2001 39.3443 86.4054 39.6963 85.7121C40.0589 85.0187 40.5443 84.4854 41.1523 84.1121C41.7709 83.7387 42.4589 83.5521 43.2163 83.5521ZM46.1443 88.1281C46.1443 87.5841 46.0376 87.1201 45.8243 86.7361C45.6109 86.3414 45.3229 86.0427 44.9603 85.8401C44.5976 85.6267 44.2083 85.5201 43.7923 85.5201C43.3763 85.5201 42.9923 85.6214 42.6403 85.8241C42.2883 86.0267 42.0003 86.3254 41.7763 86.7201C41.5629 87.1041 41.4563 87.5627 41.4563 88.0961C41.4563 88.6294 41.5629 89.0987 41.7763 89.5041C42.0003 89.8987 42.2883 90.2027 42.6403 90.4161C43.0029 90.6294 43.3869 90.7361 43.7923 90.7361C44.2083 90.7361 44.5976 90.6347 44.9603 90.4321C45.3229 90.2187 45.6109 89.9201 45.8243 89.5361C46.0376 89.1414 46.1443 88.6721 46.1443 88.1281ZM58.828 87.9361C58.828 88.2561 58.8067 88.5441 58.764 88.8001H52.284C52.3373 89.4401 52.5613 89.9414 52.956 90.3041C53.3507 90.6667 53.836 90.8481 54.412 90.8481C55.244 90.8481 55.836 90.4907 56.188 89.7761H58.604C58.348 90.6294 57.8573 91.3334 57.132 91.8881C56.4067 92.4321 55.516 92.7041 54.46 92.7041C53.6067 92.7041 52.8387 92.5174 52.156 92.1441C51.484 91.7601 50.956 91.2214 50.572 90.5281C50.1987 89.8347 50.012 89.0347 50.012 88.1281C50.012 87.2107 50.1987 86.4054 50.572 85.7121C50.9453 85.0187 51.468 84.4854 52.14 84.1121C52.812 83.7387 53.5853 83.5521 54.46 83.5521C55.3027 83.5521 56.0547 83.7334 56.716 84.0961C57.388 84.4587 57.9053 84.9761 58.268 85.6481C58.6413 86.3094 58.828 87.0721 58.828 87.9361ZM56.508 87.2961C56.4973 86.7201 56.2893 86.2614 55.884 85.9201C55.4787 85.5681 54.9827 85.3921 54.396 85.3921C53.8413 85.3921 53.372 85.5627 52.988 85.9041C52.6147 86.2347 52.3853 86.6987 52.3 87.2961H56.508ZM62.703 85.0721C62.991 84.6027 63.3643 84.2347 63.823 83.9681C64.2923 83.7014 64.8257 83.5681 65.423 83.5681V85.9201H64.831C64.127 85.9201 63.5937 86.0854 63.231 86.4161C62.879 86.7467 62.703 87.3227 62.703 88.1441V92.5601H60.463V83.6961H62.703V85.0721ZM69.3798 90.2081L67.5078 94.7041H66.0678L67.1078 90.2081H69.3798ZM5.49494 117.496L7.73494 110.696H10.1189L6.83894 119.56H4.11894L0.854939 110.696H3.25494L5.49494 117.496ZM12.5131 109.64C12.1184 109.64 11.7877 109.517 11.5211 109.272C11.2651 109.016 11.1371 108.701 11.1371 108.328C11.1371 107.955 11.2651 107.645 11.5211 107.4C11.7877 107.144 12.1184 107.016 12.5131 107.016C12.9077 107.016 13.2331 107.144 13.4891 107.4C13.7557 107.645 13.8891 107.955 13.8891 108.328C13.8891 108.701 13.7557 109.016 13.4891 109.272C13.2331 109.517 12.9077 109.64 12.5131 109.64ZM13.6171 110.696V119.56H11.3771V110.696H13.6171ZM21.8827 111.992C22.1707 111.565 22.5654 111.219 23.0667 110.952C23.5787 110.685 24.16 110.552 24.8107 110.552C25.568 110.552 26.2507 110.739 26.8587 111.112C27.4774 111.485 27.9627 112.019 28.3147 112.712C28.6774 113.395 28.8587 114.189 28.8587 115.096C28.8587 116.003 28.6774 116.808 28.3147 117.512C27.9627 118.205 27.4774 118.744 26.8587 119.128C26.2507 119.512 25.568 119.704 24.8107 119.704C24.1494 119.704 23.568 119.576 23.0667 119.32C22.576 119.053 22.1814 118.712 21.8827 118.296V119.56H19.6427V107.72H21.8827V111.992ZM26.5707 115.096C26.5707 114.563 26.4587 114.104 26.2347 113.72C26.0214 113.325 25.7334 113.027 25.3707 112.824C25.0187 112.621 24.6347 112.52 24.2187 112.52C23.8134 112.52 23.4294 112.627 23.0667 112.84C22.7147 113.043 22.4267 113.341 22.2027 113.736C21.9894 114.131 21.8827 114.595 21.8827 115.128C21.8827 115.661 21.9894 116.125 22.2027 116.52C22.4267 116.915 22.7147 117.219 23.0667 117.432C23.4294 117.635 23.8134 117.736 24.2187 117.736C24.6347 117.736 25.0187 117.629 25.3707 117.416C25.7334 117.203 26.0214 116.899 26.2347 116.504C26.4587 116.109 26.5707 115.64 26.5707 115.096ZM32.7264 112.072C33.0144 111.603 33.3878 111.235 33.8464 110.968C34.3158 110.701 34.8491 110.568 35.4464 110.568V112.92H34.8544C34.1504 112.92 33.6171 113.085 33.2544 113.416C32.9024 113.747 32.7264 114.323 32.7264 115.144V119.56H30.4864V110.696H32.7264V112.072ZM38.0912 109.64C37.6965 109.64 37.3659 109.517 37.0992 109.272C36.8432 109.016 36.7152 108.701 36.7152 108.328C36.7152 107.955 36.8432 107.645 37.0992 107.4C37.3659 107.144 37.6965 107.016 38.0912 107.016C38.4859 107.016 38.8112 107.144 39.0672 107.4C39.3339 107.645 39.4672 107.955 39.4672 108.328C39.4672 108.701 39.3339 109.016 39.0672 109.272C38.8112 109.517 38.4859 109.64 38.0912 109.64ZM39.1952 110.696V119.56H36.9552V110.696H39.1952ZM46.3203 110.568C47.3763 110.568 48.2296 110.904 48.8803 111.576C49.531 112.237 49.8563 113.165 49.8563 114.36V119.56H47.6163V114.664C47.6163 113.96 47.4403 113.421 47.0883 113.048C46.7363 112.664 46.2563 112.472 45.6483 112.472C45.0296 112.472 44.539 112.664 44.1763 113.048C43.8243 113.421 43.6483 113.96 43.6483 114.664V119.56H41.4083V110.696H43.6483V111.8C43.947 111.416 44.3256 111.117 44.7843 110.904C45.2536 110.68 45.7656 110.568 46.3203 110.568ZM55.4584 110.552C56.1198 110.552 56.7011 110.685 57.2024 110.952C57.7038 111.208 58.0984 111.544 58.3864 111.96V110.696H60.6424V119.624C60.6424 120.445 60.4771 121.176 60.1464 121.816C59.8158 122.467 59.3198 122.979 58.6584 123.352C57.9971 123.736 57.1971 123.928 56.2584 123.928C54.9998 123.928 53.9651 123.635 53.1544 123.048C52.3544 122.461 51.9011 121.661 51.7944 120.648H54.0184C54.1358 121.053 54.3864 121.373 54.7704 121.608C55.1651 121.853 55.6398 121.976 56.1944 121.976C56.8451 121.976 57.3731 121.779 57.7784 121.384C58.1838 121 58.3864 120.413 58.3864 119.624V118.248C58.0984 118.664 57.6984 119.011 57.1864 119.288C56.6851 119.565 56.1091 119.704 55.4584 119.704C54.7118 119.704 54.0291 119.512 53.4104 119.128C52.7918 118.744 52.3011 118.205 51.9384 117.512C51.5864 116.808 51.4104 116.003 51.4104 115.096C51.4104 114.2 51.5864 113.405 51.9384 112.712C52.3011 112.019 52.7864 111.485 53.3944 111.112C54.0131 110.739 54.7011 110.552 55.4584 110.552ZM58.3864 115.128C58.3864 114.584 58.2798 114.12 58.0664 113.736C57.8531 113.341 57.5651 113.043 57.2024 112.84C56.8398 112.627 56.4504 112.52 56.0344 112.52C55.6184 112.52 55.2344 112.621 54.8824 112.824C54.5304 113.027 54.2424 113.325 54.0184 113.72C53.8051 114.104 53.6984 114.563 53.6984 115.096C53.6984 115.629 53.8051 116.099 54.0184 116.504C54.2424 116.899 54.5304 117.203 54.8824 117.416C55.2451 117.629 55.6291 117.736 56.0344 117.736C56.4504 117.736 56.8398 117.635 57.2024 117.432C57.5651 117.219 57.8531 116.92 58.0664 116.536C58.2798 116.141 58.3864 115.672 58.3864 115.128ZM71.0702 114.936C71.0702 115.256 71.0489 115.544 71.0062 115.8H64.5262C64.5795 116.44 64.8035 116.941 65.1982 117.304C65.5929 117.667 66.0782 117.848 66.6542 117.848C67.4862 117.848 68.0782 117.491 68.4302 116.776H70.8462C70.5902 117.629 70.0995 118.333 69.3742 118.888C68.6489 119.432 67.7582 119.704 66.7022 119.704C65.8489 119.704 65.0809 119.517 64.3982 119.144C63.7262 118.76 63.1982 118.221 62.8142 117.528C62.4409 116.835 62.2542 116.035 62.2542 115.128C62.2542 114.211 62.4409 113.405 62.8142 112.712C63.1875 112.019 63.7102 111.485 64.3822 111.112C65.0542 110.739 65.8275 110.552 66.7022 110.552C67.5449 110.552 68.2969 110.733 68.9582 111.096C69.6302 111.459 70.1475 111.976 70.5102 112.648C70.8835 113.309 71.0702 114.072 71.0702 114.936ZM68.7502 114.296C68.7395 113.72 68.5315 113.261 68.1262 112.92C67.7209 112.568 67.2249 112.392 66.6382 112.392C66.0835 112.392 65.6142 112.563 65.2302 112.904C64.8569 113.235 64.6275 113.699 64.5422 114.296H68.7502ZM74.9452 112.072C75.2332 111.603 75.6065 111.235 76.0652 110.968C76.5345 110.701 77.0679 110.568 77.6652 110.568V112.92H77.0732C76.3692 112.92 75.8359 113.085 75.4732 113.416C75.1212 113.747 74.9452 114.323 74.9452 115.144V119.56H72.7052V110.696H74.9452V112.072Z" fill="black"/>
<path d="M67.861 29.844C68.8352 33.0053 70.8351 39.4953 67.861 46.013C62.284 58.235 41.7526 64.9965 26.4103 57.844C15.0638 52.5547 9.01313 40.8012 9.00057 29.844C8.98787 18.7647 15.1462 5.70291 26.4099 1.84431C43.2309 -3.91795 62.9064 13.7672 67.861 29.844Z" fill="black"/>
<path d="M58.1065 28.5923L56.9618 24.0144C57.2748 23.9479 57.5096 23.6703 57.5096 23.3377V22.5996C57.5096 20.9971 56.2056 19.6933 54.6029 19.6933H49.3894V18.1708C49.3894 17.3822 48.7478 16.7407 47.9591 16.7407H21.3836C20.5949 16.7407 19.9533 17.3822 19.9533 18.1708V30.7189C19.9533 31.101 20.2632 31.4109 20.6454 31.4109C21.0276 31.4109 21.3375 31.1011 21.3375 30.7189V18.1708C21.3375 18.1454 21.3581 18.1247 21.3836 18.1247H47.959C47.9845 18.1247 48.0051 18.1454 48.0051 18.1708V30.7191C48.0051 31.1012 48.3149 31.4111 48.6972 31.4111C49.0794 31.4111 49.3893 31.1013 49.3893 30.7191V29.9346H57.5533C57.554 29.9346 57.5545 29.9348 57.5551 29.9348C57.5558 29.9348 57.5564 29.9347 57.557 29.9347C58.5616 29.9354 59.4146 30.5947 59.7076 31.5032H57.5556C57.1734 31.5032 56.8635 31.813 56.8635 32.1952V33.6714C56.8635 34.867 57.8363 35.8396 59.032 35.8396H59.8164V38.8843H58.0068C57.4123 37.168 55.7806 35.9318 53.8645 35.9318C51.9485 35.9318 50.3167 37.168 49.7223 38.8843H49.3891V33.6713C49.3891 33.2892 49.0793 32.9793 48.697 32.9793C48.3148 32.9793 48.0049 33.2891 48.0049 33.6713V38.8841H33.6461C33.0517 37.1679 31.42 35.9316 29.5039 35.9316C27.5879 35.9316 25.9561 37.1679 25.3617 38.8841H21.3836C21.3581 38.8841 21.3375 38.8635 21.3375 38.838V37.3156H24.3365C24.7186 37.3156 25.0286 37.0058 25.0286 36.6236C25.0286 36.2414 24.7187 35.9316 24.3365 35.9316H17.6926C17.3105 35.9316 17.0005 36.2414 17.0005 36.6236C17.0005 37.0058 17.3104 37.3156 17.6926 37.3156H19.9534V38.838C19.9534 39.6266 20.595 40.2682 21.3837 40.2682H25.1221C25.1219 40.2835 25.1208 40.2988 25.1208 40.3142C25.1208 42.7308 27.0871 44.6968 29.5039 44.6968C31.9207 44.6968 33.887 42.7308 33.887 40.3142C33.887 40.2987 33.8859 40.2835 33.8858 40.2682H49.4827C49.4825 40.2835 49.4815 40.2988 49.4815 40.3142C49.4815 42.7308 51.4478 44.6968 53.8645 44.6968C56.2813 44.6968 58.2476 42.7308 58.2476 40.3142C58.2476 40.2987 58.2466 40.2835 58.2464 40.2682H60.5085C60.8906 40.2682 61.2006 39.9584 61.2006 39.5761V32.195C61.2006 30.3727 59.8559 28.8586 58.1065 28.5923ZM49.3894 21.0773H54.6029C55.4425 21.0773 56.1255 21.7602 56.1255 22.5996V22.6457H49.3894V21.0773ZM49.3894 28.5507V24.0297H55.539L56.6694 28.5507H49.3894ZM29.5039 43.313C27.8503 43.313 26.505 41.9679 26.505 40.3144C26.505 38.6609 27.8503 37.3158 29.5039 37.3158C31.1575 37.3158 32.5029 38.6609 32.5029 40.3144C32.5029 41.9679 31.1575 43.313 29.5039 43.313ZM53.8647 43.313C52.2111 43.313 50.8658 41.9679 50.8658 40.3144C50.8658 38.6609 52.2111 37.3158 53.8647 37.3158C55.5183 37.3158 56.8637 38.6609 56.8637 40.3144C56.8637 41.9679 55.5183 43.313 53.8647 43.313ZM59.8165 34.4556H59.0322C58.5997 34.4556 58.2478 34.1038 58.2478 33.6713V32.887H59.8165V34.4556H59.8165Z" fill="#C99D2B"/>
<path d="M29.5031 38.873C28.7144 38.873 28.0728 39.514 28.0728 40.302C28.0728 41.09 28.7144 41.731 29.5031 41.731C30.2918 41.731 30.9334 41.09 30.9334 40.302C30.9334 39.514 30.2918 38.873 29.5031 38.873Z" fill="#C99D2B"/>
<path d="M53.8644 38.873C53.0757 38.873 52.4341 39.514 52.4341 40.302C52.4341 41.09 53.0757 41.731 53.8644 41.731C54.6531 41.731 55.2947 41.09 55.2947 40.302C55.2947 39.514 54.6531 38.873 53.8644 38.873Z" fill="#C99D2B"/>
<path d="M45.7463 35.9233H35.4114C35.0292 35.9233 34.7193 36.2328 34.7193 36.6145C34.7193 36.9963 35.0291 37.3057 35.4114 37.3057H45.7463C46.1284 37.3057 46.4384 36.9963 46.4384 36.6145C46.4384 36.2328 46.1285 35.9233 45.7463 35.9233Z" fill="#C99D2B"/>
<path d="M28.0297 32.9722H19.1712C18.789 32.9722 18.4791 33.2817 18.4791 33.6636C18.4791 34.0455 18.7889 34.3551 19.1712 34.3551H28.0297C28.4118 34.3551 28.7217 34.0455 28.7217 33.6636C28.7217 33.2817 28.4118 32.9722 28.0297 32.9722Z" fill="#C99D2B"/>
<path d="M41.065 23.5839C40.7948 23.3138 40.3565 23.3138 40.0863 23.584L33.9318 29.7346L30.7301 26.5349C30.4598 26.2648 30.0216 26.2648 29.7514 26.5349C29.4811 26.805 29.4811 27.2429 29.7514 27.513L33.4425 31.2018C33.5776 31.3369 33.7547 31.4043 33.9318 31.4043C34.1088 31.4043 34.2861 31.3369 34.4211 31.2018L41.0649 24.562C41.3352 24.2918 41.3352 23.854 41.065 23.5839Z" fill="#C99D2B"/>
</svg>
