<svg width="79" height="128" viewBox="0 0 79 128" fill="none" xmlns="http://www.w3.org/2000/svg">
<path d="M12.3362 81.3925V92.5605H10.0962V81.3925H12.3362ZM20.6018 85.0725C20.8898 84.6032 21.2631 84.2352 21.7218 83.9685C22.1911 83.7019 22.7245 83.5685 23.3218 83.5685V85.9205H22.7298C22.0258 85.9205 21.4925 86.0859 21.1298 86.4165C20.7778 86.7472 20.6018 87.3232 20.6018 88.1445V92.5605H18.3618V83.6965H20.6018V85.0725ZM25.9666 82.6405C25.5719 82.6405 25.2412 82.5179 24.9746 82.2725C24.7186 82.0165 24.5906 81.7019 24.5906 81.3285C24.5906 80.9552 24.7186 80.6459 24.9746 80.4005C25.2412 80.1445 25.5719 80.0165 25.9666 80.0165C26.3612 80.0165 26.6866 80.1445 26.9426 80.4005C27.2092 80.6459 27.3426 80.9552 27.3426 81.3285C27.3426 81.7019 27.2092 82.0165 26.9426 82.2725C26.6866 82.5179 26.3612 82.6405 25.9666 82.6405ZM27.0706 83.6965V92.5605H24.8306V83.6965H27.0706ZM34.1957 83.5685C35.2517 83.5685 36.105 83.9045 36.7557 84.5765C37.4064 85.2379 37.7317 86.1659 37.7317 87.3605V92.5605H35.4917V87.6645C35.4917 86.9605 35.3157 86.4219 34.9637 86.0485C34.6117 85.6645 34.1317 85.4725 33.5237 85.4725C32.905 85.4725 32.4144 85.6645 32.0517 86.0485C31.6997 86.4219 31.5237 86.9605 31.5237 87.6645V92.5605H29.2837V83.6965H31.5237V84.8005C31.8224 84.4165 32.201 84.1179 32.6597 83.9045C33.129 83.6805 33.641 83.5685 34.1957 83.5685ZM43.3338 83.5525C43.9951 83.5525 44.5765 83.6859 45.0778 83.9525C45.5791 84.2085 45.9738 84.5445 46.2618 84.9605V83.6965H48.5178V92.6245C48.5178 93.4459 48.3525 94.1765 48.0218 94.8165C47.6911 95.4672 47.1951 95.9792 46.5338 96.3525C45.8725 96.7365 45.0725 96.9285 44.1338 96.9285C42.8751 96.9285 41.8405 96.6352 41.0298 96.0485C40.2298 95.4619 39.7765 94.6619 39.6698 93.6485H41.8938C42.0111 94.0539 42.2618 94.3739 42.6458 94.6085C43.0405 94.8539 43.5151 94.9765 44.0698 94.9765C44.7205 94.9765 45.2485 94.7792 45.6538 94.3845C46.0591 94.0005 46.2618 93.4139 46.2618 92.6245V91.2485C45.9738 91.6645 45.5738 92.0112 45.0618 92.2885C44.5605 92.5659 43.9845 92.7045 43.3338 92.7045C42.5871 92.7045 41.9045 92.5125 41.2858 92.1285C40.6671 91.7445 40.1765 91.2059 39.8138 90.5125C39.4618 89.8085 39.2858 89.0032 39.2858 88.0965C39.2858 87.2005 39.4618 86.4059 39.8138 85.7125C40.1765 85.0192 40.6618 84.4859 41.2698 84.1125C41.8885 83.7392 42.5765 83.5525 43.3338 83.5525ZM46.2618 88.1285C46.2618 87.5845 46.1551 87.1205 45.9418 86.7365C45.7285 86.3419 45.4405 86.0432 45.0778 85.8405C44.7151 85.6272 44.3258 85.5205 43.9098 85.5205C43.4938 85.5205 43.1098 85.6219 42.7578 85.8245C42.4058 86.0272 42.1178 86.3259 41.8938 86.7205C41.6805 87.1045 41.5738 87.5632 41.5738 88.0965C41.5738 88.6299 41.6805 89.0992 41.8938 89.5045C42.1178 89.8992 42.4058 90.2032 42.7578 90.4165C43.1205 90.6299 43.5045 90.7365 43.9098 90.7365C44.3258 90.7365 44.7151 90.6352 45.0778 90.4325C45.4405 90.2192 45.7285 89.9205 45.9418 89.5365C46.1551 89.1419 46.2618 88.6725 46.2618 88.1285ZM58.9456 87.9365C58.9456 88.2565 58.9242 88.5445 58.8816 88.8005H52.4016C52.4549 89.4405 52.6789 89.9419 53.0736 90.3045C53.4682 90.6672 53.9536 90.8485 54.5296 90.8485C55.3616 90.8485 55.9536 90.4912 56.3056 89.7765H58.7216C58.4656 90.6299 57.9749 91.3339 57.2496 91.8885C56.5242 92.4325 55.6336 92.7045 54.5776 92.7045C53.7242 92.7045 52.9562 92.5179 52.2736 92.1445C51.6016 91.7605 51.0736 91.2219 50.6896 90.5285C50.3162 89.8352 50.1296 89.0352 50.1296 88.1285C50.1296 87.2112 50.3162 86.4059 50.6896 85.7125C51.0629 85.0192 51.5856 84.4859 52.2576 84.1125C52.9296 83.7392 53.7029 83.5525 54.5776 83.5525C55.4202 83.5525 56.1722 83.7339 56.8336 84.0965C57.5056 84.4592 58.0229 84.9765 58.3856 85.6485C58.7589 86.3099 58.9456 87.0725 58.9456 87.9365ZM56.6256 87.2965C56.6149 86.7205 56.4069 86.2619 56.0016 85.9205C55.5962 85.5685 55.1002 85.3925 54.5136 85.3925C53.9589 85.3925 53.4896 85.5632 53.1056 85.9045C52.7322 86.2352 52.5029 86.6992 52.4176 87.2965H56.6256ZM62.8206 85.0725C63.1086 84.6032 63.4819 84.2352 63.9406 83.9685C64.4099 83.7019 64.9432 83.5685 65.5406 83.5685V85.9205H64.9486C64.2446 85.9205 63.7112 86.0859 63.3486 86.4165C62.9966 86.7472 62.8206 87.3232 62.8206 88.1445V92.5605H60.5806V83.6965H62.8206V85.0725ZM69.4973 90.2085L67.6253 94.7045H66.1853L67.2253 90.2085H69.4973ZM5.6125 117.497L7.8525 110.697H10.2365L6.9565 119.561H4.2365L0.9725 110.697H3.3725L5.6125 117.497ZM12.6306 109.641C12.236 109.641 11.9053 109.518 11.6386 109.273C11.3826 109.017 11.2546 108.702 11.2546 108.329C11.2546 107.955 11.3826 107.646 11.6386 107.401C11.9053 107.145 12.236 107.017 12.6306 107.017C13.0253 107.017 13.3506 107.145 13.6066 107.401C13.8733 107.646 14.0066 107.955 14.0066 108.329C14.0066 108.702 13.8733 109.017 13.6066 109.273C13.3506 109.518 13.0253 109.641 12.6306 109.641ZM13.7346 110.697V119.561H11.4946V110.697H13.7346ZM22.0003 111.993C22.2883 111.566 22.6829 111.219 23.1843 110.953C23.6963 110.686 24.2776 110.553 24.9283 110.553C25.6856 110.553 26.3683 110.739 26.9763 111.113C27.5949 111.486 28.0803 112.019 28.4323 112.713C28.7949 113.395 28.9763 114.19 28.9763 115.097C28.9763 116.003 28.7949 116.809 28.4323 117.513C28.0803 118.206 27.5949 118.745 26.9763 119.129C26.3683 119.513 25.6856 119.705 24.9283 119.705C24.2669 119.705 23.6856 119.577 23.1843 119.321C22.6936 119.054 22.2989 118.713 22.0003 118.297V119.561H19.7603V107.721H22.0003V111.993ZM26.6883 115.097C26.6883 114.563 26.5763 114.105 26.3523 113.721C26.1389 113.326 25.8509 113.027 25.4883 112.825C25.1363 112.622 24.7523 112.521 24.3363 112.521C23.9309 112.521 23.5469 112.627 23.1843 112.841C22.8323 113.043 22.5443 113.342 22.3203 113.737C22.1069 114.131 22.0003 114.595 22.0003 115.129C22.0003 115.662 22.1069 116.126 22.3203 116.521C22.5443 116.915 22.8323 117.219 23.1843 117.433C23.5469 117.635 23.9309 117.737 24.3363 117.737C24.7523 117.737 25.1363 117.63 25.4883 117.417C25.8509 117.203 26.1389 116.899 26.3523 116.505C26.5763 116.11 26.6883 115.641 26.6883 115.097ZM32.844 112.073C33.132 111.603 33.5053 111.235 33.964 110.969C34.4333 110.702 34.9667 110.569 35.564 110.569V112.921H34.972C34.268 112.921 33.7347 113.086 33.372 113.417C33.02 113.747 32.844 114.323 32.844 115.145V119.561H30.604V110.697H32.844V112.073ZM38.2088 109.641C37.8141 109.641 37.4834 109.518 37.2168 109.273C36.9608 109.017 36.8328 108.702 36.8328 108.329C36.8328 107.955 36.9608 107.646 37.2168 107.401C37.4834 107.145 37.8141 107.017 38.2088 107.017C38.6034 107.017 38.9288 107.145 39.1848 107.401C39.4514 107.646 39.5848 107.955 39.5848 108.329C39.5848 108.702 39.4514 109.017 39.1848 109.273C38.9288 109.518 38.6034 109.641 38.2088 109.641ZM39.3128 110.697V119.561H37.0728V110.697H39.3128ZM46.4379 110.569C47.4939 110.569 48.3472 110.905 48.9979 111.577C49.6485 112.238 49.9739 113.166 49.9739 114.361V119.561H47.7339V114.665C47.7339 113.961 47.5579 113.422 47.2059 113.049C46.8539 112.665 46.3739 112.473 45.7659 112.473C45.1472 112.473 44.6565 112.665 44.2939 113.049C43.9419 113.422 43.7659 113.961 43.7659 114.665V119.561H41.5259V110.697H43.7659V111.801C44.0645 111.417 44.4432 111.118 44.9019 110.905C45.3712 110.681 45.8832 110.569 46.4379 110.569ZM55.576 110.553C56.2373 110.553 56.8187 110.686 57.32 110.953C57.8213 111.209 58.216 111.545 58.504 111.961V110.697H60.76V119.625C60.76 120.446 60.5947 121.177 60.264 121.817C59.9333 122.467 59.4373 122.979 58.776 123.353C58.1147 123.737 57.3147 123.929 56.376 123.929C55.1173 123.929 54.0827 123.635 53.272 123.049C52.472 122.462 52.0187 121.662 51.912 120.649H54.136C54.2533 121.054 54.504 121.374 54.888 121.609C55.2827 121.854 55.7573 121.977 56.312 121.977C56.9627 121.977 57.4907 121.779 57.896 121.385C58.3013 121.001 58.504 120.414 58.504 119.625V118.249C58.216 118.665 57.816 119.011 57.304 119.289C56.8027 119.566 56.2267 119.705 55.576 119.705C54.8293 119.705 54.1467 119.513 53.528 119.129C52.9093 118.745 52.4187 118.206 52.056 117.513C51.704 116.809 51.528 116.003 51.528 115.097C51.528 114.201 51.704 113.406 52.056 112.713C52.4187 112.019 52.904 111.486 53.512 111.113C54.1307 110.739 54.8187 110.553 55.576 110.553ZM58.504 115.129C58.504 114.585 58.3973 114.121 58.184 113.737C57.9707 113.342 57.6827 113.043 57.32 112.841C56.9573 112.627 56.568 112.521 56.152 112.521C55.736 112.521 55.352 112.622 55 112.825C54.648 113.027 54.36 113.326 54.136 113.721C53.9227 114.105 53.816 114.563 53.816 115.097C53.816 115.63 53.9227 116.099 54.136 116.505C54.36 116.899 54.648 117.203 55 117.417C55.3627 117.63 55.7467 117.737 56.152 117.737C56.568 117.737 56.9573 117.635 57.32 117.433C57.6827 117.219 57.9707 116.921 58.184 116.537C58.3973 116.142 58.504 115.673 58.504 115.129ZM71.1878 114.937C71.1878 115.257 71.1664 115.545 71.1238 115.801H64.6438C64.6971 116.441 64.9211 116.942 65.3158 117.305C65.7104 117.667 66.1958 117.849 66.7718 117.849C67.6038 117.849 68.1958 117.491 68.5478 116.777H70.9638C70.7078 117.63 70.2171 118.334 69.4918 118.889C68.7664 119.433 67.8758 119.705 66.8198 119.705C65.9664 119.705 65.1984 119.518 64.5158 119.145C63.8438 118.761 63.3158 118.222 62.9318 117.529C62.5584 116.835 62.3717 116.035 62.3717 115.129C62.3717 114.211 62.5584 113.406 62.9318 112.713C63.3051 112.019 63.8278 111.486 64.4998 111.113C65.1718 110.739 65.9451 110.553 66.8198 110.553C67.6624 110.553 68.4144 110.734 69.0758 111.097C69.7478 111.459 70.2651 111.977 70.6278 112.649C71.0011 113.31 71.1878 114.073 71.1878 114.937ZM68.8678 114.297C68.8571 113.721 68.6491 113.262 68.2438 112.921C67.8384 112.569 67.3424 112.393 66.7558 112.393C66.2011 112.393 65.7318 112.563 65.3478 112.905C64.9744 113.235 64.7451 113.699 64.6598 114.297H68.8678ZM75.0628 112.073C75.3508 111.603 75.7241 111.235 76.1828 110.969C76.6521 110.702 77.1854 110.569 77.7828 110.569V112.921H77.1908C76.4868 112.921 75.9534 113.086 75.5908 113.417C75.2388 113.747 75.0628 114.323 75.0628 115.145V119.561H72.8228V110.697H75.0628V112.073Z" fill="white"/>
<path d="M68.0356 29.1626C69.0127 32.3239 71.0186 38.8138 68.0356 45.3315C62.4419 57.5534 41.8493 64.3148 26.4611 57.1624C15.0808 51.8731 9.01207 40.1198 8.99947 29.1626C8.98673 18.0834 15.1634 5.02171 26.4608 1.16315C43.332 -4.59906 63.0662 13.0859 68.0356 29.1626Z" fill="#C99D2B"/>
<path d="M58.1059 27.9097L56.9613 23.332C57.2742 23.2655 57.509 22.988 57.509 22.6554V21.9173C57.509 20.3148 56.205 19.0111 54.6024 19.0111H49.3888V17.4887C49.3888 16.7001 48.7472 16.0586 47.9585 16.0586H21.3831C20.5944 16.0586 19.9528 16.7001 19.9528 17.4887V30.0363C19.9528 30.4184 20.2626 30.7282 20.6449 30.7282C21.027 30.7282 21.337 30.4185 21.337 30.0363V17.4887C21.337 17.4632 21.3576 17.4426 21.3831 17.4426H47.9584C47.9839 17.4426 48.0045 17.4632 48.0045 17.4887V30.0364C48.0045 30.4186 48.3144 30.7284 48.6966 30.7284C49.0788 30.7284 49.3887 30.4186 49.3887 30.0364V29.252H57.5527C57.5534 29.252 57.5539 29.2522 57.5545 29.2522C57.5552 29.2522 57.5558 29.2521 57.5564 29.2521C58.561 29.2528 59.414 29.9121 59.707 30.8205H57.555C57.1729 30.8205 56.863 31.1303 56.863 31.5125V32.9887C56.863 34.1842 57.8357 35.1568 59.0314 35.1568H59.8158V38.2014H58.0062C57.4117 36.4852 55.78 35.249 53.864 35.249C51.9479 35.249 50.3162 36.4852 49.7218 38.2014H49.3886V32.9886C49.3886 32.6065 49.0787 32.2966 48.6965 32.2966C48.3143 32.2966 48.0044 32.6064 48.0044 32.9886V38.2012H33.6456C33.0511 36.485 31.4194 35.2488 29.5034 35.2488C27.5873 35.2488 25.9555 36.485 25.3612 38.2012H21.3831C21.3576 38.2012 21.337 38.1806 21.337 38.1551V36.6328H24.3359C24.7181 36.6328 25.028 36.323 25.028 35.9408C25.028 35.5586 24.7182 35.2488 24.3359 35.2488H17.6921C17.3099 35.2488 17 35.5586 17 35.9408C17 36.323 17.3098 36.6328 17.6921 36.6328H19.9529V38.1551C19.9529 38.9437 20.5945 39.5852 21.3831 39.5852H25.1215C25.1213 39.6006 25.1203 39.6158 25.1203 39.6313C25.1203 42.0478 27.0866 44.0137 29.5034 44.0137C31.9201 44.0137 33.8864 42.0478 33.8864 39.6313C33.8864 39.6158 33.8854 39.6006 33.8852 39.5852H49.4821C49.482 39.6006 49.4809 39.6158 49.4809 39.6313C49.4809 42.0478 51.4472 44.0137 53.864 44.0137C56.2808 44.0137 58.2471 42.0478 58.2471 39.6313C58.2471 39.6158 58.246 39.6006 58.2458 39.5852H60.5079C60.8901 39.5852 61.2 39.2754 61.2 38.8932V31.5123C61.2001 29.6901 59.8553 28.176 58.1059 27.9097ZM49.3888 20.395H54.6024C55.4419 20.395 56.1249 21.0779 56.1249 21.9173V21.9634H49.3888V20.395ZM49.3888 27.8681V23.3473H55.5384L56.6688 27.8681H49.3888ZM29.5034 42.63C27.8497 42.63 26.5044 41.2849 26.5044 39.6315C26.5044 37.978 27.8497 36.633 29.5034 36.633C31.157 36.633 32.5023 37.978 32.5023 39.6315C32.5023 41.2849 31.157 42.63 29.5034 42.63ZM53.8642 42.63C52.2105 42.63 50.8652 41.2849 50.8652 39.6315C50.8652 37.978 52.2105 36.633 53.8642 36.633C55.5178 36.633 56.8631 37.978 56.8631 39.6315C56.8631 41.2849 55.5178 42.63 53.8642 42.63ZM59.816 33.7728H59.0316C58.5991 33.7728 58.2472 33.421 58.2472 32.9886V32.2043H59.8159V33.7728H59.816Z" fill="black"/>
<path d="M29.5065 38.189C28.7178 38.189 28.0762 38.8301 28.0762 39.6182C28.0762 40.4063 28.7178 41.0474 29.5065 41.0474C30.2952 41.0474 30.9368 40.4063 30.9368 39.6182C30.9368 38.8301 30.2952 38.189 29.5065 38.189Z" fill="black"/>
<path d="M53.8678 38.189C53.0791 38.189 52.4375 38.8301 52.4375 39.6182C52.4375 40.4063 53.0791 41.0474 53.8678 41.0474C54.6565 41.0474 55.2981 40.4063 55.2981 39.6182C55.2981 38.8301 54.6565 38.189 53.8678 38.189Z" fill="black"/>
<path d="M45.7496 35.2441H35.4147C35.0326 35.2441 34.7227 35.5534 34.7227 35.9351C34.7227 36.3167 35.0325 36.626 35.4147 36.626H45.7496C46.1318 36.626 46.4417 36.3167 46.4417 35.9351C46.4417 35.5534 46.1319 35.2441 45.7496 35.2441Z" fill="black"/>
<path d="M28.0311 32.2881H19.1726C18.7904 32.2881 18.4805 32.5977 18.4805 32.9797C18.4805 33.3618 18.7903 33.6714 19.1726 33.6714H28.0311C28.4132 33.6714 28.7231 33.3618 28.7231 32.9797C28.7231 32.5977 28.4132 32.2881 28.0311 32.2881Z" fill="black"/>
<path d="M41.0682 22.9008C40.798 22.6307 40.3597 22.6307 40.0895 22.9008L33.935 29.0514L30.7334 25.8518C30.4631 25.5817 30.0249 25.5817 29.7547 25.8518C29.4844 26.1219 29.4844 26.5597 29.7547 26.8299L33.4457 30.5186C33.5808 30.6537 33.758 30.7212 33.935 30.7212C34.1121 30.7212 34.2893 30.6537 34.4243 30.5186L41.0681 23.8789C41.3384 23.6087 41.3384 23.1709 41.0682 22.9008Z" fill="black"/>
</svg>
