<svg xmlns="http://www.w3.org/2000/svg" xmlns:xlink="http://www.w3.org/1999/xlink" width="444.2466" height="343.6096" viewBox="0 0 444.2466 343.6096">
  <defs>
    <style>
      .cls-1 {
        isolation: isolate;
      }

      .cls-2 {
        fill: #2e2e2e;
      }

      .cls-3 {
        fill: #636363;
      }

      .cls-4 {
        fill: #b7b7b7;
      }

      .cls-11, .cls-5 {
        fill: #989898;
      }

      .cls-6 {
        fill: #e7e7e7;
      }

      .cls-10, .cls-7 {
        fill: #c9c9c9;
      }

      .cls-8 {
        fill: #6e6e6e;
      }

      .cls-9 {
        fill: #fff;
      }

      .cls-10, .cls-14, .cls-15 {
        opacity: 0.5;
      }

      .cls-10, .cls-11, .cls-15 {
        mix-blend-mode: multiply;
      }

      .cls-11 {
        opacity: 0.3;
      }

      .cls-12 {
        fill: none;
        stroke: #636363;
        stroke-miterlimit: 10;
        stroke-width: 1.0115px;
      }

      .cls-13, .cls-14, .cls-15 {
        fill: #f2ecca;
      }

      .cls-14 {
        mix-blend-mode: screen;
      }

      .cls-16, .cls-17, .cls-18, .cls-19, .cls-20, .cls-21, .cls-22, .cls-23 {
        opacity: 0.2;
        mix-blend-mode: color-burn;
      }

      .cls-16 {
        fill: url(#linear-gradient);
      }

      .cls-17 {
        fill: url(#linear-gradient-6);
      }

      .cls-18 {
        fill: url(#linear-gradient-11);
      }

      .cls-19 {
        fill: url(#linear-gradient-16);
      }

      .cls-20 {
        fill: url(#linear-gradient-17);
      }

      .cls-21 {
        fill: url(#linear-gradient-18);
      }

      .cls-22 {
        fill: url(#linear-gradient-23);
      }

      .cls-23 {
        fill: url(#linear-gradient-24);
      }

      .cls-24, .cls-25 {
        font-size: 13px;
        font-family: NouvelleVague-Medium, Nouvelle Vague;
        font-weight: 500;
      }

      .cls-24, .cls-26 {
        fill: #66252a;
      }

      .cls-25, .cls-29 {
        fill: #231f20;
      }

      .cls-26, .cls-29 {
        font-size: 21px;
        font-family: CopperplateGothic-Bold, Copperplate Gothic Bold;
        font-weight: 700;
      }

      .cls-27 {
        letter-spacing: -0.002em;
      }

      .cls-28 {
        letter-spacing: 0.0063em;
      }
    </style>
    <linearGradient id="linear-gradient" x1="-21.632" y1="-52.4677" x2="-21.632" y2="-171.4265" gradientTransform="translate(199.5338 170.0146) rotate(180)" gradientUnits="userSpaceOnUse">
      <stop offset="0" stop-color="#2e2e2e"/>
      <stop offset="0.1236" stop-color="#333"/>
      <stop offset="0.2617" stop-color="#404040"/>
      <stop offset="0.4069" stop-color="#565656"/>
      <stop offset="0.5571" stop-color="#767676"/>
      <stop offset="0.7111" stop-color="#9e9e9e"/>
      <stop offset="0.8658" stop-color="#cfcfcf"/>
      <stop offset="1" stop-color="#fff"/>
    </linearGradient>
    <linearGradient id="linear-gradient-6" x1="98.7118" y1="109.852" x2="98.7118" y2="-42.9444" xlink:href="#linear-gradient"/>
    <linearGradient id="linear-gradient-11" x1="223.1383" y1="109.852" x2="223.1383" y2="-42.8381" gradientTransform="matrix(1, 0, 0, -1, 118.8596, 170.0146)" xlink:href="#linear-gradient"/>
    <linearGradient id="linear-gradient-16" x1="55.425" y1="181.1687" x2="55.425" y2="-0.0316" xlink:href="#linear-gradient"/>
    <linearGradient id="linear-gradient-17" x1="55.425" y1="218.4158" x2="55.425" y2="37.2155" xlink:href="#linear-gradient"/>
    <linearGradient id="linear-gradient-18" x1="-104.5593" y1="218.4158" x2="-104.5593" y2="37.2155" gradientTransform="matrix(1, 0, 0, -1, 402.578, 170.0146)" xlink:href="#linear-gradient"/>
    <linearGradient id="linear-gradient-23" x1="-104.5587" y1="180.9916" x2="-104.5587" y2="-0.2087" gradientTransform="matrix(1, 0, 0, -1, 402.578, 170.0146)" xlink:href="#linear-gradient"/>
    <linearGradient id="linear-gradient-24" x1="-21.5278" y1="143.5674" x2="-21.5278" y2="-37.6329" xlink:href="#linear-gradient"/>
  </defs>
  <g class="cls-1">
    <g id="Layer_2" data-name="Layer 2">
      <g id="OBJECT">
        <g>
          <g>
            <rect class="cls-2" x="36.9815" y="312.5241" width="0.831" height="20.8848" transform="translate(-285.5695 360.3635) rotate(-90)"/>
            <rect class="cls-2" x="25.6506" y="297.9268" width="9.0457" height="4.9859"/>
            <rect class="cls-2" x="27.633" y="301.6662" width="0.831" height="20.8848"/>
            <rect class="cls-2" x="30.2298" y="301.6662" width="0.831" height="20.8848"/>
            <rect class="cls-2" x="32.8266" y="301.6662" width="0.831" height="20.8848"/>
          </g>
          <g>
            <rect class="cls-2" x="404.2023" y="312.5241" width="0.831" height="20.8848" transform="translate(81.6513 727.5843) rotate(-90)"/>
            <rect class="cls-2" x="407.3185" y="297.9268" width="9.0457" height="4.9859" transform="translate(823.6827 600.8395) rotate(180)"/>
            <rect class="cls-2" x="413.5509" y="301.6662" width="0.8309" height="20.8848" transform="translate(827.9327 624.2172) rotate(180)"/>
            <rect class="cls-2" x="410.954" y="301.6662" width="0.831" height="20.8848" transform="translate(822.739 624.2172) rotate(180)"/>
            <rect class="cls-2" x="408.3572" y="301.6662" width="0.831" height="20.8848" transform="translate(817.5454 624.2172) rotate(180)"/>
          </g>
          <g>
            <g>
              <rect class="cls-2" x="55.1141" y="197.1185" width="0.2247" height="5.649" transform="translate(-144.7166 255.1694) rotate(-90)"/>
              <rect class="cls-2" x="52.0492" y="193.1701" width="2.4467" height="1.3486"/>
              <rect class="cls-2" x="52.5854" y="194.1816" width="0.2247" height="5.6491"/>
              <rect class="cls-2" x="53.2878" y="194.1816" width="0.2247" height="5.6491"/>
              <rect class="cls-2" x="53.9902" y="194.1816" width="0.2247" height="5.6491"/>
            </g>
            <g>
              <rect class="cls-2" x="55.114" y="161.0643" width="0.2248" height="5.649" transform="translate(-108.6624 219.1152) rotate(-90)"/>
              <rect class="cls-2" x="52.0492" y="157.1159" width="2.4467" height="1.3486"/>
              <rect class="cls-2" x="52.5854" y="158.1273" width="0.2247" height="5.6491"/>
              <rect class="cls-2" x="53.2878" y="158.1273" width="0.2247" height="5.6491"/>
              <rect class="cls-2" x="53.9902" y="158.1273" width="0.2247" height="5.6491"/>
            </g>
            <g>
              <rect class="cls-2" x="55.114" y="125.01" width="0.2248" height="5.649" transform="translate(-72.6081 183.0609) rotate(-90)"/>
              <rect class="cls-2" x="52.0492" y="121.0616" width="2.4467" height="1.3486"/>
              <rect class="cls-2" x="52.5854" y="122.073" width="0.2247" height="5.6491"/>
              <rect class="cls-2" x="53.2878" y="122.073" width="0.2247" height="5.6491"/>
              <rect class="cls-2" x="53.9902" y="122.073" width="0.2247" height="5.6491"/>
            </g>
            <g>
              <rect class="cls-2" x="55.114" y="88.9557" width="0.2247" height="5.649" transform="translate(-36.5538 147.0066) rotate(-90)"/>
              <rect class="cls-2" x="52.0492" y="85.0073" width="2.4467" height="1.3486"/>
              <rect class="cls-2" x="52.5854" y="86.0188" width="0.2247" height="5.6491"/>
              <rect class="cls-2" x="53.2878" y="86.0188" width="0.2247" height="5.6491"/>
              <rect class="cls-2" x="53.9902" y="86.0188" width="0.2247" height="5.6491"/>
            </g>
          </g>
          <g>
            <g>
              <rect class="cls-2" x="386.1718" y="197.1185" width="0.2247" height="5.6491" transform="translate(186.3411 586.2272) rotate(-90)"/>
              <rect class="cls-2" x="387.0146" y="193.1701" width="2.4468" height="1.3486" transform="translate(776.476 387.6888) rotate(180)"/>
              <rect class="cls-2" x="388.7004" y="194.1816" width="0.2248" height="5.6491" transform="translate(777.6256 394.0123) rotate(180)"/>
              <rect class="cls-2" x="387.998" y="194.1816" width="0.2248" height="5.6491" transform="translate(776.2208 394.0123) rotate(180)"/>
              <rect class="cls-2" x="387.2956" y="194.1816" width="0.2248" height="5.6491" transform="translate(774.816 394.0123) rotate(180)"/>
            </g>
            <g>
              <rect class="cls-2" x="386.1717" y="161.0643" width="0.2248" height="5.6491" transform="translate(222.3953 550.1729) rotate(-90)"/>
              <rect class="cls-2" x="387.0146" y="157.1159" width="2.4468" height="1.3486" transform="translate(776.476 315.5804) rotate(180)"/>
              <rect class="cls-2" x="388.7004" y="158.1273" width="0.2248" height="5.6491" transform="translate(777.6256 321.9037) rotate(180)"/>
              <rect class="cls-2" x="387.998" y="158.1273" width="0.2248" height="5.6491" transform="translate(776.2208 321.9037) rotate(180)"/>
              <rect class="cls-2" x="387.2956" y="158.1273" width="0.2248" height="5.6491" transform="translate(774.816 321.9037) rotate(180)"/>
            </g>
            <g>
              <rect class="cls-2" x="386.1717" y="125.01" width="0.2248" height="5.6491" transform="translate(258.4496 514.1186) rotate(-90)"/>
              <rect class="cls-2" x="387.0146" y="121.0616" width="2.4468" height="1.3486" transform="translate(776.476 243.4718) rotate(180)"/>
              <rect class="cls-2" x="388.7004" y="122.073" width="0.2248" height="5.6491" transform="translate(777.6256 249.7951) rotate(180)"/>
              <rect class="cls-2" x="387.998" y="122.073" width="0.2248" height="5.6491" transform="translate(776.2208 249.7951) rotate(180)"/>
              <rect class="cls-2" x="387.2956" y="122.073" width="0.2248" height="5.6491" transform="translate(774.816 249.7951) rotate(180)"/>
            </g>
            <g>
              <rect class="cls-2" x="386.1718" y="88.9557" width="0.2247" height="5.6491" transform="translate(294.5039 478.0644) rotate(-90)"/>
              <rect class="cls-2" x="387.0146" y="85.0073" width="2.4468" height="1.3486" transform="translate(776.476 171.3632) rotate(180)"/>
              <rect class="cls-2" x="388.7004" y="86.0188" width="0.2248" height="5.6491" transform="translate(777.6256 177.6867) rotate(180)"/>
              <rect class="cls-2" x="387.998" y="86.0188" width="0.2248" height="5.6491" transform="translate(776.2208 177.6867) rotate(180)"/>
              <rect class="cls-2" x="387.2956" y="86.0188" width="0.2248" height="5.6491" transform="translate(774.816 177.6867) rotate(180)"/>
            </g>
          </g>
          <polygon class="cls-3" points="278.317 0 221.063 0 163.81 0 141.071 22.738 221.063 24.593 301.056 22.738 278.317 0"/>
          <polygon class="cls-3" points="183.121 33.042 125.867 33.042 68.614 33.042 45.875 52.115 125.867 53.67 205.86 52.115 183.121 33.042"/>
          <polygon class="cls-3" points="372.949 33.047 315.695 33.047 258.441 33.047 235.703 52.12 315.695 53.675 395.687 52.12 372.949 33.047"/>
          <g>
            <rect class="cls-4" x="285.9389" y="57.2171" width="104.5741" height="2.9455" transform="translate(676.4519 117.3797) rotate(180)"/>
            <rect class="cls-2" x="285.9389" y="52.1143" width="109.7438" height="5.891" transform="translate(681.6216 110.1196) rotate(180)"/>
          </g>
          <rect class="cls-5" x="294.979" y="60.1626" width="92.0829" height="152.7964" transform="translate(682.0409 273.1216) rotate(180)"/>
          <g>
            <g>
              <g>
                <path class="cls-2" d="M359.4054,187.4552v12.9626H370.424V187.4552a5.4141,5.4141,0,0,0-.9642-3.1027,3.45,3.45,0,0,0-.2256-.3265,5.5115,5.5115,0,0,0-4.1212-2.0762,1.7526,1.7526,0,0,0-.2022-.0078,1.4934,1.4934,0,0,0-.1866.0078,5.5,5.5,0,0,0-3.7091,1.61,6.0055,6.0055,0,0,0-.42.4666,3.4676,3.4676,0,0,0-.2255.3265A5.4148,5.4148,0,0,0,359.4054,187.4552Z"/>
                <rect class="cls-6" x="359.4052" y="188.3287" width="11.0256" height="0.5832" transform="translate(729.836 377.2406) rotate(180)"/>
                <rect class="cls-6" x="359.4052" y="199.8307" width="11.0256" height="0.5832" transform="translate(729.836 400.2446) rotate(180)"/>
              </g>
              <g>
                <path class="cls-2" d="M335.5079,187.4552v12.9626h11.0185V187.4552a5.4141,5.4141,0,0,0-.9642-3.1027,3.4489,3.4489,0,0,0-.2255-.3265,5.5115,5.5115,0,0,0-4.1213-2.0762,1.7517,1.7517,0,0,0-.2022-.0078,1.4942,1.4942,0,0,0-.1866.0078,5.5,5.5,0,0,0-3.7091,1.61,6.0043,6.0043,0,0,0-.42.4666,3.4489,3.4489,0,0,0-.2255.3265A5.4141,5.4141,0,0,0,335.5079,187.4552Z"/>
                <rect class="cls-6" x="335.5077" y="188.3287" width="11.0256" height="0.5832" transform="translate(682.041 377.2406) rotate(180)"/>
                <rect class="cls-6" x="335.5077" y="199.8307" width="11.0256" height="0.5832" transform="translate(682.041 400.2446) rotate(180)"/>
              </g>
              <g>
                <path class="cls-2" d="M311.61,187.4552v12.9626h11.0186V187.4552a5.4141,5.4141,0,0,0-.9642-3.1027,3.45,3.45,0,0,0-.2256-.3265,5.5115,5.5115,0,0,0-4.1212-2.0762,1.7526,1.7526,0,0,0-.2022-.0078,1.4934,1.4934,0,0,0-.1866.0078,5.5,5.5,0,0,0-3.7091,1.61,6.0055,6.0055,0,0,0-.42.4666,3.4676,3.4676,0,0,0-.2255.3265A5.4148,5.4148,0,0,0,311.61,187.4552Z"/>
                <rect class="cls-6" x="311.6101" y="188.3287" width="11.0256" height="0.5832" transform="translate(634.2458 377.2406) rotate(180)"/>
                <rect class="cls-6" x="311.6101" y="199.8307" width="11.0256" height="0.5832" transform="translate(634.2458 400.2446) rotate(180)"/>
              </g>
            </g>
            <g>
              <g>
                <path class="cls-2" d="M359.4054,151.0425v12.9626H370.424V151.0425a5.4141,5.4141,0,0,0-.9642-3.1027,3.45,3.45,0,0,0-.2256-.3265,5.5115,5.5115,0,0,0-4.1212-2.0762,1.7526,1.7526,0,0,0-.2022-.0078,1.4934,1.4934,0,0,0-.1866.0078,5.5,5.5,0,0,0-3.7091,1.61,6.0055,6.0055,0,0,0-.42.4666,3.4676,3.4676,0,0,0-.2255.3265A5.4148,5.4148,0,0,0,359.4054,151.0425Z"/>
                <rect class="cls-6" x="359.4052" y="151.916" width="11.0256" height="0.5832" transform="translate(729.836 304.4152) rotate(180)"/>
                <rect class="cls-6" x="359.4052" y="163.418" width="11.0256" height="0.5832" transform="translate(729.836 327.4192) rotate(180)"/>
              </g>
              <g>
                <path class="cls-2" d="M335.5079,151.0425v12.9626h11.0185V151.0425a5.4141,5.4141,0,0,0-.9642-3.1027,3.4489,3.4489,0,0,0-.2255-.3265,5.5115,5.5115,0,0,0-4.1213-2.0762,1.7517,1.7517,0,0,0-.2022-.0078,1.4942,1.4942,0,0,0-.1866.0078,5.5,5.5,0,0,0-3.7091,1.61,6.0043,6.0043,0,0,0-.42.4666,3.4489,3.4489,0,0,0-.2255.3265A5.4141,5.4141,0,0,0,335.5079,151.0425Z"/>
                <rect class="cls-6" x="335.5077" y="151.916" width="11.0256" height="0.5832" transform="translate(682.041 304.4152) rotate(180)"/>
                <rect class="cls-6" x="335.5077" y="163.418" width="11.0256" height="0.5832" transform="translate(682.041 327.4192) rotate(180)"/>
              </g>
              <g>
                <path class="cls-2" d="M311.61,151.0425v12.9626h11.0186V151.0425a5.4141,5.4141,0,0,0-.9642-3.1027,3.45,3.45,0,0,0-.2256-.3265,5.5115,5.5115,0,0,0-4.1212-2.0762,1.7526,1.7526,0,0,0-.2022-.0078,1.4934,1.4934,0,0,0-.1866.0078,5.5,5.5,0,0,0-3.7091,1.61,6.0055,6.0055,0,0,0-.42.4666,3.4676,3.4676,0,0,0-.2255.3265A5.4148,5.4148,0,0,0,311.61,151.0425Z"/>
                <rect class="cls-6" x="311.6101" y="151.916" width="11.0256" height="0.5832" transform="translate(634.2458 304.4152) rotate(180)"/>
                <rect class="cls-6" x="311.6101" y="163.418" width="11.0256" height="0.5832" transform="translate(634.2458 327.4192) rotate(180)"/>
              </g>
            </g>
            <g>
              <g>
                <path class="cls-2" d="M359.4054,114.63v12.9626H370.424V114.63a5.4136,5.4136,0,0,0-.9642-3.1026,3.4383,3.4383,0,0,0-.2256-.3266,5.5115,5.5115,0,0,0-4.1212-2.0762,1.7526,1.7526,0,0,0-.2022-.0078,1.4934,1.4934,0,0,0-.1866.0078,5.5,5.5,0,0,0-3.7091,1.61,6.0055,6.0055,0,0,0-.42.4666,3.4563,3.4563,0,0,0-.2255.3266A5.4143,5.4143,0,0,0,359.4054,114.63Z"/>
                <rect class="cls-6" x="359.4052" y="115.5033" width="11.0256" height="0.5832" transform="translate(729.836 231.5898) rotate(180)"/>
                <rect class="cls-6" x="359.4052" y="127.0053" width="11.0256" height="0.5832" transform="translate(729.836 254.5938) rotate(180)"/>
              </g>
              <g>
                <path class="cls-2" d="M335.5079,114.63v12.9626h11.0185V114.63a5.4136,5.4136,0,0,0-.9642-3.1026,3.4378,3.4378,0,0,0-.2255-.3266,5.5115,5.5115,0,0,0-4.1213-2.0762,1.7517,1.7517,0,0,0-.2022-.0078,1.4942,1.4942,0,0,0-.1866.0078,5.5,5.5,0,0,0-3.7091,1.61,6.0043,6.0043,0,0,0-.42.4666,3.4378,3.4378,0,0,0-.2255.3266A5.4136,5.4136,0,0,0,335.5079,114.63Z"/>
                <rect class="cls-6" x="335.5077" y="115.5033" width="11.0256" height="0.5832" transform="translate(682.041 231.5898) rotate(180)"/>
                <rect class="cls-6" x="335.5077" y="127.0053" width="11.0256" height="0.5832" transform="translate(682.041 254.5938) rotate(180)"/>
              </g>
              <g>
                <path class="cls-2" d="M311.61,114.63v12.9626h11.0186V114.63a5.4136,5.4136,0,0,0-.9642-3.1026,3.4383,3.4383,0,0,0-.2256-.3266,5.5115,5.5115,0,0,0-4.1212-2.0762,1.7526,1.7526,0,0,0-.2022-.0078,1.4934,1.4934,0,0,0-.1866.0078,5.5,5.5,0,0,0-3.7091,1.61,6.0055,6.0055,0,0,0-.42.4666,3.4563,3.4563,0,0,0-.2255.3266A5.4143,5.4143,0,0,0,311.61,114.63Z"/>
                <rect class="cls-6" x="311.6101" y="115.5033" width="11.0256" height="0.5832" transform="translate(634.2458 231.5898) rotate(180)"/>
                <rect class="cls-6" x="311.6101" y="127.0053" width="11.0256" height="0.5832" transform="translate(634.2458 254.5938) rotate(180)"/>
              </g>
            </g>
            <g>
              <g>
                <path class="cls-2" d="M359.4054,78.2171V91.18H370.424V78.2171a5.4136,5.4136,0,0,0-.9642-3.1026,3.4383,3.4383,0,0,0-.2256-.3266,5.5115,5.5115,0,0,0-4.1212-2.0762,1.7526,1.7526,0,0,0-.2022-.0078,1.4934,1.4934,0,0,0-.1866.0078,5.5,5.5,0,0,0-3.7091,1.61,6.0055,6.0055,0,0,0-.42.4666,3.4563,3.4563,0,0,0-.2255.3266A5.4143,5.4143,0,0,0,359.4054,78.2171Z"/>
                <rect class="cls-6" x="359.4052" y="79.0906" width="11.0256" height="0.5832" transform="translate(729.836 158.7644) rotate(180)"/>
                <rect class="cls-6" x="359.4052" y="90.5926" width="11.0256" height="0.5832" transform="translate(729.836 181.7684) rotate(180)"/>
              </g>
              <g>
                <path class="cls-2" d="M335.5079,78.2171V91.18h11.0185V78.2171a5.4136,5.4136,0,0,0-.9642-3.1026,3.4378,3.4378,0,0,0-.2255-.3266,5.5115,5.5115,0,0,0-4.1213-2.0762,1.7517,1.7517,0,0,0-.2022-.0078,1.4942,1.4942,0,0,0-.1866.0078,5.5,5.5,0,0,0-3.7091,1.61,6.0043,6.0043,0,0,0-.42.4666,3.4378,3.4378,0,0,0-.2255.3266A5.4136,5.4136,0,0,0,335.5079,78.2171Z"/>
                <rect class="cls-6" x="335.5077" y="79.0906" width="11.0256" height="0.5832" transform="translate(682.041 158.7644) rotate(180)"/>
                <rect class="cls-6" x="335.5077" y="90.5926" width="11.0256" height="0.5832" transform="translate(682.041 181.7684) rotate(180)"/>
              </g>
              <g>
                <path class="cls-2" d="M311.61,78.2171V91.18h11.0186V78.2171a5.4136,5.4136,0,0,0-.9642-3.1026,3.4383,3.4383,0,0,0-.2256-.3266,5.5115,5.5115,0,0,0-4.1212-2.0762,1.7526,1.7526,0,0,0-.2022-.0078,1.4934,1.4934,0,0,0-.1866.0078,5.5,5.5,0,0,0-3.7091,1.61,6.0055,6.0055,0,0,0-.42.4666,3.4563,3.4563,0,0,0-.2255.3266A5.4143,5.4143,0,0,0,311.61,78.2171Z"/>
                <rect class="cls-6" x="311.6101" y="79.0906" width="11.0256" height="0.5832" transform="translate(634.2458 158.7644) rotate(180)"/>
                <rect class="cls-6" x="311.6101" y="90.5926" width="11.0256" height="0.5832" transform="translate(634.2458 181.7684) rotate(180)"/>
              </g>
            </g>
          </g>
          <g>
            <rect class="cls-4" x="51.0448" y="57.2171" width="104.5741" height="2.9455"/>
            <rect class="cls-2" x="45.8751" y="52.1143" width="109.7438" height="5.891"/>
          </g>
          <rect class="cls-5" x="54.4959" y="60.1626" width="92.6522" height="152.7964"/>
          <g>
            <rect class="cls-5" x="34.6577" y="218.7062" width="120.9576" height="122.7378"/>
            <rect class="cls-5" x="286.5122" y="218.7062" width="120.9576" height="122.7378"/>
          </g>
          <rect class="cls-7" x="147.146" y="24.5861" width="147.8355" height="183.0614"/>
          <rect class="cls-4" x="141.0772" y="228.4702" width="159.9731" height="7.9838"/>
          <rect class="cls-5" x="165.8872" y="236.4549" width="110.3527" height="104.9861"/>
          <rect class="cls-6" x="178.8528" y="239.9373" width="84.4215" height="101.5037"/>
          <rect class="cls-2" x="183.0628" y="243.7427" width="9.023" height="16.4254"/>
          <rect class="cls-2" x="198.5061" y="243.7427" width="45.1149" height="16.4254"/>
          <rect class="cls-2" x="183.0628" y="265.4326" width="9.023" height="66.8119"/>
          <rect class="cls-2" x="250.1558" y="243.7427" width="9.023" height="16.4254"/>
          <rect class="cls-2" x="250.1558" y="265.4326" width="9.023" height="66.8119"/>
          <g>
            <rect class="cls-8" x="198.5061" y="265.4326" width="45.1149" height="76.0084"/>
            <rect class="cls-2" x="202.5456" y="269.4479" width="37.0359" height="62.7966"/>
          </g>
          <g>
            <path class="cls-9" d="M201.2235,299.3277a.8088.8088,0,1,1-.8087-.8088A.8088.8088,0,0,1,201.2235,299.3277Z"/>
            <path class="cls-9" d="M201.2235,305.7479a.8088.8088,0,1,1-.8087-.8087A.8088.8088,0,0,1,201.2235,305.7479Z"/>
            <rect class="cls-9" x="200.0966" y="299.7894" width="0.6363" height="5.9585"/>
          </g>
          <g>
            <rect class="cls-10" x="147.146" y="136.8721" width="147.8355" height="3.6952"/>
            <rect class="cls-10" x="147.146" y="99.4479" width="147.8355" height="3.6952"/>
            <rect class="cls-10" x="147.146" y="62.0237" width="147.8355" height="3.6952"/>
            <rect class="cls-6" x="141.0712" y="135.011" width="159.9847" height="3.7087" rx="1.375"/>
            <g>
              <g>
                <path class="cls-2" d="M172.3241,151.219v12.9626H161.3055V151.219a5.4136,5.4136,0,0,1,.9642-3.1026,3.4512,3.4512,0,0,1,.2256-.3266,5.512,5.512,0,0,1,4.1212-2.0762,1.7526,1.7526,0,0,1,.2022-.0078,1.4934,1.4934,0,0,1,.1866.0078,5.5,5.5,0,0,1,3.7091,1.61,5.9858,5.9858,0,0,1,.42.4665,3.45,3.45,0,0,1,.2254.3266A5.4136,5.4136,0,0,1,172.3241,151.219Z"/>
                <rect class="cls-6" x="161.2986" y="152.0925" width="11.0257" height="0.5832"/>
                <rect class="cls-6" x="161.2986" y="163.5945" width="11.0257" height="0.5832"/>
              </g>
              <g>
                <path class="cls-2" d="M194.0249,151.219v12.9626H183.0063V151.219a5.4136,5.4136,0,0,1,.9643-3.1026,3.4506,3.4506,0,0,1,.2255-.3266,5.5122,5.5122,0,0,1,4.1213-2.0762,1.75,1.75,0,0,1,.2021-.0078,1.4958,1.4958,0,0,1,.1867.0078,5.5,5.5,0,0,1,3.7091,1.61,5.9846,5.9846,0,0,1,.42.4665,3.4693,3.4693,0,0,1,.2255.3266A5.4136,5.4136,0,0,1,194.0249,151.219Z"/>
                <rect class="cls-6" x="182.9995" y="152.0925" width="11.0256" height="0.5832"/>
                <rect class="cls-6" x="182.9995" y="163.5945" width="11.0256" height="0.5832"/>
              </g>
              <g>
                <path class="cls-2" d="M215.7257,151.219v12.9626H204.7072V151.219a5.4136,5.4136,0,0,1,.9642-3.1026,3.4506,3.4506,0,0,1,.2255-.3266,5.5124,5.5124,0,0,1,4.1213-2.0762,1.7526,1.7526,0,0,1,.2022-.0078,1.4934,1.4934,0,0,1,.1866.0078,5.5,5.5,0,0,1,3.7091,1.61,5.9846,5.9846,0,0,1,.42.4665,3.4321,3.4321,0,0,1,.2255.3266A5.4136,5.4136,0,0,1,215.7257,151.219Z"/>
                <rect class="cls-6" x="204.7003" y="152.0925" width="11.0256" height="0.5832"/>
                <rect class="cls-6" x="204.7003" y="163.5945" width="11.0256" height="0.5832"/>
              </g>
              <g>
                <path class="cls-2" d="M237.4266,151.219v12.9626H226.408V151.219a5.4143,5.4143,0,0,1,.9642-3.1026,3.4512,3.4512,0,0,1,.2256-.3266,5.5122,5.5122,0,0,1,4.1212-2.0762,1.7526,1.7526,0,0,1,.2022-.0078,1.4934,1.4934,0,0,1,.1866.0078,5.5,5.5,0,0,1,3.7091,1.61,5.9858,5.9858,0,0,1,.42.4665,3.4693,3.4693,0,0,1,.2255.3266A5.4143,5.4143,0,0,1,237.4266,151.219Z"/>
                <rect class="cls-6" x="226.4012" y="152.0925" width="11.0256" height="0.5832"/>
                <rect class="cls-6" x="226.4012" y="163.5945" width="11.0256" height="0.5832"/>
              </g>
              <g>
                <path class="cls-2" d="M259.1274,151.219v12.9626H248.1089V151.219a5.4136,5.4136,0,0,1,.9642-3.1026,3.4506,3.4506,0,0,1,.2255-.3266,5.5122,5.5122,0,0,1,4.1213-2.0762,1.7508,1.7508,0,0,1,.2022-.0078,1.495,1.495,0,0,1,.1866.0078,5.5,5.5,0,0,1,3.7091,1.61,5.9846,5.9846,0,0,1,.42.4665,3.4506,3.4506,0,0,1,.2255.3266A5.4136,5.4136,0,0,1,259.1274,151.219Z"/>
                <rect class="cls-6" x="248.102" y="152.0925" width="11.0256" height="0.5832"/>
                <rect class="cls-6" x="248.102" y="163.5945" width="11.0256" height="0.5832"/>
              </g>
              <g>
                <path class="cls-2" d="M280.8283,151.219v12.9626H269.81V151.219a5.4136,5.4136,0,0,1,.9642-3.1026,3.4693,3.4693,0,0,1,.2255-.3266,5.5124,5.5124,0,0,1,4.1213-2.0762,1.7526,1.7526,0,0,1,.2022-.0078,1.4934,1.4934,0,0,1,.1866.0078,5.5,5.5,0,0,1,3.7091,1.61,5.9858,5.9858,0,0,1,.42.4665,3.45,3.45,0,0,1,.2254.3266A5.4136,5.4136,0,0,1,280.8283,151.219Z"/>
                <rect class="cls-6" x="269.8028" y="152.0925" width="11.0257" height="0.5832"/>
                <rect class="cls-6" x="269.8028" y="163.5945" width="11.0257" height="0.5832"/>
              </g>
            </g>
          </g>
          <g>
            <rect class="cls-6" x="141.0712" y="97.5868" width="159.9847" height="3.7087" rx="1.375"/>
            <g>
              <g>
                <path class="cls-2" d="M172.3241,113.7948v12.9626H161.3055V113.7948a5.414,5.414,0,0,1,.9642-3.1026,3.4512,3.4512,0,0,1,.2256-.3266,5.5116,5.5116,0,0,1,4.1212-2.0761,1.7526,1.7526,0,0,1,.2022-.0078,1.4934,1.4934,0,0,1,.1866.0078,5.5,5.5,0,0,1,3.7091,1.61,5.9858,5.9858,0,0,1,.42.4665,3.45,3.45,0,0,1,.2254.3266A5.4141,5.4141,0,0,1,172.3241,113.7948Z"/>
                <rect class="cls-6" x="161.2986" y="114.6684" width="11.0257" height="0.5831"/>
                <rect class="cls-6" x="161.2986" y="126.1703" width="11.0257" height="0.5832"/>
              </g>
              <g>
                <path class="cls-2" d="M194.0249,113.7948v12.9626H183.0063V113.7948a5.4141,5.4141,0,0,1,.9643-3.1026,3.4506,3.4506,0,0,1,.2255-.3266,5.5118,5.5118,0,0,1,4.1213-2.0761,1.75,1.75,0,0,1,.2021-.0078,1.4958,1.4958,0,0,1,.1867.0078,5.5,5.5,0,0,1,3.7091,1.61,5.9846,5.9846,0,0,1,.42.4665,3.4693,3.4693,0,0,1,.2255.3266A5.414,5.414,0,0,1,194.0249,113.7948Z"/>
                <rect class="cls-6" x="182.9995" y="114.6684" width="11.0256" height="0.5831"/>
                <rect class="cls-6" x="182.9995" y="126.1703" width="11.0256" height="0.5832"/>
              </g>
              <g>
                <path class="cls-2" d="M215.7257,113.7948v12.9626H204.7072V113.7948a5.414,5.414,0,0,1,.9642-3.1026,3.4506,3.4506,0,0,1,.2255-.3266,5.5119,5.5119,0,0,1,4.1213-2.0761,1.7526,1.7526,0,0,1,.2022-.0078,1.4934,1.4934,0,0,1,.1866.0078,5.5,5.5,0,0,1,3.7091,1.61,5.9846,5.9846,0,0,1,.42.4665,3.4321,3.4321,0,0,1,.2255.3266A5.414,5.414,0,0,1,215.7257,113.7948Z"/>
                <rect class="cls-6" x="204.7003" y="114.6684" width="11.0256" height="0.5831"/>
                <rect class="cls-6" x="204.7003" y="126.1703" width="11.0256" height="0.5832"/>
              </g>
              <g>
                <path class="cls-2" d="M237.4266,113.7948v12.9626H226.408V113.7948a5.4148,5.4148,0,0,1,.9642-3.1026,3.4512,3.4512,0,0,1,.2256-.3266,5.5117,5.5117,0,0,1,4.1212-2.0761,1.7526,1.7526,0,0,1,.2022-.0078,1.4934,1.4934,0,0,1,.1866.0078,5.4993,5.4993,0,0,1,3.7091,1.61,5.9858,5.9858,0,0,1,.42.4665,3.4693,3.4693,0,0,1,.2255.3266A5.4148,5.4148,0,0,1,237.4266,113.7948Z"/>
                <rect class="cls-6" x="226.4012" y="114.6684" width="11.0256" height="0.5831"/>
                <rect class="cls-6" x="226.4012" y="126.1703" width="11.0256" height="0.5832"/>
              </g>
              <g>
                <path class="cls-2" d="M259.1274,113.7948v12.9626H248.1089V113.7948a5.414,5.414,0,0,1,.9642-3.1026,3.4506,3.4506,0,0,1,.2255-.3266A5.5118,5.5118,0,0,1,253.42,108.29a1.7508,1.7508,0,0,1,.2022-.0078,1.495,1.495,0,0,1,.1866.0078,5.5,5.5,0,0,1,3.7091,1.61,5.9846,5.9846,0,0,1,.42.4665,3.4506,3.4506,0,0,1,.2255.3266A5.414,5.414,0,0,1,259.1274,113.7948Z"/>
                <rect class="cls-6" x="248.102" y="114.6684" width="11.0256" height="0.5831"/>
                <rect class="cls-6" x="248.102" y="126.1703" width="11.0256" height="0.5832"/>
              </g>
              <g>
                <path class="cls-2" d="M280.8283,113.7948v12.9626H269.81V113.7948a5.414,5.414,0,0,1,.9642-3.1026,3.4693,3.4693,0,0,1,.2255-.3266,5.5119,5.5119,0,0,1,4.1213-2.0761,1.7526,1.7526,0,0,1,.2022-.0078,1.4934,1.4934,0,0,1,.1866.0078,5.5,5.5,0,0,1,3.7091,1.61,5.9858,5.9858,0,0,1,.42.4665,3.45,3.45,0,0,1,.2254.3266A5.4141,5.4141,0,0,1,280.8283,113.7948Z"/>
                <rect class="cls-6" x="269.8028" y="114.6684" width="11.0257" height="0.5831"/>
                <rect class="cls-6" x="269.8028" y="126.1703" width="11.0257" height="0.5832"/>
              </g>
            </g>
          </g>
          <g>
            <rect class="cls-6" x="141.0712" y="60.1626" width="159.9847" height="3.7087" rx="1.375"/>
            <g>
              <g>
                <path class="cls-2" d="M172.3241,76.3707V89.3333H161.3055V76.3707a5.4141,5.4141,0,0,1,.9642-3.1027,3.45,3.45,0,0,1,.2256-.3265,5.5113,5.5113,0,0,1,4.1212-2.0762,1.7526,1.7526,0,0,1,.2022-.0078,1.4934,1.4934,0,0,1,.1866.0078,5.5,5.5,0,0,1,3.7091,1.61,6.0055,6.0055,0,0,1,.42.4666,3.4483,3.4483,0,0,1,.2254.3265A5.4142,5.4142,0,0,1,172.3241,76.3707Z"/>
                <rect class="cls-6" x="161.2986" y="77.2442" width="11.0257" height="0.5832"/>
                <rect class="cls-6" x="161.2986" y="88.7462" width="11.0257" height="0.5832"/>
              </g>
              <g>
                <path class="cls-2" d="M194.0249,76.3707V89.3333H183.0063V76.3707a5.4142,5.4142,0,0,1,.9643-3.1027,3.4489,3.4489,0,0,1,.2255-.3265,5.5115,5.5115,0,0,1,4.1213-2.0762,1.75,1.75,0,0,1,.2021-.0078,1.4958,1.4958,0,0,1,.1867.0078,5.5,5.5,0,0,1,3.7091,1.61,6.0043,6.0043,0,0,1,.42.4666,3.4676,3.4676,0,0,1,.2255.3265A5.4141,5.4141,0,0,1,194.0249,76.3707Z"/>
                <rect class="cls-6" x="182.9995" y="77.2442" width="11.0256" height="0.5832"/>
                <rect class="cls-6" x="182.9995" y="88.7462" width="11.0256" height="0.5832"/>
              </g>
              <g>
                <path class="cls-2" d="M215.7257,76.3707V89.3333H204.7072V76.3707a5.4141,5.4141,0,0,1,.9642-3.1027,3.4489,3.4489,0,0,1,.2255-.3265,5.5117,5.5117,0,0,1,4.1213-2.0762,1.7526,1.7526,0,0,1,.2022-.0078,1.4934,1.4934,0,0,1,.1866.0078,5.5,5.5,0,0,1,3.7091,1.61,6.0043,6.0043,0,0,1,.42.4666,3.43,3.43,0,0,1,.2255.3265A5.4141,5.4141,0,0,1,215.7257,76.3707Z"/>
                <rect class="cls-6" x="204.7003" y="77.2442" width="11.0256" height="0.5832"/>
                <rect class="cls-6" x="204.7003" y="88.7462" width="11.0256" height="0.5832"/>
              </g>
              <g>
                <path class="cls-2" d="M237.4266,76.3707V89.3333H226.408V76.3707a5.4148,5.4148,0,0,1,.9642-3.1027,3.45,3.45,0,0,1,.2256-.3265,5.5115,5.5115,0,0,1,4.1212-2.0762,1.7526,1.7526,0,0,1,.2022-.0078,1.4934,1.4934,0,0,1,.1866.0078,5.5,5.5,0,0,1,3.7091,1.61,6.0055,6.0055,0,0,1,.42.4666,3.4676,3.4676,0,0,1,.2255.3265A5.4148,5.4148,0,0,1,237.4266,76.3707Z"/>
                <rect class="cls-6" x="226.4012" y="77.2442" width="11.0256" height="0.5832"/>
                <rect class="cls-6" x="226.4012" y="88.7462" width="11.0256" height="0.5832"/>
              </g>
              <g>
                <path class="cls-2" d="M259.1274,76.3707V89.3333H248.1089V76.3707a5.4141,5.4141,0,0,1,.9642-3.1027,3.4489,3.4489,0,0,1,.2255-.3265,5.5115,5.5115,0,0,1,4.1213-2.0762,1.7508,1.7508,0,0,1,.2022-.0078,1.495,1.495,0,0,1,.1866.0078,5.5,5.5,0,0,1,3.7091,1.61,6.0043,6.0043,0,0,1,.42.4666,3.4489,3.4489,0,0,1,.2255.3265A5.4141,5.4141,0,0,1,259.1274,76.3707Z"/>
                <rect class="cls-6" x="248.102" y="77.2442" width="11.0256" height="0.5832"/>
                <rect class="cls-6" x="248.102" y="88.7462" width="11.0256" height="0.5832"/>
              </g>
              <g>
                <path class="cls-2" d="M280.8283,76.3707V89.3333H269.81V76.3707a5.4141,5.4141,0,0,1,.9642-3.1027,3.4676,3.4676,0,0,1,.2255-.3265,5.5117,5.5117,0,0,1,4.1213-2.0762,1.7526,1.7526,0,0,1,.2022-.0078,1.4934,1.4934,0,0,1,.1866.0078,5.5,5.5,0,0,1,3.7091,1.61,6.0055,6.0055,0,0,1,.42.4666,3.4483,3.4483,0,0,1,.2254.3265A5.4142,5.4142,0,0,1,280.8283,76.3707Z"/>
                <rect class="cls-6" x="269.8028" y="77.2442" width="11.0257" height="0.5832"/>
                <rect class="cls-6" x="269.8028" y="88.7462" width="11.0257" height="0.5832"/>
              </g>
            </g>
          </g>
          <rect class="cls-2" x="141.0712" y="22.7385" width="159.9847" height="3.7087"/>
          <g>
            <g>
              <path class="cls-2" d="M172.3241,38.9465V51.9091H161.3055V38.9465a5.414,5.414,0,0,1,.9642-3.1026,3.4512,3.4512,0,0,1,.2256-.3266,5.512,5.512,0,0,1,4.1212-2.0762,1.7752,1.7752,0,0,1,.2022-.0077,1.5126,1.5126,0,0,1,.1866.0077,5.5,5.5,0,0,1,3.7091,1.61,5.9858,5.9858,0,0,1,.42.4665,3.45,3.45,0,0,1,.2254.3266A5.4141,5.4141,0,0,1,172.3241,38.9465Z"/>
              <rect class="cls-6" x="161.2986" y="39.82" width="11.0257" height="0.5832"/>
              <rect class="cls-6" x="161.2986" y="51.322" width="11.0257" height="0.5832"/>
            </g>
            <g>
              <path class="cls-2" d="M194.0249,38.9465V51.9091H183.0063V38.9465a5.4141,5.4141,0,0,1,.9643-3.1026,3.4506,3.4506,0,0,1,.2255-.3266,5.5122,5.5122,0,0,1,4.1213-2.0762,1.7726,1.7726,0,0,1,.2021-.0077,1.5151,1.5151,0,0,1,.1867.0077,5.5,5.5,0,0,1,3.7091,1.61,5.9846,5.9846,0,0,1,.42.4665,3.4693,3.4693,0,0,1,.2255.3266A5.414,5.414,0,0,1,194.0249,38.9465Z"/>
              <rect class="cls-6" x="182.9995" y="39.82" width="11.0256" height="0.5832"/>
              <rect class="cls-6" x="182.9995" y="51.322" width="11.0256" height="0.5832"/>
            </g>
            <g>
              <path class="cls-2" d="M215.7257,38.9465V51.9091H204.7072V38.9465a5.414,5.414,0,0,1,.9642-3.1026,3.4506,3.4506,0,0,1,.2255-.3266,5.5124,5.5124,0,0,1,4.1213-2.0762,1.7752,1.7752,0,0,1,.2022-.0077,1.5126,1.5126,0,0,1,.1866.0077,5.5,5.5,0,0,1,3.7091,1.61,5.9846,5.9846,0,0,1,.42.4665,3.4321,3.4321,0,0,1,.2255.3266A5.414,5.414,0,0,1,215.7257,38.9465Z"/>
              <rect class="cls-6" x="204.7003" y="39.82" width="11.0256" height="0.5832"/>
              <rect class="cls-6" x="204.7003" y="51.322" width="11.0256" height="0.5832"/>
            </g>
            <g>
              <path class="cls-2" d="M237.4266,38.9465V51.9091H226.408V38.9465a5.4148,5.4148,0,0,1,.9642-3.1026,3.4512,3.4512,0,0,1,.2256-.3266,5.5122,5.5122,0,0,1,4.1212-2.0762,1.7752,1.7752,0,0,1,.2022-.0077,1.5126,1.5126,0,0,1,.1866.0077,5.5,5.5,0,0,1,3.7091,1.61,5.9858,5.9858,0,0,1,.42.4665,3.4693,3.4693,0,0,1,.2255.3266A5.4148,5.4148,0,0,1,237.4266,38.9465Z"/>
              <rect class="cls-6" x="226.4012" y="39.82" width="11.0256" height="0.5832"/>
              <rect class="cls-6" x="226.4012" y="51.322" width="11.0256" height="0.5832"/>
            </g>
            <g>
              <path class="cls-2" d="M259.1274,38.9465V51.9091H248.1089V38.9465a5.414,5.414,0,0,1,.9642-3.1026,3.4506,3.4506,0,0,1,.2255-.3266,5.5122,5.5122,0,0,1,4.1213-2.0762,1.7734,1.7734,0,0,1,.2022-.0077,1.5142,1.5142,0,0,1,.1866.0077,5.5,5.5,0,0,1,3.7091,1.61,5.9846,5.9846,0,0,1,.42.4665,3.4506,3.4506,0,0,1,.2255.3266A5.414,5.414,0,0,1,259.1274,38.9465Z"/>
              <rect class="cls-6" x="248.102" y="39.82" width="11.0256" height="0.5832"/>
              <rect class="cls-6" x="248.102" y="51.322" width="11.0256" height="0.5832"/>
            </g>
            <g>
              <path class="cls-2" d="M280.8283,38.9465V51.9091H269.81V38.9465a5.414,5.414,0,0,1,.9642-3.1026,3.4693,3.4693,0,0,1,.2255-.3266,5.5124,5.5124,0,0,1,4.1213-2.0762,1.7752,1.7752,0,0,1,.2022-.0077,1.5126,1.5126,0,0,1,.1866.0077,5.5,5.5,0,0,1,3.7091,1.61,5.9858,5.9858,0,0,1,.42.4665,3.45,3.45,0,0,1,.2254.3266A5.4141,5.4141,0,0,1,280.8283,38.9465Z"/>
              <rect class="cls-6" x="269.8028" y="39.82" width="11.0257" height="0.5832"/>
              <rect class="cls-6" x="269.8028" y="51.322" width="11.0257" height="0.5832"/>
            </g>
          </g>
          <rect class="cls-11" x="34.6577" y="218.7062" width="102.7782" height="2.9535"/>
          <rect class="cls-4" x="32.8618" y="218.0619" width="104.5741" height="2.9455"/>
          <rect class="cls-11" x="306.7685" y="219.5288" width="100.7013" height="2.9535"/>
          <rect class="cls-4" x="306.7718" y="218.0619" width="104.5742" height="2.9455"/>
          <rect class="cls-6" x="27.6921" y="212.959" width="109.7438" height="5.8911"/>
          <rect class="cls-6" x="305.6199" y="212.959" width="109.7438" height="5.8911"/>
          <g>
            <path class="cls-6" d="M65.2848,259.2927h0a19.0235,19.0235,0,0,1,19.0235,19.0235V323.382a0,0,0,0,1,0,0H46.2613a0,0,0,0,1,0,0V278.3162A19.0235,19.0235,0,0,1,65.2848,259.2927Z"/>
            <path class="cls-2" d="M53.2823,274.8016H93.7744a0,0,0,0,1,0,0v32.9741a0,0,0,0,1,0,0H53.2823a16.487,16.487,0,0,1-16.487-16.487v0A16.487,16.487,0,0,1,53.2823,274.8016Z" transform="translate(356.5735 226.0038) rotate(90)"/>
            <rect class="cls-6" x="55.6498" y="263.4565" width="1.7967" height="59.0132"/>
            <rect class="cls-6" x="74.1625" y="264.2601" width="1.7967" height="58.2096"/>
            <rect class="cls-6" x="47.2066" y="273.4149" width="35.4167" height="2.7759"/>
          </g>
          <g>
            <path class="cls-6" d="M133.4835,323.382H95.4365V278.3161A19.0235,19.0235,0,0,1,114.46,259.2927h0a19.0235,19.0235,0,0,1,19.0235,19.0234Z"/>
            <path class="cls-2" d="M97.9729,319.7782V279.2861a16.487,16.487,0,0,1,16.4871-16.487h0a16.487,16.487,0,0,1,16.487,16.487v40.4921Z"/>
            <rect class="cls-6" x="104.8249" y="263.4565" width="1.7967" height="59.0132"/>
            <rect class="cls-6" x="123.3376" y="264.2601" width="1.7967" height="58.2096"/>
            <rect class="cls-6" x="96.9983" y="273.4149" width="34.2917" height="2.7759"/>
          </g>
          <g>
            <path class="cls-6" d="M345,323.382h-38.047V278.3161a19.0235,19.0235,0,0,1,19.0235-19.0234h0A19.0235,19.0235,0,0,1,345,278.3161Z"/>
            <path class="cls-2" d="M309.49,319.7782V279.2861a16.487,16.487,0,0,1,16.4871-16.487h0a16.487,16.487,0,0,1,16.487,16.487v40.4921Z"/>
            <rect class="cls-6" x="316.3417" y="263.4565" width="1.7967" height="59.0132"/>
            <rect class="cls-6" x="334.8544" y="264.2601" width="1.7967" height="58.2096"/>
            <rect class="cls-6" x="308.6233" y="273.4149" width="33.8405" height="2.7759"/>
          </g>
          <g>
            <path class="cls-6" d="M394.1754,323.382h-38.047V278.3161a19.0235,19.0235,0,0,1,19.0235-19.0234h0a19.0235,19.0235,0,0,1,19.0235,19.0234Z"/>
            <path class="cls-2" d="M358.6649,319.7782V279.2861a16.487,16.487,0,0,1,16.487-16.487h0a16.487,16.487,0,0,1,16.4871,16.487v40.4921Z"/>
            <rect class="cls-6" x="365.5169" y="263.4565" width="1.7966" height="59.0132"/>
            <rect class="cls-6" x="384.0296" y="264.2601" width="1.7966" height="58.2096"/>
            <rect class="cls-6" x="358.6649" y="273.4149" width="33.3751" height="2.7759"/>
          </g>
          <rect class="cls-10" x="141.0772" y="228.4702" width="159.9731" height="2.9535"/>
          <rect class="cls-6" x="131.3541" y="207.6507" width="179.4189" height="20.8224"/>
          <path class="cls-11" d="M93.25,241.1023h8.5794a1.6667,1.6667,0,0,1,1.6667,1.6667v1.1621a1.6666,1.6666,0,0,1-1.6666,1.6666H93.25a1.6667,1.6667,0,0,1-1.6667-1.6667v-1.162a1.6667,1.6667,0,0,1,1.6667-1.6667Z"/>
          <path class="cls-11" d="M81.7873,202.8683h6.0848a1.1821,1.1821,0,0,1,1.1821,1.1821v.8242a1.182,1.182,0,0,1-1.182,1.182h-6.085a1.182,1.182,0,0,1-1.182-1.182V204.05A1.1821,1.1821,0,0,1,81.7873,202.8683Z"/>
          <path class="cls-11" d="M62.2424,172.098h6.0849a1.1821,1.1821,0,0,1,1.1821,1.1821v.8242a1.182,1.182,0,0,1-1.182,1.182h-6.085a1.1821,1.1821,0,0,1-1.1821-1.1821V173.28A1.1821,1.1821,0,0,1,62.2424,172.098Z"/>
          <path class="cls-11" d="M124.52,173.6921h6.085a1.1821,1.1821,0,0,1,1.1821,1.1821v.8241a1.1821,1.1821,0,0,1-1.1821,1.1821H124.52a1.1821,1.1821,0,0,1-1.1821-1.1821v-.8242A1.182,1.182,0,0,1,124.52,173.6921Z"/>
          <rect class="cls-11" x="107.4551" y="137.1255" width="8.4491" height="3.1883" rx="1.1821"/>
          <path class="cls-11" d="M98.3742,131.3553h6.0848a1.1821,1.1821,0,0,1,1.1821,1.1821v.8242a1.182,1.182,0,0,1-1.182,1.182h-6.085a1.182,1.182,0,0,1-1.182-1.182v-.8242A1.1821,1.1821,0,0,1,98.3742,131.3553Z"/>
          <path class="cls-11" d="M70.2521,101.2955h6.0848a1.1821,1.1821,0,0,1,1.1821,1.1821v.8241a1.1821,1.1821,0,0,1-1.1821,1.1821H70.252a1.182,1.182,0,0,1-1.182-1.182v-.8242A1.1821,1.1821,0,0,1,70.2521,101.2955Z"/>
          <rect class="cls-11" x="78.3395" y="97.5868" width="8.449" height="3.1883" rx="1.1821"/>
          <path class="cls-11" d="M125.47,94.3985h6.0848a1.1821,1.1821,0,0,1,1.1821,1.1821v.8242a1.182,1.182,0,0,1-1.182,1.182h-6.085a1.182,1.182,0,0,1-1.182-1.182v-.8242a1.1821,1.1821,0,0,1,1.1821-1.1821Z"/>
          <path class="cls-11" d="M332.71,64.8391h6.085a1.1821,1.1821,0,0,1,1.1821,1.1821v.8241a1.1821,1.1821,0,0,1-1.1821,1.1821H332.71a1.1821,1.1821,0,0,1-1.1821-1.1821v-.8242A1.182,1.182,0,0,1,332.71,64.8391Z"/>
          <path class="cls-11" d="M343.724,64.8391h6.085a1.182,1.182,0,0,1,1.182,1.182v.8242a1.1821,1.1821,0,0,1-1.1821,1.1821h-6.0848a1.1821,1.1821,0,0,1-1.1821-1.1821v-.8242A1.182,1.182,0,0,1,343.724,64.8391Z"/>
          <path class="cls-11" d="M353.2767,80.3476h6.085a1.182,1.182,0,0,1,1.182,1.182v.8242a1.1821,1.1821,0,0,1-1.1821,1.1821h-6.0848a1.1821,1.1821,0,0,1-1.1821-1.1821V81.53A1.182,1.182,0,0,1,353.2767,80.3476Z"/>
          <path class="cls-11" d="M325.7425,94.9577h6.0849a1.182,1.182,0,0,1,1.182,1.182v.8243a1.182,1.182,0,0,1-1.182,1.182h-6.0849a1.1821,1.1821,0,0,1-1.1821-1.1821V96.14A1.1821,1.1821,0,0,1,325.7425,94.9577Z"/>
          <path class="cls-11" d="M316.1376,99.7013h6.0849a1.1821,1.1821,0,0,1,1.1821,1.1821v.8241a1.1821,1.1821,0,0,1-1.1821,1.1821h-6.0849a1.182,1.182,0,0,1-1.182-1.182v-.8243A1.182,1.182,0,0,1,316.1376,99.7013Z"/>
          <path class="cls-11" d="M353.7865,106.6875h6.085a1.1821,1.1821,0,0,1,1.1821,1.1821v.8241a1.1821,1.1821,0,0,1-1.1821,1.1821h-6.0849a1.1821,1.1821,0,0,1-1.1821-1.1821v-.8242A1.182,1.182,0,0,1,353.7865,106.6875Z"/>
          <path class="cls-11" d="M372.1054,135.2711H378.19a1.182,1.182,0,0,1,1.182,1.182v.8243a1.1821,1.1821,0,0,1-1.1821,1.1821h-6.0848a1.1821,1.1821,0,0,1-1.1821-1.1821v-.8242A1.1821,1.1821,0,0,1,372.1054,135.2711Z"/>
          <path class="cls-11" d="M332.0964,133.677h6.0849a1.182,1.182,0,0,1,1.182,1.182v.8242a1.1821,1.1821,0,0,1-1.1821,1.1821h-6.0848a1.1821,1.1821,0,0,1-1.1821-1.1821v-.8241A1.1821,1.1821,0,0,1,332.0964,133.677Z"/>
          <path class="cls-11" d="M325.9152,138.72H332a1.1821,1.1821,0,0,1,1.1821,1.1821v.8242A1.182,1.182,0,0,1,332,141.908h-6.085a1.182,1.182,0,0,1-1.182-1.182v-.8242a1.1821,1.1821,0,0,1,1.1821-1.1821Z"/>
          <path class="cls-11" d="M332.0964,170.5038h6.0849a1.182,1.182,0,0,1,1.182,1.182v.8242a1.1821,1.1821,0,0,1-1.1821,1.1821h-6.0848a1.1821,1.1821,0,0,1-1.1821-1.1821v-.8241A1.1821,1.1821,0,0,1,332.0964,170.5038Z"/>
          <path class="cls-11" d="M351.0538,174.9992h6.0848a1.1821,1.1821,0,0,1,1.1821,1.1821v.8241a1.1821,1.1821,0,0,1-1.1821,1.1821h-6.0849a1.182,1.182,0,0,1-1.182-1.182v-.8242A1.1821,1.1821,0,0,1,351.0538,174.9992Z"/>
          <rect class="cls-11" x="369.0895" y="205.0942" width="8.4491" height="3.1884" rx="1.1821"/>
          <path class="cls-11" d="M322.2832,204.4624h6.0849a1.1821,1.1821,0,0,1,1.1821,1.1821v.8241a1.1821,1.1821,0,0,1-1.1821,1.1821h-6.0849a1.182,1.182,0,0,1-1.182-1.182v-.8243A1.182,1.182,0,0,1,322.2832,204.4624Z"/>
          <path class="cls-11" d="M102.5987,66.66h6.0848a1.1821,1.1821,0,0,1,1.1821,1.1821v.8241a1.1821,1.1821,0,0,1-1.1821,1.1821h-6.0849a1.182,1.182,0,0,1-1.182-1.182v-.8242A1.1821,1.1821,0,0,1,102.5987,66.66Z"/>
          <path class="cls-11" d="M92.0963,63.8713h6.085a1.182,1.182,0,0,1,1.182,1.182v.8242A1.1821,1.1821,0,0,1,98.1812,67.06H92.0963a1.182,1.182,0,0,1-1.182-1.182v-.8243a1.182,1.182,0,0,1,1.182-1.182Z"/>
          <path class="cls-11" d="M91.0591,206.8579H97.144a1.182,1.182,0,0,1,1.182,1.182v.8244a1.182,1.182,0,0,1-1.182,1.182H91.0591a1.1821,1.1821,0,0,1-1.1821-1.1821V208.04a1.1821,1.1821,0,0,1,1.1821-1.1821Z"/>
          <path class="cls-11" d="M105.95,195.2823h6.0849a1.182,1.182,0,0,1,1.182,1.182v.8242a1.1821,1.1821,0,0,1-1.1821,1.1821H105.95a1.1821,1.1821,0,0,1-1.1821-1.1821v-.8241A1.1821,1.1821,0,0,1,105.95,195.2823Z"/>
          <path class="cls-11" d="M101.4336,247.0587h8.5795a1.6666,1.6666,0,0,1,1.6666,1.6666v1.1622a1.6666,1.6666,0,0,1-1.6666,1.6666h-8.5795a1.6667,1.6667,0,0,1-1.6667-1.6667v-1.162A1.6667,1.6667,0,0,1,101.4336,247.0587Z"/>
          <path class="cls-11" d="M141.555,275.1265h8.5795a1.6666,1.6666,0,0,1,1.6666,1.6666v1.1621a1.6667,1.6667,0,0,1-1.6667,1.6667H141.555a1.6667,1.6667,0,0,1-1.6667-1.6667v-1.162A1.6667,1.6667,0,0,1,141.555,275.1265Z"/>
          <path class="cls-11" d="M41.9715,257.045h8.58a1.6667,1.6667,0,0,1,1.6667,1.6667v1.162a1.6666,1.6666,0,0,1-1.6666,1.6666h-8.58a1.6666,1.6666,0,0,1-1.6666-1.6666v-1.1621A1.6666,1.6666,0,0,1,41.9715,257.045Z"/>
          <path class="cls-11" d="M89.5208,329.9968H98.1a1.6666,1.6666,0,0,1,1.6666,1.6666v1.1622A1.6666,1.6666,0,0,1,98.1,334.4922H89.5208a1.6667,1.6667,0,0,1-1.6667-1.6667v-1.162a1.6667,1.6667,0,0,1,1.6667-1.6667Z"/>
          <rect class="cls-11" x="59.3285" y="226.2254" width="11.9127" height="4.4953" rx="1.6666"/>
          <path class="cls-11" d="M105.1624,329.9968h8.5794a1.6667,1.6667,0,0,1,1.6667,1.6667v1.1621a1.6666,1.6666,0,0,1-1.6666,1.6666h-8.5795a1.6667,1.6667,0,0,1-1.6667-1.6667v-1.162A1.6667,1.6667,0,0,1,105.1624,329.9968Z"/>
          <path class="cls-11" d="M321.7134,241.495h8.5795a1.6667,1.6667,0,0,1,1.6667,1.6667v1.162a1.6667,1.6667,0,0,1-1.6667,1.6667h-8.5794a1.6667,1.6667,0,0,1-1.6667-1.6667v-1.1621A1.6666,1.6666,0,0,1,321.7134,241.495Z"/>
          <path class="cls-11" d="M330.5646,234.2072h8.5795a1.6667,1.6667,0,0,1,1.6667,1.6667v1.162a1.6667,1.6667,0,0,1-1.6667,1.6667h-8.5795a1.6666,1.6666,0,0,1-1.6666-1.6666v-1.1622A1.6666,1.6666,0,0,1,330.5646,234.2072Z"/>
          <path class="cls-11" d="M381.5365,249.7077h8.5794a1.6667,1.6667,0,0,1,1.6667,1.6667v1.162a1.6667,1.6667,0,0,1-1.6667,1.6667h-8.5795a1.6666,1.6666,0,0,1-1.6666-1.6666v-1.1621A1.6667,1.6667,0,0,1,381.5365,249.7077Z"/>
          <path class="cls-11" d="M350.2457,327.7491h8.5794a1.6667,1.6667,0,0,1,1.6667,1.6667v1.1621a1.6666,1.6666,0,0,1-1.6666,1.6666h-8.5795a1.6667,1.6667,0,0,1-1.6667-1.6667v-1.162A1.6667,1.6667,0,0,1,350.2457,327.7491Z"/>
          <path class="cls-11" d="M363.0238,334.4922h8.5794a1.6667,1.6667,0,0,1,1.6667,1.6667v1.1621a1.6666,1.6666,0,0,1-1.6666,1.6666h-8.58a1.6666,1.6666,0,0,1-1.6666-1.6666v-1.1621A1.6667,1.6667,0,0,1,363.0238,334.4922Z"/>
          <rect class="cls-7" x="147.1481" y="236.4549" width="18.7391" height="104.9861"/>
          <rect class="cls-7" x="276.2399" y="236.4549" width="18.7391" height="104.9861"/>
          <g>
            <g>
              <g>
                <path class="cls-2" d="M82.437,187.4552v12.9626H71.4185V187.4552a5.4141,5.4141,0,0,1,.9642-3.1027,3.4489,3.4489,0,0,1,.2255-.3265A5.5117,5.5117,0,0,1,76.73,181.95a1.7526,1.7526,0,0,1,.2022-.0078,1.4934,1.4934,0,0,1,.1866.0078,5.5,5.5,0,0,1,3.7091,1.61,5.984,5.984,0,0,1,.42.4666,3.43,3.43,0,0,1,.2255.3265A5.4141,5.4141,0,0,1,82.437,187.4552Z"/>
                <rect class="cls-6" x="71.4116" y="188.3287" width="11.0256" height="0.5832"/>
                <rect class="cls-6" x="71.4116" y="199.8307" width="11.0256" height="0.5832"/>
              </g>
              <g>
                <path class="cls-2" d="M106.3346,187.4552v12.9626H95.316V187.4552a5.4142,5.4142,0,0,1,.9643-3.1027,3.4489,3.4489,0,0,1,.2255-.3265,5.5115,5.5115,0,0,1,4.1212-2.0762,1.7526,1.7526,0,0,1,.2022-.0078,1.4934,1.4934,0,0,1,.1866.0078,5.5,5.5,0,0,1,3.7092,1.61,6.0043,6.0043,0,0,1,.42.4666,3.4676,3.4676,0,0,1,.2255.3265A5.4141,5.4141,0,0,1,106.3346,187.4552Z"/>
                <rect class="cls-6" x="95.3092" y="188.3287" width="11.0256" height="0.5832"/>
                <rect class="cls-6" x="95.3092" y="199.8307" width="11.0256" height="0.5832"/>
              </g>
              <g>
                <path class="cls-2" d="M130.2321,187.4552v12.9626H119.2136V187.4552a5.4141,5.4141,0,0,1,.9642-3.1027,3.4676,3.4676,0,0,1,.2255-.3265,5.5117,5.5117,0,0,1,4.1213-2.0762,1.7526,1.7526,0,0,1,.2022-.0078,1.4934,1.4934,0,0,1,.1866.0078,5.5,5.5,0,0,1,3.7091,1.61,5.984,5.984,0,0,1,.42.4666,3.43,3.43,0,0,1,.2255.3265A5.4141,5.4141,0,0,1,130.2321,187.4552Z"/>
                <rect class="cls-6" x="119.2067" y="188.3287" width="11.0256" height="0.5832"/>
                <rect class="cls-6" x="119.2067" y="199.8307" width="11.0256" height="0.5832"/>
              </g>
            </g>
            <g>
              <g>
                <path class="cls-2" d="M82.437,151.0425v12.9626H71.4185V151.0425a5.4141,5.4141,0,0,1,.9642-3.1027,3.4489,3.4489,0,0,1,.2255-.3265,5.5117,5.5117,0,0,1,4.1213-2.0762,1.7526,1.7526,0,0,1,.2022-.0078,1.4934,1.4934,0,0,1,.1866.0078,5.5,5.5,0,0,1,3.7091,1.61,5.984,5.984,0,0,1,.42.4666,3.43,3.43,0,0,1,.2255.3265A5.4141,5.4141,0,0,1,82.437,151.0425Z"/>
                <rect class="cls-6" x="71.4116" y="151.916" width="11.0256" height="0.5832"/>
                <rect class="cls-6" x="71.4116" y="163.418" width="11.0256" height="0.5832"/>
              </g>
              <g>
                <path class="cls-2" d="M106.3346,151.0425v12.9626H95.316V151.0425A5.4142,5.4142,0,0,1,96.28,147.94a3.4489,3.4489,0,0,1,.2255-.3265,5.5115,5.5115,0,0,1,4.1212-2.0762,1.7526,1.7526,0,0,1,.2022-.0078,1.4934,1.4934,0,0,1,.1866.0078,5.5007,5.5007,0,0,1,3.7092,1.61,6.0043,6.0043,0,0,1,.42.4666,3.4676,3.4676,0,0,1,.2255.3265A5.4141,5.4141,0,0,1,106.3346,151.0425Z"/>
                <rect class="cls-6" x="95.3092" y="151.916" width="11.0256" height="0.5832"/>
                <rect class="cls-6" x="95.3092" y="163.418" width="11.0256" height="0.5832"/>
              </g>
              <g>
                <path class="cls-2" d="M130.2321,151.0425v12.9626H119.2136V151.0425a5.4141,5.4141,0,0,1,.9642-3.1027,3.4676,3.4676,0,0,1,.2255-.3265,5.5117,5.5117,0,0,1,4.1213-2.0762,1.7526,1.7526,0,0,1,.2022-.0078,1.4934,1.4934,0,0,1,.1866.0078,5.5,5.5,0,0,1,3.7091,1.61,5.984,5.984,0,0,1,.42.4666,3.43,3.43,0,0,1,.2255.3265A5.4141,5.4141,0,0,1,130.2321,151.0425Z"/>
                <rect class="cls-6" x="119.2067" y="151.916" width="11.0256" height="0.5832"/>
                <rect class="cls-6" x="119.2067" y="163.418" width="11.0256" height="0.5832"/>
              </g>
            </g>
            <g>
              <g>
                <path class="cls-2" d="M82.437,114.63v12.9626H71.4185V114.63a5.4136,5.4136,0,0,1,.9642-3.1026,3.4378,3.4378,0,0,1,.2255-.3266,5.5117,5.5117,0,0,1,4.1213-2.0762,1.7526,1.7526,0,0,1,.2022-.0078,1.4934,1.4934,0,0,1,.1866.0078,5.5,5.5,0,0,1,3.7091,1.61,5.984,5.984,0,0,1,.42.4666,3.4194,3.4194,0,0,1,.2255.3266A5.4136,5.4136,0,0,1,82.437,114.63Z"/>
                <rect class="cls-6" x="71.4116" y="115.5033" width="11.0256" height="0.5832"/>
                <rect class="cls-6" x="71.4116" y="127.0053" width="11.0256" height="0.5832"/>
              </g>
              <g>
                <path class="cls-2" d="M106.3346,114.63v12.9626H95.316V114.63a5.4136,5.4136,0,0,1,.9643-3.1026,3.4378,3.4378,0,0,1,.2255-.3266,5.5115,5.5115,0,0,1,4.1212-2.0762,1.7526,1.7526,0,0,1,.2022-.0078,1.4934,1.4934,0,0,1,.1866.0078,5.5007,5.5007,0,0,1,3.7092,1.61,6.0043,6.0043,0,0,1,.42.4666,3.4563,3.4563,0,0,1,.2255.3266A5.4136,5.4136,0,0,1,106.3346,114.63Z"/>
                <rect class="cls-6" x="95.3092" y="115.5033" width="11.0256" height="0.5832"/>
                <rect class="cls-6" x="95.3092" y="127.0053" width="11.0256" height="0.5832"/>
              </g>
              <g>
                <path class="cls-2" d="M130.2321,114.63v12.9626H119.2136V114.63a5.4136,5.4136,0,0,1,.9642-3.1026,3.4563,3.4563,0,0,1,.2255-.3266,5.5117,5.5117,0,0,1,4.1213-2.0762,1.7526,1.7526,0,0,1,.2022-.0078,1.4934,1.4934,0,0,1,.1866.0078,5.5,5.5,0,0,1,3.7091,1.61,5.984,5.984,0,0,1,.42.4666,3.4194,3.4194,0,0,1,.2255.3266A5.4136,5.4136,0,0,1,130.2321,114.63Z"/>
                <rect class="cls-6" x="119.2067" y="115.5033" width="11.0256" height="0.5832"/>
                <rect class="cls-6" x="119.2067" y="127.0053" width="11.0256" height="0.5832"/>
              </g>
            </g>
            <g>
              <g>
                <path class="cls-2" d="M82.437,78.2171V91.18H71.4185V78.2171a5.4136,5.4136,0,0,1,.9642-3.1026,3.4378,3.4378,0,0,1,.2255-.3266A5.5117,5.5117,0,0,1,76.73,72.7117a1.7526,1.7526,0,0,1,.2022-.0078,1.4934,1.4934,0,0,1,.1866.0078,5.5,5.5,0,0,1,3.7091,1.61,5.984,5.984,0,0,1,.42.4666,3.4194,3.4194,0,0,1,.2255.3266A5.4136,5.4136,0,0,1,82.437,78.2171Z"/>
                <rect class="cls-6" x="71.4116" y="79.0906" width="11.0256" height="0.5832"/>
                <rect class="cls-6" x="71.4116" y="90.5926" width="11.0256" height="0.5832"/>
              </g>
              <g>
                <path class="cls-2" d="M106.3346,78.2171V91.18H95.316V78.2171a5.4136,5.4136,0,0,1,.9643-3.1026,3.4378,3.4378,0,0,1,.2255-.3266,5.5115,5.5115,0,0,1,4.1212-2.0762,1.7526,1.7526,0,0,1,.2022-.0078,1.4934,1.4934,0,0,1,.1866.0078,5.5007,5.5007,0,0,1,3.7092,1.61,6.0043,6.0043,0,0,1,.42.4666,3.4563,3.4563,0,0,1,.2255.3266A5.4136,5.4136,0,0,1,106.3346,78.2171Z"/>
                <rect class="cls-6" x="95.3092" y="79.0906" width="11.0256" height="0.5832"/>
                <rect class="cls-6" x="95.3092" y="90.5926" width="11.0256" height="0.5832"/>
              </g>
              <g>
                <path class="cls-2" d="M130.2321,78.2171V91.18H119.2136V78.2171a5.4136,5.4136,0,0,1,.9642-3.1026,3.4563,3.4563,0,0,1,.2255-.3266,5.5117,5.5117,0,0,1,4.1213-2.0762,1.7526,1.7526,0,0,1,.2022-.0078,1.4934,1.4934,0,0,1,.1866.0078,5.5,5.5,0,0,1,3.7091,1.61,5.984,5.984,0,0,1,.42.4666,3.4194,3.4194,0,0,1,.2255.3266A5.4136,5.4136,0,0,1,130.2321,78.2171Z"/>
                <rect class="cls-6" x="119.2067" y="79.0906" width="11.0256" height="0.5832"/>
                <rect class="cls-6" x="119.2067" y="90.5926" width="11.0256" height="0.5832"/>
              </g>
            </g>
          </g>
          <rect class="cls-2" x="5.2713" y="341.441" width="438.9753" height="2.1686"/>
          <g>
            <rect class="cls-3" x="425.7031" y="316.1939" width="6.0688" height="25.2471"/>
            <line class="cls-12" x1="428.7375" y1="319.7782" x2="428.7375" y2="236.073"/>
            <polyline class="cls-12" points="419.044 249.708 419.044 243.35 438.431 243.35 438.431 249.708"/>
            <g>
              <path class="cls-13" d="M442.7575,253.8579a4.3268,4.3268,0,1,1-4.3268-4.3268A4.3269,4.3269,0,0,1,442.7575,253.8579Z"/>
              <path class="cls-14" d="M439.8147,252.6459a2.3146,2.3146,0,1,1-2.3145-2.3146A2.3145,2.3145,0,0,1,439.8147,252.6459Z"/>
              <path class="cls-15" d="M442.7632,253.8512a4.33,4.33,0,0,1-7.849,2.5219,4.32,4.32,0,0,0,6.8375-3.52,4.2429,4.2429,0,0,0-.8227-2.5219A4.2861,4.2861,0,0,1,442.7632,253.8512Z"/>
            </g>
            <g>
              <path class="cls-13" d="M423.3683,253.8579a4.3268,4.3268,0,1,1-4.3268-4.3268A4.3269,4.3269,0,0,1,423.3683,253.8579Z"/>
              <path class="cls-14" d="M420.4255,252.6459a2.3146,2.3146,0,1,1-2.3146-2.3146A2.3146,2.3146,0,0,1,420.4255,252.6459Z"/>
              <path class="cls-15" d="M423.374,253.8512a4.33,4.33,0,0,1-7.849,2.5219,4.32,4.32,0,0,0,6.8375-3.52,4.2429,4.2429,0,0,0-.8227-2.5219A4.2861,4.2861,0,0,1,423.374,253.8512Z"/>
            </g>
            <circle class="cls-3" cx="428.7797" cy="234.8509" r="1.8122"/>
          </g>
          <g>
            <rect class="cls-3" x="10.9884" y="316.1939" width="6.0688" height="25.2471"/>
            <line class="cls-12" x1="14.0228" y1="319.7782" x2="14.0228" y2="236.073"/>
            <polyline class="cls-12" points="4.33 249.708 4.33 243.35 23.716 243.35 23.716 249.708"/>
            <g>
              <path class="cls-13" d="M28.0428,253.8579a4.3268,4.3268,0,1,1-4.3268-4.3268A4.3269,4.3269,0,0,1,28.0428,253.8579Z"/>
              <path class="cls-14" d="M25.1,252.6459a2.3146,2.3146,0,1,1-2.3145-2.3146A2.3145,2.3145,0,0,1,25.1,252.6459Z"/>
              <path class="cls-15" d="M28.0485,253.8512a4.33,4.33,0,0,1-7.849,2.5219,4.32,4.32,0,0,0,6.8375-3.52,4.2429,4.2429,0,0,0-.8227-2.5219A4.2861,4.2861,0,0,1,28.0485,253.8512Z"/>
            </g>
            <g>
              <path class="cls-13" d="M8.6536,253.8579a4.3268,4.3268,0,1,1-4.3268-4.3268A4.3269,4.3269,0,0,1,8.6536,253.8579Z"/>
              <path class="cls-14" d="M5.7108,252.6459a2.3146,2.3146,0,1,1-2.3146-2.3146A2.3146,2.3146,0,0,1,5.7108,252.6459Z"/>
              <path class="cls-15" d="M8.6593,253.8512A4.33,4.33,0,0,1,.81,256.3731a4.32,4.32,0,0,0,6.8375-3.52,4.2429,4.2429,0,0,0-.8227-2.5219A4.2861,4.2861,0,0,1,8.6593,253.8512Z"/>
            </g>
            <circle class="cls-3" cx="14.065" cy="234.8509" r="1.8122"/>
          </g>
        </g>
      </g>
      <g id="shadows">
        <g id="shadows-bottom">
          <polyline class="cls-16" points="407.318 222.482 313.875 341.441 129.619 341.441 35.013 222.482"/>
          <polyline class="cls-16" points="407.318 222.482 313.875 341.441 129.619 341.441 35.013 222.482"/>
          <polyline class="cls-16" points="407.318 222.482 313.875 341.441 129.619 341.441 35.013 222.482"/>
          <polyline class="cls-16" points="407.318 222.482 313.875 341.441 129.619 341.441 35.013 222.482"/>
          <polyline class="cls-16" points="407.318 222.482 313.875 341.441 129.619 341.441 35.013 222.482"/>
        </g>
        <g id="shadows-top-side">
          <g id="left5">
            <polygon class="cls-17" points="54.496 60.163 101.583 212.959 147.148 212.959 147.148 60.163 54.496 60.163"/>
          </g>
          <g id="left4">
            <polygon class="cls-17" points="54.496 60.163 101.583 212.959 147.148 212.959 147.148 60.163 54.496 60.163"/>
          </g>
          <g id="left3">
            <polygon class="cls-17" points="54.496 60.163 101.583 212.959 147.148 212.959 147.148 60.163 54.496 60.163"/>
          </g>
          <g id="left2">
            <polygon class="cls-17" points="54.496 60.163 101.583 212.959 147.148 212.959 147.148 60.163 54.496 60.163"/>
          </g>
          <g id="left1">
            <polygon class="cls-17" points="54.496 60.163 101.583 212.959 147.148 212.959 147.148 60.163 54.496 60.163"/>
          </g>
          <g id="right5">
            <polygon class="cls-18" points="389.017 60.163 341.225 212.853 294.979 212.853 294.979 60.163 389.017 60.163"/>
          </g>
          <g id="right4">
            <polygon class="cls-18" points="389.017 60.163 341.225 212.853 294.979 212.853 294.979 60.163 389.017 60.163"/>
          </g>
          <g id="right3">
            <polygon class="cls-18" points="389.017 60.163 341.225 212.853 294.979 212.853 294.979 60.163 389.017 60.163"/>
          </g>
          <g id="right2">
            <polygon class="cls-18" points="389.017 60.163 341.225 212.853 294.979 212.853 294.979 60.163 389.017 60.163"/>
          </g>
          <g id="right1">
            <polygon class="cls-18" points="389.017 60.163 341.225 212.853 294.979 212.853 294.979 60.163 389.017 60.163"/>
          </g>
        </g>
        <g id="shadows-top-middle">
          <g id="curves">
            <path id="curve8" class="cls-19" d="M142.3488,97.41c-.7469.0334-1.2415.6815-1.2657,1.6a2.89,2.89,0,0,0,.1446,1.3521c.1746.2676.15.35.5589.5829a2.1355,2.1355,0,0,0,.5341.1738l4.821,0v.3543l.0037-4.0629Z"/>
            <path id="curve7" class="cls-20" d="M142.3488,60.1626c-.7469.0334-1.2415.6816-1.2657,1.6a2.89,2.89,0,0,0,.1446,1.3521c.1746.2676.15.35.5589.5829a2.1312,2.1312,0,0,0,.5341.1737h4.821v.3543l.0037-4.063Z"/>
            <path id="curve6" class="cls-21" d="M299.779,60.1626c.747.0335,1.2417.6816,1.2659,1.6a2.89,2.89,0,0,1-.1445,1.3521c-.1747.2676-.15.35-.5591.5829a2.1306,2.1306,0,0,1-.5342.1737h-4.8219v.3543l-.0037-4.063Z"/>
            <path id="curve5" class="cls-20" d="M142.3488,60.1626c-.7469.0334-1.2415.6816-1.2657,1.6a2.89,2.89,0,0,0,.1446,1.3521c.1746.2676.15.35.5589.5829a2.1312,2.1312,0,0,0,.5341.1737h4.821v.3543l.0037-4.063Z"/>
            <path id="curve4" class="cls-21" d="M299.779,60.1626c.747.0335,1.2417.6816,1.2659,1.6a2.89,2.89,0,0,1-.1445,1.3521c-.1747.2676-.15.35-.5591.5829a2.1306,2.1306,0,0,1-.5342.1737h-4.8219v.3543l-.0037-4.063Z"/>
            <path id="curve3" class="cls-20" d="M142.3488,60.1626c-.7469.0334-1.2415.6816-1.2657,1.6a2.89,2.89,0,0,0,.1446,1.3521c.1746.2676.15.35.5589.5829a2.1312,2.1312,0,0,0,.5341.1737h4.821v.3543l.0037-4.063Z"/>
            <path id="curve2" class="cls-21" d="M299.779,60.1626c.747.0335,1.2417.6816,1.2659,1.6a2.89,2.89,0,0,1-.1445,1.3521c-.1747.2676-.15.35-.5591.5829a2.1306,2.1306,0,0,1-.5342.1737h-4.8219v.3543l-.0037-4.063Z"/>
            <path id="curve1" class="cls-22" d="M299.7793,97.5868c.7468.0334,1.2414.6816,1.2656,1.6a2.8916,2.8916,0,0,1-.1445,1.3521c-.1746.2676-.15.35-.559.5829a2.13,2.13,0,0,1-.534.1737h-4.821v.3543l-.0037-4.063Z"/>
          </g>
          <polygon id="middle6" class="cls-23" points="147.146 26.447 147.146 134.351 147.146 135.011 147.146 138.72 147.146 135.011 147.145 135.011 147.142 139.074 147.146 207.648 294.982 207.648 294.982 26.447 147.146 26.447"/>
          <polygon id="middle5" class="cls-23" points="147.146 26.447 147.146 134.351 147.146 135.011 147.146 138.72 147.146 135.011 147.145 135.011 147.142 139.074 147.146 207.648 294.982 207.648 294.982 26.447 147.146 26.447"/>
          <polygon id="middle4" class="cls-23" points="147.146 26.447 147.146 134.351 147.146 135.011 147.146 138.72 147.146 135.011 147.145 135.011 147.142 139.074 147.146 207.648 294.982 207.648 294.982 26.447 147.146 26.447"/>
          <polygon id="middle3" class="cls-23" points="147.146 26.447 147.146 134.351 147.146 135.011 147.146 138.72 147.146 135.011 147.145 135.011 147.142 139.074 147.146 207.648 294.982 207.648 294.982 26.447 147.146 26.447"/>
          <polygon id="middle2" class="cls-23" points="147.146 26.447 147.146 134.351 147.146 135.011 147.146 138.72 147.146 135.011 147.145 135.011 147.142 139.074 147.146 207.648 294.982 207.648 294.982 26.447 147.146 26.447"/>
          <polygon id="middle1" class="cls-23" points="147.146 26.447 147.146 134.351 147.146 135.011 147.146 138.72 147.146 135.011 147.145 135.011 147.142 139.074 147.146 207.648 294.982 207.648 294.982 26.447 147.146 26.447"/>
        </g>
      </g>
      <g id="Sign">
        <g>
          <text class="cls-24" transform="translate(199.9808 187.0715)">Grand</text>
          <g>
            <text class="cls-25" transform="translate(199.9808 186.3715)">Grand</text>
            <text class="cls-25" transform="translate(199.9808 186.4715)">Grand</text>
            <text class="cls-25" transform="translate(199.9808 186.5715)">Grand</text>
            <text class="cls-25" transform="translate(199.9808 186.6715)">Grand</text>
            <text class="cls-25" transform="translate(199.9808 186.7715)">Grand</text>
            <text class="cls-25" transform="translate(199.9808 186.8715)">Grand</text>
            <text class="cls-25" transform="translate(199.9808 186.9715)">Grand</text>
            <text class="cls-25" transform="translate(199.9808 187.0715)">Grand</text>
          </g>
          <text class="cls-24" transform="translate(199.9808 187.0715)">Grand</text>
        </g>
        <g>
          <text class="cls-26" transform="translate(189.2093 204.6478)">h<tspan class="cls-27" x="15.2373" y="0">o</tspan><tspan class="cls-28" x="30.167" y="0">t</tspan><tspan x="42.2461" y="0">el</tspan></text>
          <g>
            <text class="cls-29" transform="translate(189.2093 203.9478)">h<tspan class="cls-27" x="15.2373" y="0">o</tspan><tspan class="cls-28" x="30.167" y="0">t</tspan><tspan x="42.2461" y="0">el</tspan></text>
            <text class="cls-29" transform="translate(189.2093 204.0478)">h<tspan class="cls-27" x="15.2373" y="0">o</tspan><tspan class="cls-28" x="30.167" y="0">t</tspan><tspan x="42.2461" y="0">el</tspan></text>
            <text class="cls-29" transform="translate(189.2093 204.1478)">h<tspan class="cls-27" x="15.2373" y="0">o</tspan><tspan class="cls-28" x="30.167" y="0">t</tspan><tspan x="42.2461" y="0">el</tspan></text>
            <text class="cls-29" transform="translate(189.2093 204.2478)">h<tspan class="cls-27" x="15.2373" y="0">o</tspan><tspan class="cls-28" x="30.167" y="0">t</tspan><tspan x="42.2461" y="0">el</tspan></text>
            <text class="cls-29" transform="translate(189.2093 204.3478)">h<tspan class="cls-27" x="15.2373" y="0">o</tspan><tspan class="cls-28" x="30.167" y="0">t</tspan><tspan x="42.2461" y="0">el</tspan></text>
            <text class="cls-29" transform="translate(189.2093 204.4478)">h<tspan class="cls-27" x="15.2373" y="0">o</tspan><tspan class="cls-28" x="30.167" y="0">t</tspan><tspan x="42.2461" y="0">el</tspan></text>
            <text class="cls-29" transform="translate(189.2093 204.5478)">h<tspan class="cls-27" x="15.2373" y="0">o</tspan><tspan class="cls-28" x="30.167" y="0">t</tspan><tspan x="42.2461" y="0">el</tspan></text>
            <text class="cls-29" transform="translate(189.2093 204.6478)">h<tspan class="cls-27" x="15.2373" y="0">o</tspan><tspan class="cls-28" x="30.167" y="0">t</tspan><tspan x="42.2461" y="0">el</tspan></text>
          </g>
          <text class="cls-26" transform="translate(189.2093 204.6478)">h<tspan class="cls-27" x="15.2373" y="0">o</tspan><tspan class="cls-28" x="30.167" y="0">t</tspan><tspan x="42.2461" y="0">el</tspan></text>
        </g>
      </g>
    </g>
  </g>
</svg>
