<?xml version="1.0" encoding="utf-8"?>
<!-- Generator: Adobe Illustrator 25.2.3, SVG Export Plug-In . SVG Version: 6.00 Build 0)  -->
<svg version="1.1" id="Layer_1" xmlns="http://www.w3.org/2000/svg" xmlns:xlink="http://www.w3.org/1999/xlink" x="0px" y="0px"
	 viewBox="0 0 1276.2 1141.9" style="enable-background:new 0 0 1276.2 1141.9;" xml:space="preserve">
<g id="Layer_2_1_">
	<g id="Layer_1-2">
		<g>
			<path d="M86.6,420.8C127.4,280.1,208,168.9,331,89.6C425.6,28.7,529.8-1,642.3,0c127.8,1.1,242.9,40.6,344.1,118.6
				c101.1,77.9,168,179.2,203,302.1c8.9,0,17.7-0.2,26.5,0.1c7.1,0.2,14.1,1.7,17.3,8.7c1.9,4.4,2.9,9.2,2.8,13.9
				c0.2,79.7,0.2,159.3,0.1,239c0,2,0,3.9,0,6.4c6.4,0,12.4,0,18.3,0c14.9,0,21.7,6.8,21.7,21.7c0,15.3,0.1,30.7,0,46
				c-0.1,7-1.5,14-8.5,17.4c-4.2,1.9-8.8,3-13.4,3c-26.2,0.3-52.3,0.2-78.5,0c-3.7,0-5.4,1.1-6.9,4.6
				c-51.6,126.7-137.1,223.5-256.6,290.2c-60.2,33.5-124.8,54.6-193.1,64.3c-43.6,6.3-87.8,7.5-131.6,3.6
				c-93.8-8.5-180.5-37.9-259.4-89.3C226.4,984,152.8,894.5,107.4,781.7c-1.4-3.4-3.2-4.9-6.6-5.7c-3.3-0.7-6.5-2.2-10.2-3.6
				c-4.9,4.1-11.4,4.6-18.2,4.6c-17-0.1-34,0.1-51-0.2c-4.3-0.1-8.6-1-12.5-2.7c-6.4-2.9-8.2-9.2-8.8-15.7c-0.1-1-0.1-2,0-3
				c0-104.3,0-208.7,0.1-313c0-4.6,1-9.2,3-13.4c3.4-6.9,10.5-8.3,17.5-8.3c20.2-0.1,40.3-0.1,60.5-0.1H86.6z M168.5,758.7h6.3
				c16,0,32,0,48,0c7,0,7,0,7-7c0-102,0-204,0-305.9c0-1-0.1-2,0-3c0.2-2.5-0.7-3.6-3.4-3.6c-25.2,0.1-50.3,0-75.5,0.2
				c-1.3,0-3.4,2-3.7,3.2c-2.2,13.1-4.2,26.3-6.1,39.4c-4.8,33.7-9.7,67.5-14.4,101.3c-0.7,4.6-1.4,9.2-2.2,13.8l-1.3,0
				c-7.7-52.5-15.4-105-23.1-157.5H18.4v318.9H79V580.8c2.6,11.1,4.1,22.3,5.6,33.5c6.2,44.8,12.4,89.6,18.5,134.4
				c1.4,10,1.3,10,11.7,10c7.7,0,15.3,0,23,0c1.6,0,3.2-0.2,4.8-0.2c8.1-58.4,16.2-116.4,24.2-174.3l1.6,0.1L168.5,758.7z
				 M540.2,758.5c1.7,0.1,2.8,0.2,3.9,0.3c25.3,0,50.7,0.3,76-0.1c13.3-0.2,26.7-0.9,39.8-3c20-3.2,28.8-8.2,32.3-31.6
				c1.6-9.9,2.5-19.8,2.7-29.8c0.2-63.7,0.3-127.3-0.1-191c-0.1-12.1-1.9-24.2-4-36.1c-2-10.7-8-19.4-19.5-21.8
				c-12.3-2.6-24.8-5.4-37.3-5.8c-29.6-0.9-59.3-0.3-89-0.4c-1.6,0-3.2,0.1-4.9,0.2V758.5z M452,596.4l-1.3,0.1
				c-0.5-1.6-1.1-3.1-1.4-4.7c-4.1-19.9-8.2-39.7-12.2-59.6c-6.1-29.6-12.2-59.3-18.2-88.9c-0.7-3.3-2.1-4.2-5.4-4.1
				c-17.8,0.1-35.7,0.1-53.5,0.1c-1.3,0-2.6,0.2-3.9,0.4v318.9h57.5V607.7c1.1,0.7,1.9,1.9,2.2,3.2c7.1,32.8,14.2,65.6,21.3,98.5
				c3.1,14.5,6.2,28.9,9.1,43.4c0.9,4.4,2.7,6.2,7.6,6c16.8-0.4,33.7-0.3,50.5,0c4.7,0.1,6.2-1.1,6.2-6
				c-0.1-102.6-0.2-205.3-0.1-307.9c0-1.8-0.2-3.5-0.3-5.2H452V596.4z M899.9,544.7c0.9-1.1,1-1.4,1.3-1.6c0.4-0.2,1.1-0.5,1.4-0.4
				c5.8,3.2,8.6-0.5,11.4-4.7c2.7-4.1,5.9-4.6,10-1.6c2.2,1.6,4.6,2.8,7.1,3.6c4.9,1.6,5.8,4.6,4.7,9.2c-0.4,1.7,0.5,4,1.6,5.5
				c3.3,4.6,7,9,10.4,13.5c0.9,1.3,1.3,3,1.8,4.6c0.8,2.4,1.6,4.7,2.4,7.2c-0.3,2.2-1.3,4.8-0.9,7.2c0.5,3.2,2.2,6.3,2.9,9.5
				c0.9,4.7-7.8,13.6-13,13.7c-1.8,0-3.6,0-6,0c0.2,4.5,0.1,8.9,0.8,13.2c1.1,6.2,3.5,12.2,4.1,18.4c2.1,22,3.6,44.1,5.4,66.2
				c0.7,8.5,0.8,8.5-6.7,11v34.8c1.9,0.5,4.3,0.4,4.6,1.2c2.1,5,6.3,3.1,9.7,3.2c7.7,0.2,15.3,0.1,23,0.1h20.4
				c-0.1-2.6-0.1-4.5-0.4-6.4c-4-31.5-8.1-63-12.1-94.5c-5.6-42.7-11.2-85.4-16.8-128.1c-3.7-28.5-7.3-57.1-10.8-85.7
				c-0.5-3.8-1.8-5-5.6-4.9c-24,0.2-48,0.1-72,0.1c-1.5,0-2.9,0.2-4.8,0.3C860.3,545.9,846.7,652,833,758.7c19.4,0,38.1,0,56.7,0
				c3,0,3.2-1.7,3.1-4.6c-0.6-9.8-4.3-19.5-1.4-29.4c0.3-1.2,0.3-2.5,0-3.8c-0.6-2.2-2.1-4.3-2.1-6.4c-0.2-18.3-0.1-36.6-0.1-53.8
				c-1.6-1.8-2.8-3.4-4.2-4.8c-0.7-0.7-1.5-1.3-2.2-2c-1.2-1.3-3.2-2.5-3.2-3.9c-1-20.8-1.8-41.6-2.4-62.4
				c-0.2-8.4,3.3-15.2,10.8-19.5c2.5-1.4,5.1-2.5,7.5-4c1.1-0.7,2.6-1.9,2.7-2.9c0.2-4,1.8-6.9,5.5-8.7c1.2-0.6,2-2,2.8-2.9
				L899.9,544.7z M789.4,758.4V609.2h39.7V557h-39.5v-66.3h39.5v-51.1H722.9c-0.1,1.6-0.3,2.7-0.3,3.9c0,103.5,0,206.9-0.1,310.4
				c0,4.2,1.6,4.9,5.3,4.9c18.8-0.1,37.7-0.1,56.5-0.1C785.8,758.7,787.2,758.6,789.4,758.4z M1151.2,758.3h106.5v-51.6h-40v-7.4
				c0-84.8,0-169.6,0.1-254.4c0-4.6-1.2-5.9-5.8-5.9c-18.5,0.3-37,0.1-55.5,0.1c-1.7,0-3.5,0.2-5.3,0.3L1151.2,758.3z M1084.4,706.9
				V439.5h-66v318.9h106.3v-51.5L1084.4,706.9z M259.3,439.6v318.9c1.9,0.1,3.5,0.2,5.2,0.2c18.5,0,37-0.1,55.5,0.1
				c4.8,0.1,6.1-1.2,6.1-6.1c-0.1-102.5-0.2-205-0.1-307.5v-5.7L259.3,439.6z M912.6,378.2l1.3-0.4c1,1.4,2.2,2.8,3.1,4.3
				c7.3,11.7,14.5,23.5,21.9,35.1c1,1.5,2.6,3.4,4.2,3.6c3.5,0.5,7.2,0.2,10.7,0.2v-69.7H941v44.7c-1.6-2.2-2.5-3.3-3.3-4.5
				c-6.7-10.9-13.4-21.8-20.1-32.7c-5.2-8.6-7.1-9.4-17.3-7v69.1h12.3L912.6,378.2z M602.6,420.4l-12.1-25.4c3.3-3.9,6.9-6.5,8.3-10
				c3.2-7.8,2.9-16,0.1-23.9c-2-5.5-6-9-11.8-9.4c-9.1-0.6-18.3-0.6-27.4-0.8c-2.6-0.1-5.2,0-7.9,0v69.7h12.7v-27.4
				c10.6-0.5,11.1-0.2,15.1,8.1c1.5,3,2.8,6,4.2,9.1c5.2,11.5,5.2,11.5,17.8,10.4C601.9,420.8,602.2,420.6,602.6,420.4z
				 M845.5,350.7l0,0.1c-1.8,0-3.7,0-5.5,0c-11.4,0.3-18.2,5.3-21,16.2c-3.2,12.4-3,25.1-0.4,37.6c2,9.7,7.9,15.6,18.1,16.4
				c4.8,0.5,9.6,0.6,14.4,0.2c12.6-1.4,18.3-6.3,20.1-18.9c1.4-9.7,1.6-19.5,0.8-29.2c-1.3-13.9-7.2-20.2-18.5-22
				C850.8,350.8,848.2,350.7,845.5,350.7L845.5,350.7z M322.3,386.5l0.8,0c0,3.8-0.3,7.7,0,11.5c1.2,14.9,7.5,22.2,21,23.2
				c6,0.5,12.2-0.5,18.3-1.2c6.6-0.8,10.9-5.3,12.8-11.2c4.8-15.1,5.1-30.4-0.1-45.5c-2.1-6.1-6.5-10.4-12.8-11.3
				c-6.9-1.1-13.9-1.2-20.8-0.5c-10.2,1.3-15.6,7.4-17.4,17.8C323.2,374.9,322.9,380.7,322.3,386.5L322.3,386.5z M625.7,420.5
				c12.6,1.7,13.6,1.4,16-6.1c3-9,3-9,12.4-9c4.3,0,9.8-1.4,12.7,0.6c3,2.1,3.4,7.8,5.3,11.8c0.6,1.3,1.9,2.9,3.1,3
				c3.5,0.2,7.1,0.3,10.7,0.1c0.2-0.9,0.4-1.3,0.3-1.6c-7-22-14.1-43.9-21.3-65.9c-0.7-1.3-2-2.3-3.5-2.5
				c-11.9-1.2-11.9-1.1-15.5,10.1c-0.4,1.3-0.9,2.5-1.3,3.7C638.3,383.3,632.1,401.7,625.7,420.5L625.7,420.5z M521,380.7
				c-4.8,0-9.2,0.1-13.7,0c-4.6-0.1-9.2-0.5-14.1-0.8c0-2.8,0-5,0-7.1c0-9.1,0.4-9.4,9.6-9.5c7.6,0,15.3,0,23,0v-11.3
				c-11.1-0.4-21.9-1.2-32.6-0.9c-8.3,0.2-12.7,4.8-12.9,13c-0.3,14.8-0.3,29.6,0,44.5c0.2,7.5,4.5,12.3,11.8,12.5
				c11.2,0.2,22.5-0.8,33.7-1.3v-11c-6.5,0-12.6,0-18.8,0c-14.6,0-15.4-1-13.3-15.9c0.6-0.3,1.2-0.5,1.8-0.6
				c5.5-0.2,11-0.4,16.5-0.3C522.1,392.2,522.4,391.9,521,380.7z M417.9,420.2v-26.8c6.9,0.5,13.3,1.4,19.8,1.5
				c7.4,0.1,12.9-3.7,14.2-10.8c1.1-6.7,1.4-13.5,0.7-20.2c-0.7-6.8-5.4-11.6-12.2-12c-11.7-0.6-23.5-0.2-35.9-0.2v5.3v53.5
				c0,11.7,0,11.7,11.8,10.5C416.8,420.7,417.4,420.5,417.9,420.2z M732.1,420.8v-58.1h19.2v-11.4h-51V363H719v57.8L732.1,420.8z
				 M789.7,420.8v-69.5h-12.3v69.5H789.7z M925.4,758.4c-1.3-15-2.5-29.6-3.7-44.2h-8.6c-1,3.4,1,8.5-6.4,8.2
				c5.7,12.7-0.7,24.1-2,36L925.4,758.4z M930.2,558.8c-1.9,3.3,2,12.8,5.2,12.7c0.8,0,2.2-1.7,2.2-2.6
				C937.7,563.7,932.9,562.1,930.2,558.8z"/>
			<path d="M607.2,489.7c5.1,0.5,9.6,0.6,13.9,1.4c4.7,0.9,5.4,5,5.8,8.9c0.3,3.7,0.4,7.3,0.4,11c0,60.6,0,121.3,0,181.9
				c0,0.7,0,1.3,0,2c-0.1,10.7-7.7,16.1-18,12.8c-0.9-0.5-1.6-1.3-2-2.3c-0.2-1-0.2-2-0.1-3c0-69,0-137.9,0-206.9
				C607.2,493.9,607.2,492.4,607.2,489.7z"/>
			<path d="M565.2,382.8v-20c5.9,0,11.6-0.3,17.3,0.1c4.2,0.3,4.6,4.3,5.2,7.5c1.6,8.9-1.3,12.4-10.2,12.4
				C573.5,382.8,569.6,382.8,565.2,382.8z"/>
			<path d="M829.7,386.3c0.4-4.6,0.7-9.3,1.3-13.9c0.8-6.3,3.8-9.1,10-9.7c2.2-0.2,4.3-0.3,6.5-0.1c7,0.5,10.8,3.4,11.3,10.3
				c0.6,8.9,0.5,17.9-0.2,26.9c-0.4,6.1-3.9,8.6-9.9,9.3c-13.8,1.6-18.3-2.3-18.7-16.1c-0.1-2.2,0-4.3,0-6.5L829.7,386.3z"/>
			<path d="M365.8,387c-0.3,3.1-0.4,7.6-1.1,12c-1,6.6-4.4,9.5-11,10c-13.2,1.1-17-1.6-17.9-14.9c-0.5-7.7,0.5-15.5,1.4-23.2
				c0.6-5.3,4.3-7.8,9.6-8.3c13-1.3,17.7,2.4,18.6,15.5C365.5,380.6,365.6,383.1,365.8,387z"/>
			<path d="M648.3,393.4c2.7-8.3,5.3-16.1,7.8-23.9l1.1,0l7.6,23.9H648.3z"/>
			<path d="M418.1,383.6v-21c5.6,0,11.1-0.5,16.4,0.2c2,0.3,4.8,2.9,5.3,4.9c0.8,3.7,0.8,7.5-0.1,11.2c-0.4,1.9-3.2,4.2-5.2,4.4
				C429.2,384,423.7,383.6,418.1,383.6z"/>
		</g>
	</g>
</g>
</svg>
