<svg xmlns="http://www.w3.org/2000/svg" width="327.4569" height="374.8987" viewBox="0 0 327.4569 374.8987">
  <defs>
    <style>
      .cls-1 {
        fill: #5f0a1d;
      }
    </style>
  </defs>
  <g id="Layer_2" data-name="Layer 2">
    <g id="Layer_1-2" data-name="Layer 1">
      <g>
        <path class="cls-1" d="M.0977,187.5982c.0008-29.66.0851-59.32-.0974-88.9793C-.0247,94.5533,1.37,92.3856,4.8,90.4159Q81.926,46.1242,158.8888,1.5478c3.407-1.9733,5.9464-2.1251,9.4764-.0772q77.1461,44.7557,154.5014,89.15c3.3235,1.9086,4.5975,4.0413,4.59,7.8817q-.1662,88.98-.0069,177.9594c.0063,3.7621-1.0638,5.9884-4.4625,7.9388q-76.9241,44.1423-153.64,88.6458c-4.1,2.3806-7.0078,2.5293-11.2189.0816Q81.6671,328.6854,4.9221,284.7321c-3.6849-2.1133-4.9461-4.4632-4.9206-8.6534C.1811,246.5861.0968,217.0919.0977,187.5982Zm300.1631.4957c0-24.6587-.0774-49.318.0825-73.9757.0244-3.7467-.9419-5.9421-4.3579-7.8984Q231.8249,69.4761,167.8829,32.3519c-3.1811-1.8457-5.4634-1.7279-8.5868.0836q-63.7431,36.9692-127.67,73.62c-3.3748,1.9343-4.4967,4.1764-4.4889,7.9425q.1543,73.726.0018,147.4523c-.0073,3.6313,1.2515,5.6727,4.3938,7.4756q64.13,36.796,128.09,73.8887c3.0234,1.7539,5.1717,1.69,8.1518-.0379Q231.9485,305.5563,296.3,268.642c3.0511-1.7493,4.0522-3.6735,4.0342-7.0723C300.2045,237.0783,300.2648,212.5859,300.2608,188.0939Z"/>
        <path class="cls-1" d="M116.5411,198.604c-8.2494,0-16.5.073-24.7481-.023-6.6372-.0773-14.4446,1.7289-19.5714-1.1493-4.9228-2.7636-7.1349-10.4355-10.4158-16.0224-4.8836-8.316-9.66-16.6952-14.7969-25.594l11.9518-6.9066c2.76,4.6871,5.363,9.0634,7.9226,13.4648,3.6845,6.3356,7.2409,12.7489,11.0805,18.9885.8307,1.35,2.6169,2.9715,3.9883,2.995,12.163.2091,24.3318.0953,36.4987.0333a10.6812,10.6812,0,0,0,2.5392-.97c-1.38-1.0216-2.1053-1.95-2.9767-2.1179a13.6559,13.6559,0,0,0-4.97-.1816c-9.6942,1.8074-15.224-2.156-19.6833-11.0176-7.55-15.0034-16.5231-29.297-25.0722-43.7862-1.7269-2.9268-1.8438-5.1858-.0535-8.1547,5.9338-9.8407,11.5681-19.8618,17.3427-29.799.8122-1.3978,1.7659-2.7135,2.8873-4.4225l11.8192,6.7826c-5.3525,9.2826-10.2248,18.162-15.551,26.76-2.1606,3.488-1.9709,6.092.0768,9.5086,7.1918,12,14.1481,24.1436,21.0062,36.3381,1.67,2.9695,3.5939,4.24,7.0858,4.0837,6.4816-.29,12.9853-.0829,20.0063-1.0233-1.9711-1.172-3.9327-2.36-5.915-3.513-6.1922-3.6-12.5092-7.0072-18.5106-10.9008a7.6446,7.6446,0,0,1-3.1243-5.3748c-.2221-20.1642-.1794-40.332-.069-60.498.0089-1.623.56-4.0551,1.6887-4.735,11.9476-7.1979,24.0635-14.1164,36.6343-21.4024l6.998,12.0554c-8.5337,4.9268-16.529,9.9745-24.9264,14.2284-5.0032,2.5344-6.7948,5.6473-6.6114,11.2611.4353,13.3192.22,26.6628.0974,39.995-.0307,3.3469.8659,5.5973,4.0449,7.1795,4.5543,2.2667,8.8787,4.9953,13.2827,7.5161.5381-.8843.8758-1.1795.8383-1.4151-1.2138-7.63,1.8135-12.5844,9.0292-15.4494,1.3179-.5232,2.4393-3.0791,2.576-4.7829.7552-9.4131.641-9.4222,9.8245-13.1534.6349.8225,1.387,1.666,1.9832,2.6082a28.8135,28.8135,0,0,1,1.3946,2.8595l-5.7964,4.7221.749,1.1833c2.4561-1.0538,4.9278-2.9625,7.3638-2.9179,2.3751.0434,4.7137,2.0838,7.0683,3.2475l1.0126-1.2-6.18-5.0473,3.1576-5.5288c9.7855,3.74,9.807,3.8634,10.297,13.4867.0742,1.4578.744,3.7712,1.7341,4.1561,7.7661,3.0185,11.3174,8.2246,8.779,17.0971l1.2866.3633c5.647-3.2914,11.3518-6.4915,16.8738-9.9808.7557-.4775.8288-2.3946.8333-3.6466.0541-15,.1669-30.0024-.1249-44.9967-.0379-1.9493-1.8068-4.5891-3.5441-5.6594-8.9105-5.49-18.073-10.5711-27.64-16.0784l6.6712-11.7228c1.4841.656,2.7048,1.07,3.8019,1.7,10.4023,5.9705,20.749,12.0387,31.1953,17.93,2.5681,1.4484,3.9245,3.0609,3.9047,6.2226q-.1875,29.9988-.005,59.9992c.0187,3.138-1.2774,4.814-3.86,6.2593a238.3414,238.3414,0,0,0-23.6281,14.7377c7.8,0,15.603.0918,23.3971-.126.8886-.0248,1.9269-1.6694,2.5609-2.7579,7.6291-13.0964,15.278-26.1834,22.6594-39.4191a6.9252,6.9252,0,0,0-.1685-5.7076c-5.1023-9.3411-10.5294-18.5046-16.2239-28.3784L240.35,83.8013c6.0986,10.5485,11.5351,20.861,17.88,30.58,3.7076,5.6794,3.4816,9.9388-.0268,15.6359-9.43,15.3131-18.27,30.9959-27.0646,46.6888-1.9239,3.4331-4.1121,4.7354-7.9087,4.43a85.5322,85.5322,0,0,0-10.9934.0145,16.9784,16.9784,0,0,0-4.0425,1.2282l.1537,1.4362a19.0414,19.0414,0,0,0,3.5047.6675c10.6679.051,21.3418.2056,31.9992-.1325a8.1615,8.1615,0,0,0,5.6948-3.4562c6.339-10.3481,12.301-20.9272,18.7333-32.0224l11.8018,6.8217c-.94,1.853-1.6656,3.4585-2.5406,4.9778-6.4013,11.1152-12.9986,22.1222-19.1594,33.3685-1.996,3.6436-4.4275,4.7117-8.3517,4.6352-10.9974-.2147-22.0017-.0839-33.0032-.0628a10.0436,10.0436,0,0,0-5.0548,1.143c5.39,3.1408,10.6977,6.4362,16.2031,9.3595,2.9046,1.5422,3.8536,3.49,3.835,6.74q-.1983,34.4988-.01,68.9993c.0161,3.3406-.835,5.433-3.9631,7.17-12.0864,6.7118-23.9858,13.76-35.9676,20.66-1.2669.73-2.6176,1.3137-4.312,2.1552-2.2854-3.9088-4.4369-7.5884-6.8741-11.7566,8.158-4.7238,15.5586-10.0186,23.7329-13.4945,10.9869-4.6719,15.1138-11.564,13.8783-23.6783-1.2954-12.7012-.29-25.6371-.2889-38.4705.0006-9.1275-.0012-9.1311-10.2656-13.0571,0,4.24-.1893,8.1275.0586,11.987.2066,3.2164-.8427,5.1721-3.7376,6.7966-12.3475,6.9288-24.5074,14.1931-36.8955,21.0463a7.49,7.49,0,0,1-6.192-.0263c-12.2447-6.7687-24.2537-13.9625-36.47-20.7838-3.197-1.7852-4.537-3.9114-4.2613-7.5348.2752-3.6172.06-7.2717.06-11.0205-8.404,1.9647-9.89,3.7264-9.89,11.2643-.0012,16.6667.1153,33.3348-.0862,49.999-.0478,3.96,1.0723,6.3131,4.6642,8.2807,10.7829,5.9066,21.34,12.2252,32.5027,18.6823L140.8222,314.91c-2.2122-1.1779-4.1006-2.1163-5.9251-3.1657-11.4078-6.5612-22.7384-13.26-34.24-19.6519-3.2091-1.7832-4.3214-3.9063-4.2987-7.5158q.2154-34.2486,0-68.4991c-.0219-3.4867,1.1632-5.4546,4.2-7.058,5.5266-2.9181,10.8411-6.2378,16.2441-9.39Z"/>
      </g>
    </g>
  </g>
</svg>
