<svg xmlns="http://www.w3.org/2000/svg" width="396.7297" height="624.9911" viewBox="0 0 396.7297 624.9911">
  <g id="Layer_2" data-name="Layer 2">
    <g id="Layer_1-2" data-name="Layer 1">
      <g>
        <g>
          <path d="M124.8821,187.5982c.0009-29.66.0851-59.32-.0973-88.9793-.025-4.0656,1.3693-6.2333,4.7992-8.203Q206.71,46.1242,283.6732,1.5478C287.08-.4255,289.62-.5773,293.15,1.4706q77.1461,44.7557,154.5014,89.15c3.3234,1.9086,4.5974,4.0413,4.59,7.8817q-.1661,88.98-.0068,177.9594c.0062,3.7621-1.0638,5.9884-4.4625,7.9388q-76.924,44.1423-153.64,88.6458c-4.1,2.3806-7.0078,2.5293-11.2189.0816q-76.4613-44.4425-153.2062-88.3958c-3.6849-2.1133-4.9461-4.4632-4.9206-8.6534C124.9656,246.5861,124.8813,217.0919,124.8821,187.5982Zm300.1632.4957c0-24.6587-.0775-49.318.0825-73.9757.0243-3.7467-.9419-5.9421-4.358-7.8984Q356.6093,69.4761,292.6673,32.3519c-3.1811-1.8457-5.4633-1.7279-8.5867.0836q-63.7432,36.9692-127.67,73.62c-3.3748,1.9343-4.4968,4.1764-4.4889,7.9425q.1542,73.726.0018,147.4523c-.0073,3.6313,1.2515,5.6727,4.3937,7.4756q64.13,36.796,128.09,73.8887c3.0234,1.7539,5.1717,1.69,8.1517-.0379q64.1744-37.2209,128.5261-74.1351c3.051-1.7493,4.0521-3.6735,4.0341-7.0723C424.989,237.0783,425.0492,212.5859,425.0453,188.0939Z" transform="translate(-91.9519)" fill="#5f0a1d"/>
          <path d="M241.3255,198.604c-8.2494,0-16.5.073-24.7481-.023-6.6372-.0773-14.4445,1.7289-19.5714-1.1493-4.9227-2.7636-7.1349-10.4355-10.4158-16.0224-4.8836-8.316-9.66-16.6952-14.7968-25.594l11.9518-6.9066c2.76,4.6871,5.3629,9.0634,7.9226,13.4648,3.6845,6.3356,7.2408,12.7489,11.08,18.9885.8308,1.35,2.6169,2.9715,3.9884,2.995,12.163.2091,24.3318.0953,36.4986.0333a10.68,10.68,0,0,0,2.5392-.97c-1.3805-1.0216-2.1052-1.95-2.9767-2.1179a13.6559,13.6559,0,0,0-4.97-.1816c-9.6941,1.8074-15.2239-2.156-19.6833-11.0176-7.55-15.0034-16.5231-29.297-25.0722-43.7862-1.7269-2.9268-1.8437-5.1858-.0535-8.1547,5.9339-9.8407,11.5681-19.8618,17.3427-29.799.8123-1.3978,1.766-2.7135,2.8874-4.4225l11.8191,6.7826c-5.3524,9.2826-10.2248,18.162-15.5509,26.76-2.1606,3.488-1.9709,6.092.0767,9.5086,7.1918,12,14.1481,24.1436,21.0062,36.3381,1.67,2.9695,3.5939,4.24,7.0859,4.0837,6.4815-.29,12.9852-.0829,20.0062-1.0233-1.971-1.172-3.9326-2.36-5.915-3.513-6.1922-3.6-12.5092-7.0072-18.5106-10.9008a7.6444,7.6444,0,0,1-3.1242-5.3748c-.2222-20.1642-.1795-40.332-.069-60.498.0089-1.623.56-4.0551,1.6886-4.735,11.9476-7.1979,24.0635-14.1164,36.6344-21.4024l6.998,12.0554c-8.5337,4.9268-16.529,9.9745-24.9265,14.2284-5.0032,2.5344-6.7948,5.6473-6.6113,11.2611.4352,13.3192.22,26.6628.0973,39.995-.0307,3.3469.8659,5.5973,4.0449,7.1795,4.5544,2.2667,8.8787,4.9953,13.2827,7.5161.5382-.8843.8758-1.1795.8383-1.4151-1.2137-7.63,1.8136-12.5844,9.0292-15.4494,1.3179-.5232,2.4394-3.0791,2.5761-4.7829.7552-9.4131.641-9.4222,9.8244-13.1534.635.8225,1.387,1.666,1.9833,2.6082a28.8145,28.8145,0,0,1,1.3945,2.8595l-5.7964,4.7221.7491,1.1833c2.456-1.0538,4.9278-2.9625,7.3638-2.9179,2.3751.0434,4.7136,2.0838,7.0682,3.2475l1.0126-1.2-6.18-5.0473c1.0216-1.7887,2.1068-3.6889,3.1577-5.5288,9.7854,3.74,9.807,3.8634,10.2969,13.4867.0742,1.4578.744,3.7712,1.7342,4.1561,7.766,3.0185,11.3173,8.2246,8.7789,17.0971l1.2866.3633c5.6471-3.2914,11.3518-6.4915,16.8738-9.9808.7558-.4775.8289-2.3946.8334-3.6466.054-15,.1668-30.0024-.125-44.9967-.0379-1.9493-1.8068-4.5891-3.544-5.6594-8.9105-5.49-18.0731-10.5711-27.64-16.0784l6.6711-11.7228c1.4841.656,2.7048,1.07,3.802,1.7,10.4022,5.9705,20.7489,12.0387,31.1953,17.93,2.568,1.4484,3.9244,3.0609,3.9046,6.2226q-.1874,29.9988-.005,59.9992c.0187,3.138-1.2773,4.814-3.86,6.2593a238.3426,238.3426,0,0,0-23.6282,14.7377c7.8,0,15.603.0918,23.3972-.126.8885-.0248,1.9268-1.6694,2.5609-2.7579,7.629-13.0964,15.278-26.1834,22.6594-39.4191a6.9256,6.9256,0,0,0-.1685-5.7076c-5.1023-9.3411-10.53-18.5046-16.224-28.3784l12.0324-7.0056c6.0986,10.5485,11.5352,20.861,17.88,30.58,3.7076,5.6794,3.4816,9.9388-.0268,15.6359-9.43,15.3131-18.27,30.9959-27.0646,46.6888-1.9239,3.4331-4.112,4.7354-7.9087,4.43a85.5322,85.5322,0,0,0-10.9934.0145,16.9811,16.9811,0,0,0-4.0425,1.2282l.1537,1.4362a19.0414,19.0414,0,0,0,3.5047.6675c10.6679.051,21.3418.2056,31.9993-.1325a8.1617,8.1617,0,0,0,5.6948-3.4562c6.339-10.3481,12.3009-20.9272,18.7332-32.0224l11.8018,6.8217c-.94,1.853-1.6656,3.4585-2.5405,4.9778-6.4014,11.1152-12.9987,22.1222-19.1595,33.3685-1.9959,3.6436-4.4274,4.7117-8.3517,4.6352-10.9973-.2147-22.0017-.0839-33.0032-.0628a10.0436,10.0436,0,0,0-5.0548,1.143c5.39,3.1408,10.6977,6.4362,16.2032,9.3595,2.9045,1.5422,3.8536,3.49,3.8349,6.74q-.1983,34.4988-.01,68.9993c.0162,3.3406-.8349,5.433-3.9631,7.17-12.0863,6.7118-23.9858,13.76-35.9676,20.66-1.2669.73-2.6176,1.3137-4.3119,2.1552l-6.8741-11.7566c8.158-4.7238,15.5586-10.0186,23.7329-13.4945,10.9868-4.6719,15.1138-11.564,13.8782-23.6783-1.2953-12.7012-.29-25.6371-.2889-38.4705.0007-9.1275-.0012-9.1311-10.2656-13.0571,0,4.24-.1892,8.1275.0587,11.987.2065,3.2164-.8427,5.1721-3.7377,6.7966-12.3474,6.9288-24.5074,14.1931-36.8955,21.0463a7.49,7.49,0,0,1-6.192-.0263c-12.2447-6.7687-24.2537-13.9625-36.47-20.7838-3.197-1.7852-4.5369-3.9114-4.2612-7.5348.2752-3.6172.06-7.2717.06-11.0205-8.404,1.9647-9.89,3.7264-9.89,11.2643-.0012,16.6667.1153,33.3348-.0861,49.999-.0479,3.96,1.0722,6.3131,4.6642,8.2807,10.7829,5.9066,21.34,12.2252,32.5026,18.6823L265.6066,314.91c-2.2122-1.1779-4.1006-2.1163-5.925-3.1657-11.4079-6.5612-22.7384-13.26-34.24-19.6519-3.2092-1.7832-4.3214-3.9063-4.2987-7.5158q.2153-34.2486,0-68.4991c-.0218-3.4867,1.1633-5.4546,4.2-7.058,5.5265-2.9181,10.841-6.2378,16.244-9.39Z" transform="translate(-91.9519)" fill="#5f0a1d"/>
        </g>
        <g>
          <path d="M91.9519,508.3378v-4.8a1.8556,1.8556,0,0,1,2.1-2.1h6.75a1.8564,1.8564,0,0,1,2.1,2.1v3.9q0,13.5,13.35,13.5h13.2q13.3491,0,13.35-13.8008v-5.1q0-10.8-17.85-14.1-7.5022-1.3506-15-3.15a26.6352,26.6352,0,0,1-12.75-6.9746q-5.2522-5.1753-5.25-14.1758v-7.35q0-10.3506,5.9253-16.2754t16.2749-5.9248h16.65q10.199,0,16.2,5.9248,5.9978,5.9283,6,16.2754v3.75q0,2.25-1.95,2.25h-6.9q-1.9512,0-1.95-2.25v-2.7q0-13.6479-13.35-13.6494h-12.75q-13.3529,0-13.35,14.25v6q0,7.6494,10.05,10.5,4.5,1.2012,9.9,2.1748a110.62,110.62,0,0,1,10.875,2.55,54.543,54.543,0,0,1,9.9751,3.9,17.919,17.919,0,0,1,7.2749,7.05,22.293,22.293,0,0,1,2.7754,11.4746v6.75q0,10.3506-6,16.2754-6.0015,5.9268-16.2,5.9248h-17.25q-10.2027,0-16.2-5.9248Q91.9512,518.6894,91.9519,508.3378Z" transform="translate(-91.9519)" fill="#5f0a1d"/>
          <path d="M181.2019,530.538h-6.75a1.8555,1.8555,0,0,1-2.1016-2.1v-92.25a1.857,1.857,0,0,1,2.1016-2.1006h35.1q10.3506,0,16.1992,5.9248,5.8506,5.9283,5.85,16.2754v16.65q0,10.5-5.85,16.35t-16.1992,5.85h-24.75c-1.0019,0-1.5.45-1.5,1.3506v31.95A1.8557,1.8557,0,0,1,181.2019,530.538Zm3.6-45.15h23.25q12.6006,0,12.6-12.8994v-15.75q0-13.05-12.6-13.05h-23.25c-1.0019,0-1.5.4492-1.5,1.35v39C183.3015,484.9384,183.8,485.3876,184.8015,485.3876Z" transform="translate(-91.9519)" fill="#5f0a1d"/>
          <path d="M259.0486,436.1884v92.25a1.8553,1.8553,0,0,1-2.1,2.1h-6.75a1.8552,1.8552,0,0,1-2.1006-2.1v-92.25a1.8567,1.8567,0,0,1,2.1006-2.1006h6.75A1.8568,1.8568,0,0,1,259.0486,436.1884Z" transform="translate(-91.9519)" fill="#5f0a1d"/>
          <path d="M279.5974,528.4384v-92.25a1.8567,1.8567,0,0,1,2.1006-2.1006h36.9q10.3506,0,16.2754,5.9248,5.9238,5.9283,5.9248,16.2754v52.05q0,10.3506-5.9248,16.2754-5.9268,5.9268-16.2754,5.9248h-36.9A1.8552,1.8552,0,0,1,279.5974,528.4384Zm12.4507-7.5h25.2q12.6006,0,12.6-13.0508V456.7382q0-13.05-12.6-13.05h-25.2q-1.5015,0-1.5,1.35v74.55Q290.5481,520.9384,292.0481,520.9384Z" transform="translate(-91.9519)" fill="#5f0a1d"/>
          <path d="M408.2991,530.538H361.2a1.8552,1.8552,0,0,1-2.1006-2.1v-92.25a1.8567,1.8567,0,0,1,2.1006-2.1006h47.1a1.8575,1.8575,0,0,1,2.1006,2.1006v5.3994a1.8567,1.8567,0,0,1-2.1006,2.1006h-36.75q-1.5015,0-1.5,1.35v30.3q0,1.3506,1.5,1.3506H403.65a1.8565,1.8565,0,0,1,2.1,2.1v5.4a1.8557,1.8557,0,0,1-2.1,2.1H371.5491q-1.5015,0-1.5,1.35v31.95q0,1.3506,1.5,1.3506h36.75a1.8568,1.8568,0,0,1,2.1006,2.1v5.4A1.856,1.856,0,0,1,408.2991,530.538Z" transform="translate(-91.9519)" fill="#5f0a1d"/>
          <path d="M436.0481,530.538h-6.75a1.8552,1.8552,0,0,1-2.1006-2.1v-92.25a1.8567,1.8567,0,0,1,2.1006-2.1006h34.5q10.3491,0,16.35,5.9248,5.9985,5.9283,6,16.2754v13.65q0,8.4022-4.05,13.875a19.2944,19.2944,0,0,1-11.25,7.2744v.6006l17.4,36.4492q1.3491,2.4024-1.5,2.4h-6.75a4.0108,4.0108,0,0,1-3.75-2.1l-16.8008-36.3008h-19.8q-1.5015,0-1.5,1.3506v34.95A1.8553,1.8553,0,0,1,436.0481,530.538Zm3.6-47.55h22.65q12.8979,0,12.8994-12.9v-13.35q0-13.05-12.8994-13.05h-22.65q-1.5015,0-1.5,1.35v36.6Q438.1477,482.9882,439.6477,482.9882Z" transform="translate(-91.9519)" fill="#5f0a1d"/>
        </g>
        <g>
          <path d="M235.83,624.9911h-.98c-.374,0-.56-.21-.56-.63v-41.86q0-.56-.63-.56H222.88q-.63,0-.63-.56v-.84q0-.5595.63-.5595h24.92q.63,0,.63.5595v.84q0,.561-.63.56H237.02q-.63,0-.63.56v41.86Q236.39,624.9912,235.83,624.9911Z" transform="translate(-91.9519)"/>
          <path d="M276.15,624.9911h-21.28q-.561,0-.56-.63v-43.75q0-.63.56-.63h21.28q.63,0,.63.5595v.84q0,.561-.63.56h-19.11q-.63,0-.63.56v17.99c0,.374.21.56.63.56h17.29c.42,0,.63.1875.63.5605v.84c0,.374-.21.56-.63.56h-17.29c-.42,0-.63.1875-.63.56v18.9c0,.374.21.56.63.56h19.11q.63,0,.63.5595v.8409C276.78,624.8056,276.57,624.9911,276.15,624.9911Z" transform="translate(-91.9519)"/>
          <path d="M303.9387,624.9911h-9.1006a9.1555,9.1555,0,0,1-6.8252-2.59,9.4351,9.4351,0,0,1-2.5546-6.93V589.5009a9.4365,9.4365,0,0,1,2.5546-6.93,9.1589,9.1589,0,0,1,6.8252-2.59h9.1006a9.1578,9.1578,0,0,1,6.8242,2.59,9.4388,9.4388,0,0,1,2.5557,6.93v3.5c0,.42-.1875.63-.56.63h-.98q-.5611,0-.5606-.63v-3.43a7.8986,7.8986,0,0,0-1.89-5.6,7.0014,7.0014,0,0,0-5.39-2.03h-9.1006a7,7,0,0,0-5.39,2.03,7.8961,7.8961,0,0,0-1.89,5.6v25.83a7.8946,7.8946,0,0,0,1.89,5.6,6.9962,6.9962,0,0,0,5.39,2.03h9.1006a6.9978,6.9978,0,0,0,5.39-2.03,7.8971,7.8971,0,0,0,1.89-5.6v-3.43q0-.6313.5606-.6309h.98c.373,0,.56.21.56.6309v3.5a9.4374,9.4374,0,0,1-2.5557,6.93A9.1544,9.1544,0,0,1,303.9387,624.9911Z" transform="translate(-91.9519)"/>
          <path d="M323.8879,624.9911h-.9794q-.5611,0-.5606-.63v-43.75q0-.63.5606-.63h.9794q.56,0,.5606.63v19.88c0,.374.21.56.63.56h21.7c.42,0,.63-.1856.63-.56v-19.88c0-.42.1855-.63.56-.63h.9805q.56,0,.56.63v43.75q0,.63-.56.63h-.9805c-.374,0-.56-.21-.56-.63v-20.79c0-.373-.21-.56-.63-.56h-21.7c-.42,0-.63.1875-.63.56v20.79Q324.4485,624.9912,323.8879,624.9911Z" transform="translate(-91.9519)"/>
        </g>
      </g>
    </g>
  </g>
</svg>
