<svg xmlns="http://www.w3.org/2000/svg" width="700.2" height="694.8" viewBox="0 0 700.2 694.8">
  <g id="Layer_2" data-name="Layer 2">
    <g id="Layer_1-2" data-name="Layer 1">
      <g>
        <path d="M363.6,0c.6019.1217,1.1985.2947,1.8065.3573,5.88.6047,11.7849,1.0174,17.6351,1.8292,6.3413.88,12.6692,1.9478,18.9333,3.2649,5.9579,1.2528,11.8948,2.7077,17.7157,4.4841,6.8889,2.1023,13.6762,4.5556,20.4439,7.0307,3.742,1.3686,7.3928,3.0079,11.017,4.6725A225.15,225.15,0,0,1,486.145,41.38c6.2724,4.3746,12.3933,8.9873,18.3687,13.76,4.4938,3.59,8.74,7.5073,12.9265,11.4583a167.8493,167.8493,0,0,1,12.3609,12.4253c6.3451,7.3877,12.5616,14.9167,18.354,22.74a182.1431,182.1431,0,0,1,18.0693,29.6187c4.0536,8.4646,7.9374,17.0251,11.5064,25.7035a188.9407,188.9407,0,0,1,9.506,31.4388c1.2085,5.5017,2.2211,11.0523,3.1309,16.612.8562,5.2318,1.4844,10.5018,2.1625,15.7614a44.6207,44.6207,0,0,1,.37,4.9681c.1489,9.0963.449,18.1964.3027,27.2888-.0912,5.6723-.7489,11.3481-1.3894,16.9955-.69,6.0844-1.4175,12.1832-2.5671,18.1919a192.731,192.731,0,0,1-4.6546,19.67c-2.8346,9.3567-6.0712,18.5987-9.3875,27.799-1.51,4.1882-3.5889,8.1743-5.4645,12.2268a226.3255,226.3255,0,0,1-20.4248,34.9776c-3.5869,5.1063-7.4626,10.024-11.4274,14.8463-3.6171,4.3994-7.4325,8.6477-11.3419,12.7914a161.8267,161.8267,0,0,1-12.4264,12.359c-7.45,6.3495-15.1572,12.409-22.9242,18.3717-8.6494,6.64-18.08,12.071-27.6867,17.206a195.0682,195.0682,0,0,1-29.2938,12.9558q-13.8069,4.6776-27.9038,8.4815a163.9387,163.9387,0,0,1-17.9907,3.4072c-6.1232.9264-12.2887,1.6487-18.4608,2.1542-5.6948.4663-11.4211.5961-17.1368.7433-4.387.113-8.7886.2033-13.1668-.0227-5.6157-.29-11.2325-.7555-16.8159-1.4217-6.7207-.8017-13.4507-1.6629-20.0952-2.927a185.6736,185.6736,0,0,1-18.6213-4.51c-8.1326-2.4393-16.1661-5.23-24.1635-8.09a97.2692,97.2692,0,0,1-11.4534-5.007c-8.2192-4.1995-16.5276-8.28-24.4359-13.0163a218.9653,218.9653,0,0,1-21.0868-14.4283c-7.028-5.4166-13.661-11.366-20.2592-17.3127a133.67,133.67,0,0,1-12.3718-12.4107c-6.3488-7.4507-12.4325-15.14-18.3628-22.9312a199.6266,199.6266,0,0,1-17.8189-28.96A197.2528,197.2528,0,0,1,120.9984,325.11c-2.9615-9.134-5.76-18.3372-8.16-27.6313a178.685,178.685,0,0,1-3.3555-18.5492c-.8034-5.43-1.2084-10.9169-1.8475-16.3719-1.2084-10.3132-.776-20.67-.6171-31,.0962-6.25,1.0453-12.4916,1.714-18.726a224.6075,224.6075,0,0,1,7.8131-38.087,245.265,245.265,0,0,1,10.2475-28.4376,237.9957,237.9957,0,0,1,24.1788-43.1439c4.0856-5.8381,8.6565-11.347,13.174-16.8687,2.9693-3.6292,6.15-7.0979,9.3939-10.4867,4.0408-4.2207,8.01-8.5591,12.4312-12.3555,7.3888-6.3439,14.9467-12.5187,22.7379-18.3585a179.0638,179.0638,0,0,1,28.1989-17.3429c6.8973-3.4015,13.843-6.7367,20.9323-9.7074,6.4261-2.6929,13.0183-5.0272,19.6407-7.2052a183.9225,183.9225,0,0,1,27.99-6.8676c5.6925-.9245,11.3977-1.7973,17.1212-2.4966C326.94.9434,331.3264.7283,335.694.3512A3.4748,3.4748,0,0,0,336.6,0ZM580.7982,240.722c-2.4176-48.4717-13.86-85.8625-35.4083-120.016a229.9972,229.9972,0,0,0-88.9032-82.1327,221.6718,221.6718,0,0,0-100.29-25.8666c-64.1938-1.1282-120.134,20.2279-166.3031,64.9253-45.3035,43.8594-68.977,97.9966-70.1862,161.03-1.2169,63.4315,20.4988,118.737,64.5583,164.44,43.53,45.1536,97.3142,68.9478,160.01,70.47,64.048,1.5554,119.949-20.1262,165.9494-64.7924C559.7037,360.7364,582.3327,301.4,580.7982,240.722Z"/>
        <path d="M0,555.84c8.58.0018,17.16.0249,25.739-.0191,1.2055-.0062,1.6382.3771,2.0611,1.5489,4.2774,11.8523,8.6675,23.6638,13.0159,35.4905q6.7045,18.2343,13.3859,36.4772c2.0311,5.5583,4.0011,11.1389,6.0084,16.706.0563.1564.2206.2738.4723.5733.8082-2.1982,1.5617-4.2509,2.3173-6.3027q5.68-15.4254,11.358-30.8517c2.5835-7.0432,5.1272-14.1009,7.7016-21.1474q5.7616-15.7712,11.5754-31.5231a1.6753,1.6753,0,0,1,1.2232-.9053c8.1543-.0535,16.3091-.04,24.4464-.04q16.5767,45.2679,33.0835,90.3457l.4611.07,33.1029-90.3563h27.4353c-1.3424,3.8188-2.6342,7.5872-3.9906,11.3324-2.2752,6.2818-4.5931,12.5481-6.89,18.8221q-6.1345,16.7573-12.2621,33.5171-7.1906,19.7409-14.3445,39.4952-6.353,17.427-12.7515,34.8373a3.3048,3.3048,0,0,0-.0687.8893H142.2a5.2106,5.2106,0,0,0-.16-1.0392c-2.5242-6.8714-5.0765-13.7325-7.5954-20.6059q-6.8613-18.7226-13.6916-37.4565-6.0492-16.5863-12.08-33.1795c-.6429-1.76-1.39-3.4817-2.2166-5.54-4.2132,11.5345-8.2674,22.6448-12.33,33.7521Q88.213,646.9,82.2828,663.0633c-3.0306,8.2457-6.1116,16.4729-9.12,24.7267-.8394,2.3032-1.5,4.6716-2.2429,7.01H50.4c-1.3841-3.7312-2.786-7.456-4.149-11.195q-7.2219-19.8105-14.421-39.6294Q24.6589,624.24,17.5005,604.5005q-6.31-17.3375-12.664-34.6589C3.253,565.5239,1.6138,561.2266,0,556.92Z"/>
        <path d="M348.48,694.8c-1.2043-.3559-2.4265-.661-3.61-1.0759-9.5353-3.3429-15.4793-10.0327-17.8735-19.7567-.6143-2.4949-.3969-5.2077-.4556-7.8228-.0669-2.9827-.0155-5.9681-.0155-9.0449h25.91q0,4.6179,0,9.2628c0,2.8811,0,2.8825,2.8139,2.8825q41.0319,0,82.0637.0409c1.854.0039,2.3116-.542,2.2933-2.3386-.0894-8.7574-.04-17.5161-.0408-26.2744,0-2.3954-.0018-2.3976-2.3318-2.3977q-41.8417-.0007-83.6835-.001c-9.884-.0006-17.5-4.284-22.957-12.4039a24.0231,24.0231,0,0,1-4.0694-13.6751q.01-15.207.0034-30.414a25.1633,25.1633,0,0,1,6.0212-16.371,26.9464,26.9464,0,0,1,16.2379-9.5078,9.2367,9.2367,0,0,1,1.7928-.0553q44.901-.0031,89.8022-.0142a23.7029,23.7029,0,0,1,14.5439,5.1442,25.3161,25.3161,0,0,1,9.8534,14.4722,30.0718,30.0718,0,0,1,1.0094,5.8854c.1559,4.0076.0466,8.0254.0466,12.1693H439.5652c0-3.3463-.0891-6.6882.0372-10.022.0641-1.6907-.4874-2.1242-2.1417-2.1213q-41.3017.0719-82.6037.0355c-2.42,0-2.4216.0094-2.4218,2.3732q-.0014,13.1374,0,26.2748c0,2.3191.0024,2.3207,2.4088,2.3207,28.2544,0,56.509-.0506,84.7631.0376a25.0344,25.0344,0,0,1,17.5346,7.2267,26.1127,26.1127,0,0,1,8.2279,14.8772,27.529,27.529,0,0,1,.4452,4.5911c.0392,9.8379.13,19.6776-.0073,29.5137-.1789,12.8033-9.7559,23.8813-21.9226,25.8638-.1356.0221-.2439.213-.3649.325Z"/>
        <path d="M527.76,694.8V555.9617H655.8165v25.3541H553.7948v30.9773h81.8131v25.9342h-81.83v30.9135H655.92V694.8Z"/>
        <path d="M243.72,694.8V555.9767h25.92V694.8Z"/>
        <path d="M674.64,694.8V669.24H700.2V694.8Z"/>
        <path d="M201.96,694.8V669.37h25.56V694.8Z"/>
        <path d="M285.84,694.8V669.37H311.4V694.8Z"/>
        <path d="M485.64,694.8V669.37H511.2V694.8Z"/>
        <path d="M344.1789,469.1721c-58.8812-.9284-114.3084-24.167-158.8013-71.4467-42.4172-45.074-62.7512-99.3062-60.9988-161.09,1.7671-62.3048,25.7237-115.4465,71.1394-158.1494,45.4494-42.7345,100.08-63.0894,162.3386-61.0259,61.8978,2.0516,114.6442,26.0936,157.0324,71.2332,42.4174,45.1708,62.3623,99.4445,61.0065,161.3036A217.7849,217.7849,0,0,1,551.12,346.6213a224.98,224.98,0,0,1-81.7244,88.56C432.9784,457.9332,393.0785,468.9267,344.1789,469.1721ZM176.3905,186.1745c3.8166,2.84,7.2835,5.4809,10.8126,8.0354q18.6507,13.5,37.3607,26.9179a7.0106,7.0106,0,0,0,3.4925,1.3034c6.6674.3516,13.3438.5326,20.017.7736,6.6134.2389,13.2256.5147,19.84.7094,5.795.1705,11.593.2392,17.3889.3848a19.093,19.093,0,0,1,2.3541.3442c-4.7063.532-9.3774.8032-14.0486,1.071-2.1964.126-4.3948.2215-6.5894.3728-6.7476.465-13.4929.9636-20.2409,1.4208-2.4337.1649-4.8753.2132-7.3085.3834-1.6052.1122-3.2018.347-4.9939.5485,2.4962,1.8224,4.82,3.524,7.1489,5.2184q10.1337,7.3725,20.2665,14.746c3.6241,2.6516,6.9887,5.5257,11.9989,5.4763,6.73-.0664,13.4649.4379,20.2.6345,5.795.1692,11.5938.2154,17.3887.3881,2.2454.0669,4.4848.3322,6.727.5071l.0233.2218-41.9214,2.7713a21.1985,21.1985,0,0,0,3.4183,2.9613c6.4153,4.682,12.871,9.31,19.2352,14.06,2.51,1.8731,4.8788,3.2363,8.31,2.5682,5.7731-1.124,11.6395-1.7772,17.474-2.5753,5.2338-.716,10.4774-1.36,15.3445-1.9882L322.34,292.2154c1.0443.8182,2.1316,1.7247,3.2737,2.556q11.6973,8.5144,23.4029,17.0174a1.5459,1.5459,0,0,0,2.15.0133q8.2935-6.1578,16.6377-12.2473c3.4052-2.4885,6.8416-4.9341,10.5022-7.5706l-19.07-18.6707c1.1753.1359,1.8521.2064,2.5269.2935,3.0986.4,6.1991.7859,9.2941,1.2118,3.9086.5377,7.8117,1.115,11.7187,1.6643,3.266.4592,6.5232,1.0356,9.8053,1.3068,2.2167.1831,4.35,1.0493,6.6448-.9256,3.9972-3.44,8.51-6.2794,12.7972-9.3843q5.9781-4.33,11.9357-8.6879l-.0684-.3955-41.903-2.7594c5.8851-.5689,11.7537-.8455,17.6228-1.11q4.3743-.197,8.75-.3564c7.0927-.2493,14.1849-.53,21.28-.6858a5.6038,5.6038,0,0,0,3.38-1.2165c6.8828-5.0349,13.7952-10.0292,20.69-15.0478,3.9709-2.89,7.9267-5.8015,12.0825-8.8447-4.0834-.3024-7.8546-.6139-11.63-.8507-2.7932-.1751-5.5933-.2376-8.3889-.3793-1.8979-.0962-3.7943-.228-5.6895-.3694-6.2674-.4677-12.5323-.97-18.8015-1.4115-2.9009-.2041-5.81-.2966-8.7149-.44a4.223,4.223,0,0,1,1.9493-.6249c6.6723-.2647,13.3459-.4946,20.0193-.7346s13.3455-.5153,20.02-.71c5.855-.1707,11.7136-.2221,17.5683-.4a5.4251,5.4251,0,0,0,2.8352-.712c5.3355-3.763,10.5926-7.6371,15.8742-11.4765q10.4907-7.626,20.9788-15.2554c3.922-2.8587,7.8263-5.7416,12.0136-8.8155H394.324a35.837,35.837,0,0,1-28.2791,28.8659,34.7293,34.7293,0,0,1-3.5007-11.7c-.4526-3.1521-.7432-6.3278-1.0833-9.4954-.1159-1.0791-.1148-2.0857,1.4592-2.023,1.48.0589,2.9642.0126,4.4978.0126a5.97,5.97,0,0,0-3.8525-6.4216,47.0218,47.0218,0,0,0-16.1588-1.7907,5.7635,5.7635,0,0,0-5.3147,3.8246c-1.3961,3.9743-2.46,8.0643-3.7066,12.0924-1.5875,5.1308-3.2176,10.2484-4.878,15.5265a33.9288,33.9288,0,0,1-16.2554-8.2864c-6.2482-5.4384-9.7917-12.5455-11.3846-20.6272Zm173.7-126.2173c-.129.4646-.2176.8416-.3377,1.2082q-4.7593,14.5368-9.5217,29.0728-4.5246,13.8747-9.0076,27.7629-4.6345,14.3022-9.2658,28.6054-5.418,16.6356-10.8708,33.26a6.4227,6.4227,0,0,0-.68,2.6945,51.041,51.041,0,0,0,1.68,6.9843c2.9236,9.1986,9.3065,15.2045,17.9031,19.1911.1831-.4468.3678-.8175.49-1.2078,2.2384-7.1542,4.4479-14.3175,6.7089-21.4645,1.6323-5.16,5.3136-7.0869,9.6944-7.4326a54.7,54.7,0,0,1,16.6089,1.3946c4.4253,1.02,7.5517,3.5366,8.6184,8.0824a33.72,33.72,0,0,1,.5182,5.2909c.1748,2.4535.3007,4.91.47,7.7435l-6.2015-3.2613c.5868,3.9053.7262,7.5931,2.338,11.026,1.0162-.3848,1.8516-.6566,2.6468-1.0172.5833-.2644,1.104-.6631,1.6692-.9716a29.6288,29.6288,0,0,0,15.1073-19.1481c.5635-2.1488,1.2883-4.6411.7246-6.6316-2.1861-7.7187-4.8672-15.297-7.3542-22.9308q-4.5205-13.8758-9.0249-27.7567-4.672-14.3819-9.3387-28.7654-4.5088-13.8795-9.024-27.757C353.1382,69.3072,351.6312,64.6865,350.0907,59.9572ZM282.0473,269.3765q-19.6092,60.3768-39.1705,120.6066l.3345.167,102.4834-74.47-32-23.2329,12.22-12.0265c-2.5905.3678-5.146.7352-7.703,1.0927-4.1394.5788-8.2674,1.2867-12.4253,1.6632-1.8118.164-3.6716,1.0752-5.5731-.3743C294.2287,278.24,288.1185,273.8441,282.0473,269.3765Zm72.4544,46.303L456.9912,390.15l.3024-.27q-19.5609-60.2165-39.142-120.4947c-6.1527,4.519-12.2521,9.03-18.4025,13.4705a3.9173,3.9173,0,0,1-2.4142.7314c-2.336-.2065-4.65-.6577-6.9754-.9894q-4.8087-.6856-9.6227-1.332c-2.1536-.286-4.3132-.5266-6.47-.7876l-.2977.4793L385.9178,292.88ZM172.25,197.5537q-12.7155,51.4775,3.634,101.5644c10.9739,33.4282,30.2579,61.2937,57.36,84.1043a28.2247,28.2247,0,0,1,1.1276-3.1049c.7693-1.5122.0458-2.4418-1.0448-3.3389-1.5532-1.2774-3.1594-2.5061-4.5972-3.9054a210.3788,210.3788,0,0,1-18.8139-20.518A181.0926,181.0926,0,0,1,190.7685,322.38a170.3069,170.3069,0,0,1-11.84-29.9028,154.6225,154.6225,0,0,1-5.7575-28.2631c-.5359-5.5984-1.2832-11.2021-1.3651-16.8117-.1-6.8463.3173-13.7056.6706-20.551a106.3589,106.3589,0,0,1,1.1348-11.2908c.8381-5.2439,1.9732-10.44,2.9746-15.6224Zm351.164,2.4784a3.6511,3.6511,0,0,1,.3124.72c1.1108,6.4248,2.3936,12.8269,3.258,19.285.7452,5.5681,1.2261,11.1926,1.4267,16.8064.181,5.0644-.077,10.153-.3256,15.222a137.3045,137.3045,0,0,1-1.1293,13.8134c-.9391,6.2028-2.1687,12.3735-3.5557,18.4941a157.6986,157.6986,0,0,1-10.8752,31.525c-2.2743,4.903-4.72,9.7537-7.469,14.4024-3.4341,5.8062-7.0212,11.5546-10.9879,17.0036a160.8144,160.8144,0,0,1-12.2037,14.7434c-4.7352,5.0975-9.9279,9.7686-14.8682,14.6789a3.9587,3.9587,0,0,0-1.3909,2.4329c.0839,1.2773.81,2.5124,1.371,4.0576,26.0623-21.98,44.9568-48.6665,56.151-80.6611,12.0495-34.4391,13.5255-69.4215,4.8321-105.042-.8246.4623-1.5287.8607-2.2363,1.2528C525.0061,199.1638,524.2851,199.5551,523.4142,200.0321ZM252.4236,397.0627A176.2834,176.2834,0,0,0,299.1383,418.25a182.4516,182.4516,0,0,0,101.86.0124,176.2661,176.2661,0,0,0,46.77-21.2,18.957,18.957,0,0,1-2.6716-1.9206c-1.1265-1.1712-2.1359-.7705-3.2829-.1174-3.78,2.1519-7.52,4.386-11.3911,6.3609a113.2272,113.2272,0,0,1-11.5379,5.2741c-7.2366,2.7186-14.4956,5.4489-21.9127,7.5961A131.3643,131.3643,0,0,1,372.08,419.05c-5.0678.45-10.1235,1.1932-15.1991,1.358-5.427.1762-10.8758-.072-16.3062-.3251-4.1962-.1956-8.402-.515-12.5619-1.0839-5.94-.8121-11.9114-1.597-17.745-2.9357a171.2662,171.2662,0,0,1-39.011-13.9338c-4.406-2.2236-8.6386-4.7892-12.9859-7.1325a2.9387,2.9387,0,0,0-2.1823-.3929A26.8473,26.8473,0,0,0,252.4236,397.0627ZM180.5893,172.2588c.5288.1339.8188.1923,1.0993.2807,2.798.882,3.8283.4,4.9566-2.2161.6981-1.6183,1.4711-3.2048,2.2331-4.7947a150.06,150.06,0,0,1,13.5823-23.4882,251.6892,251.6892,0,0,1,16.1043-20.41A165.7769,165.7769,0,0,1,240.15,101.5889a182.9078,182.9078,0,0,1,26.2632-17.1353,176.0294,176.0294,0,0,1,33.7326-13.6794A169.3827,169.3827,0,0,1,334.2394,64.41c1.0372-.0824,2.4794-.342,2.9545-1.0454.8007-1.1854.9769-2.7927,1.4558-4.3527-36.0556,2.5055-68.5812,14.293-97.453,35.7146A182.7627,182.7627,0,0,0,180.5893,172.2588Zm339.0027-.0547a183.052,183.052,0,0,0-63.0452-79.2653c-28.2715-20.2768-59.8984-31.48-94.9538-33.9147.4133,1.37.7633,2.4713,1.0755,3.5832.2567.9146.5781,1.46,1.7708,1.539,2.7568.1836,5.5047.593,8.2374,1.0294,5.92.9455,11.8961,1.6743,17.7271,3.0206a177.7963,177.7963,0,0,1,28.0766,9.077,167.3288,167.3288,0,0,1,29.54,15.698c5.4625,3.6783,10.645,7.7841,15.8487,11.8322,6.9852,5.434,13.0924,11.7979,19.0738,18.298a170.6483,170.6483,0,0,1,16.9081,22.0065,181.7214,181.7214,0,0,1,13.7154,25.2461c1.0936,2.4272,1.9682,2.9729,4.503,2.4072A13.4158,13.4158,0,0,0,519.592,172.2041ZM156.5,199.3953l-19.2227,1.93-1.3007,4.61c3.3677-.26,6.55-.4481,9.7195-.7625,5.5256-.5482,11.0417-1.1914,16.5663-1.7513.9855-.1,2.013.1955,2.2823-1.2788.2575-1.41.6107-2.4555-1.0949-3.5056-4.4-2.7086-8.5951-5.75-12.8539-8.6848-.7528-.5187-1.4174-1.1655-2.3851-1.9717l20.495-2.0064a11.7306,11.7306,0,0,1,.5272-2.1116,1.614,1.614,0,0,0-.738-2.2205q-11.111-7.5853-22.233-15.1565a29.3233,29.3233,0,0,0-.807,3.4724,2.1033,2.1033,0,0,0,.5594,1.6785c3.0931,2.24,6.2626,4.3754,9.4044,6.5489,1.7308,1.1974,3.4537,2.4062,5.5885,3.8945-5.6263.5413-10.6746,1.1333-15.74,1.4764-3.2835.2224-3.4059.1466-4.3382,3.2766a1.7509,1.7509,0,0,0,.8153,2.3507C146.5751,192.398,151.2986,195.7728,156.5,199.3953ZM540.371,296.214a6.026,6.026,0,0,0,1.03-.4586c2.6707-1.9259,5.469-3.7086,7.9412-5.8645,1.6279-1.42,2.62-1.0122,4.0536.1151,2.726,2.1431,5.5932,4.1065,8.8332,6.4576l-4.1649-12.9114,11.17-8.1575c-4.3661,0-8.3013-.0582-12.233.034a1.8185,1.8185,0,0,1-2.13-1.5438c-1.0974-3.6409-2.3174-7.2448-3.5962-11.1915-1.4821,4.4032-2.8736,8.5375-4.3077,12.7982H533.3788c3.5734,2.6324,6.7862,5.09,10.11,7.3872.8886.614.7923,1.0195.5134,1.8607C542.7552,288.502,541.6014,292.2956,540.371,296.214ZM130.9689,275.3948l11.1624,8.1594-4.1325,12.876c3.5872-2.5824,6.7035-4.8909,9.91-7.0674a2.4653,2.4653,0,0,1,2.126-.0786,27.2764,27.2764,0,0,1,3.1261,2.2936c2.1463,1.5639,4.3081,3.1066,6.7314,4.8509-1.3034-4.1666-2.4417-7.9691-3.7066-11.729-.3015-.8961-.2805-1.2514.5645-1.8394,3.3087-2.3027,6.5157-4.7516,10.1-7.397H153.2223c-1.4282-4.2418-2.8143-8.3586-4.294-12.7532-1.2411,3.8023-2.4443,7.2286-3.456,10.71-.4312,1.4842-1.06,2.0721-2.6761,2.016C139.0242,275.3057,135.2445,275.3948,130.9689,275.3948Zm63.7556-158.5663a3.287,3.287,0,0,1,.3561-.6549,5,5,0,0,0-1.1072-7.8663c-1.3118-.7682-2.3909-1.9249-3.6738-2.7534a12.7131,12.7131,0,0,0-4.124-2.1565c-2.6621-.5082-4.1284,1.49-5.5375,3.3993-3.8979,5.282-7.84,10.5312-11.83,15.88L190.15,138.4577l2.5719-3.5987-7.4209-5.517a28.0672,28.0672,0,0,0,3.2743-4.3947c1.3031-2.7286,3.505-3.237,6.1441-3.2794,2.4957-.04,4.99-.2114,7.4824-.3615a1.2913,1.2913,0,0,0,.8464-.42c.97-1.2305,1.8906-2.5,3.0537-4.0582Zm39.7279-26.7409c5.9581-3.9976,11.76-7.8872,17.5584-11.7821,2.8149-1.8908,3.3877-4.6573,1.5226-7.4656q-4.53-6.8217-9.0951-13.6209a4.8786,4.8786,0,0,0-6.3672-1.3512c-5.738,3.7743-11.4418,7.6008-17.2056,11.335-.9359.6064-1.0938.953-.4357,1.9081,2.0967,3.0431,4.0623,6.1761,6.1143,9.2506C229.1174,82.2169,231.7261,86.0488,234.4524,90.0876Zm-52.746,279.6291a20.409,20.409,0,0,0-2.7184,3.68c-.9773,2.2652.4355,3.9918,1.8392,5.6239,2.7774,3.2295,5.5994,6.4236,8.2852,9.728,2.4668,3.0351,5.1715,3.5466,8.1426,1.293a40.692,40.692,0,0,0,4.2224-3.8356,4.4375,4.4375,0,0,0,.1527-6.5928c-2.4829-2.7051-4.8532-5.5146-7.2378-8.3083-1.0448-1.224-2.0049-2.52-3.0624-3.8581,1.4679-1.2836,2.6708-2.44,4.0016-3.424a1.6713,1.6713,0,0,1,1.5861.1918,38.57,38.57,0,0,1,2.8651,3.1617c2.1633,2.5106,4.347,5.0054,6.4255,7.5847.2556.3171-.0946,1.1094-.1372,1.6835-.04.5419-.2816,1.309-.02,1.5869a19.7426,19.7426,0,0,0,2.6,2.0173c.2426-.2617.8163-.8724,1.3807-1.4914a4.5025,4.5025,0,0,0,.3394-5.8208c-.8353-1.075-1.79-2.0569-2.6894-3.0827-2.5786-2.9421-5.23-5.8245-7.7093-8.8481a4.5313,4.5313,0,0,0-6.58-.8979c-1.47,1.1889-2.9482,2.3733-4.3475,3.6427-2.3044,2.0907-2.7139,4.7637-.776,7.1665,2.3417,2.9035,4.9216,5.6136,7.3173,8.4752,3.59,4.288,3.8683,2.9881-.2949,6.5367-.2274.1938-.4083.5718-.6434.6008-.5322.0655-1.3339.1886-1.5909-.1-2.8733-3.2231-5.647-6.5346-8.4854-9.7894-1.0626-1.2185-2.0549-2.3524.0727-3.45C183.6843,372.0558,182.8157,371.0286,181.7064,369.7167ZM486.188,81.2938c3.5773-3.2157,2.6726-6.518-.2313-8.7616-4.2353-3.2723-8.5018-6.511-12.8672-9.6055-2.5406-1.801-4.9043-1.3262-6.7423.9364C462.9,68.107,459.71,72.56,456.415,76.9279c-1.679,2.2259-1.585,5.3771.4085,6.9234,4.6024,3.57,9.2412,7.0978,13.9645,10.5053,2.4826,1.7911,4.9443,1.0017,6.6824-1.096,1.8739-2.2617,3.5664-4.6767,5.2633-7.0777a1.3476,1.3476,0,0,0-.2265-1.2916c-1.4018-1.1628-2.889-2.2234-4.3538-3.31-1.0746-.7967-2.2452-2.2835-3.2175-2.1668-.96.1153-1.7258,1.858-2.5717,2.8909-.0291.0355-.0037.1155-.0037.31l4.78,3.687-3.6112,4.55c-4.46-3.3024-8.6966-6.47-12.9737-9.5814A1.2486,1.2486,0,0,1,460.27,79.21c3.0184-3.9889,6.0247-7.9876,9.1079-11.9259a1.6643,1.6643,0,0,1,1.5791-.3336c4.3465,3.1889,8.6308,6.4627,13.0031,9.7715l-1.0994,2.119ZM377.58,25.9748c-2.6759-.1469-5.1655-.2747-7.6538-.4231-2.0144-.12-4.0276-.2593-6.0406-.4008q-4.6976-.33-9.3939-.6757c-1.0266-.0747-1.3292.4431-1.3561,1.41-.0445,1.5972-.2385,3.1895-.3334,4.786-.37,6.2231-.6707,12.4513-1.1288,18.6678-.1073,1.4557.3289,1.7925,1.66,1.8106,2.735.0371,5.47.1914,8.2015.3444,1.9518.1093,3.9.2881,5.8487.4483,2.7589.2269,5.5168.4652,8.45.7134.1576-1.7057.2942-3.1843.4271-4.6225L356.4165,46.659c.1722-2.17.3344-4.2144.51-6.4263l16.0593,1.09V36.7794L357.2349,35.603c.1359-2.29.2574-4.3377.3807-6.4165L377.58,30.5988Zm-212.8352,108.53a4.2317,4.2317,0,0,0-3.9688,2.272c-2.7625,5.2611-5.5184,10.53-8.08,15.89a4.5178,4.5178,0,0,0,2.2845,6.1222q7.725,3.8835,15.5332,7.6a4.5739,4.5739,0,0,0,5.8853-1.9347c2.6023-5.0837,5.166-10.1884,7.6521-15.33a4.9321,4.9321,0,0,0-2.3789-6.8177q-7.4367-3.6723-14.9121-7.2664A10.8655,10.8655,0,0,0,164.7446,134.5045ZM288.18,442.0006c4.6314,1.4937,6.7846.3943,8.2548-3.8193.5981-1.7143,1.1929-3.4318,1.8623-5.1187a5.0312,5.0312,0,0,0-3.279-6.841,20.2481,20.2481,0,0,1-2.1536-.76c-5.4667-1.92-10.9342-3.8369-16.639-5.8382-2.92,8.2956-5.8114,16.5078-8.7431,24.8354l4.048,1.3729c1.0459-2.9693,1.9957-5.666,3.0252-8.5886,2.319.79,4.56,1.604,6.8351,2.3069a2.6173,2.6173,0,0,1,1.9481,1.8894c.9812,3.0064,2.1087,5.9655,3.2146,8.93a1.8456,1.8456,0,0,0,.7751,1.0278c1.2642.5294,2.5817.9318,3.8791,1.382l.5277-.26ZM554.1339,184.9321c1.5881,6.6448,3.0984,12.9644,4.6054,19.27l4.3694-1.0392c-1.8818-8.002-3.7349-15.8818-5.5906-23.7731l-25.92,6.1054c1.8954,8.0174,3.7477,15.8521,5.6269,23.801l4.2752-1.0408c-.1085-.6168-.184-1.1865-.3107-1.7446-1.2591-5.5445-2.5358-11.085-3.77-16.635-.077-.3463.0837-1.0541.2636-1.1015,1.8961-.5,3.8186-.899,5.7316-1.3256,1.2644,5.3583,2.4562,10.4086,3.6657,15.5342l4.3754-1.1266c-1.2257-5.2484-2.428-10.3962-3.6258-15.5246Zm-54.21-67.8888L486.2285,102.47l4.8026-4.4507,10.8516,11.4054,3.162-3.062c-2.3522-2.4783-4.7826-5.0187-7.1877-7.5828a36.7621,36.7621,0,0,1-2.7988-3.2248,1.6768,1.6768,0,0,1,.0768-1.4723c.2378-.4184.8329-.6222,1.24-.9581.95-.7831,1.8967-2.2247,2.8163-2.2028.8764.0208,1.732,1.544,2.57,2.4323,1.6352,1.7341,3.1687,3.5737,4.8971,5.2082,2.1052,1.991,4.3679,3.8156,6.5874,5.7338l2.7115-2.436L499.3724,84.1926c-1.2774,1.0792-2.4583,1.986-3.5356,3.0025-4.95,4.6711-9.8477,9.3975-14.8215,14.0428-.9918.9263-.6871,1.5946.0317,2.35,5.1452,5.407,10.298,10.8069,15.556,16.322ZM301.626,29.9909c1.7477,6.4259,3.4341,12.6263,5.12,18.8267a36.5253,36.5253,0,0,1-5.7439-3.4558c-4.9683-3.4535-9.9245-6.9246-14.9138-10.3474a2.3619,2.3619,0,0,0-1.6286-.4015c-1.359.2917-2.6769.7747-4.0845,1.2042,2.0839,7.6743,4.1027,15.2508,6.2107,22.8025.8476,3.0363,1.08,3.1037,4.0688,1.825a1.6065,1.6065,0,0,0,.7446-1.3532c-1.139-4.3605-2.39-8.6918-3.5857-13.0377-.4461-1.6213-.8271-3.2606-1.3381-5.29,6.4583,4.459,12.5706,8.5212,18.49,12.8476,2.2075,1.6134,4.15,2.4106,6.7686,1.17.89-.4215,1.1971-.5672.9036-1.6066-1.623-5.7475-3.1519-11.5215-4.7143-17.2861-.64-2.3612-1.2827-4.7215-1.9414-7.1457ZM515.7936,147.6248l21.9685-14.4743c-.2571-.4527-.4608-.8583-.7066-1.2366-1.6583-2.5524-1.663-2.5532-4.2181-.8867-4.6108,3.0071-9.2193,6.0178-14.0107,9.1458a4.6084,4.6084,0,0,1,.01-1.0507c1.9028-6.4594,3.5936-12.9942,5.8282-19.3374,1.1675-3.3144,1.3023-6.0229-1.2413-8.5822-.07-.0706-.1472-.1345-.26-.2368l-22.1209,14.5678,2.4918,3.7185L520.12,118.2937a6.2915,6.2915,0,0,1-.0867,1.1757c-1.9272,6.393-3.7083,12.8367-5.874,19.1483-1.119,3.2611-1.2692,6.0641,1.2262,8.6592C515.4683,147.3626,515.5671,147.4326,515.7936,147.6248ZM309.3167,430.1324c-.4341,2.9565-.8065,5.75-1.26,8.5294-.8993,5.5086-1.8644,11.0065-2.7231,16.5212a1.5937,1.5937,0,0,0,.8545,1.24,11.7079,11.7079,0,0,0,2.4244.42c4.3546.6932,8.7057,1.41,13.0645,2.0757,2.178.3327,4.37.5749,6.5574.8583.186-1.6463.3355-2.97.4931-4.3645l-18.5259-2.9753c.3509-2.2323.6748-4.2927.9983-6.35l14.9352,2.4031c.2685-1.5484.5216-3.0084.7692-4.436l-14.95-2.4447c.3609-2.2776.6815-4.3,1.0025-6.3257l18.49,2.9393.8879-4.4173ZM419.2,444.8011l-18.0485,5.216c-.5807-2.1144-1.1458-4.1722-1.7085-6.2212l14.47-4.2579c-.44-1.597-.8079-2.933-1.1728-4.2575l-14.5441,4.1611c-.6292-2.0509-1.2545-4.09-1.8922-6.1688,5.7371-1.6546,11.3064-3.2454,16.8593-4.891.4515-.1338,1.1716-.7257,1.12-.9645a36.58,36.58,0,0,0-1.1558-3.7c-7.08,2.0784-13.9055,4.18-20.7988,6.0266-1.4763.3954-1.2838.91-1,1.8927,1.6887,5.8481,3.3518,11.7036,5.0465,17.55.6091,2.101,1.2824,4.1832,1.93,6.2854l22.2065-6.353C420.0706,447.6674,419.6662,446.3358,419.2,444.8011Zm88.6558-52.3889c1.3683-1.6471,2.6225-3.2192,3.9426-4.7337,3.4687-3.9794,6.9751-7.926,10.4338-11.914.2559-.2951.4819-1.0261.327-1.1973a14.2453,14.2453,0,0,0-2.3861-2.1081,1.2585,1.2585,0,0,0-1.21.1842c-1.7092,1.9556-3.3121,4.0038-5.0122,5.9676-2.2381,2.5851-4.5349,5.1193-6.7979,7.6658l-4.81-4.29,9.896-11.4885c-1.1131-.9366-2.2655-1.906-3.3757-2.84l-9.948,11.4818-4.8493-4.3219,12.2434-14.25-3.3759-2.8324-15.0282,17.45Zm-287.587-9.4116-16.775,20.2907,17.775,14.7151,2.7921-3.4067c-4.7943-3.9838-9.5159-7.9074-14.4587-12.0148l4.1519-4.9865,11.7042,9.6536c.9726-1.2194,1.8657-2.339,2.74-3.4346L216.56,394.143l4.2157-5.0351c4.007,3.3835,7.8581,6.7117,11.7965,9.9332,2.48,2.0284,2.541,1.9591,4.704-.3768.27-.2911.4941-.6241.7481-.9486Zm329.605-213.044c1.0212-.4338,1.8077-.8437,2.6409-1.1039,1.1925-.3724,1.4505-.9435.8516-2.09-.7047-1.3491-1.2358-2.7892-1.837-4.192-2.0556-4.7968-4.0774-9.6083-6.1784-14.385a4.0715,4.0715,0,0,0-4.5376-2.69,25.1738,25.1738,0,0,0-5.293,1.7558c-4.01,1.6572-8.01,3.3463-11.9554,5.15a4.5672,4.5672,0,0,0-2.5544,6.1484c1.9242,4.7864,4.0051,9.51,6.0265,14.2571.8189,1.9232,1.6526,3.84,2.4928,5.7906l4.1106-1.781c-2.6858-6.2725-5.2709-12.4316-7.98-18.5356-.548-1.2347-.4-1.835.8076-2.3208,1.6859-.6782,3.3441-1.425,5.0176-2.1343,3.1619-1.34,6.3262-2.6745,9.68-4.0916Zm-293.091,264.76c-5.5129-3.1755-10.9016-6.393-16.4148-9.3809-1.4994-.8125-1.5024-1.4743-.793-2.7016,1.5565-2.6932,3.0413-5.428,4.6049-8.1169,1.0463-1.7993,2.1778-3.5491,3.245-5.2788l18.052,10.2992c.7512-1.383,1.4134-2.6022,2.1227-3.9083-5.9675-3.38-11.7659-6.7166-17.6194-9.9541a4.6285,4.6285,0,0,0-6.6476,1.9433c-2.73,4.73-5.5346,9.4185-8.1894,14.19a4.5742,4.5742,0,0,0,1.87,6.6233c1.2171.7117,2.4294,1.432,3.6505,2.1369,4.62,2.6671,9.2438,5.3295,13.91,8.019ZM332.46,29.9576l10.9927-1.151c-.1954-1.6115-.35-2.8877-.54-4.4578l-26.558,2.459c.209,1.5692.4013,3.0126.6082,4.566L327.84,30.3272c.6864,7.26,1.37,14.4924,2.0786,21.9874l4.5743-.5308C333.8073,44.4259,333.1441,37.3023,332.46,29.9576Zm77.3232,25.5959-21.39-5.2323c1.76-7.2674,3.4532-14.2589,5.2022-21.4814l-4.27-.9941a14.068,14.068,0,0,0-.5109,1.416c-1.8636,7.75-3.69,15.51-5.598,23.2489-.2664,1.08.0395,1.2976,1.0106,1.5233,6.507,1.5121,12.9974,3.0957,19.4929,4.6574,1.6809.4041,3.3607.8125,5.0615,1.2238C409.1548,58.2922,409.4527,56.9944,409.7835,55.5535Zm9.98,3.907,8.7724-20.3151-4.152-1.7183c-3.5285,8.1757-7.0139,16.2513-10.5288,24.3954l24.4136,10.5424,1.7118-4.15ZM210.8378,111.7586,229.85,93.6513c-1.0485-1.0828-2.0291-2.0955-3.011-3.11-.678.5491-1.4615,1.0939-2.14,1.7475q-6.2009,5.9738-12.3618,11.9887c-.172.167-.3273.4511-.5188.4781-.454.064-1.11.2021-1.36-.0337q-2.8105-2.6535-5.48-5.4557c-3.0269-3.1915-6.0011-6.4329-9.1121-9.7766l-3.4526,2.9163ZM340.3008,434.421v4.4819h10.95v21.7588h4.2549V438.8859l10.167-.5534V434.421Zm113.9245-5.3855-18.76,9.0995q-4.8183-9.82-9.605-19.5759l-3.8692,1.6639c3.8907,7.95,7.7527,15.84,11.6353,23.7732l22.6354-11.034C455.5333,431.5575,454.892,430.3211,454.2253,429.0355Zm27.5135-47.63-19.2617,16.169,2.8,3.3857c2.366-1.9651,4.7166-3.853,6.9839-5.836.7659-.67,1.2973-.7111,1.9322.0525q3.9086,4.701,7.8281,9.393c1.7645,2.1105,3.5409,4.2112,5.3484,6.3595a21.6261,21.6261,0,0,0,2.4661-2.0919,1.522,1.522,0,0,0,.0912-1.4628c-2.0482-2.5253-4.2009-4.9655-6.2932-7.4556-2.34-2.7845-4.6488-5.5947-7.0077-8.4377l7.9558-6.7057ZM266.9586,41.261c3.3879,8.3037,6.7158,16.46,10.0607,24.6583l4.1089-1.8275c-3.3658-8.2471-6.67-16.344-10.0029-24.51ZM443.3344,75.8172a11.4342,11.4342,0,0,1,2.4808,1.3091c1.2592,1.1572,1.7514.4506,2.37-.6437,1.9319-3.4162,3.9412-6.7885,5.8984-10.1906,2.1582-3.7514,4.2921-7.5169,6.4539-11.3067l-3.8429-2.1842C452.2214,60.5077,447.8183,68.0928,443.3344,75.8172Zm12.1825,326.1777c-.8954.5676-1.6577,1.11-2.4738,1.5528-.942.5112-1.0326.9165-.3649,1.8865,2.2249,3.232,4.2661,6.59,6.4176,9.8733,2.4039,3.6687,4.8515,7.3088,7.3379,11.0484,1.1906-.8256,2.2829-1.5829,3.4308-2.3787C465.0657,416.6249,460.3583,409.4127,455.5169,401.9949Z"/>
        <path d="M185.6385,107.8013c1.3929.9812,2.7213,1.8388,3.9627,2.8078,2.6359,2.0573,2.5741,2.048.5062,4.759-2.5673,3.3656-5.0973,6.7621-7.5457,10.2146-.6291.8871-1.01.908-1.8113.2993-1.5414-1.17-3.1528-2.2493-4.7472-3.3486-1.0279-.7087-.5018-1.3885.0068-2.0719q3.6849-4.9517,7.3734-9.9009c.4547-.6124.854-1.2664,1.3186-1.8706A8.7508,8.7508,0,0,1,185.6385,107.8013Z"/>
        <path d="M225.9574,69.2376c1.5885-1.05,3.1452-2.0727,4.6963-3.1043,2.8817-1.9166,5.793-3.7912,8.6211-5.7839.9374-.66,1.3421-.7775,2.0485.3325q3.873,6.0863,8.0076,12.004c.8082,1.1579.5461,1.8523-.4351,2.5116-3.8941,2.6164-7.8054,5.2073-11.7077,7.8115-.9212.6148-1.71.6818-2.401-.3738C231.9005,78.2262,228.9894,73.8333,225.9574,69.2376Z"/>
        <path d="M180.1718,146.7905l-7.7248,15.7552c-5.06-2.54-9.7776-4.9474-14.5374-7.2681-1.0579-.5158-1.0384-1.055-.5873-1.95q3.3012-6.5484,6.54-13.1281c.4107-.8308.9062-1.1072,1.808-.6524C170.4435,141.9547,175.2338,144.3284,180.1718,146.7905Z"/>
        <path d="M291.6932,438.4873l-15.6185-5.5305c.76-2.1818,1.5752-4.1963,2.1406-6.2788.3088-1.1376.83-1.3465,1.7857-1.0137,4.426,1.5419,8.8578,3.0689,13.253,4.6947a1.6944,1.6944,0,0,1,.7959,1.4459C293.3726,434.0266,292.5227,436.1957,291.6932,438.4873Z"/>
      </g>
    </g>
  </g>
</svg>
