<svg xmlns="http://www.w3.org/2000/svg" width="83.7053" height="87.4099" viewBox="0 0 83.7053 87.4099">
  <g id="Layer_2" data-name="Layer 2">
    <g id="Layer_1-2" data-name="Layer 1">
      <path d="M71.2808,10.2719s.5488.62,1.1284,1.3209C76.1681,16.1376,85.7826,29.35,83.3016,46.3343,81.3357,59.7934,72.8691,68.142,68.4524,72.4973c-5.5539,5.4765-14.1159,14.026-27.5772,14.8492C22.1627,88.491,10.063,73.7655,9.0554,72.4973,2.6137,64.3894,1.43,55.98.57,49.87-.1078,45.0532-1.935,27.4357,8.3483,13.8074c.1259-.1668.29-.3844.5219-.6746C16.9675,2.9857,29.7249,1.0854,34.5113.3724A57.8338,57.8338,0,0,1,57.8458,2.4937C66.5031,5.24,70.38,9.2921,71.2808,10.2719Z" fill="#231f20"/>
    </g>
  </g>
</svg>
